<?xml version="1.0" encoding="utf-8"?><!DOCTYPE svg PUBLIC "-//W3C//DTD SVG 1.1//EN" "http://www.w3.org/Graphics/SVG/1.1/DTD/svg11.dtd"><svg width="740" height="555" viewBox="0 0 740 555" xmlns="http://www.w3.org/2000/svg" xmlns:xlink="http://www.w3.org/1999/xlink"><view id="clock_icons_amsterdam" viewBox="185 0 185 185"/><svg viewBox="0 0 185 185" width="185" height="185" x="185"><path fill="none" d="M97 123.6c0-1.9-1.6-3.2-3.5-3.2s-3.4 1.5-3.5 3.5v7h7v-7.3zM88 164h10v13H88z"/><path fill="#FFF" d="M108.7 85L147 47l-5.2-5.2-1.2-1.2-40.1 39.8-7.2-5.8-8.2 6.6-2.6-2.6 4.4-4.4-38.3-38-5.2 5.2-1.2 1.2L83.1 83 70 93.9V99h3.5l-35.6 35 5.1 5.1 1.3 1.2 32.1-31.8-9 67.9c8 2.4 16.4 3.7 25.1 3.7 9.4 0 18.5-1.5 27-4.3l-7.3-55.1 23.8 23.9 5-5.2 1.4-1.2-32.2-32-.6-5.2h2.4v-2h5v-5.1l-14.3-11.7 1.6-1.6 4.4 4.4zM90 124c.1-2 1.7-3.5 3.5-3.5 1.9 0 3.5 1.3 3.5 3.2v7.4h-7V124zm0 7h7-7zm8 46H88v-13h10v13z"/></svg><view id="clock_icons_chicago" viewBox="555 0 185 185"/><svg viewBox="0 0 185 185" width="185" height="185" x="555"><path fill="none" d="M95 39.4h1.8V41H95z"/><path fill="#FFF" d="M109 169V97h-5V65h-6V41h-1v-7 5h-2v-7h-.4l-.2-15H94l-.2 15H93v8-6 6h-8v-8h-.8L84 17h-.5l-.2 15H83v9h-1v-8 8h-1v-2 26h-1v32h-4v81.5c6 1 10.9 1.5 16.5 1.5s11.5-.5 16.5-1.5V169zM96.8 40.9H95v-1.6h1.8v1.6z"/></svg><view id="clock_icons_hongkong" viewBox="0 185 185 185"/><svg viewBox="0 0 185 185" width="185" height="185" y="185"><path fill="none" d="M92.5 98.2c3 0 5.4-2.4 5.4-5.4 0-3-2.4-5.4-5.4-5.4s-5.4 2.4-5.4 5.4c0 2.9 2.4 5.4 5.4 5.4zm0-9.9c2.4 0 4.4 2 4.4 4.4 0 2.4-2 4.4-4.4 4.4-2.4 0-4.4-2-4.4-4.4 0-2.4 2-4.4 4.4-4.4z"/><path fill="none" d="M100 83H85v92h15V83zm-1 91H86V84h13v90zM87.6 33.1l.4-.1v-.4c-.1-.7 0-1.1.2-1.5.6-1 .7-2.9.7-3v-.6l-.6.1c-.7.1-3.3 1.4-3.8 1.7l-.5.1v5l.9-.3c1.4-.6 2.7-1 2.7-1zm-2.6-3c1-.4 2-.9 2.6-1.2-.1.6-.1 1.3-.4 1.7-.3.5-.6 1-.6 1.7-.3.1-.6.3-1.6.6v-2.8zM89 50.9l.6-.1c1.1-.2 1-.2 2.7-.3h.6c1.6 0 1.5 0 2.6.3l.6.1V37.2l-.3-.1c-.1 0-1.7-.4-3.3-.4-1.6 0-3.1.3-3.2.4l-.3.1v13.7zm1-12.8c0-.1 1.5-.3 2.5-.3s2.5.2 2.5.3v11.5c0-.1-.8-.1-2.3-.2h-.5c-1.4 0-2.2 0-2.2.2V38.1zM96.8 31.1c.2.4.3.7.2 1.5v.4l.4.1s1.4.4 2.7 1l.9.3v-5l-.5-.1c-.5-.3-3-1.5-3.7-1.7l-.7-.1v.6c0 .1.1 2 .7 3zm3.2-1v2.8c-1-.2-1.4-.4-1.7-.6 0-.6-.2-1.2-.5-1.7-.3-.4-.2-1.1-.3-1.7.6.3 1.5.7 2.5 1.2zM90 82v-7h-3v7h1.5zM94 82v-7h-3v7h1.5zM98 82v-7h-3v7h1.5zM96 28h-7v5h7v-5zm-1 4h-5v-3h5v3zM95.1 51H95v5h-1v-1h-3v1h-1v-5h-.1c-2.6 0-5.2.7-5.3.7l-.6.2v7.7l.8-.1c3.2-.6 7.5-.6 7.6-.6 0 0 4.5 0 7.7.6l.9.1v-7.7l-.6-.2c-.1 0-2.6-.7-5.3-.7zm4.9 7.3c-4-.5-7.3-.5-7.5-.5-.2 0-3.5 0-7.5.5v-5.6c1-.2 3-.5 4-.5V57h3v-1h1v1h3v-4.8c1 .1 3 .4 4 .5v5.6z"/><path fill="none" d="M97 37.2v13.5l.4.1s1.5.4 3 1l.6.2v-.9l1 .1V39.4l-1-.1v-.6l-.1-.1c-.1 0-1.8-1-3.4-1.2l-.5-.2zm1 1.2c1 .2 2 .6 2 .8v11.3c-1-.3-1-.5-2-.7V38.4zM88 50.7V37.2l-.6.1c-1.5.2-3.2 1.2-3.3 1.2l-.1.1v.6l-1 .1v11.9l1-.1v.9l.5-.3c1.5-.6 3.1-1 3.1-1h.4zm-1-.8c-1 .1-1 .4-2 .7V39.3c0-.2 1-.6 2-.8v11.4zM100 61H85v7h15v-7zm-1 6H86v-5h13v5z"/><path fill="#FFF" d="M96 57h-3v-1h-1v1h-3v-4.8c-1 .1-3 .4-4 .5v5.6c4-.5 7.3-.5 7.5-.5.2 0 3.5 0 7.5.5v-5.6c-1-.2-3-.5-4-.5V57zM77.1 76.4l.4.4-.2-5.8h30.4l-.2 5.9.4-.4 1.2-6.5H75.9zM106 69v-6.5l1-1.4V61H78v.1l1 1.4V69h27zm-21-8h15v7H85v-7zM98.3 32.3c.3.1.7.3 1.7.6v-2.8c-1-.4-2-.9-2.6-1.2.1.6.2 1.3.5 1.7.3.5.4 1 .4 1.7zM90 29h5v3h-5z"/><path fill="#FFF" d="M86 62h13v5H86zM92.5 49.5h.2c1.4 0 2.3 0 2.3.2V38.1c0-.1-1.5-.3-2.5-.3s-2.5.2-2.5.3v11.5c0-.1.8-.1 2.3-.2l.2.1zM85 50.5c1-.3 1-.5 2-.7V38.4c-1 .2-2 .6-2 .8v11.3zM100 39.3c0-.2-1-.6-2-.8V50c1 .1 1 .4 2 .7V39.3zM92.5 97.1c2.4 0 4.4-2 4.4-4.4 0-2.4-2-4.4-4.4-4.4-2.4 0-4.4 2-4.4 4.4 0 2.5 2 4.4 4.4 4.4z"/><path fill="#FFF" d="M79 178.9c4 .7 8.8 1.1 13.5 1.1s9.5-.4 13.5-1.1V77.6h.3l.3-5.6H78.4l.3 5.6h.3v101.3zM95 75h3v7h-3v-7zm-4 0h3v7h-3v-7zm-4 0h3v7h-3v-7zm-2 8h15v92H85V83zM97.9 20.2s-1.1-3.3-5.4-3.3c-4.3 0-5.4 3.3-5.4 3.3-3.4 2.7-3 8.5-3 8.5l-.7.3.7 1.1s-.7 2.3-1.3 2.3c-.6.1-.9.7-.9.7v1l-1.3 1.5 1.3 1.5v.9h-1.6l.8 1h.9v12.6l-2 1v5.1l-1 .4v.9h-1v1h29v-1h-1v-.9l-1-.4v-5.2l-2-1V39h.8l.8-1H103v-.8l1.3-1.5-1.3-1.5v-1s-.3-.6-.9-.7c-.6-.1-1.4-2.3-1.4-2.3l.7-1.1-.6-.3c0-.1.5-5.9-2.9-8.6zm-1.2 7.4c.7.1 3.3 1.4 3.8 1.7l.5.1v5l-.9-.3c-1.3-.6-2.6-1-2.6-1l-.4-.1v-.4c.1-.7 0-1.1-.2-1.5-.6-1-.7-2.9-.7-3v-.6l.5.1zM89 28h7v5h-7v-5zm3.5 8.8c1.6 0 3.2.3 3.2.4l.3.1v13.6l-.6-.1c-1.1-.2-1-.2-2.7-.3h-.6c-1.6 0-1.5 0-2.6.3l-.5.1V37.2l.3-.1s1.6-.3 3.2-.3zM84 29.4l.5-.1c.5-.3 3-1.5 3.7-1.7l.7-.1v.6c0 .1-.1 2-.7 3-.2.4-.3.7-.2 1.5v.4l-.4.1s-1.4.4-2.7 1l-.9.3v-5zM84 52v-.9l-1 .1V39.4l1-.1v-.6l.1-.1c.1 0 1.8-1 3.4-1.2l.5-.1v13.5l-.4.1s-1.5.4-3 1l-.6.1zm17 7.5l-.8-.1c-3.2-.6-7.5-.6-7.6-.6 0 0-4.5 0-7.7.6l-.9.1v-7.7l.6-.2c.1 0 2.7-.7 5.3-.7h.1v5h1v-1h3v1h1v-5h.1c2.6 0 5.2.7 5.3.7l.6.2v7.7zm-.1-21l.1.1v.6l1 .1v11.9l-1-.1v.9l-.5-.3c-1.5-.6-3.1-1-3.1-1H97V37.2l.5.1c1.5.1 3.3 1.1 3.4 1.2z"/><path fill="#FFF" d="M86 174h13V84H86v90zm6.5-86.7c3 0 5.4 2.4 5.4 5.4 0 3-2.4 5.4-5.4 5.4s-5.4-2.4-5.4-5.4c0-3 2.4-5.4 5.4-5.4zM87.3 30.6c.3-.4.2-1.1.3-1.7-.6.3-1.6.7-2.6 1.2v2.8c1-.2 1.4-.4 1.7-.6 0-.7.3-1.2.6-1.7z"/></svg><view id="clock_icons_london" viewBox="185 185 185 185"/><svg viewBox="0 0 185 185" width="185" height="185" x="185" y="185"><path fill="none" d="M92.4 70.7l.2 5.1c.2.1.3.3.3.5v.2l1.4 1.3.1-.1c.1-.1.3 0 .4.2.1.2-.1.3.1.5-.3-.1-.3 0-.6 0-.2 0-.4-.3-.2-.4H94l-1.4-1.3c-.1.1-.2.1-.3.1-.3 0-.5-.2-.5-.5 0-.2.1-.4.3-.5l.1-5.1c-3 .1-5.4 2.5-5.4 5.6 0 3.1 2.5 5.6 5.5 5.6 3.1 0 5.5-2.5 5.5-5.6 0-3.1-2.4-5.6-5.4-5.6z"/><path fill="none" d="M92.3 68.7c-4.2 0-7.5 3.4-7.5 7.6 0 4.2 3.4 7.6 7.5 7.6 4.2 0 7.5-3.4 7.5-7.6.1-4.2-3.3-7.6-7.5-7.6zm0 13.5c-3.3 0-5.9-2.7-5.9-6 0-3.2 2.6-5.8 5.8-5.9V69h.1v1.3c3.3 0 5.9 2.7 5.9 5.9 0 3.4-2.6 6-5.9 6z"/><path fill="#FFF" d="M97.4 38zM80.6 68l-.6.6V85h25V68.5l-.5-.5H80.6zm11.7 15.8c-4.2 0-7.5-3.4-7.5-7.6 0-4.2 3.4-7.6 7.5-7.6 4.2 0 7.5 3.4 7.5 7.6.1 4.2-3.3 7.6-7.5 7.6zM93 10v2.2c-1 0-.7.3-.7.5 0 .3.1.5.4.6-.4 2.9-3 20.7-5.4 24.7h10.1c-2.5-4-4.4-21.7-4.8-24.7.3 0 .7-.3.7-.6s-.3-.5-.3-.6V10z"/><path fill="#FFF" d="M92.4 70.3V69h-.1v1.3c-3.2.1-5.8 2.7-5.8 5.9 0 3.3 2.7 6 5.9 6 3.3 0 5.9-2.7 5.9-5.9-.1-3.3-2.7-5.9-5.9-6zm-.1 11.5c-3.1 0-5.5-2.5-5.5-5.6 0-3 2.4-5.5 5.4-5.6l-.1 5.1c-.2.1-.3.3-.3.5 0 .3.2.5.5.5.1 0 .2 0 .3-.1L94 78l-.1.1c-.1.1 0 .4.2.4s.3-.1.6 0c-.1-.2 0-.3-.1-.5-.1-.3-.3-.4-.4-.2l-.1.1-1.4-1.3v-.2c0-.2-.1-.4-.3-.5l-.2-5.1c3 0 5.5 2.5 5.5 5.6.1 2.9-2.3 5.4-5.4 5.4zM105 85H80v1.8l2 3.2h21.2l1.8-2.8zM97 180c2.1 0 4-.4 6-.7V166H82v13.4c2 .2 4 .6 6 .6h9zM87 39h10v10H87zM82 61v3.9L81 67h23.1l-1.1-2.1V61zM87.1 50L82 60h21.2l-5.7-10zM82 163h21v3H82zM82 144h21v3H82zM82 92h21v16H82zM82 148h21v14H82zM82 130h21v14H82zM82 109h21v3H82zM82 113h21v13H82zM82 126h21v3H82z"/></svg><view id="clock_icons_newyork" viewBox="370 0 185 185"/><svg viewBox="0 0 185 185" width="185" height="185" x="370"><path fill="none" d="M77 156h5v2h-5zM81.3 60.3l.1.1 3.9-.6c0-.2.1-.4.1-.6L80 56.4v1.1c0 .8.9 2.2 1.3 2.8zM85 61.4l-3.1-.5c.9 1.1.7 2.6.5 3.2-.1.1.4 1.1.4 1.4l1.5.7c1.3-.7.7-4.8.7-4.8zM92 156h6v2h-6zM85 156h5v2h-5zM100 156h6v2h-6z"/><path fill="#FFF" d="M109.2 80l-4.4 6.2c-.4-2.1-.7-3.6-.8-3.9-.4-.8-2.3-2.8-2.3-3.2-.4-2.4-.1-5.3-2.8-6.4-1.8-1-2.3-1.9-2.8-3.7 0 0 1.6-1.4 1.1-2.7-.4-1.3-1.2-1.4-1.2-3.6v-1.3l6.1-.5-6.4-1.3c0-.2-.1-.4-.1-.6l5.3-3.7-6.1 1.9c-.2-.2-.3-.4-.5-.7l3.1-5.2-5 4.2c-.5-.2-.8-.2-1.4-.2l-1-5.9-1 5.9c-.5.1-.9.2-1.3.4l-5-4.5 3.5 5.8c0 .1-.1.1-.1.2l-6.1-.8 5.4 2.8c0 .2-.1.4-.1.6l-3.9.6-.1-.1c-.4-.5-1.3-2-1.3-2.7v-1.1c0-3-1.6-14.2-2.8-16.9l-.3-1.1.9-3.4H79v-4h-1.8V29c2.1-1-.1-9.2-.1-9.2-.4 1.8-.5 2.2-.5 2.2-.6-1.6.1-3 .1-3-1.4 1.3-1.7 2.3-1.8 2.7.1-.8 0-3.2 0-3.2-.5 1.1-3.3 5.7-3.6 7.4-.4 1.9.8 3 .9 3v2h-2v4h1.7l1 3.4c-.4 1.3-.1 3.1.7 3.9.6.7.4 3.5.5 4.5.3 2.5.1 3.7.6 6.2.3 1.4 1.6 4.1 1.6 5.5l-.6 3.1v-.1c-.8 1-2.6 4.2-1.2 8.9 0 0-.8 1.4.4 2.2 0 0-.6 2.6 2.2 4.2 1.2.7.8 2.9.5 5-.3 1.5.8 3.4 1.4 4.4-.2.5-4 10.6-.5 14.1-.2.7-4.8 7.4.6 9.7l.1 22.1s1.6 1.1 1.1 3.6c-.1.1-2 .3-2 2.1 0 1.3 2.2 2.2 1.9 3.4-.4 1.2-3.9 2.7-3.9 3.2v2.7h-1v4h-2v5h2v6.4l-2 5.4v8.2h-3v1c7 1.9 14.8 3 22.7 3 7 0 13.3-.8 20.3-2.4V176h-3v-8.2l-2-5.4V156h1v-5h-1v-4h-2.1c-.5-1-2.6-6.7-2.8-12.4 0 0 2.4-1.2 2.7-3.3 1.4-8.5-.4-26.4-.4-26.5.4-.4.3-1 1.5-1.2 1-.2 2.3-.7 2.7-3.4.4-2.8 0-4.6 0-4.6s1.3.1 1.9-.7c.7-.8 2.5-4 2.5-4s.6-1.7-1.1-3.2l2.3-3.2-6.3-4.5zM82 158h-5v-2h5v2zm.9-92.5c-.1-.3-.4-1.3-.4-1.4.2-.6.4-2.1-.6-3.2l3.1.4v.1s.6 4.1-.6 4.8l-1.5-.7zM90 158h-5v-2h5v2zm8 0h-6v-2h6v2zm8-2v2h-6v-2h6z"/></svg><view id="clock_icons_paris" viewBox="370 185 185 185"/><svg viewBox="0 0 185 185" width="185" height="185" x="370" y="185"><path fill="none" d="M89.2 128c-1 6-2.4 14-3.7 19h13.9c-1.3-5-2.6-13-3.7-19h-6.5zM109.9 155.3z"/><path fill="#FFFAFA" d="M111 148v-1h-3.3c-2.5-7-5.5-18.5-6.9-25.7.2-.9 1.2-1.9 1.2-1.9V118h-1.7c-2.5-17-3.4-48-4.1-68.6-.1-3.4-.2-6.8-.2-9.6v-4.1c0-1.5.4-2.8 1-2.8v-2h-1v-2h-.3c-.2-1-1.7-2.5-2.7-2.6V14h-1v12.4c-1 .2-2.4 1.6-2.7 2.6H89v2h-1v2c.7 0 1 1.3 1 2.8v4.1c0 2.8-.1 6.2-.2 9.6-.7 20.5-1.6 51.5-4.1 68.5H83v-.3V119.4s1 1 1.2 1.9c-1.4 7.2-4.4 18.6-6.9 25.6H74v8.8c-2 5.1-6.7 14.2-9.5 19.6 3.4 1.2 7 2.1 10.6 2.8-.4-.4-.9-.8-1.5-.8 1.2-9.3 9.2-16.5 18.9-16.5s17.6 7.2 18.9 16.5c-.6.1-1.2.4-1.6.8 3.6-.7 7.2-1.7 10.7-2.8-2.7-5.4-7.5-14.5-9.5-19.6V148zm-25.4-1c1.3-5 2.6-13 3.7-19h6.5c1 6 2.4 14 3.7 19H85.6zm24.3 8.3z"/></svg><view id="clock_icons_sanfransisco" viewBox="0 370 185 185"/><svg viewBox="0 0 185 185" width="185" height="185" y="370"><path fill="none" d="M59.1 70h11.4c-.3 0-.6-1-.9-1.6-1.7-3-3.3-5.8-4.8-8.6-1.5 2.8-3.1 5.6-4.8 8.6-.3.6-.6 1.6-.9 1.6zM55 154.5l6.9-7.6-6.9-7.6zM62.9 53c.6 1 1.3 2.5 1.9 3.8.7-1.3 1.3-2.8 1.9-3.8h-3.8zM57.7 50h1.9c-1.9-4-3.6-7.9-4.6-10.9v7.6c0 1.6 1.1 3.3 2.7 3.3zM50 82c0-.5 1-.9 1-1.4v-46c0 .9-1 1.9-1 3.1V82zM74 154.5v-15.2l-6.9 7.6zM57.6 70c.5-.8.9-1.5 1.3-2.3 1.9-3.2 3.6-6.5 5.1-9.4-.9-1.8-1.9-3.3-2.7-5.3h-3.7c-1.6 0-2.7 1.5-2.7 3.1v11c.1 1.6 1.2 2.9 2.7 2.9zM71.3 130.8l-1.9-.2c-1.5-.1-3-.2-4.6-.3-1.5.1-3.1.1-4.6.3l-1.9.2c-.7.1-1.3.1-1.9.1-.5 0-1.4.1-1.4.1v2.4l9.5 10.6 9.5-10.6V131h-.7c-.7-.1-1.4-.2-2-.2zM71.1 53h-2.9c-.8 2-1.7 3.5-2.7 5.3 1.6 3 3.3 6.2 5.2 9.4.4.7.8 1.4 1.3 2.1 1.2-.4 2-1.5 2-2.8V56c0-1.5-1.3-3-2.9-3zM71.1 50c1.6 0 2.9-1.7 2.9-3.3v-5.8c-1 2.6-2.5 5.1-4 9.1h1.1zM71.1 74H57.7c-.5 0-.9.2-1.3.5-.5.8-.9 1.7-1.4 2.5 0 .1.1.2.1.2v11c0 1.6 1.1 2.8 2.7 2.8h13.4c1.6 0 2.9-1.2 2.9-2.8v-11c-.1-1.6-1.4-3.2-3-3.2zM71.1 95H57.7c-1.6 0-2.7 2.1-2.7 5.2v20s.9 0 1.4.1c.6 0 1.1.1 1.7.1h1.8c1.7 0 3.3.1 4.9.2 1.6-.1 3.3-.1 4.9-.2h1.8c.6 0 1.2 0 1.8-.1h.7v-20c0-3.2-1.3-5.3-2.9-5.3zM19 120.4c3-2.6 5-5.1 7-7.7V92.1c-2 4.1-4 8-7 11.8v16.5zM28 127.4c2-.6 4-1.1 6-1.6v-19.4l-6 6.9v14.1zM28 111.2c2-2.3 4-4.6 6-7V78.6c-2 3.8-4 7.5-6 11.2v21.4zM71.1 33H57.7c-1.5 0-2.8 1.3-2.8 2.9 1.4 3.5 3.5 8.1 6.2 14.1h7.4c2.3-5 4.5-9.2 5.5-12.5v-1.8c0-1.6-1.3-2.7-2.9-2.7zM35 125.4c1-.4 3-.7 4-1.1v-25c-1 1.8-3 3.6-4 5.4v20.7zM19 130.1c2-.8 5-1.6 7-2.3v-13.1c-2 2.6-4 5.1-7 7.6v7.8zM41 124c1-.3 2-.5 3-.8V92.7c-1 1.6-2 3.2-3 4.9V124zM35 75.9v26.7c1-1.9 3-3.7 4-5.5V66.5c-1 2.2-1.8 4.4-2.9 6.7-.4.9-1.1 1.8-1.1 2.7zM46 88.5l3-4.5V41.9c-1 2.7-2 5.7-3 9v37.6zM46 123c0-.1.7-.2 1.1-.2.6-.1.9-.2 1.9-.4v-36l-3 4.5V123zM50 122.2c0-.1 1-.1 1-.1v-39c0 .4-1 .9-1 1.4v37.7zM41 95.3c1-1.7 2-3.3 3-4.9V54.5c-1 2.8-2 5.8-3 9v31.8zM142 143c1 .4 1 .8 2 1.3v-1c-1-.8-1-1.5-2-2.3v2zM145 144.7c1 .4 1.4.7 2.2 1.1-.7-.6-1.2-1.2-2.2-1.9v.8zM142 139.1c1 .8 1 1.6 2 2.3v-19.2c0 1.7-1 3.3-2 4.8v12.1zM161 126.1V125c0 .8-.4 1.6-.6 2.3.4-.2.6-.7.6-1.2zM148 144.4c0 .4 1.1.8 1.6 1.3.1-.1-.6-.1.4-.2V107.3c-1 1.9-2 4-2 6.1v31zM137 134.7c1 1.2 3 2.4 4 3.5v-10c-1 1.7-2 3.2-4 4.5v2zM136.4 133.8v-.3l-.1.1c0 .1.1.2.1.2zM137 141h-.2c1 0 2.1.8 3.1 1.3.3.2 1 .1 1 .3v-2.4c-1-1.1-3-2.3-4-3.5v4.3zM151 147.4c1 .7 1.9 1.3 2.8 2l.2.1c.3.2 1 .4 1 .5v-3h-4v.4zM151 132.1v10.5c0 .2.5.4.5.4h.2c3.2-4 5.5-8 7.2-14h-6c-.8 0-1.9 1.6-1.9 3.1zM152.9 107h6.7c.8 0 1.4-.8 1.4-1.6v-5.5c0-.8-.6-1.9-1.4-1.9h-6.7c-.8 0-1.9 1.1-1.9 1.9v5.5c0 .8 1.1 1.6 1.9 1.6zM78 121.9c0 .1 1 .2 2 .3V84.4c-1-.8-2-1.7-2-2.5v40zM161 120.7c0-.8-.6-1.7-1.4-1.7h-6.7c-.8 0-1.9.8-1.9 1.6v5.5c0 .8 1.1 1.9 1.9 1.9h6.5c.7-3 1.2-4.9 1.6-7.3zM156 143h2v-9.7c0 1.8-1 3.6-2 5.3v4.4zM152.9 117h6.7c.8 0 1.4-.6 1.4-1.4v-5.5c0-.8-.6-1.1-1.4-1.1h-6.7c-.8 0-1.9.3-1.9 1.1v5.5c0 .8 1.1 1.4 1.9 1.4zM129.7 137.5c2.2.9 4.3 1.9 6.3 2.9v-4.6c0-.4-.7-.8-1.1-1.2-1.7 1.3-3.4 2.3-5.2 2.9zM155 143v-2.9c-1 1.1-1.4 1.9-2.1 2.9h2.1zM161 132.1c0-1.4-.7-2.6-1.4-2.7-.2.5-.6 1-.6 1.5V143h2v-10.9zM78 37.6v41.8c0 .8 1 1.7 2 2.6V37.7c-1-2.4-2-4.4-2-5.8v5.7zM85 123.3c2 .2 3 .5 4 .8V97.6c-1-1.6-3-3.3-4-4.9v30.6zM96 125.7c2 .5 4 1.1 6 1.6v-14.2l-6-6.9v19.5zM81 122.4c1 .1 1.2.2 1.9.4.4.1 1.1.2 1.1.2V90.9l-3-4.5v36zM90 66.5v30.6c2 1.8 3 3.7 5 5.5V75.9c-1-.9-1.2-1.8-1.6-2.7-1.1-2.2-2.4-4.5-3.4-6.7zM85 90.4c1 1.6 3 3.3 4 4.9V63.5c-1-3.1-3-6.1-4-9v35.9zM90 124.3c2 .3 3 .7 5 1.1v-20.7c-2-1.8-3-3.6-5-5.4v25zM81 84l3 4.5V51c-1-3.3-2-6.4-3-9v42zM134.8 133.9c-3.8-3.9-7.8-8-10.8-12.4v10.9c1 1.6 3.5 3.1 5.4 4.7l-.1-.4c2-.5 3.8-1.5 5.5-2.8zM112 130.5c0 .1-.1.1 0 0 3.4 1.2 7 2.5 10 3.8v-1.2c-3-3.1-7-6.3-10-9.5v6.9zM112 105.9v15.8c3 3.3 7 6.5 10 9.6v-11.4c-2-2.3-3.5-4.7-5.3-7.2-1.7-2.2-3.7-4.4-4.7-6.8zM147 115.9c-1 1.5-1 3-2 4.3v22c1 .5 1 1 2 1.5v-27.8zM123.6 134.9c.4.2.9.3 1.3.5-.4-.4-.9-.7-1.3-1.1v.6zM103 112.7c3 2.6 5 5.2 8 7.7v-16.5c-3-3.8-5-7.8-8-11.8v20.6zM96 104.2c2 2.3 4 4.6 6 7V89.8c-2-3.6-4-7.4-6-11.2v25.6zM103 127.8c3 .7 5 1.5 8 2.3v-7.8c-3-2.5-5-5.1-8-7.6v13.1z"/><path fill="#FFF" d="M163 144.4V113.3c1-9.9.4-18.1.4-18.2l-.4-.1h-2v2h-9.3c.1-1 .2-1.6.2-1.6l-.4-.1-.4-.2V95h-1v8.3c-2 8.9-6.4 22.8-14.1 29.7-19.6-20.1-33-43-41.2-60.4-11.5-24.3-16-43.4-16-43.6-.1-.3-.6-.5-.6-.5V26h-4v3H55v-3h-4v3.5c-1 3.2-5.5 21-15.9 43.1-5.4 11.3-12.8 24.8-22.6 38.4l-4.3 5.1c.1.2.1.5.2.7 2.1-1.9 4.5-3.9 4.6-4 1.6-2.2 3-4.5 5-6.9v15.8c-2 1.7-3.6 3.4-5.4 5l-.5.4c.1.3.3.5.5.8 2.4-1.8 4.4-3.5 5.4-4.2v6.9s-.3 0-.3.1c-.7.3-2 .8-3.3 1.3.8 1.5 1.5 3 2.4 4.4 1-.2 1.7-.4 2.2-.5 9.6-2.3 19.2-4 28.9-5 1-.1 2.1-.2 3.1-.3v38.9c1 .7 3 1.4 4 2v-11.1l9.5-10.6 9.5 10.6V178c1 .3 3 .5 4 .8v-48.2c1 .1 2.5.2 3.8.3 9.7.9 19.3 2.6 28.8 5 9.6 2.3 19.2 5.2 28.5 8.7 3.6 1.3 6.8 2.8 10.8 4.3v10c0-.6 1-1.1 1-1.7v-5.5l2.9 2.9c.5-.5 1.1-.9 1.5-1.4l-2.3-2.7s.1 0 .1.1c.1.1.2.1.3.1 1.3.6 2.3 1 3.1 1.3.2-.2.4-.6.6-.9-.5-.3-1-.2-1.6-1.2h.4v-3h2v3c1-.3 1-.7 1-1v-2h2v-.1c1.1-.7 1.1-1.6 2.1-2.4zM26 127.8c-2 .7-5 1.5-7 2.3v-7.8c3-2.5 5-5.1 7-7.6v13.1zm0-15.1c-2 2.6-4 5.2-7 7.7v-16.5c3-3.8 5-7.8 7-11.8v20.6zm8 13c-2 .5-4 1.1-6 1.6v-14.2l6-6.9v19.5zm0-21.5c-2 2.3-4 4.6-6 7V89.8c2-3.6 4-7.4 6-11.2v25.6zm5 20.1c-1 .3-3 .7-4 1.1v-20.7c1-1.8 3-3.6 4-5.4v25zm0-27.2c-1 1.8-3 3.7-4 5.5V75.9c0-.9.7-1.8 1.1-2.7 1.1-2.3 1.9-4.5 2.9-6.7v30.6zm5 26.2c-1 .2-2 .5-3 .8V97.6c1-1.6 2-3.3 3-4.9v30.6zm0-32.9c-1 1.6-2 3.3-3 4.9V63.5c1-3.1 2-6.1 3-9v35.9zm5 32c-1 .1-1.2.2-1.9.4-.4.1-1.1.2-1.1.2V90.9l3-4.5v36zM49 84l-3 4.5V51c1-3.3 2-6.4 3-9v42zm2 38l-1 .1V84.4c0-.5 1-.9 1-1.4v39zm0-84.4v43c0 .5-1 .9-1 1.4V37.7c0-1.1 1-2.1 1-3.1v3zm4 1.5c1 3 2.7 6.9 4.6 10.9h-1.9c-1.6 0-2.7-1.7-2.7-3.3v-7.6zm0 17c0-1.6 1.1-3.1 2.7-3.1h3.7c.8 2 1.7 3.5 2.7 5.3-1.6 3-3.3 6.1-5.2 9.4-.4.7-.8 1.5-1.3 2.3-1.5-.1-2.6-1.3-2.6-2.9v-11zm7.9-3.1h3.9c-.6 1-1.3 2.5-1.9 3.8-.8-1.3-1.4-2.8-2-3.8zm6.7 15.4c.3.5.6 1.6.9 1.6H59.1c.3 0 .6-1 .9-1.6 1.7-3 3.3-5.8 4.8-8.6 1.5 2.8 3.1 5.7 4.8 8.6zM55 154.5v-15.2l6.9 7.6-6.9 7.6zm19 0l-6.9-7.6 6.9-7.6v15.2zm0-21.1L64.5 144 55 133.4V131s.9-.1 1.4-.1c.6 0 1.3-.1 2-.1l1.9-.2c1.5-.1 3-.2 4.6-.3 1.5.1 3.1.1 4.6.3l1.9.2c.7.1 1.4.1 2 .1h.7v2.5zm0-13.1h-.7c-.6 0-1.2.1-1.7.1h-1.8c-1.7 0-3.3.1-5 .2-1.6-.1-3.3-.1-5-.2H58c-.6 0-1.1 0-1.7-.1-.5 0-1.4 0-1.4-.1v-20c0-3.1 1.1-5.2 2.7-5.2H71c1.6 0 2.9 2.1 2.9 5.2v20.1zm0-32.1c0 1.6-1.3 2.8-2.9 2.8H57.7c-1.6 0-2.7-1.2-2.7-2.8v-11c0-.1-.1-.1-.1-.2.5-.8 1-1.8 1.5-2.6.4-.2.8-.5 1.3-.5h13.4c1.6 0 2.9 1.6 2.9 3.2v11.1zm0-21.1c0 1.3-.9 2.4-2 2.8l-1.2-2.1c-1.9-3.2-3.6-6.5-5.2-9.5.9-1.8 1.8-3.3 2.7-5.3h2.9c1.6 0 2.9 1.5 2.9 3.1v11zm0-20.4c0 1.6-1.3 3.3-2.9 3.3H70c1.5-4 3-6.5 4-9.1v5.8zm0-9.2c-1 3.3-3.2 7.5-5.5 12.5h-7.4c-2.7-6-4.8-10.6-6.2-14.1 0-1.6 1.3-2.9 2.8-2.9h13.4c1.6 0 2.9 1.1 2.9 2.7v1.8zm6 84.7c-1-.1-2-.2-2-.3v-40c0 .8 1 1.7 2 2.5v37.8zM80 82c-1-.9-2-1.7-2-2.6V31.9c0 1.4 1 3.4 2 5.8V82zm4 41c0-.1-.7-.2-1.1-.2-.6-.1-.9-.2-1.9-.4v-36l3 4.5V123zm0-34.5L81 84V41.9c1 2.7 2 5.7 3 9v37.6zm5 35.5c-1-.3-2-.5-4-.8V92.7c1 1.6 3 3.2 4 4.9V124zm0-28.7c-1-1.7-3-3.3-4-4.9V54.5c1 2.8 3 5.8 4 9v31.8zm6 30.1c-2-.4-3-.7-5-1.1v-25c2 1.8 3 3.6 5 5.4v20.7zm0-22.8c-2-1.9-3-3.7-5-5.5V66.5c1 2.2 2.3 4.4 3.4 6.7.4.9.6 1.8 1.6 2.7v26.7zm7 24.8c-2-.6-4-1.1-6-1.6v-19.4l6 6.9v14.1zm0-16.2c-2-2.3-4-4.6-6-7V78.6c2 3.8 4 7.5 6 11.2v21.4zm9 18.9c-3-.8-5-1.6-8-2.3v-13.1c3 2.6 5 5.1 8 7.6v7.8zm0-9.7c-3-2.6-5-5.1-8-7.7V92.1c3 4.1 5 8 8 11.8v16.5zm34-.2c1-1.4 1-2.8 2-4.3v27.8c-1-.5-1-1-2-1.5v-22zm-23 14.1c-3-1.3-6.6-2.6-10-3.7-.1 0 0 0 0-.1v-6.9c3 3.2 7 6.4 10 9.5v1.2zm0-2.9c-3-3.1-7-6.4-10-9.6V106c1 2.3 3 4.6 4.7 6.9 1.8 2.4 3.3 4.8 5.3 7.2v11.3zm1.6 3.5v-.6c.4.4.9.7 1.3 1.1-.5-.2-.9-.4-1.3-.5zm.4-2.4v-10.9c3 4.3 7 8.5 10.8 12.4-1.7 1.3-3.6 2.3-5.6 2.8l.3.4c-1.9-1.5-4.5-3.1-5.5-4.7zm12 7.9c-2-1-4.1-2-6.3-2.9 1.9-.6 3.6-1.5 5.3-2.9.4.4 1.1.8 1.1 1.2v4.6zm.4-6.6l-.1-.1.1-.1v.2zm4.6 8.7c0-.2-.7-.1-1-.3-1-.5-2.1-1.3-3.1-1.3h.2v-4.4c1 1.2 3 2.3 4 3.5v2.5zm0-4.3c-1-1.2-3-2.3-4-3.5v-2c2-1.3 3-2.8 4-4.5v10zm3 6.1c-1-.4-1-.9-2-1.3v-2.1c1 .8 1 1.5 2 2.3v1.1zm0-2.9c-1-.8-1-1.6-2-2.3V127c1-1.4 2-3 2-4.8v19.2zm1 3.3v-.7c1 .6 1.4 1.2 2.2 1.9-.8-.4-1.2-.8-2.2-1.2zm5-1.5v2.3c-1 .1-.3.1-.4.2-.5-.4-1.6-.8-1.6-1.3v-31.1c0-2.1 1-4.1 2-6.1v36zm11-17.1c0 .5-.2.9-.6 1.2.2-.8.6-1.6.6-2.3v1.1zm-10-25.2v-1c0-.8 1.1-1.9 1.9-1.9h6.7c.8 0 1.4 1.1 1.4 1.9v5.5c0 .8-.6 1.6-1.4 1.6h-6.7c-.8 0-1.9-.8-1.9-1.6v-4.5zm0 9.2c0-.8 1.1-1.1 1.9-1.1h6.7c.8 0 1.4.3 1.4 1.1v5.5c0 .8-.6 1.4-1.4 1.4h-6.7c-.8 0-1.9-.6-1.9-1.4v-5.5zm4 40c0-.2-.6-.3-.9-.5l-.3-.1c-.9-.7-1.8-1.3-2.8-2v-.5h4v3.1zm0-7.1h-2.1c.8-1 1.1-1.8 2.1-2.9v2.9zm3 0h-2v-4.4c1-1.7 2-3.5 2-5.3v9.7zm-6.3 0h-.2s-.5-.2-.5-.4v-10.5c0-1.5 1.1-3.1 1.9-3.1h6c-1.7 6-4 10-7.2 14zm1.2-15c-.8 0-1.9-1.1-1.9-1.9v-5.5c0-.8 1.1-1.6 1.9-1.6h6.7c.8 0 1.4.9 1.4 1.7-.4 2.3-.9 4.3-1.6 7.3h-6.5zm8.1 15h-2v-12.1c0-.5.5-1 .6-1.5.7.2 1.4 1.3 1.4 2.7V143z"/></svg><view id="clock_icons_saopaulo" viewBox="185 370 185 185"/><svg viewBox="0 0 185 185" width="185" height="185" x="185" y="370"><path fill="none" d="M96.7 68l.5-.6-.1-.1-.5.6zM97.8 66l-.2-.2-.6.7.2.3zM96.1 65.4l.7.9.6-.7-.6-.8-.4.3zM97.3 63.7l-.2-.2-.6.4.3.3zM100.4 67.2L99 65.7l-.6.7 1.4 1.7zM97.8 62.2l.1.1.8-.6-.1-.2zM99.6 68.3l-1.4-1.7-.6.8 1.3 1.8zM99.5 64.5l-.3.4.3-.4zM96.7 53.2c.3-.1.6-.3.9-.4l-.6-.5-1 .3.7.6zM96.8 61.1l.8.8.8-.6c-.6-.1-1.1-.2-1.6-.2zM98.3 53.3l-.9.4.2.2.9-.5zM97.1 54.6c.4.1.8.1 1.2.2l-.6-.5-.6.3zM99.4 64h.1l.7-.8zM95.6 54.3l1.2-.6-.1-.1-1.2.6.1.1zM96.2 51.2l.8.6.6-.3-.8-.6zM96.7 62.6L95.6 61h-.1l-.1.1 1.3 1.5zM96.3 63.6l.6-.4-.2-.2-.5.5zM97.3 52.1l.6.5c.2-.1.5-.2.7-.3l-.6-.5-.7.3zM95.5 64.3l.6-.4-.2-.2-.5.4zM96 63.2l.5-.4-1.4-1.5-.2.2.1.4zM94.8 61.1l.1-.1c-.1 0-.1 0-.1.1zM98.6 63.1l.6.6.7-.8-.5-.5zM98.8 65.4l-.6.6v.1zM95.7 52.4l.9-.4-.8-.6-.8.3zM96.1 64.9l.5-.4-.3-.4-.7.6.3.4zM96.5 66.5l-.6-.9-.1.1.2 1.3zM95.2 53.9l1.2-.6-.7-.5-1.2.6.7.5zM99.2 52.3l.8-.3-.1-.1c-.2.1-.4.3-.7.4zM100.3 52.2l-.7.4.2.1.7-.4zM100.3 54.8l-.5.3h.1l.4-.3zM98.8 53.6l-.9.5 1 .8c.1 0 .3 0 .4.1l.7-.4-1.2-1zM97.2 50.8l.8.6.7-.4-.8-.6zM95.1 49.2l1.8 1.3.7-.3-1.8-1.3zM98.3 51.6l.6.5c.2-.1.5-.2.7-.4l-.6-.4-.7.3zM94.1 49.6l1.8 1.4.6-.3-1.8-1.4zM98.4 64.5l-.6-.7zM96.4 68.4l-.1-.1v.1zM96.9 67l-.2-.2-.5.5.2.3zM97.1 71.6l-.2-.2.1.3zM100.3 55.2c.2 0 .4.1.6.1l-.3-.3-.3.2zM98.7 69.4l-1.3-1.8-.5.7 1.3 1.9zM101 61.8c-.1 0-.3-.1-.4-.1l.3.3.1-.2zM99.1 53.5l1.2.9.7-.4-1.3-.9zM101.3 54.2l-.7.4v.1l.7-.5zM97.7 70.8l-1.2-2.1-.1.1.3 1.3.7 1.1zM102 50.9l.6-.3-.6.3zM97.3 71.9l-.2.2v.1l1 2.2.3-.4zM95.4 52.5l-.8-.6-1.2.5.8.7zM102.4 55.6l.3-.2-1.2-.9-.7.4.7.6c.4 0 .7.1.9.1zM100.6 52l.2.1 1.3-.7-.1-.1zM101.4 62.2l-.1.2zM97.7 74.9l.2-.2-.5-1zM98.8 76.7L98 75l-.2.4.2 1.1zM97.7 62.6l-.2-.2-.2.2.1.2zM96.6 54.5l.8-.4-.2-.2-1 .5c0 .1.2.1.4.1zM96.3 61.1H96l1 1.3.2-.2-.9-1.1zM97 62.8l.1.2h.1l-.2-.2zM97.7 65.3l.5-.5-.6-.8-.6.5zM98 53l-.1-.1c-.3.1-.6.3-.9.4l.1.1.9-.4zM97.6 63.5l-.2-.3-.1.1.2.2zM97.6 63l.2.2.3-.2-.2-.2zM98.6 73.6l-.4-.5.4.6zM97.4 67v.1l.6-.8zM98 70.4l-.2-.2.2.3zM99.1 61.4h-.2.2zM99.4 52.9l-.1-.2-.7.4.2.1zM98.2 52.8l.1.1.7-.3-.1-.1c-.2.1-.5.2-.7.3zM98.3 62.7l.7-.7v-.1l-.8.7zM98.4 65l-.5.6.1.2.5-.7zM99.3 64.3l-.1-.1-.3.3.1.1zM98.1 63.6l.6.7.3-.4-.6-.6zM86.4 67.6l-.3 3.4.9-3.9zM100.7 63.7l-.7.8 1.3 1.5.7-.9zM103.9 52.2l1.2-.7-1.1-.8-1.3.7zM98.1 48l1.7 1.2 1.3-.5-1.7-1.2zM102.4 51.1v.1l1.3-.7-.1-.1zM101.2 50.3l.5.4c.4-.2.9-.4 1.3-.6l-.5-.3-1.3.5zM91.8 43.5l5.9 4.3 1.4-.5-7.6-5.3zM88.4 78l.8-.9.1-.4-.8.8zM89 86c.7-1.6 1.6-4 2-5.8l-1.8 2.4L89 86zM90.7 104.8l4.8-10.7-.3-2.1-2 4.2-2.4 6.3zM103.6 63l-.5-.5c-.4-.2-.8-.3-1.2-.4l-.4.5 1.4 1.3.7-.9zM89.4 74.5l-.3.3-.4 2 .6-.7zM104 50.3l.9-.5-.9.5zM102.9 55.7c.2 0 .3.1.4.1l-.3-.2-.1.1zM102.7 64.2l-1.4-1.3-.4.5 1.3 1.4zM102.5 53.8l-.7.5 1.3.9.6-.5zM105.2 53.6l-1.1-.8-1.3.8 1.2.9zM105.4 49.9l-1.1.6 1.1.8 1.2-.7zM106.7 52.6l-1.1-.8-1.2.8 1.1.8zM100.1 49.5l.8.6 1.3-.6-.8-.6zM81.5 63.1l1-.6.4-1.1-1.1.5zM81 62l.5-.3.3-.8c-.2.1-.3.2-.5.2l-.3.9zM82 61.5l1-.6.2-.8c-.3.2-.7.3-1 .5l-.2.9zM80.5 63.6l.6-.3.3-1.2-.5.3zM83 62.2l1-.6.4-1-1.1.5zM77.3 73.7l.7-.5 1.4-4.6-.6.4zM79.4 67.1l.6-.4.9-2.9-.5.3zM79 68.5l.6-.4.3-.9-.6.4zM87.4 71l.7-.6v-.6l-.5.5zM86.9 73.3l.8-.7.3-1.7-.7.6zM86.2 72l.8-.7.2-.7-.8.6zM88.2 73.3l-.2 2.1.8-.8.5-2.4zM93.5 52.9v.2l.2.2.1-.1zM85.9 64l.4-.2.1-.6-.4.3zM83.4 60.7l1.1-.6.2-.7c-.3.2-.7.3-1 .5l-.3.8zM84.5 61.4l1-.6.2-.9-.9.5zM84.9 59.9l1-.5.2-.6c-.3.2-.6.3-1 .5l-.2.6zM101.4 73.1l-1-1.4-.6.8 1.3 1.7zM100.3 51.8l1.5-.7c-.6.2-1 .4-1.5.7zM99.4 51.1l.6.4c.5-.2 1-.5 1.4-.7l-.5-.4-1.5.7zM100.7 52.5l-.6.4 1.2.9.7-.4zM103.6 52.4l-1.2-.8-1.3.7 1.2.9zM101 67.1l1.2 1.5.4-.7-1.2-1.4zM96.1 48.7l1.8 1.4 1.5-.7-1.7-1.2zM94.7 48.9l.8-.2-3.2-2.4.1.9zM92.2 45.8l3.6 2.7 1.6-.6-5.6-3.9zM100.1 61.7l-.5.4.6.6.4-.5zM101.9 69l-1.3-1.5-.6.8 1.2 1.6zM101 70.2l-1.2-1.6-.7.9 1.3 1.6zM100.2 71.4l-1.3-1.7-.5.8 1.2 1.7zM99.4 72.5l-1.2-1.8-.1.1 1.2 1.9zM93.8 49.3l.6-.2-1.9-1.4.2.8zM101.1 62.6l-.5.6zM100.4 63.4l-.7.8v.1l.7-.9zM99.7 64.8l-.3.4 1.3 1.6.4-.5zM98.2 50.3l.9.6 1.5-.7-.9-.6zM99.1 73l-1.2-1.9-.3.4 1.2 1.8zM99.5 76.9l.2-.4-1.2-2.2-.2.4.9 2.2zM99 88.3l-.4-.2-.7 1.5.2.9zM97.5 87.8l.3 1.3.5-1.1zM97.7 90.2l-1.8 4 .2 1.4 1.8-4.6zM102.9 68.2l-.5.6.3.3zM93.4 49.5l-.7-.5.2.7zM101.9 71.4l-.7-.9-.6.9.9 1.3zM102.5 69.6l-.4-.4-.7 1 .7.8zM95.1 91.1l-.8 2 .8-1.6zM94.3 51.7L93 50.6l.3 1.5zM94.8 54.1l-.7-.6H94l.7.6h.1zM94.7 51.5l.8-.4-1.8-1.4-.8.3.1.1zM90.5 109.6l5.3-13.4-.2-1.5-4.9 11zM97.6 89.6l-.4-1.6-1.7 3.5.3 2zM95.7 63.4l-.6-.8.3 1.1zM97 87.7l-.6-.2-1.1 3 .1.4zM86.3 92.3l.1-.9-.9 1.3-.6 2.8zM85.7 91.9l.8-1.1.3-4.7zM86.1 60l-.2.6.1-.1zM85 63.7l.7-.4.3-2.4-.3.1zM86.7 79.2l.7-.9.2-2-.4.5zM73.9 90.7l-1.3 1.4-1.9 6.1 1.4-1.7zM87.6 80.6l.3-1.3-.2.2zM86.8 90.9l-.1.4.4-.9zM88.1 78l-.3.4-.1.5.3-.3zM87.3 79.9l-1 1.3-1.3 6.4 1.6-2.1.4-2.2zM71.9 97.3L70.4 99l-.5 1.6 1.5-1.8zM100.3 76.8l.1-.4-.1-.2-.2.4zM86.5 62.7h.1l.2-2-.7 2.3zM100.5 75.9zM100.9 74.6l-1.3-1.8-.1.2 1.2 2.1zM99.8 77l.2.1-.1-.2zM98.8 73.9l-.1.1 1.2 2.2.2-.3zM72 92.6l-1.1 1.3-2.1 6.6 1.3-1.6zM93.9 54l-.3-.3v.2c.1.1.1.1.3.1zM99.2 73.3l-.2.3 1.3 2 .2-.2zM85.1 75.4l-.4.4-.1.6.4-.3zM84.9 70.2l-.5 2.2.3-.3zM84.5 77l-.2 1.7.5-2zM83.8 76.6l-.7.6-.2.9.7-.7zM84 73.8l.6-.5.1-.7-.5.3zM85.3 72.1l-.2.8.6-.5v-.7zM85.6 73.4v-.5l-.7.6-.2 1.8.5-.5zM85.5 65.3l-.9 3.2.6-.4V68zM80.8 76.8l-1.2 1.1-.9 2.9 1.3-1.2zM80.5 79.2l1-1 .7-2.5-.9.8zM83.8 73.3l-.7.5-.3.9.8-.6zM83.9 74.3l-.6 2.3.7-.6.5-2.2zM78 83l1.5-1.4.3-1.4-1.3 1.3zM84.2 76.8l.1-.6h-.1l-.1.8zM83.4 74.7l-.7.6-.7 2.5.8-.7zM82.7 77.6l-.9.8-.3 1.1.9-.9zM82.7 74.2l-1 .7-.3 1 1-.8zM86.1 75.4l-.4.4-.2 2.3V78zM56.6 133.5l-.1.1.1-.1zM69.8 114.9l-2.2 3.1-5 16.9c.1 0 .3.1.4.1l1.8-2.9 5-17.2zM61 119.9l-1.8 2.4-3.6 11.1c.2 0 .4.1.6.1l.8-1.1 4-12.5zM64.5 133.2l-1.1 1.8c.2 0 .4.1.6.1l.5-1.9zM110.3 71.2l.3.3.1-1.9-.3-.3zM108.2 88.5zM110.7 68.7l-.3-.3v.4l.3.3zM108.4 85.3l-.2-.3-.1 2.4.2.3zM86.2 61.3l.2-.6h-.1zM107.6 137.2l2.8 13.8h3.5l-5.7-24.2zM137.3 161.3l8.1-.2-34.9-64.7 5.1 16.6zM107 135.9l-.8 12.9s.2.1.3.2l.7-11.8-.2-1.3zM86.7 120l-2.8 7.2-.6 7.3 3.1-8.8zM89 138.9l-.6 2.2c.2.1.3.1.5.2l.1-2.4zM76.1 114.8l-2.4 3.8-1.9 7.5 3.6-8.3zM74.3 147.1l-.4 1.5h.2zM89.7 121.5l-3.3 10.3-.5 8.6c.8.2 1.5.5 2.2.7l1-3.6.6-16zM105.5 53.8l-1.2.9 1.2.9 1-1.1zM82.9 139.5c.2.1.4.1.6.2l2.6-7.9.3-4.8-3.1 8.9-.4 3.6zM107 80.7l-.2-.2c0 .2 0 .5.1.8l.1-.6zM107.3 52.6l.3.2.1-.6zM107.7 72.7c0 .1 0 .1-.1.2l.1-.2zM87 63.7l-.2.2-.1 1.2zM105.4 56.2l.2-.2-.2.2c-.1 0 0 0 0 0zM86.3 60.3l.2-.1.3-.9-.4.2zM107.4 78.4l-.3-.3-.3 1.7.3.4zM109.6 71.7l-.1.6.3.4.1-1.4-.2-.2zM109.8 68.7zM109.4 74.7l.3.4.1-2-.3-.3zM110 70.9l.1-1.9h-.1l-.2 1.7zM109.3 76.8l.3.3.1-1.6-.3-.3zM108.3 71.5l-.3 1.7.3.3.1-1.8zM108.3 77.2v-.6.8zM109.4 66.6v.4l.1-.7zM68 103l1.4-1.7.5-1.6-1.4 1.6zM78.5 72.9l1.1-.8 1.4-4.5-1.1.7zM80.4 66.4l1.1-.6.9-2.9-1.1.6zM80 67.8l1.1-.7.3-.8-1.1.6zM82 65.5l1.1-.7.8-2.7-1.1.6zM83.5 64.6l1.1-.6.7-2.7-1 .5zM72.8 91.4l1.3-1.4 1.2-3.8-1.3 1.3zM74.2 86.8l1.3-1.3.5-1.8-1.2 1.1zM76.8 78.4l1.1-.9 1.5-4.9-1.1.8zM76.2 80.2l1.2-1 .4-1.2-1.2 1zM75 84.2l1.2-1.1 1-3.3-1.2 1zM88 76l-.2 1.9.4-.5.5-2.2zM89.2 77.6l-.9 1.1-.9 4.7-.1 1.2 1.6-2.2zM85.8 65.8l.4-1.5-.3.1zM84.6 88.2l1.3-6.5-.9 1-.5 5.6zM87.3 76.2l.3-.4.2-2.1zM86.7 74.3l.8-.8.1-.3-.8.7zM86.4 64.7l-.8 3.1.5-.4v-.2zM85.9 73.5l-.1.8.7-.6.4-1.9-.8.7zM79.8 84.5l-1.2 1.3-1.4 4.7 1.4-1.7zM83.3 73.3l.6-.6 1.1-4.1-.6.4zM87.2 112.1l-1.3 3.3 1.2-2.7zM75.5 79.4l.8-.6 1.6-5.1-.8.6zM74.3 94.5l-1.9 2.2-.4 1.4 1.9-2.3zM95.9 96.8l-5.4 13.8-.2 3.9L96.1 98zM83.4 84.8l-.1.1-1.7 7.2 1.1-1.5zM88.4 87.5l.3-.6.2-3.9-1.7 2.2-.4 5.1 1-1.3.6-1.5zM90.4 103.5l-2.8 7.5-.1.9 2.8-6.3zM84.6 83.9l-1.3 6 .8-1.1zM78.1 86.3l-1.5 1.6L75 93l1.7-1.9zM76.5 91.9l-1.7 1.9-.4 1.4 1.7-2.1zM76.1 88.4l-1.7 1.8-1.7 5.7 1.8-2.2zM78.4 89.6L77 91.2l-.3 1.2 1.4-1.7zM84.6 82.2l-.7.9-.1.6.7-.8zM82.8 85.4L81.6 87l-2 7.7 1.5-2zM79.1 95.4l2-7.8-1 1.1-2.1 8.2zM80.1 87.6L78.9 89l-.3 1.1 1.2-1.5zM85.2 92.6l1.3-6.4-1.6 2.1-.7 3.5-.3 2.5zM86.6 74.9l-.6 2.7.9-1 .5-2.5zM87.4 78.9l-.8 1-.2.6 1-1.1zM86.8 77.2l-1 1-.6 2.7 1.1-1.2zM85.3 76.2l-.7 2.8.5-.5zM86.1 80.4l-1 1.2v.5L86 81zM85.5 68.2l-.3 2.9.8-3.2zM85.4 71.6l.4-.3.1-1.9zM84.6 64.8l.8-.4.2-.7-.8.5zM85.7 75.3l.6-.5.1-.5-.6.5zM80.2 75.7l1.2-1 1.3-4.5-1.1.9zM81.4 78.8l-1.1 1-.4 1.3L81 80zM79.7 77.3l1.3-1 .3-1-1.3.9zM81.9 74.4l.9-.8 1.2-4.3-.8.6zM83.4 78l-.7.8-.8 3 .8-.8zM84.2 77.3l-.3.3-.7 2.9.7-.8zM81.4 82.3l.8-3.1-.9.9-.9 3.3zM84.8 81.2L85 79l-.5.6-.5 1.9-.1 1 .9-1zM83.7 81.5l.1-1.2-.8.9-.8 3.4 1.1-1.4zM81.5 85.9l-.9 1.1-.3.9 1-1.1zM80.9 80.6l-1.2 1.1-.9 3.4 1.2-1.2zM74.6 89.5l1.7-1.8 1-3.6-1.5 1.6zM83.3 69.4l.9-.6 1.1-3.9-.8.4zM80.3 86.8l1-3.8-1 1-1.2 4.2zM82.5 81.6l-.8.9-.9 3.7.9-1zM84.3 83.6l-.6.7-.4 3.9zM83.2 83.9L82 85.3l-.3.9 1.3-1.5zM79.3 82.2l-1.5 1.4-1 3.6 1.5-1.6zM81.6 66.8l1.1-.7.2-.8-1.1.7zM81.7 70.5l1.2-.8 1.2-4.1-1.1.7zM83.1 65.8l1.1-.7.2-.7-1 .7zM80 71.8l1.3-1 1.3-4.2-1.2.7zM77.9 78.8l1.4-1.1.3-1.1-1.4 1.1zM76.7 82.6l1.5-1.3.9-3-1.4 1.1zM78.4 77.1l1.4-1.1 1.3-4.6-1.2.9zM76 85l1.5-1.5.5-1.6-1.5 1.4zM99.2 61.7l.3-.2-.3.2zM82.8 137l-.8 2.2c.2.1.4.1.6.2l.2-2.4zM85 149l-2.8-.7-.1.7 2.9.2zM83.5 128.3l-3.5 8.9-.1 1.6c.6.2 1.2.3 1.9.5l1.2-3.4.5-7.6zM86 133l-2.2 6.7c.6.2 1.2.3 1.8.5l.4-7.2zM81.9 148.2l-2.9-.8-.1 1.5 2.9.1zM79.5 138.2l-.1.4h.1v-.4zM98.8 117.1l-.2-1.2-5.1 27.1c.3.1.5.2.8.3l4.5-26.2zM98.5 114.8l-.2-1.3-5.8 29c.2.1.5.2.7.3l5.3-28zM110.9 71.8l.3.3.1-2-.3-.3zM98.1 112.5l-.6-4.6-8.1 29.5-.2 3.9c1 .3 2 .7 2.9 1l6-29.8zM71 127.7l2.1-8.2-1.7 2.7-2.4 9zM72.3 111.3l-1.9 2.7-4.9 17 2.5-3.9zM74.8 107.8l-1.9 2.7-4.3 15.6 2.5-4zM67 118.8l-2.5 3.5-3.7 12.2 1.5.3 4.7-16zM99 118.8l-.1-.7-4.4 25.2c.1 0 .1.1.2.1l4.3-24.6zM79.6 137l.6-6.6-2.1 5.7-.2 2.1 1.2.3.5-1.5zM76.6 146.8l-1.8-.4-.4 2.2 2 .1zM77.6 137.4l-.3.7h.2l.1-.7zM78.7 147.4l-1.8-.5-.2 1.8 1.8.1zM76.6 114l-.5 2.1 1.9-4.3zM106.8 134.6l-.3-1.2-.9 15c.1.1.2.1.3.2l.9-14zM110.1 84.3l.3.4.2-2.2-.3-.4zM110.3 81.6l.3.4.1-2.4-.3-.4zM110 86.9l.3.5.1-2.2-.3-.4zM109.8 90l.3.5.1-2.6-.3-.4zM110.5 78.2l.3.3.1-1.6-.3-.4zM110.6 76.1l.3.3.2-2-.3-.3zM110.5 78.7l.3.4V79l-.3-.4zM99.3 121l-.1-1.1-4.1 23.6c.1 0 .2.1.3.1l3.9-22.6zM107.5 138.5l-.7 12.5h3.3zM110.8 73.6l.3.3.1-1.4-.3-.3zM102.3 142l-2.2-15.7-3.1 18c1.9.8 3.6 1.6 5 2.2l.3-4.5zM103 146.8l-.5-3.3-.3 3.2c.3.1.5.2.7.4l.1-.3zM99.9 125.2l-.1-1.1-3.5 19.9c.1 0 .2.1.3.1l3.3-18.9zM99.6 123.1l-.2-1.1-3.8 21.7c.1 0 .2.1.3.1l3.7-20.7zM105.7 129.6l-.2-.8-1.1 19c.1 0 .1.1.2.1l1.1-18.3zM104.7 124.5l-.4-1.8-1.6 19.3.4 3.3zM64 123.1l-1.7 2.3-2.7 8.8c.3.1.6.1.9.2l3.5-11.3zM106.3 132.2l-.3-1.2-1 17.2c.1.1.2.1.3.2l1-16.2zM104.1 147.6l1.2-20.1-.4-1.8-1.6 21.1.1.5c.2.1.5.2.7.3zM85.3 149.1v.1l.8.1zM87.2 59.8h.1l.3-.9-.4.2zM61.7 126.3l-2 2.9-1.5 4.7c.4.1.8.1 1.1.2l2.4-7.8zM87.5 63l.5-.3.2-.5-.5.3zM87.5 58.1l-.2.6.3-.2.1-.6c0 .1-.1.1-.2.2zM87.1 60.7l.1-.5-.1.1zM87.6 60l-.6 2.5.4-.3.6-2.4zM82.7 56.8l.4-.2 1-3.2-.4.2zM86.6 58.1c.1-.1.3-.1.4-.2l.1-1.4-.1.1-.4 1.5zM84.9 55.8l1-.4.9-3-.9.3zM86.8 56.2l.3-1-.2.1zM83.5 56.5l1-.5 1-3.1-1 .4zM103.7 47.8l.9.6.8-.3-.9-.6zM104.8 47.4l.9.5 1-.4-.9-.6zM107 47.3l2.5-1 .3-1.2-3.7 1.7zM101.8 46.6l1.6 1 .7-.3-1.6-1zM91 39.5l10.4 6.8.8-.3-11.3-7.3zM88.4 70.6v.2l-.1 1.3 1.2-1.2.1-.4.1-.9zM89.7 68.6l-1 .8-.2.7 1.2-1zM88.3 62.9l-.8 3.5.7-.5.4-1.7.1-1.5zM89.6 76.2v.4l1.3-1.6v-.3l-1.3 1.5zM87.2 56.2V56l-.1.2zM70.1 88.7l1.4-1.3 1.3-3.9-1.4 1.1zM65.7 98.8l1.1-1.2 1.5-4.4-1.1 1.1zM81.6 57.3l.7-.3 1-3.3-.7.3zM68.5 90.1l1.1-1 1.3-4.1-1 .8zM62.8 107.6l1.3-1.6 2.5-7.6-1.2 1.2zM54.4 133.2c.3.1.6.1.9.2l3.3-10.3-1.5 2-2.7 8.1zM61.9 110.4l1.3-1.6.7-1.9-1.4 1.5zM59 130.1l-1.8 2.5-.4 1.1c.3.1.6.1.9.2l1.3-3.8zM57.4 124.1l1.5-2 4-12.4-1.3 1.6zM67.4 93.6l1.1-1.1.9-2.7-1.1.9zM79.5 59.6l1.2-.5.3-1.2-1.2.6zM78.7 62l1.2-.6.6-1.9-1.2.5-.6 2zM71.6 84l1.4-1.1.4-1.4-1.4 1.1zM80 58l1.2-.5 1-3.3-1.1.4zM78.2 63.4l1.2-.6.3-.9-1.2.6-.3.9zM72.2 82l1.4-1.1 1.7-5.3-1.3.9zM76.5 68.8l1.2-.7 1-3.1-1.2.7zM74.2 76l1.3-1 1.6-5-1.3.9zM76 70.4l1.3-.8.3-1-1.3.7zM85.1 154.1l-.3 5.6c1.2-.1 2.4-.1 3.5-.1l.2-5.5h-3.4zM69.5 86.2l-49.4 40.6c2.3.4 4.6.8 6.9 1.3l41-37.5 1.5-4.4zM81.3 160c1.1-.1 2.1-.2 3.1-.2l.3-5.6c-1.1 0-2.1.1-3 .1l-.4 5.7zM109.8 68.3l.1-.4h-.1zM73.4 155.2l-.9 6 2.1-.5c.2 0 .4 0 .5-.1l.6-5.8c-.9.2-1.7.3-2.3.4zM98.1 154.9c-3.4-.4-6.5-.6-9.4-.7l-.2 5.5c7.9-.1 13.6.9 16.5 1.5l-.8-5.3c-1.8-.4-3.9-.8-6.1-1zM76.1 154.8l-.6 5.8c.7-.1 1.4-.2 2-.3l.5-5.8c-.7.1-1.3.2-1.9.3zM78.3 154.5l-.5 5.8c1.1-.1 2.1-.2 3.1-.3l.5-5.7c-1.1 0-2.1.1-3.1.2zM104.6 155.9l.8 5.5c1.3.3 1.9.6 1.9.6h5l-.8-4.3c-1.8-.5-4.2-1.2-6.9-1.8zM66.6 94.8L32.4 129c1.3.2 2.5.5 3.8.7l29-30.3 1.4-4.6zM67.8 91.2l-40.4 36.9c1.5.3 3.1.6 4.6.8l34.9-34.8.9-2.9zM70.2 84.1L17 126.2c.9.2 1.8.3 2.7.5l50-41.1.5-1.5zM75.9 69.6l-.8.5-.4 1.1.9-.5zM77.1 66l-.8.4-1.1 3.2.9-.5zM77.7 64.1l-.8.4-.5 1.4.8-.4zM71.1 84.4l.5-1.5-1 .8-.5 1.5zM112.6 162h3.4v-2.9s-1.5-.5-4.1-1.2l.7 4.1zM73.6 76.8l-.9.7-1.9 5.6 1-.7zM130.4 161.4l6.6-.1-20.7-45.8zM75.4 71.1l-.8.6-1.8 5.2.9-.6zM61.9 143.5l-3.7 12.9 3.7-7.4 1.4-5.2c-.4-.1-.9-.2-1.4-.3zM51.8 141.4l-7.2 22.2c.4-.1.8-.3 1.1-.4l7-21.6c-.4-.1-.7-.1-.9-.2zM53 141.7l-7 21.4c.4-.1.7-.2 1.1-.3l6.8-21c-.3 0-.6-.1-.9-.1zM54.2 141.9l-6.7 20.8c.4-.1.8-.2 1.2-.2l6.5-20.4c-.3-.1-.6-.1-1-.2zM55.5 142.2l-6.4 20.3c.5-.1 1.1-.2 1.6-.2l6.1-19.8c-.4-.2-.8-.2-1.3-.3zM56.5 125.9l-5.1 6.7c.9.2 1.8.3 2.7.5l2.4-7.2zM64.9 100.1l-28.3 29.7c2.1.4 4.3.8 6.5 1.2l19.2-22.8 2.6-8.1zM74.9 81.3l.9-.7.3-1.3-.8.7zM61 112l-15.9 19.4c2 .4 3.9.7 5.9 1.1l5.7-7.6L61 112zM71.8 155.5l-1.8 6.2 2.2-.5.9-6c-.9.2-1.3.3-1.3.3zM62 109.1l-18.5 22c.4.1.9.2 1.3.2l16.6-20.2.6-2zM70.8 123.2l-2.5 4-2.3 8.2c.2 0 .4.1.6.1l1.9-3.2 2.3-9.1zM65.1 132.1l-.9 3c.5.1.9.2 1.4.3l2-7.2-2.5 3.9zM67.5 135.7l.6-2.2-1.2 2.1c.2.1.4.1.6.1zM68.7 132.5l-.5 2.1 1.9-4.6zM58.3 142.7L52.4 162c.6-.1 1.2-.1 1.8-.1l5.6-18.9c-.4-.1-1-.2-1.5-.3zM57.1 142.5l-6 19.7c.3 0 .7-.1 1-.1l5.9-19.4c-.3-.1-.6-.2-.9-.2zM62.6 147.4l1.7-3.4s-.2-.1-.7-.2l-1 3.6zM60.2 143.1l-5.6 18.8h.8l2-3.9 4.2-14.6c-.5-.1-.9-.2-1.4-.3zM78.1 62.7c-.2.1-.5.2-.7.4l-.4.9.8-.4.3-.9zM111 63.2l-.2 1.3.2.2.1-1.5zM111 61.5l-.1-.1-.1 1.2zM109.9 44.7l.5-1.5-6.2 2.4 1.6 1zM111 65.1l-.2-.2-.2 1-.1.9.3.2zM104.5 47.1l.9-.4-1.5-.9-1 .3zM90.6 72.7c-.1-.5-.2-1-.3-1.6l-.4.4-.1 2 .8-.8zM110.4 64.2v-1.3.1l-.2 1.1zM90.1 69.8l-.1.7.2-.2c0-.1-.1-.3-.1-.5zM90.2 70.7l-.3.3v.1l.3-.4c.1.1.1 0 0 0zM102.6 45.9l.9-.4-12.8-8 .1.8zM89.6 75.7l1.2-1.4c-.1-.3-.1-.7-.2-1.1l-.9 1-.1 1.5zM78.9 60.2l-.7.3-.7 2.1c.3-.1.5-.2.7-.4l.7-2zM112.1 57.2l-.1.8v.1zM111.1 68.5l.3.3V68l-.3-.3zM111 69.4l.3.3.1-.5-.3-.2zM112 58.5l-.1-.1-.3 1.7.3.2zM111.8 62.1l-.3-.2-.1 1.2.3.2zM111.9 60.7l-.3-.2-.1 1 .3.2zM111.5 67.5l.1-1.9-.3-.3-.1 2zM111.7 63.7l-.3-.2-.1 1.4.3.3zM111.2 60.2l-.3.9.2.1zM110.8 67.4l-.3-.2v.8l.3.3zM84.2 53l1.9-6.1c0-.2-.1-.4-.1-.6l-2.2 6.8.4-.1zM83.4 53.3l2.4-7.7c-.1-.4-.1-.7-.2-1.1l-2.9 9 .7-.2zM85.6 52.5l.9-3.1-.3-1.8-1.6 5.3 1-.4zM86.9 52v-.2c-.1-.5-.2-1.1-.3-1.6l-.6 2.1.9-.3zM87.2 54.8l.2-.5v-.1c-.1-.4-.1-.8-.2-1.2l-.2 2 .2-.2zM82.4 53.7l3.2-9.9c-.1-.7-.2-1.4-.4-2.1l-4 12.4 1.2-.4zM79.4 58.6l-.7.4-.4 1.1.8-.3zM80.7 54.8l-.7.2-1.1 3.5.7-.3zM85.1 41.1c-.1-.4-.1-.7-.2-1.1l-4.8 14.6.7-.3 4.3-13.2zM88.7 62.2V62v-.2l-.2.1-.1.5.3-.2zM89.1 65.7l-.3.2-.2 2.1zM88.3 61.7l.2-1.1c-.1-.3-.1-.6-.2-.9l-.5 2.3.5-.3zM89.8 68.1v-.2c-.1-.7-.2-1.4-.4-2.2l-.6 3.2 1-.8zM89.2 64.9c-.1-.4-.1-.8-.2-1.2l-.1.6-.1 1.2.4-.3v-.3zM87.6 55.4l-.1.6.2-.1c-.1-.1-.1-.3-.1-.5zM87.9 57.5c0-.2-.1-.5-.1-.7l-.2.8c.1 0 .2-.1.3-.1zM87.5 56.4l-.1.6.2-.7zM88.1 59.3l.1-.3c0-.1 0-.2-.1-.4l-.2.1-.2.8.4-.2zM88.1 58.2zM77.6 65.3l1.3-.8.4-1.3-1.2.7zM107.7 84.3l-.1-.1-.1 1c0 .1 0 .3.1.4l.1-1.3zM107.3 74.5l.1.1.2-1.3-.3 1.2zM107.8 78.3v.1l.1-1zM107.9 51.6l-.9-.6-1.1.6 1.1.8.9-.7zM107.9 81.9v-.1l-.2 1.9.1.1zM107.2 77.6l.3.4.3-2-.2-.3zM108.1 51.1l-.7-.4-.1.1.7.5zM106.2 49.5l1.1.7.7-.4-1.1-.7zM108.6 70h-.1l-.2 1.1.2.1zM108.2 50.8l.2-.7-.7.4zM104.4 63.7l-.6-.5-.7 1 .9.8zM104.9 56.1l.3-.3-1.2-.9-.7.5.8.6c.3 0 .6.1.8.1zM104.5 63.2c-.1-.1-.3-.2-.4-.2l.4.4v-.2zM108.4 75.6v.2zM106.5 55.3l-.7.5zM107.3 75.3l-.2-.2c-.2.8-.3 1.4-.3 2l.1.2.4-2zM107.3 53.8l.2-.7-.5-.3-1.2.8 1 .7zM107.3 83.1l.3-1.7-.3-.4-.2 1.2c0 .2.1.5.1.7l.1.2zM106.8 77.6v.8l.1-.7-.1-.1zM107.8 78.9l-.1-.1-.3 1.8.2.3zM108.3 49.6l.3-.2.1-.6-.6-.4-.9.5zM105.8 49.7l1.1.8.1-.1-1.2-.8zM104.9 48.6l.4.3c.2-.1.5-.2.7-.4l-.4-.2-.7.3zM104.5 48.8l.4.3h.1l-.5-.3zM106.1 48.1l.3.2c.3-.2.6-.3.9-.5l-.3-.2-.9.5zM107.7 47.7c.6-.3 1.1-.5 1.6-.8l.1-.3-2 .9.3.2zM103.8 65.4l-.9-.9-.4.6 1.1 1.1zM101.8 48.7l.8.6 1.2-.5-.8-.6zM103 47.8l-.9-.7zM103.3 48l.9.6h.1l-.9-.6zM108.7 80.1l-.2-.2-.1 2.1.2.2zM102.9 49.5l.5.3 1.2-.6-.4-.3-1.3.6zM109.2 71.9l.1-1.2-.2-.2-.1 1.3.2.2zM109.3 70.2l.1-1.3-.2 1.2zM108.8 48.5l.2-.7-.6.4zM108.9 77.3l-.2-.3-.2 2.4.2.2zM108.9 73.2v.5l.2-1.3-.1-.1zM109.3 80.9l-.3-.4-.1 2.2.3.4zM109.5 78.1l-.3-.4-.1 2.3.3.4zM109.2 83.6l-.3-.4-.1 2 .3.4zM109 74.8l-.2 1.4.1.2zM80.9 93.5l-1.5 2.1-2 7.9 1.8-2.5zM71.2 99.7l-1.5 1.7-3.3 10.9 1.5-2.1zM76.9 104.3l2-8.1-1.1 1.5-2.2 8.5zM77.8 91.5l-1.4 1.7-2.7 9.3 1.7-2.2zM103.5 66.6l-1.2-1.3-.7 1 1.2 1.3.5-.7zM75.9 93.9L74.2 96l-3 9.8 2-2.5zM79.6 89.3l-1.2 1.6-2.5 8.7 1.6-2zM82.9 96.3l-.6.9-.5 4.7zM82.3 94.2l-.7 3.5.4-.6zM82.6 91.3l-1.2 1.6-1.7 7.4 1.4-1.9zM99.8 47.3l1.6 1.2 1.3-.5-1.7-1.2zM71.1 93.1l1.2-1.2 1.2-3.9-1.1 1.1zM73.5 85.5l1-.9 1.1-3.4-.9.7zM72.6 88.4l1.1-1.1.6-2-1 .9zM109.8 67.4l.2.2.1-.8-.2-.1zM83.5 95.5l-.1.2-1.3 6.4 1-2.3zM69.1 102.1l-1.4 1.7-3.6 11.5 1.7-2.2zM66.1 105.4l1.3-1.7.6-1.7-1.4 1.6zM61.9 118.2l1.6-2.1 3.7-11.6-1.4 1.7zM69.4 94.9l1.2-1.2 1.3-4.1-1.1 1.1zM66.9 102.7l1.3-1.6 2.2-6.7-1.2 1.2zM73.6 96.6L71.7 99l-3.2 10.5 2.2-2.9zM101.6 98.3l-.2-.6-.9 4.7.2.8zM99.6 89.9l-.1-.6-1.1 3 .2.7zM100.8 94.8l-1-4.3-1.1 3.2 1 4.8zM101.8 99.4v-.3l-1 4.9.2.6zM101.3 96.9l-.4-1.5-1 3.9.4 2.3zM102.2 100.8l-.2-.6-.9 5.2.1.6zM103.3 105.7l-.2-.8-.9 5.6.1.9zM102.9 104.1l-.1-.8-1 5.4.2.9zM102.6 102.5l-.2-.8-1 5.3.2.8zM98.4 93.7l-.2-.8-1.8 5.1.2 1.2zM86.8 119l.3-5.4-2.6 5.8-.5 6.7zM85 93.4L83.9 95l-.4 3.8.8-1.8zM83.6 94.9zM90.1 111.5l-3 7.6-.3 5.4 3.1-9zM98 91.6l-1.8 4.6.1 1.1 1.8-5.1zM84.1 89.4l-1 1.3-.1.5-.6 5.3.7-1 .8-3.8zM99.3 88.4l-1.1 2.7.1.5 1-2.9zM96.2 98.7l-5.9 16.9-.2 3.5 6.3-19.2zM90.3 106.5l-2.8 6.3-.3 5.2 2.9-7.5zM107.4 123.3l-.2-1.1-.6 9.9.2 1.3zM101.1 106.9l-.1-.6-1.9 10.8.1.6zM101.8 110.5l-.2-.9-1.9 11.4.1 1.1zM101.5 108.7l-.2-.8-1.9 11 .1 1zM105.9 116.9l-.2-1.1-.7 8.7.4 1.8zM104.1 121.6l-1.7-8.5-2.1 12.1 2.2 15.4zM105.4 114.7l-.3-1.3-.7 8.2.4 1.7zM104.9 112.4l-1.4-5.8-1 5.7 1.7 8.1zM102.2 112.3l-.2-.9-2 11.7.1 1.1zM100.5 104l-.2-.8-1.8 9.3.2 1.3zM100.8 105.5l-.1-.6-1.9 9.9.2 1.2zM80.9 99.2l-1.4 1.9-2.7 11.9 1.7-2.6zM79 101.8l-1.8 2.6-3.3 13.2 2.4-3.8zM73.4 118.5l3.3-13.3-1.4 1.9-3.6 14.1zM81.9 97.7l-.5.8-2.4 10.8 2.3-5.2zM97.4 107.1l-.9-6.4-6.4 19.6-.6 15.7zM99.5 99.2l-1-4.9-1.8 5.7.9 6.3zM83.5 127.1l.6-6.8-3.4 9-.6 6.6zM100.2 102.4l-.5-2.4-2 7.1.6 4.4zM89.9 116.6l-3.2 9.1-.3 4.8 3.4-10.3zM77.2 98.4l-1.5 2.1-2.5 9.1 1.8-2.7zM110 91.6l-.3-.5-.1 2.4.3.9zM110.3 76.2l-.3-.3-.1 1.6.3.3zM110.2 78.3l-.3-.4.3.4zM109.5 84l-.1 2.1.3.4.1-2.1zM110.1 78.8l-.3-.4-.1 2.4.3.4zM109.9 65.8v.4l.3.2.1-.6v-1.2l-.1-.2zM110.5 71.9l-.3-.3V73l.3.3zM110.4 73.8l-.3-.4-.1 2 .3.3zM91.4 41.5l8 5.6 1.3-.5-9.6-6.6zM108 125.6l-.3-1.1-.6 10.1.3 1.3zM107.9 73.6l-.2 1.4.2.3.3-1.4zM107.9 81.2v.1l.1.1v-.8zM106.4 118.8l-.2-.7-.6 9.4.2.8zM106.9 121.1l-.2-1.1-.6 9.6.2 1.3zM108.8 89.5l-.3-.5v.9l.3.9zM108.6 82.7l-.2-.2-.2 2 .2.3zM109 86.2l-.3-.5-.1 2.5.3.5zM109.4 90.5l-.3-.5-.1 1.7.3.9zM109.6 87l-.3-.4-.1 2.5.3.5zM110 81.7l-.3-.4-.2 2.2.3.4zM83 58l1-.4.4-1.2-1 .5zM83.8 59.5c.3-.2.7-.3 1-.5l.5-1.6-1 .4-.5 1.7zM85.2 58.8c.3-.2.6-.3 1-.5l.1-.3.1-1.2-.7.3-.5 1.7zM84.4 57.4l1-.4.4-1.2-1 .5zM82.4 60.2c.3-.2.7-.3 1-.5l.5-1.7-1 .5-.5 1.7zM86.7 53.7l-.4 1.5.3-.1zM80.3 61.2c.2-.1.5-.2.7-.4l.6-1.8-.7.3-.6 1.9zM82.2 58.4l.4-.2.4-1.1-.5.2zM81.1 58.9l.7-.3.3-1.2-.7.4zM81.5 60.7c.2-.1.3-.2.5-.2l.5-1.8-.5.1-.5 1.9zM89.4 74l.1-1.1-.3 1.3zM79.9 62.6l.7-.4.3-.9c-.2.1-.5.2-.7.4l-.3.9zM87.7 69.8l.5-.4.2-2.8zM88.2 72.8l1.2-1.2v-.1l-1.2 1.1zM89.6 77.2l-.3 4.8 1.9-2.5V79c0-1.2 0-2-.2-3.5l-1.4 1.7zM85.8 56.8l.6-.3.1-1-.3.1zM86.5 58.5l-.1.6.4-.2v-.5s-.1.1-.3.1zM86.5 70.7l.8-.6.8-3.7-.7.5zM86.8 63.4l.3-.1.2-.6-.4.2zM87.4 63.5l-.9 3.6.6-.4.8-3.6zM63.8 108.1l1.7-2.1.6-1.8-1.7 2zM69 92l1.5-1.5.8-2.5-1.4 1.3zM75.1 101.2l-1.6 2.2-2.8 9.7 1.9-2.7zM59.5 121.3l1.8-2.3 3.9-12.1-1.7 2.1zM64.7 105.4l1.6-2 2.4-7.2-1.6 1.6zM67.4 97.1l1.5-1.6 1.4-4.3-1.5 1.5zM59.4 129l3.8-12-1.6 2.1-4 12.4zM70.4 107.5l-2.2 2.9-3.3 10.8 2.4-3.4zM72.9 104.2l-1.9 2.5-3.1 10.2 2.2-3zM67.6 111.1l-1.5 2.1-3.5 11.2 1.7-2.3zM65.5 114l-1.7 2.3-3.8 11.9 2-2.9zM79.3 64.3l.8-.4.4-1.3-.8.4zM78.2 67.8l.8-.5.9-3-.7.5zM77.7 69.3l.8-.6.3-.9-.8.5zM76 74.7l.8-.6 1.6-4.9-.9.6zM71 90l1.1-1.1.8-2.3-1.1 1zM72 86.9l1.1-.9 1.1-3.7-.9.8zM73.4 82.5l1-.8.4-1.3-.9.7zM74.1 80.5l.9-.7 1.7-5.2-.9.6z"/><path fill="#FFF" d="M146.9 161.1h-1.1l-35.7-66 .2-3 39.3 66.7c.1-.1.2-.1.3-.2L110.6 92l42.1 64.1.2-.2L110.4 91l.2-2.6 45.3 64.5.2-.2-45.5-64.8.1-2.2 47.7 64.4c.1-.1.2-.2.2-.3l-47.8-64.7.1-2.2 49.9 64.3c.1-.1.1-.2.2-.3l-50.1-64.5.1-2.5 52.3 63.9c.1-.1.1-.2.2-.3L111 79.4v-.1l54.3 61.5c.1-.1.1-.2.2-.3L111 78.8l.1-1.7 56.1 60.7c.1-.1.1-.2.2-.3l-56.3-60.8.1-2 57.9 59.7c.1-.1.1-.2.2-.3l-58.1-59.9.1-1.4 59.6 58.3c.1-.1.1-.2.2-.3l-59.7-58.4.1-2 61.3 56.7c0-.1.1-.2.1-.3L111.7 70v-.5l62.3 54.8c0-.1.1-.2.1-.3l-62.4-54.9.1-.9 63.4 53c0-.1.1-.2.1-.3l-63.5-53.1.1-2 64.4 51.9c0-.1.1-.2.1-.3l-64.5-52 .1-1.4 65.1 50.8c0-.1.1-.2.1-.3L112 63.6l.1-1.2 65.8 49.3c0-.1.1-.2.1-.4L112.1 62l.1-1.1 66.2 48.4c0-.1 0-.2.1-.4l-66.2-48.5.1-1.8 66.5 47.9c0-.1 0-.2.1-.4l-66.6-47.9.1-1.7 66.9 46.7v-.4L112.5 56l.1-.9.1-.5 66.9 46.2v-.4l-66.9-46.1.1-.3 67 44.2v-.4l-66.9-44.2.2-.8L179.9 96v-.4l-66.7-43.1.3-1L180 93.3v-.4l-66.4-41.4 4.4-15.9-6.4 3.5-1.1 3.7-6.6 2.6-13.3-8.3-.6-3.2-5.7-5.9-1 2.5c.5 3.1 1 6.1 1.5 8.8l-5.1 15.5L5.4 83.6v.4l74.2-28.8-1.2 3.5L5 91.3v.4l73.3-32.6-.4 1.1L5 92.7v.4l72.8-32.4-.7 2.1c-21.5 10.6-48.7 24-71.9 35.3v.4C28.3 87.1 55.5 73.8 77 63.2l-.3 1-71.2 37.5v.4l71-37.3-.5 1.4-70 39.7c0 .1 0 .2.1.4l69.8-39.6-1 3.2-67.9 41c0 .1 0 .2.1.3l67.6-40.9-.4 1.1L7.7 114c0 .1.1.2.1.3L74.1 72l-1.7 5.3-62.2 44.8c0 .1.1.2.1.3l61.9-44.6-1.9 5.7-53.9 42.6c-1.7-.3-3.5-.6-5.2-.9 1.3 3.3 2.9 6.5 4.6 9.7 14.7 2.5 27 4.8 35.5 6.5L44 163.8l-1.5.6c.6.4 1.2.9 1.9 1.3.2-.1.4-.1.6-.2l.2.1v-.1c2.3-.6 5.6-1.3 9-1.4l-2.9 5.8c6.8 3.6 14.1 6.4 21.8 8.1l.7-9.2c26.3-2.2 40.7 2.5 40.7 2.5l-4.8 7.2c8.4-1.7 16.3-4.5 23.6-8.4l-2.1-4.6 10.2-.2c1.9-1.5 3.7-2.9 5.5-4.2zm-1.5 0l-8.1.2-21.7-48.3-5.1-16.6 34.9 64.7zM113.9 151h-3.5l-2.8-13.8.6-10.4 5.7 24.2zm-7.3-2.1c-.1-.1-.3-.1-.3-.2l.8-12.9.3 1.2-.8 11.9zM88.1 141c-.7-.2-1.5-.5-2.2-.7l.5-8.6 3.3-10.3-.6 16-1 3.6zm.9-2.1l-.1 2.4c-.2-.1-.3-.1-.5-.2l.6-2.2zm-17.2-12.8l1.9-7.5 2.4-3.8-.7 3-3.6 8.3zm2.5 21l-.2 1.5h-.2l.4-1.5zM63 134.9c-.1 0-.3-.1-.4-.1l5-16.9 2.2-3.1-5 17.1-1.8 3zm1.5-1.7L64 135c-.2 0-.4-.1-.6-.1l1.1-1.7zm-8.3.3c-.2 0-.4-.1-.6-.1l3.6-11.1 1.8-2.4-4 12.5-.8 1.1zm.4 0v.1-.1zm54.1-63.9l-.1 1.9-.3-.3.1-1.9.3.3zm-.3-.8v-.4l.3.3v.4l-.3-.3zm-2.3 18.6l.1-2.4.2.3-.1 2.4-.2-.3zm.1 1.1zm-24.9 46l.6-7.3 2.8-7.2-.3 5.6-3.1 8.9zm3-7.6l-.3 4.8-2.6 7.9c-.2-.1-.4-.1-.6-.2l.3-3.7 3.2-8.8zM110 69l-.1 1.9-.2-.2.3-1.7zm-.2-.3zm.1 2.6l-.1 1.3-.3-.3v-.7l.1-.6.3.3zm-.1 1.8l-.1 2-.3-.3.1-1.9.3.2zm-.4-6.1v-.4l.1-.3-.1.7zm.3 8.5l-.1 1.6-.3-.3.1-1.6.3.3zm-1.4-2l-.3-.3.3-1.7.1.1-.1 1.9zm0 3.1v.8-.8zm-.7-23.8l-.3-.2.5-.4-.2.6zm.1 19.9v0zm-.9 7.1l.3-1.8.3.4-.3 1.8-.3-.4zm.2.9l-.1.5c0-.3-.1-.5-.1-.8l.2.3zm-1.5-25.1l-1.2-.9 1.2-.9 1 .7-1 1.1zm.1.5l-.2.2.2-.2zm-19.1 4.1l-.2.1.1-.8.4-.2-.3.9zm.5 3.5l-.3 1.4.1-1.2.2-.2zm-.6-3l-.2.6.1-.6h.1zm.4 0l-.2 2v.1l-.5.2.7-2.3zM99.5 73l.2-.2 1.3 1.9-.3.4-1.2-2.1zm1 2.9zm-.2-.3l-1.3-2 .2-.3 1.2 2.1-.1.2zm.1.8l-.1.4-.1-.2.2-.3v.1zm-.5-.2L98.7 74l.1-.1 1.3 2-.2.3zm.1.9l-.2-.1.1-.2.1.3zm-31.2 23.4l2.1-6.6 1.1-1.2-1.9 6.2-1.3 1.6zm1.1-.8l-.5 1.6L68 103l.5-1.7 1.4-1.6zm.5-.7l1.4-1.7-.5 1.5-1.5 1.8.6-1.6zm.3-.8l1.9-6.1 1.3-1.4-1.8 5.8-1.4 1.7zM86 60.9l-.3 2.3-.7.5.8-2.7.2-.1zm-.1-.3l.2-.6-.1.5-.1.1zm.6 30.2l-.8 1.1 1.2-5.8-.4 4.7zm.3.1l.4-.5-.4 1v-.5zm-.2-5.4L85 87.6l1.3-6.4 1-1.2-.3 3.3-.4 2.2zm1.3-6.2l-.3 1.3.1-1.1.2-.2zm-.2-.4v-.5l.3-.4v.6l-.3.3zm-.3-.6l-.7.9.5-2.4.4-.4-.2 1.9zm-8.7 2.5l.9-3 1.3-1-.9 2.8-1.3 1.2zm1.1-.6l-.4 1.3L78 83l.5-1.5 1.3-1.3zM84 76l-.7.6.6-2.3.6-.5L84 76zm.3.2l-.1.6-.1.2.2-.8zm-2.1-.5l-.7 2.6-1 1 .8-2.7.9-.9zm-.8.2l.3-1 .9-.7-.3.9-.9.8zm.4 2.5l.8-.8-.2 1-.9.9.3-1.1zm.2-.6l.7-2.5.7-.6-.6 2.4-.8.7zm.8-3.1l.3-.9.7-.6-.2.9-.8.6zm.3 2.5l.7-.6-.2.8-.7.7.2-.9zm1.6-4.6l-.1.7-.6.5.2-.9.5-.3zm-.3-.2l.6-2.2-.2 1.9-.4.3zm.1 4.6l.3-.3-.5 2.1.2-1.8zm.1-.6l.1-.6.4-.4-.1.7-.4.3zm.1-1.1l.2-1.8v-.1l.7-.6v.5l-.3 1.4-.6.6zm1 .5l.4-.4-.6 2.6-.1.1.3-2.3zm0-3.4l-.6.5.2-.8.5-.4-.1.7zm-1.1-3.9l.9-3.2-.3 2.7v.1l-.6.4zm.4.1l-1.1 4.2-.7.6 1.2-4.3.6-.5zm-2.2 5l-.9.7 1.3-4.4.8-.6-1.2 4.3zm-1.4 1.1l-1.2 1 1.4-4.6 1.2-.8-1.4 4.4zm-.1.6l-.3 1-1.3 1 .3-1.1 1.3-.9zm-1 4.5l1.1-1L81 80l-1.1 1.1.4-1.3zm1 .3l.9-.9-.8 3.1-1 1 .9-3.2zm1.4-1.3l.7-.7-.7 2.9-.8.8.8-3zm1.2-1.2l.3-.3-.3 2.4-.7.8.7-2.9zm.1 3.9l.4-1.9.6-.6-.2 2.2-.1.2-.9 1 .2-.9zm.6-2.5l.6-2.8.1-.1-.2 2.3-.5.6zm.5 2.6l1-1.2-.1.6-.9 1.1v-.5zm.1-.7l.6-2.7.9-1-.5 2.5-1 1.2zm1.4-1l.8-1v.5l-.9 1.1.1-.6zm.3-3.3l-.9 1 .6-2.6.8-.8-.5 2.4zm-.6-1.8l-.5.5v-.5l.6-.5-.1.5zm-.5-3.5l-.4.3.5-2.2-.1 1.9zm-.6-.2l.3-2.9.5-.4-.8 3.3zm.2-6.7l-.7.5.2-.7.7-.4-.2.6zm-.1.5l-1.1 3.9-.8.6 1.2-4.1.7-.4zm-1.1.2l-1.1.7.2-.7 1.1-.6-.2.6zm-.1.5l-1.2 4.1-1.2.8 1.3-4.2 1.1-.7zm-1.4.5l-1.2.7.2-.8 1.1-.7-.1.8zm-.1.5l-1.3 4.3-1.3.9 1.4-4.4 1.2-.8zm-1.5 4.8L79.8 76l-1.4 1.1 1.5-4.8 1.2-.9zm-1.5 5.2l-.3 1.1-1.4 1.1.4-1.2 1.3-1zm-.5 1.7l-.9 3-1.5 1.4 1-3.2 1.4-1.2zM78 81.9l-.5 1.6L76 85l.5-1.8 1.5-1.3zm-.7 2.2l-1.1 3.6-1.7 1.7 1.2-3.8 1.6-1.5zm.5-.5l1.4-1.4-1 3.4-1.5 1.6 1.1-3.6zm1.9-1.9l1.1-1.1-.8 3.3-1.2 1.3.9-3.5zm.6 2.3l1-1.1-1 3.9-1.2 1.4 1.2-4.2zm.3 3l.9-1.1-.2.9-.9 1.2.2-1zm.2-.8l1-3.8.8-.8-.9 3.5-.9 1.1zm1.2-.9l1.2-1.4-.2.8-1.2 1.5.2-.9zm.2-.7l.9-3.4.8-.9-.1 1.2-.4 1.7-1.2 1.4zm1.5-.3l.6-.7-1 4.6.4-3.9zm.1-.6l.1-.6.8-.9-.2.7-.7.8zm1.2-1l.8-1-1.3 6.5-.1.1.6-5.6zm2.4.7l.9-4.6.9-1.1-.3 4.8-1.6 2.2.1-1.3zm.8-6l-.4.5.2-1.9.7-.7-.5 2.1zm-.6-1.6l-.3.4.5-2.5-.2 2.1zm-.1-2.3l-.8.8.1-.5.8-.7-.1.4zm-1 .2l-.7.6.1-.9.2-1 .8-.6-.4 1.9zm-.4-6.3l-.5.4.8-3.1-.2 2.5-.1.2zm-.3-1.6l.1-1.4.3-.2-.4 1.6zM84.6 64l-1.1.6.8-2.7 1-.6-.7 2.7zm-1.5.8l-1.1.7.9-2.8 1.1-.6-.9 2.7zm-1.6 1l-1.1.7.9-2.9 1.1-.6-.9 2.8zm-.1.5l-.3.8-1.1.7.3-.9 1.1-.6zm-.4 1.3l-1.4 4.5-1.1.8 1.4-4.6 1.1-.7zm-1.6 5l-1.5 4.9-1.2.9 1.5-5 1.2-.8zM77.8 78l-.4 1.2-1.2 1 .4-1.2 1.2-1zm-.6 1.8l-1 3.3-1.2 1.1 1.1-3.4 1.1-1zM76 83.7l-.6 1.8-1.3 1.3.6-2 1.3-1.1zm-.7 2.5L74.1 90l-1.3 1.4 1.2-3.9 1.3-1.3zm-2.9 10.5l1.9-2.2-.4 1.3-1.9 2.3.4-1.4zm.3-.8l1.7-5.7 1.7-1.8-1.6 5.2-1.8 2.3zm2.1-2.1l1.7-2-.4 1.2-1.7 2.1.4-1.3zm.2-.8l1.5-5.1 1.5-1.6-1.4 4.7-1.6 2zm2-1.8l1.4-1.6-.3 1.1-1.4 1.7.3-1.2zm.2-.7l1.3-4.6 1.2-1.3-1.2 4.3-1.3 1.6zm1.7-1.5l1.2-1.4-.3 1-1.2 1.5.3-1.1zm1.2-.3l1-1.2-2 7.9-1.1 1.5 2.1-8.2zm1.5-1.7l1.2-1.5-1.7 7.3-1.5 2 2-7.8zm1.7-2.1l.1-.1-.6 5.9-1.1 1.5 1.6-7.3zm1.3-1l-.5 4.9-.9 1.1 1.4-6zm-.4 7.9l.7-3.4 1.6-2.1-1.3 6.3-1.2 1.8.2-2.6zm1.3.9l.9-1.3-.1.8-1.4 3.2.6-2.7zm1.7 19.4v.6l-1.2 2.7 1.2-3.3zm-.4-21.8l.4-5.1 1.7-2.2-.2 3.9-.3.6-.6 1.4-1 1.4zm.8 20.7l2.8-7.5-.1 2.1-2.8 6.2.1-.8zm2.9-.4l5.4-13.7.2 1.2-5.8 16.4.2-3.9zM93.9 54h-.3v-.2l.3.2zm-.4-.9V53l.4.3h-.1l-.3-.2zm-.1-.7l1.2-.5.8.6-1.2.6-.8-.7zm8.7-1l-1.4.8-.1-.1 1.5-.7zm-.1-.5l.6-.3-.6.3zm-1.1 4l.7-.4 1.2.9-.3.2c-.3-.1-.5-.1-.8-.2l-.8-.5zm.5 7.3l-.2.2.2-.2zM98 75l.8 1.7-.8-.2-.2-1.1.2-.4zm-.3-.1l-.3-1.3.5 1-.2.3zm-.6-2.7l.1-.2 1.1 2-.3.4-.9-2.2zm-.4-2.1l-.3-1.3.1-.1 1.2 2.1-.3.5-.7-1.2zm.4 1.5l-.1-.3.1.3zm-.9-4.3l.5-.6.2.3-.5.6-.2-.3zm.2 1.1zm3.9-13.2l.2-.1.3.3c-.1-.1-.3-.2-.5-.2zm.7 6.6l-.1.2-.3-.3c.1.1.3.1.4.1zm-.4-7.2l.7-.4-.7.4zm-.3-.2l-1.2-1 .7-.4 1.2 1-.7.4zm-3.4 13.9l.5-.6 1.3 1.8-.5.7-1.3-1.9zm1.1 2.1l-.2-.2.2.2zm.3-17.5l-.1-.1c.2-.1.5-.2.7-.3l.1.1-.7.3zm1-.2l.2.1-.7.4-.2-.2.7-.3zm-.3 9.2l-.7.8-.1-.2.8-.6zm-.1-.5h.2l-.1.1-.1-.1zm-.2 2.9l-.6-.7.3-.3.6.6-.3.4zm.5-.1l-.2.4-.1-.1.3-.3zM98 65.8l-.1-.2.6-.6.1.1-.6.7zm0 .5l-.6.8V67l.6-.7zm-.9-4l-1-1.3h.3l1 1.1-.3.2zm.1.7l-.2-.2.1-.1.1.3zm-.1-9.1l.2.2-.8.4c-.2 0-.3-.1-.5-.1l1.1-.5zm-.1-.5c.3-.1.6-.3.9-.4h.1l-.9.5-.1-.1zm.5 9l.1.2-.2.2-.1-.2.2-.2zm.3.8l-.2-.2.3-.2.2.2-.3.2zm.6 1.3l-.6-.7.6.7zm-1-1.3l.2.2-.2-.2zm.2.8l.6.7-.6.6-.6-.8.6-.5zm1.2 1.4l-.5.7V66l.5-.6zm-.9-3.1l-.1-.2.8-.6.1.1-.8.7zm-.3-.4l-.8-.8c.5 0 1 .1 1.5.2l-.7.6zm-.5-7.3l.5-.3.6.5c-.4-.1-.8-.1-1.1-.2zm.3-.9l.9-.5.2.2-.8.5-.3-.2zm.5-1.1l-.6-.5.7-.3.6.5c-.2 0-.5.1-.7.3zm-.9-.8l-.8-.6.7-.3.8.6-.7.3zm.6.9c-.3.1-.6.3-.9.4l-.7-.5.9-.4.7.5zm-.8 1l-1.2.6-.2-.1 1.2-.6.2.1zM95.5 61h.1l1.2 1.5-.1.1-1.2-1.6zm1.4 2.2l-.5.4-.2-.2.5-.4.2.2zm.2.3l.2.3-.5.5-.3-.3.6-.5zm.3 2.1l-.6.7-.6-.9.2-.2.4-.4.6.8zm.2.2l.1.2-.6.7-.1-.2.6-.7zm-.5 1.5l-.4.7-.1-.1.5-.6zm.5.1l.6-.8 1.3 1.7-.6.8-1.3-1.7zm.8-1l.6-.7 1.4 1.6-.6.8-1.4-1.7zm.8-1.5l.3-.4-.3.4zm.3-.9l.7-.8-.7.8zm-.3-.3l-.6-.6.8-.7.5.6-.7.7zm.1-1.9l.2-.3-.2.3zm0-6.8c-.1 0-.3 0-.4-.1l-1-.8.9-.5 1.2 1-.7.4zm1-.2l-.4.3h-.1l.5-.3zm-.7-2.2l.7-.4.1.1-.7.4-.1-.1zm-.3-.3c.2-.2.4-.3.6-.4l.1.1-.7.3zm-.4-.2l-.6-.5.7-.3.6.4c-.2.1-.4.2-.7.4zm-.9-.7l-.8-.6.7-.3.8.6-.7.3zm-1.1-.9l-1.8-1.4.7-.3 1.8 1.3-.7.4zm-.4.2l-.6.3-1.8-1.4.6-.2 1.8 1.3zm.1 1.3l-.9.4-.7-.7.9-.4.7.7zm-.2 1.3l-1.2.6-.7-.6 1.2-.6.7.6zM94.9 61l-.1.1V61h.1zm.2.3l1.3 1.5-.4.4-1-1.3-.1-.4.2-.2zm1 2.6l-.6.5-.1-.3.5-.4.2.2zm.2.2l.3.4-.4.4-.2.2-.3-.4.6-.6zm-.4 1.5l.7.9-.6.5-.3-1.3.2-.1zm2.3 7.5l.4.5v.1l-.4-.6zm-.6-1.6l.3-.4L99 73l-.3.4-1.1-1.9zm.5-.7l1.3 1.7-.1.2-1.2-1.9zm.3-.3l.6-.7 1.2 1.7-.6.8-1.2-1.8zm.7-1l.6-.8 1.2 1.6-.6.9-1.2-1.7zm.9-1.2l.6-.8 1.3 1.5-.7 1-1.2-1.7zm-.6-3.1l.3-.4 1.4 1.5-.4.5-1.3-1.6zm.3-.9l.7-.9-.7.9zm.5-1.6l-.5-.5.5-.4.5.5-.5.4zm.9-.1l-.4.5.4-.5zm.2-8.8l-1.2-.9.7-.4 1.2.9-.7.4zm-.2-1.5l1.4-.8 1.2.9-1.3.8-1.3-.9zm-.8-.5c.4-.3.9-.5 1.4-.8l-1.4.8zm-.3-.3l-.6-.4 1.5-.7.5.4c-.5.3-.9.5-1.4.7zm-.9-.6l-.8-.6 1.5-.7.8.6-1.5.7zm-1.2-.8l-1.8-1.3 1.5-.6 1.7 1.2-1.4.7zm-2.1-1.6l-3.6-2.7-.4-1.8 5.5 4-1.5.5zm-.3.2l-.7.3-2.3-1.7-.2-.9 3.2 2.3zm-1.1.4l-.6.2-1.1-.9-.1-.8 1.8 1.5zm-1 .4l-.5.2-.2-.7.7.5zm.3.2l1.8 1.4-.9.4-1.6-1.4V50l.7-.3zm.6 2l-1 .4-.3-1.5 1.3 1.1zm-.2 1.8l.7.6s-.1 0-.1.1l-.7-.7h.1zm1 37.6l.1.4-.8 1.6.7-2zm0-28.5l.6.8-.4.3-.2-1.1zm1.3 24.9l.6.2-1.6 3.3-.1-.5 1.1-3zm.8.5l.3 1.6-1.8 3.9-.3-2 1.8-3.5zm-1.4 8.2l-5.3 13.4.2-3.9 5-11 .1 1.5zm.3-.6l-.2-1.4 1.8-4 .2.9-1.8 4.5zm1.7-6.5l-.3-1.3.7.2-.4 1.1zm.8-1l.4.1-.9 2.2-.2-.8.7-1.5zm-.3-13.4l.3-.4 1.2 2.2-.2.4-.3-.1-1-2.1zm1.5-2.2l.6-.8 1 1.4-.4 1.2-1.2-1.8zm.8-1.1l.6-.9.7.9-.4 1.3-.9-1.3zm.8-1.2l.7-1 .4.4-.4 1.4-.7-.8zm1-1.4l.5-.7.1.1-.3.9-.3-.3zm-.2-.2l-1.2-1.5.4-.5 1.3 1.4-.5.6zm-.9-2.6l-1.4-1.5.7-.9L102 65l-.7 1zm-.4-2.6l.4-.5 1.4 1.3-.4.6-1.4-1.4zm.6-.8l.4-.5c.4.1.8.3 1.2.4l.5.5-.7 1-1.4-1.4zm1.4-6.9l.2-.1.3.2c-.2 0-.4-.1-.5-.1zm.2-.5l-1.2-.9.7-.4 1.2.9-.7.4zm-.3-1.6l1.3-.8 1.1.8-1.2.9-1.2-.9zm1.6-1l1.2-.8 1 .7-1.1.8-1.1-.7zm1-1.3l-1.1-.8 1.1-.6 1.1.8-1.1.6zm-1.4-1l.9-.5-.9.5zm0 .4l1.2.8-1.2.7-1.2-.8 1.2-.7zm-1.6.5l1.2-.7-1.2.7zm-.7-.5l-.5-.4 1.3-.6.5.3c-.4.2-.8.4-1.3.7zm-.8-.6l-.8-.6 1.3-.6.9.6-1.4.6zm-1.1-.9L98.1 48l1.3-.5 1.7 1.2-1.3.5zm-2.1-1.4l-6-4.3-.2-1.5 7.6 5.3-1.4.5zm-4.5 48.4l2.1-4.2.3 2.1-4.8 10.7.1-2.3 2.3-6.3zM89 86l.2-3.4 1.8-2.4c-.4 1.8-1.3 4.2-2 5.8zm.2-8.9l-.8 1 .1-.5.7-.8v.3zm-.5-.3l.4-2 .3-.3-.1 1.6-.6.7zm.1-2.2l-.8.8.2-2.1 1.1-1.1-.5 2.4zm-.7-4.2l-.7.6.2-.7.5-.4v.5zm-.1.5l-.3 1.7-.8.7.4-1.8.7-.6zm-1 .4l-.8.7.2-.8.8-.6-.2.7zm-.9-.3l.3-3.4.6-.4-.9 3.8zm.3-7.8l-.2.6-.3.2.1-.5.4-.3zm-.5-3.8l-1 .5.2-.7c.3-.2.6-.3 1-.5l-.2.7zm-.2.5l-.3 1-1 .6.3-1 1-.6zm-1.2.2l-1.1.6.2-.8c.3-.2.7-.3 1-.5l-.1.7zm-.1.5l-.3 1-1.1.6.3-1.1 1.1-.5zm-1.4.3l-1 .6.2-.8c.3-.2.7-.3 1-.5l-.2.7zm-.1.5l-.3 1.1-1.1.6.4-1.2 1-.5zm-1.3.3l-.6.3.3-.9c.2-.1.3-.2.5-.2l-.2.8zm-.2.4l-.4 1.2-.6.3.4-1.2.6-.3zm-.5 1.7l-.9 2.9-.6.4.9-3 .6-.3zm-1 3.4l-.3.9-.6.4.3-.9.6-.4zm-.5 1.4L78 73.2l-.7.5 1.5-4.8.6-.3zm-1.5 5.1l-1.5 5-.8.7 1.6-5.2.7-.5zm-1.8 5.6l-.4 1.2-.9.7.4-1.3.9-.6zm-.5 1.9l-1.1 3.5-1 .9 1.2-3.7.9-.7zm-1.3 4.1l-.6 2.1-1 1 .7-2.2.9-.9zm-.8 2.7l-1.2 3.9-1.1 1.2 1.3-4.1 1-1zm-2.9 5.7l-1.2 1.2 1.4-4.2 1.1-1.1-1.3 4.1zm-.2.7l-2.1 6.7-1.3 1.6 2.3-7.1 1.1-1.2zM68 102l-.5 1.7-1.4 1.7.6-1.8L68 102zm-.8 2.5l-3.7 11.6-1.6 2.1 3.9-11.9 1.4-1.8zm.5-.7l1.4-1.7-3.4 10.9-1.7 2.3 3.7-11.5zm2-2.4l1.5-1.8-3.2 10.6-1.6 2.1 3.3-10.9zm2-2.4l1.9-2.4-3 9.9-2.2 2.9L71.7 99zm2.5-3l1.7-2.1-2.7 9.4-1.9 2.5 2.9-9.8zm2.2-2.8l1.4-1.7-2.5 8.9-1.7 2.2 2.8-9.4zm2-2.3l1.3-1.5-2.2 8.3-1.5 2 2.4-8.8zm-.6 6.8l1.1-1.5-2 8.1-1.3 1.9 2.2-8.5zm1.6-2.1l1.5-2-1.7 7.5-1.8 2.6 2-8.1zm2-2.7l1.2-1.6-1.6 7.1-1.4 1.9 1.8-7.4zm.9 1.3l-.3 2.9-.5.6.8-3.5zm0 3l.6-.8-1.1 5.5.5-4.7zm1.1-1.5l.1-.1-.4 4.3-1 2.3 1.3-6.5zm-.3-.2l-.7 1 .6-5.3.1-.6 1-1.3-.2 2.3-.8 3.9zm.5-.6zm.3.1l1.1-1.6-.7 3.6-.8 1.8.4-3.8zm.6 24.4l2.6-5.8-.3 5.4-2.8 7.1.5-6.7zm2.6-.3l3-7.6-.2 4-3.2 9 .4-5.4zm.1-1.1l.3-5.2 2.8-6.3-.2 4-2.9 7.5zm3.1-2.4l5.9-16.9.2 1.2-6.2 19.1.1-3.4zm6-18.3l-.2-1.1 1.8-4.6.1.6-1.7 5.1zm1.9-4.4l.2.8-1.8 5.6-.2-1.3 1.8-5.1zm.1-1.3l-.1-.6 1.1-2.7.1.3-1.1 3zm1.2-2.3l.1.6-1 3.1-.2-.8 1.1-2.9zm.3 1.2l1 4.2-1 3.8-1-4.8 1-3.2zm1.1 4.9l.4 1.5-.9 4.6-.5-2.3 1-3.8zm.5 2.3l.1.6-.9 4.8-.2-.8 1-4.6zm.4 1.4l.1.3-.9 5.1-.1-.5.9-4.9zm.2 1.1l.1.5-.9 5.2-.1-.6.9-5.1zm.4 1.5l.2.8-.9 5.4-.2-.9.9-5.3zm.4 1.6l.2.8-1 5.5-.2-.9 1-5.4zm.3 1.6l.2.8-1 5.6-.2-.9 1-5.5zm-.3-37.3l-1.3-1.4.7-.9 1.2 1.2-.1.4-.5.7zm-.3-2.5l.5-.6.9.9-.3.8-1.1-1.1zm.6-.9l.7-1 .5.5-.3 1.3-.9-.8zm1-1.2c.2.1.3.2.4.2v.1l-.4-.3zm0-7l-.8-.6.7-.5 1.2.9-.3.3c-.2 0-.5-.1-.8-.1zm2.4-.7l-.7.6.7-.6zm-.7-1.7l1.1-.8.5.4-.2.6-.5.5-.9-.7zm1.3 21.5l.2.2-.3 2-.1-.2c0-.6.1-1.2.2-2zm-.3 2.5l.1.1-.1.7c-.1-.3-.1-.5 0-.8zm.5 3.4l.3.4-.3 1.7-.1-.1c0-.2-.1-.5-.1-.7l.2-1.3zm.1-.4l.3-1.8.1.1-.2 2-.2-.3zm.3 3.6l.1.1-.1 1.3c0-.1 0-.3-.1-.4l.1-1zm0-.5l.2-1.9.1.1-.1 1.9-.2-.1zm.1-5.3l.1-1.1-.1 1.1zm-.3-.4l-.3-.3.3-2 .3.3-.3 2zm-.1-3.3l-.1-.1.3-1.2-.2 1.3zm-.4-22.3l-1-.7 1-.7.9.6v.1l-.9.7zm1.2-1.6l-.4-.3.6-.4-.2.7zm.3 19.2l-.1 1.3-.1-.1.2-1.2zm-1.2-19.8l-1.1-.7.7-.4 1.1.7-.7.4zm0 .6l.1-.1.6.4v.1l-.7-.4zm1.1 24.8v.2-.2zm.1 4.3l.2.3-.1 2.1-.2-.3.1-2.1zm0-.5l.1-2.3.2.2-.1 2.3-.2-.2zm.5-7.6l.1-1.3.2.2-.1 1.2v.1l-.2-.2zm.1.6l-.2 1.3v-.5l.1-.9.1.1zm-.3-23.9l-.5-.3.6-.4-.1.7zm.2 26.3l-.1 1.6-.2-.2.3-1.4zm-.1 8.4l.3.4-.1 2.1-.3-.4.1-2.1zm0-.5l.1-2.1.3.4-.1 2.1-.3-.4zm.2-2.7l.1-2.4.3.4-.1 2.4-.3-.4zm.2-9.8l-.1-.1.2-1.2-.1 1.3zm0-23.3c-.5.2-1 .5-1.6.8l-.3-.2 2-.9-.1.3zm-1.2 1.5l.7.4-.2.6-.3.2-1.1-.7.9-.5zm-1.7 0l-.3-.2.9-.4.3.2c-.3.1-.6.2-.9.4zm.6 2l-.1.1-1.1-.8h.1l1.1.7zm-1.7-1.5l-.4-.3.8-.3.4.2c-.3.2-.5.3-.8.4zm-.3.2s-.1 0 0 0l-.5-.2h.1l.4.2zm-.4.2l-1.2.6-.5-.3 1.2-.6.5.3zm-.4-.7l-.9-.6.9.6zm-.4.2l-1.2.5-.9-.6 1.2-.5.9.6zm-.8-1l-.9-.7.9.7zm-.3.2l-1.2.5-1.7-1.2 1.3-.5 1.6 1.2zm-3.3-.9l-8-5.6-.3-1.5 9.6 6.6-1.3.5zM91.2 79v.5L89.3 82l.3-4.8 1.4-1.7c.2 1.5.2 2.3.2 3.5zm-1.8-5l-.2.2.3-1.3-.1 1.1zm0-2.4l-1.2 1.2v-.2l1.2-1.1v.1zm-1.2-2.2l-.5.4.7-3.2-.2 2.8zm-.9.7l-.7.6.9-3.8.7-.5-.9 3.7zm-.2-3.4l-.6.4.9-3.6.5-.3-.8 3.5zm0-3.4l-.3.2V63l.4-.2-.1.5zm-.2-4.4l-.4.2.1-.6c.1-.1.3-.1.4-.2l-.1.6zm-.4-3.4l-.1 1-.6.3.3-1.1.4-.2zm-.2-.3l.4-1.5-.1 1.3-.3.2zm.1 1.7l-.1 1.2-.1.3c-.3.2-.6.3-1 .5l.5-1.6.7-.4zm-1 .1l-1 .4.3-1.1 1-.4-.3 1.1zm-.1.4l-.5 1.6c-.3.2-.7.3-1 .5l.5-1.7 1-.4zm-1.3.2l-1 .4.3-1.1 1-.5-.3 1.2zm-.1.4l-.5 1.7c-.3.2-.7.3-1 .5l.5-1.8 1-.4zm-1.3.2l-.5.2.4-1.1.4-.2-.3 1.1zm-.1.4l-.5 1.8c-.2.1-.3.2-.5.2l.6-1.8.4-.2zm-.7 0l-.7.3.4-1.1.7-.3-.4 1.1zm-.2.4l-.6 1.9c-.2.1-.5.2-.7.4l.6-1.9.7-.4zm-.7 2.3l-.3.9-.7.4.3-.9c.2-.2.5-.3.7-.4zm-.4 1.3l-.4 1.2-.8.4.4-1.3.8-.3zm-.6 1.7l-1 3-.8.5 1-3 .8-.5zm-1.1 3.5l-.3.9-.8.5.3-1 .8-.4zm-.4 1.4L76.9 74l-.9.7 1.6-4.9.8-.6zm-1.7 5.4L75 79.8l-1 .8 1.7-5.3 1-.7zm-1.9 5.8l-.4 1.3-1 .8.4-1.4 1-.7zm-.6 1.9L73.1 86 72 87l1.2-3.9 1-.8zm-1.3 4.3l-.7 2.3L71 90l.8-2.4 1.1-1zm-2.4 3.9L69 92l.9-2.7 1.4-1.3-.8 2.5zm-.2.7l-1.4 4.3-1.5 1.6 1.4-4.4 1.5-1.5zm-1.6 5l-2.3 7.2-1.7 2 2.4-7.5 1.6-1.7zm-2.6 8l-.6 1.8-1.7 2.1.6-1.9 1.7-2zm-.9 2.7L61.3 119l-1.8 2.4 4-12.4 1.7-2.1zm-3.6 12.2l1.6-2.1-3.8 12-1.8 2.5 4-12.4zm2.2-2.8l1.7-2.3-3.5 11.3-2 2.9 3.8-11.9zm2.3-3.1l1.6-2.1-3.4 11-1.7 2.3 3.5-11.2zm2.1-2.8l2.2-2.9-3.1 10.3-2.5 3.5 3.4-10.9zm2.8-3.7l1.9-2.6-2.8 9.7-2.2 3 3.1-10.1zm2.5-3.3l1.7-2.2-2.5 9.1-1.9 2.7 2.7-9.6zm2.2-2.9l1.6-2.1-2.2 8.5-1.9 2.6 2.5-9zm-.4 6.6l1.3-1.9-3.3 13.3-1.7 2.7 3.7-14.1zm1.9-2.7l1.8-2.6-2.8 12-2.4 3.7 3.4-13.1zm2.3-3.3l1.4-1.9-2.4 11.2-1.6 2.6 2.6-11.9zm1.9-2.6l.6-.8-.7 6.4-2.2 5.2 2.3-10.8zm2.7 21.8l-.5 6.8-3.5 8.8.6-6.6 3.4-9zm2.6 5.4l3.2-9.1-.1 3.6-3.3 10.2.2-4.7zm3.4-5.4l6.4-19.6.9 6.4-7.9 28.9.6-15.7zm6.6-20.3l1.8-5.6 1 4.9-1.9 7.1-.9-6.4zm3 0l.5 2.4-1.8 9.2-.6-4.4 1.9-7.2zm.6 3.2l.2.8-1.9 9.8-.2-1.3 1.9-9.3zm.4 1.7l.1.6L99 116l-.2-1.2 1.9-9.9zm.3 1.4l.1.6-1.9 10.8-.1-.7 1.9-10.7zm.3 1.6l.2.9-1.9 11.2-.1-1.1 1.8-11zm.3 1.7l.2.9-2 11.6-.1-1.1 1.9-11.4zm.4 1.8l.2.9-2.1 11.9-.1-1.1 2-11.7zm.4 1.7l1.7 8.4-1.6 19-2.2-15.3 2.1-12.1zm.1-.8l1-5.7 1.4 5.9-.7 8-1.7-8.2zm2.6 1.1l.3 1.3-.7 8.6-.4-1.7.8-8.2zm.6 2.4l.3 1.1-.6 9.3-.4-1.8.7-8.6zm.5 2.3l.2.7-.6 9.5-.2-.8.6-9.4zm.5 1.9l.3 1.1-.6 9.8-.3-1.2.6-9.7zm.5 2.2l.3 1.1-.6 10-.3-1.2.6-9.9zm.5 2.3l.3 1.1-.6 10.3-.3-1.2.6-10.2zm.3-43.1v-.2l.1-.6-.1.8zm-.1-6.1l-.3-.3.2-1.4.3.3-.2 1.4zm.3 9.2l.1-2 .2.3-.1 2-.2-.3zm.3 4.5l.3.5-.1 1.3-.3-.9.1-.9zm.1-.8l.1-2.5.3.4-.2 2.5-.2-.4zm.5 1.8l.3.5-.1 2-.3-.9.1-1.6zm.1-.9l.2-2.5.3.4-.2 2.6-.3-.5zm.5 2l.3.5-.2 2.8-.3-.9.2-2.4zm0-4.6l-.3-.4.1-2.1.3.4-.1 2.1zm-.2-3l.1-2.2.3.4-.1 2.2-.3-.4zm.2-2.7l.1-2.4.3.4-.1 2.4-.3-.4zm.2-2.9l.3.3-.3-.3zm0-.4l.1-1.6.3.3-.1 1.6-.3-.3zm.1-2.1l.1-2 .3.3-.1 2-.3-.3zm.2-2.4l.1-1.4.3.3-.1 1.4-.3-.3zm.1-7.2l-.1.6-.2-.2v-.4l.2-1.4.2.1-.1 1.3zm-.2 1l-.1.7-.1-.1v-.8l.2.2zm-.2 1.1l-.1.4.1-.4zm-.4-21.6l-2.4 1.1-.9-.6 3.7-1.6-.4 1.1zm-2.8 1.2l-.9.4-.9-.6.9-.4.9.6zm-1.3.6l-.8.3-.9-.6.7-.3 1 .6zm-2-.5l-1.6-1.1.8-.3 1.6 1-.8.4zm-2-1.3L91 39.5l-.1-.7 11.3 7.3-.8.2zM90.9 75l-1.3 1.6v-.4l1.3-1.5v.3zm-1.4-4.1L88.2 72l.1-1.2v-.2l1.2-1-.1.9.1.4zm-1-.8l.1-.7 1.1-.8v.5l-1.2 1zm-.3-4.2l-.7.5.8-3.5.4-.2-.1 1.5-.4 1.7zm-.2-3.2l-.5.3.1-.5.5-.3-.1.5zm-.6-.5l-.4.3.7-2.5.4-.2-.7 2.4zm-.1-3.6l.2-.6c.1-.1.2-.1.3-.2l-.1.6-.4.2zm.3.3l-.2.9-.2.1.1-.8.3-.2zm-.4-2.7v-.1.1zm0 4l-.1.5.1-.5zm-.2-2.3c-.1.1-.3.1-.4.2l.4-1.5.1-.1-.1 1.4zm-.2-1.7l.1-.9.2-.1-.3 1zm-.9-.8l-1 .4.9-3.1.9-.4-.8 3.1zm-1.4.6l-1 .5 1-3.2 1-.4-1 3.1zm-1.4.6l-.4.2 1-3.3.4-.2-1 3.3zm-.8.4l-.7.3 1.1-3.3.7-.3-1.1 3.3zm-1.1.5L80 58l1.1-3.4 1.2-.5-1.1 3.4zm-.2.4l-.4 1.1-1.2.5.4-1.1 1.2-.5zm-.5 1.6l-.6 1.9-1.2.6.6-2 1.2-.5zm-.7 2.4l-.3.9-1.2.6.3-1c.3-.1.8-.3 1.2-.5zm-.5 1.3l-.4 1.3-1.2.7.4-1.4 1.2-.6zm-.6 1.8l-1 3.1-1.3.8 1-3.1 1.3-.8zm-1.1 3.6l-.3 1-1.3.8.3-1 1.3-.8zm-.5 1.4l-1.6 5-1.3 1 1.7-5.1 1.2-.9zm-1.8 5.6L73.6 81l-1.4 1 1.8-5.5 1.3-.9zm-1.9 5.9l-.4 1.4-1.4 1.1.5-1.4 1.3-1.1zm-.6 2l-1.3 3.9-1.4 1.3 1.3-4.1 1.4-1.1zm-3.2 5.6l-1 1 1.4-4.3 1-.8-1.4 4.1zm-.2.7l-.9 2.7-1.1 1.1.9-2.9 1.1-.9zm-1.1 3.4l-1.4 4.4-1.2 1.2 1.5-4.5 1.1-1.1zm-1.7 5.2l-2.5 7.7-1.3 1.6 2.6-8 1.2-1.3zm-2.7 8.5l-.6 1.9-1.3 1.6.7-2 1.2-1.5zm-1 2.8l-4 12.5-1.5 2 4.2-12.8 1.3-1.7zm-4.3 13.4l-3.3 10.3c-.3-.1-.6-.1-.9-.2l2.6-8.1 1.6-2zm-1.3 9.5l1.8-2.5-1.2 3.8c-.3-.1-.6-.1-.9-.2l.3-1.1zm2.4-3.4l2-2.9-2.4 7.8c-.4-.1-.8-.1-1.1-.2l1.5-4.7zm2.6-3.8l1.7-2.3-3.5 11.3c-.3-.1-.6-.1-.9-.2l2.7-8.8zm2.3-3.1l2.5-3.5-4.7 16-1.5-.3 3.7-12.2zm5.8-8.3l1.9-2.7-4.3 15.8-2.5 3.9 4.9-17zm2.5-3.5l1.9-2.7-3.7 14.3-2.5 4 4.3-15.6zm-1.5 11.7l1.7-2.7-2.1 8.2-2 3.5 2.4-9zm3.4 24.2l1.8.5-.2 1.9-2-.1.4-2.3zm1.3-30.3l.5-2.2 1.4-2.2-1.9 4.4zm1.5 21.3l-.1.8h-.2l.3-.8zm-.7 9.5l1.7.4-.1 1.5-1.8-.1.2-1.8zm1-8.7l.2-2.1 2.1-5.7-.6 6.6-.6 1.5c-.3-.1-.7-.2-1.1-.3zm1.6 0v.4h-.1l.1-.4zm-.5 9.2l2.9.7-.1.8-2.9-.2.1-1.3zm2.7-8.3c-.6-.2-1.2-.3-1.9-.5l.1-1.6 3.5-8.9-.6 7.5-1.1 3.5zm1.1-2.1l-.2 2.4c-.2-.1-.4-.1-.6-.2l.8-2.2zm-.6 11.3l2.8.7v.2l-2.9-.2.1-.7zm1.6-8.6L86 133l-.4 7.2c-.6-.1-1.2-.3-1.8-.5zm1.5 9.4l.7.2h-.7v-.2zm4.1-11.6l8.1-29.5.6 4.6-6 29.9c-.9-.3-1.9-.7-2.9-1l.2-4zm8.9-24l.2 1.3-5.3 28c-.2-.1-.5-.2-.7-.3l5.8-29zm.3 2.3l.2 1.2-4.5 26.1c-.3-.1-.5-.2-.8-.3l5.1-27zm.3 2.3l.1.7-4.3 24.6c-.1 0-.1-.1-.2-.1l4.4-25.2zm.3 1.8l.1 1.1-3.9 22.7c-.1 0-.2-.1-.3-.1l4.1-23.7zm.3 2.2l.2 1.1-3.7 20.7c-.1 0-.2-.1-.3-.1l3.8-21.7zm.3 2.1l.1 1.1-3.3 18.9c-.1 0-.2-.1-.3-.1l3.5-19.9zm.3 2.1l2.2 15.7-.4 4.5c-1.4-.7-3-1.4-5-2.2l3.2-18zm2.4 17.2l.5 3.3v.2c-.2-.1-.5-.2-.7-.4l.2-3.1zm.2-1.5l1.7-19.3.4 1.8-1.6 20.8-.5-3.3zm2.2-16.3l.4 1.8-1.2 20.1c-.2-.1-.5-.2-.7-.4l-.1-.5 1.6-21zm.7 3.1l.2.8-1.1 18.3c-.1 0-.1-.1-.2-.1l1.1-19zm.4 2.1l.3 1.2-1 16.1c-.1-.1-.2-.1-.3-.2l1-17.1zm.5 2.5l.3 1.2-.8 14c-.1-.1-.2-.1-.3-.2l.8-15zm1 5.1l2.6 12.5h-3.3l.7-12.5zm2.6-48l-.3-.5.2-2.6.3.4-.2 2.7zm.2-3.1l-.3-.4.1-2.1.3.4-.1 2.1zm.1-2.7l-.3-.4.1-2.2.3.4-.1 2.2zm.2-2.7l-.3-.4.1-2.4.3.4-.1 2.4zm.2-2.9l-.3-.4v-.1l.3.5zm0-.6l-.3-.3.1-1.6.3.3-.1 1.6zm.1-2.1l-.3-.3.1-2 .3.3-.1 2zm.2-2.5l-.3-.3.1-1.4.3.3-.1 1.4zm.1-1.8l-.3-.3.1-1.9.3.3-.1 1.9zm-.2-7.4l-.2-.1.2-1.3v1.4zm.3 5l-.3-.3v-.5l.3.3v.5zm.1-.9l-.3-.3.1-.8.3.3-.1.8zm.7-11.6l-.1.9V58l.1-.8zm-.2 1.2l.1.1-.1 1.8-.3-.2.3-1.7zm-.3 2.1l.3.2-.1 1.1-.3-.2.1-1.1zm-.1 1.4l.3.2-.1 1.2-.3-.2.1-1.2zm-.1 1.6l.3.2-.1 1.4-.3-.3.1-1.3zm.2 2.1l-.1 2-.3-.3.1-2 .3.3zm-.4-5.4l-.1 1-.1-.1.2-.9zm-.3 1.2l.1.1-.2 1.1.1-1.2zm-.3 4.5l.2-1 .2.2-.1 1.9-.3-.3v-.8zm-.1 1.3l.3.3v.8l-.3-.3v-.8zm-.1-4.3l-.1 1.2-.1-.1.2-1.1zm0-19.7l-.4 1.5-4.2 1.8-1.5-1 6.1-2.3zm-5 3.5l-.9.4-1.6-1 .9-.4 1.6 1zm-1.9-1.2l-.9.4-11.8-7.6-.1-.8 12.8 8zM90.6 73.2c.1.4.1.8.2 1.1l-1.2 1.4.1-1.6.9-.9zm-.7-2.7l.1-.7c0 .2.1.4.1.5l-.2.2zm0 .5l.3-.3-.3.3zm.4.2c.1.6.2 1.1.3 1.6l-.8.9.1-2 .4-.5zm-.5-3.3v.2l-1 .8.6-3.2c.1.8.3 1.5.4 2.2zm-.9-3.7l.1-.6c.1.4.1.8.2 1.2l-.1.3-.4.3.2-1.2zm.2 1.5l-.5 2.3.2-2.2.3-.1zm-.4-3.9v.4l-.3.2.1-.5.2-.1zm-.2-1.1l-.2 1.1-.5.2.6-2.2c0 .3.1.6.1.9zm-.4-2.5zm0 .4c0 .1 0 .2.1.4l-.1.3-.4.2.2-.8.2-.1zm-.2-1.2c-.1.1-.2.2-.3.2l.2-.8c.1.2.1.4.1.6zm-.3-2c0 .2.1.4.1.6h-.2l.1-.6zm-.1 1l.1-.1-.2.7.1-.6zm-.1-2.2v.1l-.2.5-.3.1.2-2c.1.4.2.9.3 1.3zm-.5-2.4V52.1l-.9.2.7-2.2c.1.6.2 1.1.2 1.7zm-.4-2.4l-.9 3.1-1 .4 1.6-5.3.3 1.8zm-.4-2.5L84.2 53l-.4.2 2.2-6.8c0 .1.1.3.1.5zm-.2-1.3l-2.4 7.7-.7.3 2.9-9c.1.3.1.7.2 1zm-.3-1.8l-3.2 9.9-1.2.5 4-12.4c.1.7.3 1.4.4 2zm-.7-3.8c.1.4.1.7.2 1.1l-4.3 13.3-.7.3L84.9 40zM80 55l.7-.3-1.1 3.5-.7.3L80 55zm-1.3 4l.7-.3-.4 1.1-.7.3.4-1.1zm-.5 1.5l.7-.3-.6 2c-.2.1-.5.2-.7.4l.6-2.1zm-.8 2.5c.3-.1.5-.2.7-.4l-.3 1-.8.4.4-1zm-.5 1.5l.8-.4-.4 1.4-.8.4.4-1.4zm-.6 1.9l.8-.4-1 3.1-.8.5 1-3.2zm-1.2 3.7l.8-.5-.3 1.1-.8.5.3-1.1zm-.5 1.6l.8-.5-1.7 5.2-.9.6 1.8-5.3zm-1.9 5.8l.9-.6-1.8 5.5-1 .8 1.9-5.7zm-2.1 6.2l1-.8-.5 1.5-1 .8.5-1.5zm-53.7 42.5l53.2-42.1-.5 1.5-50 41.1c-.9-.2-1.8-.3-2.7-.5zm3.2.6l49.4-40.6-1.5 4.4L27 128c-2.4-.4-4.7-.8-6.9-1.2zm7.3 1.3l40.4-36.9-1 2.9L32 129c-1.6-.3-3.1-.6-4.6-.9zm5 .9l34.2-34.2-1.5 4.6-29 30.3c-1.2-.2-2.5-.4-3.7-.7zm4.2.8l28.3-29.7-2.7 8.1L43.1 131c-2.2-.4-4.4-.8-6.5-1.2zm6.9 1.3l18.5-22-.7 2.1-16.6 20.2-1.2-.3zm1.6.3L61 112l-4.2 12.9-5.7 7.6c-2.1-.3-4-.7-6-1.1zm6.3 1.2l5.1-6.7-2.4 7.2c-.9-.1-1.8-.3-2.7-.5zm-6.9 31l7.2-22.2c.3.1.6.1.9.2l-7 21.6c-.3.1-.7.3-1.1.4zm1.5-.5l6.9-21.4c.3.1.6.1 1 .2l-6.8 21c-.3 0-.7.1-1.1.2zm1.5-.4l6.7-20.8c.3.1.6.1 1 .2l-6.5 20.4c-.4.1-.8.1-1.2.2zm1.6-.3l6.4-20.3c.4.1.8.2 1.2.2l-6.1 19.8c-.4.2-1 .2-1.5.3zm1.9-.2l6-19.7c.3.1.6.1.9.2L52 162.1c-.3 0-.6 0-1 .1zm3.2-.3c-.6 0-1.2.1-1.8.1l5.9-19.3 1.5.3-5.6 18.9zm1.2 0h-.8l5.6-18.8c.5.1 1 .2 1.4.3L57.3 158l-1.9 3.9zm2.7-5.5l3.7-12.9c.6.1 1.1.2 1.4.3l-1.4 5.2-3.7 7.4zm4.5-9l1-3.6c.5.1.7.2.7.2l-1.7 3.4zm1.7-12.3l.9-3 2.5-4-2 7.2c-.5 0-1-.1-1.4-.2zm1.7.3l2.3-8.2 2.5-4-2.4 9.2-1.9 3.2c-.1-.1-.3-.1-.5-.2zm1.5.3c-.2 0-.4-.1-.6-.1l1.2-2.1-.6 2.2zm1.2-3.2l1.4-2.5-2 4.6.6-2.1zm1.3 29.2l1.8-6.2s.4-.1 1.3-.3l-.9 6-2.2.5zm4.6-1l-2.1.5.9-6c.6-.1 1.4-.2 2.3-.4l-.6 5.8c-.2.1-.4.1-.5.1zm.8-.1l.6-5.8c.6-.1 1.2-.2 1.9-.2l-.5 5.8c-.6 0-1.3.1-2 .2zm2.4-.3l.5-5.8c.9-.1 2-.2 3.1-.2l-.5 5.7c-1 .1-2 .2-3.1.3zm6.6-.5c-1 .1-2.1.1-3.1.2l.5-5.7c.9-.1 1.9-.1 3-.1l-.4 5.6zm3.8-.1c-1.1 0-2.3 0-3.5.1l.3-5.6h3.4l-.2 5.5zm.3 0l.2-5.5c2.8.1 6 .3 9.4.7 2.2.3 4.3.6 6.2 1l.8 5.3c-3-.7-8.7-1.6-16.6-1.5zm18.8 2.3s-.7-.3-1.9-.6l-.8-5.4c2.7.5 5 1.2 6.8 1.8l.8 4.2h-4.9zm8.7 0h-3.4l-.8-4.2c2.6.8 4.1 1.2 4.1 1.2v3zm14.4-.6l-14-45.9 20.7 45.8-6.7.1z"/></svg><view id="clock_icons_saopaulo_bg" viewBox="370 370 185 185"/><svg viewBox="0 0 185 185" width="185" height="185" x="370" y="370"><circle opacity=".23" fill="#FFF" cx="92.5" cy="92.5" r="87.5"/><defs><circle id="ia" cx="92.5" cy="92.5" r="87.5"/></defs><clipPath id="ib"><use xlink:href="#ia" overflow="visible"/></clipPath><path clip-path="url(#ib)" fill="#FFF" d="M297.2 157.9l-12.7.3-171-106.7 4.4-15.9-6.4 3.5-1.1 3.7-6.6 2.6-13.3-8.3-.5-3.2-5.7-5.9-1 2.5c.5 3.1 1 6.1 1.5 8.8l-5.1 15.5-149.4 58.1c-36.2-4.2-42.6-2-42.6-2v8.7c64.1 3.4 135.1 16.3 163.7 21.8l-7.3 22.4c-.7.3-1.3.5-1.9.8v1.8s.5-.2 1.4-.4l.2.1v-.1c.4-.1.8-.2 1.3-.4l.2.1v-.1c2.3-.6 5.6-1.3 9-1.4l-7.5 15h26.3l.8-10.4c26.3-2.2 40.7 2.5 40.7 2.5l-5.9 8.9H138l-6.6-14.7 165.9-4v-3.6zm-13.2.3l-7.6.2L113.2 52.8l.3-1L284 158.2zm-177.8-9.4l.8-12.9.3 1.2-.8 13.7h.1l.1-1.9c0 .1-.4-.1-.5-.1zm-32.3-.2l.4-1.5-.2 1.5h-.2zm-122.5-33.1L78.3 59.1l-.4 1.1-124.8 55.5c-.6 0-1.2-.1-1.7-.2zm152 31.7l-.1-.5 1.6-21.1.4 1.8-1.2 20.1c-.2 0-.5-.1-.7-.3zm-19.9-7.6c-.2-.1-.4-.1-.6-.2l.3-3.7 3.1-8.9-.3 4.8-2.5 8zM86 133l-.4 7.2c-.6-.2-1.2-.3-1.8-.5L86 133zm-8.6 5.1l.3-.7-.1.8c-.1-.1-.2-.1-.2-.1zM66 135.4l2.3-8.2 2.5-4-2.4 9.2-1.9 3.2c-.1-.1-.3-.1-.5-.2zm-3.4-.6l5-16.9 2.2-3.1-5 17.1-1.8 2.9h-.4zM84 81.5l.4-1.9.6-.6-.2 2.2-.1.2-.9 1 .2-.9zm25.5-15.2l-.1.7v-.4l.1-.3zm-26.3 3.6l.8-.6-1.2 4.3-.9.7 1.3-4.4zm-1.8 4.8l-1.2 1 1.4-4.6 1.2-.8-1.4 4.4zm25.8 8.3c0-.2-.1-.5-.1-.7l.2-1.2.3.4-.3 1.7-.1-.2zM87.4 63.5l.5-.3-.8 3.5-.6.4.9-3.6zm-.7 1.6l.1-1.2.2-.1-.3 1.3zm1.6-2.2l.4-.2-.1 1.5-.4 1.7-.7.5.8-3.5zm.6 1.3l.1-.6c.1.4.1.8.2 1.2l-.1.3-.4.3.2-1.2zm8.7-.7l-.2-.2h.1l.1.2zm0-.5l.3-.2.2.2-.3.3-.2-.3zm-.5 0l-.1-.2.1-.1v.3zm-.4-.4l-1.3-1.5.1-.1h.1l1.1 1.6zM94.9 61l-.1.1V61h.1zm.2 1.6l.6.8-.4.3-.2-1.1zm-.1-.7l-.1-.4.3-.2 1.3 1.5-.5.4-1-1.3zm.4 2.2l.5-.4.2.2-.6.5-.1-.3zm.8-.6l.5-.4.2.2-.5.4-.2-.2zm.9 0l.2.3-.5.5-.3-.3.6-.5zm7.4-.3v.1l-.4-.4c.1.2.3.2.4.3zm-3.6-1.2l-.3-.3c.1 0 .3.1.4.1l-.1.2zm.5.2l-.2.2.2-.2zm.5-.1c.4.1.8.3 1.2.4l.5.5-.7 1-1.4-1.3.4-.6zm1.9 1.1l.5.5-.3 1.3-.8-.8.6-1zm0 2.2l-.3.8-1.1-1.1.5-.6.9.9zm-3.7-3.7l.5.5-.5.5-.5-.5.5-.5zm1 .9l-.4.5.4-.5zm.2.3l1.4 1.3-.4.6-1.4-1.4.4-.5zm.7 2.2l-.7.9-1.4-1.5.7-.9 1.4 1.5zm.3.2l1.2 1.2-.1.4-.5.7-1.3-1.4.7-.9zm-2.9-2.9l.5.6-.7.8-.6-.6.8-.8zm.8.8l-.7.8.7-.8zm.2.2l-.7.9.7-.9zm-.9 1.1l-.3.4.3-.4zm.2.3l1.4 1.5-.4.5-1.3-1.6.3-.4zm1.7 1.7l1.3 1.4-.5.6L101 67l.4-.5zm1.5 1.7l-.2 1-.2-.3.4-.7zm-3.3-6.7l-.3.3-.1-.1.4-.2c-.1 0-.1 0 0 0zm-.6.5l-.7.7-.1-.2.8-.5zm-1.1.3l-.1-.2.8-.6.1.1-.8.7zm-.2.3l-.2.2-.1-.2.2-.2.1.2zm-.6-.3l-1-1.3h.3l1 1.1-.3.2zm-1.2 2.8l-.3-.4.7-.6.3.4-.4.4-.3.2zm2.5-1.8l.6.6-.3.3-.6-.7.3-.2zm.8.9l-.2.4-.1-.1.3-.3zm-.2-2.7l-.1-.1c.1 0 .1 0 .1.1zm-.6-.2l-.8.6-.8-.8c.5 0 1 .1 1.6.2zm-2.6 4.4l.1-.1.7.9-.6.5-.2-1.3zm.3-.3l.2-.2.4-.4.6.8-.6.7-.6-.9zm.9-.9l.5-.5.6.7-.6.6-.5-.8zm.8-.7l.6.7-.6-.7zm-1.6 3.5l.5-.6.2.3-.5.6-.2-.3zm.8-.8l.6-.7.1.2-.6.7-.1-.2zm.9-.9l.6-.6.1.1-.6.7-.1-.2zm.9-.2l-.5.7V66l.5-.6zm.2.3l1.4 1.6-.6.8-1.3-1.7.5-.7zm1.6 1.8l1.3 1.5-.7 1-1.2-1.6.6-.9zm1.5 1.7l.4.4-.4 1.4-.6-.8.6-1zm-5.8-.9zm.3-.4l.5-.6.1.1-.6.5zm.8-.9l.6-.7v.1l-.6.6zm.8-.4l1.3 1.7-.6.8-1.3-1.8.6-.7zm1.6 2l1.2 1.6-.6.9-1.2-1.7.6-.8zm1.4 1.9l.7.9-.4 1.3-1-1.3.7-.9zm-11.4-2.6v.2l-1 .8.6-3.2c.1.8.3 1.5.4 2.2zm7.1 3.5l.1.3-.1-.3zm-.2-1.3l-.3-1.3.1-.1 1.2 2.1-.3.5-.7-1.2zm1.1.1l.2.2-.2-.2zm-.9-1.9l.5-.6 1.3 1.8-.5.7-1.3-1.9zm2 1.4l1.2 1.7-.6.8-1.2-1.8.6-.7zm1.5 2l1 1.4-.4 1.2-1.2-1.8.6-.8zm6.4 5.9l.1.1-.1.7c-.1-.3-.1-.5 0-.8zm0-.5c.1-.6.2-1.2.3-2l.2.2-.3 2-.2-.2zm.9-2.1l.2-1.4.3.3-.2 1.4-.3-.3zm-.3-.3l-.1-.1.3-1.2-.2 1.3zm.3-1.8c0-.1 0-.1.1-.2l-.1.2zm-1.2-17.6l-.7.6.7-.6zm-.9.8l-.2.2.2-.2zm-16.9 5.7v.4l-.3.2.1-.5.2-.1zm.4 3.9l-.5 2.3.2-2.2.3-.1zm-.4 3.7l1.1-.8v.5l-1.2 1 .1-.7zm1.4.4c0 .2.1.4.1.5l-.2.2.1-.7zm-.2 1.2l.3-.3-.3.3zm7.5 2.7l.5 1-.2.3-.3-1.3zm-.3-1.5l.1-.2 1.1 2-.3.4-.9-2.2zm1.1.9l.4.5v.1l-.4-.6zm-.6-1.6l.3-.4L99 73l-.3.4-1.1-1.9zm.5-.7l1.3 1.7-.1.2-1.2-1.9zm1.5 2l1.3 1.9-.3.4-1.1-2.1.1-.2zm7.2 7.6l.2.2-.1.5c0-.2 0-.5-.1-.7zm.6.2l.3-1.8.1.1-.2 2-.2-.3zm-.3-.4l-.3-.4.3-1.8.3.4-.3 1.8zm.1-2.6l.3-2 .3.3-.3 2-.3-.3zm.8-4.4l.3-1.7.1.1-.2 1.8-.2-.2zm.3-2.1l.2-1.1-.1 1.2-.1-.1zm-.7-18.3l-.3-.2.5-.4-.2.6zm-.1.3l-.2.6-.5.5-.9-.7 1.1-.8.5.4zm-19 7.6l-.2 1.1-.5.2.6-2.2c0 .3.1.6.1.9zm-.3 1.5l-.2.5-.5.3.1-.5.6-.3zm-1.1 1.1l-.3.2V63l.4-.2-.1.5zm-1 3.9v.2l-.5.4.8-3.1-.3 2.5zm.9-.1l-.9 3.9.3-3.4.6-.5zm.4-.2l.7-.5-.8 3.7-.7.6.8-3.8zm1-.3l-.2 2.8-.5.4.7-3.2zm0 4l1.2-1-.1.9-.1.4-1.3 1.1.1-1.2.2-.2zm-.2 2l1.2-1.1v.2l-1.2 1.2v-.3zm2.1-1.4c.1.6.2 1.1.3 1.6l-.8.9.1-2 .4-.5zm.3 2c.1.4.1.8.2 1.1l-1.2 1.4.1-1.6.9-.9zM98 75l.8 1.7-.8-.2-.2-1.1.2-.4zm.3-.3l.3-.4 1.2 2.2-.2.4-.3-.1-1-2.1zm.4-.7l1.4 1.9-.2.3-1.2-2.2zm.3-.4l.2-.3 1.2 2.1-.2.3-1.2-2.1zm8.8 4.7l.2-1-.2 1zm.6-2.5v-.2.2zm-.5-24.1l-.9.7-1-.7 1-.7.9.6v.1zm-1.2.9l-1.1.8-1.1-.8 1.2-.8 1 .8zm-1.5 1l-1.2.9-1.2-.9 1.3-.8 1.1.8zm.3.2l1 .7-1.1 1.1-1.2-.9 1.3-.9zm-.3 2l-.3.3c-.3-.1-.5-.1-.8-.2l-.8-.6.7-.5 1.2 1zm-1.9 0c-.1 0-.3-.1-.4-.1l.2-.1.2.2zm-15.9 6.4l-.4.3.7-2.5.4-.2-.7 2.4zm-.3-1.5v-.4h.1l-.1.4zm-.8 3.1l-.4.2.1-.5.4-.3-.1.6zm-.1.5l-.4 1.5.1-1.4.3-.1zm-.2 3.6l-.8 3.2.3-2.9.5-.3zm-.1 1.5l-.2 1.9-.4.3.6-2.2zm.5 1.8l.8-.6-.2.7-.8.7.2-.8zm1.2-.9l.5-.4v.6l-.7.5.2-.7zm.4.6l-.3 1.7-.8.7.4-1.8.7-.6zm-.2 2.8l-.2 2.1-.3.4.5-2.5zm.4-.4l1.1-1.1-.5 2.4-.8.8.2-2.1zm1.3-.4l-.1 1.1-.2.2.3-1.3zm-.1 1.6l-.1 1.6-.6.7.4-2 .3-.3zm-.1 2.2v.4l-.8 1 .1-.5.7-.9zm.3-.5l1.3-1.5v.3l-1.3 1.6v-.4zm1.4-.7c.2 1.5.2 2.3.2 3.5v.5L89.3 82l.3-4.8 1.4-1.7zm0 4.7c-.4 1.8-1.3 4.2-2 5.8l.2-3.4 1.8-2.4zm8.9-3.3l.1.2-.2-.1.1-.1zm.4-.7l.1.1-.1.4-.1-.2.1-.3zm.2-.3zm7.1 9.3l.1-1 .1.1-.1 1.3c-.1-.1-.1-.2-.1-.4zm.1-1.5l.2-1.9.1.1-.1 1.9-.2-.1zm.2-2.4l.1-.7-.1.7zm.4-3.9l.1-.8v.6l-.1.2zm-.1-26.6l-.4-.3.6-.4-.2.7zm-.1.3v.1l-.7-.5.1-.1.6.5zm-5.6 2.7l1.2.9-.7.5-1.2-.9.7-.5zm.3 1.6l-.3.2c-.3-.1-.5-.1-.8-.2l-.7-.6.7-.4 1.1 1zm-1.9-.1c-.2 0-.4-.1-.6-.1l.2-.1.4.2zM93.7 54v-.2l.3.3-.3-.1zm-5.6 4.2zm0 .4c0 .1 0 .2.1.4l-.1.3-.4.2.2-.8.2-.1zm-.8 1.2l-.2.1.1-.8.3-.2-.2.9zm-.7 2.9l-.5.3.7-2.4-.2 2.1zM85.2 68l-.6.5.9-3.2-.3 2.7zm-.2.6l-1.1 4.2-.7.6 1.2-4.3.6-.5zm-.1 1.6l-.2 1.9-.4.3.6-2.2zm-.2 2.4l-.1.7-.6.5.2-.9.5-.3zm.6-.5l.5-.4-.1.7-.6.5.2-.8zm.8.4l.8-.6-.4 1.9-.7.6.1-.9.2-1zm-.3 2.3l.6-.5-.1.5-.5.5v-.5zm1-.9l.8-.7-.1.4-.8.8.1-.5zm.6.2l-.5 2.5-.9 1 .6-2.6.8-.9zm-.6 3.1l-.5 2.5-1 1.2.6-2.7.9-1zm.4-.4l.4-.4-.2 2-.7.9.5-2.5zm.8-.8l.7-.7-.4 2.1-.4.5.1-1.9zm.1 2l-.1.6-.3.3v-.5l.4-.4zm-.2 1.3l-.3 1.3.1-1.1.2-.2zm.4-.6l.9-1.1-.3 4.8-1.6 2.2.1-1.2.9-4.7zm.6 4.3l-.2 3.9-.3.6-.6 1.4-1 1.3.4-5.1 1.7-2.1zm12.4-28.8l-.7.4.7-.4zm-1 .6l-.4.3h-.1l.5-.3zm-12.6 3.7l-.3.2.2-.6c.1-.1.2-.1.3-.2l-.2.6zm-1.5 2.8l.1-.6.1-.1-.2.7zm-2 7.5l-.8.6 1.2-4.1.8-.5-1.2 4zm-1.5 5.4l-.3.9-1 .8.3-1 1-.7zm.4-.4l.7-.6-.2.9-.7.6.2-.9zm.3.9l-.6 2.4-.8.7.7-2.5.7-.6zm.5-.4l.6-.5L84 76l-.7.6.6-2.3zm1-.8l.7-.6v.5l-.3 1.4-.5.5.1-1.8zm.4 2.7l-.2 2.3-.5.5.7-2.8zm.4-.4l.4-.4-.6 2.6-.1.1.3-2.3zm-.6 5.8l1-1.2-.1.6-.9 1.1v-.5zm1.5-1.7l.8-1v.5l-.9 1.1.1-.6zm.7 0l-.3 3.4-.4 2.2-1.6 2.1 1.3-6.4 1-1.3zm-.8 10.9l-.8 1.1 1.2-5.8-.4 4.7zm-.1.6l-.1.8-1.4 3.2.6-2.8.9-1.2zm.4-.5l.4-.5-.4 1v-.5zm22.1-17.7l.1-.9.1.1-.2 1.3v-.5zm.5-4.3l-.1 1.3-.1-.1.2-1.2zm-2.1-18.7l-1.1-.7.7-.4 1.1.7-.7.4zm-.3.2l-.1.1-1.1-.8h.1l1.1.7zm-.4.2l-1.1.7-1.1-.8 1.1-.6 1.1.7zm-1.5.9l-1.2.7-1.2-.8 1.2-.7 1.2.8zm-1.5.9l-1.3.8-1.2-.9 1.4-.8 1.1.9zm-1.6 1l-.7.4-1.2-.9.7-.4 1.2.9zm-1 .6l-.7.4-1.2-1 .7-.4 1.2 1zm-1 .6l-.7.4c-.1 0-.3 0-.4-.1l-1-.8.9-.5 1.2 1zm-1.8.2c-.4-.1-.8-.1-1.2-.2l.5-.3.7.5zm-10.3 2.6c-.1.1-.2.2-.3.2l.2-.8c.1.2.1.4.1.6zm-1 1.4l-.5.3.1-.6c.1-.1.3-.1.4-.2v.5zm-.1.5l-.2.9-.2.1.1-.8.3-.2zm-.8 1.2l-.1.1.2-.6-.1.5zm0 .4l-.3 2.3-.7.5.8-2.7.2-.1zm-.4 2.8l-.2.6-.7.5.2-.7.7-.4zm-1.4 1.4l-1.1.7.2-.7 1.1-.6-.2.6zm-.1.5l-1.2 4.1-1.2.8 1.3-4.2 1.1-.7zm-2.8 5.2l-1.3 1 1.4-4.4 1.2-.7-1.3 4.1zm-.2.6L79.8 76l-1.4 1.1 1.5-4.8 1.2-.9zm-1.5 5.2l-.3 1.1-1.4 1.1.4-1.2 1.3-1zm.4-.4l1.2-1-.3 1-1.3 1 .4-1zm.8.6l-.8 2.8-1.3 1.2.9-3 1.2-1zm.5-.3l1-.8-.7 2.6-1 1 .7-2.8zm.1 2.3L81 80l-1.1 1.1.4-1.3 1.1-1zm.4-.4l.8-.8-.2 1-.9.9.3-1.1zm1.3-1.2l.7-.6-.2.8-.7.7.2-.9zm1.1-1v.6l-.1.2.1-.8zm.5-.4l.4-.4-.1.7-.4.4.1-.7zm.1.9l-.5 2.1.2-1.8.3-.3zm.2 6l.8-1-1.3 6.5-.1.1.6-5.6zm-.9 6.1l-.9 1.1 1.3-6-.4 4.9zm.8-.5l1.6-2.1-1.3 6.3-1.2 1.8.2-2.6.7-3.4zm-1.3 6.6zm-.1.6l-.4 4.3-1 2.3 1.3-6.4.1-.2zm.4-.5l1.1-1.6-.7 3.6-.8 1.8.4-3.8zm24.3-6.5zm-.1-1.1l.1-2.4.2.3-.1 2.4-.2-.3zm.1-2.9l.1-2 .2.3-.1 2-.2-.3zm.2-2.5l.1-2.1.2.3-.1 2.1-.2-.3zm.1-2.6l.1-2.3.2.2-.1 2.3-.2-.2zm.3-3.2l.2-1.4-.1 1.6-.1-.2zm.4-4.2l-.2-.2.1-1.3.2.2-.1 1.2v.1zm-.4-23.5l-.5-.3.6-.4-.1.7zm-.1.3l-.2.6-.3.2-1.1-.7.9-.5.7.4zm-4.7 1.5l.9-.5-.9.5zm-.3.2l-1.2.7-.1-.1 1.3-.6zm-1.6.9l-1.4.8-.1-.1 1.5-.7zm-1.6.9l-.7.4-.2-.1.7-.4.2.1zm-1.1.6l-.7.4-.2-.2.7-.4.2.2zm-.9.5l-.8.5-.2-.2.9-.5.1.2zm-1.2.7l-.8.4c-.2 0-.3-.1-.5-.1l1-.5.3.2zm-2.6 0l-.7-.6h.1l.7.6h-.1zm-1-.8l-.2-.2V53l.2.3zm-6 2.7h-.2l.1-.6c0 .2 0 .4.1.6zm-.1.3l-.2.7.1-.6.1-.1zm-.6 1.6c-.1.1-.3.1-.4.2l.4-1.5.1-.1-.1 1.4zm-1.5 2.9l-1 .6.3-1 1-.5-.3.9zm-.2.5l-.7 2.7-1.1.6.8-2.7 1-.6zm-2.2 3.5l-1.1.7.9-2.8 1.1-.6-.9 2.7zm-.2.5l-.2.8-1.2.7.2-.8 1.2-.7zm-1.8 1.8l-1.1.7.3-.9 1.1-.7-.3.9zm-.1.5l-1.4 4.5-1.1.8 1.4-4.6 1.1-.7zm-1.6 5l-1.5 4.9-1.2.9 1.5-5 1.2-.8zM77.8 78l-.4 1.2-1.2 1 .4-1.2 1.2-1zm-.6 1.8l-1 3.3-1.2 1.1 1.1-3.4 1.1-1zm.5-.4l1.4-1.1-.9 3-1.5 1.4 1-3.3zm.3 2.5l-.5 1.6L76 85l.5-1.8 1.5-1.3zm.5-.4l1.4-1.2-.4 1.3L78 83l.5-1.5zm.8.7l-1 3.4-1.5 1.6 1.1-3.6 1.4-1.4zm.4-.5l1.1-1.1-.8 3.3-1.2 1.3.9-3.5zm1.6-1.6l.9-.9-.8 3.1-1 1 .9-3.2zm1.4-1.3l.7-.7-.7 2.9-.8.8.8-3zm1.2-1.2l.3-.3-.3 2.4-.7.8.7-2.9zm-.1 2.7l-.1 1.2-.4 1.7-1.2 1.4.9-3.4.8-.9zm.1 2.8l.8-.9-.2.7-.7.8.1-.6zm.4.5l-1 4.6.4-3.9.6-.7zm-1.2 7.1l1-1.3-.2 2.3-.8 3.8-.7 1 .6-5.3.1-.5zm-.2 5.6l-1.1 5.5.5-4.7.6-.8zm12.2-5.2l.1.4-.8 1.6.7-2zm.2-.6l1.1-2.9.6.2-1.6 3.3-.1-.6zm6.8-39.6c.2-.1.4-.2.5-.3l-.5.3zm-.4.2l-1.4.7h-.1c.6-.3 1-.5 1.5-.7zm-1.7.9l-.7.4-.1-.1c.3-.1.5-.3.8-.3zm-1 .5l-.7.3-.1-.1c.2 0 .5-.1.8-.2zm-1 .5l-.9.5-.1-.1c.3-.1.6-.3.9-.4h.1zm-1.2.7l-1.2.6-.2-.1 1.2-.6.2.1zm-1.6.2l-.7-.6 1.2-.6.7.5c-.4.3-.8.5-1.2.7zm-1-.8l-.8-.6 1.2-.5.8.6-1.2.5zm-.9-1l-.3-1.5 1.3 1-1 .5zm-6.1 4.1v-.1.1zm-1.3 3.2l-1 .5.2-.7c.3-.2.6-.3 1-.5l-.2.7zm-1.4.7l-1.1.6.2-.8c.3-.2.7-.3 1-.5l-.1.7zm-.1.5l-.3 1-1.1.6.3-1.1 1.1-.5zm-1.9 1.9l-1.1.6.4-1.2 1-.6-.3 1.2zm-.1.4l-.9 2.9-1.1.7.9-2.9 1.1-.7zM80 66.7l-.6.4.9-3 .6-.3-.9 2.9zm-.1.5l-.3.9-.6.4.3-.9.6-.4zm-.5 1.4L78 73.2l-.7.5 1.5-4.8.6-.3zm-1.5 5.1l-1.5 5-.8.7 1.6-5.2.7-.5zm-1.8 5.6l-.4 1.2-.9.7.4-1.3.9-.6zm-.5 1.9l-1.1 3.5-1 .9 1.2-3.7.9-.7zm-1.3 4.1l-.6 2.1-1 1 .7-2.2.9-.9zm.5-.5l1.3-1.1-.6 1.8-1.3 1.3.6-2zm.5 1.4L74.1 90l-1.3 1.4 1.2-3.9 1.3-1.3zm.5-.5l1.6-1.6-1.1 3.6-1.7 1.7 1.2-3.7zm.3 2.7l-1.6 5.2-1.9 2.2 1.7-5.7 1.8-1.7zm.5-.5l1.5-1.6-1.4 4.7-1.7 2 1.6-5.1zm2-2.1l1.2-1.3-1.2 4.3-1.4 1.6 1.4-4.6zm1.7-1.8l1-1.1-1 3.9-1.2 1.4 1.2-4.2zm1.4-1.5l.8-.8-.9 3.5-.9 1.1 1-3.8zm-.2 3.4l-.2.9-.9 1.2.3-1 .8-1.1zm.5-.6l1.2-1.4-.2.8-1.2 1.5.2-.9zm1.4-.5l-.6 5.9-1.1 1.5 1.7-7.2v-.2zM82 97.1l-.5.6.8-3.5-.3 2.9zm-.1.6l-.7 6.4-2.2 5.2 2.4-10.8.5-.8zm11.3-1.5l2.1-4.2.3 2.1-4.8 10.7.1-2.3 2.3-6.3zm2.3-4.7l1.7-3.5.3 1.6-1.8 3.9-.2-2zm2-3.7l.7.2-.5 1-.2-1.2zm12.3-19.1zm0-.4v-.4l.1.1-.1.3zm.2-.7l-.1-.1v-.8l.2.2-.1.7zm.4-4.6l-.1 1.2-.1-.1.2-1.1zm.8-2.8l-.1 1-.1-.1.2-.9zm-9.5-9.5l-.5-.4 1.3-.6.5.3c-.4.2-.8.4-1.3.7zm-.3.1c-.5.2-.9.5-1.4.7l-.6-.4 1.5-.7.5.4zm-1.8.9c-.2.1-.5.2-.7.4l-.6-.5.7-.3.6.4zm-1 .5c-.2.1-.4.2-.7.3l-.6-.5.7-.3.6.5zm-1 .5c-.3.1-.6.3-.9.4l-.7-.5.9-.4.7.5zm-1.9-.3l-.7-.7.9-.4.8.6-1 .5zm-1-.9L93 50.1V50l.8-.3 1.8 1.4-.9.4zm-1.8-1.8l-.2-.7.6.5-.4.2zm-5.5 4.5v.1l-.2.5-.3.1.2-2c.1.4.2.9.3 1.3zm-.3 1l-.3 1 .1-.9.2-.1zm-.8 2.9l-.1.3c-.3.2-.6.3-1 .5l.5-1.6.7-.3-.1 1.1zm-1.5.9c-.3.2-.7.3-1 .5l.5-1.7 1-.4-.5 1.6zm-1.4.7c-.3.2-.7.3-1 .5l.5-1.8 1-.5-.5 1.8zm-.1.4l-.3.8-1 .6.2-.8c.4-.2.7-.4 1.1-.6zm-1.7 1.6l-.6.3.3-.9c.2-.1.3-.2.5-.2l-.2.8zm-.2.4l-.4 1.2-.6.3.4-1.2.6-.3zm-1.3 1.8l-.8.4.4-1.3.8-.4-.4 1.3zm-.2.4l-1 3-.8.5 1-3 .8-.5zm-1.1 3.5l-.3.9-.8.5.3-1 .8-.4zm-.4 1.4L76.9 74l-.9.7 1.6-4.9.8-.6zm-1.7 5.4L75 79.8l-1 .8 1.7-5.3 1-.7zm-1.9 5.8l-.4 1.3-1 .8.4-1.4 1-.7zm-.6 1.9L73.1 86 72 87l1.2-3.9 1-.8zm-1.3 4.3l-.7 2.3L71 90l.8-2.4 1.1-1zm-1 3l-1.3 4.1-1.2 1.2 1.4-4.2 1.1-1.1zm.5-.5l1.1-1-1.2 3.9-1.1 1.2 1.2-4.1zm-.4 3.5l-1.9 6.2-1.3 1.6 2.1-6.6 1.1-1.2zm.6-.5l1.3-1.4-1.8 5.8-1.4 1.7 1.9-6.1zm-.7 5.2l-.5 1.5-1.5 1.8.5-1.6 1.5-1.7zm.5-.6l1.9-2.2-.4 1.3-1.9 2.3.4-1.4zm2.4-2.9l1.7-2-.4 1.2-1.7 2.1.4-1.3zm2.2-2.6l1.4-1.6-.3 1.1-1.4 1.7.3-1.2zm1.9-2.2l1.2-1.4-.3 1-1.2 1.5.3-1.1zm.7.3l-2.2 8.3-1.5 2 2.4-8.8 1.3-1.5zm.5-.6l1-1.2-2 7.9-1.1 1.5 2.1-8.2zm1.5-1.7l1.2-1.5-1.7 7.3-1.5 2 2-7.8zm-.7 6.5l-1.7 7.5-1.8 2.6 2-8 1.5-2.1zm.5-.6l1.2-1.6-1.6 7.1-1.4 1.9 1.8-7.4zm-.5 6.3l-2.4 11.2-1.6 2.6 2.7-11.8 1.3-2zm6.3 12.9v.6l-1.2 2.7 1.2-3.3zm.4-1.1l2.8-7.5-.1 2.1-2.8 6.2.1-.8zm2.7-4.5l-.2 4-3 7.5.3-5.2 2.9-6.3zm.4-.8l5-11 .2 1.5-5.3 13.4.1-3.9zm5.2-11.5l1.8-4 .2.9-1.8 4.5-.2-1.4zm2-4.6l.7-1.5.4.1-.9 2.2-.2-.8zm1.4-1.2l.1.3-1 2.9-.1-.6 1-2.6zm9.2 1.5l.1-.9.3.5-.1 1.3-.3-.9zm.1-1.7l.1-2.5.3.4-.2 2.5-.2-.4zm.2-3l.1-2 .3.4-.1 2.1-.3-.5zm.1-2.5l.1-2.1.3.4-.1 2.1-.3-.4zm.2-2.7l.1-2.4.3.4-.1 2.4-.3-.4zm.2-3.2l.1-1.6.3.3-.1 1.6-.3-.3zm.1-2.1l.1-1.9.3.3-.1 2-.3-.4zm.1-2.4v-.7l.1-.6.2.2-.1 1.3-.2-.2zm.3-1.6l.2-1.7-.1 1.9-.1-.2zm.4-4.3l-.2-.2v-.4l.2-1.4.2.1-.1 1.3-.1.6zm.6-3.8l.1-1.2.1.1-.2 1.1zm-5.9-13.5l-.4-.3h.1l.3.3c.1 0 0 0 0 0zm-.3.2l-1.2.6-.5-.3 1.2-.6.5.3zm-2 0l-.9-.6 1.2-.5.9.6-1.2.5zm-.4.2l-1.3.6-.8-.6 1.3-.6.8.6zm-1.6.7l-1.5.7-.8-.6 1.5-.7.8.6zm-1.9.8l-.7.4-.8-.6.7-.3.8.5zm-1.1.5l-.6.3-.8-.6.7-.3.7.6zm-1.7-.5l-1.8-1.4.6-.2 1.8 1.4-.6.2zm-2.1-1.7l-1.1-.9-.1-.8 1.9 1.4-.7.3zm-7.2 5.8l-.3.1.4-1.5-.1 1.4zm-.1.4l-.1 1-.6.3.3-1.1.4-.2zM85.4 57l-1 .4.3-1.1 1-.4-.3 1.1zm-1.4.6l-1 .4.3-1.1 1-.5-.3 1.2zm-1.4.6l-.5.2.4-1.1.4-.2-.3 1.1zm-.1.4l-.5 1.8c-.2.1-.3.2-.5.2l.6-1.8.4-.2zM81 60.9c-.2.1-.5.2-.7.4l.6-1.9.7-.3-.6 1.8zm-.1.4l-.3.9-.7.4.3-.9c.2-.2.5-.3.7-.4zm-1.4 1.5l-1.2.6.3-1 1.2-.6-.3 1zm-.2.4l-.4 1.3-1.2.7.4-1.4 1.2-.6zm-.6 1.8l-1 3.1-1.3.8 1-3.1 1.3-.8zm-1.1 3.6l-.3 1-1.3.8.3-1 1.3-.8zm-.5 1.4l-1.6 5-1.3 1 1.7-5.1 1.2-.9zm-1.8 5.6L73.6 81l-1.4 1 1.8-5.5 1.3-.9zm-1.9 5.9l-.4 1.4-1.4 1.1.5-1.4 1.3-1.1zm-.6 2l-1.3 3.9-1.4 1.3 1.3-4.1 1.4-1.1zM71.3 88l-.8 2.5L69 92l.9-2.7 1.4-1.3zm-1 3.2l-1.4 4.3-1.5 1.6 1.4-4.4 1.5-1.5zm-1.6 5l-2.3 7.2-1.7 2 2.4-7.5 1.6-1.7zm.5-.6l1.2-1.2-2.1 6.7-1.3 1.6 2.2-7.1zM68 102l-.5 1.7-1.4 1.7.6-1.8L68 102zm.5-.7l1.4-1.6-.5 1.6L68 103l.5-1.7zm.6.8L65.7 113l-1.7 2.3 3.6-11.5 1.5-1.7zm.6-.7l1.5-1.8-3.2 10.6-1.6 2.1 3.3-10.9zm2-2.4l1.9-2.4-3 9.9-2.2 2.9L71.7 99zm2.5-3l1.7-2.1-2.7 9.4-1.9 2.5 2.9-9.8zm2.2-2.8l1.4-1.7-2.5 8.9-1.7 2.2 2.8-9.4zm-1.3 8l-2.5 9.1-1.9 2.7 2.8-9.6 1.6-2.2zm.6-.7l1.6-2.1-2.2 8.5-1.9 2.6 2.5-9zm2.1-2.8l1.1-1.5-2 8.1-1.3 1.9 2.2-8.5zm-1.1 7.5l-3.3 13.3-1.7 2.7 3.7-14.1 1.3-1.9zm.5-.8l1.8-2.6-2.8 12-2.4 3.7 3.4-13.1zm-1.1 10.4l-.7 3-3.6 8.3 1.9-7.5 2.4-3.8zm.5-.8l1.4-2.2-1.9 4.3.5-2.1zm7.5 6.3l-.5 6.8-3.5 8.8.6-6.6 3.4-9zm.4-.9l2.6-5.8-.3 5.4-2.8 7.1.5-6.7zm2.2.6l-.3 5.6-3.1 8.8.6-7.3 2.8-7.1zm.4-.9l3-7.6-.2 4-3.2 9 .4-5.4zm3.4-8.5l5.4-13.7.2 1.2-5.8 16.4.2-3.9zm5.7-14.4l1.8-4.6.1.6-1.8 5.1-.1-1.1zm2-3.3l.2.8-1.8 5.6-.2-1.3 1.8-5.1zm.2-.6l1-3 .1.6-1 3.1-.1-.7zm1.4-1.8l1 4.2-1 3.8-1-4.8 1-3.2zm1.1 4.9l.4 1.5-.9 4.6-.5-2.3 1-3.8zm.5 2.3l.1.6-.9 4.8-.2-.8 1-4.6zm.4 1.4l.1.3-.9 5.1-.1-.5.9-4.9zm.2 1.1l.1.5-.9 5.2-.1-.6.9-5.1zm.4 1.5l.2.8-.9 5.4-.2-.9.9-5.3zm.4 1.6l.2.8-1 5.5-.2-.9 1-5.4zm.3 1.6l.2.8-1 5.6-.2-.9 1-5.5zm.4 1.7l1.4 5.9-.7 8-1.7-8.2 1-5.7zm1.6 6.8l.3 1.3-.7 8.6-.4-1.7.8-8.2zm.6 2.4l.3 1.1-.6 9.3-.4-1.8.7-8.6zm.5 2.3l.2.7-.6 9.5-.2-.8.6-9.4zm2.8-26.4l.1-1.7.3.5-.1 2-.3-.8zm.2-2.6l.2-2.5.3.4-.2 2.6-.3-.5zm.2-3l.1-2.1.3.4-.1 2.1-.3-.4zm.1-2.6l.1-2.2.3.4-.1 2.2-.3-.4zm.2-2.7l.1-2.4.3.4-.1 2.4-.3-.4zm.2-2.9l.3.3-.3-.3zm0-.4l.1-1.6.3.3-.1 1.6-.3-.3zm.1-2.1l.1-2 .3.3-.1 2-.3-.3zm.2-2.4l.1-1.4.3.3-.1 1.4-.3-.3zm.1-1.8l.1-1.9.3.3-.1 1.9-.3-.3zm.1-2.4v-.4l.3.3v.4l-.3-.3zm.1-.8v-.8l.3.3v.8l-.3-.3zm0-1.2l.1-.9.2-1 .2.2-.1 1.9-.4-.2zm.3-2.3l.2-1.3-.1 1.4-.1-.1zm-1.5-17.6c-.5.2-1 .5-1.6.8l-.3-.2 2-.9-.1.3zm-2 1c-.3.1-.6.3-.9.5l-.3-.2.9-.4.3.1zm-1.2.6c-.2.1-.5.2-.7.4l-.4-.3.8-.3.3.2zm-1.5-.1l-.9-.6.7-.3.9.6-.7.3zm-.3.2l-.9-.6.9.6zm-1.3-.8l-.9-.7.9.7zm-.3.2l-1.2.5-1.7-1.2 1.3-.5 1.6 1.2zm-1.6.7l-1.3.6-1.7-1.3 1.3-.5 1.7 1.2zm-1.7.7l-1.5.7-1.8-1.3 1.5-.6 1.8 1.2zm-1.8.8l-.7.3-1.8-1.4.7-.3 1.8 1.4zm-2.9-1.3l-2.3-1.7-.2-.9 3.2 2.3-.7.3zm-7.8 2.9V52.1l-.9.2.7-2.2c.1.6.2 1.1.2 1.7zm-.1.6l-.9 3-1 .4.9-3.1 1-.3zM84.5 56l-1 .5 1-3.2 1-.4-1 3.1zm-1.4.6l-.4.2 1-3.3.4-.2-1 3.3zm-.8.4l-.7.3 1.1-3.3.7-.3-1.1 3.3zm-.2.4l-.4 1.1-.7.3.4-1.1.7-.3zm-1.4 1.7l-1.2.5.4-1.1 1.2-.5-.4 1.1zm-.2.4l-.6 1.9-1.2.6.6-2 1.2-.5zm-2.2 2.7c-.2.1-.5.2-.7.4l.7-2.1.7-.3-.7 2zm-.2.5l-.3 1-.8.3.3-1c.3-.1.6-.2.8-.3zm-.4 1.4l-.4 1.4-.8.4.5-1.4.7-.4zm-.6 1.9l-1 3.1-.8.5 1-3.2.8-.4zm-1.2 3.6l-.3 1.1-.8.5.4-1.1.7-.5zm-.5 1.5l-1.7 5.2-.9.6 1.7-5.3.9-.5zm-1.8 5.7l-1.8 5.5-1 .8 1.8-5.6 1-.7zm-2 6.1l-.5 1.5-1 .8.5-1.5 1-.8zm-.7 2.1l-1.3 4.2-1 1 1.4-4.3.9-.9zm-1.5 4.8l-.9 2.7-1.1 1.1.9-2.9 1.1-.9zm-1.1 3.4l-1.4 4.4-1.2 1.2 1.5-4.5 1.1-1.1zm-1.7 5.2l-2.5 7.7-1.3 1.6 2.6-8 1.2-1.3zm-2.7 8.5l-.6 1.9-1.3 1.6.7-2 1.2-1.5zm.5-.7l1.7-2-.6 1.8-1.7 2.1.6-1.9zm.8.7L61.3 119l-1.8 2.4 4-12.4 1.7-2.1zm.6-.7l1.4-1.7-3.7 11.6-1.6 2.1 3.9-12zM63.2 117l-3.8 12-1.8 2.5 4-12.4 1.6-2.1zm.6-.7l1.7-2.3-3.5 11.3-2 2.9 3.8-11.9zm-2.1 10l-2.4 7.8c-.4-.1-.8-.1-1.1-.2l1.5-4.7 2-2.9zm.6-.9l1.7-2.3-3.5 11.3c-.3-.1-.6-.1-.9-.2l2.7-8.8zm.3-1l3.4-11.2 1.6-2.1-3.4 11-1.6 2.3zm5.6-14l2.2-2.9-3.1 10.3-2.5 3.5 3.4-10.9zm2.8-3.7l1.9-2.6-2.8 9.7-2.2 3 3.1-10.1zm-.6 7.3l1.9-2.7-4.3 15.8-2.5 3.9 4.9-17zm2.5-3.5l1.9-2.7-3.7 14.3-2.5 4 4.3-15.6zm-1.5 11.7l1.7-2.7-2.1 8.2-2 3.5 2.4-9zm6.7 14l2.1-5.7-.6 6.6-.6 1.5-1.2-.3.3-2.1zm1.4 2v.4h-.1l.1-.4zm.5-1.1l3.5-8.9-.6 7.5-1.2 3.4c-.6-.2-1.2-.3-1.9-.5l.2-1.5zm1.9 11.1l-.1.8-2.9-.2.1-1.4 2.9.8zm.1-9l.8-2.2-.2 2.4c-.2-.1-.4-.1-.6-.2zm4.7-13.5l3.2-9.1-.1 3.6-3.3 10.2.2-4.7zm3.6-10.1l5.9-16.9.2 1.2-6.2 19.1.1-3.4zm6.2-14.9l.9 6.4-7.9 28.9.6-15.7 6.4-19.6zm.2-.7l1.8-5.6 1 4.9-1.9 7.1-.9-6.4zm3 0l.5 2.4-1.8 9.2-.6-4.4 1.9-7.2zm.6 3.2l.2.8-1.9 9.8-.2-1.3 1.9-9.3zm.4 1.7l.1.6L99 116l-.2-1.2 1.9-9.9zm.3 1.4l.1.6-1.9 10.8-.1-.7 1.9-10.7zm.3 1.6l.2.9-1.9 11.2-.1-1.1 1.8-11zm.3 1.7l.2.9-2 11.6-.1-1.1 1.9-11.4zm.4 1.8l.2.9-2.1 11.9-.1-1.1 2-11.7zm.4 1.7l1.7 8.4-1.6 19-2.2-15.3 2.1-12.1zm1.9 9.6l.4 1.8-1.6 20.8-.5-3.2 1.7-19.4zm1.3 6.1l.2.8-1.1 18.3c-.1 0-.1-.1-.2-.1l1.1-19zm1.1-8.8l.3 1.1-.6 9.8-.3-1.2.6-9.7zm.5 2.2l.3 1.1-.6 10-.3-1.2.6-9.9zm.5 2.3l.3 1.1-.6 10.3-.3-1.2.6-10.2zm1.9-31l.1-2.4.3.5-.2 2.8-.2-.9zm.2-3.5l.2-2.6.3.4-.2 2.6-.3-.4zm.2-3.1l.1-2.1.3.4-.1 2.1-.3-.4zm.1-2.6l.1-2.2.3.4-.1 2.2-.3-.4zm.2-2.7l.1-2.4.3.4-.1 2.5-.3-.5zm.2-2.9l.3.3v.1l-.3-.4zm0-.5l.1-1.6.3.3-.1 1.7-.3-.4zm.1-2.1l.1-2 .3.3-.1 2-.3-.3zm.2-2.5l.1-1.4.3.3-.1 1.4-.3-.3zm.1-1.8l.1-1.9.3.3-.1 2-.3-.4zm.1-2.4v-.5l.3.3v.5l-.3-.3zm.1-.9l.1-.8.3.3-.1.9-.3-.4zm.1-1.2l.1-2 .3.3-.1 2-.3-.3zm.1-2.4l.1-1.4.3.2-.1 1.4-.3-.2zm.1-1.8l.1-1.2.3.2-.1 1.2-.3-.2zm.1-1.6l.1-1.1.3.2-.1 1.1-.3-.2zm.1-1.4l.3-1.7.1.1-.1 1.8-.3-.2zm.4-2.1l.1-.8-.1.8zm-2.5-11.7l-2.4 1.1-.9-.6 3.7-1.6-.4 1.1zm-2.8 1.2l-.9.4-.9-.6.9-.4.9.6zm-2.2-.4l-1.6-1 .9-.4 1.6 1-.9.4zm-.4.2l-.7.3-1.6-1.1.8-.3 1.5 1.1zm-2.7-1L91 39.5l-.1-.7 11.3 7.3-.8.2zm-.7.3l-1.3.5-8-5.6-.3-1.5 9.6 6.6zm-1.6.7l-1.3.5-6-4.3-.3-1.5 7.6 5.3zm-1.7.6l-1.5.6-3.6-2.7-.5-1.8 5.6 3.9zm-11.8 4.6l-1 .4 1.6-5.3.3 1.8-.9 3.1zm.5-5.6L84.2 53l-.4.2 2.2-6.8c0 .1.1.3.1.5zm-.2-1.3l-2.4 7.7-.7.3 2.9-9c.1.3.1.7.2 1zm-3.5 8.1l-1.2.5 4-12.4c.1.7.2 1.4.4 2.1l-3.2 9.8zm-.2.5l-1.1 3.4-1.1.4 1.1-3.4 1.1-.4zm-2.6 4l-.7.3L80 55l.7-.3-1.1 3.5zm-.2.4l-.4 1.1-.7.3.4-1.1.7-.3zm-1.6 2.1l-.7 2.1C40.1 81-14.3 107.7-35 117.5c-3.9-.6-7.7-1.2-11.3-1.7L77.8 60.7zm-.8 2.5l-.3 1L-27 118.8c-2.6-.4-5-.8-7.4-1.2 21-10 74.6-36.3 111.4-54.4zm-.5 1.5l-.5 1.5-94.9 53.9c-2.6-.4-5.1-.8-7.5-1.2L76.5 64.7zm-.6 2l-1 3.2-85.2 51.6c-2.7-.5-5.4-.9-8-1.3l94.2-53.5zm-1.3 3.6l-.4 1.1-79.7 50.9c-1.5-.3-3.1-.5-4.6-.8l84.7-51.2zm-.5 1.7l-1.7 5.3-65.5 47.1c-4.1-.7-8-1.4-11.8-2l79-50.4zm-1.9 5.8l-1.9 5.7-53.9 42.6c-3.1-.6-6.2-1.1-9.1-1.6l64.9-46.7zm-2 6.3l-.5 1.5-50 41.1c-.9-.2-1.8-.3-2.7-.5l53.2-42.1zm-.7 2.1L68 90.6 27 128c-2.3-.4-4.6-.8-6.9-1.3l49.4-40.5zm-1.7 5l-1 2.9L32 129c-1.6-.3-3.1-.6-4.6-.8l40.4-37zm-1.2 3.6l-1.5 4.6-29 30.3c-1.3-.2-2.5-.5-3.8-.7l34.3-34.2zm-1.7 5.3l-2.7 8.1L43.1 131c-2.2-.4-4.4-.8-6.5-1.2l28.3-29.7zm-2.9 9l-.7 2.1-16.6 20.2c-.4-.1-.9-.2-1.3-.2L62 109.1zm-1 2.9l-4.2 12.9-5.7 7.6c-2-.4-4-.8-5.9-1.1L61 112zm.6-.7l1.4-1.7-4 12.5-1.5 2 4.1-12.8zm-3 11.8l-3.3 10.3c-.3-.1-.6-.1-.9-.2l2.6-8.1 1.6-2zm.6-.8l1.8-2.4-4 12.5-.8 1.1c-.2 0-.4-.1-.6-.1l3.6-11.1zm-2.7 11.3l.1-.1-.1.1c.1 0 .1 0 0 0zm.8-1l1.8-2.5-1.2 3.8c-.3-.1-.6-.1-.9-.2l.3-1.1zm-2.1 9.5l-6.5 20.4c-.4.1-.8.2-1.2.2l6.7-20.8c.4.1.7.1 1 .2zm.3.1c.4.1.8.2 1.2.2l-6.1 19.8c-.5.1-1.1.1-1.6.2l6.5-20.2zm1.6.3c.3.1.6.1.9.2l-6 19.4c-.3 0-.7.1-1 .1l6.1-19.7zm1.2.2l1.5.3-5.6 18.9c-.6 0-1.2.1-1.8.1l5.9-19.3zm2.5-8.3l3.7-12.2 2.5-3.5-4.7 16-1.5-.3zm2.6.5l1.1-1.8-.5 1.9c-.2 0-.4 0-.6-.1zm1.7-2.8l2.5-4-2 7.2c-.5-.1-.9-.2-1.4-.3l.9-2.9zm-1.8 11.7l-1.4 5.2-3.7 7.4 3.7-12.9c.5.1 1 .2 1.4.3zm.3 0c.5.1.7.2.7.2l-1.7 3.4 1-3.6zm3.3-8.2l1.2-2.1-.6 2.2c-.2 0-.4 0-.6-.1zm1.8-3.1l1.4-2.5-2 4.6.6-2.1zm6.1 13.9l1.8.5-.2 1.9-2-.1.4-2.3zm2.1.5l1.7.4-.1 1.5-1.8-.1.2-1.8zm1.1 7.7l-.5 5.8c-.7.1-1.3.2-2 .3l.6-5.8c.6-.2 1.2-.3 1.9-.3zm.3-.1c.9-.1 2-.2 3.1-.2l-.5 5.7c-1 .1-2.1.2-3.1.3l.5-5.8zm3.4-.2c.9-.1 1.9-.1 3-.1l-.3 5.6c-1 .1-2.1.1-3.1.2l.4-5.7zm.4-5.3l.1-.8 2.8.8v.2l-2.9-.2zm3.2.1l.7.2h-.7v-.2zm.6-8.8l.5-8.6 3.3-10.3-.6 16-1 3.6c-.7-.2-1.5-.5-2.2-.7zm3.1-1.4l-.1 2.4c-.2-.1-.3-.1-.5-.2l.6-2.2zm.4-1.4l8.1-29.5.6 4.6-6 29.9c-.9-.3-1.9-.7-2.9-1l.2-4zm8.9-24l.2 1.3-5.3 28c-.2-.1-.5-.2-.7-.3l5.8-29zm.3 2.3l.2 1.2-4.5 26.1c-.3-.1-.5-.2-.8-.3l5.1-27zm.3 2.3l.1.7-4.3 24.6c-.1 0-.1-.1-.2-.1l4.4-25.2zm.3 1.8l.1 1.1-3.9 22.7c-.1 0-.2-.1-.3-.1l4.1-23.7zm.3 2.2l.2 1.1-3.7 20.7c-.1 0-.2-.1-.3-.1l3.8-21.7zm.3 2.1l.1 1.1-3.3 18.9c-.1 0-.2-.1-.3-.1l3.5-19.9zm.3 2.1l2.2 15.7-.4 4.5c-1.4-.7-3-1.4-5-2.2l3.2-18zm2.4 17.2l.5 3.3v.2c-.2-.1-.5-.2-.7-.4l.2-3.1zm3.5-12.6l.3 1.2-1 16.1c-.1-.1-.2-.1-.3-.2l1-17.1zm.5 2.5l.3 1.2-.8 14c-.1-.1-.2-.1-.3-.2l.8-15zm1 5l2.6 12.5h-3.3l.7-12.5zm.1-1.3l.6-10.4 5.7 24.2h-3.5l-2.8-13.8zm2.9-40.7l35 64.7-8.1.2-21.8-48.3-5.1-16.6zm-.4-1.3l.2-3L151 161l-5.2.1-35.7-66zm.5-3.2l45.3 68.9-4.6.1-40.7-69zm-.2-.9l.2-2.6 50.9 72.4-5.1.1-46-69.9zm.2-3.2l.1-2.2 55.5 75-4.3.1-51.3-72.9zm.1-2.7l.1-2.2 60.2 77.6-4.6.1-55.7-75.5zm.2-2.7l.1-2.5 65.8 80.5-5.3.1-60.6-78.1zm.2-3v-.1l71.5 81-5.3.1-66.2-81zm0-.5l.1-1.7 76.7 83-5 .1-71.8-81.4zm.1-2.2l.1-2 82.8 85.3-5.8.1-77.1-83.4zm.2-2.4l.1-1.4 89 87.1-5.9.1-83.2-85.8zm.1-1.9l.1-2 96.5 89.3-7.2.2-89.4-87.5zm.2-2.4v-.5l102.5 90.1-5.5.1-97-89.7zm0-.9l.1-.9L221 159.5l-6.3.1-103-90.5zm.1-1.3l.1-2 116 93.5-6.3.1-109.8-91.6zm.1-2.4l.1-1.4 122.2 95.2-5.8.1-116.5-93.9zm.1-1.8l.1-1.2L241 159.1l-6.3.1L112 63.6zm.1-1.6l.1-1.1 133.9 98-4.5.1-129.5-97zm.1-1.5l.1-1.8 139.2 100.1-4.8.1-134.5-98.4zm.2-2.2l.1-1.7 146 102.1-6.4.1L112.4 58.3zm.1-2.1l.1-.9.1-.5 150.4 103.7-4 .1L112.5 56.2zm.3-1.7l.1-.3 157.8 104.2-7 .1-150.9-104zm.1-.6l.2-.8 162.7 105.2-4.6.1L112.9 53.9zm-2.5-10.7l-.4 1.5-4.2 1.8-1.5-1 6.1-2.3zm-6.9 2.3l-.9.4-11.8-7.6-.1-.8 12.8 8zM84.9 40c.1.4.1.7.2 1.1l-4.3 13.3-.7.3L84.9 40zm-5.3 15.2l-1.2 3.5-127.7 56.7c-7.4-1-13.9-1.9-19.7-2.5L79.6 55.2zm-28.2 77.4l5.1-6.7-2.4 7.2c-.9-.1-1.8-.3-2.7-.5zm.4 8.8c.3.1.6.1.9.2l-7 21.6c-.4.1-.8.2-1.1.4l7.2-22.2zm1.2.3c.3.1.6.1 1 .2l-6.8 21c-.4.1-.7.2-1.1.3l6.9-21.5zm1.6 20.2l5.6-18.8c.5.1 1 .2 1.4.3L57.3 158l-2 3.9h-.7zm17.2-6.4s.4-.1 1.3-.3l-.9 6-2.2.5 1.8-6.2zm.7 5.7l.9-6c.6-.1 1.4-.2 2.3-.4l-.6 5.8c-.2 0-.4 0-.5.1l-2.1.5zm12.2-1.4l.3-5.6h3.4l-.2 5.5c-1.1 0-2.3 0-3.5.1zm3.8-.1l.2-5.5c2.8.1 6 .3 9.4.7 2.2.3 4.3.6 6.2 1l.8 5.3c-3-.7-8.7-1.6-16.6-1.5zm16.9 1.5l-.8-5.3c2.7.5 5 1.1 6.8 1.7l.8 4.1h-5c.1 0-.6-.2-1.8-.5zm10.5.5h-3.2l-.8-4c2.6.8 4.1 1.4 4.1 1.4v2.6zm14.5-.3l-14-45.9 20.7 45.8-6.7.1z"/></svg><view id="clock_icons_shanghai" viewBox="0 0 185 185"/><svg viewBox="0 0 185 185" width="185" height="185"><path fill="none" d="M93 118.5c.3.1.5.5.7.5h.3v-6h-.1c-.4 1-1.1 1-1.9.8-.4-.1-.7-.8-.9-.8H91v6h.3c.4 0 1.1-.7 1.7-.5zM93 127.5c.3.1.5-.5.7.5h.3v-7h-.1c-.4 1-1.1 1-1.9.8-.4-.1-.7.2-.9-.8H91v7h.3c.4-1 1.1-.7 1.7-.5zM93 110.5c.3.1.5-.5.7.5h.3v-7h-.1c-.4 1-1.1 1-1.9.8-.4-.1-.7.2-.9-.8H91v7h.3c.4-1 1.1-.7 1.7-.5zM91 139.1c0-.1.9-.2 1.5-.2s1.5.1 1.5.2v-.1h-3v.1zM86 167.3c.4.6.6 1.5.3 2.3-.1.3-.3.5-.5.8L88 174v-15.9h.1l-2.1 9.2zM99 167.3l-2.1-9.2h.1V174l2.1-3.7c-.1-.2-.3-.5-.4-.8-.2-.7-.1-1.6.3-2.2zM92 130.8c-.4-.1-.7-.8-.9-.8H91v6h3v-6h-.1c-.4 1-1.2 1-1.9.8zM91 89.4V93h.3c.4 0 1.1-.7 1.7-.5.3.1.5.5.7.5h.3v-3.6c0 .1-.9.2-1.5.2s-1.5-.1-1.5-.2zM92 96.8c-.4-.1-.7-.8-.9-.8H91v6h.3c.4 0 1.1-.7 1.7-.5.3.1.5.5.7.5h.3v-6h-.1c-.4 1-1.2 1-1.9.8z"/><path fill="#FFF" d="M92 36v9h1V35h-1zM92 25h1v10h-1zM92 17h1v7h-1zM103.1 168c-.2-.9-.9-1.6-1.7-1.8l-2.4-10c1.4-1.6 2.3-4.2 2.5-6.2h-.5v-1-1h.5c-.3-3-2.5-6.3-4.5-7.9v-52c2-1.5 3.2-4.1 3.2-7.1 0-4-2.6-7.4-5.9-8.3l-.2-3.7H94v-1h-3v1l-.2 3.8c-3.3.9-5.9 4.2-5.9 8.3 0 3 1.2 5.5 3.2 7.1v52c-2 1.6-4.2 4.9-4.5 7.9h.4v2h-.5c.2 2 1.1 4.6 2.5 6.2l-2.4 10c-.8.2-1.4.9-1.7 1.8-.3 1 0 2 .6 2.7l-2.1 8.5c.9.1 1.7.2 2.6.3l2-8.3s-.1 0 0-.1l3 5v3.7c1 .1 2.6.1 3.9.1l-.9-1.8v-19c0 .1.9.2 1.5.2s1.5-.1 1.5-.2v19.1l-.9 1.7c1.2 0 2.9 0 3.9-.1v-3.7l3-5v.1l2 8.3c.9-.1 1.7-.2 2.6-.3l-2.1-8.5c.6-.8.8-1.8.6-2.8zM88 174l-2.1-3.7c.1-.2.3-.5.4-.8.2-.8.1-1.7-.3-2.3l2.1-9.1H88V174zm3-70h.1c.2 1 .5.6.9.8.7.3 1.5.2 1.9-.8h.1v7h-.3c-.2-1-.4-.4-.7-.5-.6-.2-1.3-.5-1.7.5H91v-7zm0 9h.1c.2 0 .5.6.9.8.7.3 1.5.2 1.9-.8h.1v6h-.3c-.2 0-.4-.4-.7-.5-.6-.2-1.3.5-1.7.5H91v-6zm0 8h.1c.2 1 .5.6.9.8.7.3 1.5.2 1.9-.8h.1v7h-.3c-.2-1-.4-.4-.7-.5-.6-.2-1.3-.5-1.7.5H91v-7zm3 18.1c0-.1-.9-.2-1.5-.2s-1.5.1-1.5.2v-.1h3v.1zm0-3.1h-3v-6h.1c.2 0 .5.6.9.8.7.3 1.5.2 1.9-.8h.1v6zm0-34h-.3c-.2 0-.4-.4-.7-.5-.6-.2-1.3.5-1.7.5H91v-6h.1c.2 0 .5.6.9.8.7.3 1.5.2 1.9-.8h.1v6zm0-9h-.3c-.2 0-.4-.4-.7-.5-.6-.2-1.3.5-1.7.5H91v-3.6c0 .1.9.2 1.5.2s1.5-.1 1.5-.2V93zm3 81v-15.9h-.1l2.2 9.2c-.4.6-.6 1.5-.4 2.3.1.3.3.5.5.8L97 174zM91 55v1c-1 .5-1 1.4-1 2.4s0 1.8 1 2.3V68h3v-7.2c1-.5 1-1.4 1-2.3 0-1 0-1.9-1-2.4v-1h-3zM93 55V45h-1v10z"/></svg><view id="logo-b" viewBox="626.3 210.6 15.8 24.9"/><svg viewBox="0 0 15.8 24.9" width="15.8" height="24.9" x="626.3" y="210.6"><path fill="#54C3BF" d="M8.6 7.4c-2.9 0-4.6 1.1-5.5 2.7V0H0v24.5h2.9v-2.4H3c.8 1.2 2.7 2.7 5.7 2.7 5 0 7.1-4.4 7.1-9 0-4.4-2.3-8.4-7.2-8.4zm-.6 15c-3.5 0-4.9-3.4-4.9-6.2 0-3.1 1.6-6.3 4.9-6.3 3.3 0 4.6 3.2 4.6 6.2 0 2.6-1.4 6.3-4.6 6.3zm18.5-15c-5.1 0-8.5 3.7-8.5 8.7 0 4.8 3.5 8.7 8.5 8.7s8.4-4 8.4-8.7c0-5-3.4-8.7-8.4-8.7zm0 15c-3.6 0-5.2-3.3-5.2-6.2 0-3.2 1.9-6.2 5.2-6.2 3.3 0 5.2 3.1 5.2 6.2 0 2.9-1.6 6.2-5.2 6.2zm28.8-.8L51.1 7.8h-3.6l-4.2 13.8h-.1L39.3 7.8H36l5.3 16.7h3.6l4.2-14h.1l4.3 14H57l5.3-16.7h-3l-4 13.8zM71.2 7.4c-4.7 0-7.8 3.5-7.8 8.4 0 5.4 2.7 9 8.6 9 2.7 0 4.1-.7 5.2-1.1v-3.1c-.7.6-3.1 1.7-5.1 1.7-2.9 0-5.5-2.3-5.5-5.5h11.9c.1-5.3-1.7-9.4-7.3-9.4zm-4.5 7.2c.2-2.2 1.5-4.6 4.5-4.6 2.6 0 4.1 2.1 4.1 4.6h-8.6zm23.6-7.2c-2.3 0-4.5 1.1-5.4 3h-.1V7.8h-3v16.7h3.1v-7.7c0-4 1.6-6.9 5.1-6.9 2.7.2 3.5 2.1 3.5 5.9v8.6h3.1v-9.9c-.1-4.4-2-7.1-6.3-7.1z"/></svg><view id="logo-cgarry" viewBox="555 185 100.1 25.6"/><svg viewBox="0 0 100.1 25.6" width="100.1" height="25.6" x="555" y="185"><path fill="#FFF" d="M-4.3 14.9V5.3C-4.3 2.5-5.5 0-8.7 0c-2.7 0-4.4 1.5-6.4 2.9-.5-1.9-2-2.9-4-2.9-2.7 0-4.4 1.3-6.5 2.8V.5c0-.3-.1-.5-.3-.5-.2 0-.4 0-.7.2-.2.1-2.2.8-4 1.3v.6c1.4.7 1.9 1 1.9 2.6v10.1c0 1.2-.7 1.2-1.8 1.2h-.8v1c1.5 0 2.8-.1 4.1-.1 1.3 0 2.7.1 4 .1v-1h-.7c-1 0-1.9 0-1.9-1.2v-11c.9-.6 3-1.8 4.4-1.8 2.8 0 3.3 2.2 3.3 4.6v8.3c0 1.2-.7 1.2-1.8 1.2h-.7v1c1.3 0 2.7-.1 4-.1 1.3 0 2.7.1 4 .1v-1h-.4c-1 0-1.9 0-1.9-1.2V3.8C-14 3.2-12 2-10.5 2c2.8 0 3.3 2.2 3.3 4.6v8.3c0 1.2-.7 1.2-1.8 1.2h-.7v1c1.3 0 2.7-.1 4-.1 1.3 0 2.7.1 3.8.1v-1h-.6c-.9 0-1.8 0-1.8-1.2zm13.8 0c-4 0-6.5-3.4-6.5-7.3 0-2.8 1.7-6.4 4.9-6.4 3.5 0 3.4 3 5 3 .9 0 1.4-.8 1.4-1.6 0-2-3.1-2.6-5-2.6C3.9 0 0 4.5 0 9.9c0 4 3.5 7.7 7.4 7.7 3 0 5.5-1.8 7.3-3.9l-.6-.6c-1.4 1.1-2.7 1.8-4.6 1.8zm18.8-.2h-5.2c-2.5 0-2.6-1.2-2.6-1.7 0-.9.4-1.4 1.1-1.9.7.2 1.5.2 2.1.2 4.6 0 6.9-3 6.9-5.8 0-1-.3-2.1-1-2.8l3.7.2V1c-1 .1-1.5.2-2.2.2-1.5 0-2.6-.3-3.6-.6-.8-.3-2.1-.6-3.2-.6-4.6 0-7 2.5-7 5.8 0 2.5 1.4 3.9 3.5 5-.5.5-2.1 1.2-3.1 1.9-.1.4-.1.8-.1 1.2 0 1.7 1.7 2.8 3.3 3.3v.1c-2.3.5-4.4 1.9-4.4 4.3 0 2 2.3 4.2 7.1 4.2 8 0 9.9-5.7 9.9-7.2 0-3-1.9-3.9-5.2-3.9zm-7.8-9.5c0-2 1-4.3 3.3-4.3 2.6 0 3.8 2.6 3.8 4.9 0 2.3-1.1 4.4-3.6 4.4-2.5.1-3.5-2.8-3.5-5zm3.7 19.2c-2.6 0-4.9-1.2-4.9-3.8 0-3.5 3.8-3.5 6.2-3.5 2 0 5.3.3 5.3 3-.1 3.4-4.4 4.3-6.6 4.3zM50 15.6c-.8 0-1.3-.6-1.3-2.1V3.1C48.7 1 45.8 0 44.1 0c-1.4 0-2.1.5-3.4 1.2-2.6 1.3-4.3 2.3-4.3 4.3 0 .3.1.7.7.7.9 0 2.1-.5 2.1-1.6C39.3 3 40.4 2 42 2c2.4 0 3.6 1.1 3.6 3.2v2.5c-8 2.8-9.6 3.3-9.7 6.3 0 2 1.6 3.6 4 3.6 2.3 0 4-1.2 5.8-2.8.1 1.3.8 2.8 2.3 2.8 1.5 0 2.7-1 3.7-2l-.3-.6c-.4.4-.9.6-1.4.6zm-4.4-1.9c-1.2 1.1-2.4 2.2-4.1 2.2-1.5 0-2.7-1.2-2.7-2.7 0-2.8 4.9-3.7 6.8-4.4v4.9zM64.5 0c-2.3 0-3.8 2.4-4.8 3.9h-.1V.5c0-.4-.1-.5-.3-.5-.3 0-1.8 1-4.6 2.1v.6c.6.3 1.9.5 1.9 1.7v10.5c0 1.2-.7 1.2-1.8 1.2h-1v1c1.3 0 2.9-.1 4.4-.1 1.6 0 3.2 0 5.2.1v-1h-2.1c-1 0-1.8 0-1.8-1.2V6.1c0-2.2 2.1-3.1 2.7-3.1 1.3 0 1.3.9 2.5.9 1 0 1.8-.9 1.8-1.9.1-1.4-1.1-2-2-2zM79 0c-2.3 0-3.8 2.4-4.8 3.9h-.1V.5c0-.4-.1-.5-.3-.5-.3 0-1.8 1-4.6 2.1v.6c.6.3 1.9.5 1.9 1.7v10.5c0 1.2-.7 1.2-1.8 1.2h-1v1c1.3 0 2.9-.1 4.4-.1 1.6 0 3.2 0 5.2.1v-1H76c-1 0-1.8 0-1.8-1.2V6.1c0-2.2 2.1-3.1 2.7-3.1 1.3 0 1.3.9 2.5.9 1 0 1.8-.9 1.8-1.9C81.2.6 80 0 79 0zm18.3.6c-1.2 0-2.4 0-3.5-.1v1c.9 0 2.1 0 2.1 1.6 0 1-2.9 7.3-3.7 9.5h-.1c-.4-1.5-3.8-9-3.8-10.1 0-1 1.3-.9 2.1-1v-1c-1.1 0-2.2.1-3.4.1-1.5 0-2.9 0-4.3-.1v1c1.2-.1 1.8.5 2.4 1.4.4.9 5.4 13.5 5.4 13.6 0 0-.8 2.1-2.6 6-.6-.5-1-.5-1.6-.5-1 0-1.8 1-1.8 1.9 0 1 .7 1.8 1.8 1.8s1.8-.6 2.4-1.9L97.1 4c.7-1.4 1.2-2.4 3-2.4v-1h-2.8z"/></svg><view id="logo-m" viewBox="597 210.6 29.3 25.6"/><svg viewBox="0 0 29.3 25.6" width="29.3" height="25.6" x="597" y="210.6"><path fill="#FFF" d="M26.9 14.9V5.3c0-2.7-1.2-5.3-4.4-5.3C19.7 0 18 1.5 16 2.9 15.5.9 14 0 12 0 9.3 0 7.6 1.3 5.6 2.8V.5c0-.3-.1-.5-.3-.5-.2 0-.4 0-.7.2-.2.1-2.2.8-4 1.3v.6c1.4.7 1.9 1 1.9 2.6v10.1C2.5 16 1.8 16 .7 16H0v1c1.5 0 2.8-.1 4.1-.1 1.3 0 2.7.1 4 .1v-1h-.7c-1 0-1.9 0-1.9-1.2v-11C6.4 3.2 8.5 2 10 2c2.8 0 3.3 2.2 3.3 4.6v8.3c0 1.2-.7 1.2-1.8 1.2h-.7v1c1.3 0 2.7-.1 4-.1 1.3 0 2.7.1 4 .1v-1h-.7c-1 0-1.9 0-1.9-1.2V3.8c.9-.6 3-1.8 4.4-1.8 2.8 0 3.3 2.2 3.3 4.6v8.3c0 1.2-.7 1.2-1.8 1.2h-.7v1c1.3 0 2.7-.1 4-.1 1.3 0 2.7.1 3.8.1v-1h-.6c-.9 0-1.7 0-1.7-1.2zm13.7 0c-4.1 0-6.5-3.4-6.5-7.3 0-2.8 1.7-6.4 4.9-6.4 3.5 0 3.4 3 5 3 .9 0 1.4-.8 1.4-1.6 0-2-3.1-2.6-5-2.6-5.4 0-9.3 4.5-9.3 9.9 0 4 3.5 7.7 7.4 7.7 3 0 5.5-1.8 7.3-3.9l-.6-.6c-1.4 1.1-2.7 1.8-4.6 1.8zm18.9-.2h-5.2c-2.5 0-2.6-1.2-2.6-1.7 0-.9.4-1.4 1.1-1.9.7.2 1.5.2 2.1.2 4.6 0 6.9-3 6.9-5.8 0-1-.3-2.1-1-2.8l3.7.2V1c-1 .1-1.5.2-2.2.2-1.5 0-2.6-.3-3.6-.6-.9-.3-2.1-.6-3.3-.6-4.6 0-7 2.5-7 5.8 0 2.5 1.4 3.9 3.5 5-.5.5-2.1 1.2-3.1 1.9-.1.4-.1.8-.1 1.2 0 1.7 1.7 2.8 3.3 3.3v.1c-2.3.5-4.4 1.9-4.4 4.3 0 2 2.3 4.2 7.1 4.2 8 0 9.9-5.7 9.9-7.2 0-3-1.9-3.9-5.1-3.9zm-7.8-9.5c0-2 1-4.3 3.3-4.3 2.6 0 3.8 2.6 3.8 4.9 0 2.3-1.1 4.4-3.6 4.4-2.6.1-3.5-2.8-3.5-5zm3.6 19.2c-2.6 0-4.9-1.2-4.9-3.8 0-3.5 3.8-3.5 6.2-3.5 2 0 5.3.3 5.3 3-.1 3.4-4.3 4.3-6.6 4.3zm25.8-8.8c-.8 0-1.3-.6-1.3-2.1V3.1C79.8 1 76.9 0 75.2 0c-1.4 0-2.1.5-3.4 1.2-2.6 1.3-4.3 2.3-4.3 4.3 0 .3.1.7.7.7.9 0 2.1-.5 2.1-1.6C70.4 3 71.5 2 73.1 2c2.4 0 3.6 1.1 3.6 3.2v2.5c-8 2.8-9.5 3.3-9.7 6.3 0 2 1.6 3.6 4 3.6 2.3 0 4-1.2 5.8-2.8.1 1.3.8 2.8 2.3 2.8 1.5 0 2.7-1 3.7-2l-.3-.6c-.4.4-.9.6-1.4.6zm-4.3-1.9c-1.2 1.1-2.4 2.2-4.1 2.2-1.5 0-2.7-1.2-2.7-2.7 0-2.8 4.9-3.7 6.8-4.4v4.9zM95.6 0c-2.3 0-3.8 2.4-4.8 3.9h-.1V.5c0-.4-.1-.5-.3-.5-.3 0-1.8 1-4.6 2.1v.6c.6.3 1.9.5 1.9 1.7v10.5c0 1.2-.7 1.2-1.8 1.2h-1v1c1.3 0 2.9-.1 4.4-.1 1.6 0 3.2 0 5.2.1v-1h-2.1c-1 0-1.8 0-1.8-1.2V6.1c0-2.2 2.1-3.1 2.7-3.1 1.3 0 1.3.9 2.5.9 1 0 1.8-.9 1.8-1.9.2-1.4-1-2-2-2zm14.6 0c-2.3 0-3.8 2.4-4.8 3.9h-.1V.5c0-.4-.1-.5-.3-.5-.3 0-1.8 1-4.6 2.1v.6c.6.3 1.9.5 1.9 1.7v10.5c0 1.2-.7 1.2-1.8 1.2h-1v1c1.3 0 2.9-.1 4.4-.1 1.6 0 3.2 0 5.2.1v-1H107c-1 0-1.8 0-1.8-1.2V6.1c0-2.2 2.1-3.1 2.7-3.1 1.3 0 1.3.9 2.5.9 1 0 1.8-.9 1.8-1.9.1-1.4-1.1-2-2-2zm18.2.6c-1.2 0-2.4 0-3.5-.1v1c.9 0 2.1 0 2.1 1.6 0 1-2.9 7.3-3.7 9.5h-.1c-.4-1.5-3.8-9-3.8-10.1 0-1 1.3-.9 2.1-1v-1c-1.1 0-2.2.1-3.4.1-1.5 0-2.9 0-4.3-.1v1c1.2-.1 1.8.5 2.4 1.4.4.9 5.4 13.5 5.4 13.6 0 0-.8 2.1-2.6 6-.5-.5-.9-.6-1.5-.6-1 0-1.8 1-1.8 1.9 0 1 .7 1.8 1.8 1.8s1.8-.6 2.4-1.9l8.4-19.8c.7-1.4 1.2-2.4 3-2.4v-1c-1 .1-1.9.1-2.9.1z"/></svg><view id="logo-owen" viewBox="655.1 185 78.6 24.9"/><svg viewBox="0 0 78.6 24.9" width="78.6" height="24.9" x="655.1" y="185"><path fill="#54C3BF" d="M-9.4 7.4c-2.9 0-4.6 1.1-5.5 2.7h-.1V0h-3v24.5h2.9v-2.4h.1c.8 1.2 2.7 2.7 5.7 2.7 5 0 7.1-4.4 7.1-9 0-4.4-2.3-8.4-7.2-8.4zm-.6 15c-3.5 0-4.9-3.4-4.9-6.2 0-3.1 1.6-6.3 4.9-6.3 3.3 0 4.6 3.2 4.6 6.2 0 2.6-1.3 6.3-4.6 6.3zm18.5-15C3.4 7.4 0 11.1 0 16.2c0 4.8 3.5 8.7 8.5 8.7s8.4-4 8.4-8.7c0-5.1-3.4-8.8-8.4-8.8zm0 15c-3.6 0-5.2-3.3-5.2-6.2C3.3 13 5.2 10 8.5 10c3.3 0 5.2 3.1 5.2 6.2 0 2.9-1.6 6.2-5.2 6.2zm28.8-.8L33.1 7.8h-3.6l-4.2 13.8h-.1L21.4 7.8H18l5.3 16.7h3.6l4.2-14h.1l4.3 14H39l5.3-16.7h-3l-4 13.8zM53.2 7.4c-4.7 0-7.8 3.5-7.8 8.4 0 5.4 2.7 9 8.6 9 2.7 0 4.1-.7 5.2-1.1v-3.1c-.7.6-3.1 1.7-5.1 1.7-2.9 0-5.5-2.3-5.5-5.5h11.9c.1-5.3-1.7-9.4-7.3-9.4zm-4.5 7.2c.2-2.2 1.5-4.6 4.5-4.6 2.6 0 4.1 2.1 4.1 4.6h-8.6zm23.6-7.2c-2.3 0-4.5 1.1-5.4 3h-.1V7.8h-3v16.7h3.1v-7.7c0-4 1.6-6.9 5.1-6.9 2.7.2 3.5 2.1 3.5 5.9v8.6h3.1v-9.9c0-4.4-2-7.1-6.3-7.1z"/></svg><view id="marquee_down_arrow" viewBox="642.0999999999999 210.6 19 10"/><svg viewBox="0 0 19 10" width="19" height="10" x="642.0999999999999" y="210.6"><path fill="#FFF" d="M18.3 1.2c.1-.1.2-.2.2-.4 0-.1-.1-.3-.2-.4-.2-.2-.6-.2-.8 0l-8.1 8-8.1-8C1.1.2.7.2.5.4c-.1.2-.1.6.2.8l8.4 8.4c.2.2.6.2.8 0l8.4-8.4z"/></svg><view id="menu_dropdown_arrow" viewBox="661.0999999999999 210.6 7 4"/><svg viewBox="0 0 7 4" width="7" height="4" x="661.0999999999999" y="210.6"><path fill="#FFF" d="M6.7.6l.1-.1c0-.1 0-.1-.1-.1-.1-.1-.2-.1-.3 0L3.5 3.3.6.3C.5.2.4.2.3.3.2.4.2.5.3.6l3.1 3.1c.1.1.2.1.3 0l3-3.1z"/></svg><view id="more_button" viewBox="555 252.6 18 18"/><svg viewBox="0 0 18 18" width="18" height="18" x="555" y="252.6"><path fill-rule="evenodd" clip-rule="evenodd" fill="#54C3BF" d="M9 17.8C4.2 17.8.2 13.9.2 9 .2 4.2 4.1.2 9 .2c4.8 0 8.7 3.9 8.7 8.8.1 4.8-3.9 8.8-8.7 8.8zM9 1.5C4.9 1.5 1.5 4.9 1.5 9s3.4 7.5 7.5 7.5 7.5-3.4 7.5-7.5S13.2 1.5 9 1.5zm4 8H9.6v3.4c0 .3-.3.6-.6.6s-.6-.3-.6-.6V9.5H5c-.3 0-.6-.3-.6-.6s.3-.6.6-.6h3.4V4.9c0-.3.3-.6.6-.6s.6.3.6.6v3.4H13c.3 0 .6.3.6.6.1.4-.2.6-.6.6z"/></svg><view id="playbutton" viewBox="555 210.6 42 42"/><svg viewBox="0 0 42 42" width="42" height="42" x="555" y="210.6"><path fill-rule="evenodd" clip-rule="evenodd" fill="#54C3BF" d="M21 41.2C9.8 41.2.8 32.2.8 21S9.8.8 21 .8s20.2 9 20.2 20.2-9 20.2-20.2 20.2zm0-38.5C10.9 2.7 2.7 10.9 2.7 21S10.9 39.3 21 39.3 39.3 31.1 39.3 21 31.1 2.7 21 2.7zm10.3 19.2l-14.7 8.5c-.2.1-.3.1-.5.1s-.3 0-.5-.1c-.3-.2-.5-.5-.5-.9v-17c0-.4.2-.7.5-.9.3-.2.7-.2 1 0l14.7 8.5c.3.2.5.5.5.9s-.2.7-.5.9zm-14.2-7.7v13.6L28.9 21l-11.8-6.8z"/></svg></svg>