<?xml version="1.0" encoding="utf-8"?><!DOCTYPE svg PUBLIC "-//W3C//DTD SVG 1.1//EN" "http://www.w3.org/Graphics/SVG/1.1/DTD/svg11.dtd"><svg width="2376" height="1404" viewBox="0 0 2376 1404" xmlns="http://www.w3.org/2000/svg" xmlns:xlink="http://www.w3.org/1999/xlink"><view id="facebook" viewBox="2290 612 6.7 13.5"/><svg viewBox="0 0 6.7 13.5" width="6.7" height="13.5" x="2290" y="612" xmlns="http://www.w3.org/2000/svg"><path fill="#54C3BF" d="M1.7 4.5H0v2.2h1.7v6.8h2.8V6.7h2l.2-2.2H4.4v-.9c0-.5.1-.8.6-.8h1.6V0H4.5c-2 0-2.9.9-2.9 2.6v1.9z"/></svg><view id="instagram" viewBox="0 0 792 612"/><svg width="792" height="612" viewBox="0 0 792 612" xmlns="http://www.w3.org/2000/svg"><path d="M702 430.667c0 31.733-4.533 54.399-13.6 72.533-9.067 18.133-18.134 36.267-36.268 54.399-18.133 18.134-36.267 27.2-54.399 36.267-18.134 9.067-40.8 13.601-72.533 13.601H271.333c-31.733 0-54.4-4.533-72.534-13.601-18.133-9.066-36.267-18.133-54.4-36.267-18.133-18.133-27.2-36.267-36.267-54.399-9.066-18.134-13.6-36.267-18.133-72.533V303.733v-122.4c0-31.733 4.533-54.4 13.6-72.534 9.066-18.133 18.133-36.267 36.267-54.4s36.267-27.2 54.4-36.267c22.667-9.067 40.8-13.6 77.067-18.133H525.2c31.734 0 54.399 4.533 72.533 13.6 18.134 9.066 36.267 18.133 54.4 36.267 18.133 18.133 27.199 36.267 36.267 54.4 9.066 18.133 13.6 40.8 13.6 72.533v253.868zm-58.934-249.334c0-31.733-4.533-45.333-9.066-58.934s-13.6-22.667-22.667-36.267c-9.066-9.067-22.666-18.133-36.267-22.667-9.066-4.533-27.2-9.067-58.934-9.067H271.333C239.6 54.4 226 58.934 212.4 63.467c-9.066 9.066-22.667 18.133-31.733 27.2-9.066 9.067-18.133 22.667-22.667 36.267-4.533 9.067-9.067 27.2-9.067 54.4v244.799c0 31.733 4.534 45.334 9.067 58.934 4.533 13.601 13.6 27.2 22.667 36.267 9.067 9.067 22.667 18.134 36.267 22.667 9.067 4.533 27.2 9.066 54.4 9.066h244.799c31.733 0 45.334-4.533 58.934-9.066 13.601-4.533 22.667-13.6 36.267-22.667 9.067-9.066 18.134-22.666 22.667-36.267 4.533-9.066 9.066-27.2 9.066-58.934V303.734c-.001-81.601 4.533-90.668-.001-122.401zm-81.599 0c-22.667 0-40.8-18.133-40.8-40.8 0-18.133 18.133-36.267 36.267-36.267 18.133 0 36.267 18.133 36.267 36.267 4.532 22.667-13.601 40.8-31.734 40.8zM398.267 462.4c-86.133 0-158.667-72.534-158.667-158.667s72.533-158.667 158.667-158.667S556.934 217.6 556.934 303.733 484.4 462.4 398.267 462.4zm0-258.4c-54.4 0-99.733 45.333-99.733 99.733 0 54.399 40.8 104.267 99.733 104.267C457.2 408 498 362.667 498 308.267 498 253.867 452.667 204 398.267 204z"/></svg><view id="linkedin" viewBox="792 0 792 612"/><svg width="792" height="612" viewBox="0 0 792 612" x="792" xmlns="http://www.w3.org/2000/svg"><path d="M213.653 67.317c0 37.889-28.418 66.307-66.31 66.307-37.889 0-66.312-28.418-66.312-66.307 0-37.892 28.418-66.31 66.307-66.31 33.16.001 66.315 28.419 66.315 66.31zm0 118.41H81.03V612h132.623V185.727zm208.394 0H289.433V612h132.614V389.393c0-123.149 156.304-132.623 156.304 0V612H710.97V342.024c0-208.394-232.081-203.663-288.923-99.459v-56.838z"/></svg><view id="marquee_double_arrow" viewBox="1872 612 200 200"/><svg width="200" height="200" viewBox="0 0 200 200" x="1872" y="612" xmlns="http://www.w3.org/2000/svg"><path d="M192.631 60c1.053-1.053 2.105-2.105 2.105-4.21 0-1.053-1.053-3.158-2.105-4.21-2.104-2.105-6.314-2.105-8.42 0l-85.264 84.21-85.263-84.21c-2.105-2.105-6.316-2.105-8.421 0C4.21 53.684 4.21 57.895 7.369 60l88.421 88.421c2.105 2.104 6.315 2.104 8.421 0L192.631 60z"/><path d="M192.631 93c1.053-1.053 2.105-2.105 2.105-4.21 0-1.053-1.053-3.158-2.105-4.21-2.104-2.105-6.314-2.105-8.42 0l-85.264 84.21-85.263-84.21c-2.105-2.105-6.316-2.105-8.421 0C4.21 86.684 4.21 90.895 7.369 93l88.421 88.421c2.105 2.104 6.315 2.104 8.421 0L192.631 93z"/></svg><view id="marquee_down_arrow" viewBox="2072 612 200 200"/><svg width="200" height="200" viewBox="0 0 200 200" x="2072" y="612" xmlns="http://www.w3.org/2000/svg"><path d="M192.631 60c1.053-1.053 2.105-2.105 2.105-4.21 0-1.053-1.053-3.158-2.105-4.21-2.104-2.105-6.314-2.105-8.42 0l-85.264 84.21-85.263-84.21c-2.105-2.105-6.316-2.105-8.421 0C4.21 53.684 4.21 57.895 7.369 60l88.421 88.421c2.105 2.105 6.316 2.105 8.421 0L192.631 60z"/></svg><view id="menu_double_arrow" viewBox="0 612 612 792"/><svg width="612" height="792" viewBox="0 0 612 792" y="612" xmlns="http://www.w3.org/2000/svg"><path d="M600.649 238.663C590.5 227.5 575.5 224.5 566.245 229.439L306.676 500.366h-.18L44.927 229.439c-7.427-4.939-23.382.387-32.405 9.224s-8.31 29.319-2 35.629l281.182 284.182c4.219 4.221 10.439 6.49 14.659 6.812h.446c4.219-.321 10.439-2.592 14.657-6.812L602.65 272.292c5.973-5.974 8.149-22.466-2.001-33.629z"/><path d="M600.649 461.663C590.5 450.5 575.5 447.5 566.245 452.439L306.676 723.366h-.18L44.927 452.439c-7.427-4.939-23.382.387-32.405 9.224s-8.31 29.319-2 35.629l281.182 284.182c4.219 4.221 10.439 6.49 14.659 6.812h.446c4.219-.321 10.439-2.592 14.657-6.812L602.65 495.292c5.973-5.974 8.149-22.466-2.001-33.629z"/></svg><view id="menu_dropdown_arrow" viewBox="612 612 612 792"/><svg width="612" height="792" viewBox="0 0 612 792" x="612" y="612" xmlns="http://www.w3.org/2000/svg"><path d="M600.649 238.663C590.5 227.5 575.5 224.5 566.245 229.439L306.676 500.366h-.18L44.927 229.439c-7.427-4.939-23.382.387-32.405 9.224s-8.31 29.319-2 35.629l281.182 284.182c4.219 4.22 10.439 6.49 14.659 6.812h.445c4.22-.321 10.44-2.592 14.658-6.812l281.183-286.182c5.974-5.974 8.15-22.466-2-33.629z"/></svg><view id="more_button" viewBox="2272 612 18 18"/><svg viewBox="0 0 18 18" width="18" height="18" x="2272" y="612" xmlns="http://www.w3.org/2000/svg"><path fill-rule="evenodd" clip-rule="evenodd" d="M9 17.8C4.2 17.8.2 13.9.2 9 .2 4.2 4.1.2 9 .2c4.8 0 8.7 3.9 8.7 8.8.1 4.8-3.9 8.8-8.7 8.8zM9 1.5C4.9 1.5 1.5 4.9 1.5 9s3.4 7.5 7.5 7.5 7.5-3.4 7.5-7.5S13.2 1.5 9 1.5zm4 8H9.6v3.4c0 .3-.3.6-.6.6s-.6-.3-.6-.6V9.5H5c-.3 0-.6-.3-.6-.6s.3-.6.6-.6h3.4V4.9c0-.3.3-.6.6-.6s.6.3.6.6v3.4H13c.3 0 .6.3.6.6.1.4-.2.6-.6.6z"/></svg><view id="playbutton" viewBox="1584 612 288 288"/><svg width="288" height="288" viewBox="144 0 288 288" x="1584" y="612" xmlns="http://www.w3.org/2000/svg"><path d="M288 282.514c-76.8 0-138.514-61.714-138.514-138.514S211.2 5.486 288 5.486 426.515 67.2 426.515 144 364.8 282.514 288 282.514zm0-264c-69.257 0-125.486 56.229-125.486 125.486 0 69.258 56.229 125.486 125.486 125.486 69.258 0 125.485-56.229 125.485-125.486S357.258 18.514 288 18.514zm70.629 131.658l-100.8 58.285c-1.372.686-2.057.686-3.429.686s-2.057 0-3.429-.686c-2.057-1.371-3.428-3.429-3.428-6.172V85.714c0-2.743 1.371-4.8 3.428-6.171a6.226 6.226 0 016.857 0l100.8 58.286c2.057 1.372 3.428 3.429 3.428 6.171.001 2.742-1.37 4.8-3.427 6.172zm-97.372-52.8v93.257L342.172 144l-80.915-46.628z"/></svg><view id="twitter" viewBox="1584 0 792 612"/><svg width="792" height="612" viewBox="0 0 792 612" x="1584" xmlns="http://www.w3.org/2000/svg"><path d="M765.981 72.327c-27.817 11.127-55.636 22.255-89.018 22.255 33.382-16.691 55.636-50.073 66.764-83.455-27.818 16.691-61.2 27.818-94.582 38.945C621.327 16.691 582.382 0 537.873 0c-94.582 0-166.909 94.582-144.655 189.164C265.254 183.6 153.982 122.4 76.091 27.818 37.146 100.146 59.4 189.164 126.164 233.673c-22.254 0-50.073-5.564-66.764-16.691 0 72.327 50.073 139.09 122.4 155.782-22.254 5.563-44.509 5.563-66.764 0 11.127 61.2 66.764 105.709 133.527 105.709-61.2 50.073-144.654 72.327-222.545 61.2C92.782 584.182 170.673 612 259.691 612c283.746 0 439.527-239.236 433.963-456.218 27.819-27.818 50.074-50.073 72.327-83.455z"/></svg></svg>