<svg xmlns="http://www.w3.org/2000/svg" xmlns:xlink="http://www.w3.org/1999/xlink"><symbol viewBox="0 0 100 100" id="chicago"><path fill="#959595" d="M57.1 49V30.4h-3.7V16.1h-.6V12h-.2v3h-1.1v-4.2h-.2l-.1-8.6h-.3l-.1 8.6h-.2v4.6h-.2v-3.2h-.2v3.2h-4.9v-4.7H45L44.9 2h-.3l-.1 8.6h-.2v5.5h-.6v-4.5h-.2v4.5h-.2v-1H43v1h-.2v14.3h-.6V49H40v42.5h.2V98h19.7v-6.5h.1V49h-2.9zm-5.6-33.8h1.1v.9h-1.1v-.9z"/></symbol><symbol viewBox="0 0 16 16" id="heart"><path d="M11.8 1C10.118 1 8.67 2.368 8 3.797 7.33 2.367 5.884 1 4.2 1A4.202 4.202 0 0 0 0 5.2c0 4.716 4.76 5.953 8 10.616 3.066-4.634 8-6.05 8-10.616A4.2 4.2 0 0 0 11.8 1z"/></symbol><symbol viewBox="0 0 15.8 24.9" id="logo-b"><path fill="#54C3BF" d="M8.6 7.4c-2.9 0-4.6 1.1-5.5 2.7V0H0v24.5h2.9v-2.4H3c.8 1.2 2.7 2.7 5.7 2.7 5 0 7.1-4.4 7.1-9 0-4.4-2.3-8.4-7.2-8.4zm-.6 15c-3.5 0-4.9-3.4-4.9-6.2 0-3.1 1.6-6.3 4.9-6.3 3.3 0 4.6 3.2 4.6 6.2 0 2.6-1.4 6.3-4.6 6.3zm18.5-15c-5.1 0-8.5 3.7-8.5 8.7 0 4.8 3.5 8.7 8.5 8.7s8.4-4 8.4-8.7c0-5-3.4-8.7-8.4-8.7zm0 15c-3.6 0-5.2-3.3-5.2-6.2 0-3.2 1.9-6.2 5.2-6.2 3.3 0 5.2 3.1 5.2 6.2 0 2.9-1.6 6.2-5.2 6.2zm28.8-.8L51.1 7.8h-3.6l-4.2 13.8h-.1L39.3 7.8H36l5.3 16.7h3.6l4.2-14h.1l4.3 14H57l5.3-16.7h-3l-4 13.8zM71.2 7.4c-4.7 0-7.8 3.5-7.8 8.4 0 5.4 2.7 9 8.6 9 2.7 0 4.1-.7 5.2-1.1v-3.1c-.7.6-3.1 1.7-5.1 1.7-2.9 0-5.5-2.3-5.5-5.5h11.9c.1-5.3-1.7-9.4-7.3-9.4zm-4.5 7.2c.2-2.2 1.5-4.6 4.5-4.6 2.6 0 4.1 2.1 4.1 4.6h-8.6zm23.6-7.2c-2.3 0-4.5 1.1-5.4 3h-.1V7.8h-3v16.7h3.1v-7.7c0-4 1.6-6.9 5.1-6.9 2.7.2 3.5 2.1 3.5 5.9v8.6h3.1v-9.9c-.1-4.4-2-7.1-6.3-7.1z"/></symbol><symbol viewBox="0 0 100.1 25.6" id="logo-cgarry"><path fill="#FFF" d="M-4.3 14.9V5.3C-4.3 2.5-5.5 0-8.7 0c-2.7 0-4.4 1.5-6.4 2.9-.5-1.9-2-2.9-4-2.9-2.7 0-4.4 1.3-6.5 2.8V.5c0-.3-.1-.5-.3-.5-.2 0-.4 0-.7.2-.2.1-2.2.8-4 1.3v.6c1.4.7 1.9 1 1.9 2.6v10.1c0 1.2-.7 1.2-1.8 1.2h-.8v1c1.5 0 2.8-.1 4.1-.1 1.3 0 2.7.1 4 .1v-1h-.7c-1 0-1.9 0-1.9-1.2v-11c.9-.6 3-1.8 4.4-1.8 2.8 0 3.3 2.2 3.3 4.6v8.3c0 1.2-.7 1.2-1.8 1.2h-.7v1c1.3 0 2.7-.1 4-.1 1.3 0 2.7.1 4 .1v-1h-.4c-1 0-1.9 0-1.9-1.2V3.8C-14 3.2-12 2-10.5 2c2.8 0 3.3 2.2 3.3 4.6v8.3c0 1.2-.7 1.2-1.8 1.2h-.7v1c1.3 0 2.7-.1 4-.1 1.3 0 2.7.1 3.8.1v-1h-.6c-.9 0-1.8 0-1.8-1.2zm13.8 0c-4 0-6.5-3.4-6.5-7.3 0-2.8 1.7-6.4 4.9-6.4 3.5 0 3.4 3 5 3 .9 0 1.4-.8 1.4-1.6 0-2-3.1-2.6-5-2.6C3.9 0 0 4.5 0 9.9c0 4 3.5 7.7 7.4 7.7 3 0 5.5-1.8 7.3-3.9l-.6-.6c-1.4 1.1-2.7 1.8-4.6 1.8zm18.8-.2h-5.2c-2.5 0-2.6-1.2-2.6-1.7 0-.9.4-1.4 1.1-1.9.7.2 1.5.2 2.1.2 4.6 0 6.9-3 6.9-5.8 0-1-.3-2.1-1-2.8l3.7.2V1c-1 .1-1.5.2-2.2.2-1.5 0-2.6-.3-3.6-.6-.8-.3-2.1-.6-3.2-.6-4.6 0-7 2.5-7 5.8 0 2.5 1.4 3.9 3.5 5-.5.5-2.1 1.2-3.1 1.9-.1.4-.1.8-.1 1.2 0 1.7 1.7 2.8 3.3 3.3v.1c-2.3.5-4.4 1.9-4.4 4.3 0 2 2.3 4.2 7.1 4.2 8 0 9.9-5.7 9.9-7.2 0-3-1.9-3.9-5.2-3.9zm-7.8-9.5c0-2 1-4.3 3.3-4.3 2.6 0 3.8 2.6 3.8 4.9 0 2.3-1.1 4.4-3.6 4.4-2.5.1-3.5-2.8-3.5-5zm3.7 19.2c-2.6 0-4.9-1.2-4.9-3.8 0-3.5 3.8-3.5 6.2-3.5 2 0 5.3.3 5.3 3-.1 3.4-4.4 4.3-6.6 4.3zM50 15.6c-.8 0-1.3-.6-1.3-2.1V3.1C48.7 1 45.8 0 44.1 0c-1.4 0-2.1.5-3.4 1.2-2.6 1.3-4.3 2.3-4.3 4.3 0 .3.1.7.7.7.9 0 2.1-.5 2.1-1.6C39.3 3 40.4 2 42 2c2.4 0 3.6 1.1 3.6 3.2v2.5c-8 2.8-9.6 3.3-9.7 6.3 0 2 1.6 3.6 4 3.6 2.3 0 4-1.2 5.8-2.8.1 1.3.8 2.8 2.3 2.8 1.5 0 2.7-1 3.7-2l-.3-.6c-.4.4-.9.6-1.4.6zm-4.4-1.9c-1.2 1.1-2.4 2.2-4.1 2.2-1.5 0-2.7-1.2-2.7-2.7 0-2.8 4.9-3.7 6.8-4.4v4.9zM64.5 0c-2.3 0-3.8 2.4-4.8 3.9h-.1V.5c0-.4-.1-.5-.3-.5-.3 0-1.8 1-4.6 2.1v.6c.6.3 1.9.5 1.9 1.7v10.5c0 1.2-.7 1.2-1.8 1.2h-1v1c1.3 0 2.9-.1 4.4-.1 1.6 0 3.2 0 5.2.1v-1h-2.1c-1 0-1.8 0-1.8-1.2V6.1c0-2.2 2.1-3.1 2.7-3.1 1.3 0 1.3.9 2.5.9 1 0 1.8-.9 1.8-1.9.1-1.4-1.1-2-2-2zM79 0c-2.3 0-3.8 2.4-4.8 3.9h-.1V.5c0-.4-.1-.5-.3-.5-.3 0-1.8 1-4.6 2.1v.6c.6.3 1.9.5 1.9 1.7v10.5c0 1.2-.7 1.2-1.8 1.2h-1v1c1.3 0 2.9-.1 4.4-.1 1.6 0 3.2 0 5.2.1v-1H76c-1 0-1.8 0-1.8-1.2V6.1c0-2.2 2.1-3.1 2.7-3.1 1.3 0 1.3.9 2.5.9 1 0 1.8-.9 1.8-1.9C81.2.6 80 0 79 0zm18.3.6c-1.2 0-2.4 0-3.5-.1v1c.9 0 2.1 0 2.1 1.6 0 1-2.9 7.3-3.7 9.5h-.1c-.4-1.5-3.8-9-3.8-10.1 0-1 1.3-.9 2.1-1v-1c-1.1 0-2.2.1-3.4.1-1.5 0-2.9 0-4.3-.1v1c1.2-.1 1.8.5 2.4 1.4.4.9 5.4 13.5 5.4 13.6 0 0-.8 2.1-2.6 6-.6-.5-1-.5-1.6-.5-1 0-1.8 1-1.8 1.9 0 1 .7 1.8 1.8 1.8s1.8-.6 2.4-1.9L97.1 4c.7-1.4 1.2-2.4 3-2.4v-1h-2.8z"/></symbol><symbol viewBox="0 0 29.3 25.6" id="logo-m"><path fill="#FFF" d="M26.9 14.9V5.3c0-2.7-1.2-5.3-4.4-5.3C19.7 0 18 1.5 16 2.9 15.5.9 14 0 12 0 9.3 0 7.6 1.3 5.6 2.8V.5c0-.3-.1-.5-.3-.5-.2 0-.4 0-.7.2-.2.1-2.2.8-4 1.3v.6c1.4.7 1.9 1 1.9 2.6v10.1C2.5 16 1.8 16 .7 16H0v1c1.5 0 2.8-.1 4.1-.1 1.3 0 2.7.1 4 .1v-1h-.7c-1 0-1.9 0-1.9-1.2v-11C6.4 3.2 8.5 2 10 2c2.8 0 3.3 2.2 3.3 4.6v8.3c0 1.2-.7 1.2-1.8 1.2h-.7v1c1.3 0 2.7-.1 4-.1 1.3 0 2.7.1 4 .1v-1h-.7c-1 0-1.9 0-1.9-1.2V3.8c.9-.6 3-1.8 4.4-1.8 2.8 0 3.3 2.2 3.3 4.6v8.3c0 1.2-.7 1.2-1.8 1.2h-.7v1c1.3 0 2.7-.1 4-.1 1.3 0 2.7.1 3.8.1v-1h-.6c-.9 0-1.7 0-1.7-1.2zm13.7 0c-4.1 0-6.5-3.4-6.5-7.3 0-2.8 1.7-6.4 4.9-6.4 3.5 0 3.4 3 5 3 .9 0 1.4-.8 1.4-1.6 0-2-3.1-2.6-5-2.6-5.4 0-9.3 4.5-9.3 9.9 0 4 3.5 7.7 7.4 7.7 3 0 5.5-1.8 7.3-3.9l-.6-.6c-1.4 1.1-2.7 1.8-4.6 1.8zm18.9-.2h-5.2c-2.5 0-2.6-1.2-2.6-1.7 0-.9.4-1.4 1.1-1.9.7.2 1.5.2 2.1.2 4.6 0 6.9-3 6.9-5.8 0-1-.3-2.1-1-2.8l3.7.2V1c-1 .1-1.5.2-2.2.2-1.5 0-2.6-.3-3.6-.6-.9-.3-2.1-.6-3.3-.6-4.6 0-7 2.5-7 5.8 0 2.5 1.4 3.9 3.5 5-.5.5-2.1 1.2-3.1 1.9-.1.4-.1.8-.1 1.2 0 1.7 1.7 2.8 3.3 3.3v.1c-2.3.5-4.4 1.9-4.4 4.3 0 2 2.3 4.2 7.1 4.2 8 0 9.9-5.7 9.9-7.2 0-3-1.9-3.9-5.1-3.9zm-7.8-9.5c0-2 1-4.3 3.3-4.3 2.6 0 3.8 2.6 3.8 4.9 0 2.3-1.1 4.4-3.6 4.4-2.6.1-3.5-2.8-3.5-5zm3.6 19.2c-2.6 0-4.9-1.2-4.9-3.8 0-3.5 3.8-3.5 6.2-3.5 2 0 5.3.3 5.3 3-.1 3.4-4.3 4.3-6.6 4.3zm25.8-8.8c-.8 0-1.3-.6-1.3-2.1V3.1C79.8 1 76.9 0 75.2 0c-1.4 0-2.1.5-3.4 1.2-2.6 1.3-4.3 2.3-4.3 4.3 0 .3.1.7.7.7.9 0 2.1-.5 2.1-1.6C70.4 3 71.5 2 73.1 2c2.4 0 3.6 1.1 3.6 3.2v2.5c-8 2.8-9.5 3.3-9.7 6.3 0 2 1.6 3.6 4 3.6 2.3 0 4-1.2 5.8-2.8.1 1.3.8 2.8 2.3 2.8 1.5 0 2.7-1 3.7-2l-.3-.6c-.4.4-.9.6-1.4.6zm-4.3-1.9c-1.2 1.1-2.4 2.2-4.1 2.2-1.5 0-2.7-1.2-2.7-2.7 0-2.8 4.9-3.7 6.8-4.4v4.9zM95.6 0c-2.3 0-3.8 2.4-4.8 3.9h-.1V.5c0-.4-.1-.5-.3-.5-.3 0-1.8 1-4.6 2.1v.6c.6.3 1.9.5 1.9 1.7v10.5c0 1.2-.7 1.2-1.8 1.2h-1v1c1.3 0 2.9-.1 4.4-.1 1.6 0 3.2 0 5.2.1v-1h-2.1c-1 0-1.8 0-1.8-1.2V6.1c0-2.2 2.1-3.1 2.7-3.1 1.3 0 1.3.9 2.5.9 1 0 1.8-.9 1.8-1.9.2-1.4-1-2-2-2zm14.6 0c-2.3 0-3.8 2.4-4.8 3.9h-.1V.5c0-.4-.1-.5-.3-.5-.3 0-1.8 1-4.6 2.1v.6c.6.3 1.9.5 1.9 1.7v10.5c0 1.2-.7 1.2-1.8 1.2h-1v1c1.3 0 2.9-.1 4.4-.1 1.6 0 3.2 0 5.2.1v-1H107c-1 0-1.8 0-1.8-1.2V6.1c0-2.2 2.1-3.1 2.7-3.1 1.3 0 1.3.9 2.5.9 1 0 1.8-.9 1.8-1.9.1-1.4-1.1-2-2-2zm18.2.6c-1.2 0-2.4 0-3.5-.1v1c.9 0 2.1 0 2.1 1.6 0 1-2.9 7.3-3.7 9.5h-.1c-.4-1.5-3.8-9-3.8-10.1 0-1 1.3-.9 2.1-1v-1c-1.1 0-2.2.1-3.4.1-1.5 0-2.9 0-4.3-.1v1c1.2-.1 1.8.5 2.4 1.4.4.9 5.4 13.5 5.4 13.6 0 0-.8 2.1-2.6 6-.5-.5-.9-.6-1.5-.6-1 0-1.8 1-1.8 1.9 0 1 .7 1.8 1.8 1.8s1.8-.6 2.4-1.9l8.4-19.8c.7-1.4 1.2-2.4 3-2.4v-1c-1 .1-1.9.1-2.9.1z"/></symbol><symbol viewBox="0 0 78.6 24.9" id="logo-owen"><path fill="#54C3BF" d="M-9.4 7.4c-2.9 0-4.6 1.1-5.5 2.7h-.1V0h-3v24.5h2.9v-2.4h.1c.8 1.2 2.7 2.7 5.7 2.7 5 0 7.1-4.4 7.1-9 0-4.4-2.3-8.4-7.2-8.4zm-.6 15c-3.5 0-4.9-3.4-4.9-6.2 0-3.1 1.6-6.3 4.9-6.3 3.3 0 4.6 3.2 4.6 6.2 0 2.6-1.3 6.3-4.6 6.3zm18.5-15C3.4 7.4 0 11.1 0 16.2c0 4.8 3.5 8.7 8.5 8.7s8.4-4 8.4-8.7c0-5.1-3.4-8.8-8.4-8.8zm0 15c-3.6 0-5.2-3.3-5.2-6.2C3.3 13 5.2 10 8.5 10c3.3 0 5.2 3.1 5.2 6.2 0 2.9-1.6 6.2-5.2 6.2zm28.8-.8L33.1 7.8h-3.6l-4.2 13.8h-.1L21.4 7.8H18l5.3 16.7h3.6l4.2-14h.1l4.3 14H39l5.3-16.7h-3l-4 13.8zM53.2 7.4c-4.7 0-7.8 3.5-7.8 8.4 0 5.4 2.7 9 8.6 9 2.7 0 4.1-.7 5.2-1.1v-3.1c-.7.6-3.1 1.7-5.1 1.7-2.9 0-5.5-2.3-5.5-5.5h11.9c.1-5.3-1.7-9.4-7.3-9.4zm-4.5 7.2c.2-2.2 1.5-4.6 4.5-4.6 2.6 0 4.1 2.1 4.1 4.6h-8.6zm23.6-7.2c-2.3 0-4.5 1.1-5.4 3h-.1V7.8h-3v16.7h3.1v-7.7c0-4 1.6-6.9 5.1-6.9 2.7.2 3.5 2.1 3.5 5.9v8.6h3.1v-9.9c0-4.4-2-7.1-6.3-7.1z"/></symbol><symbol viewBox="0 0 19 10" id="marquee_down_arrow"><path fill="#FFF" d="M18.3 1.2c.1-.1.2-.2.2-.4 0-.1-.1-.3-.2-.4-.2-.2-.6-.2-.8 0l-8.1 8-8.1-8C1.1.2.7.2.5.4c-.1.2-.1.6.2.8l8.4 8.4c.2.2.6.2.8 0l8.4-8.4z"/></symbol><symbol viewBox="0 0 7 4" id="menu_dropdown_arrow"><path fill="#FFF" d="M6.7.6l.1-.1c0-.1 0-.1-.1-.1-.1-.1-.2-.1-.3 0L3.5 3.3.6.3C.5.2.4.2.3.3.2.4.2.5.3.6l3.1 3.1c.1.1.2.1.3 0l3-3.1z"/></symbol><symbol viewBox="0 0 18 18" id="more_button"><path fill-rule="evenodd" clip-rule="evenodd" fill="#54C3BF" d="M9 17.8C4.2 17.8.2 13.9.2 9 .2 4.2 4.1.2 9 .2c4.8 0 8.7 3.9 8.7 8.8.1 4.8-3.9 8.8-8.7 8.8zM9 1.5C4.9 1.5 1.5 4.9 1.5 9s3.4 7.5 7.5 7.5 7.5-3.4 7.5-7.5S13.2 1.5 9 1.5zm4 8H9.6v3.4c0 .3-.3.6-.6.6s-.6-.3-.6-.6V9.5H5c-.3 0-.6-.3-.6-.6s.3-.6.6-.6h3.4V4.9c0-.3.3-.6.6-.6s.6.3.6.6v3.4H13c.3 0 .6.3.6.6.1.4-.2.6-.6.6z"/></symbol><symbol viewBox="0 0 16 16" id="music"><path d="M15 0h1v11.5c0 1.38-1.567 2.5-3.5 2.5S9 12.88 9 11.5 10.567 9 12.5 9c.98 0 1.865.287 2.5.75V4L7 5.778V13.5C7 14.88 5.433 16 3.5 16S0 14.88 0 13.5 1.567 11 3.5 11c.98 0 1.865.287 2.5.75V2l9-2z"/></symbol><symbol viewBox="0 0 100 100" id="new_york"><path fill="#959595" d="M64 41l-3.7-2.7-2.7 3.7c-.2-1.3-.5-2.2-.5-2.4-.2-.5-1.4-1.7-1.4-1.9-.3-1.4-.1-3.2-1.7-3.9-1.1-.6-1.4-1.1-1.7-2.2 0 0 .8-.8.6-1.6-.3-.8-.9-.9-.9-2.2V27l3.9-.3L52 26c0-.1 0-.2-.1-.3l3.3-2.2-3.7 1.1c-.1-.1-.2-.3-.3-.4l1.9-3.1-3 2.5c-.3-.1-.5-.1-.9-.1l-.7-3.5-.6 3.6c-.3.1-.6.1-.8.3L44 21.2l2.1 3.5s0 .1-.1.1l-3.8-.5c0-1.8-1-8.5-1.7-10.1l-.2-.7.6-2h.8V8.7h-1.2V7.6c1.3-.6 0-5.4 0-5.4-.2 1.1-.3 1.4-.3 1.4-.4-.9 0-1.8 0-1.8-1.1 1-1.1 1.7-1.2 1.8.1-.3 0-2 0-2-.3.7-2 3.4-2.2 4.5-.2 1.2.5 1.7.5 1.7v1.1h-1v2.7h.8l.6 2c-.3.8 0 1.8.4 2.3.4.4.3 2.1.3 2.7.2 1.5.1 2.2.3 3.7.2.8 1 2.4 1 3.3l-.3 1.9c-.5.6-1.6 2.5-.7 5.3 0 0-.5.8.3 1.3 0 0-.4 1.5 1.3 2.5.8.4.5 1.8.3 3-.2.9.5 2.1.9 2.6-.1.3-2.4 6.4-.3 8.4-.1.4-3 4.5.4 5.8v13.2s1 .6.7 2.2c-.1.1-1.2.2-1.2 1.2 0 .8 1.4 1.3 1.1 2.1-.2.7-2.4 1.7-2.4 2v1.7H39v2.6h-.9V84h.9v4l-1.3 3v4.9H36v2.6h26.5v-2.6h-1.7V91l-1.3-3.2v-4h1v-2.6h-1v-2.6h-1.2c-.3-.8-1.6-4.1-1.7-7.5 0 0 1.5-.7 1.7-2 .9-5.1-.3-15.8-.3-15.9.2-.3.2-.6 1-.7.6-.1 1.4-.4 1.7-2 .3-1.7 0-2.8 0-2.8s.8.1 1.2-.4c.4-.5 1.5-2.4 1.5-2.4s.3-1-.7-1.9l1.3-2zM42.3 24.2l3.4 1.7c0 .1 0 .2-.1.3l-2.4.3-.1-.1c-.2-.3-.8-1.2-.8-1.6v-.6zm1.5 60.9h-3.4v-1.4h3.4v1.4zm.3-55.4c0-.2-.3-.8-.2-.8.1-.4.3-1.3-.3-1.9l2 .3s.3 2.5-.5 2.9l-1-.5zm4.5 55.4h-3.4v-1.4h3.4v1.4zm4.8 0H50v-1.4h3.4v1.4zm4.7-1.3v1.4h-3.4v-1.4h3.4z"/></symbol><symbol viewBox="0 0 100 100" id="san_franisico"><path fill="#959595" d="M89.8 77.8v4.4M73.3 67.8v.3m23.3-12.4V85.1h-1.2V84l-2.8-3-2.8 3v1h-1.2v-8.8c-2.1-.9-4.2-1.7-6.3-2.5-5.5-2-11.1-3.7-16.8-5-5.7-1.3-11.4-2.3-17.1-2.9-.8-.1-1.5-.1-2.3-.2v28.8h-2.3V82.9l-5.7-6.1-5.7 6.1v11.6h-2.3V65.7c-.6 0-1.2.1-1.8.1-5.7.5-11.5 1.5-17.1 2.9-1.2.3-6.9 1.5-8.2 1.8l3-3c1-.4 3.4-1.5 4.4-1.8h.1v-4c-1 1-6.5 4.9-7.5 5.8l4.4-4c1.1-1 2.1-1.9 3.1-2.9v-9.1c-.9 1.3-1.9 2.7-2.9 4-.1.1-4.6 4-4.7 4.1l4.4-5.2c5.8-7.8 10.2-15.6 13.4-22.1 6.2-12.8 9-23.1 9.4-24.9V5.5h2.3v1.7h11.3V5.5H46v1.3c.2 0 .3.1.4.3 0 .1 2.7 11.1 9.5 25.2 4.9 10 12.8 23.3 24.4 34.9 4.6-4 7-12 8.2-17.1v-4.7H90s0 .3-.1.8h5.5v-.8h1.5c0-.1.3 4.5-.3 10.3zm-80.9.8c-1.4 1.5-2.8 3-4.3 4.4v4.5c1.4-.5 2.9-.9 4.3-1.3v-7.6zm0-13c-1.4 2.3-2.8 4.6-4.3 6.8v9.5c1.5-1.5 2.9-3 4.3-4.5V43.5zm4.3 8.2c-1.1 1.3-2.3 2.6-3.5 4v8.2c1.2-.3 2.3-.7 3.5-1V51.7zm0-16c-1.1 2.2-2.3 4.3-3.5 6.4v12.3c1.2-1.3 2.4-2.7 3.5-4V35.7zm3.3 11.9c-.8 1-1.7 2.1-2.6 3.1v11.9c.9-.2 1.7-.4 2.6-.6V47.6zm0-18.9l-1.8 3.9c-.3.5-.5 1-.8 1.6v15.4c.9-1.1 1.8-2.1 2.6-3.2V28.7zm3 15.1c-.7.9-1.4 1.9-2.2 2.8v15.3c.7-.2 1.4-.3 2.2-.4V43.8zm0-22c-.6 1.6-1.4 3.4-2.2 5.2v18.4c.7-1 1.5-1.9 2.2-2.8V21.8zm2.6 18.4c-.6.9-1.2 1.7-1.9 2.6v18.5c.2 0 .5-.1.7-.1.4-.1.8-.1 1.2-.2V40.2zm0-25.7c-.5 1.5-1.1 3.3-1.9 5.2v21.7c.6-.9 1.3-1.8 1.9-2.6V14.5zm1.4 23.8c-.2.3-.4.5-.5.8v21.8c.2 0 .4-.1.5-.1V38.3zm0-28c-.2.5-.3 1.1-.5 1.8v25.6c.2-.3.4-.5.5-.8V10.3zm2.3 7c0 .9.7 1.7 1.7 1.7h1.1c-1.1-2.3-2.1-4.4-2.8-6.1v4.4zm0 11.8c0 .9.7 1.6 1.6 1.7.3-.4.5-.9.8-1.3 1.1-1.9 2.1-3.7 3.1-5.4-.6-1-1.1-2.1-1.6-3h-2.2c-.9 0-1.7.8-1.7 1.7v6.3zm5.8-5.9c.4-.7.8-1.5 1.1-2.2h-2.3c.5.7.8 1.5 1.2 2.2zm0 1.7c-.9 1.6-1.8 3.2-2.8 5-.2.3-.4.6-.5.9h6.7c-.2-.3-.4-.6-.5-.9-1-1.8-2-3.4-2.9-5zm-1.8 50.2l-4.1-4.4v8.8l4.1-4.4zm7.3-4.4l-4.1 4.4 4.1 4.4v-8.8zm0-4.8h-.4c-.4 0-.8 0-1.2-.1l-1.1-.1c-.9-.1-1.8-.1-2.7-.2-.9 0-1.8.1-2.7.2l-1.1.1c-.4 0-.8.1-1.2.1h-.9v1.4l5.7 6.1 5.7-6.1v-1.4zm0-17.8c0-1.8-.7-3.2-1.7-3.2h-8c-.9 0-1.7 1.4-1.7 3.2v11.5H35.4c1 0 2 0 2.9.1 1-.1 1.9-.1 2.9-.1h2.5V48.1zm0-13.3c0-.9-.7-1.7-1.7-1.7h-8c-.3 0-.5.1-.8.2-.3.5-.6.9-.9 1.4v6.5c0 .9.7 1.7 1.7 1.7h8c.9 0 1.7-.8 1.7-1.7v-6.4zm0-12.1c0-.9-.7-1.7-1.7-1.7h-1.7c-.5 1-1 2-1.6 3 .9 1.7 2 3.5 3.1 5.4.2.4.5.8.7 1.2.7-.2 1.2-.9 1.2-1.6v-6.3zm0-8.8c-.7 1.5-1.4 3.2-2.4 5h.7c.9 0 1.7-.8 1.7-1.7v-3.3zm0-3c0-.9-.7-1.7-1.7-1.7h-8c-.9 0-1.6.7-1.7 1.6.8 2 2.1 4.8 3.7 8.1h4.4c1.4-2.7 2.4-5.1 3.2-7v-1zM47.2 39c-.3-.5-.7-1-1-1.5v23.1c.3.1.7.1 1 .2V39zm0-26.9c-.4-1.4-.8-2.5-1-3.4V36.1c.3.5.7 1 1 1.5V12.1zm2.6 30.6c-.6-.9-1.3-1.7-1.9-2.6V61c.4.1.8.1 1.2.2.2 0 .5.1.7.1V42.7zm0-23c-.7-1.9-1.3-3.7-1.9-5.2v24.3c.6.9 1.2 1.7 1.9 2.6V19.7zm3 26.9c-.7-.9-1.5-1.9-2.1-2.8v17.6c.7.1 1.4.3 2.1.4V46.6zm0-19.7c-.8-1.8-1.5-3.5-2.1-5.2v20.7c.7.9 1.4 1.9 2.1 2.8V26.9zm3.3 23.9c-.9-1.1-1.8-2.1-2.6-3.1v14.5c.9.2 1.7.4 2.6.6v-12zm0-16.7c-.3-.5-.5-1-.8-1.6l-1.8-3.9v17.6c.8 1.1 1.7 2.1 2.6 3.2V34.1zm4.4 21.5c-1.2-1.3-2.4-2.6-3.5-4v11.2c1.2.3 2.4.6 3.5 1v-8.2zm0-13.5c-1.2-2.1-2.4-4.2-3.5-6.4v14.8c1.1 1.3 2.3 2.7 3.5 4V42.1zm5.1 18.8c-1.5-1.5-2.9-2.9-4.3-4.4v7.6c1.5.4 2.9.9 4.3 1.3v-4.5zm0-10.6c-1.5-2.2-2.9-4.5-4.3-6.8v11.9c1.4 1.5 2.8 3 4.3 4.5v-9.6zm20.5 22.1c.3.3.7.6 1 .9v-16c-.3.9-.7 1.7-1 2.5v12.6zm-13.6-5.2c-2.1-1.8-4.2-3.6-6.1-5.5v4h.1c2 .7 4 1.4 6 2.2v-.7zm0-7.7c-1.1-1.3-2.2-2.7-3.3-4.1-1-1.3-1.9-2.6-2.9-4v9.1c1.9 1.9 4 3.7 6.1 5.6v-6.6zm1.6 8.9c-.3-.2-.5-.4-.8-.6v.3c.2.1.5.2.8.3zm2.5 1.1l-.1-.3c1.2-.3 2.3-.9 3.3-1.6-2.3-2.2-4.4-4.6-6.5-7.1v6.3l3.3 2.7zm4.3-.8l-.7-.7c-1 .8-2.1 1.3-3.2 1.7 1.3.5 2.6 1.1 3.9 1.7v-2.7zm0-1.3s-.1 0 0 0c-.1.1 0 .1 0 .2v-.2zm2.7 3.8c-.7-.7-1.4-1.3-2.1-2v2.3h-.3c.6.3 1.2.6 1.8.8l.6.3v-1.4zm0-6.9c-.7 1-1.4 1.8-2.1 2.6V68c.7.7 1.4 1.4 2.1 2v-5.7zm2 8.7c-.5-.4-1-.9-1.5-1.3v1.2c.5.2 1 .5 1.5.7V73zm0-12.2c-.5 1-1 1.9-1.5 2.7v7c.5.5 1 .9 1.5 1.3v-11zm1.8 13.7c-.4-.4-.9-.7-1.3-1.1v.4c.4.2.9.4 1.3.7zm1.3-22.3c-.3 1.1-.6 2.3-1 3.5v17.9c.3.2.6.5.9.7l.1-.1v-22zm1.1 10.9c0 .5.4.8.8.8h3.9c.4-1.3.7-2.7 1-4 0-.5-.4-.8-.8-.8h-4c-.5 0-.8.4-.8.8v3.2zm0 9.8h.2c1.9-2.2 3.3-5 4.2-8h-3.6c-.5 0-.8.7-.8 1.6v6.4zm4.2 0v-5.7c-.4 1.1-.9 2.1-1.5 3.1V73H94zm-1.5 2.2v2h-.2c.6.3 1.1.6 1.5.9l.2-.2v-2.7h-1.5zm-.5-2.2v-1.8c-.4.6-.8 1.2-1.3 1.8H92zm-2.2 2.2v.3c.5.4 1 .8 1.5 1.1l.1.1.6.3V75h-2.2zm2.1 4.9l-2-2.2v4.4l2-2.2zm.8-.8l.8-.9c-.6-.3-1.3-.5-2.4-1-.1 0-.1 0-.2-.1m4.6 2c-.3-.2-.6-.3-.8-.4L93.5 80l2 2.2v-3zm0-1.4l-.7.7c.2.1.4.3.7.4v-1.1zm0-2.7h-1v2.2l1-1.1v-1.1zm0-8.5c0-.8-.3-1.5-.7-1.6l-.3.9V73h1V66.6zm0-4.2c-.1.4-.2.9-.4 1.3.2-.2.4-.4.4-.7v-.6zm0-8.6c0-.5-.4-.8-.8-.8h-4c-.5 0-.8.4-.8.8V57c0 .5.4.8.8.8h4c.5 0 .8-.4.8-.8v-3.2zm0-5.8c0-.5-.4-.8-.8-.8h-4c-.5 0-.8.4-.8.8v3.2c0 .5.4.8.8.8h4c.5 0 .8-.4.8-.8V48z"/></symbol></svg>