<?xml version="1.0" encoding="utf-8"?>
<!-- Generator: Adobe Illustrator 17.1.0, SVG Export Plug-In . SVG Version: 6.00 Build 0)  -->
<!DOCTYPE svg PUBLIC "-//W3C//DTD SVG 1.1//EN" "http://www.w3.org/Graphics/SVG/1.1/DTD/svg11.dtd">
<svg version="1.1" id="Layer_1" xmlns="http://www.w3.org/2000/svg" xmlns:xlink="http://www.w3.org/1999/xlink" x="0px" y="0px"
	 viewBox="0 0 246 88" enable-background="new 0 0 246 88" xml:space="preserve">
<g>
	<path fill-rule="evenodd" clip-rule="evenodd" fill="#512972" d="M131.5,27.3c0.1,0,0.2,0.1,0.3,0.1c1.2,0.4,1.9,1.4,1.9,2.8
		c0,4.8,0,9.6,0,14.3c0,0.5,0.1,1.1,0.2,1.6c0.2,0.7,0.6,1.2,1.3,1.5c-0.4,0.9-2,1.4-3.4,1.1c-1.3-0.3-2.3-1-2.9-2.2
		c-0.8,1.5-2,2.2-3.6,2.3c-0.7,0-1.4,0-2-0.2c-1.5-0.3-2.5-1.3-3.1-2.7c-1.2-2.7-1.3-5.5-0.2-8.3c0.5-1.3,1.4-2.3,2.8-2.7
		c1.9-0.6,3.5-0.1,4.9,1.2c0.3,0.3,0.5,0.5,0.8,0.9c0-0.2,0-0.3,0-0.4c0-2.1,0-4.2,0-6.3c0-1.6,0.6-2.5,2.2-2.9c0,0,0,0,0,0
		C131,27.3,131.3,27.3,131.5,27.3z M128.2,41.8c0-0.2,0-0.5-0.1-0.8c-0.1-0.8-0.3-1.5-0.8-2.2c-0.7-0.8-1.7-0.8-2.4,0
		c-0.2,0.3-0.4,0.6-0.5,1c-0.4,1-0.4,2-0.3,3.1c0.1,0.7,0.2,1.3,0.6,1.8c0.4,0.6,1,0.8,1.8,0.7c0.7-0.2,1.1-0.7,1.3-1.3
		C128.1,43.4,128.1,42.6,128.2,41.8z"/>
	<path fill-rule="evenodd" clip-rule="evenodd" fill="#512972" d="M152.7,27.3c0.3,0.1,0.5,0.2,0.7,0.3c1,0.5,1.5,1.4,1.5,2.5
		c0,4.8,0,9.7,0,14.5c0,0.4,0,0.8,0.1,1.2c0.1,0.9,0.6,1.5,1.4,1.9c-0.1,0.1-0.2,0.2-0.3,0.3c-1.1,1-2.3,1.1-3.6,0.7
		c-1.8-0.6-2.8-2-2.8-4c0-4.9,0-9.9,0-14.8c0-1.1,0.9-2.2,2-2.5c0.1,0,0.1,0,0.2-0.1C152.1,27.3,152.4,27.3,152.7,27.3z"/>
	<path fill-rule="evenodd" clip-rule="evenodd" fill="#CF1F36" d="M53.4,48.7c0.1-0.4,0.2-0.8,0.3-1.1c0.7-1.9,2.5-3,4.4-2.8
		c1.4,0.1,2.5,0.9,3.3,2c0.4,0.5,0.7,1.1,1,1.7c0.6,1.1,1.6,1.8,2.9,1.9c1,0.1,1.9-0.2,2.7-0.7c0,0,0,0,0,0c-1.3,1.8-2.9,3.3-5,4.1
		c-2,0.7-4,0.9-6,0.2c-1.7-0.6-3-1.7-3.5-3.5c-0.1-0.2-0.1-0.4-0.2-0.7C53.4,49.4,53.4,49,53.4,48.7z"/>
	<path fill-rule="evenodd" clip-rule="evenodd" fill="#512972" d="M88,29.6c-1.1,0.8-1.5,2.1-1.7,3.3c-0.4,2-0.4,4-0.2,5.9
		c0.2,2.1,0.6,4.1,1.4,6c0.8,2,2.1,3.6,3.9,4.7c1,0.6,2.1,0.9,3.3,1c-0.1,0.1-0.1,0.3-0.2,0.4c-2,3.9-6.5,4-9.1,1.7
		c-1.2-1.1-2-2.5-2.5-4c-0.6-1.8-0.9-3.6-1-5.5c-0.1-1.7-0.1-3.5,0-5.2c0-0.1,0-0.3-0.1-0.4c-1.8,2.4-3.6,4.8-5.4,7.3
		c-1.6-2.4-3.2-4.9-4.7-7.3c0,0,0,0-0.1,0c0,0.3-0.1,0.6-0.1,1c-0.2,2.3-0.6,4.6-1.3,6.8c-0.5,1.5-1.4,2.7-2.8,3.4
		c-1.4,0.7-2.8,0.3-3.8-1c-0.3-0.4-0.5-0.9-0.8-1.4c1.7-0.8,2.6-2.2,3.2-3.7c0.8-1.9,1.2-3.9,1.5-5.9c0.2-1.4,0.2-2.8-0.1-4.2
		c-0.2-1-0.6-2-1.4-2.8c0.2-0.2,0.4-0.4,0.6-0.6c0.9-0.7,1.9-0.8,3-0.7c1.3,0.1,2.3,0.8,3,1.9c1,1.4,1.9,2.9,2.9,4.3
		c0.4,0.5,0.7,1.1,1.1,1.7c0.1,0.1,0.1,0.2,0.2,0.3c0.1-0.1,0.1-0.2,0.2-0.2c1.3-1.8,2.7-3.7,4-5.5c0.5-0.7,1.1-1.5,1.9-1.9
		c1.5-0.8,3-0.7,4.5,0.2c0.1,0.1,0.2,0.2,0.4,0.3C87.9,29.4,88,29.5,88,29.6z"/>
	<path fill-rule="evenodd" clip-rule="evenodd" fill="#512972" d="M103.3,35.4c1-1.2,2.3-1.4,3.8-1c1.6,0.4,2.6,1.5,2.7,3.2
		c0.1-0.1,0.2-0.2,0.2-0.3c0.8-1.1,1.8-2,3.1-2.4c0.6-0.2,1.2-0.2,1.8-0.1c1.2,0.2,1.9,0.9,2.3,2c0.3,0.9,0.4,1.9,0.4,2.8
		c0,1.7-0.1,3.4,0,5.1c0,0.5,0.1,1,0.2,1.5c0.2,0.7,0.7,1.2,1.3,1.5c-0.6,0.7-1.2,1.1-2.1,1.2c-1.1,0.1-2.2-0.1-3.1-0.8
		c-0.9-0.7-1.3-1.6-1.3-2.8c0-1.9,0-3.8,0-5.6c0-0.2,0-0.5-0.1-0.7c-0.3-0.8-1.2-1.1-1.9-0.4c-0.6,0.5-0.9,1.2-0.9,2c0,2,0,4,0,5.9
		c0,1-0.4,1.8-1.3,2.2c-0.9,0.4-1.9,0.4-2.7-0.2c-0.6-0.4-0.9-1-0.9-1.8c0-0.8,0-1.6,0-2.4c0-2,0-4,0-6
		C104.8,37,104.4,36,103.3,35.4z"/>
	<path fill-rule="evenodd" clip-rule="evenodd" fill="#512972" d="M103.3,41.7c0,3.9-3.2,7.2-7.1,7.2c-4,0-7.2-3.2-7.2-7.2
		c0-3.9,3.2-7.1,7-7.2C99.9,34.5,103.3,37.7,103.3,41.7z M94.1,41.8c0,0.5,0,1,0.1,1.4c0.1,0.7,0.3,1.5,0.8,2.1
		c0.6,0.8,1.8,0.8,2.4,0c0.2-0.3,0.4-0.6,0.5-1c0.4-1.4,0.4-2.8,0.2-4.2c-0.1-0.7-0.3-1.4-0.8-2c-0.6-0.7-1.6-0.7-2.2,0
		c-0.2,0.3-0.4,0.7-0.6,1C94.2,40,94.1,40.9,94.1,41.8z"/>
	<path fill-rule="evenodd" clip-rule="evenodd" fill="#512972" d="M182.5,34.2c0.6,0.5,0.8,1.2,0.9,2c0.1,1-0.3,1.9-0.9,2.8
		c-0.7,1-1.6,1.8-2.6,2.6c-1.3,1.1-2.7,2.2-4,3.3c0,0,0,0,0,0.1c0,0,0.1,0,0.1,0c1.1,0,2.2,0,3.4,0c1.1,0,2.1-0.3,3-1
		c0.3,0.3,0.5,0.7,0.6,1.2c0.4,1.5-0.5,3.2-1.9,3.8c-0.9,0.4-1.8,0.2-2.6-0.2c-0.6-0.3-1.1-0.6-1.7-0.9c-1.5-0.7-3-0.6-4.5-0.2
		c-0.9,0.2-1.8,0.6-2.6,1.2c-0.1-0.7-0.1-1.3,0.1-1.9c0.6-2.3,1.8-4.2,3.8-5.5c1-0.7,2.1-1.3,3.1-2c0.1-0.1,0.2-0.1,0.4-0.2
		c-0.2,0-0.3,0-0.4,0c-1.3,0-2.6,0-4,0c-0.3,0-0.6,0-0.9-0.1c-0.9-0.2-1.5-1-1.5-1.9c0-0.9,0.8-1.7,1.6-1.8c0.2,0,0.4,0,0.6,0
		c2.7,0,5.3,0,8,0c0.2,0,0.4,0,0.6,0C181.7,35.1,182.2,34.8,182.5,34.2z"/>
	<path fill-rule="evenodd" clip-rule="evenodd" fill="#512972" d="M147.7,44.6c-0.3,1.7-1.2,3-2.8,3.7c-3,1.3-6.7,0.4-8.6-2.5
		c-1-1.4-1.3-3-1.1-4.7c0.2-2.3,1.2-4.1,3.1-5.4c1.4-0.9,2.9-1.2,4.5-1c1.3,0.1,2.6,0.5,3.7,1.2c1.5,1,2.1,2.6,1.8,4.3
		c-0.3,1.3-1.2,2-2.4,2.4c-0.9,0.3-1.9,0.4-2.9,0.5c-0.9,0-1.7,0-2.7,0c0.2,0.6,0.5,1.1,0.9,1.5c0.7,0.6,1.5,0.9,2.4,1
		c1,0.1,2,0,2.9-0.3C146.9,45,147.3,44.8,147.7,44.6z M140,41c0.1,0,0.1,0,0.2,0c0.4,0,0.9,0,1.3,0c0.3,0,0.6-0.1,0.9-0.2
		c0.7-0.3,1.2-1.1,1.1-2c0-0.6-0.4-1-1-1.2c-0.7-0.2-1.2,0.1-1.6,0.6C140.3,39,140.1,39.9,140,41z"/>
	<path fill-rule="evenodd" clip-rule="evenodd" fill="#512972" d="M161.4,43.2c0.3,0.9,0.9,1.5,1.8,1.9c0.6,0.3,1.1,0.4,1.7,0.4
		c0.7,0,1.5-0.1,2.2-0.2c0.6-0.1,1.1-0.3,1.6-0.8c0,0.3-0.1,0.4-0.1,0.6c-0.6,2-1.9,3.2-3.9,3.6c-2.5,0.5-4.8-0.1-6.6-1.9
		c-1.1-1.1-1.7-2.5-1.8-4.1c-0.2-1.9,0.2-3.7,1.3-5.3c1.5-2.1,3.7-3,6.2-2.7c1.3,0.1,2.5,0.5,3.5,1.1c1.7,1,2.4,2.9,1.9,4.7
		c-0.3,1-1,1.6-2,2c-0.8,0.3-1.7,0.5-2.5,0.5C163.7,43.2,162.6,43.2,161.4,43.2z M161.1,40.9c0.6,0,1.2,0.1,1.8,0
		c0.9-0.1,1.6-0.8,1.7-1.7c0.1-0.7-0.1-1.3-0.7-1.6c-0.6-0.3-1.1-0.2-1.7,0.3C161.4,38.8,161.3,39.9,161.1,40.9z"/>
	<path fill-rule="evenodd" clip-rule="evenodd" fill="#CF1F36" d="M177.9,49.6c1.4,0.8,2.8,1,4.2,0.3c0.5-0.3,1-0.7,1.3-1.2
		c0.3-0.5,0.6-1,0.8-1.5c0.6-1.1,1.5-1.9,2.6-2.4c2.1-0.8,4.5,0.3,5.4,2.4c0.8,1.9,0.3,3.8-1.2,5.2c-1.2,1.1-2.7,1.6-4.3,1.7
		c-3.2,0.1-5.8-1.1-7.9-3.5C178.5,50.4,178.2,50,177.9,49.6z"/>
	<path fill-rule="evenodd" clip-rule="evenodd" fill="#512972" d="M163.1,32.9c-1.3,0-2.5,0-3.8,0c-0.9,0-1.7-0.8-1.7-1.7
		c0-0.9,0.8-1.7,1.7-1.7c2.6,0,5.1,0,7.7,0c0.9,0,1.7,0.8,1.7,1.7c0,0.9-0.8,1.7-1.7,1.7C165.6,32.9,164.3,32.9,163.1,32.9z"/>
	<path fill-rule="evenodd" clip-rule="evenodd" fill="#512972" d="M167.4,59.8c-0.6,0.7-1.4,0.9-2.3,0.7c-0.7-0.1-1.2-0.6-1.4-1.2
		c-0.6-1.2-0.6-2.5-0.1-3.7c0.7-1.5,2.4-1.8,3.6-0.6c0.1,0.1,0.1,0.1,0.2,0.2c0-0.1,0.1-0.2,0.1-0.3c0.2-0.5,0.7-0.9,1.3-0.8
		c0.6,0.1,1,0.5,1,1.1c0,1.4,0,2.9,0,4.3c0,0.6-0.4,1-1,1.1c-0.5,0.1-1-0.2-1.3-0.7C167.4,59.9,167.4,59.9,167.4,59.8z M167.2,57.4
		c-0.1-0.4-0.2-0.8-0.3-1.1c-0.1-0.3-0.3-0.5-0.7-0.5c-0.4,0-0.6,0.2-0.7,0.5c-0.3,0.7-0.3,1.5,0,2.2c0.1,0.3,0.4,0.5,0.7,0.5
		c0.4,0,0.6-0.2,0.7-0.5C167.1,58.2,167.2,57.8,167.2,57.4z"/>
	<path fill-rule="evenodd" clip-rule="evenodd" fill="#512972" d="M138.6,59.8c-0.9,1.2-3.2,1.1-3.8-0.7c-0.5-1.2-0.5-2.4,0-3.6
		c0.7-1.5,2.4-1.8,3.5-0.6c0.1,0.1,0.1,0.1,0.2,0.2c0.1-0.2,0.1-0.3,0.1-0.5c0.2-0.5,0.8-0.8,1.3-0.7c0.6,0.1,1,0.6,1,1.1
		c0,0.9,0,1.7,0,2.6c0,0.5,0,1,0,1.6c0,0.6-0.3,1.1-0.9,1.2c-0.5,0.1-1-0.1-1.3-0.6C138.7,59.9,138.6,59.9,138.6,59.8z M136.5,57.4
		c0.1,0.4,0.1,0.7,0.3,1.1c0.1,0.3,0.4,0.5,0.7,0.5c0.4,0,0.6-0.2,0.7-0.5c0.3-0.7,0.3-1.5,0-2.2c-0.1-0.3-0.3-0.5-0.7-0.5
		c-0.4,0-0.6,0.2-0.7,0.5C136.6,56.7,136.6,57,136.5,57.4z"/>
	<path fill-rule="evenodd" clip-rule="evenodd" fill="#512972" d="M130.2,55.8c0.2-0.2,0.4-0.4,0.6-0.6c0.4-0.4,1-0.6,1.6-0.6
		c0.6,0,1,0.3,1.2,0.8c0.1,0.5,0.2,1,0.2,1.5c0,0.9,0,1.7,0,2.6c0,0.7-0.5,1.2-1.1,1.2c-0.7,0-1.1-0.5-1.1-1.2c0-0.9,0-1.8,0-2.7
		c0-0.4-0.1-0.6-0.4-0.7c-0.3-0.1-0.5,0-0.7,0.4c-0.1,0.2-0.2,0.5-0.2,0.7c0,0.8,0,1.5,0,2.3c0,0.7-0.5,1.2-1.1,1.1
		c-0.6,0-1.1-0.5-1.1-1.1c0-0.3,0-0.7,0-1c0-1.1,0-2.1,0-3.2c0-0.6,0.5-1.1,1.1-1.1c0.6,0,1.1,0.5,1.2,1.1
		C130.2,55.4,130.2,55.6,130.2,55.8z"/>
	<path fill-rule="evenodd" clip-rule="evenodd" fill="#512972" d="M107.3,55.8c0.2-0.2,0.4-0.4,0.6-0.6c0.4-0.4,0.9-0.6,1.5-0.6
		c0.7,0,1.1,0.3,1.3,1c0.1,0.4,0.2,0.9,0.2,1.3c0,0.9,0,1.8,0,2.6c0,0.7-0.5,1.2-1.1,1.2c-0.6,0-1.1-0.5-1.1-1.2c0-0.9,0-1.7,0-2.6
		c0-0.1,0-0.3,0-0.4c-0.1-0.2-0.2-0.4-0.4-0.4c-0.2,0-0.4,0-0.5,0.2c-0.2,0.3-0.3,0.6-0.4,0.9c0,0.8,0,1.5,0,2.3
		c0,0.7-0.5,1.2-1.1,1.2c-0.7,0-1.1-0.5-1.1-1.2c0-1.4,0-2.7,0-4.1c0-0.7,0.5-1.2,1.1-1.2c0.7,0,1.1,0.5,1.1,1.2
		C107.3,55.5,107.3,55.6,107.3,55.8z"/>
	<path fill-rule="evenodd" clip-rule="evenodd" fill="#512972" d="M159.1,55.7c0.1-0.1,0.2-0.3,0.3-0.3c0.3-0.3,0.7-0.6,1-0.7
		c1.1-0.4,1.9,0.1,2.1,1.2c0,0.3,0.1,0.7,0.1,1c0,0.9,0,1.8,0,2.7c0,0.5-0.4,1-0.9,1.1c-0.5,0.1-1-0.2-1.2-0.7
		c-0.1-0.1-0.1-0.3-0.1-0.4c0-0.9,0-1.8,0-2.7c0-0.1,0-0.3-0.1-0.4c-0.1-0.4-0.6-0.5-0.8-0.2c-0.3,0.3-0.4,0.6-0.4,1
		c0,0.8,0,1.6,0,2.3c0,0.5-0.4,1-0.9,1.1c-0.6,0.1-1.1-0.2-1.2-0.8c0-0.1,0-0.2,0-0.4c0-1.4,0-2.8,0-4.2c0-0.6,0.5-1.1,1.1-1.1
		c0.6,0,1.1,0.5,1.1,1.1C159,55.4,159,55.6,159.1,55.7C159,55.7,159,55.7,159.1,55.7z"/>
	<path fill-rule="evenodd" clip-rule="evenodd" fill="#512972" d="M156.1,57.4c0,1.8-1.5,3.2-3.3,3.2c-1.8,0-3.2-1.5-3.2-3.2
		c0-1.8,1.5-3.2,3.2-3.2C154.7,54.2,156.1,55.7,156.1,57.4z M153.9,57.5c-0.1-0.5-0.1-1-0.4-1.5c-0.3-0.6-0.9-0.6-1.2,0
		c0,0.1-0.1,0.2-0.1,0.2c-0.3,0.8-0.3,1.6,0,2.5c0.1,0.3,0.3,0.6,0.7,0.6c0.4,0,0.6-0.2,0.7-0.6C153.8,58.3,153.8,57.9,153.9,57.5z"
		/>
	<path fill-rule="evenodd" clip-rule="evenodd" fill="#512972" d="M118.3,58.1c0.3,1.1,1.9,1.4,3.3,0.7c-0.1,0.8-0.5,1.3-1.2,1.7
		c-1.8,0.8-3.8-0.2-4.3-2.1c-0.4-1.7,0.5-3.4,2.1-3.9c1-0.3,2-0.1,2.9,0.5c0.7,0.5,0.9,1.1,0.7,1.9c-0.1,0.5-0.5,0.9-1,1
		c-0.6,0.1-1.3,0.2-2,0.3C118.6,58.1,118.5,58.1,118.3,58.1z M118.1,57.1c0.3,0,0.5,0,0.8,0c0.4-0.1,0.7-0.4,0.8-0.7
		c0.1-0.3-0.1-0.6-0.3-0.7c-0.3-0.1-0.5-0.1-0.8,0.2C118.2,56.1,118.2,56.6,118.1,57.1z"/>
	<path fill-rule="evenodd" clip-rule="evenodd" fill="#512972" d="M173.6,60.1c-0.4,0.5-0.9,0.6-1.5,0.5c-0.9-0.2-1.4-0.8-1.4-1.8
		c0-2.2,0-4.5,0-6.7c0-0.6,0.5-1.1,1.1-1.1c0.6,0,1.1,0.5,1.1,1.2c0,2.2,0,4.4,0,6.6C173,59.3,173,59.8,173.6,60.1z"/>
	<path fill-rule="evenodd" clip-rule="evenodd" fill="#512972" d="M101.1,51.5c0.5-0.6,1.5-0.7,2.2-0.1c0.5,0.4,0.7,0.9,0.7,1.5
		c0,2.2,0,4.4,0,6.5c0,0.7-0.5,1.2-1.2,1.2c-0.6,0-1.1-0.5-1.1-1.2c0-2.2,0-4.4,0-6.6C101.7,52.3,101.6,51.8,101.1,51.5z"/>
	<path fill-rule="evenodd" clip-rule="evenodd" fill="#512972" d="M115.8,59.5c-0.6,1.2-1.8,1.6-2.9,0.6c-0.5-0.4-0.7-0.9-0.7-1.6
		c0-0.9,0-1.7,0-2.6c0-0.1,0-0.2,0-0.3c-0.6-0.1-0.7-0.2-0.7-0.5c0-0.3,0.1-0.4,0.7-0.5c0-0.2,0-0.5,0-0.7c0-0.6,0.5-1.1,1.1-1.1
		c0.6,0,1.1,0.5,1.2,1.1c0,0.2,0,0.5,0,0.7c0.3,0,0.5,0,0.8,0c0.4,0,0.6,0.1,0.6,0.5c0,0.4-0.2,0.5-0.6,0.5c-0.2,0-0.5,0-0.8,0
		c0,0.1,0,0.3,0,0.4c0,0.7,0,1.3,0,2c0,0.9,0.6,1.3,1.2,1.3C115.6,59.4,115.7,59.4,115.8,59.5z"/>
	<path fill-rule="evenodd" clip-rule="evenodd" fill="#512972" d="M142.2,55.7c-0.6-0.1-0.7-0.2-0.7-0.6c0-0.3,0.1-0.4,0.7-0.5
		c0-0.2,0-0.5,0-0.7c0-0.6,0.5-1.1,1.1-1.2c0.6,0,1.1,0.5,1.2,1.1c0,0.2,0,0.5,0,0.8c0.3,0,0.6,0,0.9,0c0.3,0,0.5,0.2,0.5,0.5
		c0,0.3-0.2,0.5-0.5,0.5c-0.3,0-0.6,0-0.9,0c0,0.1,0,0.2,0,0.3c0,0.7,0,1.4,0,2.1c0,0.9,0.6,1.3,1.2,1.4c0.1,0,0.1,0,0.2,0
		c-0.3,0.9-1.3,1.3-2.1,1.1c-0.9-0.3-1.5-1.1-1.5-2c0-0.9,0-1.7,0-2.6C142.2,55.9,142.2,55.8,142.2,55.7z"/>
	<path fill-rule="evenodd" clip-rule="evenodd" fill="#512972" d="M124.7,55.5c0.2-0.3,0.4-0.5,0.6-0.7c0.4-0.4,1-0.5,1.5-0.3
		c0.4,0.2,0.7,0.7,0.7,1.3c0,0.6-0.4,1.1-0.9,1.2c-0.6,0.2-0.9,0-1.1-0.6c0-0.1,0-0.1,0-0.2c-0.1-0.1-0.1-0.2-0.2-0.2
		c-0.1,0-0.3,0.1-0.3,0.1c-0.1,0.3-0.2,0.6-0.3,0.9c0,0.8,0,1.7,0,2.5c0,0.5-0.3,1-0.8,1.1c-0.5,0.1-1-0.1-1.2-0.5
		c-0.1-0.2-0.2-0.4-0.2-0.6c0-1.4,0-2.7,0-4.1c0-0.8,0.6-1.2,1.1-1.2c0.6,0,1.2,0.6,1.1,1.2C124.7,55.4,124.7,55.4,124.7,55.5z"/>
	<path fill-rule="evenodd" clip-rule="evenodd" fill="#512972" d="M146.7,57.6c0-0.6,0-1.2,0-1.8c0-0.6,0.5-1.1,1.1-1.1
		c0.6,0,1.1,0.4,1.2,1c0,1.3,0,2.6,0,3.9c0,0.5-0.6,1-1.1,1c-0.6,0-1.1-0.5-1.1-1.1c0,0,0,0,0-0.1C146.7,58.9,146.7,58.2,146.7,57.6
		z"/>
	<path fill-rule="evenodd" clip-rule="evenodd" fill="#512972" d="M149,52.9c0,0.6-0.5,1.1-1.1,1.1c-0.6,0-1.1-0.5-1.1-1.1
		c0-0.6,0.5-1.1,1.1-1.1C148.5,51.8,149,52.3,149,52.9z"/>
</g>
</svg>
