<?xml version="1.0" encoding="utf-8"?>
<!-- Generator: Adobe Illustrator 19.2.1, SVG Export Plug-In . SVG Version: 6.00 Build 0)  -->
<!DOCTYPE svg PUBLIC "-//W3C//DTD SVG 1.1//EN" "http://www.w3.org/Graphics/SVG/1.1/DTD/svg11.dtd">
<svg version="1.1" id="Layer_1" xmlns="http://www.w3.org/2000/svg" xmlns:xlink="http://www.w3.org/1999/xlink" x="0px" y="0px"
	 viewBox="0 0 246 88" style="enable-background:new 0 0 246 88;" xml:space="preserve">
<style type="text/css">
	.st0{fill-rule:evenodd;clip-rule:evenodd;fill:#D56764;}
	.st1{fill-rule:evenodd;clip-rule:evenodd;fill:#231F20;}
</style>
<g>
	<path class="st0" d="M105.1,35.1c0,0-7.4-4.1-13.6-2.1c0,0-0.4,0-0.7,0.5c-0.4,0.5-0.7,0.8-0.5,1.2c0.2,0.4,1.1,0.6,2,0.3
		c0,0,0.4-0.2-0.1-0.4c-0.5-0.2-0.7-0.2-0.7-0.2s-0.3-0.1,0-0.2c0.3-0.1,3.1-0.9,8,0.5c4.9,1.4,11.5,5.6,11.2,9.8
		c-0.3,4.2-6.9,4.2-6.9,4.2s-1.3,0-3.1-0.4c0-1.4,0-3.7,0.1-5.1c1.6,0.1,4.9,0.4,5.3,1.2c0,0,0.2,0.2-0.5,0.6
		c-0.5,0.3-0.9,0.4-0.5,0.6c0,0,0.6,0.4,1,0.3c0.4-0.1,1.4-0.5,1.6-1.6c0.1-1.1-1.2-2.2-3.1-2.6c-1.5-0.3-2.3-0.4-3.7-0.4
		c0-1.2-0.1-2.8-0.4-3.2c-0.3-0.5-0.7-1.1-1-0.4c-0.3,0.6-0.5,2-0.6,3.7c-2.1,0.3-4.5,1.1-5.2,2c-0.8,0.9,0,1.7,0,1.8
		c0.1,0.1,1.5,2.3,4.8,3.9c0,0.6,0.1,1.3,0.4,1.6c0.5,0.8,1.4,0.3,1.6,0.1c0.1-0.1,0.2-0.3,0.2-0.9c1.5,0.4,4.1,0.9,7,0.1
		c4.4-1.2,5.1-3.9,5.2-5.4C113.1,43,112.1,38.8,105.1,35.1L105.1,35.1z M100.8,43.1C100.8,43.1,100.8,43.1,100.8,43.1
		C101.1,43.1,101,43.1,100.8,43.1l-6.6,1.6c0,0-0.5-0.5,0.2-0.8c0.6-0.3,2-0.6,4.4-0.7c0,0.7-0.1,2.3-0.3,4.5
		c-1.5-0.6-3.1-1.5-4.4-2.9L100.8,43.1L100.8,43.1z"/>
	<path class="st0" d="M116.4,40.3c1.8-0.5,3.5-2.2,3.5-3.6c0.1-1.4-1.5-1.4-1.5-1.4c0,0,0,0,0,0c-0.2-0.9-1.8-0.8-1.8-0.8
		c-3.2,0.2-4.4,2.4-4.5,3c-0.1,0.5-0.1,1.3,0.5,1.9c-0.2,0.5-0.1,0.7,0,0.8c0.1,0.2,0.3,0.7,0.7,0.6c0.2,0,0.4-0.2,0.7-0.7
		C114.5,40.5,115.3,40.6,116.4,40.3L116.4,40.3z M118.6,37.4c-1,1.8-3,1.8-4.1,1.6c0.8-1.1,2.4-2.4,3.4-2.6
		C119.1,36.2,118.6,37.4,118.6,37.4L118.6,37.4z M113.4,37.2c0.5-0.7,1.1-1,1.9-1c-1,0.6-1.8,1.5-2.1,2.1
		C113.1,38,113.1,37.7,113.4,37.2L113.4,37.2z"/>
	<path class="st0" d="M115.6,46.2c0,0,0-2.7-0.1-3.2c0-0.6-0.2-0.8-0.4-1.1c-0.2-0.2-0.4-0.6-0.8-0.2c-0.4,0.3-0.5,2.6-0.6,4.3
		c-0.1,1.8,0,2.9,0.2,3.2c0.2,0.3,1,0.5,1.4,0.2c0.4-0.3,0.3-2.9,0.3-2.9V46.2L115.6,46.2z"/>
	<path class="st0" d="M137.4,48.5c0.1-0.4-0.3-0.9-0.6-1c-0.3-0.1-2.8,0.3-3.1,0.4c-0.3,0.1-0.2-0.2-0.2-0.2l0.4-1.3
		c0,0,2.3,0,2.7-0.1c0.3-0.1,0.4-0.3,0.4-0.3s0-0.4,0-0.7c0-0.4-0.3-0.3-0.3-0.3c-0.9-0.1-2.1,0-2.1,0l0.3-1l0.2,0
		c1.2,0,2.8-0.1,3.3-0.2c0.5-0.1,0.2-0.6,0.2-0.6c-0.6-1.2-1.2-1.1-1.2-1.1c-2-0.1-4.8,0.3-5.1,0.5c-0.3,0.1-0.3,0.4,0.1,0.8
		c0.4,0.5,1.1,0.5,1.1,0.5l-0.6,1.2c-0.5,0-0.7,0.2-0.7,0.2c-0.3,0.3,0.1,1.2,0.1,1.2s-0.1,0.3-0.3,0.7c-0.1,0.4-0.6,1.1,0,2.2
		c0.6,1.1,1.4,1,1.4,1C134.8,50.4,137.2,49,137.4,48.5L137.4,48.5z M123.7,43.2l-0.9,0.1c-1.5,0.1-4.4,0.2-4.8,0.5
		c0,0-0.2,0.2,0.1,0.3c0.3,0.1,1.5,0.3,2.1,0.3c0.6,0,2.7,0.1,3.5,1.1c0,0,0.4,0.5,0.4,1.5c0,1-0.2,1.4-0.7,1.8
		c-0.4,0.4-4.1,1.9-6.4-0.7c0,0-1-1.2,0.4-2.1c0,0,1.1-0.6,3.7,0.2c0,0,0.8,0.3,0.8,0.6c0,0.3-0.7,0.6-1.6,0.6
		c-0.9,0-1.5-0.5-1.5-0.5s-0.8-0.4-1.1-0.1c-0.3,0.4-0.2,0.6,0.1,0.8c0.3,0.2,1.4,0.2,1.4,0.2s3-0.1,3.6-0.9c0,0,0.4-0.4-0.2-0.8
		c-0.6-0.3-2.2-0.6-2.8-0.6c-0.6,0-2.9-0.1-3.2-0.7c0,0-0.3-0.4,0.1-1.6c0.4-1.2,3.1-1.6,4.2-1.6c0,0,3.1,0,3.7,0.6
		c0,0,0.1,0.1,0,0.4C124.3,42.8,124.2,43.1,123.7,43.2L123.7,43.2z M129.1,40.7c0,0-0.3-0.2-0.4,0.2c-0.1,0.3,0,0.7,0,0.7
		c0.8,3,0.9,4.7,0.9,4.7s0,0.5-0.1,0.5c-0.1,0-0.2,0-0.2,0c-0.1,0-1-1.6-1-1.6l-0.2-0.3c-1-1.7-1.6-2.3-1.6-2.3
		c-0.2-0.1-0.5-0.5-1,0c-0.5,0.5-0.9,2.2-1.1,3.8c-0.2,1.6-0.1,2.5,0.1,2.9c0.2,0.4,0.7,0.5,1.1,0.2c0.4-0.3,0.4-2.4,0.5-3.5
		c0.1-1.1,0.2-0.9,0.2-0.9c0.1,0,0.6,1,0.6,1s1.2,2.7,2,3.1c0.8,0.4,1.5-0.2,1.8-0.8c0.3-0.6,0.8-2.5,0.2-4.7
		C130.4,41.4,129.1,40.7,129.1,40.7L129.1,40.7z"/>
	<path class="st0" d="M145.1,43c-0.8-0.6-1.5,0-1.5,0c-1.4,0.7-3.1,2.8-4,4.1c-0.1-0.9,0.5-2,0.5-2l0.2-0.3c0.8-1.3,0.9-1.4,1-1.7
		c0.2-0.3,0.2-1.1,0.1-1.1c-0.2-0.1-0.4,0.2-0.4,0.2c-2.3,1.9-2.6,4.1-2.6,4.1c-0.2,1.1,0,1.9,0.3,2.5c-1.3,2.7-1.8,5.2-1.8,6.2
		c0,1.1,0.8,1.8,1.3,2c0.4,0.2,0.5-0.4,0.5-0.4c0.4-2.7,1.1-4.6,1.9-6.4c2.2,0.6,4.1-1.8,4.7-2.7c0.7-1,0.7-2.4,0.7-2.4
		C145.9,44.9,145.9,43.6,145.1,43L145.1,43z M143.5,47.4c-0.3,0.2-1.1,0.7-2,0.8c0.9-1.6,2-2.8,2.6-3.5c0.7-0.8,0.8,0,0.8,0
		C145,46,144,47,143.5,47.4L143.5,47.4z"/>
	<path class="st0" d="M80.3,39.5c-0.2,0-0.6-0.1-0.7,0.1c-0.1,0.2,0,0.3,0,0.3s-1.7,2-2.9,4.6c-0.3,0-0.6,0-0.8,0
		c0.5-1.2,0.7-2.5,0.8-4c0.3-5.9-4.1-8.8-4.1-8.8s-2.2-0.7-2.4-0.2c-0.2,0.4,1.7,0.5,1.7,0.5c3,2.5,2.7,7.2,2.7,7.2
		c-0.3,6.8-3.7,8.7-5.3,8.7c-1,0-1.5-0.7-1.8-1.2c1.2-1,2.1-2.2,2.6-2.9c0.8-1.2,0.9-2.2,0.9-2.2c0.5-3.7-1.6-3.8-1.6-3.8
		c-3.3,0-4.4,3.1-4.5,5.6c0,1,0.1,2.2,0.5,3.3c-1,0.4-2.1,0.6-2.7-0.6c-0.8-1.7-0.3-4.5,0.6-7c0.9-2.5,2.8-4.3,3.2-4.8
		c0.4-0.4,0.5-0.7,0.5-0.7c0.1-0.5-0.4-0.4-0.4-0.4c-1,0.2-2.4,1.6-2.4,1.6c-3.2,3-3.8,6.7-3.9,8.7c-0.1,2,0.7,4.7,3.6,4.7
		c0.7,0,1.3-0.2,1.9-0.4c0.7,1.3,1.8,2.2,3.4,2.3c2.5,0,5.1-1.9,6.4-5.2c0.1,0.1,0.2,0.4,0.5,0.7c-0.2,0.5-0.3,0.9-0.5,1.4
		c0,0-0.3,1.2,0.2,1.8c0,0,0.3,0.3,1,0.3c0,0,0.3,0.1,0.4-0.4c0-0.2,0.4-1.2,0.8-2.3c1.5,0.1,2.1,0,2.1,0s-0.2,1.4,0.3,1.8
		c0.5,0.4,0.8,0.6,0.9,0.6c0.1,0,0.3,0.2,0.3-0.2c0-0.4,0.3-6-1.2-8.6C80.5,39.7,80.5,39.5,80.3,39.5L80.3,39.5z M67.6,40.1
		c0.2-1,0.5-1.6,0.8-1.6c0.3,0,0.4,0.4,0.4,0.4c0.6,1.9-0.7,4.7-1.8,6.1C67,42.7,67.5,41,67.6,40.1L67.6,40.1z M78.8,44.4
		c0.4-0.9,0.8-1.7,1.1-2c0,0,0.2,0.6,0.3,2.1C80.1,44.5,79.6,44.4,78.8,44.4L78.8,44.4z"/>
	<path class="st0" d="M86.1,45.1c-0.5,0.3-1.6,0.8-2.2,0.9c0,0-0.2,0.1-0.2-0.2c0-0.3,0.2-2.4,1-4.6c0,0,0.3-0.8-0.1-1.3
		c0,0-0.3-0.5-0.7,0c-0.4,0.5-1.1,1.7-1.5,3.5l-0.1,0.5c0,0-1,4,1.2,4.3c2.2,0.4,3.3-2.1,3.3-2.5C86.8,45.3,86.7,44.9,86.1,45.1
		L86.1,45.1z"/>
	<path class="st0" d="M90.8,40.1c0,0-1.1-0.3-2.3,1.5c-2.3-0.5-2.3-1.1-2.3-1.3c-0.1-0.2,0.1-0.2-0.1-0.3c-0.1-0.1-0.3,0.1-0.3,0.1
		c-0.4,0.4-0.2,1.2-0.2,1.2c0.3,1,1.5,1.5,2.2,1.8c-0.8,2.1-0.9,4.5-0.8,5.6c0.1,1.2,1.3,2.2,1.8,2.1c0.6-0.1,0.4-1.2,0.4-1.2
		c-0.2-2.9,0-4.7,0.4-6c2.6,0.4,2.8-1.3,2.8-1.3C92.5,40.1,90.8,40.1,90.8,40.1L90.8,40.1z M91.3,41.2c-0.1,0.4-0.7,0.5-1.3,0.5
		c0.3-0.6,0.6-0.7,0.9-0.8C91.4,40.8,91.3,41.2,91.3,41.2L91.3,41.2z"/>
	<path class="st1" d="M36,47.8h-5.3v-0.3c1.7-0.1,1.7-0.5,1.7-1.8v-9.1h-1c-2,0-2.5,0.3-2.9,2.3h-0.4l0.1-3.1h10.3l0.1,3.1h-0.4
		c-0.4-2-0.9-2.3-2.9-2.3h-1v9.3c0,1.2,0.2,1.6,1.7,1.6V47.8L36,47.8z"/>
	<path class="st1" d="M47.8,47.8h-3.9v-0.3c0.9-0.1,1.2-0.2,1.2-1.6v-3.6c0-1.2-0.4-1.9-1.4-1.9c-0.5,0-1.2,0.3-2,1.1V46
		c0,1.4,0.3,1.5,1.2,1.6v0.3h-3.9v-0.3c1-0.1,1.2-0.3,1.2-1.6v-8.6c0-0.5,0-0.9-0.8-0.9c-0.1,0-0.3,0-0.3,0v-0.3
		c0.8-0.2,1.7-0.5,2.6-0.8l0.1,0.1V41h0c0.6-0.9,1.5-1.5,2.6-1.5c2.2,0,2.3,2.2,2.3,2.9V46c0,1.3,0.2,1.4,1.1,1.6V47.8L47.8,47.8z"
		/>
	<path class="st1" d="M55.7,45c-0.2,0.6-1.2,3-3.9,3c-2,0-3.4-1.5-3.4-4.1c0-3.4,2.3-4.5,3.7-4.5c1.7,0,3,0.9,3.2,3.3h-5.7
		c0.2,3.2,1.7,4,2.9,4c1.6,0,2.4-1.2,2.8-1.9L55.7,45L55.7,45z M53.5,42.2c-0.1-0.9-0.3-2.1-1.7-2.1c-1,0-1.7,0.5-2,2.1H53.5
		L53.5,42.2z"/>
	<path class="st1" d="M160.5,39.8c-0.5-1.9-1.8-3.4-4-3.4c-0.9,0-2,0.4-2.7,1.1c-0.7,0.7-1.5,1.9-1.5,4.5c0,3.9,2.2,5.4,4.5,5.4
		c2.2,0,3.6-1.3,4.1-1.8l0.3,0.3c0,0-1.6,2.3-4.9,2.3c-2.9,0-6.1-1.7-6.1-6.3c0-4.1,3.1-6.3,6.2-6.3c1.6,0,2.8,0.6,3.2,0.6
		c0.1,0,0.7,0,0.8-0.6h0.4l0.2,4.1H160.5L160.5,39.8z"/>
	<path class="st1" d="M169.9,43.9c0,1.8-1.3,4.3-4,4.3c-2.4,0-4-1.9-4-4.3c0-2.2,1.5-4.2,3.9-4.2C168.2,39.7,169.9,41.3,169.9,43.9
		L169.9,43.9z M168.3,44.4c0-2.3-0.9-4.2-2.6-4.2c-1.1,0-2.2,0.9-2.2,2.8c0,1.3,0.4,4.7,2.6,4.7C167.1,47.7,168.3,47,168.3,44.4
		L168.3,44.4z"/>
	<path class="st1" d="M171.7,41.9c0-1.1-0.3-1.2-0.6-1.2c-0.3,0-0.4,0-0.6,0.1v-0.3c0.9-0.2,1.7-0.5,2.6-0.8l0.1,0v1.4
		c1.1-0.8,1.8-1.4,2.8-1.4c1.2,0,1.7,0.8,1.9,1.5c0.4-0.4,1.5-1.5,2.9-1.5c1.9,0,2.1,1.9,2.1,3.2v3.8c0,0.4,0,0.9,0.8,1.1l0.5,0V48
		h-4v-0.3c0.9-0.1,1.2-0.1,1.2-1.3v-3.8c0-0.9,0-2-1.3-2c-1,0-1.6,0.5-2,1.1v4.6c0,1.4,0.6,1.4,1.3,1.5V48h-4.1v-0.3
		c0.8-0.1,1.2-0.1,1.2-1.3v-4c0-1.2-0.3-1.9-1.3-1.9c-1.3,0-2.1,1-2.1,1.1v5.1c0,0.9,0.6,0.9,1.2,0.9V48h-4v-0.3
		c0.7,0,1.3-0.1,1.3-1.3V41.9L171.7,41.9z"/>
	<path class="st1" d="M185.6,41.9c0-0.7-0.1-1-0.7-1c-0.2,0-0.3,0-0.5,0v-0.3c0.9-0.3,1.8-0.6,2.6-0.9l0.1,0V41l0,0
		c0.4-0.5,1.2-1.4,2.6-1.4c1.6,0,3,1.5,3,3.9c0,2.1-1.3,4.6-3.8,4.6c-0.7,0-1.2-0.2-1.8-0.8v2.9c0,1.2,0.3,1.4,1.6,1.4V52h-4.4v-0.3
		c1.2-0.1,1.3-0.5,1.3-1.3V41.9L185.6,41.9z M187.2,46.4c0,0.4,0.9,1.2,1.9,1.2c0.6,0,2.2-0.3,2.2-3.5c0-0.4-0.1-3.4-2.3-3.4
		c-0.7,0-1.7,0.5-1.8,1.2V46.4L187.2,46.4z"/>
	<path class="st1" d="M201.2,47.3c-0.8,0.9-1.3,0.9-1.6,0.9c-0.3,0-1.1,0-1.2-1.3c-0.7,0.6-1.6,1.3-2.6,1.3c-1,0-1.9-0.7-1.9-1.9
		c0-1.8,1.6-2.4,4.6-3.6v-1.1c0-1.3-0.9-1.5-1.4-1.5c-0.6,0-1.3,0.3-1.3,0.9c0,0.3,0.1,0.5,0.1,0.7c0,0.4-0.3,0.8-0.8,0.8
		c-0.6,0-0.8-0.5-0.8-0.8c0-0.7,0.9-2,3-2c2.7,0,2.7,1.8,2.7,2.9v3.6c0,0.5,0,1.1,0.5,1.1c0.4,0,0.6-0.2,0.8-0.3V47.3L201.2,47.3z
		 M198.4,43.2c-2.8,0.9-3,1.9-3,2.6v0c0,0.9,0.5,1.4,1.2,1.4c0.4,0,1-0.2,1.1-0.3c0.6-0.3,0.6-0.5,0.6-1V43.2L198.4,43.2z"/>
	<path class="st1" d="M202.7,41.9c0-1.1-0.3-1.2-0.6-1.2c-0.3,0-0.5,0-0.5,0.1v-0.3c0.8-0.2,1.7-0.5,2.5-0.8l0.1,0v1.4
		c0.9-0.8,1.6-1.5,2.7-1.5c0.8,0,2.1,0.5,2.1,2.7v4.2c0,0.9,0.2,1.1,1.1,1.2V48h-3.8v-0.3c0.7-0.1,1.1-0.1,1.1-1.5v-3.8
		c0-1.1-0.3-1.8-1.4-1.8c-0.5,0-1.1,0.4-1.8,1v5.1c0,0.6,0.3,0.9,1.2,0.9V48h-3.9v-0.3c0.9-0.1,1.1-0.3,1.1-1.4V41.9L202.7,41.9z"/>
	<path class="st1" d="M217.9,40.1c-0.2,0-0.6,0.1-0.9,0.8l-2.8,7.4c-0.9,2.4-1.7,3.6-3.1,3.6c-0.9,0-1.3-0.6-1.3-1.1
		c0-0.1,0-0.8,0.9-0.8c0.5,0,1.1,0.3,1.3,0.3c0.9,0,1.7-2.5,1.7-2.8c0-0.3-0.9-1.9-1.1-2.5l-2.1-4.5c-0.2-0.5-0.7-0.5-0.9-0.6v-0.3
		h3.8v0.3c-0.4,0-1.1,0-1.1,0.5c0,0.2,0.1,0.5,0.2,0.7l2.1,4.6l1.4-4c0.2-0.5,0.4-1.1,0.4-1.2c0-0.3-0.3-0.5-0.9-0.5v-0.3h2.5V40.1
		L217.9,40.1z"/>
</g>
</svg>
