<?xml version="1.0" encoding="utf-8"?>
<!-- Generator: Adobe Illustrator 17.1.0, SVG Export Plug-In . SVG Version: 6.00 Build 0)  -->
<!DOCTYPE svg PUBLIC "-//W3C//DTD SVG 1.1//EN" "http://www.w3.org/Graphics/SVG/1.1/DTD/svg11.dtd">
<svg version="1.1" id="Layer_1" xmlns="http://www.w3.org/2000/svg" xmlns:xlink="http://www.w3.org/1999/xlink" x="0px" y="0px"
	 viewBox="0 0 246 88" enable-background="new 0 0 246 88" xml:space="preserve">
<g>
	<polygon fill-rule="evenodd" clip-rule="evenodd" fill="#006BAD" points="28.1,38.3 25.8,43.4 22.4,38.4 22.5,38.3 18.5,38.3 
		13.7,48.5 17.8,48.5 20.2,43.3 23.7,48.5 27.4,48.5 32.2,38.3 28.1,38.3 	"/>
	<polygon fill-rule="evenodd" clip-rule="evenodd" fill="#006BAD" points="13.7,48.5 18.5,38.2 22.4,38.2 25.8,43.4 28.2,38.2 
		32.2,38.2 27.4,48.5 23.7,48.5 20.2,43.3 17.8,48.5 13.7,48.5 	"/>
	<polygon fill-rule="evenodd" clip-rule="evenodd" fill="#006BAD" points="211.1,48.5 215.8,38.2 219.7,38.2 223.1,43.4 225.5,38.2 
		229.5,38.2 224.7,48.5 221,48.5 217.5,43.3 215,48.5 211.1,48.5 	"/>
	<path fill-rule="evenodd" clip-rule="evenodd" fill="#006BAD" d="M138.1,48.2c-0.8,0.2-1.3,0.3-2.2,0.4c-1,0.1-1.6,0.1-2.4,0.1
		c-0.8,0-1.4-0.1-2.1-0.2c-0.6-0.2-1.2-0.4-1.6-0.6c-0.8-0.5-1.3-1.2-1.4-1.9c-0.3-0.8-0.1-1.6,0.3-2.6c0.4-0.7,0.8-1.4,1.4-2.1
		c0.5-0.6,1.3-1.2,2.2-1.7c0.9-0.5,1.9-0.8,2.8-1.1c1-0.3,2-0.4,3.1-0.4c0.8,0,1.5,0.1,2.2,0.2c0.6,0.2,1.3,0.4,2,0.6l-1.1,2.4
		c-0.5-0.3-1.1-0.5-1.6-0.6c-0.5-0.1-1.1-0.2-1.7-0.2c-1.1,0-2.1,0.3-3,0.7c-0.9,0.5-1.5,1.3-1.9,2.1c-0.4,0.8-0.4,1.5,0,2
		c0.5,0.5,1.1,0.8,2,0.8c0.2,0,0.4,0,0.5-0.1c0.2,0,0.2,0,0.4-0.1l0.6-1.2h-1.6l1.2-2.1h4.6L138.1,48.2L138.1,48.2z"/>
	<path fill-rule="evenodd" clip-rule="evenodd" fill="#006BAD" d="M114.6,40.1h0.9c0.6,0,1.1,0.1,1.3,0.4c0.2,0.2,0.2,0.5-0.1,1
		c-0.2,0.5-0.5,0.9-1,1.1c-0.4,0.3-1,0.4-1.7,0.4h-0.8L114.6,40.1L114.6,40.1z M110.7,48.5l1.7-3.7h1.3c1.8,0,3.2-0.3,4.4-0.8
		c1.2-0.6,2.1-1.4,2.5-2.5c0.5-1.1,0.4-1.9-0.2-2.4c-0.7-0.5-1.9-0.8-3.7-0.8h-5.6l-4.8,10.3H110.7L110.7,48.5z"/>
	<polygon fill-rule="evenodd" clip-rule="evenodd" fill="#006BAD" points="66,48.5 70.9,38.2 75.3,38.2 73.5,42 78,42 79.8,38.2 
		84.2,38.2 79.2,48.5 74.8,48.5 76.6,44.7 72.2,44.7 70.3,48.5 66,48.5 	"/>
	<polygon fill-rule="evenodd" clip-rule="evenodd" fill="#006BAD" points="57.5,48.5 61.2,40.9 57.5,40.9 58.8,38.2 70.4,38.2 
		69.1,40.9 65.4,40.9 61.6,48.5 57.5,48.5 	"/>
	<path fill-rule="evenodd" clip-rule="evenodd" fill="#006BAD" d="M36.3,41.7c0.6-0.4,1.3-0.6,2.1-0.6c0.7,0,1.2,0.3,1.5,0.6
		c0.3,0.5,0.3,1,0,1.7c-0.3,0.6-0.8,1.2-1.4,1.6c-0.6,0.5-1.3,0.6-2.1,0.6c-0.7,0-1.2-0.2-1.5-0.6c-0.3-0.5-0.3-1,0-1.6
		C35.1,42.7,35.7,42.1,36.3,41.7L36.3,41.7z M30.3,45.5c0,0.6,0.3,1.2,0.7,1.7c0.4,0.5,1,0.9,1.7,1.2c0.6,0.2,1.4,0.4,2.4,0.4
		c0.9,0,1.9-0.2,2.8-0.4c0.9-0.3,1.8-0.6,2.6-1.2c0.9-0.5,1.6-1.1,2.2-1.7c0.6-0.6,1.1-1.4,1.4-2.1c0.3-0.8,0.4-1.5,0.4-2.2
		c0-0.6-0.3-1.2-0.7-1.7c-0.4-0.5-1-0.8-1.6-1.1c-0.7-0.3-1.5-0.4-2.5-0.4c-0.9,0-1.9,0.1-2.8,0.4c-0.9,0.3-1.8,0.6-2.6,1.1
		c-0.9,0.5-1.6,1.1-2.2,1.7c-0.5,0.6-1,1.4-1.3,2.2C30.4,44.1,30.2,44.8,30.3,45.5L30.3,45.5z"/>
	<path fill-rule="evenodd" clip-rule="evenodd" fill="#006BAD" d="M100.5,41.7c0.6-0.4,1.3-0.6,2.1-0.6c0.7,0,1.2,0.3,1.4,0.6
		c0.4,0.5,0.4,1,0.1,1.7c-0.4,0.6-0.8,1.2-1.4,1.6c-0.6,0.5-1.3,0.6-2.1,0.6S99.3,45.5,99,45c-0.3-0.5-0.3-1,0-1.6
		C99.3,42.7,99.7,42.1,100.5,41.7L100.5,41.7z M94.4,45.5c0,0.6,0.3,1.2,0.7,1.7c0.4,0.5,1,0.9,1.6,1.2c0.7,0.2,1.5,0.4,2.5,0.4
		c0.9,0,1.8-0.2,2.8-0.4c0.9-0.3,1.8-0.6,2.6-1.2c0.9-0.5,1.6-1.1,2.2-1.7c0.6-0.6,1.1-1.4,1.4-2.1c0.3-0.8,0.4-1.5,0.4-2.2
		c0-0.6-0.3-1.2-0.7-1.7c-0.4-0.5-1-0.8-1.7-1.1c-0.6-0.3-1.5-0.4-2.4-0.4c-1,0-1.9,0.1-2.8,0.4c-0.9,0.3-1.8,0.6-2.6,1.1
		c-0.9,0.5-1.6,1.1-2.2,1.7c-0.5,0.6-1,1.4-1.3,2.2C94.4,44.1,94.3,44.8,94.4,45.5L94.4,45.5z"/>
	<path fill-rule="evenodd" clip-rule="evenodd" fill="#006BAD" d="M156.3,38.2h4.2l-2.5,5.5c-0.4,0.7-0.5,1.3-0.2,1.6
		c0.2,0.4,0.6,0.5,1.4,0.5c0.7,0,1.3-0.2,1.9-0.5c0.5-0.4,1-0.9,1.3-1.6l2.5-5.5h4.2l-2.5,5.6c-0.7,1.6-1.9,2.8-3.3,3.6
		c-1.4,0.8-3.2,1.3-5.4,1.3c-2.1,0-3.5-0.5-4.2-1.3c-0.7-0.8-0.7-2,0-3.6L156.3,38.2L156.3,38.2z"/>
	<path fill-rule="evenodd" clip-rule="evenodd" fill="#006BAD" d="M206.9,40.9l-0.1,3.9h-3.5L206.9,40.9L206.9,40.9z M199.9,48.5
		l1.6-1.8h5.3v1.8h4l-0.5-10.3H206l-10.3,10.3H199.9L199.9,48.5z"/>
	<path fill-rule="evenodd" clip-rule="evenodd" fill="#006BAD" d="M56.9,39c-0.7-0.5-2-0.7-3.9-0.7h-5.8l-4.8,10.3h4.2l2.1-4.3H50
		c1.1,0.1,1.4,1.4,1.4,3.4c0,0.2,0,0.5,0,0.9h4l-0.2-3.3c0-0.4-0.1-0.9-0.3-1.2c-0.1-0.2-0.4-0.4-0.5-0.5c0.7-0.3,1.1-0.5,1.6-1
		c0.5-0.4,0.8-0.9,1.1-1.4C57.6,40.2,57.5,39.5,56.9,39L56.9,39z M53.2,41.4c-0.1,0.4-0.5,0.7-1,0.9c-0.4,0.2-1.3,0.4-2.1,0.4h-0.8
		l1.3-2.8h0.8c0.7,0,1.3,0.2,1.5,0.4C53.2,40.4,53.4,40.9,53.2,41.4L53.2,41.4z"/>
	<path fill-rule="evenodd" clip-rule="evenodd" fill="#006BAD" d="M95,39c-0.7-0.5-2-0.7-3.9-0.7h-5.7l-4.9,10.3h4.2l2.1-4.3H88
		c1.1,0.1,1.5,1.4,1.5,3.4c0,0.2-0.1,0.5-0.1,0.9h4l-0.1-3.3c-0.1-0.4-0.2-0.9-0.4-1.2c-0.1-0.2-0.3-0.4-0.5-0.5
		c0.7-0.3,1.2-0.5,1.6-1c0.4-0.4,0.8-0.9,1.1-1.4C95.7,40.2,95.6,39.5,95,39L95,39z M91.3,41.4c-0.1,0.4-0.5,0.7-1,0.9
		c-0.4,0.2-1.3,0.4-2,0.4h-0.9l1.3-2.8h0.8c0.7,0,1.3,0.2,1.5,0.4C91.4,40.4,91.5,40.9,91.3,41.4L91.3,41.4z"/>
	<path fill-rule="evenodd" clip-rule="evenodd" fill="#006BAD" d="M153.6,39c-0.6-0.5-1.9-0.7-3.9-0.7h-5.7l-4.9,10.3h4.3l2.1-4.3
		h1.2c1.1,0.1,1.4,1.4,1.4,3.4c0,0.2,0,0.5,0,0.9h4l-0.2-3.3c0-0.4-0.2-0.9-0.3-1.2c-0.1-0.2-0.4-0.4-0.5-0.5c0.7-0.3,1.1-0.5,1.5-1
		c0.5-0.4,0.9-0.9,1.1-1.4C154.5,40.2,154.4,39.5,153.6,39L153.6,39z M150,41.4c-0.1,0.4-0.6,0.7-1,0.9c-0.4,0.2-1.3,0.4-2.1,0.4
		h-0.8l1.3-2.8h0.8c0.7,0,1.3,0.2,1.5,0.4C150,40.4,150.2,40.9,150,41.4L150,41.4z"/>
	<polygon fill-rule="evenodd" clip-rule="evenodd" fill="#006BAD" points="165.5,48.5 170.3,38.2 174.2,38.2 175.6,42.3 180.5,38.2 
		184.5,38.2 179.7,48.5 175.7,48.5 178.4,42.7 173.3,46.8 172.1,42.8 169.5,48.5 165.5,48.5 	"/>
	<polygon fill-rule="evenodd" clip-rule="evenodd" fill="#006BAD" points="180.9,48.5 185.8,38.2 189.7,38.2 191,42.3 195.9,38.2 
		200,38.2 195.2,48.5 191.1,48.5 193.9,42.7 188.8,46.8 187.6,42.8 184.9,48.5 180.9,48.5 	"/>
	<path fill="#006BAD" d="M35.7,75.9l-0.2-0.2c35.1-24.9,134.1-24.3,181.6-24c5.9,0,10.9,0.1,15.1,0l0,0.3c-4.2,0-9.2,0-15.1,0
		C169.7,51.7,70.8,51.1,35.7,75.9z"/>
</g>
</svg>
