<?xml version="1.0" encoding="utf-8"?>
<!-- Generator: Adobe Illustrator 17.1.0, SVG Export Plug-In . SVG Version: 6.00 Build 0)  -->
<!DOCTYPE svg PUBLIC "-//W3C//DTD SVG 1.1//EN" "http://www.w3.org/Graphics/SVG/1.1/DTD/svg11.dtd">
<svg version="1.1" id="Layer_1" xmlns="http://www.w3.org/2000/svg" xmlns:xlink="http://www.w3.org/1999/xlink" x="0px" y="0px"
	 viewBox="0 0 246 88" enable-background="new 0 0 246 88" xml:space="preserve">
<g>
	<circle fill="#595959" cx="44.9" cy="38.5" r="2.1"/>
	<circle fill="#595959" cx="46.1" cy="45.4" r="3"/>
	<circle fill="#595959" cx="29.4" cy="41.1" r="4.4"/>
	<path fill="#595959" d="M41.4,40.1c0,0-1.4-2.4,1.4-9.1c1.3-3.1,1.3-12.1-7-12.1c-4.2,0-7.3,3.4-7.6,7.6
		C27.8,32.6,36,39.1,41.4,40.1z"/>
	<path fill="#595959" d="M41.4,42.6c-6.7,1.3-17.5,9.5-17,17c0.4,5.2,4.2,9.4,9.4,9.4c10.4,0,10-11,8.8-15.1
		C40.2,45.5,41.4,42.6,41.4,42.6z"/>
	<path fill="#595959" d="M64.2,48.3c0.5,0.1,0.9,0.2,1.3,0.4c-0.4-0.2-0.8-0.3-1.3-0.5V48.3z"/>
	<path fill="#595959" d="M67.7,26.8c-0.7-0.7-1.6-1.2-2.6-1.6c-1-0.3-2.1-0.5-3.2-0.5h-9.7v1.2c0,0,0,0,0,0v14.7c0,0,0,0,0,0v1.2
		h9.7c1.2,0,2.2-0.2,3.2-0.5c1-0.3,1.9-0.9,2.6-1.6c0.7-0.7,1.3-1.6,1.7-2.7c0.4-1.1,0.6-2.3,0.6-3.8c0-1.4-0.2-2.7-0.6-3.8
		C69,28.4,68.4,27.6,67.7,26.8z M66.1,36.1c-0.2,0.7-0.6,1.3-1.1,1.8c-0.5,0.4-1.1,0.8-1.8,0.9c-0.7,0.2-1.6,0.3-2.6,0.3h-4.9V27.5
		h4.9c1,0,1.8,0.1,2.6,0.3c0.7,0.2,1.3,0.5,1.8,0.9c0.5,0.4,0.8,1,1.1,1.8c0.2,0.7,0.4,1.7,0.4,2.8C66.4,34.4,66.3,35.3,66.1,36.1z"
		/>
	<path fill="#595959" d="M89.8,40.6l-4.3-6.1c1.4-0.3,2.6-0.8,3.4-1.5c0.8-0.7,1.3-1.8,1.3-3.2c0-0.9-0.2-1.7-0.5-2.3
		c-0.3-0.6-0.8-1.1-1.4-1.5c-0.6-0.4-1.3-0.7-2.2-0.9c-0.8-0.2-1.8-0.3-2.8-0.3H73v16.8h3.7v-2.7v-4.1h4.7l2.6,3.6l0,0l2.3,3.2h4.2
		L89.8,40.6C89.8,40.6,89.8,40.6,89.8,40.6z M82.4,32.2h-5.6v-4.7h5.6c0.8,0,1.4,0.1,2,0.2c0.5,0.1,0.9,0.3,1.2,0.5
		c0.3,0.2,0.5,0.5,0.7,0.8c0.1,0.3,0.2,0.6,0.2,0.9s-0.1,0.7-0.2,0.9c-0.1,0.3-0.3,0.5-0.7,0.8c-0.3,0.2-0.7,0.4-1.2,0.5
		C83.8,32.2,83.2,32.2,82.4,32.2z"/>
	<path fill="#595959" d="M121.6,29.8c0-1.8-0.6-3.1-1.8-3.9c-1.2-0.8-2.9-1.1-5-1.1h-10.4v17h3.7v-6.1h0v-0.8h6.6
		c2.1,0,3.8-0.4,5-1.1C121,32.9,121.6,31.6,121.6,29.8z M117.1,31.4c-0.5,0.3-1.1,0.4-1.9,0.4h-7v-4.1h7c0.7,0,1.3,0.1,1.9,0.4
		c0.5,0.3,0.8,0.8,0.8,1.6C117.9,30.6,117.6,31.2,117.1,31.4z"/>
	<path fill="#595959" d="M207.2,38.8L207.2,38.8l0-4.1h4.6l2.6,3.6l0,0l2.3,3.2h4.1l-0.7-1c0,0,0,0,0,0l-4.3-6.1
		c1.4-0.3,2.5-0.8,3.4-1.5c0.8-0.7,1.2-1.8,1.2-3.2c0-0.9-0.2-1.7-0.5-2.3c-0.3-0.6-0.8-1.1-1.4-1.5c-0.6-0.4-1.3-0.7-2.1-0.9
		c-0.8-0.2-1.8-0.3-2.8-0.3h-10v16.8h3.6V38.8z M207.2,27.5h5.5c0.8,0,1.4,0.1,1.9,0.2c0.5,0.1,0.9,0.3,1.2,0.5
		c0.3,0.2,0.5,0.5,0.6,0.8c0.1,0.3,0.2,0.6,0.2,0.9c0,0.3-0.1,0.7-0.2,0.9c-0.1,0.3-0.3,0.5-0.6,0.8c-0.3,0.2-0.7,0.4-1.2,0.5
		c-0.5,0.1-1.2,0.2-1.9,0.2h-5.5V27.5z"/>
	<path fill="#595959" d="M149,35.7L149,35.7l0-0.8h6.5c2.1,0,3.7-0.4,4.9-1.1c1.2-0.8,1.8-2.1,1.8-3.9c0-1.8-0.6-3.1-1.8-3.9
		c-1.2-0.8-2.8-1.1-4.9-1.1h-10.2v17h3.7V35.7z M149,27.7h6.9c0.7,0,1.3,0.1,1.8,0.4c0.5,0.3,0.8,0.8,0.8,1.7c0,0.8-0.3,1.4-0.8,1.7
		c-0.5,0.3-1.1,0.4-1.8,0.4H149V27.7z"/>
	<path fill="#595959" d="M168.8,35.7L168.8,35.7l0-0.8h6.5c2.1,0,3.7-0.4,4.9-1.1c1.2-0.8,1.8-2.1,1.8-3.9c0-1.8-0.6-3.1-1.8-3.9
		c-1.2-0.8-2.8-1.1-4.9-1.1h-10.2v17h3.7V35.7z M168.8,27.7h6.9c0.7,0,1.3,0.1,1.8,0.4c0.5,0.3,0.8,0.8,0.8,1.7
		c0,0.8-0.3,1.4-0.8,1.7c-0.5,0.3-1.1,0.4-1.8,0.4h-6.9V27.7z"/>
	<polygon fill="#595959" points="140.9,41.5 140.9,38.5 129.3,38.5 129.3,34.2 139.2,34.2 139.2,31.2 129.3,31.2 129.3,27.7 
		140.9,27.7 140.9,24.8 125.5,24.8 125.5,41.5 	"/>
	<polygon fill="#595959" points="200.1,41.5 200.1,38.5 188.5,38.5 188.5,34.2 198.3,34.2 198.3,31.2 188.5,31.2 188.5,27.7 
		200,27.7 200,24.8 184.6,24.8 184.7,41.5 	"/>
	<polygon fill="#595959" points="177,57.9 186.8,57.9 186.8,54.8 177,54.8 177,51.3 188.5,51.3 188.5,48.2 173.1,48.2 173.1,65.3 
		188.5,65.3 188.5,62.3 177,62.3 	"/>
	<path fill="#595959" d="M130.7,49.4c-1.2-0.8-2.9-1.1-5-1.1h-10.4v17h3.7v-6.1h0v-0.8h6.6c2.1,0,3.8-0.4,5-1.1
		c1.2-0.8,1.8-2.1,1.8-3.9C132.5,51.4,131.9,50.1,130.7,49.4z M128,54.9c-0.5,0.3-1.1,0.4-1.9,0.4h-7v-4.1h7c0.7,0,1.3,0.1,1.9,0.4
		c0.5,0.3,0.8,0.8,0.8,1.6C128.8,54.1,128.5,54.6,128,54.9z"/>
	<path fill="#595959" d="M150.2,49.4c-1.2-0.8-2.9-1.1-5-1.1h-10.4v17h3.7v-6.1h0v-0.8h6.6c2.1,0,3.8-0.4,5-1.1
		c1.2-0.8,1.8-2.1,1.8-3.9C152,51.4,151.4,50.1,150.2,49.4z M147.5,54.9c-0.5,0.3-1.1,0.4-1.9,0.4h-7v-4.1h7c0.7,0,1.3,0.1,1.9,0.4
		c0.5,0.3,0.8,0.8,0.8,1.6C148.2,54.1,148,54.6,147.5,54.9z"/>
	<polygon fill="#595959" points="158.6,48.2 155.3,48.2 155.3,65.3 170.7,65.3 170.7,61.9 158.6,61.9 	"/>
	<polygon fill="#595959" points="86.9,59.8 76.2,48.2 72.4,48.2 72.3,65.3 75.7,65.3 75.7,53 87,65.3 90.3,65.3 90.3,48.2 
		86.9,48.2 	"/>
	<path fill="#595959" d="M100.7,48.2l-8.1,17.1h3.8l1.8-3.8h9.1l1.6,3.8l4,0l-8-17.1H100.7z M102.8,58.6l-3.4,0l1.7-3.7l1.7-3.7
		l1.7,3.7l1.7,3.7L102.8,58.6z"/>
	<path fill="#595959" d="M65.5,56.3c-1-0.3-2.1-0.6-3.2-0.7c-1.2-0.1-2.2-0.3-3.2-0.4c-1-0.1-1.8-0.3-2.5-0.6c-0.7-0.3-1-0.7-1-1.3
		c0-0.4,0.1-0.7,0.3-0.9c0.2-0.3,0.5-0.5,0.9-0.6c0.4-0.2,0.8-0.3,1.3-0.3c0.5-0.1,1-0.1,1.5-0.1c1.4,0,3.5,0.3,3.8,0.5
		c0.3,0.2,1,0.6,1.2,1l0.8,1.1l3.3-0.8c-0.2-0.9-0.9-1.7-1.7-2.5c0,0,0,0,0,0c-0.4-0.3-0.8-0.7-1.4-1c-0.6-0.3-1.3-0.6-2-0.9
		c0.3,0,0.5,0.1,0.7,0.1v-0.1c-0.6-0.2-1.3-0.3-1.9-0.4c-0.1,0-0.3,0.1-0.4,0.1c-0.5-0.1-1-0.1-1.6-0.1c-0.1,0-0.1,0-0.2,0
		c-0.1,0-0.1,0-0.2,0c0,0,0,0,0,0c0,0,0,0,0,0c0,0,0,0,0,0c-2.6,0-4.6,0.5-6,1.5c-0.6,0.4-1.1,1-1.4,1.5c-0.5,0.7-0.8,1.4-0.8,2.2
		c0,0.4,0.1,0.8,0.2,1.1c0.1,0.8,0.4,1.4,0.9,1.9c0.7,0.6,1.5,1.1,2.5,1.4c1,0.3,2.1,0.6,3.2,0.7c1.2,0.1,2.2,0.3,3.2,0.4
		c1,0.1,1.8,0.4,2.5,0.6c0.7,0.3,1,0.7,1,1.3c0,0.3-0.1,0.6-0.2,0.8c-0.8,0.8-2.6,1.4-4.6,1.4c-2.4,0-4.3-0.8-4.9-1.8l-0.8-1.2
		l-3.3,1.2c0.7,2.6,4.4,4.6,8.8,4.6c2.6,0,4.4-0.3,5.8-0.9c0.3-0.1,0.7-0.3,1-0.5c0.1,0,0.1-0.1,0.2-0.1c0.1-0.1,0.2-0.2,0.3-0.3
		c0.3-0.3,0.6-0.6,0.8-0.9c0.6-0.8,0.9-1.7,0.9-2.9c0-1.2-0.3-2.1-1-2.8C67.3,57.1,66.5,56.6,65.5,56.3z"/>
	<path fill="#595959" d="M221.1,48.6c-0.4-0.3-0.9-0.4-1.5-0.4h-3.2v5.6h1.1v-2v-0.3h2c0.6,0,1.2-0.1,1.5-0.4
		c0.4-0.3,0.6-0.7,0.6-1.3C221.6,49.3,221.4,48.8,221.1,48.6z M220.2,50.4c-0.2,0.1-0.3,0.1-0.6,0.1h-2.1v-1.4h2.1
		c0.2,0,0.4,0,0.6,0.1c0.2,0.1,0.2,0.3,0.2,0.5C220.5,50.1,220.4,50.3,220.2,50.4z"/>
	<path fill="#595959" d="M202.8,53.4l-1.4-2c0.5-0.1,0.8-0.3,1.1-0.5c0.3-0.2,0.4-0.6,0.4-1.1c0-0.3-0.1-0.6-0.2-0.8
		c-0.1-0.2-0.3-0.4-0.4-0.5c-0.2-0.1-0.4-0.2-0.7-0.3c-0.3-0.1-0.6-0.1-0.9-0.1h-3.2v5.6h1.2v-0.9v-1.4h1.5l0.8,1.2l0,0l0.7,1.1h1.3
		L202.8,53.4C202.8,53.4,202.8,53.4,202.8,53.4z M200.4,50.7h-1.8v-1.6h1.8c0.2,0,0.5,0,0.6,0.1c0.2,0,0.3,0.1,0.4,0.2
		c0.1,0.1,0.2,0.2,0.2,0.2c0,0.1,0.1,0.2,0.1,0.3c0,0.1,0,0.2-0.1,0.3c0,0.1-0.1,0.2-0.2,0.2c-0.1,0.1-0.2,0.1-0.4,0.2
		C200.9,50.7,200.7,50.7,200.4,50.7z"/>
	<path fill="#595959" d="M208.4,48.9c-0.3-0.2-0.6-0.4-1-0.5c-0.4-0.1-0.8-0.2-1.2-0.2c-0.4,0-0.8,0.1-1.2,0.2
		c-0.4,0.1-0.7,0.3-1,0.5c-0.3,0.2-0.5,0.5-0.7,0.9c-0.2,0.4-0.2,0.8-0.2,1.3c0,0.5,0.1,0.9,0.2,1.3c0.2,0.4,0.4,0.7,0.7,0.9
		c0.3,0.2,0.6,0.4,1,0.5c0.4,0.1,0.8,0.2,1.2,0.2c0.4,0,0.8-0.1,1.2-0.2c0.4-0.1,0.7-0.3,1-0.5c0.3-0.2,0.5-0.5,0.7-0.9
		c0.2-0.4,0.2-0.8,0.2-1.3c0-0.5-0.1-0.9-0.2-1.3C208.9,49.5,208.7,49.2,208.4,48.9z M208,51.9c-0.1,0.2-0.3,0.4-0.4,0.6
		c-0.2,0.2-0.4,0.3-0.6,0.4c-0.2,0.1-0.5,0.1-0.7,0.1c-0.2,0-0.5,0-0.7-0.1c-0.2-0.1-0.4-0.2-0.6-0.4c-0.2-0.2-0.3-0.4-0.4-0.6
		c-0.1-0.2-0.2-0.5-0.2-0.8c0-0.3,0.1-0.6,0.2-0.8c0.1-0.2,0.3-0.4,0.4-0.6c0.2-0.2,0.4-0.3,0.6-0.4c0.2-0.1,0.5-0.1,0.7-0.1
		c0.2,0,0.5,0,0.7,0.1c0.2,0.1,0.4,0.2,0.6,0.4c0.2,0.2,0.3,0.4,0.4,0.6c0.1,0.2,0.2,0.5,0.2,0.8C208.2,51.4,208.1,51.7,208,51.9z"
		/>
	<path fill="#595959" d="M214.3,49.1L214.3,49.1l0,2.4c0,0.4-0.1,0.7-0.4,1c-0.3,0.2-0.7,0.4-1.2,0.4c-0.5,0-1-0.1-1.2-0.4
		c-0.3-0.2-0.4-0.6-0.4-1v-2.9c0,0,0,0,0,0v-0.4H210v0.4c0,0,0,0,0,0v3.2c0,0.3,0.1,0.5,0.2,0.7c0.1,0.2,0.3,0.5,0.5,0.6
		c0.2,0.2,0.5,0.3,0.8,0.4c0.3,0.1,0.7,0.2,1.2,0.2c0.5,0,0.9-0.1,1.2-0.2c0.3-0.1,0.6-0.2,0.8-0.4c0.2-0.2,0.4-0.4,0.5-0.6
		c0.1-0.2,0.2-0.5,0.2-0.7v-3.2c0,0,0,0,0,0v-0.4h-1.1V49.1z"/>
	<path fill="#595959" d="M195.6,48.7c0,0-0.3-0.2-0.5-0.2c-0.2-0.1-0.4-0.1-0.6-0.2c-0.2-0.1-0.5-0.1-0.8-0.1
		c-0.5,0-0.9,0.1-1.3,0.2c-0.4,0.1-0.7,0.3-1,0.6c-0.3,0.2-0.5,0.5-0.6,0.9c-0.1,0.3-0.2,0.7-0.2,1.2c0,0.4,0.1,0.8,0.2,1.2
		c0.1,0.3,0.3,0.6,0.6,0.9c0.3,0.2,0.6,0.4,1,0.5c0.4,0.1,0.8,0.2,1.3,0.2c0.4,0,0.7,0,1-0.1c0.2,0,0.4-0.1,0.6-0.2v0.5h0.8v-0.8V52
		v-1.1h-1.6h-0.3h-0.6v0.8h0.6v0h1.1v0.8c-0.2,0.1-0.5,0.2-0.8,0.3c-0.3,0-0.6,0.1-0.9,0.1c-0.2,0-0.4,0-0.7-0.1
		c-0.2-0.1-0.4-0.2-0.6-0.3c-0.2-0.1-0.3-0.3-0.5-0.6c-0.1-0.2-0.2-0.5-0.2-0.9c0-0.3,0.1-0.6,0.2-0.9c0.1-0.2,0.3-0.4,0.4-0.6
		c0.2-0.2,0.4-0.3,0.6-0.3c0.2-0.1,0.5-0.1,0.8-0.1c0.2,0,0.4,0,0.6,0.1c0.2,0,0.4,0.1,0.5,0.2c0.2,0.1,0.3,0.2,0.4,0.2
		c0.1,0.1,0.2,0.4,0.2,0.4h0.8C196.2,50,196.3,49.2,195.6,48.7z"/>
</g>
</svg>
