<?xml version="1.0" encoding="utf-8"?>
<!-- Generator: Adobe Illustrator 19.2.1, SVG Export Plug-In . SVG Version: 6.00 Build 0)  -->
<!DOCTYPE svg PUBLIC "-//W3C//DTD SVG 1.1//EN" "http://www.w3.org/Graphics/SVG/1.1/DTD/svg11.dtd">
<svg version="1.1" id="Layer_1" xmlns="http://www.w3.org/2000/svg" xmlns:xlink="http://www.w3.org/1999/xlink" x="0px" y="0px"
	 viewBox="0 0 246 88" style="enable-background:new 0 0 246 88;" xml:space="preserve">
<style type="text/css">
	.st0{fill:#FF0000;}
</style>
<g>
	<path class="st0" d="M180.4,30.7c0.9-0.1,1.8,0,2.8,0c-2.8,5.8-5.4,11.6-8.1,17.4c-0.8,0-1.5,0-2.2,0c-1.2-2.9-2.7-5.8-4-8.7
		c0.9,0,1.8,0,2.7,0c0.8,1.8,1.7,3.5,2.4,5.3C176,40.1,178.3,35.4,180.4,30.7"/>
	<path d="M110.8,33.2c1.8,0,3.6,0,5.3,0c0,1.6,0,3.2,0,4.8c-1.8,0-3.6,0-5.4,0C110.8,36.4,110.8,34.8,110.8,33.2"/>
	<path d="M83.9,40c3.6-2.1,8.9-1.4,11.4,2.2c1.5,2.1,1.9,4.8,1.9,7.3c-4.2,0-8.4,0-12.5,0c0.2,1.3,0.7,2.7,1.9,3.3
		c1.7,1,4.4,0.7,5.2-1.3c1.7-0.1,3.4,0,5.1,0c-0.5,2-2,3.6-3.8,4.6c-1.9,1.1-4.3,1.3-6.4,0.9c-2.3-0.4-4.4-1.7-5.7-3.6
		c-1.4-2-1.8-4.6-1.5-7.1C80,43.8,81.6,41.3,83.9,40 M86.8,43c-1.2,0.6-1.8,1.9-2,3.1c2.4,0,4.8,0,7.1,0c-0.2-1-0.5-1.9-1.2-2.6
		C89.6,42.5,88,42.5,86.8,43"/>
	<path d="M139.9,39.1c2.9-0.5,6.1,0.1,8.3,2.1c3.8,3.3,3.9,9.8,0.4,13.4c-2.8,2.9-7.4,3.4-10.9,1.8c-2.7-1.2-4.6-4-4.9-7
		c-0.1-1.7-0.1-3.5,0.7-5.1C134.5,41.6,137.1,39.6,139.9,39.1 M140.6,43.1c-1.5,0.5-2.2,2.2-2.4,3.6c-0.2,1.9-0.2,3.9,1.1,5.5
		c1.3,1.7,4.1,1.6,5.4,0c1.1-1.3,1.2-3.2,1.1-4.8c-0.1-1.5-0.6-3-1.8-3.9C142.9,42.8,141.6,42.7,140.6,43.1"/>
	<path d="M159,40.1c1.8-1.4,4.3-1.5,6.3-0.7c1.5,0.6,2.6,1.9,3.1,3.4c0.6,1.5,0.4,3.2,0.4,4.8c0,3.1,0,6.1,0,9.2c-1.8,0-3.6,0-5.3,0
		c0-3.5,0-7,0-10.5c0-0.9-0.3-1.9-1.1-2.4c-1.1-0.8-2.8-0.6-3.8,0.3c-0.8,0.8-1.1,1.9-1.1,3c0,3.2,0,6.4,0,9.6c-1.8,0-3.5,0-5.3,0
		c0-5.8,0-11.6,0-17.3c1.7,0,3.4,0,5.2,0c0,0.8,0,1.6,0,2.4C157.9,41.2,158.4,40.6,159,40.1"/>
	<path d="M62.9,39.4c1.8,0,3.7,0,5.5,0c1.1,3.7,2.3,7.4,3.4,11.2c1.3-3.7,2.3-7.5,3.5-11.2c1.8,0,3.6,0,5.4,0c-2,5.8-4,11.6-6,17.3
		c-1.8,0-3.7,0-5.5,0C66.9,51,65,45.2,62.9,39.4"/>
	<path d="M98.5,39.4c1.7,0,3.4,0,5.1,0c0,1,0,1.9-0.1,2.9c0.4-0.5,0.8-1.1,1.2-1.6c1.2-1.3,3-1.8,4.7-1.3c0,1.5,0,3.1,0,4.6
		c-1.3-0.2-2.8-0.1-3.9,0.7c-1.2,0.8-1.7,2.3-1.7,3.8c0,2.8,0,5.5,0,8.3c-1.8,0-3.6,0-5.4,0C98.5,51,98.5,45.2,98.5,39.4"/>
	<path d="M110.8,39.4c1.8,0,3.6,0,5.4,0c0,5.8,0,11.6,0,17.4c-1.8,0-3.6,0-5.4,0C110.8,51,110.8,45.2,110.8,39.4"/>
	<path d="M117.6,39.4c4.8,0,9.7,0,14.5,0c0,1.3,0,2.6,0,4c-0.2,0.3-0.5,0.6-0.7,0.9c-2.5,2.8-4.9,5.6-7.4,8.3c2.8,0.1,5.7,0,8.5,0
		c0,1.4,0,2.8,0,4.2c-5,0-9.9,0-14.9,0c0-1.3,0-2.7,0-4c2.6-2.9,5.2-5.8,7.8-8.7c0.1-0.2,0.4-0.3,0.2-0.5c-2.7,0.1-5.3,0-8,0
		C117.6,42.2,117.6,40.8,117.6,39.4"/>
</g>
</svg>
