<?xml version="1.0" encoding="utf-8"?>
<!-- Generator: Adobe Illustrator 19.2.1, SVG Export Plug-In . SVG Version: 6.00 Build 0)  -->
<!DOCTYPE svg PUBLIC "-//W3C//DTD SVG 1.1//EN" "http://www.w3.org/Graphics/SVG/1.1/DTD/svg11.dtd">
<svg version="1.1" id="Layer_1" xmlns="http://www.w3.org/2000/svg" xmlns:xlink="http://www.w3.org/1999/xlink" x="0px" y="0px"
	 viewBox="0 0 246 88" style="enable-background:new 0 0 246 88;" xml:space="preserve">
<style type="text/css">
	.st0{fill-rule:evenodd;clip-rule:evenodd;fill:#EE2A24;}
</style>
<g>
	<path class="st0" d="M67.8,42.2L62,40.7c-1-0.2-2.5-0.7-2.5-2.7c0-2.3,2.2-3,4.1-3c4.3,0,4.7,2.7,4.8,3.8l4.8,0
		c0-3.1-2-8.2-9.2-8.2c-7.7,0-9.1,5-9.1,7.8c0,5.6,3.7,6.5,7.5,7.5l2.5,0.6c2.5,0.6,4.3,1.2,4.3,3.2c0,2.7-2.6,3.3-4.9,3.3
		c-4.3,0-5-2.7-5-4.1l-4.7,0c0,3.1,1.5,8.5,10.1,8.5c2.1,0,9.3-0.7,9.3-8.3C74,44.5,71.1,43,67.8,42.2z"/>
	<polygon class="st0" points="93.1,31.3 73.8,31.3 73.8,35.8 81,35.8 81,56.7 85.9,56.7 85.9,35.8 93.1,35.8 	"/>
	<polygon class="st0" points="153.9,45.7 165.4,45.7 165.4,41.2 153.9,41.2 153.9,35.8 166.5,35.8 166.5,31.4 149,31.3 149,56.7 
		167,56.7 167,52.3 153.9,52.2 	"/>
	<path class="st0" d="M181.8,42.3l-5.8-1.5c-1-0.2-2.5-0.7-2.5-2.7c0-2.3,2.2-3,4.1-3c4.3,0,4.7,2.7,4.9,3.8l4.7,0
		c0-3.1-2-8.2-9.2-8.2c-7.7,0-9.1,5-9.1,7.8c0,5.6,3.7,6.5,7.5,7.5l2.5,0.6c2.5,0.6,4.3,1.2,4.3,3.2c0,2.7-2.6,3.3-4.9,3.3
		c-4.3,0-5-2.7-5-4.1l-4.7,0c0,3.1,1.5,8.5,10.1,8.5c2.1,0,9.3-0.7,9.3-8.3C188,44.6,185.1,43.1,181.8,42.3z"/>
	<path class="st0" d="M136.3,35.3l0.2,0l1.7,8.9l4.4-1l-1.3-7.9c-0.2-2.7-2.3-4.6-4.9-4.6c-2.7,0-4.9,2.1-4.9,4.7l0,18.7
		c0,1.4,1.1,2.8,2.5,2.8c0.2,0,0.5,0,0.5,0l13.5,0l0-4.7l-11.6,0L136.3,35.3z"/>
	<path class="st0" d="M190.3,34.2c0-0.1,0-0.1,0-0.2l0-0.2c0-0.1,0-0.2-0.1-0.3c-0.1-0.1-0.2-0.2-0.4-0.2c0.1,0,0.2-0.1,0.3-0.1
		c0.1-0.1,0.2-0.2,0.2-0.4c0-0.3-0.1-0.5-0.3-0.6c-0.1-0.1-0.3-0.1-0.6-0.1l-0.8,0l0,2.3l0.4,0l0-0.9l0.3,0c0.2,0,0.4,0,0.4,0.1
		c0.1,0.1,0.2,0.3,0.2,0.5l0,0.2l0,0.1c0,0,0,0,0,0c0,0,0,0,0,0l0.4,0l0,0C190.3,34.3,190.3,34.3,190.3,34.2z M189.7,33.1
		c-0.1,0-0.2,0-0.4,0l-0.4,0l0-0.8l0.3,0c0.2,0,0.4,0,0.5,0.1c0.1,0.1,0.2,0.2,0.2,0.3C189.9,33,189.8,33.1,189.7,33.1z"/>
	<path class="st0" d="M190.8,31.8c-0.4-0.4-0.9-0.6-1.5-0.6c-0.6,0-1,0.2-1.4,0.6c-0.4,0.4-0.6,0.9-0.6,1.4c0,0.6,0.2,1.1,0.6,1.5
		c0.4,0.4,0.9,0.6,1.4,0.6c0.6,0,1.1-0.2,1.5-0.6c0.4-0.4,0.6-0.9,0.6-1.5C191.4,32.7,191.2,32.2,190.8,31.8z M190.6,34.5
		c-0.3,0.3-0.8,0.5-1.2,0.5c-0.5,0-0.9-0.2-1.2-0.5c-0.3-0.3-0.5-0.8-0.5-1.3c0-0.5,0.2-0.9,0.5-1.2c0.3-0.3,0.8-0.5,1.2-0.5
		c0.5,0,0.9,0.2,1.2,0.5c0.3,0.3,0.5,0.8,0.5,1.2C191.2,33.7,191,34.2,190.6,34.5z"/>
	<path class="st0" d="M96.8,31.3l-8.5,25.4l5.2,0l1.7-5.2l8.7,0l1.5,5.2l5.4,0l-8.3-25.4L96.8,31.3z M96.5,47.1l3-10l0.1,0l2.9,10
		L96.5,47.1z"/>
	<path class="st0" d="M122.9,31.3l-10.8,0l0,25.4l4.9,0l0-9.2l5.7,0c6.4,0,7.6-5.8,7.6-8.1C130.2,34.5,127.5,31.3,122.9,31.3z
		 M121.6,43.2l-4.6,0l0-7.5l3.9,0c3.1,0,4.4,1,4.4,3.5C125.3,40.3,125.3,43.2,121.6,43.2z"/>
</g>
</svg>
