<?xml version="1.0" encoding="utf-8"?>
<!-- Generator: Adobe Illustrator 19.2.1, SVG Export Plug-In . SVG Version: 6.00 Build 0)  -->
<!DOCTYPE svg PUBLIC "-//W3C//DTD SVG 1.1//EN" "http://www.w3.org/Graphics/SVG/1.1/DTD/svg11.dtd">
<svg version="1.1" id="Layer_1" xmlns="http://www.w3.org/2000/svg" xmlns:xlink="http://www.w3.org/1999/xlink" x="0px" y="0px"
	 viewBox="0 0 246 88" style="enable-background:new 0 0 246 88;" xml:space="preserve">
<style type="text/css">
	.st0{fill-rule:evenodd;clip-rule:evenodd;fill:#595959;}
</style>
<g>
	<path class="st0" d="M102.4,19.2H80c1.9,1.3,1.6,3,1.2,4L68.1,65c-0.5,1.7-2.5,3.4-3.5,3.7l18.1,0c-1-0.2-2.4-1.6-1.9-3.5L85.6,50
		c0,0,21.8,2.9,28.4-13.4C119.5,22.9,109.2,19.2,102.4,19.2z M101.1,35.8c-4.4,13.1-14.3,10.4-14.3,10.4L94,23.1c0,0,2.3,0,2.3,0
		C98.7,23.1,105.3,23.4,101.1,35.8z"/>
	<path class="st0" d="M128.7,61.1c1.9-2,4.2-4.6,4.6-9.8h-6.3c0,0,1.2,0.7,1.2,2.2c0,1.4-0.5,3.3-1.6,4.6c-1.9-2.7-3.8-5.9-4.5-10.5
		c2.5-1.2,6-2.6,8.7-5c2.6-2.3,3.2-4.5,3.3-5.9c0-0.1,0-0.1,0-0.2c0-1.5-0.6-2.9-1.6-3.9c-1.8-1.8-4.7-2.6-7.8-2
		c-2.4,0.5-4.5,1.8-5.6,2.7c-3.7,3.4-4.2,9.1-4.2,11.7c0,0.6,0,1.1,0.1,1.4c-0.2,0.1-0.6,0.2-0.6,0.2c-2.7,1-9.9,2.9-12.4,8.8
		c-0.3,0.7-0.8,2.4-0.8,4.3c0,1.6,0.3,3.4,1.4,5.1c1.8,2.8,4.9,4.6,9.8,4.5c5.4-0.1,10.6-3.7,11.6-4.4c0.9,0.9,3.3,3.1,4.6,3.7
		l12.2,0C136.8,67.4,131,63.7,128.7,61.1z M115.1,64.4c-2.5,0.2-6.5-0.7-6.5-5.7c0-4.2,4.6-7.3,7.1-8.4c1,4.1,3.3,8.7,5.7,11.9
		C120.6,62.7,117.8,64.1,115.1,64.4z M123.2,35.5c1.2-1.9,2.9-2.7,4.2-2.3c1.1,0.4,1.2,1.3,1.1,2.4c-0.6,4-5.8,8-7,8.5
		C121.2,41.9,121.3,38.4,123.2,35.5z"/>
	<path class="st0" d="M163,47.4l-5.6,17.8c-0.7,0.2-16.4,4.1-7.6-23.4c1.9-5.9,7.2-16.7,15.8-18.8c7.2-1.7,13.2,3.9,13.8,4.3
		l2.1-6.6c-2.9-0.9-23.7-7.9-38.4,8.9c-9,10.3-11.3,31.5,0.2,37.2c12.3,6.1,25.8-0.9,26.8-1.4l5.6-17.8c0.6-2.2,2-3.6,4.4-4.5h-19.5
		C163.4,44.3,163.2,46.5,163,47.4z"/>
</g>
</svg>
