<?xml version="1.0" encoding="utf-8"?>
<!-- Generator: Adobe Illustrator 17.1.0, SVG Export Plug-In . SVG Version: 6.00 Build 0)  -->
<!DOCTYPE svg PUBLIC "-//W3C//DTD SVG 1.1//EN" "http://www.w3.org/Graphics/SVG/1.1/DTD/svg11.dtd">
<svg version="1.1" id="Layer_1" xmlns="http://www.w3.org/2000/svg" xmlns:xlink="http://www.w3.org/1999/xlink" x="0px" y="0px"
	 viewBox="0 0 246 88" enable-background="new 0 0 246 88" xml:space="preserve">
<g>
	<path fill="#595959" d="M92.4,64c0.6-0.6,0.8-1.4,0.8-2.1c0-1-0.5-1.7-0.8-2c-1-1-2.2-1-3-1.1c0.7-0.1,1.7-0.2,2.4-1
		c0.5-0.5,0.7-1,0.7-1.7c0-0.3,0-1.4-1.2-2c-0.6-0.3-1.3-0.3-2-0.3h-6.2v0.4h1.5l0,1.3V63l0,1.6h-1.5V65h6.3
		C90.3,65,91.5,64.9,92.4,64z M87.1,55.4l0-1.1h1.1c1.2,0,1.8,0.4,1.8,2.1c0,0.8-0.1,1.3-0.4,1.7c-0.2,0.3-0.8,0.5-1.5,0.5h-1
		L87.1,55.4z M87.1,64.5l0-1.2v-4.2h0.8c1,0,1.6,0.2,1.9,0.4c0.5,0.4,0.8,1,0.8,2.2c0,0.4,0,1.5-0.6,2.2c-0.5,0.5-1.1,0.5-1.6,0.6
		H87.1z"/>
	<path fill="#595959" d="M98.5,64.6h-1.1l0-1.3v-7.7l0-1.7c-0.7,0-0.9,0-1.7,0.1h-1.9v0.4h1.2l0,1.3v7.7l0,1.3h-1.2V65h4.6V64.6z"/>
	<path fill="#595959" d="M99.9,64.1c0.3,0.6,1,1,2.2,1c1.8,0,2.5-0.9,2.9-1.3l0,1.2c0.8,0,1.1-0.1,2.1-0.1h1.2v-0.4h-1.1l0-1.4v-4.4
		l0-1.5c-0.9,0-1.2,0-2.1,0.1h-1.4v0.4h1.2l0,1.2v2.8c0,0.7,0,1.5-0.6,2.1c-0.3,0.3-0.7,0.5-1.1,0.5c-0.5,0-0.9-0.2-1.1-0.7
		c-0.1-0.3-0.2-0.8-0.2-1.4v-3.5l0-1.5c-0.8,0-1,0-1.8,0.1h-1.6v0.4h1.1l0,1.1v3.7C99.6,63.1,99.6,63.7,99.9,64.1z"/>
	<path fill="#595959" d="M115.4,58.2c-0.4-0.4-1.2-1.1-2.8-1.1c-2.5,0-3.9,1.9-3.9,3.9c0,2.2,1.5,4.1,3.9,4.1c2.4,0,3.2-1.6,3.6-2.4
		l-0.5-0.2c-0.2,0.5-0.9,1.9-2.6,1.9c-0.5,0-1-0.2-1.4-0.5c-0.7-0.7-0.7-1.9-0.7-3.2h5.2C116.3,60.1,116.3,59.1,115.4,58.2z
		 M114,60.3h-2.8c0-1.3,0.1-2.7,1.4-2.7C114,57.6,114,59,114,60.3z"/>
	<path fill="#595959" d="M123.5,54.2c0.7,0,1.6,0.3,2.3,1c1,1,1.1,1.9,1.2,2.5h0.5v-3.1c-1.7-0.7-3.1-0.9-4.1-0.9
		c-3.1,0-5.9,2.1-5.9,5.8c0,3.4,2.4,5.7,5.6,5.7c1.8,0,3.3-0.5,4.4-0.9v-3.1H127c-0.1,0.6-0.2,1.4-1.1,2.4c-0.8,0.8-1.8,1.2-2.6,1.2
		c-0.9,0-1.6-0.4-2-0.8c-0.8-0.8-1.1-2.2-1.1-4.4c0-2.3,0.3-3.6,1.1-4.3C121.8,54.5,122.7,54.2,123.5,54.2z"/>
	<path fill="#595959" d="M133,64.6h-1.2l0-1.3v-1.9c0-0.9,0-2.1,0.6-2.9c0.2-0.3,0.5-0.6,0.7-0.6c0,0,0.3,0,0.3,0.3
		c0,0.1,0,0.5,0,0.6c0,1,0.8,1,1,1c0.3,0,1-0.2,1-1.1c0-0.7-0.4-1.5-1.4-1.5c-0.6,0-1.1,0.3-1.4,0.6c-0.3,0.3-0.5,0.6-0.6,1v-0.3
		l0-1.2c-0.7,0-0.9,0-1.6,0.1h-1.8v0.4h1.1l0,1.4v4.1l0,1.3h-1.1V65h4.6V64.6z"/>
	<path fill="#595959" d="M139.6,65.2c2.1,0,4.1-1.5,4.1-3.9c0-2.3-1.6-4.1-4.1-4c-2.2,0-4,1.5-4,4C135.6,63.5,137.3,65.2,139.6,65.2
		z M139.7,57.6c1.6,0,1.7,1.7,1.7,3.6c0,2.1-0.1,3.5-1.6,3.5c-1.5,0-1.7-1.4-1.7-3.9C138,59.1,138.2,57.6,139.7,57.6z"/>
	<path fill="#595959" d="M147.8,64.7c-1.1,0-1.8-0.8-2-1.3c-0.3-0.5-0.3-0.8-0.4-1.3h-0.5l0,2.5c0.8,0.3,1.6,0.6,2.6,0.6
		c1.9,0,3.2-1.1,3.2-2.7c0-1.4-1-2-1.9-2.4c-0.3-0.1-1.5-0.6-1.8-0.7c-0.2-0.1-0.6-0.3-0.6-0.8c0-0.4,0.4-1,1.2-1
		c1,0,1.6,0.8,1.8,1.2c0.1,0.3,0.2,0.5,0.2,0.8h0.5l0-2c-0.7-0.3-1.4-0.5-2.3-0.5c-1.1,0-2.8,0.5-2.8,2.4c0,1.7,1.2,2.1,2.6,2.6
		c1,0.4,1.7,0.6,1.7,1.4C149.3,64.2,148.7,64.7,147.8,64.7z"/>
	<path fill="#595959" d="M154.6,64.7c-1.1,0-1.8-0.8-2-1.3c-0.3-0.5-0.3-0.8-0.4-1.3h-0.5l0,2.5c0.8,0.3,1.6,0.6,2.6,0.6
		c1.9,0,3.2-1.1,3.2-2.7c0-1.4-1-2-1.9-2.4c-0.3-0.1-1.5-0.6-1.8-0.7c-0.2-0.1-0.6-0.3-0.6-0.8c0-0.4,0.4-1,1.2-1
		c1,0,1.6,0.8,1.8,1.2c0.1,0.3,0.2,0.5,0.2,0.8h0.5l0-2c-0.7-0.3-1.4-0.5-2.3-0.5c-1.1,0-2.8,0.5-2.8,2.4c0,1.7,1.2,2.1,2.6,2.6
		c1,0.4,1.7,0.6,1.7,1.4C156.2,64.2,155.5,64.7,154.6,64.7z"/>
	<path fill="#595959" d="M89.4,72.9c0.7-0.1,1.7-0.2,2.4-1c0.5-0.5,0.7-1,0.7-1.7c0-0.3,0-1.4-1.2-2c-0.6-0.3-1.3-0.3-2-0.3h-6.2
		v0.4h1.5l0,1.3V77l0,1.6h-1.5V79h6.3c1,0,2.1-0.1,3-1c0.6-0.6,0.8-1.4,0.8-2.1c0-1-0.5-1.7-0.8-2C91.4,73,90.2,72.9,89.4,72.9z
		 M87.1,69.5l0-1.1h1.1c1.2,0,1.8,0.4,1.8,2.1c0,0.8-0.1,1.3-0.4,1.7c-0.2,0.3-0.8,0.5-1.5,0.5h-1L87.1,69.5z M90,78
		c-0.5,0.5-1.1,0.5-1.6,0.6h-1.2l0-1.2v-4.2h0.8c1,0,1.6,0.2,1.9,0.4c0.5,0.4,0.8,1,0.8,2.2C90.6,76.2,90.6,77.3,90,78z"/>
	<path fill="#595959" d="M97.4,77.3v-7.7l0-1.7c-0.7,0-0.9,0-1.6,0.1h-1.9v0.4h1.2l0,1.3v7.7l0,1.3h-1.2V79h4.6v-0.4h-1.1L97.4,77.3
		z"/>
	<path fill="#595959" d="M107.2,77.1v-4.4l0-1.5c-0.9,0-1.2,0-2.1,0.1h-1.4v0.4h1.2l0,1.2v2.8c0,0.7,0,1.5-0.6,2.1
		c-0.3,0.3-0.7,0.5-1.1,0.5c-0.5,0-0.9-0.2-1.1-0.7c-0.1-0.3-0.2-0.8-0.2-1.4v-3.5l0-1.5c-0.8,0-1,0-1.8,0.1h-1.6v0.4h1.1l0,1.1v3.7
		c0,0.5,0,1,0.2,1.5c0.3,0.6,1,1,2.2,1c1.8,0,2.5-0.9,2.9-1.3l0,1.2c0.8,0,1.1-0.1,2.1-0.1h1.2v-0.4h-1.1L107.2,77.1z"/>
	<path fill="#595959" d="M115.3,72.2c-0.4-0.4-1.2-1.1-2.8-1.1c-2.5,0-3.9,1.9-3.9,3.9c0,2.2,1.5,4.1,3.9,4.1c2.4,0,3.2-1.6,3.6-2.4
		l-0.5-0.2c-0.2,0.5-0.9,1.9-2.6,1.9c-0.5,0-1-0.2-1.4-0.5c-0.7-0.7-0.7-1.9-0.7-3.2h5.2C116.2,74.1,116.2,73.1,115.3,72.2z
		 M113.8,74.3H111c0-1.3,0.1-2.7,1.4-2.7C113.9,71.6,113.8,73.1,113.8,74.3z"/>
	<path fill="#595959" d="M122,72.1c-0.5-0.2-1.1-0.4-1.6-0.7c-0.4-0.2-1.3-0.6-1.3-1.6c0-0.8,0.6-1.6,1.8-1.6c0.8,0,1.5,0.4,2.1,1
		c0.5,0.5,0.7,1,0.9,1.8h0.5l-0.2-2.6c-0.6-0.2-1.6-0.7-3-0.7c-2.2,0-3.7,1.3-3.7,3.3c0,1.8,1.4,2.6,1.8,2.8
		c0.3,0.2,0.7,0.3,1.1,0.5c2.4,1,3.2,1.4,3.2,2.5c0,1.1-1.1,1.9-2.3,1.9c-0.3,0-2.1,0-3-2c-0.3-0.6-0.3-1-0.4-1.4h-0.5l0.1,3.2
		c1,0.4,2.1,0.7,3.4,0.7c2.7,0,4.2-1.5,4.2-3.5C125.1,73.5,123.4,72.7,122,72.1z"/>
	<path fill="#595959" d="M134.3,77.5v-3.7c0-0.6-0.1-1.3-0.7-1.9c-0.3-0.2-0.8-0.7-2-0.7c-0.4,0-0.8,0-1.1,0.2
		c-0.9,0.3-1.2,0.7-1.5,1.2v-3l0-1.7c-0.7,0-0.9,0.1-1.7,0.1h-1.7v0.4h1.1l0,1.2v7.9l0,1.1h-1.1V79h4.6v-0.4h-1.2l0-1.1v-3
		c0-0.9,0.1-1.6,0.6-2.2c0.3-0.3,0.7-0.5,1.2-0.5c1.2,0,1.2,1.2,1.2,1.8v3.8l0,1.1h-1.2V79h4.6v-0.4h-1.1L134.3,77.5z"/>
	<path fill="#595959" d="M136.7,69.1c0,0.3,0.1,0.6,0.4,0.9c0.2,0.2,0.6,0.4,0.9,0.4c0.7,0,1.2-0.5,1.2-1.2c0-0.7-0.6-1.2-1.2-1.2
		C137.3,67.8,136.7,68.4,136.7,69.1z"/>
	<path fill="#595959" d="M139.1,77.4v-4.3l0-1.7c-0.8,0-1.1,0-2,0.1h-1.5v0.4h1.2l0,1.3v4.3l0,1.2h-1.2V79h4.6v-0.4h-1.1L139.1,77.4
		z"/>
	<path fill="#595959" d="M147.5,72.2c-0.4-0.4-1.2-1.1-2.8-1.1c-2.5,0-3.9,1.9-3.9,3.9c0,2.2,1.5,4.1,3.9,4.1c2.4,0,3.2-1.6,3.6-2.4
		l-0.5-0.2c-0.2,0.5-0.9,1.9-2.6,1.9c-0.5,0-1-0.2-1.4-0.5c-0.7-0.7-0.7-1.9-0.7-3.2h5.2C148.4,74.1,148.4,73.1,147.5,72.2z
		 M146,74.3h-2.8c0-1.3,0.1-2.7,1.4-2.7C146.1,71.6,146.1,73.1,146,74.3z"/>
	<path fill="#595959" d="M152.4,77.3v-7.7l0-1.7c-0.7,0-0.9,0-1.7,0.1h-1.9v0.4h1.2l0,1.3v7.7l0,1.3h-1.2V79h4.6v-0.4h-1.1
		L152.4,77.3z"/>
	<path fill="#595959" d="M161.8,78.6l0-1.1v-8.4l0-1.3c-0.7,0-1,0.1-1.9,0.1h-1.6v0.4h1.2l0,1v3.1c-0.1-0.2-0.1-0.3-0.3-0.5
		c-0.4-0.4-0.9-0.7-1.9-0.7c-2,0-3.5,1.6-3.5,4.1c0,1.7,0.9,3.9,3.3,3.9c1.5,0,2-0.7,2.4-1.1v1c0.7,0,1,0,1.9-0.1h1.5v-0.4H161.8z
		 M159,78c-0.4,0.4-0.8,0.5-1.2,0.5c-1.4,0-1.5-1.5-1.5-3.3c0-1.5,0.1-2.4,0.5-2.9c0.2-0.2,0.6-0.4,1.1-0.4c1.7,0,1.7,1.7,1.7,3.1
		C159.6,77,159.5,77.5,159,78z"/>
	<path fill="#595959" d="M122,47.2c0-1.2-1-2.2-2.2-2.2c-1.2,0-2.2,1-2.2,2.2c0,1.2,1,2.2,2.2,2.2C121.1,49.4,122,48.4,122,47.2z
		 M118,47.2c0-1.1,0.8-1.8,1.9-1.8c1.1,0,1.8,0.8,1.8,1.8c0,1.1-0.8,1.9-1.8,1.9C118.8,49,118,48.2,118,47.2z"/>
	<path fill="#595959" d="M120.6,48.4h0.4l-0.7-1.1c0.4,0,0.8-0.2,0.8-0.7c0-0.5-0.2-0.7-0.9-0.7H119v2.5h0.3v-1.1h0.5L120.6,48.4z
		 M119.4,47v-0.8h0.7c0.3,0,0.6,0,0.6,0.4c0,0.5-0.5,0.4-0.8,0.4H119.4z"/>
	<path fill="#595959" d="M160.5,47.2c0-1.2-1-2.2-2.2-2.2c-1.2,0-2.2,1-2.2,2.2c0,1.2,1,2.2,2.2,2.2
		C159.5,49.4,160.5,48.4,160.5,47.2z M156.5,47.2c0-1.1,0.8-1.8,1.9-1.8c1.1,0,1.8,0.8,1.8,1.8c0,1.1-0.8,1.9-1.8,1.9
		C157.2,49,156.5,48.2,156.5,47.2z"/>
	<path fill="#595959" d="M159,48.4h0.4l-0.7-1.1c0.4,0,0.8-0.2,0.8-0.7c0-0.5-0.2-0.7-0.9-0.7h-1.1v2.5h0.3v-1.1h0.5L159,48.4z
		 M157.8,47v-0.8h0.7c0.3,0,0.6,0,0.6,0.4c0,0.5-0.5,0.4-0.8,0.4H157.8z"/>
	<path fill="#595959" d="M95.4,49.2h17.5v-11h11V20.7h-11v-11H95.4v11h-11v17.5h11V49.2z M110.2,38.5L110.2,38.5
		c-1.7,1.1-3.8,1.8-6,1.8c-2.2,0-4.2-0.7-6-1.8l0,0v0c0,0,0,0,0,0l5.3-7.9c0.4-0.6,1-0.5,1.4,0L110.2,38.5
		C110.2,38.5,110.2,38.5,110.2,38.5L110.2,38.5z M114.3,25.7L114.3,25.7c0.4,1.2,0.7,2.5,0.7,3.8c0,3.5-1.6,6.5-4.2,8.5l0,0l-5-9.4
		c-0.4-0.8-0.2-2.1,1.2-2.3L114.3,25.7L114.3,25.7L114.3,25.7z M104.2,18.6c4.3,0,8.1,2.6,9.8,6.3h-7.7c-1.1,0-1.6-0.7-1.6-1.2
		c0-0.6,0.1-0.8,0.6-1.5c0.6-0.7,0.2-2.2-1.1-2.2c-1.3,0-1.6,1.5-1.1,2.2c0.5,0.7,0.6,0.9,0.6,1.5c0,0.5-0.5,1.2-1.6,1.2h-7.7
		C96.1,21.2,99.9,18.6,104.2,18.6z M93.4,29.5c0-1.3,0.2-2.6,0.7-3.8h0l0,0v0l7.3,0.7c1.4,0.2,1.5,1.5,1.2,2.3l-5,9.4l0,0
		C95,36,93.4,32.9,93.4,29.5z"/>
	<path fill="#595959" d="M101,28.2c0.1-0.2,0.1-0.4-0.3-0.4l-5.5-0.5c-0.2,0.7-0.3,1.5-0.3,2.2c0,2.3,0.8,4.4,2.3,6.1L101,28.2z"/>
	<path fill="#595959" d="M104.2,32.3c-0.1,0-0.1,0-0.2,0.1l-3.6,5.6c1.2,0.5,2.4,0.8,3.8,0.8c1.4,0,2.6-0.3,3.8-0.8l-3.6-5.6
		C104.3,32.4,104.3,32.3,104.2,32.3z"/>
	<path fill="#595959" d="M101.6,20.5c-1.8,0.5-3.3,1.5-4.5,2.9l4.9,0c0.1,0,0.1-0.1,0-0.2C101.5,22.6,101.1,21.4,101.6,20.5z"/>
	<path fill="#595959" d="M111.3,35.6c1.4-1.6,2.3-3.8,2.3-6.1c0-0.8-0.1-1.5-0.3-2.2l-5.5,0.5c-0.4,0-0.4,0.2-0.3,0.4L111.3,35.6z"
		/>
	<path fill="#595959" d="M111.3,23.4c-1.2-1.4-2.7-2.4-4.5-2.9c0.6,0.9,0.1,2.1-0.4,2.7c-0.1,0.1,0,0.2,0,0.2L111.3,23.4z"/>
	<polygon fill="#595959" points="145.7,44.7 145.7,44.7 145.7,44.7 	"/>
	<path fill="#595959" d="M143.6,20.1c0.2,0.1,0.2,0.4,0.5,0.4c0.2,0,0.3-0.1,0.4-0.2c0,0,0.2,0,0.2,0c-0.3-0.3-1-0.3-1.5-0.4
		C143.4,20.1,143.5,20,143.6,20.1z"/>
	<path fill="#595959" d="M145.7,44.7c4.2-2.7,9-8.7,10.9-16.6c1-4.2,1.3-8.9,0-12.7c-1.9,0.5-3.7,0.9-5.5,1.2
		c-1.8,0.2-3.6,0.4-5.4,0.4h0c-1.8,0-3.6-0.2-5.4-0.4c-1.8-0.2-3.6-0.7-5.5-1.2c-1.3,3.7-1,8.5,0,12.7C136.7,36,141.5,42,145.7,44.7
		z M144.7,41c-0.1,0.4,0.1,0.6,0.1,0.8c-0.1,0.3-0.3,0.2-0.4,0c-0.2-0.3-0.3-0.5-0.3-0.9c-0.1-0.8,0.3-1.1,0.5-1.3
		c0.2-0.2,0.4-0.3,0.4-0.3l0.1,1.3C144.9,40.5,144.7,40.6,144.7,41z M146.4,42.3c0,0.2-0.1,0.4-0.5,0.4c-0.3,0-0.5-0.1-0.5-0.5
		c-0.1-1.6-0.1-4.5-0.1-4.5s0.4,0.1,0.6,0.3c0.1,0,0.3,0.2,0.5,0.4c0,0.1,0.1,0.1,0.1,0.2C146.5,39.7,146.4,41.8,146.4,42.3z
		 M147.7,39.3c-0.4,0.3-0.8,0.4-0.8,0.4l0-1.2c0,0,0.1-0.1,0.1-0.3c-0.1-0.2-0.9-0.8-1.3-1c-0.5-0.2-1-0.3-1.5-0.5
		c-1-0.4-1.4-1.3-1-2.3c0.1-0.4,0.5-0.6,0.8-0.7c0.2-0.1,0.6-0.2,0.6-0.2l0.1,1.4c0,0-0.1,0-0.2,0.2c-0.1,0.2,0.1,0.4,0.2,0.4
		c0.7,0.3,1.6,0.7,2.3,1.1c0.9,0.5,1.2,0.9,1.2,1.5C148.2,38.7,148,39.1,147.7,39.3z M145.1,32.9c0.7,0.1,0.9,0.1,1.4,0.2l-0.1,2.7
		l-0.6-0.3l-0.6-0.3L145.1,32.9z M149.1,33.5c-0.1,0.5-0.4,0.9-0.9,1.2c-0.5,0.3-1.1,0.3-1.1,0.3l0-1.6c0,0,0.1,0,0.2-0.1
		c0.1-0.1,0.1-0.2,0.1-0.3c0-0.1-0.1-0.2-0.2-0.3c-0.2-0.1-0.4-0.1-0.5-0.1c-0.8-0.1-1.6-0.2-2.3-0.3c-1.4-0.2-2.4-1.1-2.4-2.4
		c0.1-0.9,1-1.2,1.7-1.5c0.2,0.4,0.4,0.8,0.5,1c0.1,0.4,0.2,0.6,0.2,0.6s-0.3,0.1-0.3,0.3c0,0.2,0.3,0.3,0.4,0.3
		c1,0.1,2.3,0.3,3,0.5c0.5,0.2,0.9,0.4,1.2,0.8C149.1,32.5,149.2,32.9,149.1,33.5z M144.6,27c0,0,0.3,0,1.2,0.1c0.6,0,1,0.2,1,0.2
		l-0.1,3c-0.7-0.1-1.1-0.2-1.7-0.3c-0.2-1.1-0.5-1.5-0.9-2.2c-0.1-0.2,0-0.2,0-0.3c0.1-0.1,0.5-0.2,0.5-0.2L144.6,27z M144.5,18.5
		c0.1-0.2,0.5-0.2,0.6-0.1c0.5,0.3,1.1,0.6,1.9,0.8c0.2,0.1,0.2,0.1,0.2,0.4c0.1,0.5-0.1,1.2,0,1.5c0,0.1,0.2,0.1,0.2,0.1
		c0.7-0.4,1.1-1,1.8-1.3c0.3-0.1,1.2,0.3,1,1c-0.1,0.3-0.2,0.3-0.4,0.5c-0.4,0.4-1,0.8-1.5,1.3c-0.4,0.3-0.7,0.5-0.9,0.9
		c-0.1,0.1-0.2,0.3-0.2,0.3c-0.9-0.2-1.9-0.2-2.6-0.4l0-0.8c0,0,0.9,0,1-0.6c0,0,0-0.2-0.1-0.3c-0.1-0.1-0.4-0.2-0.5-0.2
		c0.7,0.1,1.3,0.4,2.1,0.7c0-0.1-0.1-0.3-0.1-0.4c-0.1-0.1-0.2-0.2-0.5-0.3c-0.4-0.1-1.5-0.2-1.5-0.2s0.4,0,0.9,0
		c0.2,0,0.5-0.1,0.5-0.2c0.1-0.1,0-0.3-0.2-0.5c-0.1-0.1-0.2-0.2-0.3-0.3c-0.1-0.2-0.2-0.4-0.4-0.6c-0.2-0.3-0.9-0.6-0.9-0.6
		S144.4,18.8,144.5,18.5z M141.2,19.8c1.1-0.6,2.3-0.5,3.4,0c0.4,0.1,0.6,0.5,0.8,0.8c0.1,0.1,0.3,0.2,0.4,0.4
		c0.1,0.1-0.1,0.1-0.1,0.1c-0.2,0.1-1,0.1-1.3,0c-0.3,0-0.9,0-1.2,0c0.3,0.2,0.7,0.4,1.1,0.6c0.2,0.1,0.4,0.1,0.6,0.2
		c0.1,0,0.3,0.1,0.3,0.2c0,0.1-0.2,0.1-0.3,0.2c-0.3,0.1-0.7,0.1-1.1,0c-0.6-0.1-0.9-0.5-1.3-0.3c-0.3,0.2-0.3,0.5-0.2,0.9
		c0.1,0.6,0.7,0.8,1.2,0.9c1.7,0.5,3.5,0.2,5.2,1.1c0.6,0.3,1.4,1,1.5,1.7c0.6,3-2.8,3.3-2.8,3.3s0.1-1.4,0.1-2.1
		c0.4-0.2,0.5-0.5,0.3-0.8c-0.1-0.2-0.4-0.3-0.5-0.3c-0.8-0.2-1.5-0.2-2.3-0.3c-0.7-0.1-1.3-0.2-1.9-0.3c-1.3-0.3-2.4-1-3-2.2
		C139.2,22.4,139.8,20.6,141.2,19.8z"/>
	<path fill="#595959" d="M145.7,49.6c7.6-4.2,12.2-10.9,14.5-18.2c2.5-7.6,2-16.7-0.8-22.3c-4.3,2.2-8.6,3.4-13.7,3.4
		c-5.1,0-9.4-1.2-13.7-3.4c-2.8,5.6-3.3,14.7-0.8,22.3C133.6,38.8,138.2,45.4,145.7,49.6z M133.8,13.5c3.1,1.1,4.9,1.4,6.6,1.7
		c1.6,0.2,3,0.4,5.3,0.4h0c2.3,0,3.7-0.2,5.3-0.4c1.7-0.3,3.5-0.6,6.6-1.7c2.1,5.1,1.6,11.6-0.3,17.1c-2.1,6.2-5.4,11.8-11.7,15.6
		c-6.2-3.9-9.6-9.4-11.7-15.6C132.2,25,131.7,18.5,133.8,13.5z"/>
</g>
</svg>
