<?xml version="1.0" encoding="utf-8"?>
<!-- Generator: Adobe Illustrator 17.1.0, SVG Export Plug-In . SVG Version: 6.00 Build 0)  -->
<!DOCTYPE svg PUBLIC "-//W3C//DTD SVG 1.1//EN" "http://www.w3.org/Graphics/SVG/1.1/DTD/svg11.dtd">
<svg version="1.1" id="Layer_1" xmlns="http://www.w3.org/2000/svg" xmlns:xlink="http://www.w3.org/1999/xlink" x="0px" y="0px"
	 viewBox="0 0 246 88" enable-background="new 0 0 246 88" xml:space="preserve">
<g>
	<polygon fill="#898C8A" points="56.4,63.5 56.4,62.8 52,62.8 52,68.9 52.7,68.9 52.7,66.3 56,66.3 56,65.7 52.7,65.7 52.7,63.5 	
		"/>
	<rect x="58.1" y="62.8" fill="#898C8A" width="0.7" height="6.1"/>
	<polygon fill="#898C8A" points="66.1,62.8 66.1,63.5 68.1,63.5 68.1,68.9 68.8,68.9 68.8,63.5 70.8,63.5 70.8,62.8 	"/>
	<polygon fill="#898C8A" points="139.8,62.8 139.8,63.5 141.8,63.5 141.8,69 142.5,69 142.5,63.5 144.5,63.5 144.5,62.8 	"/>
	<polygon fill="#898C8A" points="85.5,62.8 85.5,65.6 82,65.6 82,62.8 81.3,62.8 81.3,68.9 82,68.9 82,66.2 85.5,66.2 85.5,68.9 
		86.2,68.9 86.2,62.8 	"/>
	<polygon fill="#898C8A" points="106.5,68.3 106.5,62.8 105.8,62.8 105.8,68.9 109.9,68.9 109.9,68.3 	"/>
	<polygon fill="#898C8A" points="178.8,68.3 178.8,62.8 178.1,62.8 178.1,69 182.2,69 182.2,68.3 	"/>
	<polygon fill="#898C8A" points="111.9,68.3 111.9,66.2 115.2,66.2 115.2,65.6 111.9,65.6 111.9,63.5 115.6,63.5 115.6,62.8 
		111.2,62.8 111.2,68.9 115.6,68.9 115.6,68.3 	"/>
	<polygon fill="#898C8A" points="184.3,68.3 184.3,66.2 187.6,66.2 187.6,65.6 184.3,65.6 184.3,63.5 188,63.5 188,62.8 183.6,62.8 
		183.6,69 188.1,69 188.1,68.3 	"/>
	<rect x="175.2" y="62.8" fill="#898C8A" width="0.7" height="6.2"/>
	<path fill="#898C8A" d="M63.5,62.8h-0.7l-2.7,6.1h0.7l0.7-1.6h3.3l0.7,1.6h0.8L63.5,62.8z M61.9,66.7l1.4-3.1l1.4,3.1H61.9z"/>
	<path fill="#898C8A" d="M129.9,62.8h-0.7l-2.7,6.1h0.7l0.7-1.6h3.3L132,69h0.8L129.9,62.8z M128.2,66.7l1.4-3.1l1.4,3.1H128.2z"/>
	<path fill="#898C8A" d="M79.2,67.5l0.5,0.5c-0.6,0.7-1.4,1.1-2.3,1.1c-1.7,0-3.1-1.4-3.1-3.2c0-1.8,1.4-3.2,3.1-3.2
		c0.9,0,1.7,0.4,2.3,1l-0.5,0.5c-0.9-0.9-1.8-0.9-1.8-0.9c-1.3,0-2.4,1.1-2.4,2.5c0,1.4,1.1,2.5,2.4,2.5
		C77.4,68.4,78.4,68.5,79.2,67.5z"/>
	<path fill="#898C8A" d="M91.5,66.5c0,0,1.7-0.3,1.6-1.8c0,0,0.1-1.8-2-1.9h-2.8v6.1H89v-2.4h1.7l1.8,2.4h0.8L91.5,66.5z M89,65.9
		v-2.5h2c0,0,1.4,0,1.4,1.2c0,0,0.2,1.2-1.5,1.3H89z"/>
	<path fill="#898C8A" d="M120.6,66.5c0,0,1.7-0.3,1.6-1.8c0,0,0.1-1.8-2-1.9h-2.8v6.1h0.7v-2.4h1.7l1.8,2.4h0.8L120.6,66.5z
		 M118.1,65.9v-2.5h2c0,0,1.4,0,1.4,1.2c0,0,0.2,1.2-1.5,1.3H118.1z"/>
	<polygon fill="#898C8A" points="93.5,62.8 94.3,62.8 96.4,65.9 98.4,62.8 99.2,62.8 96.7,66.5 96.7,68.9 96,68.9 96,66.5 	"/>
	<path fill="#898C8A" d="M103.6,64l0.4-0.6c0,0-0.8-0.7-2-0.7c-1.1,0-2.2,0.5-2.1,1.9c0.1,1.4,1.8,1.4,3,1.9c0,0,0.6,0.2,0.6,0.8
		c-0.1,0.6-0.4,1.1-1.5,1.1s-1.9-0.9-1.9-0.9l-0.4,0.5c0,0,0.8,1,2.5,1c1.6,0,2.1-1.1,2.1-1.8c0-0.7-0.4-1.3-1.9-1.7
		c-1.5-0.4-1.7-0.6-1.7-1.4C100.6,63.4,102.1,62.8,103.6,64z"/>
	<path fill="#898C8A" d="M193.4,64.1l0.4-0.6c0,0-0.8-0.7-2-0.7c-1.1,0-2.2,0.5-2.1,1.9c0.1,1.4,1.8,1.4,3,1.9c0,0,0.6,0.2,0.6,0.8
		s-0.4,1.1-1.5,1.1s-1.9-0.9-1.9-0.9l-0.4,0.5c0,0,0.8,1,2.5,1c1.6,0,2.1-1.1,2.1-1.8c0-0.7-0.4-1.3-1.9-1.7
		c-1.5-0.4-1.7-0.6-1.7-1.4C190.4,63.5,192,62.9,193.4,64.1z"/>
	<path fill="#898C8A" d="M133.6,62.8h0.7v3.7c0,0-0.1,1.9,1.9,1.9c0,0,1.7,0.1,1.8-1.8v-3.8h0.7v3.6c0,0,0.2,2.5-2.5,2.6
		c0,0-2.4,0.2-2.5-2.5V62.8z"/>
	<path fill="#898C8A" d="M148,62.7c-1.7,0-3.1,1.4-3.1,3.2c0,1.8,1.4,3.2,3.1,3.2c1.7,0,3.1-1.4,3.1-3.2
		C151.1,64,149.7,62.7,148,62.7z M148.1,68.4c-1.3,0-2.4-1.1-2.4-2.5c0-1.4,1.1-2.5,2.4-2.5c1.3,0,2.4,1,2.4,2.5
		C150.4,67.3,149.4,68.4,148.1,68.4z"/>
	<path fill="#898C8A" d="M163.5,62.8c-1.7,0-3.1,1.4-3.1,3.2c0,1.8,1.4,3.2,3.1,3.2c1.7,0,3.1-1.4,3.1-3.2
		C166.6,64.1,165.2,62.8,163.5,62.8z M163.5,68.5c-1.3,0-2.4-1.1-2.4-2.5c0-1.4,1.1-2.5,2.4-2.5c1.3,0,2.4,1,2.4,2.5
		C165.9,67.3,164.9,68.5,163.5,68.5z"/>
	<polygon fill="#898C8A" points="158,62.8 155.7,66.1 153.5,62.8 152.8,62.8 152.8,69 153.5,69 153.5,64 155.7,67.3 158,64 158,69 
		158.6,69 158.6,62.8 	"/>
	<path fill="#898C8A" d="M172.1,65.8c0,0,1-0.4,0.9-1.5c-0.1-1.1-1.3-1.4-1.9-1.4h-2.7V69h2.9c0,0,2,0,2-1.7
		C173.4,67.3,173.4,66.1,172.1,65.8z M169.2,63.4h1.9c1.4,0,1.3,1,1.3,1c0,1.1-1.2,1.1-1.2,1.1h-2V63.4z M171.4,68.3h-2.2v-2.1h2.1
		c0,0,1.4,0,1.4,1.1C172.7,68.3,171.4,68.3,171.4,68.3z"/>
	<polygon fill="#6286C3" points="68.5,51.6 75.5,51.6 75.5,40.4 98.1,40.4 98.1,33.9 75.4,33.9 75.4,26.2 99.2,26.2 99.2,19.4 
		68.5,19.4 	"/>
	<polygon fill="#6286C3" points="137.4,51.6 145,51.6 157.8,29.8 170.3,51.6 178.1,51.6 157.7,16.7 	"/>
	<path fill="#6286C3" d="M131.8,38.9c-1.4,4.5-5.7,7.8-10.7,7.8c-6.2,0-11.2-5-11.2-11.1c0-6.1,5-11.1,11.2-11.1
		c5,0,9.2,3.2,10.7,7.7h6.7C136.9,24.1,129.7,18,121,18c-9.8,0-17.8,7.9-17.8,17.6c0,9.7,8,17.6,17.8,17.6c8.7,0,15.9-6.1,17.5-14.3
		H131.8z"/>
</g>
</svg>
