<?xml version="1.0" encoding="utf-8"?>
<!-- Generator: Adobe Illustrator 17.1.0, SVG Export Plug-In . SVG Version: 6.00 Build 0)  -->
<!DOCTYPE svg PUBLIC "-//W3C//DTD SVG 1.1//EN" "http://www.w3.org/Graphics/SVG/1.1/DTD/svg11.dtd">
<svg version="1.1" id="Layer_1" xmlns="http://www.w3.org/2000/svg" xmlns:xlink="http://www.w3.org/1999/xlink" x="0px" y="0px"
	 viewBox="0 0 246 88" enable-background="new 0 0 246 88" xml:space="preserve">
<g>
	<polygon fill-rule="evenodd" clip-rule="evenodd" fill="#1D1D1B" points="50.3,55.1 54.1,55.1 54.1,54.1 45.2,54.1 45.2,55.1 
		49,55.1 49,63.3 50.3,63.3 50.3,55.1 	"/>
	<path fill-rule="evenodd" clip-rule="evenodd" fill="#1D1D1B" d="M60.7,63.3H62v-3.8c0-2.2-1.3-3.1-3.1-3.1c-1.2,0-2.3,0.5-2.8,1.4
		v-3.8h-1.3v9.2h1.3v-3.1c0-2.1,1.3-2.9,2.6-2.9c1.2,0,2,0.7,2,2.3V63.3L60.7,63.3z"/>
	<path fill-rule="evenodd" clip-rule="evenodd" fill="#1D1D1B" d="M67.4,57.3c-1.3,0-2.3,0.7-2.4,2.2h4.7
		C69.6,57.9,68.5,57.3,67.4,57.3L67.4,57.3L67.4,57.3z M64.9,60.3c0.1,1.3,0.9,2.3,2.4,2.3c1.1,0,1.9-0.4,2.2-1.3h1.4
		c-0.3,1.6-1.9,2.2-3.5,2.2c-2.4,0-3.8-1.3-3.8-3.4c0-2.3,1.5-3.7,3.8-3.7c2.3,0,3.6,1.2,3.6,3.5v0.4H64.9L64.9,60.3z"/>
	<path fill-rule="evenodd" clip-rule="evenodd" fill="#1D1D1B" d="M120.5,57.7c0.2,0,0.5,0,0.9,0.1v-1.1c-0.2-0.1-0.4-0.1-0.7-0.1
		c-1.2,0-2.1,0.7-2.5,1.5l-0.1-1.3h-1.2c0,0.5,0.1,0.9,0.1,1.5v5.1h1.2v-3.2C118.2,58.5,118.9,57.7,120.5,57.7L120.5,57.7
		L120.5,57.7z"/>
	<path fill-rule="evenodd" clip-rule="evenodd" fill="#1D1D1B" d="M159.5,57.7c0.3,0,0.6,0,1,0.1v-1.1c-0.2-0.1-0.4-0.1-0.8-0.1
		c-1.2,0-2,0.7-2.5,1.5v-1.3h-1.2c0,0.5,0,0.9,0,1.5v5.1h1.3v-3.2C157.2,58.5,158,57.7,159.5,57.7L159.5,57.7L159.5,57.7z"/>
	<polygon fill-rule="evenodd" clip-rule="evenodd" fill="#1D1D1B" points="97.2,62.3 95.2,56.7 93.7,56.7 96.3,63.3 98.1,63.3 
		100.2,57.7 102.6,63.3 104.3,63.3 106.9,56.7 105.5,56.7 103.4,62.3 101.2,56.7 99.5,56.7 97.2,62.3 	"/>
	<path fill-rule="evenodd" clip-rule="evenodd" fill="#1D1D1B" d="M80.3,55h-2.6v3.7h2.7c1.7,0,2.3-0.7,2.3-1.9
		C82.6,55.8,82,55,80.3,55L80.3,55L80.3,55z M80.4,59.7h-2.8v3.6h-1.3v-9.2h3.9c2.8-0.1,3.8,1.1,3.8,2.7
		C84,58.5,82.9,59.7,80.4,59.7L80.4,59.7L80.4,59.7z"/>
	<path fill-rule="evenodd" clip-rule="evenodd" fill="#1D1D1B" d="M88.8,57.3c-1.8,0-2.7,1.1-2.7,2.7c0,1.4,0.9,2.6,2.7,2.6
		c1.9,0,2.8-1.2,2.8-2.6C91.6,58.4,90.7,57.3,88.8,57.3L88.8,57.3L88.8,57.3z M88.8,63.5c-2.6,0-4-1.2-4-3.5c0-2.2,1.4-3.6,4-3.6
		c2.8,0,4.1,1.3,4.1,3.6C92.9,62.3,91.5,63.5,88.8,63.5L88.8,63.5L88.8,63.5z"/>
	<path fill-rule="evenodd" clip-rule="evenodd" fill="#1D1D1B" d="M111.4,57.3c-1.3,0-2.3,0.7-2.4,2.2h4.7
		C113.7,57.9,112.5,57.3,111.4,57.3L111.4,57.3L111.4,57.3z M108.9,60.3c0.2,1.3,0.9,2.3,2.4,2.3c1.1,0,2-0.4,2.3-1.3h1.3
		c-0.3,1.6-1.9,2.2-3.5,2.2c-2.4,0-3.8-1.3-3.8-3.4c0-2.3,1.4-3.7,3.8-3.7c2.3,0,3.7,1.2,3.7,3.5v0.4H108.9L108.9,60.3z"/>
	<path fill-rule="evenodd" clip-rule="evenodd" fill="#1D1D1B" d="M165,57.3c-1.3,0-2.3,0.7-2.4,2.2h4.7
		C167.2,57.9,166.1,57.3,165,57.3L165,57.3L165,57.3z M162.5,60.3c0.1,1.3,0.9,2.3,2.4,2.3c1.1,0,1.9-0.4,2.2-1.3h1.4
		c-0.3,1.6-1.9,2.2-3.6,2.2c-2.3,0-3.8-1.3-3.8-3.4c0-2.3,1.5-3.7,3.8-3.7c2.3,0,3.6,1.2,3.6,3.5v0.4H162.5L162.5,60.3z"/>
	<path fill-rule="evenodd" clip-rule="evenodd" fill="#1D1D1B" d="M138.3,54.7c0.3,0,0.7,0.1,1.4,0.2V54c-0.5-0.1-1-0.1-1.7-0.1
		c-1.9,0-2.4,0.9-2.4,2.5v0.3h-1.7v0.8h1.7v5.7h1.2v-5.7h2.7v-0.8h-2.7v-0.6C136.8,55.1,137.3,54.7,138.3,54.7L138.3,54.7
		L138.3,54.7z"/>
	<path fill-rule="evenodd" clip-rule="evenodd" fill="#1D1D1B" d="M129.2,57.3c-1.8,0-2.7,1.1-2.7,2.7c0,1.4,0.9,2.6,2.7,2.6
		c1.8,0,2.7-1.2,2.7-2.6C132,58.4,131.1,57.3,129.2,57.3L129.2,57.3L129.2,57.3z M129.2,63.5c-2.7,0-4.1-1.2-4.1-3.5
		c0-2.2,1.5-3.6,4.1-3.6c2.7,0,4.1,1.3,4.1,3.6C133.4,62.3,131.9,63.5,129.2,63.5L129.2,63.5L129.2,63.5z"/>
	<path fill-rule="evenodd" clip-rule="evenodd" fill="#1D1D1B" d="M185.4,58c-0.4-1-1.4-1.6-2.3-1.6c-0.9,0-1.9,0.5-2.4,1.4
		l-0.1-1.1h-1.2c0,0.5,0.1,0.9,0.1,1.5v5.1h1.2v-3.2c0-2,1.1-2.8,2.2-2.8s1.6,0.8,1.6,2.6v3.4h1.3v-3.2c0-2.3,1.4-2.8,2.1-2.8
		c1.3,0,1.7,0.9,1.7,2.6v3.4h1.2v-3.8c0-2.2-1.1-3-2.7-3C186.6,56.4,185.6,57.4,185.4,58L185.4,58L185.4,58z"/>
	<path fill-rule="evenodd" clip-rule="evenodd" fill="#1D1D1B" d="M195.6,63.5c2.4,0,3.7-0.7,3.7-2.1c0-1-0.7-1.5-1.9-1.7l-2.2-0.5
		c-0.9-0.2-1.4-0.4-1.4-0.9c0-0.7,0.8-1,2-1c0.9,0,1.8,0.3,1.9,1.1h1.3c0-1.6-1.8-2-3.2-2c-1.7,0-3.2,0.6-3.2,2.1
		c0,1,0.8,1.5,1.8,1.7l2.1,0.4c0.7,0.2,1.4,0.4,1.4,0.9c0,0.8-0.7,1.1-2.2,1.1c-1.1,0-2-0.4-2.2-1.2h-1.3
		C192.3,62.9,193.7,63.5,195.6,63.5L195.6,63.5L195.6,63.5z"/>
	<path fill-rule="evenodd" clip-rule="evenodd" fill="#1D1D1B" d="M148.5,55h-2.2v7.2h2.3c3.2,0,3.9-1.7,3.9-3.6
		C152.6,56.2,151.8,55,148.5,55L148.5,55L148.5,55z M148.9,63.3h-3.9v-9.2h3.9c3.6,0,5.2,1.6,5.2,4.6
		C154,61.6,152.1,63.3,148.9,63.3L148.9,63.3L148.9,63.3z"/>
	<path fill-rule="evenodd" clip-rule="evenodd" fill="#1D1D1B" d="M175.8,60.4c0,1.6-0.8,2.3-2.4,2.3c-1.3,0-1.8-0.6-1.8-1.3
		c0-1.4,2.6-1.3,3.6-1.3h0.7V60.4L175.8,60.4z M175.9,63.3h1.2c0-0.4,0-0.7,0-1.3v-3.2c0-1.6-1.3-2.3-3.2-2.3c-1.4,0-3.1,0.4-3.3,2
		h1.4c0.1-0.7,0.7-1.1,1.9-1.1s1.9,0.5,1.9,1.6v0.3H175c-1.5,0-4.9-0.1-4.9,2.2c0,1.3,1.1,2.2,2.8,2.2c1.3,0,2.2-0.1,2.8-1.1
		L175.9,63.3L175.9,63.3z"/>
	<path fill-rule="evenodd" clip-rule="evenodd" fill="#E12029" d="M189.2,36.1h8.2l-4.1-6.4L189.2,36.1L189.2,36.1z M175.8,46.2
		v-2.8l2.9-0.3c0.9-0.2,1.3-1,1.5-1.2l7-11.5c0.6-0.8,0-1.7-0.8-1.8l-3.7-0.4v-2.9h16c0.9,0,1.5,0.7,1.9,1.2l9.4,14.4
		c0.8,1.1,1.3,2.1,2.3,2.2l3,0.3v2.9h-18.1v-2.8l2.3-0.3c1.1-0.1,2.1-0.7,1.1-2l-0.8-1.3H187l-1,1.6c-0.6,0.9,0,1.6,0.9,1.7l2.3,0.3
		v2.8H175.8L175.8,46.2z"/>
	<path fill-rule="evenodd" clip-rule="evenodd" fill="#E12029" d="M160.6,42.2h-5.3V29.3h5.3c5.2,0,7.2,1.1,7.2,6.5
		C167.8,41,165.7,42.2,160.6,42.2L160.6,42.2L160.6,42.2z M163.8,25.3h-20.6v2.9l2.5,0.2c1,0.2,1.4,0.8,1.4,1.8c0,0.9,0,10.5,0,11.3
		c0,0.8-0.4,1.6-1.2,1.7l-2.7,0.4v2.7h20.6c9.6,0,13.7-4.6,13.7-10.8C177.5,30,173.3,25.3,163.8,25.3L163.8,25.3L163.8,25.3z"/>
	<path fill-rule="evenodd" clip-rule="evenodd" fill="#E12029" d="M30.6,46.2h16.8v-2.8l-2.9-0.3c-0.7-0.1-1.3-0.5-1.3-1.9v-3.4
		h12.9V41c0,0.9-0.2,1.9-1.3,2l-2.9,0.3v2.9h16.8v-2.9l-3-0.3c-0.6-0.1-1.2-0.6-1.2-1.7V30.4c0-1.1,0.4-1.9,1.3-2l2.9-0.3v-2.9H51.9
		v2.8l2.9,0.4c1,0.1,1.3,0.9,1.3,2v3.2H43.2v-3.3c0-1.2,0.6-1.8,1.4-1.9l2.8-0.3v-2.9H30.7v2.9l2.8,0.3c1,0.1,1.4,0.9,1.3,2V41
		c0,1.2-0.3,2-1.4,2.1l-2.8,0.3V46.2L30.6,46.2z"/>
	<path fill-rule="evenodd" clip-rule="evenodd" fill="#E12029" d="M86.6,28.5c-4.8,0-7.5,1.8-7.5,7.2c0,5.5,2.7,7.3,7.5,7.3
		c4.7,0,7.4-1.8,7.4-7.3C94,30.3,91.3,28.5,86.6,28.5L86.6,28.5L86.6,28.5z M69.5,35.7c0-6.6,5.3-11.2,17.2-11.2
		c11.7,0,17.1,4.6,17.1,11.2c0,6.7-5.3,11.3-17.1,11.3C74.8,47,69.5,42.4,69.5,35.7L69.5,35.7L69.5,35.7z"/>
	<path fill-rule="evenodd" clip-rule="evenodd" fill="#E12029" d="M104.7,46.2H118v-2.8l-2.8-0.3c-0.8-0.1-1.3-0.8-1.3-1.8V30.7
		l11.1,14.6c0.4,0.6,1.1,0.8,1.8,0.8h10.5V30.3c0-0.7,0.2-1.8,1.2-1.9l2.9-0.3v-2.9H128v2.8l2.9,0.4c1,0.1,1.2,1,1.2,2v10.3
		l-11-14.5c-0.5-0.6-1-0.9-1.8-0.9h-14.7v2.9l2.7,0.3c1,0.2,1.4,0.7,1.4,2l0,10.6c0,1.3-0.4,1.9-1.4,2.1l-2.7,0.3V46.2L104.7,46.2z"
		/>
</g>
</svg>
