<?xml version="1.0" encoding="utf-8"?>
<!-- Generator: Adobe Illustrator 17.1.0, SVG Export Plug-In . SVG Version: 6.00 Build 0)  -->
<!DOCTYPE svg PUBLIC "-//W3C//DTD SVG 1.1//EN" "http://www.w3.org/Graphics/SVG/1.1/DTD/svg11.dtd">
<svg version="1.1" id="Layer_1" xmlns="http://www.w3.org/2000/svg" xmlns:xlink="http://www.w3.org/1999/xlink" x="0px" y="0px"
	 viewBox="0 0 246 88" enable-background="new 0 0 246 88" xml:space="preserve">
<g>
	<polygon fill="#595959" points="32.1,38.3 32.2,38.2 28.2,38.2 28.2,38.3 28.1,38.3 25.8,43.4 22.5,38.3 22.5,38.3 22.5,38.3 
		22.4,38.2 18.5,38.2 13.7,48.5 17.8,48.5 20.2,43.3 23.7,48.5 27.4,48.5 32.2,38.3 	"/>
	<polygon fill="#595959" points="217.5,43.3 221,48.5 224.7,48.5 229.5,38.2 225.5,38.2 223.1,43.4 219.7,38.2 215.8,38.2 
		211.1,48.5 215,48.5 	"/>
	<path fill="#595959" d="M129.8,47.8c0.5,0.3,1,0.5,1.6,0.6c0.6,0.1,1.3,0.2,2.1,0.2c0.8,0,1.4,0,2.4-0.1c0.9-0.1,1.3-0.2,2.2-0.4
		l2.6-5.5h-4.6l-1.2,2.1h1.6l-0.6,1.2c-0.2,0.1-0.2,0.1-0.4,0.1c-0.2,0.1-0.4,0.1-0.5,0.1c-0.9,0-1.5-0.3-2-0.8
		c-0.4-0.5-0.4-1.2,0-2c0.4-0.8,1-1.5,1.9-2.1c0.9-0.5,1.9-0.7,3-0.7c0.6,0,1.2,0.1,1.7,0.2c0.5,0.2,1.1,0.4,1.6,0.6l1.1-2.4
		c-0.6-0.3-1.3-0.5-2-0.6c-0.7-0.1-1.4-0.2-2.2-0.2c-1.1,0-2.1,0.1-3.1,0.4c-0.9,0.3-1.9,0.6-2.8,1.1c-0.8,0.5-1.6,1.1-2.2,1.7
		c-0.6,0.6-1.1,1.4-1.4,2.1c-0.4,1-0.5,1.8-0.3,2.6C128.5,46.6,129,47.3,129.8,47.8z"/>
	<path fill="#595959" d="M110.7,48.5l1.7-3.7h1.3c1.8,0,3.2-0.3,4.4-0.8c1.2-0.6,2.1-1.4,2.5-2.5c0.5-1.1,0.4-1.9-0.2-2.4
		c-0.7-0.5-1.9-0.8-3.7-0.8h-5.6l-4.8,10.3H110.7z M114.6,40.1h0.9c0.6,0,1.1,0.1,1.3,0.4c0.2,0.2,0.2,0.5-0.1,1
		c-0.2,0.5-0.5,0.9-1,1.1c-0.4,0.3-1,0.4-1.7,0.4h-0.8L114.6,40.1z"/>
	<polygon fill="#595959" points="70.3,48.5 72.2,44.7 76.6,44.7 74.8,48.5 79.2,48.5 84.2,38.2 79.8,38.2 78,42 73.5,42 75.3,38.2 
		70.9,38.2 66,48.5 	"/>
	<polygon fill="#595959" points="61.6,48.5 65.4,40.9 69.1,40.9 70.4,38.2 58.8,38.2 57.5,40.9 61.2,40.9 57.5,48.5 	"/>
	<path fill="#595959" d="M40.5,47.2c0.9-0.5,1.6-1.1,2.2-1.7c0.6-0.6,1.1-1.4,1.4-2.1c0.3-0.8,0.4-1.5,0.4-2.2
		c0-0.6-0.3-1.2-0.7-1.7c-0.4-0.5-1-0.8-1.6-1.1c-0.7-0.3-1.5-0.4-2.5-0.4c-0.9,0-1.9,0.1-2.8,0.4c-0.9,0.3-1.8,0.6-2.6,1.1
		c-0.9,0.5-1.6,1.1-2.2,1.7c-0.5,0.6-1,1.4-1.3,2.2c-0.3,0.7-0.4,1.4-0.4,2.1c0,0.6,0.3,1.2,0.7,1.7c0.4,0.5,1,0.9,1.7,1.2
		c0.6,0.2,1.4,0.4,2.4,0.4c0.9,0,1.9-0.2,2.8-0.4C38.8,48.1,39.7,47.7,40.5,47.2z M34.9,45c-0.3-0.5-0.3-1,0-1.6
		c0.3-0.7,0.8-1.3,1.4-1.7c0.6-0.4,1.3-0.6,2.1-0.6c0.7,0,1.2,0.3,1.5,0.6c0.3,0.5,0.3,1,0,1.7c-0.3,0.6-0.8,1.2-1.4,1.6
		c-0.6,0.5-1.3,0.6-2.1,0.6C35.7,45.6,35.2,45.5,34.9,45z"/>
	<path fill="#595959" d="M94.4,45.5c0,0.6,0.3,1.2,0.7,1.7c0.4,0.5,1,0.9,1.6,1.2c0.7,0.2,1.5,0.4,2.5,0.4c0.9,0,1.8-0.2,2.8-0.4
		c0.9-0.3,1.8-0.6,2.6-1.2c0.9-0.5,1.6-1.1,2.2-1.7c0.6-0.6,1.1-1.4,1.4-2.1c0.3-0.8,0.4-1.5,0.4-2.2c0-0.6-0.3-1.2-0.7-1.7
		c-0.4-0.5-1-0.8-1.7-1.1c-0.6-0.3-1.5-0.4-2.4-0.4c-1,0-1.9,0.1-2.8,0.4c-0.9,0.3-1.8,0.6-2.6,1.1c-0.9,0.5-1.6,1.1-2.2,1.7
		c-0.5,0.6-1,1.4-1.3,2.2C94.4,44.1,94.3,44.8,94.4,45.5z M99,43.4c0.3-0.7,0.7-1.3,1.4-1.7c0.6-0.4,1.3-0.6,2.1-0.6
		c0.7,0,1.2,0.3,1.4,0.6c0.4,0.5,0.4,1,0.1,1.7c-0.4,0.6-0.8,1.2-1.4,1.6c-0.6,0.5-1.3,0.6-2.1,0.6c-0.7,0-1.3-0.2-1.5-0.6
		S98.7,44,99,43.4z"/>
	<path fill="#595959" d="M153.7,47.4c0.7,0.8,2.2,1.3,4.2,1.3c2.2,0,4-0.5,5.4-1.3c1.4-0.8,2.6-2,3.3-3.6l2.5-5.6H165l-2.5,5.5
		c-0.3,0.7-0.7,1.3-1.3,1.6c-0.5,0.4-1.2,0.5-1.9,0.5c-0.8,0-1.3-0.2-1.4-0.5c-0.3-0.4-0.2-0.9,0.2-1.6l2.5-5.5h-4.2l-2.6,5.6
		C153,45.5,153,46.6,153.7,47.4z"/>
	<path fill="#595959" d="M199.9,48.5l1.6-1.8h5.3v1.8h4l-0.5-10.3H206l-10.3,10.3H199.9z M206.9,40.9l-0.1,3.9h-3.5L206.9,40.9z"/>
	<path fill="#595959" d="M46.7,48.5l2.1-4.3H50c1.1,0.1,1.4,1.4,1.4,3.4c0,0.2,0,0.5,0,0.9h4l-0.2-3.3c0-0.4-0.1-0.9-0.3-1.2
		c-0.1-0.2-0.4-0.4-0.5-0.5c0.7-0.3,1.1-0.5,1.6-1c0.5-0.4,0.8-0.9,1.1-1.4c0.5-1,0.4-1.7-0.3-2.3c-0.7-0.5-2-0.7-3.9-0.7h-5.8
		l-4.8,10.3H46.7z M50.7,39.9h0.8c0.7,0,1.3,0.2,1.5,0.4c0.2,0.2,0.4,0.6,0.2,1.2c-0.1,0.4-0.5,0.7-1,0.9c-0.4,0.2-1.3,0.4-2.1,0.4
		h-0.8L50.7,39.9z"/>
	<path fill="#595959" d="M84.8,48.5l2.1-4.3H88c1.1,0.1,1.5,1.4,1.5,3.4c0,0.2-0.1,0.5-0.1,0.9h4l-0.1-3.3c-0.1-0.4-0.2-0.9-0.4-1.2
		c-0.1-0.2-0.3-0.4-0.5-0.5c0.7-0.3,1.2-0.5,1.6-1c0.4-0.4,0.8-0.9,1.1-1.4c0.4-1,0.4-1.7-0.3-2.3c-0.7-0.5-2-0.7-3.9-0.7h-5.7
		l-4.9,10.3H84.8z M88.8,39.9h0.8c0.7,0,1.3,0.2,1.5,0.4c0.3,0.2,0.4,0.6,0.2,1.2c-0.1,0.4-0.5,0.7-1,0.9c-0.4,0.2-1.3,0.4-2,0.4
		h-0.9L88.8,39.9z"/>
	<path fill="#595959" d="M143.6,48.5l2.1-4.3h1.2c1.1,0.1,1.4,1.4,1.4,3.4c0,0.2,0,0.5,0,0.9h4l-0.2-3.3c0-0.4-0.2-0.9-0.3-1.2
		c-0.1-0.2-0.4-0.4-0.5-0.5c0.7-0.3,1.1-0.5,1.5-1c0.5-0.4,0.9-0.9,1.1-1.4c0.5-1,0.4-1.7-0.3-2.3c-0.6-0.5-1.9-0.7-3.9-0.7h-5.7
		l-4.9,10.3H143.6z M147.5,39.9h0.8c0.7,0,1.3,0.2,1.5,0.4c0.2,0.2,0.4,0.6,0.2,1.2c-0.1,0.4-0.6,0.7-1,0.9
		c-0.4,0.2-1.3,0.4-2.1,0.4h-0.8L147.5,39.9z"/>
	<polygon fill="#595959" points="169.5,48.5 172.1,42.8 173.3,46.8 178.4,42.7 175.7,48.5 179.7,48.5 184.5,38.2 180.5,38.2 
		175.6,42.3 174.2,38.2 170.3,38.2 165.5,48.5 	"/>
	<polygon fill="#595959" points="184.9,48.5 187.6,42.8 188.8,46.8 193.9,42.7 191.1,48.5 195.2,48.5 200,38.2 195.9,38.2 191,42.3 
		189.7,38.2 185.8,38.2 180.9,48.5 	"/>
	<path fill="#595959" d="M232.3,51.7c-4.2,0-9.2,0-15.1,0c-47.6-0.3-146.5-0.9-181.6,24l0.2,0.3C70.8,51.1,169.7,51.7,217.2,52
		c5.9,0,10.9,0.1,15.1,0L232.3,51.7z"/>
</g>
</svg>
