<?xml version="1.0" encoding="utf-8"?>
<!-- Generator: Adobe Illustrator 16.0.4, SVG Export Plug-In . SVG Version: 6.00 Build 0)  -->
<!DOCTYPE svg PUBLIC "-//W3C//DTD SVG 1.1//EN" "http://www.w3.org/Graphics/SVG/1.1/DTD/svg11.dtd">
<svg version="1.1" id="Layer_1" xmlns="http://www.w3.org/2000/svg" xmlns:xlink="http://www.w3.org/1999/xlink" x="0px" y="0px"
	 width="576px" height="288px" viewBox="0 0 576 288" enable-background="new 0 0 576 288" xml:space="preserve">
<g>
	
		<radialGradient id="SVGID_1_" cx="96.7217" cy="371.5068" r="106.6157" gradientTransform="matrix(-1.9441 1.3051 0.9438 1.406 37.0803 -585.6257)" gradientUnits="userSpaceOnUse">
		<stop  offset="0.3086" style="stop-color:#DEDEDE"/>
		<stop  offset="0.392" style="stop-color:#9E9E9E"/>
		<stop  offset="0.522" style="stop-color:#3F3F3F"/>
		<stop  offset="0.5807" style="stop-color:#1A1A1A"/>
		<stop  offset="0.6089" style="stop-color:#202020"/>
		<stop  offset="0.8339" style="stop-color:#4D4D4D"/>
	</radialGradient>
	<path fill="url(#SVGID_1_)" d="M145.044,137.085c0-28.002,37.534-52.131,92.346-64.643
		c-72.686,9.235-126.008,37.833-126.008,71.494c0,41.408,79.239,74.771,176.649,74.771c43.791,0,83.708-6.853,114.39-17.873
		c-24.724,5.659-53.024,8.936-83.11,8.936C223.091,210.068,145.044,177.301,145.044,137.085z"/>
	
		<radialGradient id="SVGID_2_" cx="168.8999" cy="259.8896" r="121.1331" gradientTransform="matrix(2.3415 0 0 -2.3415 -108.6707 554.9887)" gradientUnits="userSpaceOnUse">
		<stop  offset="0" style="stop-color:#DEDEDE"/>
		<stop  offset="0.6091" style="stop-color:#DEDEDE"/>
		<stop  offset="0.6587" style="stop-color:#BFBFBF"/>
		<stop  offset="0.7675" style="stop-color:#717171"/>
		<stop  offset="0.8957" style="stop-color:#0D0D0D"/>
		<stop  offset="0.9081" style="stop-color:#131313"/>
		<stop  offset="0.9255" style="stop-color:#262626"/>
		<stop  offset="0.9459" style="stop-color:#444444"/>
		<stop  offset="0.9509" style="stop-color:#4D4D4D"/>
	</radialGradient>
	<path fill="url(#SVGID_2_)" d="M464.682,144.234c0-41.407-79.238-74.771-176.65-74.771c-17.575,0-34.555,1.191-50.641,3.277
		c-54.812,12.214-92.346,36.343-92.346,64.345c0,40.216,78.047,72.983,174.267,72.983c30.086,0,58.387-3.277,83.11-8.938
		C440.552,187.429,464.682,166.874,464.682,144.234z"/>
	<ellipse fill="#4A2681" cx="288.032" cy="143.936" rx="148.648" ry="62.855"/>
	
		<radialGradient id="eyebrow_shadow_right_2_" cx="86.4102" cy="220.542" r="19.4255" fx="86.4001" fy="220.5419" gradientTransform="matrix(-0.0397 -2.3412 -3.8531 0.0653 1232.0977 307.0975)" gradientUnits="userSpaceOnUse">
		<stop  offset="0" style="stop-color:#000000;stop-opacity:0.2"/>
		<stop  offset="1" style="stop-color:#000000;stop-opacity:0"/>
	</radialGradient>
	<ellipse id="eyebrow_shadow_right_1_" fill="url(#eyebrow_shadow_right_2_)" cx="288.927" cy="144.531" rx="145.071" ry="59.876"/>
	
		<radialGradient id="lower_left_rim_shadow_2_" cx="737.5869" cy="1417.6318" r="34.6647" fx="731.55" fy="1436.5653" gradientTransform="matrix(0.0073 2.3415 -5.9555 0.0185 8766.6934 -1624.5789)" gradientUnits="userSpaceOnUse">
		<stop  offset="0.9571" style="stop-color:#000000;stop-opacity:0"/>
		<stop  offset="0.99" style="stop-color:#000000;stop-opacity:0.23"/>
	</radialGradient>
	<path id="lower_left_rim_shadow_1_" fill="url(#lower_left_rim_shadow_2_)" d="M321.992,197.557c23.533,0,44.086-2.979,61.96-8.043
		c-25.619,9.234-58.685,14.596-95.324,14.596c-80.133,0-145.073-26.809-145.073-59.875c0-4.171,0.894-8.043,2.979-11.916
		C148.023,178.193,243.944,197.557,321.992,197.557z"/>
	
		<radialGradient id="bottom_right_glow_1_" cx="74.8677" cy="195.2822" r="33.646" gradientTransform="matrix(-0.0023 -2.3415 -4.7918 0.0046 1303.4875 387.6221)" gradientUnits="userSpaceOnUse">
		<stop  offset="0" style="stop-color:#B895C8;stop-opacity:0.4"/>
		<stop  offset="1" style="stop-color:#B895C8;stop-opacity:0"/>
	</radialGradient>
	<ellipse id="bottom_right_glow_3_" fill="url(#bottom_right_glow_1_)" cx="288.927" cy="144.531" rx="145.071" ry="59.876"/>
	
		<radialGradient id="lower_right_rim_light_2_" cx="198.7612" cy="1457.9014" r="29.8495" fx="193.5629" fy="1474.2047" gradientTransform="matrix(-0.0073 2.3415 5.9555 0.0185 -8419.4082 -352.907)" gradientUnits="userSpaceOnUse">
		<stop  offset="0.9702" style="stop-color:#FDF1F6;stop-opacity:0"/>
		<stop  offset="0.99" style="stop-color:#FDF1F6;stop-opacity:0.5"/>
	</radialGradient>
	<path id="lower_right_rim_light_1_" fill="url(#lower_right_rim_light_2_)" d="M255.264,197.557
		c-23.534,0-44.088-2.979-61.961-8.043c25.619,9.234,58.685,14.596,95.325,14.596c80.132,0,145.072-26.809,145.072-59.875
		c0-4.171-0.894-8.043-2.979-11.916C429.53,178.193,333.311,197.557,255.264,197.557z"/>
	
		<radialGradient id="top_left_glow_circle_2_" cx="165.7114" cy="278.7061" r="37.3065" fx="162.9552" fy="278.2987" gradientTransform="matrix(0.0501 2.341 4.4607 -0.0955 -1034.0762 -259.7405)" gradientUnits="userSpaceOnUse">
		<stop  offset="0" style="stop-color:#9967AF"/>
		<stop  offset="0.2432" style="stop-color:#935EAB;stop-opacity:0.7568"/>
		<stop  offset="0.626" style="stop-color:#84489F;stop-opacity:0.374"/>
		<stop  offset="1" style="stop-color:#712B90;stop-opacity:0"/>
	</radialGradient>
	<ellipse id="top_left_glow_circle_1_" fill="url(#top_left_glow_circle_2_)" cx="288.927" cy="144.531" rx="145.071" ry="59.876"/>
	
		<radialGradient id="top_left_rim_eyebrow_2_" cx="60.2881" cy="222.208" r="30.1543" fx="50.8414" fy="225.8757" gradientTransform="matrix(0.0073 -2.3415 -5.8864 -0.0183 1614.8745 298.8059)" gradientUnits="userSpaceOnUse">
		<stop  offset="0.8847" style="stop-color:#FFFFFF;stop-opacity:0"/>
		<stop  offset="1" style="stop-color:#FFFFFF;stop-opacity:0.7"/>
	</radialGradient>
	<path id="top_left_rim_eyebrow_1_" fill="url(#top_left_rim_eyebrow_2_)" d="M322.588,91.507c23.532,0,44.087,2.979,61.961,8.043
		c-25.619-9.235-58.686-14.597-95.325-14.597c-80.133,0-145.073,26.81-145.073,59.877c0,4.169,0.894,8.042,2.979,11.915
		C148.321,110.87,244.242,91.507,322.588,91.507z"/>
	<path opacity="0.4" enable-background="new    " d="M177.216,128.744c4.468,0,8.639,1.192,12.512,3.873l-3.277,8.341
		c-2.681-2.085-5.362-3.277-8.043-3.277c-5.958,0-9.83,4.17-9.83,8.639c0,4.766,3.277,7.745,7.447,7.745
		c2.979,0,5.66-0.894,8.638-2.681l1.788,8.937c-4.171,2.086-8.043,2.979-11.916,2.979c-9.83,0-16.682-6.554-16.682-15.789
		C157.854,137.085,165.896,128.744,177.216,128.744z M316.033,137.681c2.682,0,5.363,1.191,8.044,3.277l3.276-8.341
		c-3.873-2.383-8.042-3.873-12.512-3.873c-11.319,0-19.661,8.341-19.661,18.767c0,9.235,6.853,15.789,16.683,15.789
		c3.872,0,7.745-1.191,11.916-2.979l-1.787-8.937c-2.979,1.787-5.66,2.681-8.64,2.681c-4.468,0-7.447-2.979-7.447-7.745
		C305.905,141.851,309.778,137.681,316.033,137.681z M226.369,130.233l-5.66,31.576h-11.022l0.596-3.277
		c-3.277,2.979-6.256,4.469-9.533,4.469c-6.553,0-11.021-5.362-11.021-14.001c0-11.618,6.852-20.256,15.788-20.256
		c3.575,0,6.256,1.49,9.234,4.469l0.596-3.277h11.022V130.233z M213.559,140.063c-1.191-2.383-2.681-3.277-4.766-3.277
		c-4.171,0-8.043,4.767-8.043,12.213c0,3.575,2.085,5.959,4.767,5.959c3.277,0,5.958-2.979,6.852-8.342L213.559,140.063z
		 M249.306,129.34c-3.575,0-6.554,2.383-8.937,7.149l1.192-6.256h-10.128l-5.66,31.576h11.32l2.085-12.213
		c1.191-6.256,3.277-9.235,7.746-9.235c0.893,0,2.084,0,3.574,0.596l2.085-11.022C251.392,129.34,250.199,129.34,249.306,129.34z
		 M268.371,135.894c2.383,0,5.362,1.191,8.937,3.277l2.979-6.554c-4.17-2.681-8.341-3.873-12.81-3.873
		c-7.745,0-12.809,4.469-12.809,10.128c0,4.17,2.383,7.447,7.149,9.83l2.085,0.895c2.681,1.19,4.17,2.085,4.17,3.574
		c0,1.49-1.489,2.681-3.873,2.681c-2.681,0-6.255-1.19-10.426-3.573l-2.979,6.851c4.171,2.681,8.64,3.872,13.405,3.872
		c8.341,0,13.405-4.469,13.405-10.426c0-4.171-2.383-7.447-6.852-9.533l-2.085-0.894c-3.276-1.49-4.766-2.085-4.766-3.873
		C264.499,137.085,265.988,135.894,268.371,135.894z M287.138,150.787c-3.277,0-5.958,2.681-5.958,5.959
		c0,3.277,2.681,5.957,5.958,5.957s5.958-2.68,5.958-5.957C293.096,153.468,290.415,150.787,287.138,150.787z M362.506,144.532
		c0,10.724-8.342,18.768-18.471,18.768c-10.128,0-16.682-6.554-16.682-15.789c0-10.426,8.043-18.767,19.064-18.767
		C355.95,128.744,362.506,135,362.506,144.532z M351.185,144.532c0-4.469-2.383-7.447-5.362-7.447
		c-3.573,0-7.149,4.468-7.149,10.426c0,4.469,2.384,7.448,5.661,7.448C347.908,154.959,351.185,150.787,351.185,144.532z
		 M408.678,129.34c-4.171,0-7.745,2.085-11.021,6.554c-0.895-4.171-4.171-6.554-8.64-6.554c-3.872,0-7.149,2.085-10.426,5.66
		l0.894-4.766h-10.427l-5.362,31.576h10.427l2.681-15.49c0.896-5.66,4.171-8.341,7.149-8.341c1.788,0,2.979,1.192,2.979,2.979
		c0,0.596,0,1.787-0.299,2.681l-2.978,17.874h10.425l2.682-15.49c0.895-5.66,4.171-8.341,7.15-8.341c1.787,0,2.68,1.191,2.68,2.979
		c0,0.596,0,1.788-0.297,2.681l-2.979,17.874h10.427l3.574-21.15c0-0.893,0.298-1.49,0.298-2.085
		C417.614,132.914,414.04,129.34,408.678,129.34z"/>
	
		<linearGradient id="SVGID_3_" gradientUnits="userSpaceOnUse" x1="168.6616" y1="182.8467" x2="168.6616" y2="168.0044" gradientTransform="matrix(2.3415 0 0 -2.3415 -108.6707 554.9887)">
		<stop  offset="0.6107" style="stop-color:#FFFFFF"/>
		<stop  offset="0.791" style="stop-color:#EBEBEB"/>
	</linearGradient>
	<path fill="url(#SVGID_3_)" d="M175.727,126.957c4.468,0,8.639,1.191,12.511,3.873l-3.277,8.341
		c-2.681-2.085-5.362-3.277-8.043-3.277c-5.958,0-9.831,4.17-9.831,8.639c0,4.767,3.277,7.746,7.447,7.746
		c2.979,0,5.66-0.895,8.639-2.682l1.787,8.936c-4.17,2.086-8.043,2.979-11.916,2.979c-9.831,0-16.682-6.553-16.682-15.789
		C156.364,135.298,164.407,126.957,175.727,126.957z M314.544,135.894c2.682,0,5.362,1.191,8.044,3.277l3.275-8.341
		c-3.871-2.383-8.043-3.873-12.511-3.873c-11.319,0-19.66,8.341-19.66,18.766c0,9.236,6.851,15.789,16.681,15.789
		c3.874,0,7.745-1.191,11.916-2.979l-1.787-8.936c-2.979,1.787-5.66,2.682-8.639,2.682c-4.468,0-7.447-2.979-7.447-7.746
		C304.714,140.063,308.587,135.894,314.544,135.894z M224.879,128.446l-5.66,31.578h-11.021l0.596-3.277
		c-3.277,2.979-6.256,4.468-9.532,4.468c-6.554,0-11.022-5.362-11.022-14c0-11.619,6.852-20.257,15.788-20.257
		c3.575,0,6.256,1.489,9.235,4.468l0.596-3.277h11.021V128.446z M212.069,138.276c-1.191-2.383-2.681-3.277-4.766-3.277
		c-4.17,0-8.042,4.767-8.042,12.214c0,3.573,2.084,5.957,4.766,5.957c3.277,0,5.958-2.979,6.852-8.34L212.069,138.276z
		 M247.816,127.552c-3.574,0-6.553,2.383-8.937,7.149l1.191-6.255h-10.128l-5.66,31.578h11.319l2.085-12.215
		c1.192-6.255,3.277-9.235,7.746-9.235c0.894,0,2.085,0,3.574,0.597l2.085-11.022C249.902,127.552,248.71,127.552,247.816,127.552z
		 M266.881,134.106c2.384,0,5.362,1.192,8.937,3.276l2.979-6.553c-4.17-2.681-8.34-3.873-12.809-3.873
		c-7.746,0-12.81,4.468-12.81,10.128c0,4.17,2.383,7.447,7.149,9.831l2.085,0.893c2.681,1.191,4.171,2.086,4.171,3.575
		s-1.49,2.681-3.873,2.681c-2.681,0-6.256-1.191-10.427-3.574l-2.979,6.852c4.17,2.682,8.639,3.872,13.405,3.872
		c8.341,0,13.405-4.468,13.405-10.427c0-4.17-2.383-7.447-6.852-9.532l-2.085-0.893c-3.277-1.49-4.767-2.085-4.767-3.873
		C263.009,135.298,264.499,134.106,266.881,134.106z M285.649,149c-3.277,0-5.958,2.682-5.958,5.959
		c0,3.276,2.681,5.956,5.958,5.956c3.278,0,5.958-2.68,5.958-5.956C291.606,151.682,288.927,149,285.649,149z M361.015,142.447
		c0,10.724-8.341,18.767-18.469,18.767s-16.683-6.553-16.683-15.788c0-10.426,8.044-18.767,19.065-18.767
		C354.462,126.957,361.015,133.212,361.015,142.447z M349.696,142.745c0-4.468-2.383-7.447-5.362-7.447
		c-3.576,0-7.149,4.468-7.149,10.425c0,4.469,2.383,7.448,5.659,7.448C346.418,153.171,349.696,148.702,349.696,142.745z
		 M407.188,127.552c-4.17,0-7.746,2.085-11.022,6.554c-0.893-4.17-4.17-6.554-8.638-6.554c-3.873,0-7.149,2.085-10.427,5.66
		l0.895-4.767h-10.427l-5.362,31.578h10.427l2.681-15.491c0.893-5.66,4.17-8.341,7.149-8.341c1.786,0,2.979,1.191,2.979,2.979
		c0,0.596,0,1.787-0.299,2.681l-2.979,17.874h10.426l2.682-15.49c0.893-5.661,4.169-8.341,7.148-8.341
		c1.787,0,2.682,1.191,2.682,2.979c0,0.596,0,1.787-0.299,2.681l-2.979,17.874h10.426l3.576-21.15c0-0.894,0.297-1.49,0.297-2.085
		C416.126,131.127,412.551,127.552,407.188,127.552z"/>
	
		<linearGradient id="SVGID_4_" gradientUnits="userSpaceOnUse" x1="196.0459" y1="141.1094" x2="155.331" y2="193.7352" gradientTransform="matrix(2.3415 0 0 -2.3415 -108.6707 554.9887)">
		<stop  offset="0" style="stop-color:#231F20;stop-opacity:0"/>
		<stop  offset="1" style="stop-color:#231F20;stop-opacity:0.2"/>
	</linearGradient>
	<path fill="url(#SVGID_4_)" d="M436.084,143.936c0,34.556-66.43,62.557-148.052,62.557c-81.92,0-148.052-28.001-148.052-62.557
		c0-34.555,66.43-62.557,148.052-62.557C369.654,81.677,436.084,109.679,436.084,143.936z M288.927,84.656
		c-80.134,0-145.074,26.81-145.074,59.876s64.94,59.875,145.074,59.875c80.131,0,145.071-26.809,145.071-59.875
		S369.058,84.656,288.927,84.656z"/>
	<g>
		<path d="M436.084,196.365h-2.086v-0.894h5.362v0.894h-2.383v5.958h-0.894V196.365z"/>
		<path d="M440.254,195.472h1.489l2.087,5.659l2.084-5.659h1.49v6.852h-0.895v-5.958l0,0l-2.383,5.958h-0.894l-2.383-5.958l0,0
			v5.958h-0.894v-6.852H440.254z"/>
	</g>
	
		<radialGradient id="inner_ring-gradient_2_" cx="81.4639" cy="387.4297" r="85.7501" fx="82.3794" fy="386.627" gradientTransform="matrix(-2.3305 0.1459 0.0743 1.1782 447.8821 -352.9643)" gradientUnits="userSpaceOnUse">
		<stop  offset="0.3018" style="stop-color:#666666"/>
		<stop  offset="0.4761" style="stop-color:#626262"/>
		<stop  offset="0.6463" style="stop-color:#565656"/>
		<stop  offset="0.7397" style="stop-color:#4D4D4D"/>
		<stop  offset="0.7494" style="stop-color:#424242"/>
		<stop  offset="0.7815" style="stop-color:#252525"/>
		<stop  offset="0.8092" style="stop-color:#131313"/>
		<stop  offset="0.8292" style="stop-color:#0D0D0D"/>
		<stop  offset="0.8404" style="stop-color:#131313"/>
		<stop  offset="0.8558" style="stop-color:#252525"/>
		<stop  offset="0.8736" style="stop-color:#424242"/>
		<stop  offset="0.8931" style="stop-color:#6A6A6A"/>
		<stop  offset="0.9124" style="stop-color:#999999"/>
		<stop  offset="0.9442" style="stop-color:#B8B8B8"/>
		<stop  offset="1" style="stop-color:#F7F7F7"/>
	</radialGradient>
	<path id="inner_ring-gradient_1_" fill="url(#inner_ring-gradient_2_)" d="M288.032,212.451c89.07,0,161.458-30.683,161.458-68.515
		c0-37.832-72.388-68.515-161.458-68.515c-89.069,0-161.457,30.683-161.457,68.515C126.277,181.769,198.664,212.451,288.032,212.451
		z M439.659,143.936c0,35.151-67.92,63.451-151.627,63.451c-84.005,0.299-151.924-28.3-151.924-63.451s67.919-63.451,151.626-63.451
		C371.739,80.485,439.659,109.083,439.659,143.936z"/>
	
		<radialGradient id="outer_ring-rim_shadow_2_" cx="169.4961" cy="69.1318" r="82.2996" fx="165.6641" fy="61.2649" gradientTransform="matrix(2.3412 -0.039 -0.0155 -0.9272 -104.8439 213.5331)" gradientUnits="userSpaceOnUse">
		<stop  offset="0.8978" style="stop-color:#4D4D4D;stop-opacity:0"/>
		<stop  offset="1" style="stop-color:#4D4D4D"/>
	</radialGradient>
	<path id="outer_ring-rim_shadow_1_" fill="url(#outer_ring-rim_shadow_2_)" d="M464.682,144.234
		c0,41.406-79.238,74.771-176.65,74.771c-97.41,0-176.649-33.661-176.649-74.771c0-41.407,78.941-74.771,176.649-74.771
		C385.74,69.463,464.682,102.828,464.682,144.234z M123.596,143.936c0,39.025,73.58,70.6,164.436,70.6
		c90.856,0,164.734-31.873,164.734-70.6c0-39.024-73.579-70.6-164.436-70.6C197.473,73.336,123.596,104.912,123.596,143.936z"/>
	
		<radialGradient id="outer_ring-rim_highlight_2_" cx="169.0352" cy="83.0859" r="72.7405" fx="153.8796" fy="59.8291" gradientTransform="matrix(2.3415 0.0026 0.0011 -0.9956 -108.9421 225.0936)" gradientUnits="userSpaceOnUse">
		<stop  offset="0.9406" style="stop-color:#FFFFFF;stop-opacity:0.8"/>
		<stop  offset="1" style="stop-color:#FFFFFF;stop-opacity:0"/>
	</radialGradient>
	<path id="outer_ring-rim_highlight_1_" fill="url(#outer_ring-rim_highlight_2_)" d="M464.682,144.234
		c0,41.406-79.238,74.771-176.65,74.771c-97.41,0-176.649-33.661-176.649-74.771c0-41.407,78.941-74.771,176.649-74.771
		C385.74,69.463,464.682,102.828,464.682,144.234z M123.596,143.936c0,39.025,73.58,70.6,164.436,70.6
		c90.856,0,164.734-31.873,164.734-70.6c0-39.024-73.579-70.6-164.436-70.6C197.473,73.336,123.596,104.912,123.596,143.936z"/>
	<path fill="#CCCCCC" d="M439.957,143.936c0,35.449-68.218,64.047-152.223,64.047s-152.222-28.599-152.222-64.047
		S203.729,79.89,287.734,79.89C371.739,80.188,439.957,108.785,439.957,143.936z M288.032,81.677
		c-81.92,0-148.052,28.001-148.052,62.557c0,34.555,66.43,62.557,148.052,62.557c81.92,0,148.052-28.002,148.052-62.557
		C436.084,109.679,369.654,81.677,288.032,81.677z"/>
	<path fill="#FFFFFF" d="M288.33,73.336c90.856,0,164.436,31.576,164.436,70.6c0,39.025-73.579,70.6-164.436,70.6
		c-90.857,0-164.734-31.873-164.734-70.6C123.596,104.912,197.473,73.336,288.33,73.336z M288.032,212.153
		c89.07,0,161.159-30.385,161.159-68.217c0-37.534-72.089-68.217-161.159-68.217c-89.069,0-161.159,30.386-161.159,68.217
		C126.873,181.769,198.962,212.153,288.032,212.153z"/>
</g>
</svg>
