<?xml version="1.0" encoding="utf-8"?>
<!-- Generator: Adobe Illustrator 17.1.0, SVG Export Plug-In . SVG Version: 6.00 Build 0)  -->
<!DOCTYPE svg PUBLIC "-//W3C//DTD SVG 1.1//EN" "http://www.w3.org/Graphics/SVG/1.1/DTD/svg11.dtd">
<svg version="1.1" id="Layer_1" xmlns="http://www.w3.org/2000/svg" xmlns:xlink="http://www.w3.org/1999/xlink" x="0px" y="0px"
	 viewBox="0 0 246 88" enable-background="new 0 0 246 88" xml:space="preserve">
<g>
	<circle fill="#595959" cx="67.6" cy="34" r="1.4"/>
	<circle fill="#595959" cx="67.6" cy="47.4" r="1.4"/>
	<circle fill="#595959" cx="64.2" cy="54.1" r="1.4"/>
	<circle fill="#595959" cx="67.6" cy="60.9" r="1.4"/>
	<circle fill="#595959" cx="71" cy="23.9" r="1.4"/>
	<circle fill="#595959" cx="71" cy="57.5" r="1.4"/>
	<circle fill="#595959" cx="71" cy="67.6" r="1.4"/>
	<circle fill="#595959" cx="77.7" cy="60.9" r="1.4"/>
	<circle fill="#595959" cx="81" cy="64.2" r="1.4"/>
	<circle fill="#595959" cx="87.8" cy="64.2" r="1.4"/>
	<circle fill="#595959" cx="94.5" cy="23.9" r="1.4"/>
	<circle fill="#595959" cx="91.1" cy="37.4" r="1.4"/>
	<circle fill="#595959" cx="91.1" cy="50.8" r="1.4"/>
	<circle fill="#595959" cx="91.1" cy="57.5" r="1.4"/>
	<circle fill="#595959" cx="94.5" cy="30.6" r="1.4"/>
	<circle fill="#595959" cx="94.5" cy="40.7" r="1.4"/>
	<circle fill="#595959" cx="94.5" cy="60.9" r="1.4"/>
	<circle fill="#595959" cx="101.2" cy="34" r="1.4"/>
	<circle fill="#595959" cx="97.8" cy="44.1" r="1.4"/>
	<circle fill="#595959" cx="97.8" cy="50.8" r="1.4"/>
	<circle fill="#595959" cx="74.3" cy="17.2" r="1.4"/>
	<circle fill="#595959" cx="104.5" cy="27.3" r="1.4"/>
	<circle fill="#595959" cx="111.3" cy="34" r="1.4"/>
	<circle fill="#595959" cx="111.3" cy="57.5" r="1.4"/>
	<circle fill="#595959" cx="114.6" cy="23.9" r="1.4"/>
	<circle fill="#595959" cx="114.6" cy="37.4" r="1.4"/>
	<circle fill="#595959" cx="118" cy="27.3" r="1.4"/>
	<circle fill="#595959" cx="118" cy="60.9" r="1.4"/>
	<circle fill="#595959" cx="121.3" cy="44.1" r="1.4"/>
	<circle fill="#595959" cx="121.3" cy="64.2" r="1.4"/>
	<circle fill="#595959" cx="121.3" cy="70.9" r="1.4"/>
	<circle fill="#595959" cx="124.7" cy="60.9" r="1.4"/>
	<circle fill="#595959" cx="128" cy="27.3" r="1.4"/>
	<circle fill="#595959" cx="128" cy="47.4" r="1.4"/>
	<circle fill="#595959" cx="131.4" cy="64.2" r="1.4"/>
	<circle fill="#595959" cx="134.8" cy="27.3" r="1.4"/>
	<circle fill="#595959" cx="134.8" cy="50.8" r="1.4"/>
	<circle fill="#595959" cx="138.1" cy="30.6" r="1.4"/>
	<circle fill="#595959" cx="138.1" cy="47.4" r="1.4"/>
	<circle fill="#595959" cx="138.1" cy="57.5" r="1.4"/>
	<circle fill="#595959" cx="144.8" cy="47.4" r="1.4"/>
	<circle fill="#595959" cx="148.2" cy="60.9" r="1.4"/>
	<circle fill="#595959" cx="151.5" cy="67.6" r="1.4"/>
	<circle fill="#595959" cx="154.9" cy="57.5" r="1.4"/>
	<circle fill="#595959" cx="154.9" cy="37.4" r="1.4"/>
	<circle fill="#595959" cx="158.3" cy="40.7" r="1.4"/>
	<circle fill="#595959" cx="161.6" cy="34" r="1.4"/>
	<circle fill="#595959" cx="161.6" cy="47.4" r="1.4"/>
	<circle fill="#595959" cx="165" cy="30.6" r="1.4"/>
	<circle fill="#595959" cx="165" cy="54.1" r="1.4"/>
	<circle fill="#595959" cx="171.7" cy="23.9" r="1.4"/>
	<circle fill="#595959" cx="171.7" cy="30.6" r="1.4"/>
	<circle fill="#595959" cx="175" cy="44.1" r="1.4"/>
	<circle fill="#595959" cx="175" cy="54.1" r="1.4"/>
	<circle fill="#595959" cx="188.5" cy="23.9" r="1.4"/>
	<circle fill="#595959" cx="178.4" cy="40.7" r="1.4"/>
	<circle fill="#595959" cx="178.4" cy="50.8" r="1.4"/>
	<circle fill="#595959" cx="181.8" cy="64.2" r="1.4"/>
	<circle fill="#595959" cx="185.1" cy="57.5" r="1.4"/>
	<circle fill="#595959" cx="165" cy="64.2" r="1.4"/>
	<circle fill="#595959" cx="60.9" cy="23.9" r="1.4"/>
	<circle fill="#595959" cx="64.2" cy="30.6" r="1.4"/>
	<circle fill="#595959" cx="54.2" cy="40.7" r="1.4"/>
	<circle fill="#595959" cx="64.2" cy="37.4" r="1.4"/>
	<circle fill="#595959" cx="67.6" cy="20.6" r="1.4"/>
	<circle fill="#595959" cx="67.6" cy="27.3" r="1.4"/>
	<circle fill="#595959" cx="67.6" cy="40.7" r="1.4"/>
	<circle fill="#595959" cx="67.6" cy="54.1" r="1.4"/>
	<circle fill="#595959" cx="67.6" cy="64.2" r="1.4"/>
	<circle fill="#595959" cx="71" cy="34" r="1.4"/>
	<circle fill="#595959" cx="71" cy="50.8" r="1.4"/>
	<circle fill="#595959" cx="74.3" cy="64.2" r="1.4"/>
	<circle fill="#595959" cx="77.7" cy="57.5" r="1.4"/>
	<circle fill="#595959" cx="84.4" cy="60.9" r="1.4"/>
	<circle fill="#595959" cx="87.8" cy="30.6" r="1.4"/>
	<circle fill="#595959" cx="84.4" cy="44.1" r="1.4"/>
	<circle fill="#595959" cx="91.1" cy="60.9" r="1.4"/>
	<circle fill="#595959" cx="94.5" cy="34" r="1.4"/>
	<circle fill="#595959" cx="94.5" cy="44.1" r="1.4"/>
	<circle fill="#595959" cx="94.5" cy="54.1" r="1.4"/>
	<circle fill="#595959" cx="97.8" cy="27.3" r="1.4"/>
	<circle fill="#595959" cx="97.8" cy="47.4" r="1.4"/>
	<circle fill="#595959" cx="101.2" cy="57.5" r="1.4"/>
	<circle fill="#595959" cx="97.8" cy="64.2" r="1.4"/>
	<circle fill="#595959" cx="104.5" cy="20.6" r="1.4"/>
	<circle fill="#595959" cx="107.9" cy="37.4" r="1.4"/>
	<circle fill="#595959" cx="107.9" cy="44.1" r="1.4"/>
	<circle fill="#595959" cx="111.3" cy="60.9" r="1.4"/>
	<circle fill="#595959" cx="114.6" cy="30.6" r="1.4"/>
	<circle fill="#595959" cx="114.6" cy="57.5" r="1.4"/>
	<circle fill="#595959" cx="121.3" cy="34" r="1.4"/>
	<circle fill="#595959" cx="118" cy="40.7" r="1.4"/>
	<circle fill="#595959" cx="121.3" cy="23.9" r="1.4"/>
	<circle fill="#595959" cx="124.7" cy="27.3" r="1.4"/>
	<circle fill="#595959" cx="124.7" cy="47.4" r="1.4"/>
	<circle fill="#595959" cx="128" cy="20.6" r="1.4"/>
	<circle fill="#595959" cx="128" cy="44.1" r="1.4"/>
	<circle fill="#595959" cx="128" cy="64.2" r="1.4"/>
	<circle fill="#595959" cx="131.4" cy="23.9" r="1.4"/>
	<circle fill="#595959" cx="131.4" cy="40.7" r="1.4"/>
	<circle fill="#595959" cx="131.4" cy="47.4" r="1.4"/>
	<circle fill="#595959" cx="134.8" cy="30.6" r="1.4"/>
	<circle fill="#595959" cx="134.8" cy="54.1" r="1.4"/>
	<circle fill="#595959" cx="134.8" cy="60.9" r="1.4"/>
	<circle fill="#595959" cx="134.8" cy="67.6" r="1.4"/>
	<circle fill="#595959" cx="138.1" cy="50.8" r="1.4"/>
	<circle fill="#595959" cx="144.8" cy="23.9" r="1.4"/>
	<circle fill="#595959" cx="151.5" cy="54.1" r="1.4"/>
	<circle fill="#595959" cx="151.5" cy="60.9" r="1.4"/>
	<circle fill="#595959" cx="158.3" cy="44.1" r="1.4"/>
	<circle fill="#595959" cx="158.3" cy="54.1" r="1.4"/>
	<circle fill="#595959" cx="161.6" cy="27.3" r="1.4"/>
	<circle fill="#595959" cx="165" cy="40.7" r="1.4"/>
	<circle fill="#595959" cx="165" cy="50.8" r="1.4"/>
	<circle fill="#595959" cx="165" cy="57.5" r="1.4"/>
	<circle fill="#595959" cx="168.3" cy="27.3" r="1.4"/>
	<circle fill="#595959" cx="171.7" cy="50.8" r="1.4"/>
	<circle fill="#595959" cx="175" cy="37.4" r="1.4"/>
	<circle fill="#595959" cx="175" cy="17.2" r="1.4"/>
	<circle fill="#595959" cx="181.8" cy="47.4" r="1.4"/>
	<circle fill="#595959" cx="181.8" cy="60.9" r="1.4"/>
	<circle fill="#595959" cx="191.8" cy="54.1" r="1.4"/>
	<circle fill="#595959" cx="188.5" cy="64.2" r="1.4"/>
	<circle fill="#595959" cx="171.7" cy="70.9" r="1.4"/>
	<circle fill="#595959" cx="64.2" cy="50.8" r="1.4"/>
	<circle fill="#595959" cx="60.9" cy="44.1" r="1.4"/>
	<circle fill="#595959" cx="57.5" cy="30.6" r="1.4"/>
	<circle fill="#595959" cx="64.2" cy="27.3" r="1.4"/>
	<circle fill="#595959" cx="67.6" cy="30.6" r="1.4"/>
	<circle fill="#595959" cx="67.6" cy="37.4" r="1.4"/>
	<circle fill="#595959" cx="67.6" cy="44.1" r="1.4"/>
	<circle fill="#595959" cx="67.6" cy="50.8" r="1.4"/>
	<circle fill="#595959" cx="60.9" cy="50.8" r="1.4"/>
	<circle fill="#595959" cx="60.9" cy="57.5" r="1.4"/>
	<circle fill="#595959" cx="67.6" cy="57.5" r="1.4"/>
	<circle fill="#595959" cx="57.5" cy="64.2" r="1.4"/>
	<circle fill="#595959" cx="67.6" cy="70.9" r="1.4"/>
	<circle fill="#595959" cx="67.6" cy="23.9" r="1.4"/>
	<circle fill="#595959" cx="71" cy="27.3" r="1.4"/>
	<circle fill="#595959" cx="71" cy="30.6" r="1.4"/>
	<circle fill="#595959" cx="71" cy="37.4" r="1.4"/>
	<circle fill="#595959" cx="71" cy="40.7" r="1.4"/>
	<circle fill="#595959" cx="71" cy="47.4" r="1.4"/>
	<circle fill="#595959" cx="71" cy="54.1" r="1.4"/>
	<circle fill="#595959" cx="71" cy="60.9" r="1.4"/>
	<circle fill="#595959" cx="71" cy="64.2" r="1.4"/>
	<circle fill="#595959" cx="74.3" cy="37.4" r="1.4"/>
	<circle fill="#595959" cx="74.3" cy="50.8" r="1.4"/>
	<circle fill="#595959" cx="74.3" cy="60.9" r="1.4"/>
	<circle fill="#595959" cx="77.7" cy="64.2" r="1.4"/>
	<circle fill="#595959" cx="81" cy="60.9" r="1.4"/>
	<circle fill="#595959" cx="77.7" cy="67.6" r="1.4"/>
	<circle fill="#595959" cx="84.4" cy="64.2" r="1.4"/>
	<circle fill="#595959" cx="84.4" cy="67.6" r="1.4"/>
	<circle fill="#595959" cx="87.8" cy="57.5" r="1.4"/>
	<circle fill="#595959" cx="87.8" cy="67.6" r="1.4"/>
	<circle fill="#595959" cx="91.1" cy="20.6" r="1.4"/>
	<circle fill="#595959" cx="101.2" cy="17.2" r="1.4"/>
	<circle fill="#595959" cx="91.1" cy="27.3" r="1.4"/>
	<circle fill="#595959" cx="91.1" cy="34" r="1.4"/>
	<circle fill="#595959" cx="84.4" cy="23.9" r="1.4"/>
	<circle fill="#595959" cx="91.1" cy="40.7" r="1.4"/>
	<circle fill="#595959" cx="91.1" cy="47.4" r="1.4"/>
	<circle fill="#595959" cx="91.1" cy="54.1" r="1.4"/>
	<circle fill="#595959" cx="91.1" cy="64.2" r="1.4"/>
	<circle fill="#595959" cx="94.5" cy="20.6" r="1.4"/>
	<circle fill="#595959" cx="94.5" cy="27.3" r="1.4"/>
	<circle fill="#595959" cx="94.5" cy="37.4" r="1.4"/>
	<circle fill="#595959" cx="94.5" cy="47.4" r="1.4"/>
	<circle fill="#595959" cx="94.5" cy="50.8" r="1.4"/>
	<circle fill="#595959" cx="94.5" cy="57.5" r="1.4"/>
	<circle fill="#595959" cx="97.8" cy="23.9" r="1.4"/>
	<circle fill="#595959" cx="97.8" cy="30.6" r="1.4"/>
	<circle fill="#595959" cx="97.8" cy="37.4" r="1.4"/>
	<circle fill="#595959" cx="97.8" cy="40.7" r="1.4"/>
	<circle fill="#595959" cx="97.8" cy="54.1" r="1.4"/>
	<circle fill="#595959" cx="97.8" cy="57.5" r="1.4"/>
	<circle fill="#595959" cx="101.2" cy="47.4" r="1.4"/>
	<circle fill="#595959" cx="104.5" cy="54.1" r="1.4"/>
	<circle fill="#595959" cx="107.9" cy="57.5" r="1.4"/>
	<circle fill="#595959" cx="107.9" cy="64.2" r="1.4"/>
	<circle fill="#595959" cx="111.3" cy="30.6" r="1.4"/>
	<circle fill="#595959" cx="107.9" cy="30.6" r="1.4"/>
	<circle fill="#595959" cx="111.3" cy="37.4" r="1.4"/>
	<circle fill="#595959" cx="111.3" cy="23.9" r="1.4"/>
	<circle fill="#595959" cx="114.6" cy="27.3" r="1.4"/>
	<circle fill="#595959" cx="114.6" cy="34" r="1.4"/>
	<circle fill="#595959" cx="114.6" cy="40.7" r="1.4"/>
	<circle fill="#595959" cx="114.6" cy="44.1" r="1.4"/>
	<circle fill="#595959" cx="114.6" cy="54.1" r="1.4"/>
	<circle fill="#595959" cx="111.3" cy="54.1" r="1.4"/>
	<circle fill="#595959" cx="114.6" cy="60.9" r="1.4"/>
	<circle fill="#595959" cx="114.6" cy="64.2" r="1.4"/>
	<circle fill="#595959" cx="114.6" cy="67.6" r="1.4"/>
	<circle fill="#595959" cx="118" cy="23.9" r="1.4"/>
	<circle fill="#595959" cx="118" cy="30.6" r="1.4"/>
	<circle fill="#595959" cx="118" cy="37.4" r="1.4"/>
	<circle fill="#595959" cx="118" cy="44.1" r="1.4"/>
	<circle fill="#595959" cx="118" cy="57.5" r="1.4"/>
	<circle fill="#595959" cx="118" cy="64.2" r="1.4"/>
	<circle fill="#595959" cx="118" cy="20.6" r="1.4"/>
	<circle fill="#595959" cx="121.3" cy="27.3" r="1.4"/>
	<circle fill="#595959" cx="121.3" cy="40.7" r="1.4"/>
	<circle fill="#595959" cx="121.3" cy="47.4" r="1.4"/>
	<circle fill="#595959" cx="121.3" cy="60.9" r="1.4"/>
	<circle fill="#595959" cx="124.7" cy="23.9" r="1.4"/>
	<circle fill="#595959" cx="124.7" cy="20.6" r="1.4"/>
	<circle fill="#595959" cx="124.7" cy="40.7" r="1.4"/>
	<circle fill="#595959" cx="124.7" cy="44.1" r="1.4"/>
	<circle fill="#595959" cx="124.7" cy="64.2" r="1.4"/>
	<circle fill="#595959" cx="124.7" cy="67.6" r="1.4"/>
	<circle fill="#595959" cx="128" cy="23.9" r="1.4"/>
	<circle fill="#595959" cx="128" cy="60.9" r="1.4"/>
	<circle fill="#595959" cx="131.4" cy="27.3" r="1.4"/>
	<circle fill="#595959" cx="131.4" cy="30.6" r="1.4"/>
	<circle fill="#595959" cx="131.4" cy="44.1" r="1.4"/>
	<circle fill="#595959" cx="131.4" cy="50.8" r="1.4"/>
	<circle fill="#595959" cx="131.4" cy="57.5" r="1.4"/>
	<circle fill="#595959" cx="131.4" cy="60.9" r="1.4"/>
	<circle fill="#595959" cx="131.4" cy="67.6" r="1.4"/>
	<circle fill="#595959" cx="134.8" cy="23.9" r="1.4"/>
	<circle fill="#595959" cx="134.8" cy="34" r="1.4"/>
	<circle fill="#595959" cx="134.8" cy="44.1" r="1.4"/>
	<circle fill="#595959" cx="134.8" cy="47.4" r="1.4"/>
	<circle fill="#595959" cx="134.8" cy="57.5" r="1.4"/>
	<circle fill="#595959" cx="134.8" cy="64.2" r="1.4"/>
	<circle fill="#595959" cx="138.1" cy="17.2" r="1.4"/>
	<circle fill="#595959" cx="138.1" cy="27.3" r="1.4"/>
	<circle fill="#595959" cx="141.5" cy="34" r="1.4"/>
	<circle fill="#595959" cx="138.1" cy="40.7" r="1.4"/>
	<circle fill="#595959" cx="138.1" cy="54.1" r="1.4"/>
	<circle fill="#595959" cx="138.1" cy="60.9" r="1.4"/>
	<circle fill="#595959" cx="141.5" cy="50.8" r="1.4"/>
	<circle fill="#595959" cx="141.5" cy="54.1" r="1.4"/>
	<circle fill="#595959" cx="141.5" cy="60.9" r="1.4"/>
	<circle fill="#595959" cx="141.5" cy="67.6" r="1.4"/>
	<circle fill="#595959" cx="148.2" cy="54.1" r="1.4"/>
	<circle fill="#595959" cx="148.2" cy="47.4" r="1.4"/>
	<circle fill="#595959" cx="148.2" cy="67.6" r="1.4"/>
	<circle fill="#595959" cx="151.5" cy="57.5" r="1.4"/>
	<circle fill="#595959" cx="151.5" cy="64.2" r="1.4"/>
	<circle fill="#595959" cx="161.6" cy="67.6" r="1.4"/>
	<circle fill="#595959" cx="154.9" cy="30.6" r="1.4"/>
	<circle fill="#595959" cx="154.9" cy="44.1" r="1.4"/>
	<circle fill="#595959" cx="154.9" cy="50.8" r="1.4"/>
	<circle fill="#595959" cx="154.9" cy="54.1" r="1.4"/>
	<circle fill="#595959" cx="154.9" cy="60.9" r="1.4"/>
	<circle fill="#595959" cx="154.9" cy="64.2" r="1.4"/>
	<circle fill="#595959" cx="158.3" cy="37.4" r="1.4"/>
	<circle fill="#595959" cx="158.3" cy="47.4" r="1.4"/>
	<circle fill="#595959" cx="158.3" cy="50.8" r="1.4"/>
	<circle fill="#595959" cx="158.3" cy="57.5" r="1.4"/>
	<circle fill="#595959" cx="161.6" cy="30.6" r="1.4"/>
	<circle fill="#595959" cx="161.6" cy="37.4" r="1.4"/>
	<circle fill="#595959" cx="161.6" cy="40.7" r="1.4"/>
	<circle fill="#595959" cx="161.6" cy="44.1" r="1.4"/>
	<circle fill="#595959" cx="161.6" cy="54.1" r="1.4"/>
	<circle fill="#595959" cx="165" cy="23.9" r="1.4"/>
	<circle fill="#595959" cx="165" cy="27.3" r="1.4"/>
	<circle fill="#595959" cx="165" cy="34" r="1.4"/>
	<circle fill="#595959" cx="168.3" cy="20.6" r="1.4"/>
	<circle fill="#595959" cx="158.3" cy="17.2" r="1.4"/>
	<circle fill="#595959" cx="168.3" cy="23.9" r="1.4"/>
	<circle fill="#595959" cx="168.3" cy="30.6" r="1.4"/>
	<circle fill="#595959" cx="168.3" cy="50.8" r="1.4"/>
	<circle fill="#595959" cx="168.3" cy="54.1" r="1.4"/>
	<circle fill="#595959" cx="168.3" cy="57.5" r="1.4"/>
	<circle fill="#595959" cx="171.7" cy="27.3" r="1.4"/>
	<circle fill="#595959" cx="171.7" cy="34" r="1.4"/>
	<circle fill="#595959" cx="171.7" cy="37.4" r="1.4"/>
	<circle fill="#595959" cx="171.7" cy="54.1" r="1.4"/>
	<circle fill="#595959" cx="175" cy="30.6" r="1.4"/>
	<circle fill="#595959" cx="175" cy="34" r="1.4"/>
	<circle fill="#595959" cx="175" cy="40.7" r="1.4"/>
	<circle fill="#595959" cx="175" cy="50.8" r="1.4"/>
	<circle fill="#595959" cx="175" cy="57.5" r="1.4"/>
	<circle fill="#595959" cx="178.4" cy="67.6" r="1.4"/>
	<circle fill="#595959" cx="178.4" cy="27.3" r="1.4"/>
	<circle fill="#595959" cx="178.4" cy="37.4" r="1.4"/>
	<circle fill="#595959" cx="178.4" cy="44.1" r="1.4"/>
	<circle fill="#595959" cx="178.4" cy="47.4" r="1.4"/>
	<circle fill="#595959" cx="178.4" cy="54.1" r="1.4"/>
	<circle fill="#595959" cx="181.8" cy="44.1" r="1.4"/>
	<circle fill="#595959" cx="181.8" cy="50.8" r="1.4"/>
	<circle fill="#595959" cx="181.8" cy="54.1" r="1.4"/>
	<circle fill="#595959" cx="181.8" cy="57.5" r="1.4"/>
	<circle fill="#595959" cx="185.1" cy="50.8" r="1.4"/>
	<circle fill="#595959" cx="185.1" cy="60.9" r="1.4"/>
	<circle fill="#595959" cx="185.1" cy="64.2" r="1.4"/>
	<circle fill="#595959" cx="185.1" cy="67.6" r="1.4"/>
	<circle fill="#595959" cx="188.5" cy="40.7" r="1.4"/>
	<circle fill="#595959" cx="188.5" cy="57.5" r="1.4"/>
	<circle fill="#595959" cx="188.5" cy="67.6" r="1.4"/>
	<circle fill="#595959" cx="191.8" cy="64.2" r="1.4"/>
	<circle fill="#595959" cx="60.9" cy="17.2" r="1.4"/>
	<circle fill="#595959" cx="60.9" cy="34" r="1.4"/>
	<circle fill="#595959" cx="64.2" cy="40.7" r="1.4"/>
	<circle fill="#595959" cx="64.2" cy="44.1" r="1.4"/>
	<circle fill="#595959" cx="64.2" cy="47.4" r="1.4"/>
	<circle fill="#595959" cx="64.2" cy="60.9" r="1.4"/>
</g>
</svg>
