<?xml version="1.0" encoding="utf-8"?>
<!-- Generator: Adobe Illustrator 19.2.1, SVG Export Plug-In . SVG Version: 6.00 Build 0)  -->
<!DOCTYPE svg PUBLIC "-//W3C//DTD SVG 1.1//EN" "http://www.w3.org/Graphics/SVG/1.1/DTD/svg11.dtd">
<svg version="1.1" id="Layer_1" xmlns="http://www.w3.org/2000/svg" xmlns:xlink="http://www.w3.org/1999/xlink" x="0px" y="0px"
	 viewBox="0 0 246 88" style="enable-background:new 0 0 246 88;" xml:space="preserve">
<style type="text/css">
	.st0{fill:#0F0708;}
	.st1{fill:#FFF200;}
	.st2{fill:#FFFFFF;}
	.st3{fill:#009D57;}
</style>
<g>
	<path class="st0" d="M122.6,9c19.3,0,35,15.7,35,35c0,19.3-15.6,35-35,35c-19.3,0-35-15.6-35-35C87.7,24.7,103.3,9,122.6,9"/>
	<path class="st1" d="M122.6,76.6C104.7,76.6,90.1,62,90.1,44c0-8.7,3.4-16.9,9.5-23c6.1-6.1,14.3-9.5,23-9.5c8.7,0,16.9,3.4,23,9.5
		c6.1,6.1,9.5,14.3,9.5,23C155.2,62,140.6,76.6,122.6,76.6z M122.6,11.8c-8.6,0-16.7,3.4-22.8,9.4c-6.1,6.1-9.4,14.2-9.4,22.8
		c0,17.8,14.5,32.2,32.2,32.2c17.8,0,32.2-14.5,32.2-32.2c0-8.6-3.4-16.7-9.4-22.8C139.3,15.1,131.2,11.8,122.6,11.8z"/>
	<path class="st0" d="M160,35.7c0,0.7-0.5,1.1-1,1.1c-0.6,0-1-0.5-1-1.1c0-0.7,0.5-1.1,1-1.1C159.5,34.6,160,35,160,35.7
		 M160.3,35.7c0-0.8-0.6-1.3-1.3-1.3c-0.7,0-1.3,0.5-1.3,1.3c0,0.8,0.5,1.3,1.3,1.3C159.6,37,160.3,36.5,160.3,35.7z M158.7,35.8
		h0.2l0.4,0.6h0.3l-0.4-0.7c0.2,0,0.4-0.1,0.4-0.4c0-0.3-0.2-0.4-0.5-0.4h-0.6v1.5h0.2V35.8z M158.7,35.6v-0.4h0.3
		c0.2,0,0.3,0,0.3,0.2c0,0.2-0.2,0.2-0.3,0.2H158.7z"/>
	<path class="st0" d="M145,38.6v4.2h-2.9H141V44v2.3c-0.3-0.6-0.6-1.5-0.6-2.9c0-2.4,0.8-3.7,1.6-3.7c0.3,0,0.9,0.1,1.1,0.2l1.3,0.6
		l0.3-1.3l0.3-1.2 M121.9,46.3l-0.9,0.6c-0.1,0.1-0.3,0.2-0.4,0.2c-0.1-0.1-0.5-0.6-0.5-2.2c0-1.7,0.4-2.2,0.5-2.3l0,0
		c0.1,0,0.2,0,0.5,0.2l0.8,0.6V46.3z M155.5,37.2c-1,0-2,0.4-2.8,1.2c-0.4-0.5-1-1.2-2.1-1.2c-0.4,0-0.8,0.1-1,0.3h-0.6h-2.8h-1.1
		l0.3-1.2l0.2-0.8l-0.6-0.5c-0.9-0.7-2.3-1-3.1-1c-3.8,0-6.5,3.3-6.8,8.2h-0.4c-0.2-1.7-0.8-3-1.6-3.9c-0.7-0.7-1.6-1.1-2.6-1.1
		c-1.5,0-2.6,0.7-3.4,1.8v-4.3v-1.1h-1.1H123h-1.1v1.1v2.9c-0.5-0.3-1.1-0.4-1.6-0.4c-1.8,0-3.3,1-4.2,2.7c-0.8-2.2-2.4-2.7-3.9-2.7
		c-0.9,0-1.8,0.3-2.6,0.8c-0.4-0.4-1-0.8-1.8-0.8c-0.4,0-0.8,0.1-1,0.3h-0.6h-2.7h-0.1h-1.1h-0.1h-2.7h-0.1v-2v-1.1h-1.1h-3.9h-0.9
		c0,0-0.8,3.8-1,4.8c-0.3-1.3-1.1-4.8-1.1-4.8h-0.9h-4h-1.1v1.1v16.8h21.9h2.2c0.3,0.2,0.7,0.3,1.1,0.3c0.5,0,1-0.2,1.4-0.5l0,0.2
		h0.9h2.9h1.4l-0.2-1.1c0.9,0.9,2,1.4,3.2,1.4c0.6,0,1.2-0.1,1.7-0.4v0.1h1.1h2.8h1.1v-1.1v-0.6c0.9,1.3,2,2.1,3.3,2.1
		c1.5,0,2.8-0.5,4.1-1.6l0.6-0.5l-0.2-0.7l-0.8-2.6l-0.2-0.6h0.5h0.5h0.8c1,3.6,3.4,5.9,6.6,5.9c0.9,0,1.9-0.2,3-0.7v0.4h1.2h2.8
		h1.1v-1.1v-5.4c0-1.3,0.2-1.8,0.3-2c0,0,0,0,0,0c0,0,0,0,0,0c0,0.3,0,0.6,0,0.9c0,4.6,2.1,7.9,5.1,7.9c3,0,5.1-3.2,5.1-7.9
		C160.6,39.8,158.1,37.2,155.5,37.2z"/>
	<path class="st0" d="M98.2,51.1h-2.9v-11h0c-0.7,4.1-1.5,7.5-2.3,11h-1.8c-0.8-3.4-1.6-6.9-2.3-11h0v11h-2.3V35.5h4
		c0.7,3,1.3,6,2,9.6h0c0.6-3.7,1.3-6.6,1.9-9.6h3.9"/>
	<rect x="99.5" y="38.6" class="st0" width="2.8" height="12.5"/>
	<path class="st0" d="M106.1,41.8L106.1,41.8l0.2-1c0.1-0.5,0.4-2.5,1.4-2.5c0.6,0,1,0.4,1.4,1l-0.9,3.6c-0.2-0.1-0.3-0.3-0.8-0.3
		c-0.6,0-1.4,0.6-1.4,3.1v5.4h-2.8V38.6h2.8"/>
	<path class="st0" d="M112.8,49.8c0,0.4,0.1,1.1,0.1,1.3h2.9c-0.2-0.9-0.2-2-0.2-3v-4.5c0-4.3-1.6-5.2-3.3-5.2
		c-0.9,0-1.9,0.3-3.1,1.7l0.8,2.3c0.5-0.8,1.1-1.4,1.8-1.4c0.5,0,0.9,0.6,1.1,1.3l-1.6,0.7c-1.9,0.9-2.7,2.2-2.7,4.8
		c0,2.2,1,3.7,2,3.7c0.6,0,1.3-0.8,1.8-1.3 M112.8,44c0.1,3.4-0.6,4.5-1.1,4.5c-0.4,0-0.7-0.6-0.7-1.5c0-1.2,0.4-2.1,1-2.5L112.8,44
		z"/>
	<path class="st0" d="M122.4,50.5c-0.7,0.7-1.5,0.9-2.2,0.9c-2.4,0-4.1-2.5-4.1-6.4c0-4.2,1.9-6.8,4.3-6.8c0.7,0,1.5,0.4,2.2,1.1
		l-0.7,2.5c-0.4-0.3-0.8-0.5-1.2-0.5c-0.9,0-1.7,1-1.7,3.4c0,2.6,1,3.3,1.6,3.3c0.4,0,0.8-0.2,1.1-0.4"/>
	<rect x="123" y="34.7" class="st0" width="2.8" height="16.5"/>
	<path class="st0" d="M133.6,45.4c0.2-4.4-1-7.1-3.2-7.1c-2.6,0-3.9,3.2-3.9,6.3c0,3.7,1.8,6.8,3.7,6.8c0.9,0,2-0.2,3.3-1.3
		l-0.8-2.6c-0.4,0.5-1.1,0.9-1.8,0.9c-0.8,0-1.6-0.9-1.6-3 M135.6,45.4v-2.1h-1.4v2.1H135.6z M129.4,43.3c-0.1-2,0.3-3,0.9-3
		c0.6,0,1,0.9,0.9,3H129.4z"/>
	<path class="st0" d="M145,44v6.6c-1.2,0.6-2.1,0.8-3,0.8c-3.2,0-5.9-3.1-5.9-8.3c0-4.7,2.4-7.9,5.7-7.9c0.6,0,1.8,0.3,2.5,0.8
		l-0.7,2.8c-0.5-0.2-1.3-0.3-1.6-0.3c-1.4,0-2.8,1.5-2.8,4.9c0,3.3,1.5,4.8,2.5,4.8c0.1,0,0.2,0,0.4-0.1V44"/>
	<path class="st0" d="M148.9,41.8L148.9,41.8l0.2-1c0.1-0.5,0.4-2.5,1.4-2.5c0.6,0,1,0.4,1.4,1l-0.9,3.6c-0.2-0.1-0.3-0.3-0.8-0.3
		c-0.6,0-1.4,0.6-1.4,3.1v5.4h-2.8V38.6h2.8"/>
	<path class="st0" d="M155.5,51.4c2.4,0,4-2.8,4-6.7c0-4.1-1.9-6.4-4-6.4c-2,0-4,2.4-4,6.4C151.6,48.6,153.2,51.4,155.5,51.4
		 M155.5,40.5c0.9,0,1.2,2.3,1.2,4.2c0,2-0.2,4.5-1.2,4.5c-0.9,0-1.2-2.5-1.2-4.5C154.4,42.8,154.6,40.5,155.5,40.5z"/>
	<path class="st2" d="M98.2,51.1h-2.9v-11h0c-0.7,4.1-1.5,7.5-2.3,11h-1.8c-0.8-3.4-1.6-6.9-2.3-11h0v11h-2.3V35.5h4
		c0.7,3,1.3,6,2,9.6h0c0.6-3.7,1.3-6.6,1.9-9.6h3.9"/>
	<rect x="99.5" y="38.6" class="st2" width="2.8" height="12.5"/>
	<path class="st2" d="M106.1,41.8L106.1,41.8l0.2-1c0.1-0.5,0.4-2.5,1.4-2.5c0.6,0,1,0.4,1.4,1l-0.9,3.6c-0.2-0.1-0.3-0.3-0.8-0.3
		c-0.6,0-1.4,0.6-1.4,3.1v5.4h-2.8V38.6h2.8"/>
	<path class="st2" d="M112.8,49.8c0,0.4,0.1,1.1,0.1,1.3h2.9c-0.2-0.9-0.2-2-0.2-3v-4.5c0-4.3-1.6-5.2-3.3-5.2
		c-0.9,0-1.9,0.3-3.1,1.7l0.8,2.3c0.5-0.8,1.1-1.4,1.8-1.4c0.5,0,0.9,0.6,1.1,1.3l-1.6,0.7c-1.9,0.9-2.7,2.2-2.7,4.8
		c0,2.2,1,3.7,2,3.7c0.6,0,1.3-0.8,1.8-1.3 M112.8,44c0.1,3.4-0.6,4.5-1.1,4.5c-0.4,0-0.7-0.6-0.7-1.5c0-1.2,0.4-2.1,1-2.5L112.8,44
		z"/>
	<path class="st2" d="M122.4,50.5c-0.7,0.7-1.5,0.9-2.2,0.9c-2.4,0-4.1-2.5-4.1-6.4c0-4.2,1.9-6.8,4.3-6.8c0.7,0,1.5,0.4,2.2,1.1
		l-0.7,2.5c-0.4-0.3-0.8-0.5-1.2-0.5c-0.9,0-1.7,1-1.7,3.4c0,2.6,1,3.3,1.6,3.3c0.4,0,0.8-0.2,1.1-0.4"/>
	<rect x="123" y="34.7" class="st2" width="2.8" height="16.5"/>
	<path class="st2" d="M133.6,45.4c0.2-4.4-1-7.1-3.2-7.1c-2.6,0-3.9,3.2-3.9,6.3c0,3.7,1.8,6.8,3.7,6.8c0.9,0,2-0.2,3.3-1.3
		l-0.8-2.6c-0.4,0.5-1.1,0.9-1.8,0.9c-0.8,0-1.6-0.9-1.6-3 M135.6,45.4v-2.1h-1.4v2.1H135.6z M129.4,43.3c-0.1-2,0.3-3,0.9-3
		c0.6,0,1,0.9,0.9,3H129.4z"/>
	<path class="st2" d="M145,44v6.6c-1.2,0.6-2.1,0.8-3,0.8c-3.2,0-5.9-3.1-5.9-8.3c0-4.7,2.4-7.9,5.7-7.9c0.6,0,1.8,0.3,2.5,0.8
		l-0.7,2.8c-0.5-0.2-1.3-0.3-1.6-0.3c-1.4,0-2.8,1.5-2.8,4.9c0,3.3,1.5,4.8,2.5,4.8c0.1,0,0.2,0,0.4-0.1V44"/>
	<path class="st2" d="M148.9,41.8L148.9,41.8l0.2-1c0.1-0.5,0.4-2.5,1.4-2.5c0.6,0,1,0.4,1.4,1l-0.9,3.6c-0.2-0.1-0.3-0.3-0.8-0.3
		c-0.6,0-1.4,0.6-1.4,3.1v5.4h-2.8V38.6h2.8"/>
	<path class="st2" d="M155.5,51.4c2.4,0,4-2.8,4-6.7c0-4.1-1.9-6.4-4-6.4c-2,0-4,2.4-4,6.4C151.6,48.6,153.2,51.4,155.5,51.4
		 M155.5,40.5c0.9,0,1.2,2.3,1.2,4.2c0,2-0.2,4.5-1.2,4.5c-0.9,0-1.2-2.5-1.2-4.5C154.4,42.8,154.6,40.5,155.5,40.5z"/>
	<path class="st3" d="M103.4,32.2c0.2,0.3,0.2,1-0.1,1.7c-0.4,0.7-1,1.1-1.4,1.2c-0.2-0.3-0.2-1,0.1-1.7
		C102.4,32.7,103,32.3,103.4,32.2"/>
	<path class="st3" d="M99.9,30.6c0.6,0.3,1.3,1.4,1.4,2.9c0.1,1.6-0.4,3-0.9,3.5c-0.6-0.2-1.3-1.4-1.4-2.9
		C98.9,32.5,99.4,31.1,99.9,30.6"/>
	<path class="st3" d="M105.3,35.1c-0.5-0.2-1.6-0.2-2.7,0.3c-1.1,0.5-1.8,1.3-1.8,1.8v0c0.5,0.2,1.6,0.2,2.7-0.3
		C104.6,36.4,105.2,35.6,105.3,35.1"/>
</g>
</svg>
