<?xml version="1.0" encoding="utf-8"?>
<!-- Generator: Adobe Illustrator 17.1.0, SVG Export Plug-In . SVG Version: 6.00 Build 0)  -->
<!DOCTYPE svg PUBLIC "-//W3C//DTD SVG 1.1//EN" "http://www.w3.org/Graphics/SVG/1.1/DTD/svg11.dtd">
<svg version="1.1" id="Layer_1" xmlns="http://www.w3.org/2000/svg" xmlns:xlink="http://www.w3.org/1999/xlink" x="0px" y="0px"
	 viewBox="0 0 246 88" enable-background="new 0 0 246 88" xml:space="preserve">
<g>
	<path fill="#595959" d="M145.4,65.9c-1,0.4-1.9,0.6-2.9,1c-1.4,0.6-4.3,1.3-5.9,1.7c-2.1,0.4-4,1-6.2,1.4c-2.2,0.4-4.2,0.7-6.5,1.1
		c-2.1,0.4-4.7,0.5-7,0.7c-2.4,0.2-4.9,0.3-7.4,0.3h-0.5c-9.2,0-18-1.4-24.1-4.5c-5.9-2.9-11.4-8.3-11.4-16.9v-0.8
		c0-4.1,1.3-7.2,2.5-10.1c0.5-1.3,1.5-2.9,2.3-4c0.5-0.7,0.9-1.2,1.3-1.9c0.4-0.6,1.1-1.2,1.5-1.7v-2.8c-1.4,0.9-2.9,2.8-4.1,4
		c-1.4,1.4-2.4,3-3.5,4.7c-1.7,2.5-4.1,8.2-4.1,12.3v2.8c0,5,2,9.4,4.1,12.4c2.3,3.4,5.4,5.4,8.9,7.6c2.8,1.7,8.4,3.7,12.2,4.4
		c4.7,0.9,9.4,1.6,15.1,1.6h2.8c17.3,0,34.9-5,46.3-10.9v-8c-3.1,1.6-6.8,3.7-10.4,4.8C147.4,65.1,146.2,65.6,145.4,65.9z"/>
	<path fill="#595959" d="M176.3,29c-0.2-0.9-0.5-2.1-0.8-2.9c-0.8-2-1.5-3.3-2.7-4.9c-2.2-2.9-4.9-5-8.2-6.8
		c-6.1-3.3-15.4-5.4-25-5.4h-0.8c-9.8,0-17.9,1.6-25.6,3.7c-2,0.6-3.7,1.1-5.6,1.8c-1.6,0.5-3.9,1.4-5.3,2.1c-1.7,0.8-3.3,1.5-5,2.3
		c-0.9,0.4-4.2,2.4-4.8,2.6v2.1c0.7-0.2,3.5-1.7,4.5-2.1c1.5-0.6,3.3-1.5,4.7-2c0.7-0.2,1.8-0.6,2.4-0.9c0.8-0.3,1.6-0.5,2.5-0.8
		c1.6-0.5,3.4-1.1,5.1-1.6c3.7-0.9,6.9-1.7,11-2.4c3.4-0.6,8.3-1.2,12.1-1.2h4c7.9,0,16.4,1.8,21.4,4.5c3.1,1.7,5.1,3.1,7.2,5.7
		c1.6,2,3.6,5.9,3.6,9.4v1.5c0,3.7-1.9,7.6-3.6,9.8c-1,1.3-1.9,2.5-3.2,3.5c-0.6,0.5-3.3,2.7-4,2.8v5.8c1.3-0.1,5.1-2.5,6-3.2
		c1.8-1.3,3.4-2.8,4.8-4.6c1.6-2,2.4-3.4,3.5-5.8c0.5-1.1,0.8-2.2,1.2-3.4c0.2-0.5,0.7-4,0.7-4v-2.6C176.8,32.1,176.4,29.3,176.3,29
		z"/>
	<path fill="#595959" d="M148,46.8v-2.4c0-2.8-1-5.5-2.3-7.1c-1.2-1.5-3.6-3.3-6.3-3.3h-1.7c-2.8,0-5.4,1.7-6.8,3.2
		c-1.4,1.5-2.6,4.5-2.6,7.4v1.1c0,6.1,3.8,10.5,10,10.5h1.2c1.9,0,3.2-0.4,4.5-1c1.5-0.6,2.2-1.6,3.3-2.4l-3.5-3.2
		c-0.7,1-2.6,2-4.4,2h-1c-2.3,0-4.5-2-4.5-4.2v-0.6H148z M134,42.5c0-2,2-4,4-4h0.4c2.3,0,3.9,2,3.9,4.2v0.4H134V42.5z"/>
	<path fill="#595959" d="M113.3,55.8V40.7c0-3.6-2.5-6.4-6.1-6.4H95.4v21.5h5.5V38.7h4.9c1.1,0,2,0.8,2,1.9v15.2H113.3z"/>
	<path fill="#595959" d="M117.3,28.4v21c0,3.6,2.4,6.4,6,6.4h3.8v-4.6h-2.8c-0.8,0-1.4-0.9-1.4-1.8V38.7h4.2v-4.4h-4.2v-5.9H117.3z"
		/>
	<path fill="#595959" d="M156.8,55.6V25.4h-5.6v25.2c0,1.5,0.9,2.8,1.7,3.6c0.4,0.4,1.1,0.7,1.7,1C155.5,55.5,155.9,55.4,156.8,55.6
		z"/>
	<path fill="#595959" d="M90.4,56.1V34.3l-5.5,0l-0.1,5l0,10.7C84.8,53.7,86.9,56,90.4,56.1z"/>
	<rect x="84.9" y="26.1" fill="#595959" width="5.6" height="5.2"/>
	<path fill="#595959" d="M162.2,27.8h0.2c0.1,0,0.2,0,0.3,0.1c0.1,0.1,0.2,0.3,0.4,0.5l0.2,0.4h0.5l-0.3-0.5
		c-0.1-0.2-0.3-0.4-0.4-0.5c-0.1,0-0.1-0.1-0.2-0.1c0.2,0,0.4-0.1,0.5-0.2c0.1-0.1,0.2-0.3,0.2-0.5c0-0.1,0-0.2-0.1-0.3
		c-0.1-0.1-0.2-0.2-0.3-0.2c-0.1,0-0.3-0.1-0.6-0.1h-0.8v2.4h0.4V27.8z M162.2,26.7h0.4c0.2,0,0.3,0,0.4,0c0.1,0,0.1,0.1,0.2,0.1
		c0,0.1,0.1,0.1,0.1,0.2c0,0.1,0,0.2-0.1,0.3c-0.1,0.1-0.2,0.1-0.5,0.1h-0.5V26.7z"/>
	<path fill="#595959" d="M161.7,29.5c0.4,0.2,0.7,0.3,1.1,0.3c0.4,0,0.8-0.1,1.1-0.3c0.4-0.2,0.6-0.5,0.8-0.8
		c0.2-0.3,0.3-0.7,0.3-1.1c0-0.4-0.1-0.7-0.3-1.1c-0.2-0.4-0.5-0.6-0.8-0.8c-0.4-0.2-0.7-0.3-1.1-0.3c-0.4,0-0.7,0.1-1.1,0.3
		c-0.4,0.2-0.6,0.5-0.8,0.8c-0.2,0.4-0.3,0.7-0.3,1.1c0,0.4,0.1,0.7,0.3,1.1C161.1,29,161.4,29.3,161.7,29.5z M161,27.6
		c0-0.3,0.1-0.6,0.3-0.9c0.2-0.3,0.4-0.5,0.7-0.7c0.3-0.2,0.6-0.2,0.9-0.2c0.3,0,0.6,0.1,0.9,0.2c0.3,0.2,0.5,0.4,0.7,0.7
		c0.2,0.3,0.2,0.6,0.2,0.9c0,0.3-0.1,0.6-0.2,0.9c-0.2,0.3-0.4,0.5-0.7,0.7c-0.3,0.2-0.6,0.2-0.9,0.2c-0.3,0-0.6-0.1-0.9-0.2
		c-0.3-0.2-0.5-0.4-0.7-0.7C161,28.2,161,27.9,161,27.6z"/>
</g>
</svg>
