<?xml version="1.0" encoding="utf-8"?>
<!-- Generator: Adobe Illustrator 19.2.1, SVG Export Plug-In . SVG Version: 6.00 Build 0)  -->
<!DOCTYPE svg PUBLIC "-//W3C//DTD SVG 1.1//EN" "http://www.w3.org/Graphics/SVG/1.1/DTD/svg11.dtd">
<svg version="1.1" id="Layer_1" xmlns="http://www.w3.org/2000/svg" xmlns:xlink="http://www.w3.org/1999/xlink" x="0px" y="0px"
	 viewBox="0 0 246 88" style="enable-background:new 0 0 246 88;" xml:space="preserve">
<style type="text/css">
	.st0{fill:#FFFFFF;}
	.st1{fill:#003399;}
</style>
<g>
	<path class="st0" d="M171.3,34.6c0.4,0,0.7,0.1,1.1,0.1c0.6,0,1.2,0,1.8,0.1c-0.3,0.1-0.5,0.2-0.8,0.3c0.2,0.1,0.4,0.2,0.6,0.3
		c0.3-0.1,0.6-0.2,0.9-0.2c0.1,0,0.3-0.1,0.4,0c0.3,0.1,0.6,0.3,0.9,0.4c0.1,0,0.2,0.1,0.2,0.2c-0.6,0-1.1,0.2-1.7,0.3
		c0.1,0.2,0.3,0.3,0.4,0.5c0.7-0.1,1.4-0.2,2-0.2c0.3,0.2,0.6,0.6,0.7,0.9c-0.8,0-1.6,0-2.3,0c0.1,0.2,0.2,0.4,0.2,0.6
		c0.8,0,1.7,0,2.5,0.1c0.2,0.4,0.2,0.8,0.3,1.2c-0.9-0.2-1.8-0.3-2.7-0.4c0,0.3,0,0.6,0,0.9c0.9,0.1,1.9,0.3,2.8,0.5
		c0,0.5-0.1,0.9-0.2,1.4c-0.9-0.3-1.9-0.6-2.8-0.8c-0.1,0.4-0.2,0.8-0.4,1.2c1,0.3,1.9,0.7,2.8,1.2c-0.2,0.4-0.3,0.8-0.5,1.1
		c-0.1,0-0.2-0.1-0.3-0.1c-0.8-0.4-1.6-0.9-2.4-1.2c-0.3,0.6-0.7,1.1-1,1.6c0.9,0.5,1.7,1.1,2.6,1.7c-0.2,0.3-0.5,0.7-0.8,1
		c-0.8-0.7-1.6-1.3-2.4-2c-0.1,0.1-0.2,0.2-0.3,0.4c-0.4,0.4-0.8,0.8-1.2,1.2c0,0.1,0.1,0.1,0.1,0.1c0.7,0.7,1.4,1.5,2,2.2
		c-0.2,0.3-0.5,0.5-0.8,0.7c0,0-0.1-0.1-0.1-0.1c-0.6-0.8-1.2-1.5-1.8-2.3c0,0-0.1-0.1-0.1-0.1c-0.5,0.4-1.1,0.8-1.7,1.1
		c0,0.3,0,0.5,0,0.8c0,0.1,0,0.2,0,0.3c0.3,0.7,0.7,1.4,1,2c-0.2,0.1-0.4,0.2-0.6,0.3c-0.2-0.2-0.3-0.5-0.4-0.8c0,0.5,0,0.9,0,1.4
		c0.2-0.1,0.4-0.1,0.5-0.2c1.5-0.7,2.9-1.7,4.2-2.8c1.4-1.2,2.6-2.6,3.5-4.2c1-1.7,1.7-3.6,1.7-5.5c0-0.8-0.2-1.7-0.5-2.4
		c-0.7-1.5-2.2-2.6-3.8-2.9C173.7,34.3,172.5,34.3,171.3,34.6z"/>
	<path class="st0" d="M175.4,34.4c0.3,0.1,0.6,0.2,0.9,0.3c0.6,0.1,1.3,0.3,1.9,0.5c0.2,0.1,0.4,0.1,0.5,0.3c-0.4,0-0.7,0-1.1,0
		c0,0.1,0.1,0.1,0.1,0.2c0.2,0.1,0.3,0.3,0.4,0.4c0.5,0,1,0,1.5,0c0.1,0,0.2,0.1,0.3,0.1c0.4,0.3,0.8,0.7,1.1,1.2
		c-0.1,0-0.3,0-0.4-0.1c-0.6-0.1-1.1-0.2-1.7-0.2c0.1,0.3,0.2,0.5,0.3,0.8c0.8,0.1,1.7,0.3,2.5,0.5c0.2,0.5,0.4,1,0.5,1.5
		c0,0.1-0.1,0-0.2,0c-0.8-0.3-1.7-0.6-2.5-0.7c0,0.3,0,0.7,0,1c1,0.3,1.9,0.6,2.8,1c0,0.5-0.1,1.1-0.2,1.6c-0.2-0.1-0.4-0.2-0.6-0.3
		c-0.7-0.4-1.5-0.7-2.3-1c-0.1,0.5-0.3,1.1-0.5,1.6c0,0.1,0,0.1,0.1,0.1c0.9,0.4,1.8,0.9,2.6,1.5c-0.2,0.5-0.4,0.9-0.6,1.3
		c-0.3-0.1-0.5-0.3-0.8-0.5c-0.6-0.4-1.2-0.8-1.9-1.2c-0.3,0.7-0.7,1.4-1.2,1.9c0.1,0.2,0.3,0.3,0.5,0.4c0.6,0.5,1.3,1,1.9,1.6
		c-0.2,0.4-0.6,0.8-0.9,1.2c-0.7-0.7-1.5-1.4-2.3-2.1c-0.3,0.4-0.7,0.8-1,1.2c-0.3,0.3-0.6,0.5-0.9,0.8c0,0.1,0.2,0.2,0.3,0.3
		c0.6,0.7,1.2,1.3,1.7,2.1c-0.3,0.3-0.6,0.6-1,0.8c-0.6-0.8-1.3-1.6-1.9-2.4c-0.8,0.7-1.7,1.3-2.7,1.8c-0.1,0,0,0.2,0,0.2
		c0.5,0.8,0.9,1.7,1.4,2.5c-0.2,0.1-0.5,0.3-0.7,0.4c-0.5-0.9-1-1.8-1.4-2.7c-0.2,0.1-0.5,0.2-0.7,0.3c0,1.2,0,2.4,0,3.6
		c0.8-0.2,1.5-0.5,2.3-0.9c2.9-1.3,5.4-3.4,7.4-5.8c1.1-1.4,2.2-2.9,2.8-4.5c0.6-1.6,1.1-3.3,0.8-5c-0.2-1.5-1-3-2.2-4
		c-0.6-0.5-1.3-1-2.1-1.3C177.4,34.7,176.4,34.5,175.4,34.4z"/>
	<path class="st0" d="M169.9,34.9c-0.3,0.1-0.6,0.1-0.9,0.2c0.1,0,0.2,0,0.3,0c0,0,0,0.1,0,0.2c0.4-0.1,0.8-0.2,1.2-0.1
		c-0.3,0.2-0.5,0.4-0.7,0.6c0.2,0,0.3,0.1,0.5,0.1c0.4-0.3,0.8-0.6,1.2-0.8c0.4,0,0.8,0.1,1.2,0.2c-0.6,0.2-1.1,0.5-1.6,0.8
		c0,0-0.1,0.1-0.1,0.1c0.1,0.1,0.2,0.1,0.3,0.2c0.7-0.3,1.4-0.7,2.2-0.9c0.3,0.1,0.5,0.3,0.8,0.5c-0.9,0.2-1.8,0.4-2.6,0.8
		c0.1,0.1,0.2,0.3,0.3,0.4c0.9-0.3,1.9-0.6,2.8-0.8c0.2,0.2,0.3,0.4,0.4,0.7c-1,0.1-2.1,0.3-3.1,0.5c0.1,0.2,0.1,0.3,0.1,0.5
		c1.1-0.2,2.1-0.4,3.2-0.4c0.1,0.3,0.1,0.6,0.1,0.9c-1.1,0-2.2,0-3.3,0.1c0,0.2,0,0.4-0.1,0.7c1.1,0,2.2,0,3.3,0.1
		c0,0.3-0.1,0.7-0.2,1c-1.1-0.2-2.2-0.4-3.3-0.4c0,0.3-0.2,0.5-0.3,0.8c1.1,0.2,2.1,0.5,3.1,0.8c-0.1,0.3-0.3,0.6-0.4,0.8
		c-0.2,0-0.3-0.1-0.5-0.2c-0.8-0.3-1.7-0.7-2.5-0.9c-0.2,0.4-0.4,0.7-0.7,1.1c0.9,0.4,1.8,1,2.6,1.5c0.1,0,0,0.1,0,0.2
		c-0.2,0.2-0.3,0.4-0.5,0.6c-0.8-0.6-1.6-1.2-2.5-1.8c-0.3,0.3-0.6,0.6-0.9,0.9c-0.1,0.1-0.1,0.2,0,0.3c0.6,0.7,1.3,1.4,1.9,2.1
		c-0.2,0.2-0.4,0.4-0.6,0.5c-0.5-0.6-0.9-1.2-1.4-1.7c0,1.1,0,2.1,0,3.2c0.1,0,0.2-0.1,0.3-0.1c1.5-0.9,2.8-2.1,3.9-3.5
		c1-1.3,1.8-2.7,2.2-4.3c0.2-1.1,0.2-2.4-0.3-3.4c-0.4-0.8-1.2-1.4-2-1.7C172.2,34.8,171,34.8,169.9,34.9z"/>
	<path class="st0" d="M169.3,35.9c0,0.2,0,0.4,0,0.6c0.1-0.1,0.2-0.2,0.4-0.2c0.2,0,0.3,0.1,0.5,0.2c0,0.1-0.1,0.1-0.2,0.1
		c-0.2,0.1-0.5,0.3-0.7,0.4c0,0.1,0,0.3,0,0.4c0.4-0.3,0.8-0.5,1.3-0.7c0.1,0.1,0.2,0.2,0.3,0.3c-0.5,0.2-1.1,0.5-1.6,0.7
		c0,0.2,0,0.3,0,0.5c0.6-0.3,1.2-0.6,1.9-0.8c0.1,0.1,0.1,0.2,0.1,0.4c-0.7,0.2-1.4,0.4-2,0.7c0,0.1,0,0.3,0,0.4
		c0.7-0.2,1.4-0.5,2.2-0.6c0,0.2,0,0.3,0,0.5c-0.7,0.1-1.5,0.2-2.2,0.3c0,0.1,0,0.3,0,0.4c0.7-0.1,1.4-0.2,2.1-0.1
		c0,0.2-0.1,0.4-0.1,0.6c-0.7-0.1-1.3-0.1-2-0.1c0,0.2,0,0.4,0,0.6c0.6,0,1.1,0.2,1.7,0.2c-0.1,0.2-0.2,0.3-0.2,0.5
		c-0.5-0.2-0.9-0.3-1.4-0.4c0,0.3,0,0.6,0,1c0.3,0.1,0.5,0.2,0.8,0.4c-0.1,0.1-0.2,0.3-0.3,0.4c-0.2-0.1-0.3-0.2-0.5-0.3
		c0,0.4,0,0.9,0,1.3c0.2-0.2,0.4-0.4,0.6-0.6c0.8-0.8,1.4-1.7,1.7-2.7c0.3-1,0.4-2,0-3C171.2,36.6,170.2,36,169.3,35.9z"/>
	<path class="st0" d="M69.9,41.5c0,2.1,0,4.3,0,6.4c0,1.2,0,2.5,0,3.7c1.2,0,2.5,0,3.7,0c0-2.8,0-5.6,0-8.4c2.7,2.8,5.5,5.6,8.2,8.4
		c1,0,2,0,3,0c0-4.5,0-9.1,0-13.6c-1.2,0-2.5,0-3.7,0c0,1.6,0,3.3,0,4.9c0,1,0,2.1,0,3.1c-0.9-0.9-1.8-1.8-2.6-2.7
		c-0.9-0.9-1.8-1.8-2.6-2.7c-0.8-0.8-1.6-1.7-2.4-2.5c-0.1,0-0.1-0.1-0.2-0.1c-1.1,0-2.2,0-3.3,0C69.9,39.2,69.9,40.3,69.9,41.5z"/>
	<path class="st0" d="M93.2,42c0,3.2,0,6.4,0,9.6c1.3,0,2.7,0,4,0c0-4.5,0-9.1,0-13.6c-1.3,0-2.7,0-4,0C93.2,39.3,93.2,40.7,93.2,42
		z"/>
	<path class="st0" d="M103.9,38c0,1,0,2.1,0,3.1l0,0c1.6,0,3.3,0,4.9,0c0,3.5,0,7,0,10.5c1.3,0,2.6,0,4,0c0-3.5,0-7,0-10.5
		c1.7,0,3.3,0,5,0c0-1.1,0-2.1,0-3.2C113.2,38,108.5,38,103.9,38z"/>
	<path class="st0" d="M124.4,38c0,4.5,0,9.1,0,13.6c4.3,0,8.5,0,12.8,0c0-1,0-2,0-3.1c-3,0-5.9,0-8.9,0c0-0.8,0-1.6,0-2.4
		c2.5,0,5,0,7.5,0c0-1,0-1.9,0-2.9c-2.5,0-5,0-7.5,0c0-0.8,0-1.5,0-2.3c2.9,0,5.9,0,8.8,0c0-1,0-2,0-3.1C132.9,38,128.6,38,124.4,38
		z"/>
	<path class="st0" d="M184.3,38.4c0.2,0.3,0.4,0.6,0.5,1c0,0.1,0,0.1,0.1,0.2c0.2,0.1,0.4,0.2,0.6,0.3c0.1,0.1,0.1,0.2,0.2,0.3
		c0.4,0.7,0.7,1.4,0.9,2.2c-0.4-0.2-0.8-0.5-1.2-0.7c0.1,0.5,0.1,0.9,0.1,1.4c0.5,0.3,0.9,0.7,1.3,1c0.1,0.7,0,1.5-0.1,2.2
		c-0.4-0.3-0.7-0.6-1.1-0.9c-0.1-0.1-0.2-0.2-0.4-0.2c-0.1,0.7-0.4,1.4-0.6,2.1c0,0.1,0,0.1,0,0.2c0.5,0.4,1,0.9,1.5,1.4
		c-0.2,0.5-0.4,1.1-0.7,1.6c-0.3-0.3-0.7-0.7-1-1c-0.2-0.2-0.3-0.4-0.6-0.5c-0.1,0.3-0.3,0.5-0.5,0.8c-0.4,0.6-0.7,1.2-1.2,1.7
		c0.4,0.4,0.9,0.9,1.3,1.4c0.1,0.1,0.2,0.2,0.2,0.3c-0.1,0.3-0.3,0.5-0.5,0.7c-0.2,0.2-0.3,0.4-0.5,0.6c-0.5-0.6-1-1.1-1.5-1.7
		c-0.7,0.9-1.6,1.7-2.4,2.5c0.5,0.6,0.9,1.2,1.4,1.8c0.2,0,0.4,0,0.6,0c0.9-0.8,1.7-1.6,2.4-2.5c1.7-2,3.1-4.4,3.8-7
		c0.4-1.5,0.4-3.2,0.1-4.7c-0.3-1.4-1-2.8-2-3.9C185,38.5,184.6,38.5,184.3,38.4z"/>
	<path class="st0" d="M188.9,44c0.1,0.6,0.2,1.1,0.3,1.7c0,0.1,0,0.2,0.1,0.3c0.2,0.2,0.3,0.4,0.5,0.6c0,0.8,0,1.7-0.2,2.5
		c-0.1-0.2-0.3-0.3-0.4-0.5c0,0-0.1-0.1-0.1,0c-0.1,0.9-0.4,1.7-0.7,2.5c0.2,0.3,0.3,0.6,0.5,0.9c-0.1,0.4-0.3,0.9-0.5,1.3
		c-0.1,0.2-0.1,0.4-0.3,0.5c-0.2-0.3-0.3-0.6-0.5-0.9c0,0,0,0-0.1,0c-0.5,1-1.1,1.9-1.7,2.8c0.2,0.4,0.5,0.8,0.7,1.2
		c0.1,0,0.2,0,0.3,0c0.6-1,1.2-1.9,1.7-3c0.6-1.4,1.1-2.8,1.3-4.3c0.1-0.9,0.2-1.8,0.1-2.7c-0.1-0.8-0.4-1.7-0.7-2.4
		C189.2,44.3,189.1,44.1,188.9,44z"/>
	<path class="st0" d="M190.4,52.2c-0.3,1.3-0.6,2.6-1,3.9c-0.1,0-0.1-0.1-0.1-0.1c0-0.1-0.1,0-0.1,0c-0.1,0.3-0.3,0.6-0.5,1
		c0.2,0,0.5,0,0.7,0C190.1,55.4,190.4,53.8,190.4,52.2L190.4,52.2z"/>
	<path class="st1" d="M169.3,31h25.9c0,7.7,0,15.5,0,23.2c0,0.9,0,1.8,0,2.7h-5.4c0.3-0.9,0.6-1.7,0.7-2.6c0.4-1.8,0.4-3.7,0.2-5.5
		c-0.4-2.8-1.5-5.6-3.2-7.9c-1.6-2.2-3.7-3.9-6.1-5.1c-3.7-1.8-8.1-2.2-12.1-1.1C169.3,33.5,169.3,32.3,169.3,31z"/>
	<path class="st1" d="M171.3,34.6c1.2-0.3,2.4-0.3,3.6,0c1.6,0.3,3.1,1.4,3.8,2.9c0.4,0.8,0.5,1.6,0.5,2.4c0,2-0.7,3.9-1.7,5.5
		c-0.9,1.6-2.2,3-3.5,4.2c-1.3,1.1-2.7,2.1-4.2,2.8c-0.2,0.1-0.4,0.2-0.5,0.2c0-0.5,0-0.9,0-1.4c0.2,0.2,0.3,0.5,0.4,0.8
		c0.2-0.1,0.4-0.2,0.6-0.3c-0.3-0.7-0.7-1.4-1-2c-0.1-0.1,0-0.2,0-0.3c0-0.3,0-0.5,0-0.8c0.6-0.3,1.2-0.7,1.7-1.1
		c0.1-0.1,0.1,0,0.1,0.1c0.6,0.8,1.2,1.5,1.8,2.3c0,0,0.1,0.1,0.1,0.1c0.3-0.2,0.6-0.4,0.8-0.7c-0.6-0.8-1.3-1.5-2-2.2
		c0,0-0.1-0.1-0.1-0.1c0.5-0.3,0.9-0.7,1.2-1.2c0.1-0.1,0.2-0.3,0.3-0.4c0.8,0.6,1.6,1.3,2.4,2c0.3-0.3,0.5-0.6,0.8-1
		c-0.8-0.6-1.7-1.2-2.6-1.7c0.3-0.5,0.7-1,1-1.6c0.8,0.4,1.6,0.8,2.4,1.2c0.1,0,0.2,0.1,0.3,0.1c0.2-0.3,0.4-0.7,0.5-1.1
		c-0.9-0.5-1.8-0.8-2.8-1.2c0.2-0.4,0.3-0.8,0.4-1.2c1,0.2,1.9,0.5,2.8,0.8c0.1-0.4,0.2-0.9,0.2-1.4c-0.9-0.2-1.9-0.4-2.8-0.5
		c0-0.3,0-0.6,0-0.9c0.9,0.1,1.8,0.2,2.7,0.4c0-0.4-0.1-0.8-0.3-1.2c-0.8-0.2-1.7-0.1-2.5-0.1c-0.1-0.2-0.1-0.4-0.2-0.6
		c0.8-0.1,1.6-0.1,2.3,0c-0.2-0.3-0.4-0.7-0.7-0.9c-0.7,0-1.4,0.1-2,0.2c-0.1-0.2-0.3-0.3-0.4-0.5c0.6-0.1,1.1-0.2,1.7-0.3
		c0-0.1-0.1-0.1-0.2-0.2c-0.3-0.2-0.6-0.3-0.9-0.4c-0.1-0.1-0.3,0-0.4,0c-0.3,0.1-0.6,0.2-0.9,0.2c-0.2-0.1-0.4-0.2-0.6-0.3
		c0.3-0.1,0.5-0.2,0.8-0.3c-0.6-0.1-1.2-0.1-1.8-0.1C172.1,34.7,171.7,34.6,171.3,34.6z"/>
	<path class="st1" d="M175.4,34.4c1,0.1,2,0.3,3,0.6c0.8,0.3,1.5,0.7,2.1,1.3c1.2,1,2,2.5,2.2,4c0.3,1.7-0.2,3.4-0.8,5
		c-0.7,1.7-1.7,3.1-2.8,4.5c-2,2.4-4.5,4.5-7.4,5.8c-0.7,0.3-1.5,0.6-2.3,0.9c0-1.2,0-2.4,0-3.6c0.2-0.1,0.5-0.2,0.7-0.3
		c0.4,0.9,0.9,1.8,1.4,2.7c0.3-0.1,0.5-0.2,0.7-0.4c-0.4-0.8-0.9-1.7-1.4-2.5c0-0.1-0.1-0.2,0-0.2c1-0.5,1.9-1.1,2.7-1.8
		c0.6,0.8,1.3,1.6,1.9,2.4c0.4-0.2,0.7-0.5,1-0.8c-0.5-0.7-1.1-1.4-1.7-2.1c-0.1-0.1-0.2-0.2-0.3-0.3c0.3-0.3,0.6-0.5,0.9-0.8
		c0.4-0.4,0.7-0.8,1-1.2c0.8,0.7,1.6,1.4,2.3,2.1c0.3-0.4,0.7-0.7,0.9-1.2c-0.6-0.5-1.2-1.1-1.9-1.6c-0.2-0.1-0.4-0.3-0.5-0.4
		c0.5-0.6,0.9-1.3,1.2-1.9c0.7,0.3,1.3,0.8,1.9,1.2c0.3,0.2,0.5,0.4,0.8,0.5c0.2-0.4,0.5-0.9,0.6-1.3c-0.8-0.5-1.7-1-2.6-1.5
		c-0.1,0-0.1-0.1-0.1-0.1c0.2-0.5,0.4-1.1,0.5-1.6c0.8,0.2,1.5,0.6,2.3,1c0.2,0.1,0.4,0.2,0.6,0.3c0.1-0.5,0.2-1.1,0.2-1.6
		c-0.9-0.4-1.8-0.7-2.8-1c0-0.3,0-0.7,0-1c0.9,0.2,1.7,0.4,2.5,0.7c0.1,0,0.2,0.1,0.2,0c-0.1-0.5-0.3-1-0.5-1.5
		c-0.8-0.2-1.6-0.4-2.5-0.5c-0.1-0.3-0.2-0.5-0.3-0.8c0.6,0.1,1.1,0.1,1.7,0.2c0.1,0,0.3,0.1,0.4,0.1c-0.3-0.4-0.7-0.8-1.1-1.2
		c-0.1-0.1-0.2-0.1-0.3-0.1c-0.5,0-1,0-1.5,0c-0.2-0.1-0.3-0.3-0.4-0.4c0-0.1-0.1-0.1-0.1-0.2c0.3,0,0.7,0,1.1,0
		c-0.1-0.1-0.3-0.2-0.5-0.3c-0.6-0.2-1.2-0.4-1.9-0.5C176,34.6,175.7,34.5,175.4,34.4z"/>
	<path class="st1" d="M169.9,34.9c1.1-0.2,2.4-0.2,3.5,0.3c0.8,0.3,1.6,0.9,2,1.7c0.6,1,0.6,2.3,0.3,3.4c-0.4,1.6-1.2,3.1-2.2,4.3
		c-1.1,1.4-2.5,2.5-3.9,3.5c-0.1,0.1-0.2,0.1-0.3,0.1c0-1.1,0-2.1,0-3.2c0.5,0.6,0.9,1.2,1.4,1.7c0.2-0.1,0.4-0.3,0.6-0.5
		c-0.6-0.7-1.3-1.4-1.9-2.1c-0.1-0.1-0.1-0.2,0-0.3c0.3-0.3,0.6-0.6,0.9-0.9c0.9,0.5,1.7,1.2,2.5,1.8c0.2-0.2,0.3-0.4,0.5-0.6
		c0,0,0.1-0.1,0-0.2c-0.9-0.5-1.7-1-2.6-1.5c0.3-0.3,0.5-0.7,0.7-1.1c0.9,0.3,1.7,0.6,2.5,0.9c0.1,0.1,0.3,0.1,0.5,0.2
		c0.1-0.3,0.3-0.6,0.4-0.8c-1-0.4-2.1-0.6-3.1-0.8c0.1-0.3,0.2-0.5,0.3-0.8c1.1,0.1,2.2,0.2,3.3,0.4c0.1-0.3,0.2-0.7,0.2-1
		c-1.1-0.1-2.2-0.1-3.3-0.1c0-0.2,0-0.4,0.1-0.7c1.1-0.1,2.2-0.1,3.3-0.1c0-0.3,0-0.6-0.1-0.9c-1.1,0-2.1,0.2-3.2,0.4
		c0-0.2-0.1-0.3-0.1-0.5c1-0.3,2-0.4,3.1-0.5c-0.1-0.2-0.3-0.5-0.4-0.7c-1,0.2-1.9,0.5-2.8,0.8c-0.1-0.1-0.2-0.3-0.3-0.4
		c0.8-0.4,1.7-0.6,2.6-0.8c-0.2-0.2-0.5-0.4-0.8-0.5c-0.8,0.2-1.5,0.6-2.2,0.9c-0.1-0.1-0.2-0.2-0.3-0.2c0-0.1,0.1-0.1,0.1-0.1
		c0.5-0.3,1.1-0.6,1.6-0.8c-0.4-0.1-0.8-0.2-1.2-0.2c-0.4,0.2-0.8,0.5-1.2,0.8c-0.2-0.1-0.3-0.1-0.5-0.1c0.2-0.2,0.5-0.4,0.7-0.6
		c-0.4,0-0.8,0.1-1.2,0.1c0,0,0-0.1,0-0.2c-0.1,0-0.2,0-0.3,0C169.3,35,169.6,35,169.9,34.9z"/>
	<path class="st1" d="M179.8,35.5c0.2,0,0.5,0.1,0.7,0.2c0.9,0.3,1.7,0.7,2.4,1.4c0.6,0.6,1.1,1.3,1.5,2c0.9,1.7,1.2,3.7,0.8,5.6
		c-0.4,2.1-1.3,4-2.5,5.8c-1.8,2.6-4.1,4.7-6.6,6.5h-2.7c-0.3-0.5-0.6-1-0.9-1.5c1.1-0.6,2.2-1.3,3.3-2.1c0.6,0.7,1.1,1.4,1.7,2.1
		c0.4-0.3,0.7-0.6,1-0.9c-0.5-0.7-1.1-1.4-1.7-2.1c0.8-0.7,1.6-1.5,2.3-2.3c0.7,0.6,1.3,1.3,1.9,1.9c0.4-0.3,0.7-0.8,1-1.2
		c-0.6-0.7-1.3-1.3-1.9-1.9c0.1-0.2,0.3-0.3,0.4-0.5c0.4-0.6,0.7-1.2,1.1-1.8c0.2,0.1,0.3,0.2,0.5,0.3c0.5,0.4,1.1,0.8,1.6,1.3
		c0.2-0.5,0.5-1,0.7-1.5c-0.6-0.6-1.3-1-2-1.5c0.3-0.6,0.5-1.3,0.6-2c0.7,0.3,1.4,0.8,2.1,1.3c0.1-0.6,0.2-1.3,0.2-1.9
		c-0.7-0.4-1.3-0.8-2-1.1c0-0.4,0-0.8-0.1-1.3c0.6,0.3,1.3,0.5,1.9,0.9c-0.1-0.6-0.3-1.2-0.5-1.7c-0.1-0.1-0.1-0.3-0.2-0.3
		c-0.5-0.2-1-0.4-1.6-0.5c-0.1-0.3-0.3-0.7-0.5-1c0.5,0.1,1,0.2,1.5,0.4c-0.5-0.7-1.2-1.3-1.9-1.7c-0.2-0.1-0.5,0-0.8-0.2
		C180.4,35.9,180.1,35.7,179.8,35.5z"/>
	<path class="st1" d="M169.3,35.9c0.9,0.1,1.9,0.7,2.3,1.5c0.4,0.9,0.4,2,0,3c-0.4,1-1,2-1.7,2.7c-0.2,0.2-0.4,0.4-0.6,0.6
		c0-0.4,0-0.9,0-1.3c0.2,0.1,0.3,0.2,0.5,0.3c0.1-0.1,0.2-0.2,0.3-0.4c-0.3-0.2-0.5-0.3-0.8-0.4c0-0.3,0-0.6,0-1
		c0.5,0.1,1,0.2,1.4,0.4c0.1-0.2,0.2-0.3,0.2-0.5c-0.6-0.1-1.1-0.2-1.7-0.2c0-0.2,0-0.4,0-0.6c0.7,0,1.3,0,2,0.1
		c0.1-0.2,0.1-0.4,0.1-0.6c-0.7,0-1.4,0.1-2.1,0.1c0-0.1,0-0.3,0-0.4c0.7-0.2,1.4-0.3,2.2-0.3c0-0.2,0-0.3,0-0.5
		c-0.7,0.1-1.5,0.3-2.2,0.6c0-0.1,0-0.3,0-0.4c0.7-0.3,1.3-0.5,2-0.7c0-0.1-0.1-0.2-0.1-0.4c-0.7,0.2-1.3,0.5-1.9,0.8
		c0-0.2,0-0.3,0-0.5c0.5-0.3,1-0.5,1.6-0.7c-0.1-0.1-0.2-0.2-0.3-0.3c-0.4,0.2-0.9,0.5-1.3,0.7c0-0.1,0-0.3,0-0.4
		c0.2-0.1,0.5-0.3,0.7-0.4c0,0,0.1-0.1,0.2-0.1c-0.2-0.1-0.3-0.2-0.5-0.2c-0.1,0.1-0.2,0.2-0.4,0.2
		C169.3,36.3,169.3,36.1,169.3,35.9z"/>
	<path class="st1" d="M47.7,38c1.3,0,2.6,0,3.9,0c0,2.6,0,5.1,0,7.7c0,0.8,0.2,1.6,0.8,2.2c0.7,0.6,1.6,0.8,2.5,0.8
		c0.7,0,1.5-0.1,2.2-0.4c0.5-0.2,0.9-0.6,1.2-1.1c0.3-0.5,0.3-1.1,0.3-1.7c0-2.5,0-5,0-7.5c1.3,0,2.6,0,3.9,0c0,2.4,0,4.8,0,7.3
		c0,0.7,0,1.5-0.2,2.2c-0.3,1.2-0.9,2.3-1.9,3.1c-1.2,0.9-2.7,1.2-4.2,1.4c-1.3,0.1-2.7,0-4-0.3c-1.2-0.3-2.5-0.9-3.3-1.9
		c-0.9-1-1.2-2.4-1.2-3.7V38z"/>
	<path class="st1" d="M69.9,41.5c0-1.2,0-2.4,0-3.5c1.1,0,2.2,0,3.3,0c0.1,0,0.1,0.1,0.2,0.1c0.8,0.8,1.6,1.7,2.4,2.5
		c0.9,0.9,1.8,1.8,2.6,2.7c0.9,0.9,1.8,1.8,2.6,2.7c0-1,0-2.1,0-3.1c0-1.6,0-3.3,0-4.9c1.2,0,2.5,0,3.7,0c0,4.5,0,9.1,0,13.6
		c-1,0-2,0-3,0c-2.7-2.8-5.5-5.6-8.2-8.4c0,2.8,0,5.6,0,8.4c-1.2,0-2.5,0-3.7,0c0-1.2,0-2.5,0-3.7C69.9,45.8,69.9,43.7,69.9,41.5z"
		/>
	<path class="st1" d="M93.2,42c0-1.3,0-2.7,0-4c1.3,0,2.7,0,4,0c0,4.5,0,9.1,0,13.6c-1.3,0-2.7,0-4,0C93.2,48.4,93.2,45.2,93.2,42z"
		/>
	<path class="st1" d="M103.9,38c4.6,0,9.2,0,13.9,0c0,1.1,0,2.1,0,3.2c-1.7,0-3.3,0-5,0c0,3.5,0,7,0,10.5c-1.3,0-2.6,0-4,0
		c0-3.5,0-7,0-10.5c-1.6,0-3.3,0-4.9,0l0,0C103.9,40.1,103.9,39,103.9,38z"/>
	<path class="st1" d="M124.4,38c4.2,0,8.5,0,12.7,0c0,1,0,2,0,3.1c-2.9,0-5.9,0-8.8,0c0,0.8,0,1.5,0,2.3c2.5,0,5,0,7.5,0
		c0,1,0,1.9,0,2.9c-2.5,0-5,0-7.5,0c0,0.8,0,1.6,0,2.4c3,0,5.9,0,8.9,0c0,1,0,2,0,3.1c-4.3,0-8.5,0-12.8,0
		C124.4,47.1,124.4,42.5,124.4,38z"/>
	<g>
		<path class="st1" d="M144.4,38c1.7,0,3.4,0,5,0c1.3,0,2.6-0.1,4,0.1c1.2,0.2,2.5,0.5,3.6,1.2c0.9,0.5,1.6,1.3,2,2.2
			c0.5,1,0.7,2.2,0.7,3.3c0,1.1-0.2,2.2-0.7,3.2c-0.4,0.8-0.9,1.4-1.6,1.9c-1.1,0.8-2.5,1.3-3.8,1.5c-1.4,0.2-2.7,0.2-4.1,0.2
			c-1.7,0-3.4,0-5.1,0C144.5,47.1,144.4,42.5,144.4,38z M148.4,41.1c0,2.4,0,4.9,0,7.3c0.5,0,0.9,0,1.4,0c0.8,0,1.5,0,2.3,0
			c1-0.1,2-0.3,2.6-1c0.6-0.6,0.8-1.6,0.9-2.4c0-0.6-0.1-1.3-0.3-1.9c-0.2-0.5-0.6-1-1.1-1.3c-0.8-0.5-1.7-0.6-2.6-0.6
			C150.5,41.1,149.5,41.1,148.4,41.1z"/>
	</g>
	<path class="st1" d="M184.3,38.4c0.3,0.1,0.7,0.2,0.9,0.5c1,1.1,1.7,2.5,2,3.9c0.4,1.5,0.3,3.2-0.1,4.7c-0.6,2.6-2.1,4.9-3.8,7
		c-0.8,0.9-1.6,1.7-2.4,2.5c-0.2,0-0.4,0-0.6,0c-0.5-0.6-0.9-1.2-1.4-1.8c0.9-0.8,1.7-1.6,2.4-2.5c0.5,0.6,1,1.1,1.5,1.7
		c0.2-0.2,0.3-0.4,0.5-0.6c0.2-0.2,0.4-0.4,0.5-0.7c0-0.1-0.1-0.2-0.2-0.3c-0.4-0.5-0.8-0.9-1.3-1.4c0.4-0.5,0.8-1.1,1.2-1.7
		c0.2-0.3,0.3-0.5,0.5-0.8c0.2,0.1,0.4,0.3,0.6,0.5c0.3,0.3,0.7,0.7,1,1c0.3-0.5,0.5-1.1,0.7-1.6c-0.5-0.5-0.9-1-1.5-1.4
		c-0.1,0-0.1-0.1,0-0.2c0.3-0.7,0.5-1.4,0.6-2.1c0.2,0,0.3,0.2,0.4,0.2c0.4,0.3,0.7,0.6,1.1,0.9c0.1-0.7,0.2-1.5,0.1-2.2
		c-0.4-0.4-0.9-0.7-1.3-1c0-0.5,0-0.9-0.1-1.4c0.4,0.2,0.8,0.5,1.2,0.7c-0.2-0.8-0.5-1.5-0.9-2.2c-0.1-0.1-0.1-0.2-0.2-0.3
		c-0.2-0.1-0.4-0.2-0.6-0.3c-0.1,0-0.1-0.1-0.1-0.2C184.7,39,184.5,38.7,184.3,38.4z"/>
	<path class="st1" d="M186.2,39.9c0.2,0,0.3,0.2,0.5,0.4c1.1,1.2,1.8,2.7,2.1,4.2c0.3,1.7,0.2,3.5-0.2,5.1c-0.7,2.7-2.2,5.2-4,7.3
		h-3.3c0.2-0.2,0.3-0.3,0.5-0.5c0.4-0.4,0.7-0.8,1.1-1.2c0.1-0.1,0.2-0.3,0.4-0.4c0.4,0.5,0.8,1,1.2,1.6c0.4-0.4,0.7-0.9,1.1-1.3
		c-0.4-0.5-0.8-1.1-1.2-1.6c0.6-0.9,1.2-1.8,1.7-2.7c0.4,0.4,0.8,0.9,1.1,1.4c0.3-0.5,0.5-1.1,0.7-1.7c-0.3-0.5-0.7-0.9-1.1-1.4
		c0.3-0.8,0.5-1.6,0.6-2.4c0.4,0.3,0.7,0.7,1,1.1c0.1-0.8,0.1-1.7,0.1-2.5c-0.3-0.3-0.6-0.6-0.9-0.8c0-0.6-0.1-1.1-0.2-1.7
		c0.2,0.2,0.4,0.3,0.6,0.5c-0.4-1.1-1-2.2-1.7-3.1C186.3,40.1,186.2,40,186.2,39.9z"/>
	<path class="st1" d="M188.9,44c0.2,0.1,0.3,0.3,0.4,0.5c0.3,0.8,0.6,1.6,0.7,2.4c0.1,0.9,0,1.8-0.1,2.7c-0.2,1.5-0.7,2.9-1.3,4.3
		c-0.5,1-1,2-1.7,3c-0.1,0-0.2,0-0.3,0c-0.2-0.4-0.5-0.8-0.7-1.2c0.6-0.9,1.2-1.8,1.7-2.8c0,0,0,0,0.1,0c0.2,0.3,0.4,0.6,0.5,0.9
		c0.1-0.2,0.2-0.4,0.3-0.5c0.2-0.4,0.3-0.8,0.5-1.3c-0.2-0.3-0.3-0.6-0.5-0.9c0.3-0.8,0.5-1.7,0.7-2.5c0-0.1,0.1,0,0.1,0
		c0.1,0.2,0.2,0.3,0.4,0.5c0.2-0.8,0.2-1.7,0.2-2.5c-0.1-0.2-0.3-0.4-0.5-0.6c-0.1-0.1-0.1-0.2-0.1-0.3
		C189.1,45.1,189,44.5,188.9,44z"/>
	<path class="st1" d="M190.3,49.1c0-0.1,0-0.4,0.1-0.3c0.2,1.4-0.1,2.8-0.5,4.2c-0.4,1.4-0.9,2.7-1.5,3.9h-1.3
		c0.1-0.2,0.2-0.3,0.3-0.5c0.4-0.6,0.8-1.3,1.1-2c0.1,0.2,0.2,0.4,0.3,0.6c0.3-0.5,0.4-1.1,0.6-1.6c0.1-0.3-0.3-0.6-0.1-0.9
		c0.3-0.8,0.5-1.7,0.7-2.5c0.1,0,0.1,0.1,0.2,0.1C190.2,49.8,190.3,49.4,190.3,49.1z"/>
	<path class="st1" d="M190.4,52.2L190.4,52.2c0,1.6-0.3,3.2-0.9,4.8c-0.2,0-0.5,0-0.7,0c0.1-0.3,0.3-0.6,0.5-1c0-0.1,0.1-0.1,0.1,0
		c0,0,0,0.2,0.1,0.1C189.8,54.8,190.1,53.5,190.4,52.2z"/>
	<g>
		<path class="st1" d="M196.4,55c0.4-0.4,1.1-0.4,1.5,0.1c0.2,0.2,0.3,0.5,0.3,0.8v0c0,0.4-0.2,0.8-0.6,1c-0.5,0.3-1.1,0.2-1.4-0.2
			C195.9,56.1,195.9,55.4,196.4,55z M196.8,55c-0.5,0.2-0.7,0.8-0.4,1.2c0.2,0.4,0.9,0.5,1.3,0.2c-0.1,0-0.2,0-0.3,0
			c-0.1-0.2-0.2-0.3-0.3-0.5c0,0-0.1,0-0.1,0c0,0.2,0,0.4,0,0.5c-0.1,0-0.2,0-0.3,0c0-0.4,0-0.8,0-1.3c0.3,0,0.5,0,0.8,0
			c0.2,0.1,0.3,0.3,0.2,0.5c0,0.1-0.2,0.2-0.3,0.3c0.1,0.1,0.2,0.4,0.4,0.5c0.2-0.2,0.3-0.5,0.2-0.8C197.8,55.2,197.3,54.8,196.8,55
			z M196.9,55.4c0,0.1,0,0.2,0,0.2c0.1,0,0.3,0,0.4,0c0.1,0,0.1-0.1,0.1-0.2C197.3,55.5,197.1,55.4,196.9,55.4z"/>
	</g>
	<path class="st1" d="M169.3,56.7c0.8-0.2,1.6-0.5,2.3-0.9c0.2,0.4,0.4,0.8,0.6,1.2h-3C169.3,56.9,169.3,56.8,169.3,56.7z"/>
	<path class="st1" d="M176.8,56.7c0.4-0.2,0.7-0.5,1-0.7c0.2,0.3,0.4,0.6,0.6,1h-1.9C176.6,56.9,176.7,56.8,176.8,56.7z"/>
</g>
</svg>
