<?xml version="1.0" encoding="utf-8"?>
<!-- Generator: Adobe Illustrator 19.2.1, SVG Export Plug-In . SVG Version: 6.00 Build 0)  -->
<!DOCTYPE svg PUBLIC "-//W3C//DTD SVG 1.1//EN" "http://www.w3.org/Graphics/SVG/1.1/DTD/svg11.dtd">
<svg version="1.1" id="Layer_1" xmlns="http://www.w3.org/2000/svg" xmlns:xlink="http://www.w3.org/1999/xlink" x="0px" y="0px"
	 viewBox="0 0 246 88" style="enable-background:new 0 0 246 88;" xml:space="preserve">
<style type="text/css">
	.st0{fill:#595959;}
</style>
<g>
	<path class="st0" d="M180.4,30.7c-2.1,4.7-4.3,9.4-6.5,14c-0.7-1.8-1.6-3.5-2.4-5.3c-0.9,0-1.8,0-2.7,0c1.3,2.9,2.7,5.7,4,8.7
		c0.7,0,1.5,0,2.2,0c2.7-5.8,5.4-11.6,8.1-17.4C182.2,30.7,181.3,30.7,180.4,30.7z"/>
	<path class="st0" d="M110.8,33.2c0,1.6,0,3.2,0,4.8c1.8,0,3.6,0,5.4,0c0-1.6,0-3.2,0-4.8C114.4,33.2,112.6,33.2,110.8,33.2z"/>
	<path class="st0" d="M97.2,49.5c0-2.5-0.4-5.2-1.9-7.3c-2.5-3.6-7.7-4.3-11.4-2.2c-2.4,1.3-3.9,3.8-4.3,6.5c-0.3,2.4,0.1,5,1.5,7.1
		c1.3,1.9,3.4,3.2,5.7,3.6c2.2,0.4,4.5,0.2,6.4-0.9c1.8-0.9,3.2-2.6,3.8-4.6c-1.7,0-3.4-0.1-5.1,0c-0.9,2-3.5,2.2-5.2,1.3
		c-1.2-0.7-1.7-2-1.9-3.3C88.9,49.5,93.1,49.6,97.2,49.5z M86.8,43c1.2-0.5,2.9-0.5,3.9,0.5c0.7,0.7,1.1,1.7,1.2,2.6
		c-2.4,0-4.8,0-7.1,0C85,44.9,85.6,43.6,86.8,43z"/>
	<path class="st0" d="M148.2,41.2c-2.2-2-5.4-2.6-8.3-2.1c-2.9,0.5-5.5,2.5-6.5,5.2c-0.7,1.6-0.8,3.4-0.7,5.1c0.3,3,2.2,5.8,4.9,7
		c3.5,1.6,8.2,1.1,10.9-1.8C152.1,51,152,44.5,148.2,41.2z M144.6,52.1c-1.3,1.6-4.1,1.7-5.4,0c-1.2-1.5-1.2-3.6-1.1-5.5
		c0.2-1.5,0.9-3.1,2.4-3.6c1.1-0.4,2.4-0.3,3.4,0.4c1.2,0.9,1.7,2.4,1.8,3.9C145.8,49,145.7,50.8,144.6,52.1z"/>
	<path class="st0" d="M168.8,47.6c0-1.6,0.1-3.3-0.4-4.8c-0.5-1.5-1.6-2.8-3.1-3.4c-2-0.8-4.6-0.7-6.3,0.7c-0.7,0.5-1.1,1.1-1.6,1.7
		c0-0.8,0-1.6,0-2.4c-1.7,0-3.4,0-5.2,0c0,5.8,0,11.6,0,17.3c1.8,0,3.5,0,5.3,0c0-3.2,0-6.4,0-9.6c0-1.1,0.3-2.2,1.1-3
		c1-1,2.6-1.1,3.8-0.3c0.8,0.6,1.1,1.5,1.1,2.4c0,3.5,0,7,0,10.5c1.8,0,3.6,0,5.3,0C168.8,53.7,168.9,50.6,168.8,47.6z"/>
	<path class="st0" d="M75.2,39.4c-1.2,3.7-2.2,7.5-3.5,11.2c-1.1-3.7-2.3-7.4-3.4-11.2c-1.8,0-3.7,0-5.5,0c2.1,5.7,4,11.6,6.1,17.4
		c1.8,0,3.7,0,5.5,0c2-5.8,4-11.6,6-17.3C78.8,39.4,77,39.4,75.2,39.4z"/>
	<path class="st0" d="M104.7,40.8c-0.5,0.5-0.8,1.1-1.2,1.6c0-1,0-1.9,0.1-2.9c-1.7,0-3.4,0-5.1,0c0,5.8,0,11.6,0,17.3
		c1.8,0,3.6,0,5.4,0c0-2.8,0-5.5,0-8.3c0-1.4,0.5-2.9,1.7-3.8c1.1-0.8,2.6-0.9,3.9-0.7c0-1.5,0-3.1,0-4.6
		C107.8,39,105.9,39.5,104.7,40.8z"/>
	<path class="st0" d="M110.8,39.4c0,5.8,0,11.6,0,17.3c1.8,0,3.6,0,5.4,0c0-5.8,0-11.6,0-17.4C114.4,39.4,112.6,39.4,110.8,39.4z"/>
	<path class="st0" d="M124,52.6c2.5-2.7,4.9-5.5,7.4-8.3c0.2-0.3,0.5-0.5,0.7-0.9c0-1.3,0-2.6,0-4c-4.8,0-9.7,0-14.5,0
		c0,1.4,0,2.8,0,4.2c2.7,0,5.3,0,8,0c0.2,0.2-0.2,0.3-0.2,0.5c-2.6,2.9-5.2,5.8-7.8,8.7c0,1.3,0,2.7,0,4c5,0,9.9,0,14.9,0
		c0-1.4,0-2.8,0-4.2C129.7,52.6,126.8,52.6,124,52.6z"/>
</g>
</svg>
