<?xml version="1.0" encoding="utf-8"?>
<!-- Generator: Adobe Illustrator 17.1.0, SVG Export Plug-In . SVG Version: 6.00 Build 0)  -->
<!DOCTYPE svg PUBLIC "-//W3C//DTD SVG 1.1//EN" "http://www.w3.org/Graphics/SVG/1.1/DTD/svg11.dtd">
<svg version="1.1" id="Layer_1" xmlns="http://www.w3.org/2000/svg" xmlns:xlink="http://www.w3.org/1999/xlink" x="0px" y="0px"
	 viewBox="0 0 246 88" enable-background="new 0 0 246 88" xml:space="preserve">
<g>
	<g>
		<g>
			<g>
				<circle fill="#60B8D7" cx="44.9" cy="38.5" r="2.1"/>
				<circle fill="#60B8D7" cx="46.1" cy="45.4" r="3"/>
				<circle fill="#60B8D7" cx="29.4" cy="41.1" r="4.4"/>
			</g>
		</g>
		<path fill="#841530" d="M42.8,31.1c-2.8,6.7-1.4,9.1-1.4,9.1c-5.4-1.1-13.6-7.6-13.2-13.6c0.3-4.2,3.4-7.6,7.6-7.6
			C44.2,19,44.2,28,42.8,31.1z"/>
		<path fill="#841530" d="M42.6,53.9c-2.5-8.4-1.2-11.3-1.2-11.3c-6.7,1.3-17.5,9.5-17,17c0.4,5.2,4.2,9.4,9.4,9.4
			C44.3,69,43.8,58,42.6,53.9z"/>
	</g>
	<g>
		<path opacity="0.63" fill="#465C6F" d="M65.5,48.7c-0.4-0.2-0.8-0.3-1.3-0.5v0.1C64.7,48.4,65.1,48.6,65.5,48.7z"/>
		<path opacity="0.63" fill="#465C6F" d="M61,48.4c0.1,0,0.1,0,0.2,0c1.2,0,2.2,0.1,3,0.3v-0.1c-0.6-0.2-1.3-0.3-1.9-0.4
			C61.9,48.3,61.4,48.4,61,48.4z"/>
		<path opacity="0.63" fill="#465C6F" d="M57.9,55.4C57.9,55.4,57.9,55.4,57.9,55.4L57.9,55.4C57.9,55.4,57.9,55.4,57.9,55.4z"/>
		<path opacity="0.63" fill="#465C6F" d="M61,48.6c-0.8,0-1.1-0.2-1.1-0.4c-0.7,0-1.4,0.1-2,0.2v0c0.6,0.1,1.3,0.2,2,0.2
			C60.3,48.6,60.6,48.6,61,48.6z"/>
		<path opacity="0.63" fill="#465C6F" d="M59.9,48.2c0,0.2,0.3,0.3,1.1,0.4c0.4,0,0.9-0.1,1.3-0.2c-0.6-0.1-1.3-0.1-2-0.1
			C60.1,48.2,60,48.2,59.9,48.2z"/>
		<path fill="#465C6F" d="M69.4,29.5c-0.4-1.1-1-2-1.7-2.7c-0.7-0.7-1.6-1.2-2.6-1.6c-1-0.3-2.1-0.5-3.2-0.5h-9.7v1.2c0,0,0,0,0,0
			v14.7c0,0,0,0,0,0v1.2h9.7c1.2,0,2.2-0.2,3.2-0.5c1-0.3,1.9-0.9,2.6-1.6c0.7-0.7,1.3-1.6,1.7-2.7c0.4-1.1,0.6-2.3,0.6-3.8
			C70,31.8,69.8,30.6,69.4,29.5z M66.1,36.1c-0.2,0.7-0.6,1.3-1.1,1.8c-0.5,0.4-1.1,0.8-1.8,0.9c-0.7,0.2-1.6,0.3-2.6,0.3h-4.9V27.5
			h4.9c1,0,1.8,0.1,2.6,0.3c0.7,0.2,1.3,0.5,1.8,0.9c0.5,0.4,0.8,1,1.1,1.8c0.2,0.7,0.4,1.7,0.4,2.8C66.4,34.4,66.3,35.3,66.1,36.1z
			"/>
		<path fill="#465C6F" d="M89.8,40.6l-4.3-6.1c1.4-0.3,2.6-0.8,3.4-1.5c0.8-0.7,1.3-1.8,1.3-3.2c0-0.9-0.2-1.7-0.5-2.3
			c-0.3-0.6-0.8-1.1-1.4-1.5c-0.6-0.4-1.3-0.7-2.2-0.9c-0.8-0.2-1.8-0.3-2.8-0.3H73v16.8h3.7v-2.7l0,0v-4.1h4.7l2.6,3.6l0,0l2.3,3.2
			h4.2L89.8,40.6C89.8,40.6,89.8,40.6,89.8,40.6z M82.4,32.2h-5.6v-4.7h5.6c0.8,0,1.4,0.1,2,0.2c0.5,0.1,0.9,0.3,1.2,0.5
			c0.3,0.2,0.5,0.5,0.7,0.8c0.1,0.3,0.2,0.6,0.2,0.9c0,0.3-0.1,0.7-0.2,0.9c-0.1,0.3-0.3,0.5-0.7,0.8c-0.3,0.2-0.7,0.4-1.2,0.5
			C83.8,32.2,83.2,32.2,82.4,32.2z"/>
		<path fill="#465C6F" d="M119.8,25.9c-1.2-0.8-2.9-1.1-5-1.1h-10.4v17h3.7v-6.1h0v-0.8h6.6c2.1,0,3.8-0.4,5-1.1
			c1.2-0.8,1.8-2.1,1.8-3.9C121.6,28,121,26.7,119.8,25.9z M117.1,31.4c-0.5,0.3-1.1,0.4-1.9,0.4h-7v-4.1h7c0.7,0,1.3,0.1,1.9,0.4
			c0.5,0.3,0.8,0.8,0.8,1.6C117.9,30.6,117.6,31.2,117.1,31.4z"/>
		<path fill="#465C6F" d="M219.9,40.6l-4.3-6.1c1.4-0.3,2.5-0.8,3.4-1.5c0.8-0.7,1.2-1.8,1.2-3.2c0-0.9-0.2-1.7-0.5-2.3
			c-0.3-0.6-0.8-1.1-1.4-1.5c-0.6-0.4-1.3-0.7-2.1-0.9c-0.8-0.2-1.8-0.3-2.8-0.3h-10v16.8h3.6v-2.7h0v-4.1h4.6l2.6,3.6l0,0l2.3,3.2
			h4.1L219.9,40.6C220,40.6,220,40.6,219.9,40.6z M212.7,32.2h-5.5v-4.7h5.5c0.8,0,1.4,0.1,1.9,0.2c0.5,0.1,0.9,0.3,1.2,0.5
			c0.3,0.2,0.5,0.5,0.6,0.8c0.1,0.3,0.2,0.6,0.2,0.9c0,0.3-0.1,0.7-0.2,0.9c-0.1,0.3-0.3,0.5-0.6,0.8c-0.3,0.2-0.7,0.4-1.2,0.5
			C214.1,32.2,213.5,32.2,212.7,32.2z"/>
		<path fill="#465C6F" d="M160.4,25.9c-1.2-0.8-2.8-1.1-4.9-1.1h-10.2v17h3.7v-6.1h0v-0.8h6.5c2.1,0,3.7-0.4,4.9-1.1
			c1.2-0.8,1.8-2.1,1.8-3.9C162.2,28,161.6,26.7,160.4,25.9z M157.7,31.5c-0.5,0.3-1.1,0.4-1.8,0.4H149v-4.1h6.9
			c0.7,0,1.3,0.1,1.8,0.4c0.5,0.3,0.8,0.8,0.8,1.7C158.5,30.6,158.2,31.2,157.7,31.5z"/>
		<path fill="#465C6F" d="M180.2,25.9c-1.2-0.8-2.8-1.1-4.9-1.1h-10.2v17h3.7v-6.1h0v-0.8h6.5c2.1,0,3.7-0.4,4.9-1.1
			c1.2-0.8,1.8-2.1,1.8-3.9C182,28,181.4,26.7,180.2,25.9z M177.5,31.5c-0.5,0.3-1.1,0.4-1.8,0.4h-6.9v-4.1h6.9
			c0.7,0,1.3,0.1,1.8,0.4c0.5,0.3,0.8,0.8,0.8,1.7C178.3,30.6,178,31.2,177.5,31.5z"/>
		<polygon fill="#465C6F" points="125.5,24.8 140.9,24.8 140.9,27.7 129.3,27.7 129.3,31.2 139.2,31.2 139.2,34.2 129.3,34.2 
			129.3,38.5 140.9,38.5 140.9,41.5 125.5,41.5 		"/>
		<polygon fill="#465C6F" points="184.6,24.8 200,24.8 200,27.7 188.5,27.7 188.5,31.2 198.3,31.2 198.3,34.2 188.5,34.2 
			188.5,38.5 200.1,38.5 200.1,41.5 184.7,41.5 		"/>
		<polygon fill="#465C6F" points="173.1,48.2 188.5,48.2 188.5,51.3 177,51.3 177,54.8 186.8,54.8 186.8,57.9 177,57.9 177,62.3 
			188.5,62.3 188.5,65.3 173.1,65.3 		"/>
		<path fill="#465C6F" d="M130.7,49.4c-1.2-0.8-2.9-1.1-5-1.1h-10.4v17h3.7v-6.1h0v-0.8h6.6c2.1,0,3.8-0.4,5-1.1
			c1.2-0.8,1.8-2.1,1.8-3.9C132.5,51.4,131.9,50.1,130.7,49.4z M128,54.9c-0.5,0.3-1.1,0.4-1.9,0.4h-7v-4.1h7c0.7,0,1.3,0.1,1.9,0.4
			c0.5,0.3,0.8,0.8,0.8,1.6C128.8,54.1,128.5,54.6,128,54.9z"/>
		<path fill="#465C6F" d="M150.2,49.4c-1.2-0.8-2.9-1.1-5-1.1h-10.4v17h3.7v-6.1h0v-0.8h6.6c2.1,0,3.8-0.4,5-1.1
			c1.2-0.8,1.8-2.1,1.8-3.9C152,51.4,151.4,50.1,150.2,49.4z M147.5,54.9c-0.5,0.3-1.1,0.4-1.9,0.4h-7v-4.1h7c0.7,0,1.3,0.1,1.9,0.4
			c0.5,0.3,0.8,0.8,0.8,1.6C148.2,54.1,148,54.6,147.5,54.9z"/>
		<polygon fill="#465C6F" points="155.3,48.2 158.6,48.2 158.6,61.9 170.7,61.9 170.7,65.3 155.3,65.3 		"/>
		<polygon fill="#465C6F" points="72.4,48.2 76.2,48.2 86.9,59.8 86.9,48.2 90.3,48.2 90.3,65.3 87,65.3 75.7,53 75.7,65.3 
			72.3,65.3 		"/>
		<path fill="#465C6F" d="M104.9,48.2h-4.2l-8.1,17.1h3.8l1.8-3.8h9.1l1.6,3.8l4,0L104.9,48.2z M102.8,58.6l-3.4,0l1.7-3.7l1.7-3.7
			l1.7,3.7l1.7,3.7L102.8,58.6z"/>
		<polygon fill="#465C6F" points="90.7,45.7 90.7,45.7 90.7,45.7 90.7,45.7 90.7,45.7 90.7,45.7 		"/>
		<path fill="#465C6F" d="M68,57.8c-0.7-0.7-1.5-1.2-2.5-1.5c-1-0.3-2.1-0.6-3.2-0.7c-1.2-0.1-2.2-0.3-3.2-0.4
			c-1-0.1-1.8-0.3-2.5-0.6c-0.7-0.3-1-0.7-1-1.3c0-0.4,0.1-0.7,0.3-0.9c0.2-0.3,0.5-0.5,0.9-0.6c0.4-0.2,0.8-0.3,1.3-0.3
			c0.5-0.1,1-0.1,1.5-0.1c1.4,0,3.5,0.3,3.8,0.5c0.3,0.2,1,0.6,1.2,1l0.8,1.1l3.3-0.8c-0.2-0.9-0.9-1.7-1.7-2.5c0,0,0,0,0,0
			c-0.4-0.3-0.8-0.7-1.4-1c-0.7-0.4-1.5-0.8-2.4-1c-0.9-0.2-2-0.3-3.2-0.3c-2.6,0-4.6,0.5-6,1.5c-0.6,0.4-1.1,1-1.4,1.5
			c-0.5,0.7-0.8,1.4-0.8,2.2c0,0.4,0.1,0.8,0.2,1.1c0.1,0.8,0.4,1.4,0.9,1.9c0.7,0.6,1.5,1.1,2.5,1.4c1,0.3,2.1,0.6,3.2,0.7
			c1.2,0.1,2.2,0.3,3.2,0.4c1,0.1,1.8,0.4,2.5,0.6c0.7,0.3,1,0.7,1,1.3c0,0.3-0.1,0.6-0.2,0.8c-0.8,0.8-2.6,1.4-4.6,1.4
			c-2.4,0-4.3-0.8-4.9-1.8l-0.8-1.2l-3.3,1.2c0.7,2.6,4.4,4.6,8.8,4.6c2.6,0,4.4-0.3,5.8-0.9c0.3-0.1,0.7-0.3,1-0.5
			c0.1,0,0.1-0.1,0.2-0.1c0.1-0.1,0.2-0.2,0.3-0.3c0.3-0.3,0.6-0.6,0.8-0.9c0.6-0.8,0.9-1.7,0.9-2.9C68.9,59.4,68.6,58.5,68,57.8z"
			/>
		<path fill="#465C6F" d="M221.1,48.6c-0.4-0.3-0.9-0.4-1.5-0.4h-3.2v5.6h1.1v-2l0,0v-0.3h2c0.6,0,1.2-0.1,1.5-0.4
			c0.4-0.3,0.6-0.7,0.6-1.3C221.6,49.3,221.4,48.8,221.1,48.6z M220.2,50.4c-0.2,0.1-0.3,0.1-0.6,0.1h-2.1v-1.4h2.1
			c0.2,0,0.4,0,0.6,0.1c0.2,0.1,0.2,0.3,0.2,0.5C220.5,50.1,220.4,50.3,220.2,50.4z"/>
		<path fill="#465C6F" d="M202.8,53.4l-1.4-2c0.5-0.1,0.8-0.3,1.1-0.5c0.3-0.2,0.4-0.6,0.4-1.1c0-0.3-0.1-0.6-0.2-0.8
			c-0.1-0.2-0.3-0.4-0.4-0.5c-0.2-0.1-0.4-0.2-0.7-0.3c-0.3-0.1-0.6-0.1-0.9-0.1h-3.2v5.6h1.2v-0.9l0,0v-1.4h1.5l0.8,1.2l0,0
			l0.7,1.1h1.3L202.8,53.4C202.8,53.4,202.8,53.4,202.8,53.4z M200.4,50.7h-1.8v-1.6h1.8c0.2,0,0.5,0,0.6,0.1c0.2,0,0.3,0.1,0.4,0.2
			c0.1,0.1,0.2,0.2,0.2,0.2c0,0.1,0.1,0.2,0.1,0.3c0,0.1,0,0.2-0.1,0.3c0,0.1-0.1,0.2-0.2,0.2c-0.1,0.1-0.2,0.1-0.4,0.2
			C200.9,50.7,200.7,50.7,200.4,50.7z"/>
		<path fill="#465C6F" d="M207.4,48.4c0.4,0.1,0.7,0.3,1,0.5c0.3,0.2,0.5,0.5,0.7,0.9c0.2,0.4,0.2,0.8,0.2,1.3s-0.1,0.9-0.2,1.3
			c-0.2,0.4-0.4,0.7-0.7,0.9c-0.3,0.2-0.6,0.4-1,0.5c-0.4,0.1-0.8,0.2-1.2,0.2c-0.4,0-0.8-0.1-1.2-0.2c-0.4-0.1-0.7-0.3-1-0.5
			c-0.3-0.2-0.5-0.5-0.7-0.9c-0.2-0.4-0.2-0.8-0.2-1.3s0.1-0.9,0.2-1.3c0.2-0.4,0.4-0.7,0.7-0.9c0.3-0.2,0.6-0.4,1-0.5
			c0.4-0.1,0.8-0.2,1.2-0.2C206.6,48.2,207,48.3,207.4,48.4z M205.5,49.3c-0.2,0.1-0.4,0.2-0.6,0.4c-0.2,0.2-0.3,0.4-0.4,0.6
			c-0.1,0.2-0.2,0.5-0.2,0.8s0.1,0.6,0.2,0.8c0.1,0.2,0.3,0.4,0.4,0.6c0.2,0.2,0.4,0.3,0.6,0.4c0.2,0.1,0.5,0.1,0.7,0.1
			c0.2,0,0.5,0,0.7-0.1c0.2-0.1,0.4-0.2,0.6-0.4c0.2-0.2,0.3-0.4,0.4-0.6c0.1-0.2,0.2-0.5,0.2-0.8s-0.1-0.6-0.2-0.8
			c-0.1-0.2-0.3-0.4-0.4-0.6c-0.2-0.2-0.4-0.3-0.6-0.4c-0.2-0.1-0.5-0.1-0.7-0.1C205.9,49.2,205.7,49.2,205.5,49.3z"/>
		<path fill="#465C6F" d="M214.3,48.2v0.9h0v2.4c0,0.4-0.1,0.7-0.4,1c-0.3,0.2-0.7,0.4-1.2,0.4c-0.5,0-1-0.1-1.2-0.4
			c-0.3-0.2-0.4-0.6-0.4-1v-2.9c0,0,0,0,0,0v-0.4H210v0.4c0,0,0,0,0,0v3.2c0,0.3,0.1,0.5,0.2,0.7c0.1,0.2,0.3,0.5,0.5,0.6
			c0.2,0.2,0.5,0.3,0.8,0.4c0.3,0.1,0.7,0.2,1.2,0.2c0.5,0,0.9-0.1,1.2-0.2c0.3-0.1,0.6-0.2,0.8-0.4c0.2-0.2,0.4-0.4,0.5-0.6
			c0.1-0.2,0.2-0.5,0.2-0.7v-3.2c0,0,0,0,0,0v-0.4H214.3z"/>
		<path fill="#465C6F" d="M194.6,50.9h-0.3h-0.6v0.8h0.6v0h1.1v0.8c-0.2,0.1-0.5,0.2-0.8,0.3c-0.3,0-0.6,0.1-0.9,0.1
			c-0.2,0-0.4,0-0.7-0.1c-0.2-0.1-0.4-0.2-0.6-0.3c-0.2-0.1-0.3-0.3-0.5-0.6s-0.2-0.5-0.2-0.9c0-0.3,0.1-0.6,0.2-0.9
			c0.1-0.2,0.3-0.4,0.4-0.6c0.2-0.2,0.4-0.3,0.6-0.3c0.2-0.1,0.5-0.1,0.8-0.1c0.2,0,0.4,0,0.6,0.1c0.2,0,0.4,0.1,0.5,0.2
			c0.2,0.1,0.3,0.2,0.4,0.2c0.1,0.1,0.2,0.4,0.2,0.4h0.8c0,0,0.1-0.8-0.6-1.3c0,0-0.3-0.2-0.5-0.2c-0.2-0.1-0.4-0.1-0.6-0.2
			c-0.2-0.1-0.5-0.1-0.8-0.1c-0.5,0-0.9,0.1-1.3,0.2c-0.4,0.1-0.7,0.3-1,0.6c-0.3,0.2-0.5,0.5-0.6,0.9c-0.1,0.3-0.2,0.7-0.2,1.2
			c0,0.4,0.1,0.8,0.2,1.2c0.1,0.3,0.3,0.6,0.6,0.9c0.3,0.2,0.6,0.4,1,0.5c0.4,0.1,0.8,0.2,1.3,0.2c0.4,0,0.7,0,1-0.1
			c0.2,0,0.4-0.1,0.6-0.2v0.5h0.8v-0.8V52v-1.1H194.6z"/>
	</g>
</g>
</svg>
