<?xml version="1.0" encoding="utf-8"?>
<!-- Generator: Adobe Illustrator 17.1.0, SVG Export Plug-In . SVG Version: 6.00 Build 0)  -->
<!DOCTYPE svg PUBLIC "-//W3C//DTD SVG 1.1//EN" "http://www.w3.org/Graphics/SVG/1.1/DTD/svg11.dtd">
<svg version="1.1" xmlns="http://www.w3.org/2000/svg" xmlns:xlink="http://www.w3.org/1999/xlink" x="0px" y="0px"
	 viewBox="0 0 185 185" enable-background="new 0 0 185 185" xml:space="preserve">
<g id="background_circle">
	<circle opacity="0.23" fill="#FFFFFF" cx="92.5" cy="92.5" r="87.5"/>
</g>
<g id="london">
	<g>
		<defs>
			<circle id="SVGID_1_" cx="92.5" cy="92.5" r="87.5"/>
		</defs>
		<clipPath id="SVGID_2_">
			<use xlink:href="#SVGID_1_"  overflow="visible"/>
		</clipPath>
		<path clip-path="url(#SVGID_2_)" fill-rule="evenodd" clip-rule="evenodd" fill="#FFFFFF" d="M103.2,90.4H82l-1.9-3.6v-1.4h24.8
			v1.8L103.2,90.4z M80.1,68.6l0.5-1h23.9l0.4,0.9v16.2H80.1V68.6z M92.3,83.8c4.2,0,7.5-3.4,7.5-7.6c0-4.2-3.4-7.6-7.5-7.6
			c-4.2,0-7.5,3.4-7.5,7.6C84.8,80.4,88.1,83.8,92.3,83.8z M92.2,70.3l0-1.4h0.1l0,1.4c3.3,0,5.9,2.7,5.9,6c0,3.3-2.7,6-5.9,6
			c-3.3,0-5.9-2.7-5.9-6C86.4,73,89,70.4,92.2,70.3z M92.3,81.8c3.1,0,5.5-2.5,5.5-5.6c0-3-2.5-5.5-5.5-5.6l0.2,5.1
			c0.2,0.1,0.3,0.3,0.3,0.5c0,0.1,0,0.2,0,0.2l1.4,1.3c0,0,0,0,0.1-0.1c0.1-0.1,0.3,0,0.4,0.2c0.1,0.2-0.1,0.3,0.1,0.5
			c-0.3-0.1-0.3,0-0.6,0c-0.2,0-0.4-0.3-0.2-0.4C94,78,94,78,94,78l-1.4-1.3c-0.1,0.1-0.2,0.1-0.3,0.1c-0.3,0-0.5-0.2-0.5-0.5
			c0-0.2,0.1-0.4,0.3-0.5l0.1-5.1c-3,0.1-5.4,2.5-5.4,5.6C86.8,79.3,89.3,81.8,92.3,81.8z M82,64.9v-3.6h21.2v3.6l0.9,2H81L82,64.9z
			 M87.1,49.8h10.4l5.7,10.4H82L87.1,49.8z M87.1,38.8h10.4v10.2H87.1V38.8z M92.6,13.3c-0.3,0-0.5-0.3-0.5-0.5
			c0-0.3,0.2-0.5,0.5-0.5V9.9h0.1v2.3c0.3,0,0.5,0.3,0.5,0.5C93.2,13,92.9,13.3,92.6,13.3c0.4,3,2.3,20.7,4.8,24.7H87.3
			C89.6,33.9,92.2,16.2,92.6,13.3z M97.4,38L97.4,38C97.4,38,97.4,38,97.4,38L97.4,38z M103.2,108.3H82V91.7h21.2V108.3z
			 M103.2,111.8H82V109h21.2V111.8z M103.2,125.7H82v-13.1h21.2V125.7z M103.2,129.2H82v-2.8h21.2V129.2z M103.2,143.5H82v-13.7
			h21.2V143.5z M103.2,147H82v-2.8h21.2V147z M103.2,162H82v-14.3h21.2V162z M103.2,165.5H82v-2.8h21.2V165.5z M103.2,179.9H82
			v-13.7h21.2V179.9z"/>
	</g>
</g>
</svg>
