<?xml version="1.0" encoding="utf-8"?>
<!-- Generator: Adobe Illustrator 17.1.0, SVG Export Plug-In . SVG Version: 6.00 Build 0)  -->
<!DOCTYPE svg PUBLIC "-//W3C//DTD SVG 1.1//EN" "http://www.w3.org/Graphics/SVG/1.1/DTD/svg11.dtd">
<svg version="1.1" xmlns="http://www.w3.org/2000/svg" xmlns:xlink="http://www.w3.org/1999/xlink" x="0px" y="0px"
	 viewBox="0 0 185 185" enable-background="new 0 0 185 185" xml:space="preserve">
<g id="background_circle">
	<circle opacity="0.23" fill="#FFFFFF" cx="92.5" cy="92.5" r="87.5"/>
</g>
<g id="newyork">
	<g>
		<defs>
			<circle id="SVGID_1_" cx="92.5" cy="92.5" r="87.5"/>
		</defs>
		<clipPath id="SVGID_2_">
			<use xlink:href="#SVGID_1_"  overflow="visible"/>
		</clipPath>
		<path clip-path="url(#SVGID_2_)" fill="#FFFFFF" d="M115.2,84.5l-6-4.5l-4.4,6.2c-0.4-2.1-0.7-3.6-0.8-3.9
			c-0.4-0.8-2.3-2.8-2.3-3.2c-0.4-2.4-0.1-5.3-2.8-6.4c-1.8-1-2.3-1.9-2.8-3.7c0,0,1.4-1.4,0.9-2.7c-0.5-1.4-1.4-1.4-1.4-3.6v-1.3
			l6.3-0.5l-6.3-1.3c0-0.2-0.1-0.4-0.1-0.6l5.3-3.7l-6.1,1.9c-0.2-0.2-0.3-0.4-0.5-0.7l3.1-5.2l-5,4.2c-0.5-0.2-0.8-0.2-1.4-0.2
			L90,49.4l-1,5.9c-0.5,0.1-0.9,0.2-1.3,0.4l-5-4.5l3.5,5.8c0,0.1-0.1,0.1-0.1,0.2L80,56.4c0-3-1.6-14.2-2.8-16.9l-0.3-1.1l0.9-3.4
			h1.3v-4.5h-2l0-1.9c2.1-1-0.1-9.1-0.1-9.1c-0.4,1.8-0.5,2.3-0.5,2.3c-0.6-1.6,0.1-3,0.1-3c-1.8,1.6-1.8,2.8-1.9,2.9
			c0.2-0.4,0-3.4,0-3.4c-0.5,1.1-3.3,5.7-3.6,7.4c-0.4,1.9,0.8,2.8,0.9,2.8l0,1.8h-1.6v4.5h1.3l1,3.4c-0.4,1.3-0.1,3,0.7,3.9
			c0.6,0.7,0.4,3.5,0.5,4.5c0.3,2.5,0.1,3.7,0.6,6.2c0.3,1.4,1.6,4.1,1.6,5.5l-0.6,3.1c0,0,0-0.1,0-0.1c-0.8,1-2.6,4.2-1.2,8.9
			c0,0-0.8,1.4,0.4,2.2c0,0-0.6,2.6,2.2,4.2c1.2,0.7,0.8,2.9,0.5,5c-0.3,1.5,0.8,3.4,1.4,4.4c-0.2,0.5-4,10.6-0.5,14.1
			c-0.2,0.7-4.8,7.4,0.6,9.7l0.1,22.1c0,0,1.6,1.1,1.1,3.6c-0.1,0.1-2,0.3-2,2.1c0,1.3,2.2,2.2,1.9,3.4c-0.4,1.2-3.9,2.8-3.9,3.3
			l0,2.8h-1.3v4.3h-1.5v4.3h1.5v6.7l-2.1,5.4v8.2h-2.8v4.3h43.1V176H110v-8.2l-2.1-5.4v-6.7h1.6v-4.3h-1.6v-4.3h-2
			c-0.5-1.3-2.6-6.8-2.8-12.5c0,0,2.4-1.2,2.7-3.3c1.4-8.5-0.4-26.4-0.4-26.5c0.4-0.4,0.3-1,1.5-1.2c1-0.2,2.3-0.7,2.7-3.4
			c0.4-2.8,0-4.6,0-4.6s1.3,0.1,1.9-0.7c0.7-0.8,2.5-4,2.5-4s0.6-1.7-1.1-3.2L115.2,84.5z M80,56.4l5.4,2.8c0,0.2-0.1,0.4-0.1,0.6
			l-3.9,0.6c0,0-0.1-0.1-0.1-0.1c-0.4-0.5-1.3-2-1.3-2.7V56.4z M82.4,158.1h-5.6v-2.3h5.6V158.1z M82.9,65.5
			c-0.1-0.3-0.4-1.3-0.4-1.4c0.2-0.6,0.5-2.1-0.4-3.2l3.2,0.4v0.1c0,0,0.4,4.1-0.8,4.8L82.9,65.5z M90.2,158.1h-5.6v-2.3h5.6V158.1z
			 M97.9,158.1h-5.6v-2.3h5.6V158.1z M105.7,155.7v2.3h-5.6v-2.3H105.7z"/>
	</g>
</g>
</svg>
