<?xml version="1.0" encoding="utf-8"?>
<!-- Generator: Adobe Illustrator 17.1.0, SVG Export Plug-In . SVG Version: 6.00 Build 0)  -->
<!DOCTYPE svg PUBLIC "-//W3C//DTD SVG 1.1//EN" "http://www.w3.org/Graphics/SVG/1.1/DTD/svg11.dtd">
<svg version="1.1" xmlns="http://www.w3.org/2000/svg" xmlns:xlink="http://www.w3.org/1999/xlink" x="0px" y="0px"
	 viewBox="0 0 185 185" enable-background="new 0 0 185 185" xml:space="preserve">
<g id="background_circle">
	<circle opacity="0.23" fill="#FFFFFF" cx="92.5" cy="92.5" r="87.5"/>
</g>
<g id="sanfransisco">
	<g>
		<defs>
			<circle id="SVGID_1_" cx="92.5" cy="92.5" r="87.5"/>
		</defs>
		<clipPath id="SVGID_2_">
			<use xlink:href="#SVGID_1_"  overflow="visible"/>
		</clipPath>
		<path clip-path="url(#SVGID_2_)" fill="#FFFFFF" d="M74,46.7 M70,49.6 M151.5,151.7v7.6 M123.6,134.3v0.6 M163,113.2v29.9v3.7
			v17.3h-2v-1.9l-4.8-5.3l-4.8,5.3v1.9h-2v-15.2c-3.5-1.5-7-2.9-10.6-4.3c-9.3-3.5-18.7-6.4-28.3-8.7c-9.6-2.3-19.2-4-28.9-5
			c-1.3-0.1-2.6-0.2-3.9-0.3v50H74v-20.1l-9.5-10.6l-9.5,10.6v20.1H51v-49.9c-1,0.1-2.1,0.2-3.1,0.3c-9.7,0.9-19.3,2.6-28.9,5
			c-2.2,0.5-11.8,2.5-14,3.1l5.1-5.2c1.7-0.6,5.8-2.6,7.5-3.2c0.1,0,0.1,0,0.2-0.1v-6.9C16,125.3,6.8,132.1,5,133.8l7.5-7
			c1.8-1.7,3.5-3.3,5.2-5v-15.8c-1.6,2.3-3.2,4.6-4.8,6.9c-0.1,0.2-7.7,6.9-7.9,7.1l7.5-8.9C22.3,97.4,29.7,83.9,35,72.7
			c10.5-22.1,15.1-40,15.9-43.1v-0.3v-2.9h3.9v2.9H74v-2.9h3.9v2.2c0.3,0,0.6,0.2,0.6,0.5c0,0.2,4.5,19.3,16,43.6
			c8.3,17.4,21.5,40.3,41.1,60.4c7.7-6.9,11.9-20.7,13.9-29.7v-2.5v-4.2v-1.5h1.5c0,0,0-0.1,0-0.1l0.4,0.1l0,0l0,0l0.4,0.1
			c0,0-0.1,0.5-0.2,1.4h9.3v-1.5h2l0.4,0C163.4,95.2,164,103.3,163,113.2z M26.3,114.7c-2.3,2.6-4.8,5.1-7.3,7.6v7.8
			c2.4-0.8,4.9-1.6,7.3-2.3V114.7z M26.3,92.1c-2.4,4.1-4.8,8-7.3,11.8v16.5c2.5-2.6,5-5.1,7.3-7.7V92.1z M33.6,106.3
			c-1.9,2.3-3.9,4.6-6,6.9v14.2c2-0.6,4-1.1,6-1.6V106.3z M33.6,78.6c-1.9,3.8-3.9,7.5-6,11.2v21.4c2.1-2.3,4-4.6,6-7V78.6z
			 M39.3,99.3c-1.4,1.8-2.9,3.6-4.4,5.4v20.7c1.4-0.4,2.9-0.7,4.4-1.1V99.3z M39.3,66.5c-1,2.2-2,4.4-3.1,6.7
			c-0.4,0.9-0.9,1.8-1.3,2.7v26.7c1.5-1.9,3-3.7,4.4-5.5V66.5z M44.3,92.7c-1.2,1.6-2.4,3.2-3.6,4.9V124c1.2-0.3,2.4-0.5,3.6-0.8
			V92.7z M44.3,54.5c-1.1,2.8-2.3,5.8-3.6,9v31.9c1.2-1.7,2.5-3.3,3.6-4.9V54.5z M48.7,86.4c-1,1.5-2.1,3-3.1,4.5V123
			c0.4-0.1,0.8-0.2,1.2-0.2c0.6-0.1,1.3-0.2,1.9-0.4V86.4z M48.7,41.9c-0.9,2.7-1.9,5.7-3.1,9v37.6c1.1-1.5,2.1-3,3.1-4.5V41.9z
			 M51,83.1c-0.3,0.4-0.6,0.9-0.9,1.4v37.8c0.3-0.1,0.6-0.1,0.9-0.1V83.1z M51,34.7c-0.3,0.9-0.6,1.9-0.9,3.1V82
			c0.3-0.5,0.6-0.9,0.9-1.4v-43V34.7z M54.9,46.7c0,1.6,1.3,2.9,2.8,2.9h1.9c-1.9-4-3.5-7.6-4.8-10.5V46.7z M54.9,67.1
			c0,1.6,1.2,2.8,2.7,2.9c0.5-0.8,0.9-1.5,1.3-2.3c1.9-3.2,3.6-6.4,5.2-9.3c-0.9-1.8-1.8-3.6-2.7-5.2h-3.7c-1.6,0-2.8,1.3-2.8,2.9
			V67.1z M64.8,57c0.7-1.3,1.3-2.6,1.9-3.8h-3.9C63.5,54.4,64.1,55.7,64.8,57z M64.8,59.9c-1.5,2.8-3.1,5.6-4.8,8.6
			c-0.3,0.5-0.6,1-0.9,1.6h11.4c-0.3-0.5-0.6-1.1-0.9-1.6C67.9,65.5,66.3,62.6,64.8,59.9z M61.7,146.9l-6.9-7.6v15.2L61.7,146.9z
			 M74,139.3l-6.9,7.6l6.9,7.6V139.3z M74,131c-0.2,0-0.5,0-0.7,0c-0.6,0-1.3-0.1-2-0.1l-1.9-0.2c-1.5-0.1-3-0.2-4.6-0.3
			c-1.5,0.1-3.1,0.1-4.6,0.3l-1.9,0.2c-0.7,0.1-1.3,0.1-2,0.1c-0.5,0-1,0.1-1.5,0.1v2.4l9.5,10.6l9.5-10.6V131z M74,100.2
			c0-3.1-1.3-5.6-2.8-5.6H57.7c-1.6,0-2.8,2.5-2.8,5.6v20c0.5,0,1,0,1.4,0.1c0.6,0,1.2,0.1,1.7,0.1c0.5,0,1.1,0,1.8,0
			c1.7,0,3.3,0.1,5,0.2c1.6-0.1,3.3-0.1,5-0.2c0.7,0,1.3,0,1.8,0c0.6,0,1.1,0,1.7-0.1c0.2,0,0.4,0,0.7,0V100.2z M74,77.2
			c0-1.6-1.3-2.9-2.8-2.9H57.7c-0.5,0-0.9,0.1-1.3,0.3c-0.5,0.8-1,1.6-1.5,2.4c0,0.1,0,0.1,0,0.2v11c0,1.6,1.3,2.9,2.8,2.9h13.4
			c1.6,0,2.8-1.3,2.8-2.9V77.2z M74,56.1c0-1.6-1.3-2.9-2.8-2.9h-2.9c-0.8,1.7-1.7,3.4-2.7,5.2c1.6,3,3.3,6.1,5.2,9.4
			c0.4,0.7,0.8,1.4,1.2,2.1c1.2-0.4,2-1.5,2-2.8V56.1z M74,40.9c-1.1,2.6-2.4,5.5-4,8.7h1.2c1.6,0,2.8-1.3,2.8-2.9V40.9z M74,35.7
			c0-1.6-1.3-2.9-2.8-2.9H57.7c-1.5,0-2.8,1.3-2.8,2.8c1.4,3.5,3.5,8.3,6.2,14h7.4c2.3-4.7,4.1-8.9,5.5-12.2V35.7z M79.5,84.4
			c-0.6-0.8-1.1-1.7-1.7-2.5v40c0.6,0.1,1.1,0.2,1.7,0.3V84.4z M79.5,37.7c-0.7-2.4-1.3-4.4-1.7-5.8v5.7v41.8
			c0.5,0.8,1.1,1.7,1.7,2.6V37.7z M84,90.9c-1.1-1.5-2.1-3-3.1-4.5v36c0.6,0.1,1.3,0.2,1.9,0.4c0.4,0.1,0.8,0.2,1.2,0.2V90.9z
			 M84,51c-1.2-3.3-2.3-6.4-3.1-9V84c1,1.5,2.1,3,3.1,4.5V51z M89,97.6c-1.2-1.6-2.5-3.3-3.6-4.9v30.6c1.2,0.2,2.4,0.5,3.6,0.8V97.6
			z M89,63.5c-1.3-3.1-2.5-6.1-3.6-9v35.9c1.2,1.6,2.4,3.3,3.6,4.9V63.5z M94.6,104.7c-1.5-1.8-3-3.6-4.4-5.4v25.1
			c1.5,0.3,2.9,0.7,4.4,1.1V104.7z M94.6,75.9c-0.4-0.9-0.9-1.8-1.3-2.7c-1.1-2.3-2.1-4.5-3.1-6.7v30.6c1.4,1.8,2.9,3.7,4.4,5.5
			V75.9z M101.9,113.2c-2.1-2.3-4-4.6-6-6.9v19.4c2,0.5,4,1.1,6,1.6V113.2z M101.9,89.8c-2.1-3.6-4-7.4-6-11.2v25.6
			c1.9,2.3,3.9,4.6,6,7V89.8z M110.6,122.3c-2.5-2.5-5-5.1-7.3-7.6v13.1c2.5,0.7,4.9,1.5,7.3,2.3V122.3z M110.6,103.9
			c-2.5-3.8-5-7.8-7.3-11.8v20.6c2.3,2.6,4.8,5.2,7.3,7.7V103.9z M145.2,142.2c0.6,0.5,1.1,1,1.7,1.5v-27.8c-0.5,1.5-1.1,3-1.7,4.3
			V142.2z M122.2,133.2c-3.6-3.1-7-6.3-10.3-9.5v6.9c0.1,0,0.1,0,0.2,0.1c3.4,1.2,6.8,2.4,10.2,3.7V133.2z M122.2,119.9
			c-1.9-2.3-3.7-4.7-5.5-7.2c-1.6-2.2-3.3-4.5-4.8-6.9v15.8c3.3,3.3,6.7,6.5,10.3,9.6V119.9z M124.9,135.4c-0.4-0.4-0.9-0.7-1.3-1.1
			v0.6C124,135,124.4,135.2,124.9,135.4z M129.2,137.2l-0.1-0.4c2-0.5,3.8-1.5,5.5-2.8c-3.8-3.9-7.5-8-11-12.4v10.9
			C125.4,134.1,127.3,135.7,129.2,137.2z M136.4,135.8c-0.4-0.4-0.8-0.8-1.2-1.2c-1.7,1.3-3.5,2.3-5.4,2.9c2.2,0.9,4.4,1.9,6.5,2.9
			V135.8z M136.4,133.6c0,0-0.1,0.1-0.1,0.1c0,0,0.1,0.1,0.1,0.1V133.6z M140.9,140.1c-1.2-1.1-2.4-2.3-3.6-3.5v4h-0.4
			c1,0.5,2.1,1,3.1,1.5c0.3,0.2,0.6,0.3,1,0.5V140.1z M140.9,128.3c-1.1,1.7-2.4,3.2-3.6,4.5v2c1.2,1.2,2.4,2.4,3.6,3.5V128.3z
			 M144.3,143.2c-0.9-0.8-1.7-1.5-2.6-2.3v2.1c0.9,0.4,1.7,0.8,2.6,1.3V143.2z M144.3,122.2c-0.8,1.7-1.7,3.3-2.6,4.8v12.1
			c0.8,0.8,1.7,1.6,2.6,2.3V122.2z M147.4,145.8c-0.7-0.6-1.4-1.2-2.2-1.9v0.7C145.9,145.1,146.6,145.5,147.4,145.8z M149.5,107.3
			c-0.5,1.9-1.1,4-1.7,6.1v31.1c0.5,0.4,1,0.8,1.5,1.3c0.1-0.1,0.2-0.1,0.2-0.2v-2.3V107.3z M151.5,126.1c0,0.8,0.6,1.5,1.4,1.5h6.5
			c0.7-2.3,1.2-4.7,1.6-7c0-0.8-0.6-1.4-1.4-1.4h-6.7c-0.8,0-1.4,0.7-1.4,1.5V126.1z M151.5,143.2h0.2c3.2-3.8,5.5-8.7,7.2-13.8h-6
			c-0.8,0-1.4,1.2-1.4,2.8v10.5C151.5,142.8,151.5,143,151.5,143.2z M158.4,143.2v-9.9c-0.7,1.8-1.6,3.6-2.5,5.3v4.6H158.4z
			 M155.9,146.9v3.5h-0.3c1,0.6,1.8,1,2.5,1.5l0.3-0.3v-4.7H155.9z M155.1,143.2v-3.1c-0.7,1.1-1.4,2.1-2.2,3.1H155.1z M151.5,146.9
			v0.6c0.8,0.7,1.7,1.3,2.5,2c0,0,0.1,0.1,0.1,0.1c0.3,0.2,0.6,0.4,0.9,0.5v-3.2H151.5z M154.9,155.5l-3.4-3.8v7.6L154.9,155.5z
			 M156.2,154l1.4-1.6c-1.1-0.5-2.3-0.9-4.1-1.8c-0.1,0-0.2,0-0.3-0.1c0,0-0.1,0-0.1-0.1 M161,154c-0.5-0.3-1-0.5-1.4-0.7l-2,2.2
			l3.4,3.8V154z M161,151.7l-1.2,1.3c0.4,0.2,0.7,0.5,1.2,0.8V151.7z M161,146.9h-1.7v3.7l1.7-1.9V146.9z M161,132.1
			c0-1.4-0.5-2.6-1.2-2.7c-0.2,0.5-0.3,1-0.5,1.5v12.3h1.7c0-0.2,0-0.4,0-0.6V132.1z M161,125c-0.2,0.8-0.4,1.6-0.6,2.3
			c0.4-0.3,0.6-0.7,0.6-1.2V125z M161,110.1c0-0.8-0.6-1.5-1.4-1.5h-6.7c-0.8,0-1.4,0.7-1.4,1.5v5.5c0,0.8,0.6,1.5,1.4,1.5h6.7
			c0.8,0,1.4-0.7,1.4-1.5V110.1z M161,99.9c0-0.8-0.6-1.5-1.4-1.5h-6.7c-0.8,0-1.4,0.7-1.4,1.5v1h0v4.5c0,0.8,0.6,1.5,1.4,1.5h6.7
			c0.8,0,1.4-0.7,1.4-1.5v-4.5V99.9z"/>
	</g>
</g>
</svg>
