<?xml version="1.0" encoding="utf-8"?>
<!-- Generator: Adobe Illustrator 17.1.0, SVG Export Plug-In . SVG Version: 6.00 Build 0)  -->
<!DOCTYPE svg PUBLIC "-//W3C//DTD SVG 1.1//EN" "http://www.w3.org/Graphics/SVG/1.1/DTD/svg11.dtd">
<svg version="1.1" id="chicago" xmlns="http://www.w3.org/2000/svg" xmlns:xlink="http://www.w3.org/1999/xlink" x="0px" y="0px"
	 viewBox="0 0 185 185" enable-background="new 0 0 185 185" xml:space="preserve">
<g>
	<defs>
		<circle id="SVGID_1_" cx="92.5" cy="92.5" r="87.5"/>
	</defs>
	<clipPath id="SVGID_2_">
		<use xlink:href="#SVGID_1_"  overflow="visible"/>
	</clipPath>
	<path clip-path="url(#SVGID_2_)" fill="#FFFFFF" d="M104.3,96.8V65.2h-6.1V40.9h-1v-7h-0.4v5.2H95v-7.2h-0.4l-0.2-14.7H94
		l-0.2,14.7h-0.4v7.7h-0.3v-5.5h-0.4v5.5h-8.1v-8.1h-0.4l-0.2-14.7h-0.5l-0.2,14.7H83v9.3h-1v-7.6h-0.4v7.6h-0.3v-1.8h-0.5v1.8h-0.4
		v24.3h-1v31.6H76V169h0.3v11h32.6v-11h0.2V96.8H104.3z M95,39.4h1.8v1.6H95V39.4z"/>
</g>
</svg>
