<?xml version="1.0" encoding="utf-8"?>
<!-- Generator: Adobe Illustrator 17.1.0, SVG Export Plug-In . SVG Version: 6.00 Build 0)  -->
<!DOCTYPE svg PUBLIC "-//W3C//DTD SVG 1.1//EN" "http://www.w3.org/Graphics/SVG/1.1/DTD/svg11.dtd">
<svg version="1.1" id="amsterdam_1_" xmlns="http://www.w3.org/2000/svg" xmlns:xlink="http://www.w3.org/1999/xlink" x="0px"
	 y="0px" viewBox="0 0 185 185" enable-background="new 0 0 185 185" xml:space="preserve">
<g>
	<defs>
		<circle id="SVGID_1_" cx="92.5" cy="92.5" r="87.5"/>
	</defs>
	<clipPath id="SVGID_2_">
		<use xlink:href="#SVGID_1_"  overflow="visible"/>
	</clipPath>
	<path clip-path="url(#SVGID_2_)" fill="#FFFFFF" d="M110.3,106.1l-0.7-5.3h2.5v-2.1h5.2v-4.7l-14.4-11.7l1.6-1.6l4.4,4.4L147,47
		l-5.2-5.2l0,0l-1.2-1.2l-40.1,39.8l-7.2-5.8l-8.2,6.6l-2.6-2.6l4.4-4.4l-38.3-38l-5.2,5.2l0,0l-1.2,1.2l40.7,40.4L69.7,93.9v4.7
		h3.7L38,133.9l5.2,5.1l0,0l1.2,1.2l32-31.8l-9.1,68.5H63v3.7h60.9v-3.7h-4.3l-7.4-56.2l24,23.9l5.2-5.2l0,0l1.2-1.2L110.3,106.1z
		 M93.5,120.3c1.9,0,3.4,1.5,3.4,3.3v6.9h-6.8v-6.9h0C90.1,121.8,91.6,120.3,93.5,120.3z M97.3,130.7v0.7h-7.6v-0.7H97.3z
		 M88.5,176.9v-13.2h10v13.2H88.5z"/>
</g>
</svg>
