<?xml version="1.0" encoding="utf-8"?>
<!-- Generator: Adobe Illustrator 17.1.0, SVG Export Plug-In . SVG Version: 6.00 Build 0)  -->
<!DOCTYPE svg PUBLIC "-//W3C//DTD SVG 1.1//EN" "http://www.w3.org/Graphics/SVG/1.1/DTD/svg11.dtd">
<svg version="1.1" id="hongkong" xmlns="http://www.w3.org/2000/svg" xmlns:xlink="http://www.w3.org/1999/xlink" x="0px" y="0px"
	 viewBox="0 0 185 185" enable-background="new 0 0 185 185" xml:space="preserve">
<g>
	<defs>
		<circle id="SVGID_1_" cx="92.5" cy="92.5" r="87.5"/>
	</defs>
	<clipPath id="SVGID_2_">
		<use xlink:href="#SVGID_1_"  overflow="visible"/>
	</clipPath>
	<path clip-path="url(#SVGID_2_)" fill="#FFFFFF" d="M86.9,32.3c-0.3,0.1-0.9,0.3-1.5,0.6v-2.8c0.8-0.4,1.7-0.9,2.3-1.2
		c-0.1,0.6-0.2,1.3-0.5,1.7C87,31.1,86.9,31.6,86.9,32.3z M92.5,49.5l0.4,0c1.4,0,1.7,0,2.4,0.2V38.1c-0.6-0.1-1.7-0.3-2.8-0.3
		c-1,0-2.2,0.2-2.8,0.3v11.5c0.7-0.1,1-0.1,2.4-0.2L92.5,49.5z M90.3,31.5h4.5v-2.9h-4.5V31.5z M100.3,39.3
		c-0.4-0.2-1.3-0.6-2.2-0.8v11.5c0.5,0.1,1.3,0.4,2.2,0.7V39.3z M95.6,57.4h-2.9v-1.2h-0.5v1.2h-2.9v-5.2c-1.7,0.1-3.2,0.4-3.9,0.5
		v5.6c3.2-0.5,6.9-0.5,7-0.5c0.2,0,3.9,0,7,0.5v-5.6c-0.7-0.2-2.2-0.5-3.9-0.5V57.4z M86.9,38.4c-0.9,0.2-1.8,0.6-2.2,0.8v11.3
		c0.9-0.3,1.7-0.5,2.2-0.7V38.4z M106.4,62.5v6.7H78.6v-6.7l-0.9-1.4v-0.5h29.4v0.5L106.4,62.5z M99.6,60.9H85.4v6.9h14.2V60.9z
		 M98.5,61.9H86.5v4.8h12.1V61.9z M98.1,32.3c0.3,0.1,0.9,0.3,1.5,0.6v-2.8c-0.8-0.4-1.7-0.9-2.3-1.2c0.1,0.6,0.2,1.3,0.5,1.7
		C98,31.1,98.1,31.6,98.1,32.3z M92.5,88.3c-2.4,0-4.4,2-4.4,4.4c0,2.4,2,4.4,4.4,4.4c2.4,0,4.4-2,4.4-4.4
		C96.9,90.3,94.9,88.3,92.5,88.3z M98.5,174H86.5V84h12.1V174z M97.9,92.7c0-3-2.4-5.4-5.4-5.4s-5.4,2.4-5.4,5.4
		c0,3,2.4,5.4,5.4,5.4S97.9,95.7,97.9,92.7z M77.8,59.6v-0.2h1.1v-1.3l0.7-0.4v-2.3h0.7v-2.8l1.4-1V39.3h-0.4l-0.8-1.5h1.1v-0.6
		l-1.3-1.5l1.3-1.5v-1c0,0,0.5-0.6,1.1-0.7c0.6-0.1,1.5-2.3,1.5-2.3l-0.7-1.1l0.7-0.3c0,0-0.5-5.8,3-8.5c0,0,1.1-3.3,5.4-3.3
		c4.3,0,5.4,3.3,5.4,3.3c3.4,2.7,3,8.5,3,8.5l0.7,0.3l-0.7,1.1c0,0,0.9,2.3,1.5,2.3c0.6,0.1,1.1,0.7,1.1,0.7v1l1.3,1.5l-1.3,1.5v0.6
		h1.1l-0.8,1.5h-0.4v12.3l1.4,1v2.8h0.7v2.3l0.7,0.4v1.3h1.1v0.2H77.8z M100.6,51.9l-0.4-0.1c-0.1,0-2.4-0.7-5.1-0.7h-0.5v5.2h-0.8
		v-1.2h-2.5v1.2h-0.8v-5.2h-0.5c-2.6,0-5,0.6-5.1,0.7l-0.4,0.1v7.7l0.6-0.1c3.2-0.6,7.4-0.6,7.5-0.6c0,0,4.3,0,7.5,0.6l0.6,0.1V51.9
		z M97.6,37.3L97,37.2v13.5l0.4,0.1c0,0,1.7,0.4,3.2,1l0.7,0.3v-0.9l0.3,0.1V39.4l-0.3-0.1v-0.6l-0.3-0.1
		C100.9,38.4,99.1,37.4,97.6,37.3z M96.1,27.5l0,0.6c0,0.1,0.1,2,0.7,3c0.2,0.4,0.3,0.7,0.2,1.5l0,0.4l0.4,0.1c0,0,1.1,0.4,2.5,1
		l0.7,0.3v-5l-0.3-0.1c-0.5-0.3-2.9-1.5-3.6-1.7L96.1,27.5z M89.2,32.6h6.5v-5h-6.5V32.6z M89.1,37.2l-0.4,0.1v13.6l0.7-0.1
		c1.1-0.2,1.1-0.2,2.7-0.3l0.3,0l0.3,0c1.6,0,1.6,0,2.7,0.3l0.7,0.1V37.2l-0.4-0.1c-0.1,0-1.8-0.4-3.4-0.4
		C90.9,36.8,89.2,37.1,89.1,37.2z M84.4,34.4l0.7-0.3c1.3-0.6,2.5-1,2.5-1L88,33l0-0.4c-0.1-0.7,0-1.1,0.2-1.5c0.6-1,0.7-2.9,0.7-3
		l0-0.6l-0.6,0.1c-0.7,0.1-3.1,1.4-3.6,1.7l-0.3,0.1V34.4z M83.4,51.2l0.3-0.1V52l0.7-0.3c1.5-0.6,3.2-1,3.2-1l0.4-0.1V37.2
		l-0.6,0.1c-1.5,0.2-3.3,1.2-3.4,1.2l-0.3,0.1v0.6l-0.3,0.1V51.2z M106.4,83.2v97.6H92.5H78.6V83.2h0l0,0v-5.6l-0.1-0.1l-0.1-5.6
		h28.2l-0.1,5.6l-0.1,0.1V83.2L106.4,83.2L106.4,83.2z M95.1,81.6h1.4h1.4v-6.5h-1.4h-1.4V81.6z M91.1,81.6h1.4h1.4v-6.5h-1.4h-1.4
		V81.6z M87.1,81.6h1.4h1.4v-6.5h-1.4h-1.4V81.6z M99.6,83H85.4V175h14.2V83z M75.9,70.2l1.2,6.3l0.4,0.3l-0.1-6h30.3l-0.1,6
		l0.4-0.3l1.2-6.3H75.9z"/>
</g>
</svg>
