<?xml version="1.0" encoding="utf-8"?>
<!-- Generator: Adobe Illustrator 17.1.0, SVG Export Plug-In . SVG Version: 6.00 Build 0)  -->
<!DOCTYPE svg PUBLIC "-//W3C//DTD SVG 1.1//EN" "http://www.w3.org/Graphics/SVG/1.1/DTD/svg11.dtd">
<svg version="1.1" id="shanghai" xmlns="http://www.w3.org/2000/svg" xmlns:xlink="http://www.w3.org/1999/xlink" x="0px" y="0px"
	 viewBox="0 0 185 185" enable-background="new 0 0 185 185" xml:space="preserve">
<g>
	<defs>
		<circle id="SVGID_1_" cx="92.5" cy="92.5" r="87.5"/>
	</defs>
	<clipPath id="SVGID_2_">
		<use xlink:href="#SVGID_1_"  overflow="visible"/>
	</clipPath>
	<path clip-path="url(#SVGID_2_)" fill-rule="evenodd" clip-rule="evenodd" fill="#FFFFFF" d="M102.5,170.7l2.7,11.1h-2.7l-2.6-10.6
		c0,0-0.1,0-0.1-0.1l-3.1,5v5.8h-2.6v-1.6l-0.9,1.4h-1.6l-0.9-1.4v1.6h-2.6v-5.8l-3.1-5c0,0-0.1,0-0.1,0.1l-2.6,10.6h-2.7l2.7-11.1
		c-0.6-0.7-0.8-1.7-0.6-2.6c0.2-0.9,0.9-1.6,1.7-1.8l2.4-10c-1.4-1.6-2.3-3.8-2.5-6.1H84c0-0.3,0-0.6,0-1s0-0.6,0-1h-0.5
		c0.3-3.5,2.1-6.5,4.8-8.1v-52c-2-1.5-3.3-4.1-3.3-7.1c0-4,2.5-7.4,5.8-8.3l0.2-3.8h-0.3v-0.9h3.8v0.9h-0.3l0.2,3.8
		c3.3,0.9,5.8,4.3,5.8,8.3c0,3-1.3,5.6-3.3,7.1v52c2.6,1.6,4.5,4.6,4.8,8.1H101c0,0.3,0,0.6,0,1c0,0.3,0,0.6,0,1h0.5
		c-0.2,2.4-1.1,4.5-2.5,6.1l2.4,10c0.8,0.2,1.4,0.9,1.7,1.8C103.3,169,103.1,170,102.5,170.7z M88.3,158.2
		C88.3,158.2,88.3,158.2,88.3,158.2l-2.2,9.1c0.4,0.6,0.6,1.5,0.3,2.3c-0.1,0.3-0.2,0.5-0.3,0.8l2.3,3.7V158.2z M90.9,178.2l1.6,2.7
		l1.6-2.6v-19.1c-0.5,0.1-1.1,0.2-1.6,0.2c-0.6,0-1.1-0.1-1.6-0.2V178.2z M90.9,127.6h0.5c0.4-0.5,1.1-0.7,1.7-0.5
		c0.3,0.1,0.5,0.3,0.7,0.5h0.5v-6.2h-0.3c-0.4,0.7-1.1,1-1.9,0.8c-0.4-0.1-0.7-0.4-0.9-0.8h-0.3V127.6z M90.9,119.1h0.5
		c0.4-0.5,1.1-0.7,1.7-0.5c0.3,0.1,0.5,0.3,0.7,0.5h0.5v-6.2h-0.3c-0.4,0.7-1.1,1-1.9,0.8c-0.4-0.1-0.7-0.4-0.9-0.8h-0.3V119.1z
		 M90.9,110.6h0.5c0.4-0.5,1.1-0.7,1.7-0.5c0.3,0.1,0.5,0.3,0.7,0.5h0.5v-6.2h-0.3c-0.4,0.7-1.1,1-1.9,0.8c-0.4-0.1-0.7-0.4-0.9-0.8
		h-0.3V110.6z M94.1,89.4c-0.5,0.1-1.1,0.2-1.6,0.2c-0.6,0-1.1-0.1-1.6-0.2v4.1h0.5c0.4-0.5,1.1-0.7,1.7-0.5
		c0.3,0.1,0.5,0.3,0.7,0.5h0.5V89.4z M94.1,95.8h-0.3c-0.4,0.7-1.1,1-1.9,0.8c-0.4-0.1-0.7-0.4-0.9-0.8h-0.3v6.2h0.5
		c0.4-0.5,1.1-0.7,1.7-0.5c0.3,0.1,0.5,0.3,0.7,0.5h0.5V95.8z M94.1,130h-0.3c-0.4,0.7-1.1,1-1.9,0.8c-0.4-0.1-0.7-0.4-0.9-0.8h-0.3
		v6.3h3.3V130z M94.1,138.6h-3.3v0.5c0.5-0.1,1.1-0.2,1.6-0.2c0.6,0,1.1,0.1,1.6,0.2V138.6z M98.7,169.6c-0.2-0.8-0.1-1.7,0.3-2.3
		l-2.2-9.2c0,0,0,0,0,0V174l2.3-3.7C98.8,170.1,98.7,169.9,98.7,169.6z M94,60.8V68H91v-7.3c-0.7-0.5-1.1-1.4-1.1-2.3c0,0,0,0,0,0
		c0-1,0.5-1.9,1.2-2.4v-0.9h2.7V56c0.7,0.5,1.2,1.4,1.2,2.4c0,0,0,0,0,0C95,59.4,94.6,60.3,94,60.8z M93.2,55.1h-1.4v-8.9h-0.3v-0.9
		h1.9v0.9h-0.3V55.1z M93,45.2H92V36h-0.5v-0.9h1.9V36H93V45.2z M91.9,24.5h1.1V35h-1.1V24.5z M92.1,17h0.8v7.5h-0.8V17z"/>
</g>
</svg>
