<?xml version="1.0" encoding="utf-8"?>
<!-- Generator: Adobe Illustrator 17.1.0, SVG Export Plug-In . SVG Version: 6.00 Build 0)  -->
<!DOCTYPE svg PUBLIC "-//W3C//DTD SVG 1.1//EN" "http://www.w3.org/Graphics/SVG/1.1/DTD/svg11.dtd">
<svg version="1.1" id="paris" xmlns="http://www.w3.org/2000/svg" xmlns:xlink="http://www.w3.org/1999/xlink" x="0px" y="0px"
	 viewBox="0 0 185 185" enable-background="new 0 0 185 185" xml:space="preserve">
<g>
	<defs>
		<circle id="SVGID_1_" cx="92.5" cy="92.5" r="87.5"/>
	</defs>
	<clipPath id="SVGID_2_">
		<use xlink:href="#SVGID_1_"  overflow="visible"/>
	</clipPath>
	<path clip-path="url(#SVGID_2_)" fill="#FFFFFF" d="M121.4,177.4c-2.4-4.8-8-15.8-10.5-21.6v-5.2h0.3v-0.3h-0.3v-2.7h0.3v-0.3h-3.5
		c-2.5-7.4-5.3-18.6-6.7-25.8c0.2-0.9,0.8-2,1.4-2v-0.3h-0.5v-1.5h-1.6c-2.5-17-3.6-47.8-4.3-68.4c-0.1-3.4-0.2-6.6-0.3-9.3v-4.1
		c0.2-1.5,0.7-2.8,1.3-2.8h0.2v-1h-0.5v-0.8h-1v-1.3H96V29h-0.4c-0.2-1.4-1.4-2.5-2.8-2.7v-0.5h0.3v-0.7h-0.3v-0.7h0.3v-0.7h-0.3
		v-0.7h0.3v-0.7h-0.3v-0.7h0.3v-0.7h-0.3v-0.7h-0.2V14h-0.3v6.4h-0.2v0.7h-0.3v0.7h0.3v0.7h-0.3v0.7h0.3v0.7h-0.3v0.7h0.3v0.7h-0.3
		v0.7h0.3v0.5c-1.4,0.2-2.6,1.3-2.8,2.7H89v0.7h0.3v1.3h-1v0.8h-0.5v1H88c0.7,0,1.2,1.4,1.3,2.8v4.1c-0.2,2.8-0.2,6-0.3,9.4
		c-0.7,20.6-1.8,51.4-4.3,68.4h-1.6c0,1,0-1.1,0,1.5h-0.5v0.3c0.6,0,1.2,1.2,1.4,2.1c-1.4,7.2-4.2,18.4-6.7,25.8h-3.5v0.3h0.3v2.7
		h-0.3v0.3h0.3v5.2c-2.6,5.8-8.1,16.8-10.5,21.6c-1.3,0.1-2.4,1.2-2.4,2.5c0,0.2,0.2,0.3,0.3,0.3h14c0,0,0,0,0,0
		c0.2,0,0.3-0.2,0.3-0.3c0,0,0,0,0-0.1c0-1.3-1-2.3-2.2-2.5c1.2-9.3,9.2-16.5,18.9-16.5s17.6,7.2,18.9,16.5
		c-1.2,0.2-2.2,1.2-2.2,2.5c0,0.2,0.2,0.3,0.3,0.3h14c0.2,0,0.3-0.2,0.3-0.3C123.8,178.6,122.7,177.5,121.4,177.4z M89.2,127.9h6.5
		c1,6.6,2.4,14,3.7,19.4H85.6C86.8,141.9,88.2,134.4,89.2,127.9z M109.9,155.3L109.9,155.3C109.9,155.3,109.9,155.3,109.9,155.3
		L109.9,155.3z"/>
</g>
</svg>
