<?xml version="1.0" encoding="utf-8"?>
<!-- Generator: Adobe Illustrator 17.1.0, SVG Export Plug-In . SVG Version: 6.00 Build 0)  -->
<!DOCTYPE svg PUBLIC "-//W3C//DTD SVG 1.1//EN" "http://www.w3.org/Graphics/SVG/1.1/DTD/svg11.dtd">
<svg version="1.1" id="Layer_1" xmlns="http://www.w3.org/2000/svg" xmlns:xlink="http://www.w3.org/1999/xlink" x="0px" y="0px"
	 viewBox="0 0 100 100" enable-background="new 0 0 100 100" xml:space="preserve">
<path fill="#959595" d="M57.1,49V30.4h-3.7V16.1h-0.6V12h-0.2v3h-1.1v-4.2h-0.2l-0.1-8.6h-0.3l-0.1,8.6h-0.2v4.6h-0.2v-3.2h-0.2v3.2
	h-4.9v-4.7H45L44.9,2h-0.3l-0.1,8.6h-0.2v5.5h-0.6v-4.5h-0.2v4.5h-0.2v-1H43v1h-0.2v14.3h-0.6V49H40v42.5h0.2V98h19.7v-6.5H60V49
	H57.1z M51.5,15.2h1.1v0.9h-1.1V15.2z"/>
</svg>
