<?xml version="1.0" encoding="utf-8"?>
<!-- Generator: Adobe Illustrator 17.1.0, SVG Export Plug-In . SVG Version: 6.00 Build 0)  -->
<!DOCTYPE svg PUBLIC "-//W3C//DTD SVG 1.1//EN" "http://www.w3.org/Graphics/SVG/1.1/DTD/svg11.dtd">
<svg version="1.1" id="Layer_2" xmlns="http://www.w3.org/2000/svg" xmlns:xlink="http://www.w3.org/1999/xlink" x="0px" y="0px"
	 viewBox="0 0 185 185" enable-background="new 0 0 185 185" xml:space="preserve">
<g>
	<path fill="none" d="M59.1,70h11.4c-0.3,0-0.6-1-0.9-1.6c-1.7-3-3.3-5.8-4.8-8.6c-1.5,2.8-3.1,5.6-4.8,8.6C59.7,69,59.4,70,59.1,70
		z"/>
	<polygon fill="none" points="55,154.5 61.9,146.9 55,139.3 	"/>
	<path fill="none" d="M62.9,53c0.6,1,1.3,2.5,1.9,3.8c0.7-1.3,1.3-2.8,1.9-3.8H62.9z"/>
	<path fill="none" d="M57.7,50h1.9c-1.9-4-3.6-7.9-4.6-10.9v7.6C55,48.3,56.1,50,57.7,50z"/>
	<path fill="none" d="M50,82c0-0.5,1-0.9,1-1.4v-43v-3c0,0.9-1,1.9-1,3.1V82z"/>
	<polygon fill="none" points="74,154.5 74,139.3 67.1,146.9 	"/>
	<path fill="none" d="M57.6,70c0.5-0.8,0.9-1.5,1.3-2.3c1.9-3.2,3.6-6.5,5.1-9.4c-0.9-1.8-1.9-3.3-2.7-5.3h-3.7
		c-1.6,0-2.7,1.5-2.7,3.1v11C55,68.7,56.1,70,57.6,70z"/>
	<path fill="none" d="M71.3,130.8l-1.9-0.2c-1.5-0.1-3-0.2-4.6-0.3c-1.5,0.1-3.1,0.1-4.6,0.3l-1.9,0.2c-0.7,0.1-1.3,0.1-1.9,0.1
		c-0.5,0-1.4,0.1-1.4,0.1v2.4l9.5,10.6l9.5-10.6V131c0,0-0.5,0-0.7,0C72.6,130.9,71.9,130.8,71.3,130.8z"/>
	<path fill="none" d="M71.1,53h-2.9c-0.8,2-1.7,3.5-2.7,5.3c1.6,3,3.3,6.2,5.2,9.4c0.4,0.7,0.8,1.4,1.3,2.1c1.2-0.4,2-1.5,2-2.8v-11
		C74,54.5,72.7,53,71.1,53z"/>
	<path fill="none" d="M71.1,50c1.6,0,2.9-1.7,2.9-3.3v-5.8c-1,2.6-2.5,5.1-4,9.1H71.1z"/>
	<path fill="none" d="M71.1,74H57.7c-0.5,0-0.9,0.2-1.3,0.5c-0.5,0.8-0.9,1.7-1.4,2.5c0,0.1,0.1,0.2,0.1,0.2v11
		c0,1.6,1.1,2.8,2.7,2.8h13.4c1.6,0,2.9-1.2,2.9-2.8v-11C74,75.6,72.7,74,71.1,74z"/>
	<path fill="none" d="M71.1,95H57.7c-1.6,0-2.7,2.1-2.7,5.2v20c0,0,0.9,0,1.4,0.1c0.6,0,1.1,0.1,1.7,0.1c0.5,0,1.1,0,1.8,0
		c1.7,0,3.3,0.1,4.9,0.2c1.6-0.1,3.3-0.1,4.9-0.2c0.7,0,1.3,0,1.8,0c0.6,0,1.2,0,1.8-0.1c0.2,0,0.7,0,0.7,0v-20
		C74,97.1,72.7,95,71.1,95z"/>
	<path fill="none" d="M19,120.4c3-2.6,5-5.1,7-7.7V92.1c-2,4.1-4,8-7,11.8V120.4z"/>
	<path fill="none" d="M28,127.4c2-0.6,4-1.1,6-1.6v-19.4c-2,2.3-4,4.6-6,6.9V127.4z"/>
	<path fill="none" d="M28,111.2c2-2.3,4-4.6,6-7V78.6c-2,3.8-4,7.5-6,11.2V111.2z"/>
	<path fill="none" d="M71.1,33H57.7c-1.5,0-2.8,1.3-2.8,2.9c1.4,3.5,3.5,8.1,6.2,14.1h7.4c2.3-5,4.5-9.2,5.5-12.5v-1.8
		C74,34.1,72.7,33,71.1,33z"/>
	<path fill="none" d="M35,125.4c1-0.4,3-0.7,4-1.1V99.3c-1,1.8-3,3.6-4,5.4V125.4z"/>
	<path fill="none" d="M19,130.1c2-0.8,5-1.6,7-2.3v-13.1c-2,2.6-4,5.1-7,7.6V130.1z"/>
	<path fill="none" d="M41,124c1-0.3,2-0.5,3-0.8V92.7c-1,1.6-2,3.2-3,4.9V124z"/>
	<path fill="none" d="M35,75.9v26.7c1-1.9,3-3.7,4-5.5V66.5c-1,2.2-1.8,4.4-2.9,6.7C35.7,74.1,35,75,35,75.9z"/>
	<path fill="none" d="M46,88.5c1-1.5,2-3,3-4.5V41.9c-1,2.7-2,5.7-3,9V88.5z"/>
	<path fill="none" d="M46,123c0-0.1,0.7-0.2,1.1-0.2c0.6-0.1,0.9-0.2,1.9-0.4v-36c-1,1.5-2,3-3,4.5V123z"/>
	<path fill="none" d="M50,122.2c0-0.1,1-0.1,1-0.1v-39c0,0.4-1,0.9-1,1.4V122.2z"/>
	<path fill="none" d="M41,95.3c1-1.7,2-3.3,3-4.9V54.5c-1,2.8-2,5.8-3,9V95.3z"/>
	<path fill="none" d="M142,143c1,0.4,1,0.8,2,1.3v-1c-1-0.8-1-1.5-2-2.3V143z"/>
	<path fill="none" d="M145,144.7c1,0.4,1.4,0.7,2.2,1.1c-0.7-0.6-1.2-1.2-2.2-1.9V144.7z"/>
	<path fill="none" d="M142,139.1c1,0.8,1,1.6,2,2.3v-19.2c0,1.7-1,3.3-2,4.8V139.1z"/>
	<path fill="none" d="M161,126.1V125c0,0.8-0.4,1.6-0.6,2.3C160.8,127.1,161,126.6,161,126.1z"/>
	<path fill="none" d="M148,144.4c0,0.4,1.1,0.8,1.6,1.3c0.1-0.1-0.6-0.1,0.4-0.2v-2.3v-35.9c-1,1.9-2,4-2,6.1V144.4z"/>
	<path fill="none" d="M137,134.7c1,1.2,3,2.4,4,3.5v-10c-1,1.7-2,3.2-4,4.5V134.7z"/>
	<path fill="none" d="M136.4,133.8v-0.3c0,0-0.1,0.1-0.1,0.1C136.3,133.7,136.4,133.8,136.4,133.8z"/>
	<path fill="none" d="M137,141h-0.2c1,0,2.1,0.8,3.1,1.3c0.3,0.2,1,0.1,1,0.3v-2.4c-1-1.1-3-2.3-4-3.5V141z"/>
	<path fill="none" d="M151,147.4c1,0.7,1.9,1.3,2.8,2c0,0,0.2,0.1,0.2,0.1c0.3,0.2,1,0.4,1,0.5V147h-4V147.4z"/>
	<path fill="none" d="M151,132.1v10.5c0,0.2,0.5,0.4,0.5,0.4h0.2c3.2-4,5.5-8,7.2-14h-6C152.1,129,151,130.6,151,132.1z"/>
	<path fill="none" d="M152.9,107h6.7c0.8,0,1.4-0.8,1.4-1.6v-4.5v-1c0-0.8-0.6-1.9-1.4-1.9h-6.7c-0.8,0-1.9,1.1-1.9,1.9v1l0,0v4.5
		C151,106.2,152.1,107,152.9,107z"/>
	<path fill="none" d="M78,121.9c0,0.1,1,0.2,2,0.3V84.4c-1-0.8-2-1.7-2-2.5V121.9z"/>
	<path fill="none" d="M161,120.7c0-0.8-0.6-1.7-1.4-1.7h-6.7c-0.8,0-1.9,0.8-1.9,1.6v5.5c0,0.8,1.1,1.9,1.9,1.9h6.5
		C160.1,125,160.6,123.1,161,120.7z"/>
	<path fill="none" d="M156,143h2v-9.7c0,1.8-1,3.6-2,5.3V143z"/>
	<path fill="none" d="M152.9,117h6.7c0.8,0,1.4-0.6,1.4-1.4v-5.5c0-0.8-0.6-1.1-1.4-1.1h-6.7c-0.8,0-1.9,0.3-1.9,1.1v5.5
		C151,116.4,152.1,117,152.9,117z"/>
	<path fill="none" d="M129.7,137.5c2.2,0.9,4.3,1.9,6.3,2.9v-4.6c0-0.4-0.7-0.8-1.1-1.2C133.2,135.9,131.5,136.9,129.7,137.5z"/>
	<path fill="none" d="M155,143v-2.9c-1,1.1-1.4,1.9-2.1,2.9H155z"/>
	<path fill="none" d="M161,132.1c0-1.4-0.7-2.6-1.4-2.7c-0.2,0.5-0.6,1-0.6,1.5V143h2c0,0,0-0.2,0-0.4V132.1z"/>
	<path fill="none" d="M78,37.6v41.8c0,0.8,1,1.7,2,2.6V37.7c-1-2.4-2-4.4-2-5.8V37.6z"/>
	<path fill="none" d="M85,123.3c2,0.2,3,0.5,4,0.8V97.6c-1-1.6-3-3.3-4-4.9V123.3z"/>
	<path fill="none" d="M96,125.7c2,0.5,4,1.1,6,1.6v-14.2c-2-2.3-4-4.6-6-6.9V125.7z"/>
	<path fill="none" d="M81,122.4c1,0.1,1.2,0.2,1.9,0.4c0.4,0.1,1.1,0.2,1.1,0.2V90.9c-1-1.5-2-3-3-4.5V122.4z"/>
	<path fill="none" d="M90,66.5v30.6c2,1.8,3,3.7,5,5.5V75.9c-1-0.9-1.2-1.8-1.6-2.7C92.3,71,91,68.7,90,66.5z"/>
	<path fill="none" d="M85,90.4c1,1.6,3,3.3,4,4.9V63.5c-1-3.1-3-6.1-4-9V90.4z"/>
	<path fill="none" d="M90,124.3c2,0.3,3,0.7,5,1.1v-20.7c-2-1.8-3-3.6-5-5.4V124.3z"/>
	<path fill="none" d="M81,84c1,1.5,2,3,3,4.5V51c-1-3.3-2-6.4-3-9V84z"/>
	<path fill="none" d="M134.8,133.9c-3.8-3.9-7.8-8-10.8-12.4v10.9c1,1.6,3.5,3.1,5.4,4.7l-0.1-0.4
		C131.3,136.2,133.1,135.2,134.8,133.9z"/>
	<path fill="none" d="M112,130.5C112,130.6,111.9,130.6,112,130.5c3.4,1.2,7,2.5,10,3.8v-1.2c-3-3.1-7-6.3-10-9.5V130.5z"/>
	<path fill="none" d="M112,105.9v15.8c3,3.3,7,6.5,10,9.6v-11.4c-2-2.3-3.5-4.7-5.3-7.2C115,110.5,113,108.3,112,105.9z"/>
	<path fill="none" d="M147,115.9c-1,1.5-1,3-2,4.3v22c1,0.5,1,1,2,1.5V115.9z"/>
	<path fill="none" d="M123.6,134.9c0.4,0.2,0.9,0.3,1.3,0.5c-0.4-0.4-0.9-0.7-1.3-1.1V134.9z"/>
	<path fill="none" d="M103,112.7c3,2.6,5,5.2,8,7.7v-16.5c-3-3.8-5-7.8-8-11.8V112.7z"/>
	<path fill="none" d="M96,104.2c2,2.3,4,4.6,6,7V89.8c-2-3.6-4-7.4-6-11.2V104.2z"/>
	<path fill="none" d="M103,127.8c3,0.7,5,1.5,8,2.3v-7.8c-3-2.5-5-5.1-8-7.6V127.8z"/>
	<path fill="#FFFFFF" d="M163,144.4v-1.2v-29.9c1-9.9,0.4-18.1,0.4-18.2L163,95h-2v2h-9.3c0.1-1,0.2-1.6,0.2-1.6l-0.4-0.1l-0.4-0.2
		c0,0,0-0.1,0-0.1h-1v1.6v4.2v2.5c-2,8.9-6.4,22.8-14.1,29.7c-19.6-20.1-33-43-41.2-60.4c-11.5-24.3-16-43.4-16-43.6
		c-0.1-0.3-0.6-0.5-0.6-0.5V26h-4v3H55v-3h-4v3.2v0.3c-1,3.2-5.5,21-15.9,43.1C29.7,83.9,22.3,97.4,12.5,111l-4.3,5.1
		c0.1,0.2,0.1,0.5,0.2,0.7c2.1-1.9,4.5-3.9,4.6-4c1.6-2.2,3-4.5,5-6.9v15.8c-2,1.7-3.6,3.4-5.4,5l-0.5,0.4c0.1,0.3,0.3,0.5,0.5,0.8
		c2.4-1.8,4.4-3.5,5.4-4.2v6.9c0,0-0.3,0-0.3,0.1c-0.7,0.3-2,0.8-3.3,1.3c0.8,1.5,1.5,3,2.4,4.4c1-0.2,1.7-0.4,2.2-0.5
		c9.6-2.3,19.2-4,28.9-5c1-0.1,2.1-0.2,3.1-0.3v38.9c1,0.7,3,1.4,4,2v-11.1l9.5-10.6l9.5,10.6V178c1,0.3,3,0.5,4,0.8v-48.2
		c1,0.1,2.5,0.2,3.8,0.3c9.7,0.9,19.3,2.6,28.8,5c9.6,2.3,19.2,5.2,28.5,8.7c3.6,1.3,6.8,2.8,10.8,4.3v10c0-0.6,1-1.1,1-1.7v-5.5
		l2.9,2.9c0.5-0.5,1.1-0.9,1.5-1.4l-2.3-2.7c0,0,0.1,0,0.1,0.1c0.1,0.1,0.2,0.1,0.3,0.1c1.3,0.6,2.3,1,3.1,1.3
		c0.2-0.2,0.4-0.6,0.6-0.9c-0.5-0.3-1-0.2-1.6-1.2h0.4v-3h2v3c1-0.3,1-0.7,1-1v-2h2v-0.1C162,146.1,162,145.2,163,144.4z M26,127.8
		c-2,0.7-5,1.5-7,2.3v-7.8c3-2.5,5-5.1,7-7.6V127.8z M26,112.7c-2,2.6-4,5.2-7,7.7v-16.5c3-3.8,5-7.8,7-11.8V112.7z M34,125.7
		c-2,0.5-4,1.1-6,1.6v-14.2c2-2.3,4-4.6,6-6.9V125.7z M34,104.2c-2,2.3-4,4.6-6,7V89.8c2-3.6,4-7.4,6-11.2V104.2z M39,124.3
		c-1,0.3-3,0.7-4,1.1v-20.7c1-1.8,3-3.6,4-5.4V124.3z M39,97.1c-1,1.8-3,3.7-4,5.5V75.9c0-0.9,0.7-1.8,1.1-2.7
		c1.1-2.3,1.9-4.5,2.9-6.7V97.1z M44,123.3c-1,0.2-2,0.5-3,0.8V97.6c1-1.6,2-3.3,3-4.9V123.3z M44,90.4c-1,1.6-2,3.3-3,4.9V63.5
		c1-3.1,2-6.1,3-9V90.4z M49,122.4c-1,0.1-1.2,0.2-1.9,0.4c-0.4,0.1-1.1,0.2-1.1,0.2V90.9c1-1.5,2-3,3-4.5V122.4z M49,84
		c-1,1.5-2,3-3,4.5V51c1-3.3,2-6.4,3-9V84z M51,122c0,0-1,0.1-1,0.1V84.4c0-0.5,1-0.9,1-1.4V122z M51,37.6v43c0,0.5-1,0.9-1,1.4
		V37.7c0-1.1,1-2.1,1-3.1V37.6z M55,39.1c1,3,2.7,6.9,4.6,10.9h-1.9c-1.6,0-2.7-1.7-2.7-3.3V39.1z M55,56.1c0-1.6,1.1-3.1,2.7-3.1
		h3.7c0.8,2,1.7,3.5,2.7,5.3c-1.6,3-3.3,6.1-5.2,9.4c-0.4,0.7-0.8,1.5-1.3,2.3c-1.5-0.1-2.6-1.3-2.6-2.9V56.1z M62.9,53h3.9
		c-0.6,1-1.3,2.5-1.9,3.8C64.1,55.5,63.5,54,62.9,53z M69.6,68.4c0.3,0.5,0.6,1.6,0.9,1.6H59.1c0.3,0,0.6-1,0.9-1.6
		c1.7-3,3.3-5.8,4.8-8.6C66.3,62.6,67.9,65.5,69.6,68.4z M55,154.5v-15.2l6.9,7.6L55,154.5z M74,154.5l-6.9-7.6l6.9-7.6V154.5z
		 M74,133.4l-9.5,10.6L55,133.4V131c0,0,0.9-0.1,1.4-0.1c0.6,0,1.3-0.1,2-0.1l1.9-0.2c1.5-0.1,3-0.2,4.6-0.3
		c1.5,0.1,3.1,0.1,4.6,0.3l1.9,0.2c0.7,0.1,1.4,0.1,2,0.1c0.2,0,0.7,0,0.7,0V133.4z M74,120.3c0,0-0.5,0-0.7,0
		c-0.6,0-1.2,0.1-1.7,0.1c-0.5,0-1.1,0-1.8,0c-1.7,0-3.3,0.1-5,0.2c-1.6-0.1-3.3-0.1-5-0.2c-0.7,0-1.3,0-1.8,0c-0.6,0-1.1,0-1.7-0.1
		c-0.5,0-1.4,0-1.4-0.1v-20c0-3.1,1.1-5.2,2.7-5.2h13.4c1.6,0,2.9,2.1,2.9,5.2V120.3z M74,88.2c0,1.6-1.3,2.8-2.9,2.8H57.7
		c-1.6,0-2.7-1.2-2.7-2.8v-11c0-0.1-0.1-0.1-0.1-0.2c0.5-0.8,1-1.8,1.5-2.6c0.4-0.2,0.8-0.5,1.3-0.5h13.4c1.6,0,2.9,1.6,2.9,3.2
		V88.2z M74,67.1c0,1.3-0.9,2.4-2,2.8c-0.4-0.7-0.8-1.4-1.2-2.1c-1.9-3.2-3.6-6.5-5.2-9.5c0.9-1.8,1.8-3.3,2.7-5.3h2.9
		c1.6,0,2.9,1.5,2.9,3.1V67.1z M74,46.7c0,1.6-1.3,3.3-2.9,3.3H70c1.5-4,3-6.5,4-9.1V46.7z M74,37.5c-1,3.3-3.2,7.5-5.5,12.5h-7.4
		c-2.7-6-4.8-10.6-6.2-14.1c0-1.6,1.3-2.9,2.8-2.9h13.4c1.6,0,2.9,1.1,2.9,2.7V37.5z M80,122.2c-1-0.1-2-0.2-2-0.3v-40
		c0,0.8,1,1.7,2,2.5V122.2z M80,82c-1-0.9-2-1.7-2-2.6V37.6v-5.7c0,1.4,1,3.4,2,5.8V82z M84,123c0-0.1-0.7-0.2-1.1-0.2
		c-0.6-0.1-0.9-0.2-1.9-0.4v-36c1,1.5,2,3,3,4.5V123z M84,88.5c-1-1.5-2-3-3-4.5V41.9c1,2.7,2,5.7,3,9V88.5z M89,124
		c-1-0.3-2-0.5-4-0.8V92.7c1,1.6,3,3.2,4,4.9V124z M89,95.3c-1-1.7-3-3.3-4-4.9V54.5c1,2.8,3,5.8,4,9V95.3z M95,125.4
		c-2-0.4-3-0.7-5-1.1V99.3c2,1.8,3,3.6,5,5.4V125.4z M95,102.6c-2-1.9-3-3.7-5-5.5V66.5c1,2.2,2.3,4.4,3.4,6.7
		c0.4,0.9,0.6,1.8,1.6,2.7V102.6z M102,127.4c-2-0.6-4-1.1-6-1.6v-19.4c2,2.3,4,4.6,6,6.9V127.4z M102,111.2c-2-2.3-4-4.6-6-7V78.6
		c2,3.8,4,7.5,6,11.2V111.2z M111,130.1c-3-0.8-5-1.6-8-2.3v-13.1c3,2.6,5,5.1,8,7.6V130.1z M111,120.4c-3-2.6-5-5.1-8-7.7V92.1
		c3,4.1,5,8,8,11.8V120.4z M145,120.2c1-1.4,1-2.8,2-4.3v27.8c-1-0.5-1-1-2-1.5V120.2z M122,134.3c-3-1.3-6.6-2.6-10-3.7
		c-0.1,0,0,0,0-0.1v-6.9c3,3.2,7,6.4,10,9.5V134.3z M122,131.4c-3-3.1-7-6.4-10-9.6v-15.8c1,2.3,3,4.6,4.7,6.9
		c1.8,2.4,3.3,4.8,5.3,7.2V131.4z M123.6,134.9v-0.6c0.4,0.4,0.9,0.7,1.3,1.1C124.4,135.2,124,135,123.6,134.9z M124,132.5v-10.9
		c3,4.3,7,8.5,10.8,12.4c-1.7,1.3-3.6,2.3-5.6,2.8l0.3,0.4C127.6,135.7,125,134.1,124,132.5z M136,140.4c-2-1-4.1-2-6.3-2.9
		c1.9-0.6,3.6-1.5,5.3-2.9c0.4,0.4,1.1,0.8,1.1,1.2V140.4z M136.4,133.8c0,0-0.1-0.1-0.1-0.1c0,0,0.1-0.1,0.1-0.1V133.8z M141,142.5
		c0-0.2-0.7-0.1-1-0.3c-1-0.5-2.1-1.3-3.1-1.3h0.2v-4.4c1,1.2,3,2.3,4,3.5V142.5z M141,138.2c-1-1.2-3-2.3-4-3.5v-2
		c2-1.3,3-2.8,4-4.5V138.2z M144,144.3c-1-0.4-1-0.9-2-1.3v-2.1c1,0.8,1,1.5,2,2.3V144.3z M144,141.4c-1-0.8-1-1.6-2-2.3v-12.1
		c1-1.4,2-3,2-4.8V141.4z M145,144.7V144c1,0.6,1.4,1.2,2.2,1.9C146.4,145.5,146,145.1,145,144.7z M150,143.2v2.3
		c-1,0.1-0.3,0.1-0.4,0.2c-0.5-0.4-1.6-0.8-1.6-1.3v-31.1c0-2.1,1-4.1,2-6.1V143.2z M161,126.1c0,0.5-0.2,0.9-0.6,1.2
		c0.2-0.8,0.6-1.6,0.6-2.3V126.1z M151,100.9L151,100.9v-1c0-0.8,1.1-1.9,1.9-1.9h6.7c0.8,0,1.4,1.1,1.4,1.9v1v4.5
		c0,0.8-0.6,1.6-1.4,1.6h-6.7c-0.8,0-1.9-0.8-1.9-1.6V100.9z M151,110.1c0-0.8,1.1-1.1,1.9-1.1h6.7c0.8,0,1.4,0.3,1.4,1.1v5.5
		c0,0.8-0.6,1.4-1.4,1.4h-6.7c-0.8,0-1.9-0.6-1.9-1.4V110.1z M155,150.1c0-0.2-0.6-0.3-0.9-0.5c0,0-0.3-0.1-0.3-0.1
		c-0.9-0.7-1.8-1.3-2.8-2V147h4V150.1z M155,143h-2.1c0.8-1,1.1-1.8,2.1-2.9V143z M158,143h-2v-4.4c1-1.7,2-3.5,2-5.3V143z
		 M151.7,143h-0.2c0,0-0.5-0.2-0.5-0.4v-10.5c0-1.5,1.1-3.1,1.9-3.1h6C157.2,135,154.9,139,151.7,143z M152.9,128
		c-0.8,0-1.9-1.1-1.9-1.9v-5.5c0-0.8,1.1-1.6,1.9-1.6h6.7c0.8,0,1.4,0.9,1.4,1.7c-0.4,2.3-0.9,4.3-1.6,7.3H152.9z M161,143h-2v-12.1
		c0-0.5,0.5-1,0.6-1.5c0.7,0.2,1.4,1.3,1.4,2.7v10.5C161,142.8,161,143,161,143z"/>
</g>
</svg>
