<?xml version="1.0" encoding="utf-8"?>
<!-- Generator: Adobe Illustrator 17.1.0, SVG Export Plug-In . SVG Version: 6.00 Build 0)  -->
<!DOCTYPE svg PUBLIC "-//W3C//DTD SVG 1.1//EN" "http://www.w3.org/Graphics/SVG/1.1/DTD/svg11.dtd">
<svg version="1.1" id="Layer_2" xmlns="http://www.w3.org/2000/svg" xmlns:xlink="http://www.w3.org/1999/xlink" x="0px" y="0px"
	 viewBox="0 0 185 185" enable-background="new 0 0 185 185" xml:space="preserve">
<g>
	<rect x="95" y="39.4" fill="none" width="1.8" height="1.6"/>
	<path fill="#FFFFFF" d="M109,169L109,169V97h-5V65h-6V41h-1v-7l0,0v5h-2v-7h-0.4l-0.2-15H94l-0.2,15H93v8l0,0v-6l0,0v6h-8v-8h-0.8
		l-0.2-15h-0.5l-0.2,15H83v9h-1v-8l0,0v8h-1v-2l0,0v2l0,0v24h-1v32h-4v72l0,0v9.5c6,1,10.9,1.5,16.5,1.5c5.6,0,11.5-0.5,16.5-1.5
		V169z M96.8,40.9H95v-1.6h1.8V40.9z"/>
</g>
</svg>
