<?xml version="1.0" encoding="utf-8"?>
<!-- Generator: Adobe Illustrator 17.1.0, SVG Export Plug-In . SVG Version: 6.00 Build 0)  -->
<!DOCTYPE svg PUBLIC "-//W3C//DTD SVG 1.1//EN" "http://www.w3.org/Graphics/SVG/1.1/DTD/svg11.dtd">
<svg version="1.1" id="sanantonio" xmlns="http://www.w3.org/2000/svg" xmlns:xlink="http://www.w3.org/1999/xlink" x="0px" y="0px"
	 viewBox="0 0 185 185" enable-background="new 0 0 185 185" xml:space="preserve">
<g>
	<path fill="none" d="M113,132h-4v10.7c-4-5-9.8-6.5-9.8-6.5l-1.5,4.6c9.9,0.6,11.3,13.7,11.3,13.7v24.1c1-0.2,2-0.5,4-0.8v-23.2
		V132z"/>
	<path fill="none" d="M100,135.6c4,0.9,8,4.9,8,4.9V132h-8V135.6z"/>
	<rect x="87" y="99" fill="none" width="6" height="5"/>
	<rect x="93" y="113" fill="none" width="6" height="4"/>
	<rect x="87" y="104" fill="none" width="6" height="4"/>
	<rect x="93" y="109" fill="none" width="6" height="4"/>
	<rect x="93" y="104" fill="none" width="6" height="4"/>
	<rect x="87" y="109" fill="none" width="6" height="4"/>
	<path fill="none" d="M78,140.5c0,0,4-4,8-4.9V132h-8V140.5z"/>
	<path fill="none" d="M93,141h2.1l2.8-5.2c1.2-1.2-0.3-4.2-0.3-4.2l2.7-2.6H93h-7.8l2.9,2.5c0,0-1.6,3.1-0.3,4.3l3,5.2H93z"/>
	<rect x="87" y="113" fill="none" width="6" height="4"/>
	<path fill="none" d="M103,95H83v27h20V95z M100,118H86V99h14V118z"/>
	<rect x="93" y="99" fill="none" width="6" height="5"/>
	<path fill="none" d="M88.1,140.7l-1.5-4.6c0,0-5.6,1.5-9.6,6.5V132h-4v22.4v23.3c1,0.3,2,0.6,4,0.8v-24.2
		C77,154.4,78.2,141.4,88.1,140.7z"/>
	<path fill="none" d="M122,139.8V159h2v-19.2c0,0,6-10.9,11,0V159h2v-19.2C137,139.8,129,124.6,122,139.8z"/>
	<path fill="none" d="M125,140.7V159h9v-18.3C130,129.2,125,140.7,125,140.7z"/>
	<path fill="none" d="M133,102.7c-5-11.2-8,0-8,0V118h8V102.7z"/>
	<path fill="none" d="M48,139.8V159h3v-19.2c5-10.9,10,0,10,0V159h3v-19.2C56,124.6,48,139.8,48,139.8z"/>
	<path fill="none" d="M49,99.2V118h2V99.2c5-10.9,11,0,11,0V118h2V99.2C56,84.1,49,99.2,49,99.2z"/>
	<path fill="none" d="M61,102.7c0,0-4-11.2-9,0V118h9V102.7z"/>
	<path fill="none" d="M124,99.2c0,0,5-10.9,10,0V118h3V99.2c0,0-8-15.2-16,0V118h3V99.2z"/>
	<path fill="none" d="M51,140.7V159h9v-18.3C60,140.7,56,129.2,51,140.7z"/>
	<path fill="#FFFFFF" d="M93,142.1c12.7,0,15,12.3,15,12.3v24.2c0-0.1,0-0.1,1-0.2v-24.1c0,0-1.5-13.1-11.4-13.7l1.7-4.6
		c0,0,5.7,1.5,9.7,6.5V132h4v22.4v23.2c0-0.1,1-0.3,1-0.4V165h-0.5l1-3.1c0,0,0.9-0.9,1-2.9c0,0-1.9-16.6,0.7-21.8
		c0,0-2.2-1.6-0.2-3.8V130h-1.9l0.9-2h3.2h0h3.2l0.9,2H120v3.4c2,2.2,0,3.8,0,3.8c2.6,5.2,0.9,21.8,0.9,21.8c0.1,2,1,3,1,3l1,3.1
		H122v9.9c5-2,11-4.4,16-7.4V165h-1.5l1.1-3c0,0,1-0.9,1.1-2.9c0,0-1.6-16.6,1.2-21.8c0,0-2.8-1.6,0.2-3.8V131h-2.9l0.9-3h3.4h0.1
		h3.4l0.9,3H143v2.5c3,2.2,0.2,3.8,0.2,3.8c2.8,5.2,1,21.8,1,21.8c0.1,2,1.1,2.9,1.1,2.9l0.1,0.2c14.4-11,25.3-26.1,30.8-44.1H175
		v-15h4.4c0.3-3,0.5-5,0.5-7H155V85h-15v-4.8l-9.1,0c-4,0.2-13.7-6.6-13.7-6.6c-2.3-1.9-5.2-3-5.2-3v-3.2l-5.1-1.1
		c-3.4-9.8-14.3-10.2-14.3-10.2s-11,0.4-14.4,10.2L73,67.5v3.2c0,0-2.8,1.1-5.1,3c0,0-9.5,6.8-13.6,6.6l-9.3,0V85H30v11H5.1
		c0.1,2,0.3,4,0.5,7H11v15H8.8c5.5,18,16.5,33.4,31.1,44.4l0.2-0.5c0,0,1-0.8,1.1-2.8c0,0-1.9-16.5,0.9-21.7c0,0-2.1-1.6-0.1-3.8
		V131h-2.3l0.9-3H44h0.1h3.4l0.9,3H46v2.5c2,2.2,0,3.8,0,3.8c2.8,5.2,0.9,21.8,0.9,21.8c0.1,2,1.1,2.9,1.1,2.9l1.1,3h-1v2.8
		c5,2.9,10,5.4,16,7.3V165h-1.4l1-3.1c0,0,0.9-0.9,1-2.9c0,0-1.5-16.6,1.1-21.8c0,0-2.8-1.6,0.2-3.8V130h-2.8l0.9-2h3.2h0.1h3.2
		l0.9,2H69v3.4c2,2.2,0.1,3.8,0.1,3.8c2.6,5.2,0.9,21.8,0.9,21.8c0.1,2,1,3,1,3l1,3.1h-1v12.3c1,0.1,1,0.3,2,0.4v-23.3V132h4v10.7
		c4-5,9.5-6.5,9.5-6.5l1.7,4.6c-9.9,0.6-11.2,13.7-11.2,13.7v24.2c0,0.1,0,0.1,1,0.1v-24.3C78,154.4,80.3,142.1,93,142.1z M134,159
		h-9v-18.3c0,0,5-11.6,9,0V159z M137,159h-2v-19.2c-5-10.9-11,0-11,0V159h-2v-19.2c7-15.2,15,0,15,0V159z M125,118v-15.3
		c0,0,3-11.2,8,0V118H125z M121,99.2c8-15.2,16,0,16,0V118h-3V99.2c-5-10.9-10,0-10,0V118h-3V99.2z M60,159h-9v-18.3c5-11.6,9,0,9,0
		V159z M64,139.8V159h-3v-19.2c0,0-5-10.9-10,0V159h-3v-19.2C48,139.8,56,124.6,64,139.8z M52,118v-15.3c5-11.2,9,0,9,0V118H52z
		 M64,118h-2V99.2c0,0-6-10.9-11,0V118h-2V99.2c0,0,7-15.2,15,0V118z M108,132v8.5c0,0-4-4-8-4.9V132H108z M83,95h20v27H83V95z
		 M86,135.6c-4,0.9-8,4.9-8,4.9V132h8V135.6z M87.8,135.8c-1.3-1.2,0.3-4.2,0.3-4.2l-2.9-2.6H93h7.3l-2.7,2.5c0,0,1.5,3.1,0.3,4.3
		l-2.8,5.2H93h-2.2L87.8,135.8z"/>
	<path fill="#FFFFFF" d="M86,118h14V99H86V118z M93,99h6v5h-6V99z M93,104h6v4h-6V104z M93,109h6v4h-6V109z M93,113h6v4h-6V113z
		 M87,99h6v5h-6V99z M87,104h6v4h-6V104z M87,109h6v4h-6V109z M87,113h6v4h-6V113z"/>
</g>
</svg>
