<?xml version="1.0" encoding="utf-8"?>
<!-- Generator: Adobe Illustrator 17.1.0, SVG Export Plug-In . SVG Version: 6.00 Build 0)  -->
<!DOCTYPE svg PUBLIC "-//W3C//DTD SVG 1.1//EN" "http://www.w3.org/Graphics/SVG/1.1/DTD/svg11.dtd">
<svg version="1.1" id="Layer_2" xmlns="http://www.w3.org/2000/svg" xmlns:xlink="http://www.w3.org/1999/xlink" x="0px" y="0px"
	 viewBox="0 0 185 185" enable-background="new 0 0 185 185" xml:space="preserve">
<g>
	<path fill="none" d="M89.2,128c-1,6-2.4,14-3.7,19h13.9c-1.3-5-2.6-13-3.7-19H89.2z"/>
	<path fill="none" d="M109.9,155.3L109.9,155.3C109.9,155.3,109.9,155.3,109.9,155.3L109.9,155.3z"/>
	<path fill="#FFFAFA" d="M111,148v-1h-3.3c-2.5-7-5.5-18.5-6.9-25.7c0.2-0.9,1.2-1.9,1.2-1.9V119l0,0v-1h-1.7
		c-2.5-17-3.4-48-4.1-68.6C96.1,46,96,42.6,96,39.8v-4.1c0-1.5,0.4-2.8,1-2.8h0v-1l0,0v-1h-1v-1l0,0v-1h-0.3c-0.2-1-1.7-2.5-2.7-2.6
		V26l0,0v-1l0,0v-1l0,0l0,0l0,0v-1l0,0v-1l0,0l0,0l0,0v-1l0,0v-1l0,0v-6h-1v6l0,0v1l0,0v1l0,0l0,0l0,0v1l0,0v1l0,0l0,0l0,0v1l0,0v1
		l0,0v0.4c-1,0.2-2.4,1.6-2.7,2.6H89v1l0,0v1h-1v1l0,0v1h0c0.7,0,1,1.3,1,2.8v4.1c0,2.8-0.1,6.2-0.2,9.6C88.1,70,87.2,101,84.7,118
		H83c0,0,0-0.3,0-0.3c0,0.1,0,0.2,0,0.2c0,0.2,0,0.1,0,1.1l0,0v0.4c0,0,1,1,1.2,1.9c-1.4,7.2-4.4,18.6-6.9,25.6H74v1l0,0v2l0,0v1
		l0,0v4.8c-2,5.1-6.7,14.2-9.5,19.6c3.4,1.2,7,2.1,10.6,2.8c-0.4-0.4-0.9-0.8-1.5-0.8c1.2-9.3,9.2-16.5,18.9-16.5
		s17.6,7.2,18.9,16.5c-0.6,0.1-1.2,0.4-1.6,0.8c3.6-0.7,7.2-1.7,10.7-2.8c-2.7-5.4-7.5-14.5-9.5-19.6V151l0,0v-1l0,0V148L111,148z
		 M85.6,147c1.3-5,2.6-13,3.7-19h6.5c1,6,2.4,14,3.7,19H85.6z M109.9,155.3L109.9,155.3C109.9,155.3,109.9,155.3,109.9,155.3
		L109.9,155.3z"/>
</g>
</svg>
