<?xml version="1.0" encoding="utf-8"?>
<!-- Generator: Adobe Illustrator 17.1.0, SVG Export Plug-In . SVG Version: 6.00 Build 0)  -->
<!DOCTYPE svg PUBLIC "-//W3C//DTD SVG 1.1//EN" "http://www.w3.org/Graphics/SVG/1.1/DTD/svg11.dtd">
<svg version="1.1" xmlns="http://www.w3.org/2000/svg" xmlns:xlink="http://www.w3.org/1999/xlink" x="0px" y="0px"
	 viewBox="0 0 185 185" enable-background="new 0 0 185 185" xml:space="preserve">
<g id="background_circle">
	<circle opacity="0.23" fill="#FFFFFF" cx="92.5" cy="92.5" r="87.5"/>
</g>
<g id="saopaulo">
	<g>
		<defs>
			<circle id="SVGID_1_" cx="92.5" cy="92.5" r="87.5"/>
		</defs>
		<clipPath id="SVGID_2_">
			<use xlink:href="#SVGID_1_"  overflow="visible"/>
		</clipPath>
		<path clip-path="url(#SVGID_2_)" fill="#FFFFFF" d="M297.2,157.9l-12.7,0.3l-171-106.7l4.4-15.9l-6.4,3.5l-1.1,3.7l-6.6,2.6
			l-13.3-8.3L90,33.9L84.3,28l-1,2.5c0.5,3.1,1,6.1,1.5,8.8l-5.1,15.5l-149.4,58.1c-36.2-4.2-42.6-2-42.6-2v8.7
			c64.1,3.4,135.1,16.3,163.7,21.8l-7.3,22.4c-0.7,0.3-1.3,0.5-1.9,0.8v1.8c0,0,0.5-0.2,1.4-0.4l0.2,0.1l0-0.1
			c0.4-0.1,0.8-0.2,1.3-0.4l0.2,0.1l0-0.1c2.3-0.6,5.6-1.3,9-1.4l-7.5,15h26.3l0.8-10.4c26.3-2.2,40.7,2.5,40.7,2.5l-5.9,8.9h29.3
			l-6.6-14.7l165.9-4V157.9z M284,158.2l-7.6,0.2L113.2,52.8l0.3-1L284,158.2z M106.2,148.8l0.8-12.9l0.3,1.2l-0.8,13.7l0.1,0
			l0.1-1.9C106.7,149,106.3,148.8,106.2,148.8z M73.9,148.6l0.4-1.5l-0.2,1.5L73.9,148.6z M-48.6,115.5L78.3,59.1l-0.4,1.1
			l-124.8,55.5C-47.5,115.7-48.1,115.6-48.6,115.5z M103.4,147.2l-0.1-0.5l1.6-21.1l0.4,1.8l-1.2,20.1
			C103.9,147.5,103.6,147.4,103.4,147.2z M83.5,139.6c-0.2-0.1-0.4-0.1-0.6-0.2l0.3-3.7l3.1-8.9l-0.3,4.8L83.5,139.6z M86,133
			l-0.4,7.2c-0.6-0.2-1.2-0.3-1.8-0.5L86,133z M77.4,138.1l0.3-0.7l-0.1,0.8C77.5,138.1,77.4,138.1,77.4,138.1z M66,135.4l2.3-8.2
			l2.5-4l-2.4,9.2l-1.9,3.2C66.4,135.5,66.2,135.5,66,135.4z M62.6,134.8l5-16.9l2.2-3.1l-5,17.1l-1.8,2.9
			C62.9,134.8,62.8,134.8,62.6,134.8z M84,81.5l0.4-1.9L85,79l-0.2,2.2l-0.1,0.2l-0.9,1L84,81.5z M109.5,66.3l-0.1,0.7l0-0.4
			L109.5,66.3L109.5,66.3z M83.2,69.9l0.8-0.6l-1.2,4.3l-0.9,0.7L83.2,69.9z M81.4,74.7l-1.2,1l1.4-4.6l1.2-0.8L81.4,74.7z
			 M107.2,83c0-0.2-0.1-0.5-0.1-0.7l0.2-1.2l0.3,0.4l-0.3,1.7L107.2,83z M87.4,63.5l0.5-0.3l-0.8,3.5l-0.6,0.4L87.4,63.5z
			 M86.7,65.1l0.1-1.2l0.2-0.1L86.7,65.1z M88.3,62.9l0.4-0.2l-0.1,1.5l-0.4,1.7l-0.7,0.5L88.3,62.9z M88.9,64.2l0.1-0.6
			c0.1,0.4,0.1,0.8,0.2,1.2l-0.1,0.3l-0.4,0.3L88.9,64.2z M97.6,63.5L97.6,63.5l-0.2-0.2l0.1,0L97.6,63.5z M97.6,63l0.3-0.2l0.2,0.2
			l-0.3,0.3L97.6,63z M97.1,63L97,62.8l0.1-0.1L97.1,63L97.1,63z M96.7,62.6l-1.3-1.5l0.1-0.1c0,0,0.1,0,0.1,0L96.7,62.6L96.7,62.6z
			 M94.9,61l-0.1,0.1l0-0.1C94.8,61,94.8,61,94.9,61L94.9,61z M95.1,62.6l0.6,0.8l-0.4,0.3L95.1,62.6z M95,61.9l-0.1-0.4l0.3-0.2
			l1.3,1.5L96,63.2L95,61.9z M95.4,64.1l0.5-0.4l0.2,0.2l-0.6,0.5L95.4,64.1z M96.2,63.5l0.5-0.4l0.2,0.2l-0.5,0.4L96.2,63.5z
			 M97.1,63.5l0.2,0.3l-0.5,0.5l-0.3-0.3L97.1,63.5z M104.5,63.2l0,0.1l-0.4-0.4C104.2,63.1,104.4,63.1,104.5,63.2z M100.9,62
			l-0.3-0.3c0.1,0,0.3,0.1,0.4,0.1L100.9,62z M101.4,62.2l-0.2,0.2l0,0L101.4,62.2z M101.9,62.1c0.4,0.1,0.8,0.3,1.2,0.4l0.5,0.5
			l-0.7,1l-1.4-1.3L101.9,62.1z M103.8,63.2l0.5,0.5L104,65l-0.8-0.8L103.8,63.2z M103.8,65.4l-0.3,0.8l-1.1-1.1l0.5-0.6L103.8,65.4
			z M100.1,61.7l0.5,0.5l-0.5,0.5l-0.5-0.5L100.1,61.7z M101.1,62.6L101.1,62.6l-0.4,0.5l0,0L101.1,62.6z M101.3,62.9l1.4,1.3
			l-0.4,0.6l-1.4-1.4L101.3,62.9z M102,65.1l-0.7,0.9l-1.4-1.5l0.7-0.9L102,65.1z M102.3,65.3l1.2,1.2l-0.1,0.4l-0.5,0.7l-1.3-1.4
			L102.3,65.3z M99.4,62.4l0.5,0.6l-0.7,0.8l-0.6-0.6L99.4,62.4z M100.2,63.2L99.5,64l0,0L100.2,63.2z M100.4,63.4L100.4,63.4
			l-0.7,0.9l0,0L100.4,63.4z M99.5,64.5l-0.3,0.4l0,0L99.5,64.5L99.5,64.5z M99.7,64.8l1.4,1.5l-0.4,0.5l-1.3-1.6L99.7,64.8z
			 M101.4,66.5l1.3,1.4l-0.5,0.6l-1.2-1.5L101.4,66.5z M102.9,68.2L102.9,68.2l-0.2,1l-0.2-0.3L102.9,68.2z M99.6,61.5l-0.3,0.3
			l-0.1-0.1L99.6,61.5C99.5,61.5,99.5,61.5,99.6,61.5z M99,62l-0.7,0.7l-0.1-0.2L99,62L99,62z M97.9,62.3l-0.1-0.2l0.8-0.6l0.1,0.1
			L97.9,62.3z M97.7,62.6l-0.2,0.2l-0.1-0.2l0.2-0.2L97.7,62.6z M97.1,62.3l-1-1.3c0.1,0,0.2,0,0.3,0l1,1.1L97.1,62.3z M95.9,65.1
			l-0.3-0.4l0.7-0.6l0.3,0.4l-0.4,0.4L95.9,65.1z M98.4,63.3l0.6,0.6l-0.3,0.3l-0.6-0.7L98.4,63.3z M99.2,64.2L99.2,64.2L99,64.6
			l-0.1-0.1L99.2,64.2z M99,61.5l-0.1-0.1C99,61.4,99,61.4,99,61.5L99,61.5z M98.4,61.3l-0.8,0.6l-0.8-0.8
			C97.3,61.1,97.8,61.2,98.4,61.3L98.4,61.3z M95.8,65.7l0.1-0.1l0.7,0.9L96,67L95.8,65.7z M96.1,65.4l0.2-0.2l0.4-0.4l0.6,0.8
			l-0.6,0.7L96.1,65.4z M97,64.5l0.5-0.5l0.6,0.7l-0.6,0.6L97,64.5z M97.8,63.8L97.8,63.8l0.6,0.7l0,0L97.8,63.8z M96.2,67.3
			l0.5-0.6l0.2,0.3l-0.5,0.6L96.2,67.3z M97,66.5l0.6-0.7l0.1,0.2l-0.6,0.7L97,66.5z M97.9,65.6l0.6-0.6l0.1,0.1L98,65.8L97.9,65.6z
			 M98.8,65.4L98.8,65.4l-0.5,0.7l0-0.1L98.8,65.4z M99,65.7l1.4,1.6l-0.6,0.8l-1.3-1.7L99,65.7z M100.6,67.5l1.3,1.5l-0.7,1
			l-1.2-1.6L100.6,67.5z M102.1,69.2l0.4,0.4l-0.4,1.4l-0.6-0.8L102.1,69.2z M96.3,68.3L96.3,68.3L96.3,68.3L96.3,68.3z M96.6,67.9
			l0.5-0.6l0.1,0.1L96.6,67.9L96.6,67.9z M97.4,67l0.6-0.7l0,0.1L97.4,67L97.4,67z M98.2,66.6l1.3,1.7l-0.6,0.8l-1.3-1.8L98.2,66.6z
			 M99.8,68.6l1.2,1.6l-0.6,0.9l-1.2-1.7L99.8,68.6z M101.2,70.5l0.7,0.9l-0.4,1.3l-1-1.3L101.2,70.5z M89.8,67.9l0,0.2l-1,0.8
			l0.6-3.2C89.5,66.5,89.7,67.2,89.8,67.9z M96.9,71.4l0.1,0.3L97,71.7L96.9,71.4z M96.7,70.1l-0.3-1.3l0.1-0.1l1.2,2.1l-0.3,0.5
			L96.7,70.1z M97.8,70.2l0.2,0.2l0,0L97.8,70.2z M96.9,68.3l0.5-0.6l1.3,1.8l-0.5,0.7L96.9,68.3z M98.9,69.7l1.2,1.7l-0.6,0.8
			l-1.2-1.8L98.9,69.7z M100.4,71.7l1,1.4l-0.4,1.2l-1.2-1.8L100.4,71.7z M106.8,77.6l0.1,0.1l-0.1,0.7
			C106.7,78.1,106.7,77.9,106.8,77.6z M106.8,77.1c0.1-0.6,0.2-1.2,0.3-2l0.2,0.2l-0.3,2L106.8,77.1z M107.7,75l0.2-1.4l0.3,0.3
			l-0.2,1.4L107.7,75z M107.4,74.7l-0.1-0.1c0.1-0.4,0.2-0.8,0.3-1.2l0,0L107.4,74.7z M107.7,72.9c0-0.1,0-0.1,0.1-0.2L107.7,72.9
			L107.7,72.9z M106.5,55.3l-0.7,0.6l0,0L106.5,55.3z M105.6,56.1l-0.2,0.2c0,0,0,0,0,0L105.6,56.1L105.6,56.1z M88.7,61.8
			c0,0.1,0,0.1,0,0.2l0,0.2l-0.3,0.2l0.1-0.5L88.7,61.8z M89.1,65.7L88.6,68l0.2-2.2L89.1,65.7z M88.7,69.4l1.1-0.8l0,0.5l-1.2,1
			L88.7,69.4z M90.1,69.8c0,0.2,0.1,0.4,0.1,0.5l-0.2,0.2l0,0L90.1,69.8z M89.9,71l0.3-0.3c0,0,0,0,0,0L89.9,71L89.9,71z M97.4,73.7
			l0.5,1l-0.2,0.3L97.4,73.7z M97.1,72.2L97.1,72.2l0.1-0.2l1.1,2l-0.3,0.4L97.1,72.2z M98.2,73.1l0.4,0.5l0,0.1L98.2,73.1z
			 M97.6,71.5l0.3-0.4l1.1,1.9l-0.3,0.4L97.6,71.5z M98.1,70.8L98.1,70.8l1.3,1.7l-0.1,0.2L98.1,70.8z M99.6,72.8l1.3,1.9l-0.3,0.4
			L99.5,73L99.6,72.8z M106.8,80.4l0.2,0.2l-0.1,0.5C106.9,80.9,106.9,80.6,106.8,80.4z M107.4,80.6l0.3-1.8l0.1,0.1l-0.2,2
			L107.4,80.6z M107.1,80.2l-0.3-0.4l0.3-1.8l0.3,0.4L107.1,80.2z M107.2,77.6l0.3-2l0.3,0.3l-0.3,2L107.2,77.6z M108,73.2l0.3-1.7
			l0.1,0.1l-0.2,1.8L108,73.2z M108.3,71.1l0.2-1.1l0,0l-0.1,1.2L108.3,71.1z M107.6,52.8l-0.3-0.2l0.5-0.4L107.6,52.8z M107.5,53.1
			l-0.2,0.6l-0.5,0.5l-0.9-0.7l1.1-0.8L107.5,53.1z M88.5,60.7l-0.2,1.1L87.8,62l0.6-2.2C88.4,60.1,88.5,60.4,88.5,60.7z M88.2,62.2
			L88,62.7L87.5,63l0.1-0.5L88.2,62.2z M87.1,63.3l-0.3,0.2l0-0.5l0.4-0.2L87.1,63.3z M86.1,67.2l0,0.2l-0.5,0.4l0.8-3.1L86.1,67.2z
			 M87,67.1L86.1,71l0.3-3.4L87,67.1z M87.4,66.9l0.7-0.5l-0.8,3.7l-0.7,0.6L87.4,66.9z M88.4,66.6l-0.2,2.8l-0.5,0.4L88.4,66.6z
			 M88.4,70.6l1.2-1l-0.1,0.9l-0.1,0.4l-1.3,1.1l0.1-1.2L88.4,70.6z M88.2,72.6l1.2-1.1l0,0.2l-1.2,1.2L88.2,72.6z M90.3,71.2
			c0.1,0.6,0.2,1.1,0.3,1.6l-0.8,0.9l0.1-2L90.3,71.2z M90.6,73.2c0.1,0.4,0.1,0.8,0.2,1.1l-1.2,1.4l0.1-1.6L90.6,73.2z M98,75
			l0.8,1.7L98,76.5l-0.2-1.1L98,75z M98.3,74.7l0.3-0.4l1.2,2.2l-0.2,0.4l-0.3-0.1L98.3,74.7z M98.7,74L98.7,74l1.4,1.9l-0.2,0.3
			L98.7,74z M99,73.6l0.2-0.3l1.2,2.1l-0.2,0.3L99,73.6z M107.8,78.3l0.2-1L107.8,78.3L107.8,78.3z M108.4,75.8l0-0.2L108.4,75.8
			L108.4,75.8z M107.9,51.7l-0.9,0.7l-1-0.7L107,51l0.9,0.6L107.9,51.7z M106.7,52.6l-1.1,0.8l-1.1-0.8l1.2-0.8L106.7,52.6z
			 M105.2,53.6l-1.2,0.9l-1.2-0.9l1.3-0.8L105.2,53.6z M105.5,53.8l1,0.7l-1.1,1.1l-1.2-0.9L105.5,53.8z M105.2,55.8l-0.3,0.3l0,0
			c-0.3-0.1-0.5-0.1-0.8-0.2l-0.8-0.6l0.7-0.5L105.2,55.8z M103.3,55.8c-0.1,0-0.3-0.1-0.4-0.1l0.2-0.1L103.3,55.8z M87.4,62.2
			L87,62.5l0.7-2.5l0.4-0.2L87.4,62.2z M87.1,60.7l0-0.4l0.1,0L87.1,60.7z M86.3,63.8L85.9,64l0.1-0.5l0.4-0.3L86.3,63.8z
			 M86.2,64.3l-0.4,1.5l0.1-1.4L86.2,64.3z M86,67.9l-0.8,3.2l0.3-2.9L86,67.9z M85.9,69.4l-0.2,1.9l-0.4,0.3L85.9,69.4z M86.4,71.2
			l0.8-0.6L87,71.3L86.2,72L86.4,71.2z M87.6,70.3l0.5-0.4l0,0.6L87.4,71L87.6,70.3z M88,70.9l-0.3,1.7l-0.8,0.7l0.4-1.8L88,70.9z
			 M87.8,73.7l-0.2,2.1l-0.3,0.4L87.8,73.7L87.8,73.7z M88.2,73.3l1.1-1.1l-0.5,2.4L88,75.4L88.2,73.3z M89.5,72.9L89.4,74l-0.2,0.2
			L89.5,72.9z M89.4,74.5l-0.1,1.6l-0.6,0.7l0.4-2L89.4,74.5z M89.3,76.7l0,0.4l-0.8,1l0.1-0.5L89.3,76.7z M89.6,76.2l1.3-1.5
			c0,0.1,0,0.2,0,0.3l-1.3,1.6L89.6,76.2z M91,75.5c0.2,1.5,0.2,2.3,0.2,3.5c0,0.2,0,0.3,0,0.5L89.3,82l0.3-4.8L91,75.5z M91,80.2
			c-0.4,1.8-1.3,4.2-2,5.8l0.2-3.4L91,80.2z M99.9,76.9l0.1,0.2L99.8,77L99.9,76.9z M100.3,76.2l0.1,0.1l-0.1,0.4l-0.1-0.2
			L100.3,76.2z M100.5,75.9L100.5,75.9L100.5,75.9L100.5,75.9z M107.6,85.2l0.1-1l0.1,0.1l-0.1,1.3
			C107.6,85.5,107.6,85.4,107.6,85.2z M107.7,83.7l0.2-1.9l0.1,0.1l-0.1,1.9L107.7,83.7z M107.9,81.3L107.9,81.3l0.1-0.7L107.9,81.3
			L107.9,81.3z M108.3,77.4l0.1-0.8l0,0l0,0.6L108.3,77.4z M108.2,50.8l-0.4-0.3l0.6-0.4L108.2,50.8z M108.1,51.1l0,0.1l-0.7-0.5
			l0.1-0.1L108.1,51.1z M102.5,53.8l1.2,0.9l-0.7,0.5l-1.2-0.9L102.5,53.8z M102.8,55.4l-0.3,0.2c-0.3-0.1-0.5-0.1-0.8-0.2l-0.7-0.6
			l0.7-0.4L102.8,55.4z M100.9,55.3c-0.2,0-0.4-0.1-0.6-0.1l0.2-0.1L100.9,55.3z M93.7,54l0-0.2l0.3,0.3C93.7,54,93.7,54,93.7,54z
			 M88.1,58.2L88.1,58.2L88.1,58.2C88.1,58.2,88.1,58.2,88.1,58.2z M88.1,58.6c0,0.1,0,0.2,0.1,0.4l-0.1,0.3l-0.4,0.2l0.2-0.8
			L88.1,58.6z M87.3,59.8l-0.2,0.1l0.1-0.8l0.3-0.2L87.3,59.8z M86.6,62.7L86.6,62.7L86.1,63l0.7-2.4L86.6,62.7z M85.2,68L85.2,68
			l-0.6,0.5l0.9-3.2L85.2,68z M85,68.6l-1.1,4.2l-0.7,0.6l1.2-4.3L85,68.6z M84.9,70.2l-0.2,1.9l-0.4,0.3L84.9,70.2z M84.7,72.6
			l-0.1,0.7L84,73.8l0.2-0.9L84.7,72.6z M85.3,72.1l0.5-0.4l-0.1,0.7l-0.6,0.5L85.3,72.1z M86.1,72.5l0.8-0.6l-0.4,1.9l-0.7,0.6
			l0.1-0.9L86.1,72.5z M85.8,74.8l0.6-0.5l-0.1,0.5l-0.5,0.5L85.8,74.8z M86.8,73.9l0.8-0.7l-0.1,0.4l-0.8,0.8L86.8,73.9z
			 M87.4,74.1l-0.5,2.5L86,77.6l0.6-2.6L87.4,74.1z M86.8,77.2l-0.5,2.5l-1,1.2l0.6-2.7L86.8,77.2z M87.2,76.8l0.4-0.4l-0.2,2
			l-0.7,0.9L87.2,76.8z M88,76l0.7-0.7l-0.4,2.1l-0.4,0.5L88,76z M88.1,78L88,78.6l-0.3,0.3l0-0.5L88.1,78z M87.9,79.3l-0.3,1.3
			l0.1-1.1L87.9,79.3z M88.3,78.7l0.9-1.1l-0.3,4.8l-1.6,2.2l0.1-1.2L88.3,78.7z M88.9,83l-0.2,3.9c-0.2,0.4-0.3,0.6-0.3,0.6
			l-0.6,1.4l-1,1.3l0.4-5.1L88.9,83z M101.3,54.2l-0.7,0.4l0,0L101.3,54.2L101.3,54.2z M100.3,54.8l-0.4,0.3c0,0,0,0-0.1,0
			L100.3,54.8L100.3,54.8z M87.7,58.5l-0.3,0.2l0.2-0.6c0.1-0.1,0.2-0.1,0.3-0.2L87.7,58.5z M86.2,61.3l0.1-0.6l0.1-0.1L86.2,61.3z
			 M84.2,68.8l-0.8,0.6l1.2-4.1l0.8-0.5L84.2,68.8z M82.7,74.2l-0.3,0.9l-1,0.8l0.3-1L82.7,74.2z M83.1,73.8l0.7-0.6l-0.2,0.9
			l-0.7,0.6L83.1,73.8z M83.4,74.7l-0.6,2.4L82,77.8l0.7-2.5L83.4,74.7z M83.9,74.3l0.6-0.5L84,76l-0.7,0.6L83.9,74.3z M84.9,73.5
			L84.9,73.5l0.7-0.6l0,0.5l-0.3,1.4l-0.5,0.5L84.9,73.5z M85.3,76.2l-0.2,2.3L84.6,79L85.3,76.2L85.3,76.2z M85.7,75.8l0.4-0.4
			L85.5,78l-0.1,0.1L85.7,75.8z M85.1,81.6l1-1.2L86,81l-0.9,1.1L85.1,81.6z M86.6,79.9l0.8-1l0,0.5l-0.9,1.1L86.6,79.9z M87.3,79.9
			L87,83.3l-0.4,2.2L85,87.6l1.3-6.4L87.3,79.9z M86.5,90.8l-0.8,1.1l1.2-5.8L86.5,90.8z M86.4,91.4l-0.1,0.8l-1.4,3.2l0.6-2.8
			L86.4,91.4z M86.8,90.9l0.4-0.5l-0.4,1L86.8,90.9z M108.9,73.2l0.1-0.9l0.1,0.1l-0.2,1.3L108.9,73.2z M109.4,68.9l-0.1,1.3
			l-0.1-0.1L109.4,68.9z M107.3,50.2l-1.1-0.7l0.7-0.4l1.1,0.7L107.3,50.2z M107,50.4l-0.1,0.1l-1.1-0.8l0.1,0L107,50.4z
			 M106.6,50.6l-1.1,0.7l-1.1-0.8l1.1-0.6L106.6,50.6z M105.1,51.5l-1.2,0.7l-1.2-0.8l1.2-0.7L105.1,51.5z M103.6,52.4l-1.3,0.8
			l-1.2-0.9l1.4-0.8L103.6,52.4z M102,53.4l-0.7,0.4l-1.2-0.9l0.7-0.4L102,53.4z M101,54l-0.7,0.4l-1.2-1l0.7-0.4L101,54z M100,54.6
			L99.3,55c-0.1,0-0.3,0-0.4-0.1l-1-0.8l0.9-0.5L100,54.6z M98.2,54.8c-0.4-0.1-0.8-0.1-1.2-0.2l0.5-0.3L98.2,54.8z M87.9,57.4
			L87.9,57.4c-0.1,0.1-0.2,0.2-0.3,0.2l0.2-0.8C87.9,57,87.9,57.2,87.9,57.4z M86.9,58.8L86.9,58.8l-0.5,0.3l0.1-0.6
			c0.1-0.1,0.3-0.1,0.4-0.2L86.9,58.8z M86.8,59.3l-0.2,0.9l-0.2,0.1l0.1-0.8L86.8,59.3z M86,60.5l-0.1,0.1l0.2-0.6L86,60.5z
			 M86,60.9l-0.3,2.3l0,0L85,63.7l0.8-2.7L86,60.9z M85.6,63.7l-0.2,0.6l-0.7,0.5l0.2-0.7L85.6,63.7z M84.2,65.1l-1.1,0.7l0.2-0.7
			l1.1-0.6L84.2,65.1z M84.1,65.6l-1.2,4.1l-1.2,0.8l1.3-4.2L84.1,65.6z M81.3,70.8L80,71.8l1.4-4.4l1.2-0.7L81.3,70.8z M81.1,71.4
			L79.8,76l-1.4,1.1l1.5-4.8L81.1,71.4z M79.6,76.6l-0.3,1.1l-1.4,1.1l0.4-1.2L79.6,76.6z M80,76.2l1.2-1l-0.3,1l-1.3,1L80,76.2z
			 M80.8,76.8L80,79.6l-1.3,1.2l0.9-3L80.8,76.8z M81.3,76.5l1-0.8l-0.7,2.6l-1,1L81.3,76.5z M81.4,78.8L81,80l-1.1,1.1l0.4-1.3
			L81.4,78.8z M81.8,78.4l0.8-0.8l-0.2,1l-0.9,0.9L81.8,78.4z M83.1,77.2l0.7-0.6l-0.2,0.8l-0.7,0.7L83.1,77.2z M84.2,76.2
			L84.2,76.2l0,0.6L84.1,77L84.2,76.2z M84.7,75.8l0.4-0.4L85,76.1l-0.4,0.4L84.7,75.8z M84.8,76.7l-0.5,2.1l0.2-1.8L84.8,76.7z
			 M85,82.7l0.8-1l-1.3,6.5l-0.1,0.1L85,82.7z M84.1,88.8l-0.9,1.1l1.3-6L84.1,88.8z M84.9,88.3l1.6-2.1l-1.3,6.3l-1.2,1.8l0.2-2.6
			L84.9,88.3z M83.6,94.9L83.6,94.9L83.6,94.9L83.6,94.9z M83.5,95.5l-0.4,4.3l-1,2.3l1.3-6.4L83.5,95.5z M83.9,95l1.1-1.6L84.3,97
			l-0.8,1.8L83.9,95z M108.2,88.5L108.2,88.5C108.2,88.5,108.2,88.5,108.2,88.5L108.2,88.5z M108.1,87.4l0.1-2.4l0.2,0.3l-0.1,2.4
			L108.1,87.4z M108.2,84.5l0.1-2l0.2,0.3l-0.1,2L108.2,84.5z M108.4,82l0.1-2.1l0.2,0.3l-0.1,2.1L108.4,82z M108.5,79.4l0.1-2.3
			l0.2,0.2l-0.1,2.3L108.5,79.4z M108.8,76.2l0.2-1.4l0,0l-0.1,1.6L108.8,76.2z M109.2,72l-0.2-0.2l0.1-1.3l0.2,0.2l-0.1,1.2
			L109.2,72z M108.8,48.5l-0.5-0.3l0.6-0.4L108.8,48.5z M108.7,48.8l-0.2,0.6l-0.3,0.2l-1.1-0.7l0.9-0.5L108.7,48.8z M104,50.3
			L104,50.3l0.9-0.5L104,50.3z M103.7,50.5l-1.2,0.7l-0.1-0.1L103.7,50.5L103.7,50.5z M102.1,51.4l-1.4,0.8l-0.1-0.1L102.1,51.4
			L102.1,51.4z M100.5,52.3l-0.7,0.4l-0.2-0.1l0.7-0.4L100.5,52.3z M99.4,52.9l-0.7,0.4l-0.2-0.2l0.7-0.4L99.4,52.9z M98.5,53.4
			l-0.8,0.5l-0.2-0.2l0.9-0.5L98.5,53.4z M97.3,54.1l-0.8,0.4c-0.2,0-0.3-0.1-0.5-0.1l1-0.5L97.3,54.1z M94.7,54.1L94,53.5l0.1,0
			l0.7,0.6C94.8,54.1,94.7,54.1,94.7,54.1z M93.7,53.3l-0.2-0.2l0-0.1L93.7,53.3L93.7,53.3z M87.7,56L87.5,56l0.1-0.6
			C87.6,55.6,87.6,55.8,87.7,56z M87.6,56.3L87.4,57l0.1-0.6L87.6,56.3z M87,57.9c-0.1,0.1-0.3,0.1-0.4,0.2l0.4-1.5l0.1-0.1L87,57.9
			z M85.5,60.8l-1,0.6l0.3-1l1-0.5L85.5,60.8z M85.3,61.3L84.6,64l-1.1,0.6l0.8-2.7L85.3,61.3z M83.1,64.8L82,65.5l0.9-2.8l1.1-0.6
			L83.1,64.8z M82.9,65.3l-0.2,0.8l-1.2,0.7l0.2-0.8L82.9,65.3z M81.1,67.1L80,67.8l0.3-0.9l1.1-0.7L81.1,67.1z M81,67.6l-1.4,4.5
			l-1.1,0.8l1.4-4.6L81,67.6z M79.4,72.6l-1.5,4.9l-1.2,0.9l1.5-5L79.4,72.6z M77.8,78l-0.4,1.2l-1.2,1l0.4-1.2L77.8,78z M77.2,79.8
			l-1,3.3L75,84.2l1.1-3.4L77.2,79.8z M77.7,79.4l1.4-1.1l-0.9,3l-1.5,1.4L77.7,79.4z M78,81.9l-0.5,1.6L76,85l0.5-1.8L78,81.9z
			 M78.5,81.5l1.4-1.2l-0.4,1.3L78,83L78.5,81.5z M79.3,82.2l-1,3.4l-1.5,1.6l1.1-3.6L79.3,82.2z M79.7,81.7l1.1-1.1L80,83.9
			l-1.2,1.3L79.7,81.7z M81.3,80.1l0.9-0.9l-0.8,3.1l-1,1L81.3,80.1z M82.7,78.8l0.7-0.7L82.7,81l-0.8,0.8L82.7,78.8z M83.9,77.6
			l0.3-0.3l-0.3,2.4l-0.7,0.8L83.9,77.6z M83.8,80.3l-0.1,1.2l-0.4,1.7l-1.2,1.4l0.9-3.4L83.8,80.3z M83.9,83.1l0.8-0.9l-0.2,0.7
			l-0.7,0.8L83.9,83.1z M84.3,83.6l-1,4.6l0.4-3.9L84.3,83.6z M83.1,90.7l1-1.3l-0.2,2.3l-0.8,3.8l-0.7,1l0.6-5.3L83.1,90.7z
			 M82.9,96.3l-1.1,5.5l0.5-4.7L82.9,96.3z M95.1,91.1l0.1,0.4l-0.8,1.6L95.1,91.1z M95.3,90.5l1.1-2.9l0.6,0.2l-1.6,3.3L95.3,90.5z
			 M102.1,50.9L102.1,50.9c0.2-0.1,0.4-0.2,0.5-0.3L102.1,50.9z M101.7,51.1l-1.4,0.7l-0.1,0C100.8,51.5,101.2,51.3,101.7,51.1
			L101.7,51.1z M100,52l-0.7,0.4l-0.1-0.1C99.5,52.2,99.7,52,100,52L100,52z M99,52.5l-0.7,0.3l-0.1-0.1
			C98.4,52.7,98.7,52.6,99,52.5L99,52.5z M98,53l-0.9,0.5L97,53.4c0.3-0.1,0.6-0.3,0.9-0.4L98,53z M96.8,53.7l-1.2,0.6l-0.2-0.1
			c0.4-0.2,0.8-0.4,1.2-0.6L96.8,53.7z M95.2,53.9l-0.7-0.6l1.2-0.6l0.7,0.5C96,53.5,95.6,53.7,95.2,53.9z M94.2,53.1l-0.8-0.6
			l1.2-0.5l0.8,0.6L94.2,53.1z M93.3,52.1L93,50.6l1.3,1L93.3,52.1z M87.2,56.2L87.2,56.2l0-0.1L87.2,56.2z M85.9,59.4l-1,0.5
			l0.2-0.7c0.3-0.2,0.6-0.3,1-0.5L85.9,59.4z M84.5,60.1l-1.1,0.6l0.2-0.8c0.3-0.2,0.7-0.3,1-0.5L84.5,60.1z M84.4,60.6l-0.3,1
			L83,62.2l0.3-1.1L84.4,60.6z M82.5,62.5l-1.1,0.6l0.4-1.2l1-0.6L82.5,62.5z M82.4,62.9l-0.9,2.9l-1.1,0.7l0.9-2.9L82.4,62.9z
			 M80,66.7l-0.6,0.4l0.9-3l0.6-0.3L80,66.7z M79.9,67.2l-0.3,0.9L79,68.5l0.3-0.9L79.9,67.2z M79.4,68.6L78,73.2l-0.7,0.5l1.5-4.8
			L79.4,68.6z M77.9,73.7l-1.5,5l-0.8,0.7l1.6-5.2L77.9,73.7z M76.1,79.3l-0.4,1.2l-0.9,0.7l0.4-1.3L76.1,79.3z M75.6,81.2l-1.1,3.5
			l-1,0.9l1.2-3.7L75.6,81.2z M74.3,85.3l-0.6,2.1l-1,1l0.7-2.2L74.3,85.3z M74.8,84.8l1.3-1.1l-0.6,1.8l-1.3,1.3L74.8,84.8z
			 M75.3,86.2L74.1,90l-1.3,1.4l1.2-3.9L75.3,86.2z M75.8,85.7l1.6-1.6l-1.1,3.6l-1.7,1.7L75.8,85.7z M76.1,88.4l-1.6,5.2l-1.9,2.2
			l1.7-5.7L76.1,88.4z M76.6,87.9l1.5-1.6l-1.4,4.7L75,93L76.6,87.9z M78.6,85.8l1.2-1.3l-1.2,4.3l-1.4,1.6L78.6,85.8z M80.3,84
			l1-1.1l-1,3.9l-1.2,1.4L80.3,84z M81.7,82.5l0.8-0.8l-0.9,3.5l-0.9,1.1L81.7,82.5z M81.5,85.9l-0.2,0.9l-0.9,1.2l0.3-1L81.5,85.9z
			 M82,85.3l1.2-1.4L83,84.7l-1.2,1.5L82,85.3z M83.4,84.8l-0.6,5.9l-1.1,1.5l1.7-7.2L83.4,84.8z M82,97.1l-0.5,0.6l0.8-3.5L82,97.1
			z M81.9,97.7l-0.7,6.4l-2.2,5.2l2.4-10.8L81.9,97.7z M93.2,96.2l2.1-4.2l0.3,2.1l-4.8,10.7l0.1-2.3L93.2,96.2z M95.5,91.5l1.7-3.5
			l0.3,1.6l-1.8,3.9L95.5,91.5z M97.5,87.8l0.7,0.2l-0.5,1L97.5,87.8z M109.8,68.7L109.8,68.7L109.8,68.7L109.8,68.7z M109.8,68.3
			l0-0.4l0.1,0.1L109.8,68.3L109.8,68.3z M110,67.6l-0.1-0.1l0-0.8l0.2,0.2L110,67.6z M110.4,63L110.4,63l-0.1,1.2l-0.1-0.1
			L110.4,63z M111.2,60.2L111.2,60.2l-0.1,1l-0.1-0.1L111.2,60.2z M101.7,50.7l-0.5-0.4l1.3-0.6L103,50
			C102.6,50.2,102.2,50.4,101.7,50.7z M101.4,50.8c-0.5,0.2-0.9,0.5-1.4,0.7l-0.6-0.4l1.5-0.7L101.4,50.8z M99.6,51.7
			c-0.2,0.1-0.5,0.2-0.7,0.4l-0.6-0.5l0.7-0.3L99.6,51.7z M98.6,52.2c-0.2,0.1-0.4,0.2-0.7,0.3l-0.6-0.5l0.7-0.3L98.6,52.2z
			 M97.6,52.7c-0.3,0.1-0.6,0.3-0.9,0.4L96,52.6l0.9-0.4L97.6,52.7z M95.7,52.4L95,51.7l0.9-0.4l0.8,0.6L95.7,52.4z M94.7,51.5
			L93,50.1l0-0.1l0.8-0.3l1.8,1.4L94.7,51.5z M92.9,49.7L92.7,49l0.6,0.5L92.9,49.7z M87.4,54.2l0,0.1l-0.2,0.5l-0.3,0.1l0.2-2
			C87.2,53.3,87.3,53.8,87.4,54.2z M87.1,55.2l-0.3,1l0.1-0.9L87.1,55.2z M86.3,58.1l-0.1,0.3c-0.3,0.2-0.6,0.3-1,0.5l0.5-1.6
			l0.7-0.3L86.3,58.1z M84.8,59c-0.3,0.2-0.7,0.3-1,0.5l0.5-1.7l1-0.4L84.8,59z M83.4,59.7c-0.3,0.2-0.7,0.3-1,0.5l0.5-1.8l1-0.5
			L83.4,59.7z M83.3,60.1L83,60.9l-1,0.6l0.2-0.8C82.6,60.5,82.9,60.3,83.3,60.1z M81.6,61.7L81,62l0.3-0.9c0.2-0.1,0.3-0.2,0.5-0.2
			L81.6,61.7z M81.4,62.1l-0.4,1.2l-0.6,0.3l0.4-1.2L81.4,62.1z M80.1,63.9l-0.8,0.4l0.4-1.3l0.8-0.4L80.1,63.9z M79.9,64.3l-1,3
			l-0.8,0.5l1-3L79.9,64.3z M78.8,67.8l-0.3,0.9l-0.8,0.5l0.3-1L78.8,67.8z M78.4,69.2l-1.5,4.8L76,74.7l1.6-4.9L78.4,69.2z
			 M76.7,74.6L75,79.8l-1,0.8l1.7-5.3L76.7,74.6z M74.8,80.4l-0.4,1.3l-1,0.8l0.4-1.4L74.8,80.4z M74.2,82.3L73.1,86l-1.1,1l1.2-3.9
			L74.2,82.3z M72.9,86.6l-0.7,2.3L71,90l0.8-2.4L72.9,86.6z M71.9,89.6l-1.3,4.1l-1.2,1.2l1.4-4.2L71.9,89.6z M72.4,89.1l1.1-1
			l-1.2,3.9l-1.1,1.2L72.4,89.1z M72,92.6l-1.9,6.2l-1.3,1.6l2.1-6.6L72,92.6z M72.6,92.1l1.3-1.4l-1.8,5.8l-1.4,1.7L72.6,92.1z
			 M71.9,97.3l-0.5,1.5l-1.5,1.8l0.5-1.6L71.9,97.3z M72.4,96.7l1.9-2.2l-0.4,1.3L72,98.1L72.4,96.7z M74.8,93.8l1.7-2l-0.4,1.2
			l-1.7,2.1L74.8,93.8z M77,91.2l1.4-1.6l-0.3,1.1l-1.4,1.7L77,91.2z M78.9,89l1.2-1.4l-0.3,1l-1.2,1.5L78.9,89z M79.6,89.3
			l-2.2,8.3l-1.5,2l2.4-8.8L79.6,89.3z M80.1,88.7l1-1.2l-2,7.9L78,96.9L80.1,88.7z M81.6,87l1.2-1.5l-1.7,7.3l-1.5,2L81.6,87z
			 M80.9,93.5l-1.7,7.5l-1.8,2.6l2-8L80.9,93.5z M81.4,92.9l1.2-1.6l-1.6,7.1l-1.4,1.9L81.4,92.9z M80.9,99.2l-2.4,11.2l-1.6,2.6
			l2.7-11.8L80.9,99.2z M87.2,112.1l0,0.6l-1.2,2.7L87.2,112.1z M87.6,111l2.8-7.5l-0.1,2.1l-2.8,6.2L87.6,111z M90.3,106.5l-0.2,4
			l-3,7.5l0.3-5.2L90.3,106.5z M90.7,105.7l5-11l0.2,1.5l-5.3,13.4L90.7,105.7z M95.9,94.2l1.8-4l0.2,0.9l-1.8,4.5L95.9,94.2z
			 M97.9,89.6l0.7-1.5l0.4,0.1l-0.9,2.2L97.9,89.6z M99.3,88.4l0.1,0.3l-1,2.9l-0.1-0.6L99.3,88.4z M108.5,89.9l0.1-0.9l0.3,0.5
			l-0.1,1.3L108.5,89.9z M108.6,88.2l0.1-2.5l0.3,0.4l-0.2,2.5L108.6,88.2z M108.8,85.2l0.1-2l0.3,0.4l-0.1,2.1L108.8,85.2z
			 M108.9,82.7l0.1-2.1l0.3,0.4l-0.1,2.1L108.9,82.7z M109.1,80l0.1-2.4l0.3,0.4l-0.1,2.4L109.1,80z M109.3,76.8l0.1-1.6l0.3,0.3
			l-0.1,1.6L109.3,76.8z M109.4,74.7l0.1-1.9l0.3,0.3l-0.1,2L109.4,74.7z M109.5,72.3l0-0.7l0.1-0.6l0.2,0.2l-0.1,1.3L109.5,72.3z
			 M109.8,70.7L110,69l0,0l-0.1,1.9L109.8,70.7z M110.2,66.4l-0.2-0.2l0-0.4l0.2-1.4l0.2,0.1l-0.1,1.3L110.2,66.4z M110.8,62.6
			l0.1-1.2l0.1,0.1L110.8,62.6L110.8,62.6z M104.9,49.1l-0.4-0.3l0.1,0L104.9,49.1C105,49.1,104.9,49.1,104.9,49.1z M104.6,49.3
			c-0.4,0.2-0.8,0.4-1.2,0.6l-0.5-0.3l1.2-0.6L104.6,49.3z M102.6,49.3l-0.9-0.6l1.2-0.5l0.9,0.6L102.6,49.3z M102.2,49.5l-1.3,0.6
			l-0.8-0.6l1.3-0.6L102.2,49.5z M100.6,50.2l-1.5,0.7l-0.8-0.6l1.5-0.7L100.6,50.2z M98.7,51L98,51.4l-0.8-0.6l0.7-0.3L98.7,51z
			 M97.6,51.5L97,51.8l-0.8-0.6l0.7-0.3L97.6,51.5z M95.9,51l-1.8-1.4l0.6-0.2l1.8,1.4L95.9,51z M93.8,49.3l-1.1-0.9l-0.1-0.8
			l1.9,1.4L93.8,49.3z M86.6,55.1l-0.3,0.1l0.4-1.5L86.6,55.1z M86.5,55.5l-0.1,1l-0.6,0.3l0.3-1.1L86.5,55.5z M85.4,57l-1,0.4
			l0.3-1.1l1-0.4L85.4,57z M84,57.6L83,58l0.3-1.1l1-0.5L84,57.6z M82.6,58.2l-0.5,0.2l0.4-1.1l0.4-0.2L82.6,58.2z M82.5,58.6
			l-0.5,1.8c-0.2,0.1-0.3,0.2-0.5,0.2l0.6-1.8L82.5,58.6z M81,60.9c-0.2,0.1-0.5,0.2-0.7,0.4l0.6-1.9l0.7-0.3L81,60.9z M80.9,61.3
			l-0.3,0.9l-0.7,0.4l0.3-0.9C80.4,61.5,80.7,61.4,80.9,61.3z M79.5,62.8l-1.2,0.6l0.3-1c0.4-0.2,0.8-0.4,1.2-0.6L79.5,62.8z
			 M79.3,63.2l-0.4,1.3l-1.2,0.7l0.4-1.4L79.3,63.2z M78.7,65l-1,3.1l-1.3,0.8l1-3.1L78.7,65z M77.6,68.6l-0.3,1L76,70.4l0.3-1
			L77.6,68.6z M77.1,70l-1.6,5l-1.3,1l1.7-5.1L77.1,70z M75.3,75.6l-1.7,5.4L72.2,82l1.8-5.5L75.3,75.6z M73.4,81.5L73,82.9L71.6,84
			l0.5-1.4L73.4,81.5z M72.8,83.5l-1.3,3.9l-1.4,1.3l1.3-4.1L72.8,83.5z M71.3,88l-0.8,2.5L69,92l0.9-2.7L71.3,88z M70.3,91.2
			l-1.4,4.3l-1.5,1.6l1.4-4.4L70.3,91.2z M68.7,96.2l-2.3,7.2l-1.7,2l2.4-7.5L68.7,96.2z M69.2,95.6l1.2-1.2l-2.1,6.7l-1.3,1.6
			L69.2,95.6z M68,102l-0.5,1.7l-1.4,1.7l0.6-1.8L68,102z M68.5,101.3l1.4-1.6l-0.5,1.6L68,103L68.5,101.3z M69.1,102.1l-3.4,10.9
			l-1.7,2.3l3.6-11.5L69.1,102.1z M69.7,101.4l1.5-1.8l-3.2,10.6l-1.6,2.1L69.7,101.4z M71.7,99l1.9-2.4l-3,9.9l-2.2,2.9L71.7,99z
			 M74.2,96l1.7-2.1l-2.7,9.4l-1.9,2.5L74.2,96z M76.4,93.2l1.4-1.7l-2.5,8.9l-1.7,2.2L76.4,93.2z M75.1,101.2l-2.5,9.1l-1.9,2.7
			l2.8-9.6L75.1,101.2z M75.7,100.5l1.6-2.1l-2.2,8.5l-1.9,2.6L75.7,100.5z M77.8,97.7l1.1-1.5l-2,8.1l-1.3,1.9L77.8,97.7z
			 M76.7,105.2l-3.3,13.3l-1.7,2.7l3.7-14.1L76.7,105.2z M77.2,104.4l1.8-2.6l-2.8,12l-2.4,3.7L77.2,104.4z M76.1,114.8l-0.7,3
			l-3.6,8.3l1.9-7.5L76.1,114.8z M76.6,114l1.4-2.2l-1.9,4.3L76.6,114z M84.1,120.3L84.1,120.3l-0.5,6.8l-3.5,8.8l0.6-6.6
			L84.1,120.3z M84.5,119.4l2.6-5.8l-0.3,5.4l-2.8,7.1L84.5,119.4z M86.7,120l-0.3,5.6l-3.1,8.8l0.6-7.3L86.7,120z M87.1,119.1
			l3-7.6l-0.2,4l-3.2,9L87.1,119.1z M90.5,110.6l5.4-13.7l0.2,1.2l-5.8,16.4L90.5,110.6z M96.2,96.2l1.8-4.6l0.1,0.6l-1.8,5.1
			L96.2,96.2z M98.2,92.9l0.2,0.8l-1.8,5.6L96.4,98L98.2,92.9z M98.4,92.3l1-3l0.1,0.6l-1,3.1L98.4,92.3z M99.8,90.5l1,4.2l-1,3.8
			l-1-4.8L99.8,90.5z M100.9,95.4l0.4,1.5l-0.9,4.6l-0.5-2.3L100.9,95.4z M101.4,97.7l0.1,0.6l-0.9,4.8l-0.2-0.8L101.4,97.7z
			 M101.8,99.1l0.1,0.3l-0.9,5.1l-0.1-0.5L101.8,99.1z M102,100.2l0.1,0.5l-0.9,5.2l-0.1-0.6L102,100.2z M102.4,101.7l0.2,0.8
			l-0.9,5.4l-0.2-0.9L102.4,101.7z M102.8,103.3l0.2,0.8l-1,5.5l-0.2-0.9L102.8,103.3z M103.1,104.9l0.2,0.8l-1,5.6l-0.2-0.9
			L103.1,104.9z M103.5,106.6l1.4,5.9l-0.7,8l-1.7-8.2L103.5,106.6z M105.1,113.4l0.3,1.3l-0.7,8.6l-0.4-1.7L105.1,113.4z
			 M105.7,115.8l0.3,1.1l-0.6,9.3l-0.4-1.8L105.7,115.8z M106.2,118.1l0.2,0.7l-0.6,9.5l-0.2-0.8L106.2,118.1z M109,91.7l0.1-1.7
			l0.3,0.5l-0.1,2L109,91.7z M109.2,89.1l0.2-2.5l0.3,0.4l-0.2,2.6L109.2,89.1z M109.4,86.1l0.1-2.1l0.3,0.4l-0.1,2.1L109.4,86.1z
			 M109.5,83.5l0.1-2.2l0.3,0.4l-0.1,2.2L109.5,83.5z M109.7,80.8l0.1-2.4l0.3,0.4l-0.1,2.4L109.7,80.8z M109.9,77.9L109.9,77.9
			l0.3,0.3l0,0L109.9,77.9z M109.9,77.5l0.1-1.6l0.3,0.3l-0.1,1.6L109.9,77.5z M110,75.4l0.1-2l0.3,0.3l-0.1,2L110,75.4z M110.2,73
			l0.1-1.4l0.3,0.3l-0.1,1.4L110.2,73z M110.3,71.2l0.1-1.9l0.3,0.3l-0.1,1.9L110.3,71.2z M110.4,68.8l0-0.4l0.3,0.3l0,0.4
			L110.4,68.8z M110.5,68l0-0.8l0.3,0.3l0,0.8L110.5,68z M110.5,66.8l0.1-0.9l0.2-1l0.2,0.2l-0.1,1.9L110.5,66.8z M110.8,64.5
			l0.2-1.3l0,0l-0.1,1.4L110.8,64.5z M109.3,46.9c-0.5,0.2-1,0.5-1.6,0.8l-0.3-0.2l2-0.9L109.3,46.9z M107.3,47.9
			c-0.3,0.1-0.6,0.3-0.9,0.5l-0.3-0.2l0.9-0.4L107.3,47.9z M106.1,48.5c-0.2,0.1-0.5,0.2-0.7,0.4l-0.4-0.3l0.8-0.3L106.1,48.5z
			 M104.6,48.4l-0.9-0.6l0.7-0.3l0.9,0.6L104.6,48.4z M104.3,48.6L104.3,48.6l-0.9-0.6l0,0L104.3,48.6z M103,47.8l-0.9-0.7L103,47.8
			L103,47.8z M102.7,48l-1.2,0.5l-1.7-1.2l1.3-0.5L102.7,48z M101.1,48.7l-1.3,0.6L98.1,48l1.3-0.5L101.1,48.7z M99.4,49.4l-1.5,0.7
			l-1.8-1.3l1.5-0.6L99.4,49.4z M97.6,50.2l-0.7,0.3l-1.8-1.4l0.7-0.3L97.6,50.2z M94.7,48.9l-2.3-1.7l-0.2-0.9l3.2,2.3L94.7,48.9z
			 M86.9,51.8l0,0.2l0,0.1L86,52.3l0.7-2.2C86.8,50.7,86.9,51.2,86.9,51.8z M86.8,52.4l-0.9,3l-1,0.4l0.9-3.1L86.8,52.4z M84.5,56
			l-1,0.5l1-3.2l1-0.4L84.5,56z M83.1,56.6l-0.4,0.2l1-3.3l0.4-0.2L83.1,56.6z M82.3,57l-0.7,0.3l1.1-3.3l0.7-0.3L82.3,57z
			 M82.1,57.4l-0.4,1.1l-0.7,0.3l0.4-1.1L82.1,57.4z M80.7,59.1l-1.2,0.5l0.4-1.1l1.2-0.5L80.7,59.1z M80.5,59.5l-0.6,1.9
			c-0.4,0.2-0.8,0.4-1.2,0.6l0.6-2L80.5,59.5z M78.3,62.2c-0.2,0.1-0.5,0.2-0.7,0.4l0.7-2.1l0.7-0.3L78.3,62.2z M78.1,62.7l-0.3,1
			L77,64l0.3-1C77.6,62.9,77.9,62.8,78.1,62.7z M77.7,64.1l-0.4,1.4l-0.8,0.4l0.5-1.4L77.7,64.1z M77.1,66l-1,3.1l-0.8,0.5l1-3.2
			L77.1,66z M75.9,69.6l-0.3,1.1l-0.8,0.5l0.4-1.1L75.9,69.6z M75.4,71.1l-1.7,5.2l-0.9,0.6l1.7-5.3L75.4,71.1z M73.6,76.8l-1.8,5.5
			l-1,0.8l1.8-5.6L73.6,76.8z M71.6,82.9l-0.5,1.5l-1,0.8l0.5-1.5L71.6,82.9z M70.9,85l-1.3,4.2l-1,1l1.4-4.3L70.9,85z M69.4,89.8
			l-0.9,2.7l-1.1,1.1l0.9-2.9L69.4,89.8z M68.3,93.2l-1.4,4.4l-1.2,1.2l1.5-4.5L68.3,93.2z M66.6,98.4l-2.5,7.7l-1.3,1.6l2.6-8
			L66.6,98.4z M63.9,106.9l-0.6,1.9l-1.3,1.6l0.7-2L63.9,106.9z M64.4,106.2l1.7-2l-0.6,1.8l-1.7,2.1L64.4,106.2z M65.2,106.9
			L61.3,119l-1.8,2.4l4-12.4L65.2,106.9z M65.8,106.2l1.4-1.7l-3.7,11.6l-1.6,2.1L65.8,106.2z M63.2,117l-3.8,12l-1.8,2.5l4-12.4
			L63.2,117z M63.8,116.3l1.7-2.3L62,125.3l-2,2.9L63.8,116.3z M61.7,126.3l-2.4,7.8c-0.4-0.1-0.8-0.1-1.1-0.2l1.5-4.7L61.7,126.3z
			 M62.3,125.4l1.7-2.3l-3.5,11.3c-0.3-0.1-0.6-0.1-0.9-0.2L62.3,125.4z M62.6,124.4l3.4-11.2l1.6-2.1l-3.4,11L62.6,124.4z
			 M68.2,110.4l2.2-2.9l-3.1,10.3l-2.5,3.5L68.2,110.4z M71,106.7l1.9-2.6l-2.8,9.7l-2.2,3L71,106.7z M70.4,114l1.9-2.7L68,127.1
			l-2.5,3.9L70.4,114z M72.9,110.5l1.9-2.7l-3.7,14.3l-2.5,4L72.9,110.5z M71.4,122.2l1.7-2.7l-2.1,8.2l-2,3.5L71.4,122.2z
			 M78.1,136.2l2.1-5.7l-0.6,6.6l-0.6,1.5c-0.4-0.1-0.8-0.2-1.2-0.3L78.1,136.2z M79.5,138.2l0,0.4c0,0-0.1,0-0.1,0L79.5,138.2z
			 M80,137.1l3.5-8.9l-0.6,7.5l-1.2,3.4c-0.6-0.2-1.2-0.3-1.9-0.5L80,137.1z M81.9,148.2l-0.1,0.8l-2.9-0.2l0.1-1.4L81.9,148.2z
			 M82,139.2l0.8-2.2l-0.2,2.4C82.4,139.3,82.2,139.3,82,139.2z M86.7,125.7l3.2-9.1l-0.1,3.6l-3.3,10.2L86.7,125.7z M90.3,115.6
			l5.9-16.9l0.2,1.2l-6.2,19.1L90.3,115.6z M96.5,100.7l0.9,6.4L89.5,136l0.6-15.7L96.5,100.7z M96.7,100l1.8-5.6l1,4.9l-1.9,7.1
			L96.7,100z M99.7,100l0.5,2.4l-1.8,9.2l-0.6-4.4L99.7,100z M100.3,103.2l0.2,0.8l-1.9,9.8l-0.2-1.3L100.3,103.2z M100.7,104.9
			l0.1,0.6L99,116l-0.2-1.2L100.7,104.9z M101,106.3l0.1,0.6l-1.9,10.8l-0.1-0.7L101,106.3z M101.3,107.9l0.2,0.9l-1.9,11.2
			l-0.1-1.1L101.3,107.9z M101.6,109.6l0.2,0.9l-2,11.6l-0.1-1.1L101.6,109.6z M102,111.4l0.2,0.9l-2.1,11.9l-0.1-1.1L102,111.4z
			 M102.4,113.1l1.7,8.4l-1.6,19l-2.2-15.3L102.4,113.1z M104.3,122.7l0.4,1.8l-1.6,20.8l-0.5-3.2L104.3,122.7z M105.6,128.8
			l0.2,0.8l-1.1,18.3c-0.1,0-0.1-0.1-0.2-0.1L105.6,128.8z M106.7,120l0.3,1.1l-0.6,9.8l-0.3-1.2L106.7,120z M107.2,122.2l0.3,1.1
			l-0.6,10l-0.3-1.2L107.2,122.2z M107.7,124.5l0.3,1.1l-0.6,10.3l-0.3-1.2L107.7,124.5z M109.6,93.5l0.1-2.4l0.3,0.5l-0.2,2.8
			L109.6,93.5z M109.8,90l0.2-2.6l0.3,0.4l-0.2,2.6L109.8,90z M110,86.9l0.1-2.1l0.3,0.4l-0.1,2.1L110,86.9z M110.1,84.3l0.1-2.2
			l0.3,0.4l-0.1,2.2L110.1,84.3z M110.3,81.6l0.1-2.4l0.3,0.4l-0.1,2.5L110.3,81.6z M110.5,78.7L110.5,78.7l0.3,0.3l0,0.1
			L110.5,78.7z M110.5,78.2l0.1-1.6l0.3,0.3l-0.1,1.7L110.5,78.2z M110.6,76.1l0.1-2l0.3,0.3l-0.1,2L110.6,76.1z M110.8,73.6
			l0.1-1.4l0.3,0.3l-0.1,1.4L110.8,73.6z M110.9,71.8l0.1-1.9l0.3,0.3l-0.1,2L110.9,71.8z M111,69.4l0-0.5l0.3,0.3l0,0.5L111,69.4z
			 M111.1,68.5l0.1-0.8l0.3,0.3l-0.1,0.9L111.1,68.5z M111.2,67.3l0.1-2l0.3,0.3l-0.1,2L111.2,67.3z M111.3,64.9l0.1-1.4l0.3,0.2
			l-0.1,1.4L111.3,64.9z M111.4,63.1l0.1-1.2l0.3,0.2l-0.1,1.2L111.4,63.1z M111.5,61.5l0.1-1.1l0.3,0.2l-0.1,1.1L111.5,61.5z
			 M111.6,60.1l0.3-1.7l0.1,0.1l-0.1,1.8L111.6,60.1z M112,58l0.1-0.8L112,58L112,58z M109.5,46.3l-2.4,1.1l-0.9-0.6l3.7-1.6
			L109.5,46.3z M106.7,47.5l-0.9,0.4l-0.9-0.6l0.9-0.4L106.7,47.5z M104.5,47.1l-1.6-1l0.9-0.4l1.6,1L104.5,47.1z M104.1,47.3
			l-0.7,0.3l-1.6-1.1l0.8-0.3L104.1,47.3z M101.4,46.3L91,39.5l-0.1-0.7l11.3,7.3L101.4,46.3z M100.7,46.6l-1.3,0.5l-8-5.6L91.1,40
			L100.7,46.6z M99.1,47.3l-1.3,0.5l-6-4.3L91.5,42L99.1,47.3z M97.4,47.9l-1.5,0.6l-3.6-2.7L91.8,44L97.4,47.9z M85.6,52.5l-1,0.4
			l1.6-5.3c0.1,0.6,0.2,1.2,0.3,1.8L85.6,52.5z M86.1,46.9L84.2,53l-0.4,0.2l2.2-6.8C86,46.5,86.1,46.7,86.1,46.9z M85.9,45.6
			l-2.4,7.7l-0.7,0.3l2.9-9C85.8,44.9,85.8,45.3,85.9,45.6z M82.4,53.7l-1.2,0.5l4-12.4c0.1,0.7,0.2,1.4,0.4,2.1L82.4,53.7z
			 M82.2,54.2l-1.1,3.4L80,58l1.1-3.4L82.2,54.2z M79.6,58.2l-0.7,0.3L80,55l0.7-0.3L79.6,58.2z M79.4,58.6l-0.4,1.1l-0.7,0.3
			l0.4-1.1L79.4,58.6z M77.8,60.7l-0.7,2.1C40.1,81-14.3,107.7-35,117.5c-3.9-0.6-7.7-1.2-11.3-1.7L77.8,60.7z M77,63.2l-0.3,1
			L-27,118.8c-2.6-0.4-5-0.8-7.4-1.2C-13.4,107.6,40.2,81.3,77,63.2z M76.5,64.7L76,66.2l-94.9,53.9c-2.6-0.4-5.1-0.8-7.5-1.2
			L76.5,64.7z M75.9,66.7l-1,3.2l-85.2,51.6c-2.7-0.5-5.4-0.9-8-1.3L75.9,66.7z M74.6,70.3l-0.4,1.1l-79.7,50.9
			c-1.5-0.3-3.1-0.5-4.6-0.8L74.6,70.3z M74.1,72l-1.7,5.3L6.9,124.4c-4.1-0.7-8-1.4-11.8-2L74.1,72z M72.2,77.8l-1.9,5.7
			l-53.9,42.6c-3.1-0.6-6.2-1.1-9.1-1.6L72.2,77.8z M70.2,84.1l-0.5,1.5l-50,41.1c-0.9-0.2-1.8-0.3-2.7-0.5L70.2,84.1z M69.5,86.2
			L68,90.6L27,128c-2.3-0.4-4.6-0.8-6.9-1.3L69.5,86.2z M67.8,91.2l-1,2.9L32,129c-1.6-0.3-3.1-0.6-4.6-0.8L67.8,91.2z M66.6,94.8
			l-1.5,4.6l-29,30.3c-1.3-0.2-2.5-0.5-3.8-0.7L66.6,94.8z M64.9,100.1l-2.7,8.1L43.1,131c-2.2-0.4-4.4-0.8-6.5-1.2L64.9,100.1z
			 M62,109.1l-0.7,2.1l-16.6,20.2c-0.4-0.1-0.9-0.2-1.3-0.2L62,109.1z M61,112l-4.2,12.9l-5.7,7.6c-2-0.4-4-0.8-5.9-1.1L61,112z
			 M61.6,111.3l1.4-1.7l-4,12.5l-1.5,2L61.6,111.3z M58.6,123.1l-3.3,10.3c-0.3-0.1-0.6-0.1-0.9-0.2l2.6-8.1L58.6,123.1z
			 M59.2,122.3l1.8-2.4l-4,12.5l-0.8,1.1c-0.2,0-0.4-0.1-0.6-0.1L59.2,122.3z M56.5,133.6l0.1-0.1L56.5,133.6
			C56.6,133.6,56.6,133.6,56.5,133.6z M57.3,132.6l1.8-2.5l-1.2,3.8c-0.3-0.1-0.6-0.1-0.9-0.2L57.3,132.6z M55.2,142.1l-6.5,20.4
			c-0.4,0.1-0.8,0.2-1.2,0.2l6.7-20.8C54.6,142,54.9,142,55.2,142.1z M55.5,142.2c0.4,0.1,0.8,0.2,1.2,0.2l-6.1,19.8
			c-0.5,0.1-1.1,0.1-1.6,0.2L55.5,142.2z M57.1,142.5c0.3,0.1,0.6,0.1,0.9,0.2L52,162.1c-0.3,0-0.7,0.1-1,0.1L57.1,142.5z
			 M58.3,142.7c0.5,0.1,1,0.2,1.5,0.3l-5.6,18.9c-0.6,0-1.2,0.1-1.8,0.1L58.3,142.7z M60.8,134.4l3.7-12.2l2.5-3.5l-4.7,16
			C61.8,134.6,61.3,134.5,60.8,134.4z M63.4,134.9l1.1-1.8L64,135C63.8,135,63.6,135,63.4,134.9z M65.1,132.1l2.5-4l-2,7.2
			c-0.5-0.1-0.9-0.2-1.4-0.3L65.1,132.1z M63.3,143.8l-1.4,5.2l-3.7,7.4l3.7-12.9C62.4,143.6,62.9,143.7,63.3,143.8z M63.6,143.8
			c0.5,0.1,0.7,0.2,0.7,0.2l-1.7,3.4L63.6,143.8z M66.9,135.6l1.2-2.1l-0.6,2.2C67.3,135.7,67.1,135.7,66.9,135.6z M68.7,132.5
			l1.4-2.5l-2,4.6L68.7,132.5z M74.8,146.4l1.8,0.5l-0.2,1.9l-2-0.1L74.8,146.4z M76.9,146.9l1.7,0.4l-0.1,1.5l-1.8-0.1L76.9,146.9z
			 M78,154.6l-0.5,5.8c-0.7,0.1-1.3,0.2-2,0.3l0.6-5.8C76.7,154.7,77.3,154.6,78,154.6z M78.3,154.5c0.9-0.1,2-0.2,3.1-0.2l-0.5,5.7
			c-1,0.1-2.1,0.2-3.1,0.3L78.3,154.5z M81.7,154.3c0.9-0.1,1.9-0.1,3-0.1l-0.3,5.6c-1,0.1-2.1,0.1-3.1,0.2L81.7,154.3z M82.1,149
			l0.1-0.8L85,149l0,0.2L82.1,149z M85.3,149.1l0.7,0.2l-0.7,0L85.3,149.1z M85.9,140.3l0.5-8.6l3.3-10.3l-0.6,16l-1,3.6
			C87.4,140.8,86.6,140.5,85.9,140.3z M89,138.9l-0.1,2.4c-0.2-0.1-0.3-0.1-0.5-0.2L89,138.9z M89.4,137.5l8.1-29.5l0.6,4.6l-6,29.9
			c-0.9-0.3-1.9-0.7-2.9-1L89.4,137.5z M98.3,113.5l0.2,1.3l-5.3,28c-0.2-0.1-0.5-0.2-0.7-0.3L98.3,113.5z M98.6,115.8l0.2,1.2
			l-4.5,26.1c-0.3-0.1-0.5-0.2-0.8-0.3L98.6,115.8z M98.9,118.1l0.1,0.7l-4.3,24.6c-0.1,0-0.1-0.1-0.2-0.1L98.9,118.1z M99.2,119.9
			l0.1,1.1l-3.9,22.7c-0.1,0-0.2-0.1-0.3-0.1L99.2,119.9z M99.5,122.1l0.2,1.1L96,143.9c-0.1,0-0.2-0.1-0.3-0.1L99.5,122.1z
			 M99.8,124.2l0.1,1.1l-3.3,18.9c-0.1,0-0.2-0.1-0.3-0.1L99.8,124.2z M100.1,126.3l2.2,15.7l-0.4,4.5c-1.4-0.7-3-1.4-5-2.2
			L100.1,126.3z M102.5,143.5l0.5,3.3l0,0.2c-0.2-0.1-0.5-0.2-0.7-0.4L102.5,143.5z M106,130.9l0.3,1.2l-1,16.1
			c-0.1-0.1-0.2-0.1-0.3-0.2L106,130.9z M106.5,133.4l0.3,1.2l-0.8,14c-0.1-0.1-0.2-0.1-0.3-0.2L106.5,133.4z M107.5,138.4l2.6,12.5
			h-3.3L107.5,138.4z M107.6,137.1l0.6-10.4l5.7,24.2h-3.5L107.6,137.1z M110.5,96.4l35,64.7l-8.1,0.2L115.6,113L110.5,96.4z
			 M110.1,95.1l0.2-3L151,161l-5.2,0.1L110.1,95.1z M110.6,91.9l45.3,68.9l-4.6,0.1L110.6,91.9z M110.4,91l0.2-2.6l50.9,72.4
			l-5.1,0.1L110.4,91z M110.6,87.8l0.1-2.2l55.5,75l-4.3,0.1L110.6,87.8z M110.7,85.1l0.1-2.2l60.2,77.6l-4.6,0.1L110.7,85.1z
			 M110.9,82.4l0.1-2.5l65.8,80.5l-5.3,0.1L110.9,82.4z M111.1,79.4l0-0.1l71.5,81l-5.3,0.1L111.1,79.4z M111.1,78.9l0.1-1.7
			l76.7,83l-5,0.1L111.1,78.9z M111.2,76.7l0.1-2l82.8,85.3l-5.8,0.1L111.2,76.7z M111.4,74.3l0.1-1.4l89,87.1l-5.9,0.1L111.4,74.3z
			 M111.5,72.4l0.1-2l96.5,89.3l-7.2,0.2L111.5,72.4z M111.7,70l0-0.5l102.5,90.1l-5.5,0.1L111.7,70z M111.7,69.1l0.1-0.9L221,159.5
			l-6.3,0.1L111.7,69.1z M111.8,67.8l0.1-2l116,93.5l-6.3,0.1L111.8,67.8z M111.9,65.4L112,64l122.2,95.2l-5.8,0.1L111.9,65.4z
			 M112,63.6l0.1-1.2L241,159.1l-6.3,0.1L112,63.6z M112.1,62l0.1-1.1l133.9,98l-4.5,0.1L112.1,62z M112.2,60.5l0.1-1.8l139.2,100.1
			l-4.8,0.1L112.2,60.5z M112.4,58.3l0.1-1.7l146,102.1l-6.4,0.1L112.4,58.3z M112.5,56.2l0.1-0.9l0.1-0.5l150.4,103.7l-4,0.1
			L112.5,56.2z M112.8,54.5l0.1-0.3l157.8,104.2l-7,0.1L112.8,54.5z M112.9,53.9l0.2-0.8l162.7,105.2l-4.6,0.1L112.9,53.9z
			 M110.4,43.2l-0.4,1.5l-4.2,1.8l-1.5-1L110.4,43.2z M103.5,45.5l-0.9,0.4l-11.8-7.6l-0.1-0.8L103.5,45.5z M84.9,40
			c0.1,0.4,0.1,0.7,0.2,1.1l-4.3,13.3l-0.7,0.3L84.9,40z M79.6,55.2l-1.2,3.5l-127.7,56.7c-7.4-1-13.9-1.9-19.7-2.5L79.6,55.2z
			 M51.4,132.6l5.1-6.7l-2.4,7.2C53.2,133,52.3,132.8,51.4,132.6z M51.8,141.4c0.3,0.1,0.6,0.1,0.9,0.2l-7,21.6
			c-0.4,0.1-0.8,0.2-1.1,0.4L51.8,141.4z M53,141.7c0.3,0.1,0.6,0.1,1,0.2l-6.8,21c-0.4,0.1-0.7,0.2-1.1,0.3L53,141.7z M54.6,161.9
			l5.6-18.8c0.5,0.1,1,0.2,1.4,0.3L57.3,158l-2,3.9C55.1,161.9,54.8,161.9,54.6,161.9z M71.8,155.5c0,0,0.4-0.1,1.3-0.3l-0.9,6
			l-2.2,0.5L71.8,155.5z M72.5,161.2l0.9-6c0.6-0.1,1.4-0.2,2.3-0.4l-0.6,5.8c-0.2,0-0.4,0-0.5,0.1L72.5,161.2z M84.7,159.8l0.3-5.6
			c1.1,0,2.2,0,3.4,0l-0.2,5.5C87.1,159.7,85.9,159.7,84.7,159.8z M88.5,159.7l0.2-5.5c2.8,0.1,6,0.3,9.4,0.7c2.2,0.3,4.3,0.6,6.2,1
			l0.8,5.3C102.1,160.5,96.4,159.6,88.5,159.7z M105.4,161.2l-0.8-5.3c2.7,0.5,5,1.1,6.8,1.7l0.8,4.1h-5
			C107.3,161.7,106.6,161.5,105.4,161.2z M115.9,161.7h-3.2l-0.8-4c2.6,0.8,4.1,1.4,4.1,1.4V161.7z M130.4,161.4l-14-45.9l20.7,45.8
			L130.4,161.4z"/>
	</g>
</g>
</svg>
