<?xml version="1.0" encoding="utf-8"?>
<!-- Generator: Adobe Illustrator 17.1.0, SVG Export Plug-In . SVG Version: 6.00 Build 0)  -->
<!DOCTYPE svg PUBLIC "-//W3C//DTD SVG 1.1//EN" "http://www.w3.org/Graphics/SVG/1.1/DTD/svg11.dtd">
<svg version="1.1" id="Layer_3" xmlns="http://www.w3.org/2000/svg" xmlns:xlink="http://www.w3.org/1999/xlink" x="0px" y="0px"
	 viewBox="0 0 185 185" enable-background="new 0 0 185 185" xml:space="preserve">
<g>
	<path fill="none" d="M97,123.6c0-1.9-1.6-3.2-3.5-3.2c-1.9,0-3.4,1.5-3.5,3.5H90v7h7V123.6z"/>
	<rect x="90" y="131" fill="none" width="7" height="0"/>
	<rect x="88" y="164" fill="none" width="10" height="13"/>
	<path fill="#FFFFFF" d="M108.7,85L147,47l-5.2-5.2l0,0l-1.2-1.2l-40.1,39.8l-7.2-5.8l-8.2,6.6l-2.6-2.6l4.4-4.4l-38.3-38l-5.2,5.2
		l0,0l-1.2,1.2l40.9,40.4L70,93.9V99h3.5l-35.6,35l5.1,5.1v0l1.3,1.2l32.1-31.8l-9,67.9c8,2.4,16.4,3.7,25.1,3.7
		c9.4,0,18.5-1.5,27-4.3l-7.3-55.1l23.8,23.9l5-5.2v0l1.4-1.2l-32.2-32l-0.6-5.2h2.4v-2h5v-5.1l-14.3-11.7l1.6-1.6L108.7,85z
		 M90,124L90,124c0.1-2,1.7-3.5,3.5-3.5c1.9,0,3.5,1.3,3.5,3.2v7.4h-7V124z M90,131h7l0,0H90L90,131z M98,177H88v-13h10V177z"/>
</g>
</svg>
