<?xml version="1.0" encoding="utf-8"?>
<!-- Generator: Adobe Illustrator 17.1.0, SVG Export Plug-In . SVG Version: 6.00 Build 0)  -->
<!DOCTYPE svg PUBLIC "-//W3C//DTD SVG 1.1//EN" "http://www.w3.org/Graphics/SVG/1.1/DTD/svg11.dtd">
<svg version="1.1" id="Layer_3" xmlns="http://www.w3.org/2000/svg" xmlns:xlink="http://www.w3.org/1999/xlink" x="0px" y="0px"
	 viewBox="0 0 185 185" enable-background="new 0 0 185 185" xml:space="preserve">
<g>
	<path fill="none" d="M93,118.5c0.3,0.1,0.5,0.5,0.7,0.5H94v-6h-0.1c-0.4,1-1.1,1-1.9,0.8c-0.4-0.1-0.7-0.8-0.9-0.8H91v6h0.3
		C91.7,119,92.4,118.3,93,118.5z"/>
	<path fill="none" d="M93,127.5c0.3,0.1,0.5-0.5,0.7,0.5H94v-7h-0.1c-0.4,1-1.1,1-1.9,0.8c-0.4-0.1-0.7,0.2-0.9-0.8H91v7h0.3
		C91.7,127,92.4,127.3,93,127.5z"/>
	<path fill="none" d="M93,110.5c0.3,0.1,0.5-0.5,0.7,0.5H94v-7h-0.1c-0.4,1-1.1,1-1.9,0.8c-0.4-0.1-0.7,0.2-0.9-0.8H91v7h0.3
		C91.7,110,92.4,110.3,93,110.5z"/>
	<path fill="none" d="M91,139.1c0-0.1,0.9-0.2,1.5-0.2c0.6,0,1.5,0.1,1.5,0.2V139h-3V139.1z"/>
	<path fill="none" d="M86,167.3c0.4,0.6,0.6,1.5,0.3,2.3c-0.1,0.3-0.3,0.5-0.5,0.8L88,174v-15.9c0,0,0.1,0,0.1,0L86,167.3z"/>
	<path fill="none" d="M99,167.3l-2.1-9.2c0,0,0.1,0,0.1,0V174l2.1-3.7c-0.1-0.2-0.3-0.5-0.4-0.8C98.5,168.8,98.6,167.9,99,167.3z"/>
	<path fill="none" d="M92,130.8c-0.4-0.1-0.7-0.8-0.9-0.8H91v6h3v-6h-0.1C93.5,131,92.7,131,92,130.8z"/>
	<path fill="none" d="M91,89.4V93h0.3c0.4,0,1.1-0.7,1.7-0.5c0.3,0.1,0.5,0.5,0.7,0.5H94v-3.6c0,0.1-0.9,0.2-1.5,0.2
		C91.9,89.6,91,89.5,91,89.4z"/>
	<path fill="none" d="M92,96.8c-0.4-0.1-0.7-0.8-0.9-0.8H91v6h0.3c0.4,0,1.1-0.7,1.7-0.5c0.3,0.1,0.5,0.5,0.7,0.5H94v-6h-0.1
		C93.5,97,92.7,97,92,96.8z"/>
	<polygon fill="#FFFFFF" points="92,36 92,36 92,45 93,45 93,36 93,36 93,35 92,35 	"/>
	<rect x="92" y="25" fill="#FFFFFF" width="1" height="10"/>
	<rect x="92" y="17" fill="#FFFFFF" width="1" height="7"/>
	<path fill="#FFFFFF" d="M103.1,168c-0.2-0.9-0.9-1.6-1.7-1.8L99,156.2c1.4-1.6,2.3-4.2,2.5-6.2H101c0,0,0-0.7,0-1c0-0.3,0,0,0-1
		h0.5c-0.3-3-2.5-6.3-4.5-7.9v-52c2-1.5,3.2-4.1,3.2-7.1c0-4-2.6-7.4-5.9-8.3L94.1,69H94v-1h-3v1h0l-0.2,3.8
		c-3.3,0.9-5.9,4.2-5.9,8.3c0,3,1.2,5.5,3.2,7.1v52c-2,1.6-4.2,4.9-4.5,7.9H84c0,1,0,0.7,0,1c0,0.3,0,1,0,1h-0.5
		c0.2,2,1.1,4.6,2.5,6.2l-2.4,10c-0.8,0.2-1.4,0.9-1.7,1.8c-0.3,1,0,2,0.6,2.7l-2.1,8.5c0.9,0.1,1.7,0.2,2.6,0.3l2-8.3
		c0,0-0.1,0,0-0.1l3,5v3.7c1,0.1,2.6,0.1,3.9,0.1l-0.9-1.8v-19c0,0.1,0.9,0.2,1.5,0.2c0.6,0,1.5-0.1,1.5-0.2v19.1l-0.9,1.7
		c1.2,0,2.9,0,3.9-0.1v-3.7l3-5c0,0,0,0,0,0.1l2,8.3c0.9-0.1,1.7-0.2,2.6-0.3l-2.1-8.5C103.1,170,103.3,169,103.1,168z M88,174
		l-2.1-3.7c0.1-0.2,0.3-0.5,0.4-0.8c0.2-0.8,0.1-1.7-0.3-2.3l2.1-9.1c0,0-0.1,0-0.1,0V174z M91,104h0.1c0.2,1,0.5,0.6,0.9,0.8
		c0.7,0.3,1.5,0.2,1.9-0.8H94v7h-0.3c-0.2-1-0.4-0.4-0.7-0.5c-0.6-0.2-1.3-0.5-1.7,0.5H91V104z M91,113h0.1c0.2,0,0.5,0.6,0.9,0.8
		c0.7,0.3,1.5,0.2,1.9-0.8H94v6h-0.3c-0.2,0-0.4-0.4-0.7-0.5c-0.6-0.2-1.3,0.5-1.7,0.5H91V113z M91,121h0.1c0.2,1,0.5,0.6,0.9,0.8
		c0.7,0.3,1.5,0.2,1.9-0.8H94v7h-0.3c-0.2-1-0.4-0.4-0.7-0.5c-0.6-0.2-1.3-0.5-1.7,0.5H91V121z M94,139.1c0-0.1-0.9-0.2-1.5-0.2
		c-0.6,0-1.5,0.1-1.5,0.2V139h3V139.1z M94,136h-3v-6h0.1c0.2,0,0.5,0.6,0.9,0.8c0.7,0.3,1.5,0.2,1.9-0.8H94V136z M94,102h-0.3
		c-0.2,0-0.4-0.4-0.7-0.5c-0.6-0.2-1.3,0.5-1.7,0.5H91v-6h0.1c0.2,0,0.5,0.6,0.9,0.8c0.7,0.3,1.5,0.2,1.9-0.8H94V102z M94,93h-0.3
		c-0.2,0-0.4-0.4-0.7-0.5c-0.6-0.2-1.3,0.5-1.7,0.5H91v-3.6c0,0.1,0.9,0.2,1.5,0.2c0.6,0,1.5-0.1,1.5-0.2V93z M97,174v-15.9
		c0,0-0.1,0-0.1,0l2.2,9.2c-0.4,0.6-0.6,1.5-0.4,2.3c0.1,0.3,0.3,0.5,0.5,0.8L97,174z"/>
	<path fill="#FFFFFF" d="M91,55v1c-1,0.5-1,1.4-1,2.4c0,0,0,0,0,0c0,1,0,1.8,1,2.3V68h3v-7.2c1-0.5,1-1.4,1-2.3c0,0,0,0,0,0
		c0-1,0-1.9-1-2.4v-1H91z"/>
	<polygon fill="#FFFFFF" points="93,55 93,46 93,46 93,45 92,45 92,46 92,46 92,55 	"/>
</g>
</svg>
