<?xml version="1.0" encoding="utf-8"?>
<!-- Generator: Adobe Illustrator 17.1.0, SVG Export Plug-In . SVG Version: 6.00 Build 0)  -->
<!DOCTYPE svg PUBLIC "-//W3C//DTD SVG 1.1//EN" "http://www.w3.org/Graphics/SVG/1.1/DTD/svg11.dtd">
<svg version="1.1" id="mexicocity" xmlns="http://www.w3.org/2000/svg" xmlns:xlink="http://www.w3.org/1999/xlink" x="0px" y="0px"
	 viewBox="0 0 185 185" enable-background="new 0 0 185 185" xml:space="preserve">
<g>
	<path fill="none" d="M88,58C88,58,88,58,88,58C88,58,88,58,88,58L88,58z"/>
	<path fill="#FFFFFF" d="M98.7,123c0.9-1,1.5-2.2,1.5-3.8c0-1.6-0.6-2.9-1.5-3.7c2.2-2.7,7.7-10.3,2.6-13.6c0.5-0.7,0.8-1.5,0.8-1.5
		s1.8-4-0.1-5.7c0.1-0.2,0.1-0.4,0.1-0.6c0-0.7-0.5-1.3-1.2-1.3s-1.2,0.6-1.2,1.3c0,0.3,0.1,0.6,0.3,0.8c-0.5,0.8-0.9,2.3-0.9,5.4
		c0,0.1,0,0.2,0,0.3c-0.4-0.2-1.3-0.4-1.3-0.5V91h-3.1c1.7,0,3-1.7,3-3.8c0-1.9-1.1-3.5-2.6-3.8l-1.1-1.9l0.3-3.7
		c0.7-0.4,0.7-2.2,0.7-2.2c0-1.6,0.7-0.4,0.7-0.4l1.2,3.9c0.8-0.4,0-3.9,0-3.9c4.2-1.3,1-4,1-4c-3-2.9-2.3-5.3-2.3-5.3
		c0-1.5,3.3-1.5,3.3-1.5c1.7-1.7-2.7-1.2-2.7-1.2c-1.5-0.1-1-1.9-1-1.9s-0.3-2.2-0.3-2.9c0-0.7,2-3.1,2-3.1l1.6-0.4l3.3-6.8
		c-1-2.4-5.6,2-5.6,2c-2,0-3.2,3.5-3.2,3.5c-1.7-4-3.6,1.7-3.6,1.7c-0.5,0-0.9,0.2-1.1,0.4l-0.7-3c0,0,1.9-0.6,0.8-2.6
		c0,0-2.7-1.8-2.5,1.5l0.7,4.1l0,0C83.9,50.1,76,44,76,44c-2.2,2.7,2.7,10,2.7,10h2.4c5.8,10,7.8,9.5,8.4,8.9
		c-1,1.8-1.4,7.4-1.4,7.4c-1.7,0.1-1.8,3.2-1.8,3.2c0.6-0.4,3,2.2,3,2.2c-1.1,1.8,1.4,2.7,1.4,2.7l0.6,2.6c-0.8,1-1.4,1.8-1.9,2.4
		C88,83.8,87,85.3,87,87.2c0,2.1,1.4,3.8,3,3.8h-3v9.9c0,0.1-0.5,0.2-0.7,0.3c0-0.2,0-0.5,0-0.7c0-3.1-0.5-4.7-0.9-5.4
		c0.2-0.2,0.3-0.5,0.3-0.8c0-0.7-0.5-1.3-1.2-1.3c-0.6,0-1.2,0.6-1.2,1.3c0,0.2,0.1,0.4,0.1,0.6c-1.9,1.7-0.1,5.7-0.1,5.7
		s0.5,1,1.1,1.8c-5,3.8,0.5,10.9,2.5,13.2c-0.9,0.8-1.5,2.2-1.5,3.8c0,1.6,0.6,2.8,1.5,3.8h0v56.8c2,0.1,3.5,0.2,5.4,0.2
		c2.3,0,4.6-0.1,6.6-0.3V123H98.7z M88,58L88,58C88,58,88,58,88,58C88,58,88,58,88,58z"/>
</g>
</svg>
