<?xml version="1.0" encoding="utf-8"?>
<!-- Generator: Adobe Illustrator 17.1.0, SVG Export Plug-In . SVG Version: 6.00 Build 0)  -->
<!DOCTYPE svg PUBLIC "-//W3C//DTD SVG 1.1//EN" "http://www.w3.org/Graphics/SVG/1.1/DTD/svg11.dtd">
<svg version="1.1" id="Layer_3" xmlns="http://www.w3.org/2000/svg" xmlns:xlink="http://www.w3.org/1999/xlink" x="0px" y="0px"
	 viewBox="0 0 185 185" enable-background="new 0 0 185 185" xml:space="preserve">
<g>
	<path fill="none" d="M92.5,98.2c3,0,5.4-2.4,5.4-5.4c0-3-2.4-5.4-5.4-5.4s-5.4,2.4-5.4,5.4C87.1,95.7,89.5,98.2,92.5,98.2z
		 M92.5,88.3c2.4,0,4.4,2,4.4,4.4c0,2.4-2,4.4-4.4,4.4c-2.4,0-4.4-2-4.4-4.4C88.1,90.3,90.1,88.3,92.5,88.3z"/>
	<path fill="none" d="M100,83H85v92h15V83z M99,174H86V84h13V174z"/>
	<path fill="none" d="M87.6,33.1L88,33l0-0.4c-0.1-0.7,0-1.1,0.2-1.5c0.6-1,0.7-2.9,0.7-3l0-0.6l-0.6,0.1c-0.7,0.1-3.3,1.4-3.8,1.7
		L84,29.4v5l0.9-0.3C86.3,33.5,87.6,33.1,87.6,33.1z M85,30.1c1-0.4,2-0.9,2.6-1.2c-0.1,0.6-0.1,1.3-0.4,1.7c-0.3,0.5-0.6,1-0.6,1.7
		c-0.3,0.1-0.6,0.3-1.6,0.6V30.1z"/>
	<path fill="none" d="M89,50.9l0.6-0.1c1.1-0.2,1-0.2,2.7-0.3l0.3,0l0.3,0c1.6,0,1.5,0,2.6,0.3l0.6,0.1V37.2l-0.3-0.1
		c-0.1,0-1.7-0.4-3.3-0.4c-1.6,0-3.1,0.3-3.2,0.4L89,37.2V50.9z M90,38.1c0-0.1,1.5-0.3,2.5-0.3c1,0,2.5,0.2,2.5,0.3v11.5
		c0-0.1-0.8-0.1-2.3-0.2l-0.3,0l-0.2,0c-1.4,0-2.2,0-2.2,0.2V38.1z"/>
	<path fill="none" d="M96.8,31.1c0.2,0.4,0.3,0.7,0.2,1.5l0,0.4l0.4,0.1c0,0,1.4,0.4,2.7,1l0.9,0.3v-5l-0.5-0.1
		c-0.5-0.3-3-1.5-3.7-1.7l-0.7-0.1l0,0.6C96.1,28.2,96.2,30.1,96.8,31.1z M100,30.1v2.8c-1-0.2-1.4-0.4-1.7-0.6
		c0-0.6-0.2-1.2-0.5-1.7c-0.3-0.4-0.2-1.1-0.3-1.7C98.1,29.2,99,29.6,100,30.1z"/>
	<polygon fill="none" points="90,82 90,75 88.5,75 87,75 87,82 88.5,82 	"/>
	<polygon fill="none" points="94,82 94,75 92.5,75 91,75 91,82 92.5,82 	"/>
	<polygon fill="none" points="98,82 98,75 96.5,75 95,75 95,82 96.5,82 	"/>
	<path fill="none" d="M96,28h-7v5h7V28z M95,32h-5v-3h5V32z"/>
	<path fill="none" d="M95.1,51H95v5h-1v-1h-3v1h-1v-5h-0.1c-2.6,0-5.2,0.7-5.3,0.7L84,51.9v7.7l0.8-0.1c3.2-0.6,7.5-0.6,7.6-0.6
		c0,0,4.5,0,7.7,0.6l0.9,0.1v-7.7l-0.6-0.2C100.3,51.7,97.8,51,95.1,51z M100,58.3c-4-0.5-7.3-0.5-7.5-0.5c-0.2,0-3.5,0-7.5,0.5
		v-5.6c1-0.2,3-0.5,4-0.5V57h3v-1h1v1h3v-4.8c1,0.1,3,0.4,4,0.5V58.3z"/>
	<path fill="none" d="M97,37.2v13.5l0.4,0.1c0,0,1.5,0.4,3,1L101,52v-0.9l1,0.1V39.4l-1-0.1v-0.6l-0.1-0.1c-0.1,0-1.8-1-3.4-1.2
		L97,37.2z M98,38.4c1,0.2,2,0.6,2,0.8v11.3c-1-0.3-1-0.5-2-0.7V38.4z"/>
	<path fill="none" d="M88,50.7V37.2l-0.6,0.1c-1.5,0.2-3.2,1.2-3.3,1.2L84,38.6v0.6l-1,0.1v11.9l1-0.1V52l0.5-0.3
		c1.5-0.6,3.1-1,3.1-1L88,50.7z M87,49.9c-1,0.1-1,0.4-2,0.7V39.3c0-0.2,1-0.6,2-0.8V49.9z"/>
	<path fill="none" d="M100,61H85v7h15V61z M99,67H86v-5h13V67z"/>
	<path fill="#FFFFFF" d="M96,57h-3v-1h-1v1h-3v-4.8c-1,0.1-3,0.4-4,0.5v5.6c4-0.5,7.3-0.5,7.5-0.5c0.2,0,3.5,0,7.5,0.5v-5.6
		c-1-0.2-3-0.5-4-0.5V57z"/>
	<polygon fill="#FFFFFF" points="77.1,76.4 77.5,76.8 77.3,71 107.7,71 107.5,76.9 107.9,76.5 109.1,70 75.9,70 	"/>
	<path fill="#FFFFFF" d="M106,69v-6.5l1-1.4V61H78v0.1l1,1.4V69H106z M85,61h15v7H85V61z"/>
	<path fill="#FFFFFF" d="M98.3,32.3c0.3,0.1,0.7,0.3,1.7,0.6v-2.8c-1-0.4-2-0.9-2.6-1.2c0.1,0.6,0.2,1.3,0.5,1.7
		C98.2,31.1,98.3,31.6,98.3,32.3z"/>
	<rect x="90" y="29" fill="#FFFFFF" width="5" height="3"/>
	<rect x="86" y="62" fill="#FFFFFF" width="13" height="5"/>
	<path fill="#FFFFFF" d="M92.5,49.5l0.2,0c1.4,0,2.3,0,2.3,0.2V38.1c0-0.1-1.5-0.3-2.5-0.3c-1,0-2.5,0.2-2.5,0.3v11.5
		c0-0.1,0.8-0.1,2.3-0.2L92.5,49.5z"/>
	<path fill="#FFFFFF" d="M85,50.5c1-0.3,1-0.5,2-0.7V38.4c-1,0.2-2,0.6-2,0.8V50.5z"/>
	<path fill="#FFFFFF" d="M100,39.3c0-0.2-1-0.6-2-0.8v11.5c1,0.1,1,0.4,2,0.7V39.3z"/>
	<path fill="#FFFFFF" d="M92.5,97.1c2.4,0,4.4-2,4.4-4.4c0-2.4-2-4.4-4.4-4.4c-2.4,0-4.4,2-4.4,4.4C88.1,95.2,90.1,97.1,92.5,97.1z"
		/>
	<path fill="#FFFFFF" d="M79,178.9c4,0.7,8.8,1.1,13.5,1.1s9.5-0.4,13.5-1.1V83.2l0,0v0v-5.6l0.3,0l0.3-5.6H78.4l0.3,5.6l0.3,0v5.6
		v0l0,0V178.9z M95,75h1.5H98v7h-1.5H95V75z M91,75h1.5H94v7h-1.5H91V75z M87,75h1.5H90v7h-1.5H87V75z M85,83h15v92H85V83z"/>
	<path fill="#FFFFFF" d="M97.9,20.2c0,0-1.1-3.3-5.4-3.3c-4.3,0-5.4,3.3-5.4,3.3c-3.4,2.7-3,8.5-3,8.5l-0.7,0.3l0.7,1.1
		c0,0-0.7,2.3-1.3,2.3c-0.6,0.1-0.9,0.7-0.9,0.7v1l-1.3,1.5l1.3,1.5V38h-1.6l0.8,1H82v12.6l-2,1V55l0,0v2.7l-1,0.4V59h-1v1h29v-1h-1
		v-0.9l-1-0.4V55l0,0v-2.5l-2-1V39h0.8l0.8-1H103v-0.8l1.3-1.5l-1.3-1.5v-1c0,0-0.3-0.6-0.9-0.7c-0.6-0.1-1.4-2.3-1.4-2.3l0.7-1.1
		l-0.6-0.3C100.8,28.7,101.3,22.9,97.9,20.2z M96.7,27.6c0.7,0.1,3.3,1.4,3.8,1.7l0.5,0.1v5l-0.9-0.3c-1.3-0.6-2.6-1-2.6-1L97.1,33
		l0-0.4c0.1-0.7,0-1.1-0.2-1.5c-0.6-1-0.7-2.9-0.7-3l0-0.6L96.7,27.6z M89,28h7v5h-7V28z M92.5,36.8c1.6,0,3.2,0.3,3.2,0.4l0.3,0.1
		v13.6l-0.6-0.1c-1.1-0.2-1-0.2-2.7-0.3l-0.3,0l-0.3,0c-1.6,0-1.5,0-2.6,0.3L89,50.9V37.2l0.3-0.1C89.3,37.1,90.9,36.8,92.5,36.8z
		 M84,29.4l0.5-0.1c0.5-0.3,3-1.5,3.7-1.7l0.7-0.1l0,0.6c0,0.1-0.1,2-0.7,3c-0.2,0.4-0.3,0.7-0.2,1.5l0,0.4l-0.4,0.1
		c0,0-1.4,0.4-2.7,1L84,34.4V29.4z M84,52v-0.9l-1,0.1V39.4l1-0.1v-0.6l0.1-0.1c0.1,0,1.8-1,3.4-1.2l0.5-0.1v13.5l-0.4,0.1
		c0,0-1.5,0.4-3,1L84,52z M101,59.5l-0.8-0.1c-3.2-0.6-7.5-0.6-7.6-0.6c0,0-4.5,0-7.7,0.6L84,59.5v-7.7l0.6-0.2
		c0.1,0,2.7-0.7,5.3-0.7H90v5h1v-1h3v1h1v-5h0.1c2.6,0,5.2,0.7,5.3,0.7l0.6,0.2V59.5z M100.9,38.5l0.1,0.1v0.6l1,0.1v11.9l-1-0.1V52
		l-0.5-0.3c-1.5-0.6-3.1-1-3.1-1L97,50.7V37.2l0.5,0.1C99,37.4,100.8,38.4,100.9,38.5z"/>
	<path fill="#FFFFFF" d="M86,174h13V84H86V174z M92.5,87.3c3,0,5.4,2.4,5.4,5.4c0,3-2.4,5.4-5.4,5.4s-5.4-2.4-5.4-5.4
		C87.1,89.7,89.5,87.3,92.5,87.3z"/>
	<path fill="#FFFFFF" d="M87.3,30.6c0.3-0.4,0.2-1.1,0.3-1.7C87,29.2,86,29.6,85,30.1v2.8c1-0.2,1.4-0.4,1.7-0.6
		C86.7,31.6,87,31.1,87.3,30.6z"/>
</g>
</svg>
