<?xml version="1.0" encoding="utf-8"?>
<!-- Generator: Adobe Illustrator 17.1.0, SVG Export Plug-In . SVG Version: 6.00 Build 0)  -->
<!DOCTYPE svg PUBLIC "-//W3C//DTD SVG 1.1//EN" "http://www.w3.org/Graphics/SVG/1.1/DTD/svg11.dtd">
<svg version="1.1" id="Layer_3" xmlns="http://www.w3.org/2000/svg" xmlns:xlink="http://www.w3.org/1999/xlink" x="0px" y="0px"
	 viewBox="0 0 185 185" enable-background="new 0 0 185 185" xml:space="preserve">
<g>
	<polygon fill="none" points="96.7,68 97.2,67.4 97.1,67.3 96.6,67.9 	"/>
	<polygon fill="none" points="97.8,66 97.6,65.8 97,66.5 97.2,66.8 	"/>
	<polygon fill="none" points="96.1,65.4 96.8,66.3 97.4,65.6 96.8,64.8 96.4,65.1 	"/>
	<polygon fill="none" points="97.3,63.7 97.1,63.5 96.5,63.9 96.8,64.2 	"/>
	<polygon fill="none" points="100.4,67.2 99,65.7 98.4,66.4 99.8,68.1 	"/>
	<polygon fill="none" points="97.8,62.2 97.9,62.3 98.7,61.7 98.6,61.5 	"/>
	<polygon fill="none" points="99.6,68.3 98.2,66.6 97.6,67.4 98.9,69.2 	"/>
	<polygon fill="none" points="99.5,64.5 99.2,64.9 99.2,64.9 99.5,64.5 	"/>
	<path fill="none" d="M96.7,53.2c0.3-0.1,0.6-0.3,0.9-0.4l-0.6-0.5L96,52.6L96.7,53.2z"/>
	<path fill="none" d="M96.8,61.1l0.8,0.8l0.8-0.6l0,0C97.8,61.2,97.3,61.1,96.8,61.1z"/>
	<polygon fill="none" points="98.3,53.3 97.4,53.7 97.6,53.9 98.5,53.4 	"/>
	<path fill="none" d="M97.1,54.6c0.4,0.1,0.8,0.1,1.2,0.2l-0.6-0.5L97.1,54.6z"/>
	<polygon fill="none" points="99.4,64 99.5,64 100.2,63.2 	"/>
	<path fill="none" d="M95.6,54.3l1.2-0.6l-0.1-0.1c-0.4,0.2-0.8,0.4-1.2,0.6L95.6,54.3z"/>
	<polygon fill="none" points="96.2,51.2 97,51.8 97.6,51.5 96.8,50.9 	"/>
	<path fill="none" d="M96.7,62.6L96.7,62.6L95.6,61c0,0-0.1,0-0.1,0l-0.1,0.1L96.7,62.6z"/>
	<polygon fill="none" points="96.3,63.6 96.9,63.2 96.7,63 96.2,63.5 	"/>
	<path fill="none" d="M97.3,52.1l0.6,0.5c0.2-0.1,0.5-0.2,0.7-0.3L98,51.8L97.3,52.1z"/>
	<polygon fill="none" points="95.5,64.3 96.1,63.9 95.9,63.7 95.4,64.1 	"/>
	<polygon fill="none" points="96,63.2 96.5,62.8 95.1,61.3 94.9,61.5 95,61.9 	"/>
	<path fill="none" d="M94.8,61.1l0.1-0.1l0,0C94.8,61,94.8,61,94.8,61.1L94.8,61.1z"/>
	<polygon fill="none" points="98.6,63.1 99.2,63.7 99.9,62.9 99.4,62.4 	"/>
	<polygon fill="none" points="98.8,65.4 98.8,65.4 98.2,66 98.2,66.1 	"/>
	<polygon fill="none" points="95.7,52.4 96.6,52 95.8,51.4 95,51.7 	"/>
	<polygon fill="none" points="96.1,64.9 96.6,64.5 96.3,64.1 95.6,64.7 95.9,65.1 	"/>
	<polygon fill="none" points="96.5,66.5 95.9,65.6 95.8,65.7 96,67 	"/>
	<path fill="none" d="M95.2,53.9c0.4-0.2,0.8-0.4,1.2-0.6l-0.7-0.5l-1.2,0.6L95.2,53.9z"/>
	<path fill="none" d="M99.2,52.3L99.2,52.3L100,52l-0.1-0.1C99.7,52,99.5,52.2,99.2,52.3z"/>
	<polygon fill="none" points="100.3,52.2 99.6,52.6 99.8,52.7 100.5,52.3 	"/>
	<path fill="none" d="M100.3,54.8L100.3,54.8l-0.5,0.3c0,0,0,0,0.1,0L100.3,54.8z"/>
	<path fill="none" d="M98.8,53.6l-0.9,0.5l1,0.8c0.1,0,0.3,0,0.4,0.1l0.7-0.4L98.8,53.6z"/>
	<polygon fill="none" points="97.2,50.8 98,51.4 98.7,51 97.9,50.4 	"/>
	<polygon fill="none" points="95.1,49.2 96.9,50.5 97.6,50.2 95.8,48.9 	"/>
	<path fill="none" d="M98.3,51.6l0.6,0.5c0.2-0.1,0.5-0.2,0.7-0.4L99,51.3L98.3,51.6z"/>
	<polygon fill="none" points="94.1,49.6 95.9,51 96.5,50.7 94.7,49.3 	"/>
	<polygon fill="none" points="98.4,64.5 98.4,64.5 97.8,63.8 97.8,63.8 	"/>
	<polygon fill="none" points="96.4,68.4 96.3,68.3 96.3,68.4 	"/>
	<polygon fill="none" points="96.9,67 96.7,66.8 96.2,67.3 96.4,67.6 	"/>
	<polygon fill="none" points="97.1,71.6 96.9,71.4 97,71.7 	"/>
	<path fill="none" d="M100.3,55.2c0.2,0,0.4,0.1,0.6,0.1l-0.3-0.3L100.3,55.2z"/>
	<polygon fill="none" points="98.7,69.4 97.4,67.6 96.9,68.3 98.2,70.2 	"/>
	<path fill="none" d="M101,61.8c-0.1,0-0.3-0.1-0.4-0.1l0.3,0.3L101,61.8z"/>
	<polygon fill="none" points="99.1,53.5 100.3,54.4 101,54 99.7,53.1 	"/>
	<polygon fill="none" points="101.3,54.2 100.6,54.6 100.6,54.7 101.3,54.2 	"/>
	<polygon fill="none" points="97.7,70.8 96.5,68.7 96.4,68.8 96.7,70.1 97.4,71.2 	"/>
	<path fill="none" d="M102,50.9L102,50.9l0.6-0.3C102.4,50.7,102.2,50.8,102,50.9z"/>
	<polygon fill="none" points="97.3,71.9 97.1,72.1 97.1,72.2 98.1,74.4 98.4,74 	"/>
	<polygon fill="none" points="95.4,52.5 94.6,51.9 93.4,52.4 94.2,53.1 	"/>
	<path fill="none" d="M102.4,55.6l0.3-0.2l-1.2-0.9l-0.7,0.4l0.7,0.6C101.9,55.5,102.2,55.6,102.4,55.6z"/>
	<polygon fill="none" points="100.6,52 100.8,52.1 102.1,51.4 102,51.3 	"/>
	<polygon fill="none" points="101.4,62.2 101.3,62.4 101.3,62.4 	"/>
	<polygon fill="none" points="97.7,74.9 97.9,74.7 97.4,73.7 	"/>
	<polygon fill="none" points="98.8,76.7 98,75 97.8,75.4 98,76.5 	"/>
	<polygon fill="none" points="97.7,62.6 97.5,62.4 97.3,62.6 97.4,62.8 	"/>
	<path fill="none" d="M96.6,54.5l0.8-0.4l-0.2-0.2l-1,0.5C96.2,54.5,96.4,54.5,96.6,54.5z"/>
	<path fill="none" d="M96.3,61.1c-0.1,0-0.2,0-0.3,0l1,1.3l0.2-0.2L96.3,61.1z"/>
	<polygon fill="none" points="97,62.8 97.1,63 97.2,63 97,62.8 	"/>
	<polygon fill="none" points="97.7,65.3 98.2,64.8 97.6,64 97,64.5 	"/>
	<path fill="none" d="M98,53l-0.1-0.1c-0.3,0.1-0.6,0.3-0.9,0.4l0.1,0.1L98,53z"/>
	<polygon fill="none" points="97.6,63.5 97.4,63.2 97.3,63.3 97.5,63.5 	"/>
	<polygon fill="none" points="97.6,63 97.8,63.2 98.1,63 97.9,62.8 	"/>
	<polygon fill="none" points="98.6,73.6 98.2,73.1 98.6,73.7 	"/>
	<polygon fill="none" points="97.4,67 97.4,67.1 98,66.3 98,66.3 	"/>
	<polygon fill="none" points="98,70.4 97.8,70.2 98,70.5 	"/>
	<path fill="none" d="M99.1,61.4c-0.1,0-0.1,0-0.2,0L99.1,61.4L99.1,61.4z"/>
	<polygon fill="none" points="99.4,52.9 99.3,52.7 98.6,53.1 98.8,53.2 	"/>
	<path fill="none" d="M98.2,52.8l0.1,0.1l0.7-0.3l-0.1-0.1C98.7,52.6,98.4,52.7,98.2,52.8z"/>
	<polygon fill="none" points="98.3,62.7 99,62 99,61.9 98.2,62.6 	"/>
	<polygon fill="none" points="98.4,65 97.9,65.6 98,65.8 98.5,65.1 	"/>
	<polygon fill="none" points="99.3,64.3 99.2,64.2 98.9,64.5 99,64.6 	"/>
	<polygon fill="none" points="98.1,63.6 98.7,64.3 99,63.9 98.4,63.3 	"/>
	<polygon fill="none" points="86.4,67.6 86.1,71 87,67.1 	"/>
	<polygon fill="none" points="100.7,63.7 100,64.5 101.3,66 102,65.1 	"/>
	<polygon fill="none" points="103.9,52.2 105.1,51.5 104,50.7 102.7,51.4 	"/>
	<polygon fill="none" points="98.1,48 99.8,49.2 101.1,48.7 99.4,47.5 	"/>
	<polygon fill="none" points="102.4,51.1 102.4,51.2 103.7,50.5 103.6,50.4 	"/>
	<path fill="none" d="M101.2,50.3l0.5,0.4c0.4-0.2,0.9-0.4,1.3-0.6l-0.5-0.3L101.2,50.3z"/>
	<polygon fill="none" points="91.8,43.5 97.7,47.8 99.1,47.3 91.5,42 	"/>
	<polygon fill="none" points="88.4,78 89.2,77.1 89.3,76.7 88.5,77.5 	"/>
	<path fill="none" d="M89,86c0.7-1.6,1.6-4,2-5.8l-1.8,2.4L89,86z"/>
	<polygon fill="none" points="90.7,104.8 95.5,94.1 95.2,92 93.2,96.2 90.8,102.5 	"/>
	<path fill="none" d="M103.6,63l-0.5-0.5c-0.4-0.2-0.8-0.3-1.2-0.4l-0.4,0.5l1.4,1.3L103.6,63z"/>
	<polygon fill="none" points="89.4,74.5 89.1,74.8 88.7,76.8 89.3,76.1 	"/>
	<polygon fill="none" points="104,50.3 104.9,49.8 104,50.3 	"/>
	<path fill="none" d="M102.9,55.7c0.2,0,0.3,0.1,0.4,0.1l-0.3-0.2L102.9,55.7z"/>
	<polygon fill="none" points="102.7,64.2 101.3,62.9 100.9,63.4 102.2,64.8 	"/>
	<polygon fill="none" points="102.5,53.8 101.8,54.3 103.1,55.2 103.7,54.7 	"/>
	<polygon fill="none" points="105.2,53.6 104.1,52.8 102.8,53.6 104,54.5 	"/>
	<polygon fill="none" points="105.4,49.9 104.3,50.5 105.4,51.3 106.6,50.6 	"/>
	<polygon fill="none" points="106.7,52.6 105.6,51.8 104.4,52.6 105.5,53.4 	"/>
	<polygon fill="none" points="100.1,49.5 100.9,50.1 102.2,49.5 101.4,48.9 	"/>
	<polygon fill="none" points="81.5,63.1 82.5,62.5 82.9,61.4 81.8,61.9 	"/>
	<path fill="none" d="M81,62l0.5-0.3l0.3-0.8c-0.2,0.1-0.3,0.2-0.5,0.2L81,62z"/>
	<path fill="none" d="M82,61.5l1-0.6l0.2-0.8c-0.3,0.2-0.7,0.3-1,0.5L82,61.5z"/>
	<polygon fill="none" points="80.5,63.6 81.1,63.3 81.4,62.1 80.9,62.4 	"/>
	<polygon fill="none" points="83,62.2 84,61.6 84.4,60.6 83.3,61.1 	"/>
	<polygon fill="none" points="77.3,73.7 78,73.2 79.4,68.6 78.8,69 	"/>
	<polygon fill="none" points="79.4,67.1 80,66.7 80.9,63.8 80.4,64.1 	"/>
	<polygon fill="none" points="79,68.5 79.6,68.1 79.9,67.2 79.3,67.6 	"/>
	<polygon fill="none" points="87.4,71 88.1,70.4 88.1,69.8 87.6,70.3 	"/>
	<polygon fill="none" points="86.9,73.3 87.7,72.6 88,70.9 87.3,71.5 	"/>
	<polygon fill="none" points="86.2,72 87,71.3 87.2,70.6 86.4,71.2 	"/>
	<polygon fill="none" points="88.2,73.3 88,75.4 88.8,74.6 89.3,72.2 	"/>
	<polygon fill="none" points="93.5,52.9 93.5,53.1 93.7,53.3 93.8,53.2 	"/>
	<polygon fill="none" points="85.9,64 86.3,63.8 86.4,63.2 86,63.5 	"/>
	<path fill="none" d="M83.4,60.7l1.1-0.6l0.2-0.7c-0.3,0.2-0.7,0.3-1,0.5L83.4,60.7z"/>
	<polygon fill="none" points="84.5,61.4 85.5,60.8 85.7,59.9 84.8,60.4 	"/>
	<path fill="none" d="M84.9,59.9l1-0.5l0.2-0.6c-0.3,0.2-0.6,0.3-1,0.5L84.9,59.9z"/>
	<polygon fill="none" points="101.4,73.1 100.4,71.7 99.8,72.5 101.1,74.2 	"/>
	<path fill="none" d="M100.3,51.8L100.3,51.8l1.5-0.7l0,0C101.2,51.3,100.8,51.5,100.3,51.8z"/>
	<path fill="none" d="M99.4,51.1l0.6,0.4c0.5-0.2,1-0.5,1.4-0.7l-0.5-0.4L99.4,51.1z"/>
	<polygon fill="none" points="100.7,52.5 100.1,52.9 101.3,53.8 102,53.4 	"/>
	<polygon fill="none" points="103.6,52.4 102.4,51.6 101.1,52.3 102.3,53.2 	"/>
	<polygon fill="none" points="101,67.1 102.2,68.6 102.6,67.9 101.4,66.5 	"/>
	<polygon fill="none" points="96.1,48.7 97.9,50.1 99.4,49.4 97.7,48.2 	"/>
	<polygon fill="none" points="94.7,48.9 95.5,48.7 92.3,46.3 92.4,47.2 	"/>
	<polygon fill="none" points="92.2,45.8 95.8,48.5 97.4,47.9 91.8,44 	"/>
	<polygon fill="none" points="100.1,61.7 99.6,62.1 100.2,62.7 100.6,62.2 	"/>
	<polygon fill="none" points="101.9,69 100.6,67.5 100,68.3 101.2,69.9 	"/>
	<polygon fill="none" points="101,70.2 99.8,68.6 99.1,69.5 100.4,71.1 	"/>
	<polygon fill="none" points="100.2,71.4 98.9,69.7 98.4,70.5 99.6,72.2 	"/>
	<polygon fill="none" points="99.4,72.5 98.2,70.7 98.1,70.8 99.3,72.7 	"/>
	<polygon fill="none" points="93.8,49.3 94.4,49.1 92.5,47.7 92.7,48.5 	"/>
	<polygon fill="none" points="101.1,62.6 101.1,62.6 100.6,63.2 100.6,63.2 	"/>
	<polygon fill="none" points="100.4,63.4 99.7,64.2 99.7,64.3 100.4,63.4 	"/>
	<polygon fill="none" points="99.7,64.8 99.4,65.2 100.7,66.8 101.1,66.3 	"/>
	<polygon fill="none" points="98.2,50.3 99.1,50.9 100.6,50.2 99.7,49.6 	"/>
	<polygon fill="none" points="99.1,73 97.9,71.1 97.6,71.5 98.8,73.3 	"/>
	<polygon fill="none" points="99.5,76.9 99.7,76.5 98.5,74.3 98.3,74.7 99.2,76.9 	"/>
	<polygon fill="none" points="99,88.3 98.6,88.1 97.9,89.6 98.1,90.5 	"/>
	<polygon fill="none" points="97.5,87.8 97.8,89.1 98.3,88 	"/>
	<polygon fill="none" points="97.7,90.2 95.9,94.2 96.1,95.6 97.9,91 	"/>
	<polygon fill="none" points="102.9,68.2 102.9,68.2 102.4,68.8 102.7,69.1 	"/>
	<polygon fill="none" points="93.4,49.5 92.7,49 92.9,49.7 	"/>
	<polygon fill="none" points="101.9,71.4 101.2,70.5 100.6,71.4 101.5,72.7 	"/>
	<polygon fill="none" points="102.5,69.6 102.1,69.2 101.4,70.2 102.1,71 	"/>
	<polygon fill="none" points="95.1,91.1 94.3,93.1 95.1,91.5 	"/>
	<polygon fill="none" points="94.3,51.7 93,50.6 93.3,52.1 	"/>
	<path fill="none" d="M94.8,54.1l-0.7-0.6l-0.1,0l0.7,0.6C94.7,54.1,94.8,54.1,94.8,54.1z"/>
	<polygon fill="none" points="94.7,51.5 95.5,51.1 93.7,49.7 92.9,50 93,50.1 	"/>
	<polygon fill="none" points="90.5,109.6 95.8,96.2 95.6,94.7 90.7,105.7 	"/>
	<polygon fill="none" points="97.6,89.6 97.2,88 95.5,91.5 95.8,93.5 	"/>
	<polygon fill="none" points="95.7,63.4 95.1,62.6 95.4,63.7 	"/>
	<polygon fill="none" points="97,87.7 96.4,87.5 95.3,90.5 95.4,90.9 	"/>
	<polygon fill="none" points="86.3,92.3 86.4,91.4 85.5,92.7 84.9,95.5 	"/>
	<polygon fill="none" points="85.7,91.9 86.5,90.8 86.8,86.1 	"/>
	<polygon fill="none" points="86.1,60 85.9,60.6 86,60.5 	"/>
	<polygon fill="none" points="85,63.7 85.7,63.3 85.7,63.3 86,60.9 85.7,61 	"/>
	<polygon fill="none" points="86.7,79.2 87.4,78.3 87.6,76.3 87.2,76.8 	"/>
	<polygon fill="none" points="73.9,90.7 72.6,92.1 70.7,98.2 72.1,96.5 	"/>
	<polygon fill="none" points="87.6,80.6 87.9,79.3 87.7,79.5 	"/>
	<polygon fill="none" points="86.8,90.9 86.7,91.3 87.1,90.4 	"/>
	<polygon fill="none" points="88.1,78 87.8,78.4 87.7,78.9 88,78.6 	"/>
	<polygon fill="none" points="87.3,79.9 86.3,81.2 85,87.6 86.6,85.5 87,83.3 	"/>
	<polygon fill="none" points="71.9,97.3 70.4,99 69.9,100.6 71.4,98.8 	"/>
	<polygon fill="none" points="100.3,76.8 100.4,76.4 100.3,76.2 100.1,76.6 	"/>
	<polygon fill="none" points="86.5,62.7 86.6,62.7 86.8,60.7 86.1,63 	"/>
	<polygon fill="none" points="100.5,75.9 100.5,75.9 100.5,75.9 	"/>
	<polygon fill="none" points="100.9,74.6 99.6,72.8 99.5,73 100.7,75.1 	"/>
	<polygon fill="none" points="99.8,77 100,77.1 99.9,76.9 	"/>
	<polygon fill="none" points="98.8,73.9 98.7,74 99.9,76.2 100.1,75.9 	"/>
	<polygon fill="none" points="72,92.6 70.9,93.9 68.8,100.5 70.1,98.9 	"/>
	<path fill="none" d="M93.9,54l-0.3-0.3l0,0.2C93.7,54,93.7,54,93.9,54z"/>
	<polygon fill="none" points="99.2,73.3 99,73.6 100.3,75.6 100.5,75.4 	"/>
	<polygon fill="none" points="85.1,75.4 84.7,75.8 84.6,76.4 85,76.1 	"/>
	<polygon fill="none" points="84.9,70.2 84.4,72.4 84.7,72.1 	"/>
	<polygon fill="none" points="84.5,77 84.3,78.7 84.8,76.7 	"/>
	<polygon fill="none" points="83.8,76.6 83.1,77.2 82.9,78.1 83.6,77.4 	"/>
	<polygon fill="none" points="84,73.8 84.6,73.3 84.7,72.6 84.2,72.9 	"/>
	<polygon fill="none" points="85.3,72.1 85.1,72.9 85.7,72.4 85.7,71.7 	"/>
	<polygon fill="none" points="85.6,73.4 85.6,72.9 84.9,73.5 84.9,73.5 84.7,75.3 85.2,74.8 	"/>
	<polygon fill="none" points="85.5,65.3 84.6,68.5 85.2,68.1 85.2,68 	"/>
	<polygon fill="none" points="80.8,76.8 79.6,77.9 78.7,80.8 80,79.6 	"/>
	<polygon fill="none" points="80.5,79.2 81.5,78.2 82.2,75.7 81.3,76.5 	"/>
	<polygon fill="none" points="83.8,73.3 83.1,73.8 82.8,74.7 83.6,74.1 	"/>
	<polygon fill="none" points="83.9,74.3 83.3,76.6 84,76 84.5,73.8 	"/>
	<polygon fill="none" points="78,83 79.5,81.6 79.8,80.2 78.5,81.5 	"/>
	<polygon fill="none" points="84.2,76.8 84.3,76.2 84.2,76.2 84.1,77 	"/>
	<polygon fill="none" points="83.4,74.7 82.7,75.3 82,77.8 82.8,77.1 	"/>
	<polygon fill="none" points="82.7,77.6 81.8,78.4 81.5,79.5 82.4,78.6 	"/>
	<polygon fill="none" points="82.7,74.2 81.7,74.9 81.4,75.9 82.4,75.1 	"/>
	<polygon fill="none" points="86.1,75.4 85.7,75.8 85.5,78.1 85.5,78 	"/>
	<path fill="none" d="M56.6,133.5l-0.1,0.1c0,0,0,0,0,0L56.6,133.5z"/>
	<path fill="none" d="M69.8,114.9l-2.2,3.1l-5,16.9c0.1,0,0.3,0.1,0.4,0.1l1.8-2.9L69.8,114.9z"/>
	<path fill="none" d="M61,119.9l-1.8,2.4l-3.6,11.1c0.2,0,0.4,0.1,0.6,0.1l0.8-1.1L61,119.9z"/>
	<path fill="none" d="M64.5,133.2l-1.1,1.8c0.2,0,0.4,0.1,0.6,0.1L64.5,133.2z"/>
	<polygon fill="none" points="110.3,71.2 110.6,71.5 110.7,69.6 110.4,69.3 	"/>
	<path fill="none" d="M108.2,88.5L108.2,88.5C108.2,88.5,108.2,88.5,108.2,88.5L108.2,88.5z"/>
	<polygon fill="none" points="110.7,68.7 110.4,68.4 110.4,68.8 110.7,69.1 	"/>
	<polygon fill="none" points="108.4,85.3 108.2,85 108.1,87.4 108.3,87.7 	"/>
	<polygon fill="none" points="86.2,61.3 86.4,60.7 86.3,60.7 	"/>
	<polygon fill="none" points="107.6,137.2 110.4,151 113.9,151 108.2,126.8 	"/>
	<polygon fill="none" points="137.3,161.3 145.4,161.1 110.5,96.4 115.6,113 	"/>
	<path fill="none" d="M107,135.9l-0.8,12.9c0,0,0.2,0.1,0.3,0.2l0.7-11.8L107,135.9z"/>
	<polygon fill="none" points="86.7,120 83.9,127.2 83.3,134.5 86.4,125.7 	"/>
	<path fill="none" d="M89,138.9l-0.6,2.2c0.2,0.1,0.3,0.1,0.5,0.2L89,138.9z"/>
	<polygon fill="none" points="76.1,114.8 73.7,118.6 71.8,126.1 75.4,117.8 	"/>
	<polygon fill="none" points="74.3,147.1 73.9,148.6 74.1,148.6 	"/>
	<path fill="none" d="M89.7,121.5l-3.3,10.3l-0.5,8.6c0.8,0.2,1.5,0.5,2.2,0.7l1-3.6L89.7,121.5z"/>
	<polygon fill="none" points="105.5,53.8 104.3,54.7 105.5,55.6 106.5,54.5 	"/>
	<path fill="none" d="M82.9,139.5c0.2,0.1,0.4,0.1,0.6,0.2l2.6-7.9l0.3-4.8l-3.1,8.9L82.9,139.5z"/>
	<path fill="none" d="M107,80.7l-0.2-0.2c0,0.2,0,0.5,0.1,0.8L107,80.7z"/>
	<polygon fill="none" points="107.3,52.6 107.6,52.8 107.7,52.2 	"/>
	<path fill="none" d="M107.7,72.7c0,0.1,0,0.1-0.1,0.2l0,0L107.7,72.7z"/>
	<polygon fill="none" points="87,63.7 86.8,63.9 86.7,65.1 	"/>
	<path fill="none" d="M105.4,56.2l0.2-0.2l0,0L105.4,56.2C105.3,56.2,105.4,56.2,105.4,56.2z"/>
	<polygon fill="none" points="86.3,60.3 86.5,60.2 86.8,59.3 86.4,59.5 	"/>
	<polygon fill="none" points="107.4,78.4 107.1,78.1 106.8,79.8 107.1,80.2 	"/>
	<polygon fill="none" points="109.6,71.7 109.5,72.3 109.8,72.7 109.9,71.3 109.7,71.1 	"/>
	<polygon fill="none" points="109.8,68.7 109.8,68.7 109.8,68.7 	"/>
	<polygon fill="none" points="109.4,74.7 109.7,75.1 109.8,73.1 109.5,72.8 	"/>
	<polygon fill="none" points="110,70.9 110.1,69 110,69 109.8,70.7 	"/>
	<polygon fill="none" points="109.3,76.8 109.6,77.1 109.7,75.5 109.4,75.2 	"/>
	<polygon fill="none" points="108.3,71.5 108,73.2 108.3,73.5 108.4,71.7 	"/>
	<polygon fill="none" points="108.3,77.2 108.3,76.6 108.3,76.6 108.3,77.4 	"/>
	<polygon fill="none" points="109.4,66.6 109.4,67 109.5,66.3 109.5,66.3 	"/>
	<polygon fill="none" points="68,103 69.4,101.3 69.9,99.7 68.5,101.3 	"/>
	<polygon fill="none" points="78.5,72.9 79.6,72.1 81,67.6 79.9,68.3 	"/>
	<polygon fill="none" points="80.4,66.4 81.5,65.8 82.4,62.9 81.3,63.5 	"/>
	<polygon fill="none" points="80,67.8 81.1,67.1 81.4,66.3 80.3,66.9 	"/>
	<polygon fill="none" points="82,65.5 83.1,64.8 83.9,62.1 82.8,62.7 	"/>
	<polygon fill="none" points="83.5,64.6 84.6,64 85.3,61.3 84.3,61.8 	"/>
	<polygon fill="none" points="72.8,91.4 74.1,90 75.3,86.2 74,87.5 	"/>
	<polygon fill="none" points="74.2,86.8 75.5,85.5 76,83.7 74.8,84.8 	"/>
	<polygon fill="none" points="76.8,78.4 77.9,77.5 79.4,72.6 78.3,73.4 	"/>
	<polygon fill="none" points="76.2,80.2 77.4,79.2 77.8,78 76.6,79 	"/>
	<polygon fill="none" points="75,84.2 76.2,83.1 77.2,79.8 76,80.8 	"/>
	<polygon fill="none" points="88,76 87.8,77.9 88.2,77.4 88.7,75.2 	"/>
	<polygon fill="none" points="89.2,77.6 88.3,78.7 87.4,83.4 87.3,84.6 88.9,82.4 	"/>
	<polygon fill="none" points="85.8,65.8 86.2,64.3 85.9,64.4 	"/>
	<polygon fill="none" points="84.6,88.2 85.9,81.7 85,82.7 84.5,88.3 	"/>
	<polygon fill="none" points="87.3,76.2 87.6,75.8 87.8,73.7 87.8,73.7 	"/>
	<polygon fill="none" points="86.7,74.3 87.5,73.5 87.6,73.2 86.8,73.9 	"/>
	<polygon fill="none" points="86.4,64.7 85.6,67.8 86.1,67.4 86.1,67.2 	"/>
	<polygon fill="none" points="85.9,73.5 85.8,74.3 86.5,73.7 86.9,71.8 86.1,72.5 	"/>
	<polygon fill="none" points="79.8,84.5 78.6,85.8 77.2,90.5 78.6,88.8 	"/>
	<polygon fill="none" points="83.3,73.3 83.9,72.7 85,68.6 84.4,69 	"/>
	<polygon fill="none" points="87.2,112.1 85.9,115.4 87.1,112.7 	"/>
	<polygon fill="none" points="75.5,79.4 76.3,78.8 77.9,73.7 77.1,74.3 	"/>
	<polygon fill="none" points="74.3,94.5 72.4,96.7 72,98.1 73.9,95.8 	"/>
	<polygon fill="none" points="95.9,96.8 90.5,110.6 90.3,114.5 96.1,98 	"/>
	<polygon fill="none" points="83.4,84.8 83.3,84.9 81.6,92.1 82.7,90.6 	"/>
	<path fill="none" d="M88.4,87.5c0,0,0.1-0.2,0.3-0.6l0.2-3.9l-1.7,2.2l-0.4,5.1l1-1.3L88.4,87.5z"/>
	<polygon fill="none" points="90.4,103.5 87.6,111 87.5,111.9 90.3,105.6 	"/>
	<polygon fill="none" points="84.6,83.9 83.3,89.9 84.1,88.8 	"/>
	<polygon fill="none" points="78.1,86.3 76.6,87.9 75,93 76.7,91.1 	"/>
	<polygon fill="none" points="76.5,91.9 74.8,93.8 74.4,95.2 76.1,93.1 	"/>
	<polygon fill="none" points="76.1,88.4 74.4,90.2 72.7,95.9 74.5,93.7 	"/>
	<polygon fill="none" points="78.4,89.6 77,91.2 76.7,92.4 78.1,90.7 	"/>
	<polygon fill="none" points="84.6,82.2 83.9,83.1 83.8,83.7 84.5,82.9 	"/>
	<polygon fill="none" points="82.8,85.4 81.6,87 79.6,94.7 81.1,92.7 	"/>
	<polygon fill="none" points="79.1,95.4 81.1,87.6 80.1,88.7 78,96.9 	"/>
	<polygon fill="none" points="80.1,87.6 78.9,89 78.6,90.1 79.8,88.6 	"/>
	<polygon fill="none" points="85.2,92.6 86.5,86.2 84.9,88.3 84.2,91.8 83.9,94.3 	"/>
	<polygon fill="none" points="86.6,74.9 86,77.6 86.9,76.6 87.4,74.1 	"/>
	<polygon fill="none" points="87.4,78.9 86.6,79.9 86.4,80.5 87.4,79.4 	"/>
	<polygon fill="none" points="86.8,77.2 85.8,78.2 85.2,80.9 86.3,79.7 	"/>
	<polygon fill="none" points="85.3,76.2 85.3,76.2 84.6,79 85.1,78.5 	"/>
	<polygon fill="none" points="86.1,80.4 85.1,81.6 85.1,82.1 86,81 	"/>
	<polygon fill="none" points="85.5,68.2 85.2,71.1 86,67.9 	"/>
	<polygon fill="none" points="85.4,71.6 85.8,71.3 85.9,69.4 	"/>
	<polygon fill="none" points="84.6,64.8 85.4,64.4 85.6,63.7 84.8,64.2 	"/>
	<polygon fill="none" points="85.7,75.3 86.3,74.8 86.4,74.3 85.8,74.8 	"/>
	<polygon fill="none" points="80.2,75.7 81.4,74.7 82.7,70.2 81.6,71.1 	"/>
	<polygon fill="none" points="81.4,78.8 80.3,79.8 79.9,81.1 81,80 	"/>
	<polygon fill="none" points="79.7,77.3 81,76.3 81.3,75.3 80,76.2 	"/>
	<polygon fill="none" points="81.9,74.4 82.8,73.6 84,69.3 83.2,69.9 	"/>
	<polygon fill="none" points="83.4,78 82.7,78.8 81.9,81.8 82.7,81 	"/>
	<polygon fill="none" points="84.2,77.3 83.9,77.6 83.2,80.5 83.9,79.7 	"/>
	<polygon fill="none" points="81.4,82.3 82.2,79.2 81.3,80.1 80.4,83.4 	"/>
	<polygon fill="none" points="84.8,81.2 85,79 84.5,79.6 84,81.5 83.9,82.5 84.8,81.5 	"/>
	<polygon fill="none" points="83.7,81.5 83.8,80.3 83,81.2 82.2,84.6 83.3,83.2 	"/>
	<polygon fill="none" points="81.5,85.9 80.6,87 80.3,87.9 81.3,86.8 	"/>
	<polygon fill="none" points="80.9,80.6 79.7,81.7 78.8,85.1 80,83.9 	"/>
	<polygon fill="none" points="74.6,89.5 76.3,87.7 77.3,84.1 75.8,85.7 	"/>
	<polygon fill="none" points="83.3,69.4 84.2,68.8 85.3,64.9 84.5,65.3 	"/>
	<polygon fill="none" points="80.3,86.8 81.3,83 80.3,84 79.1,88.2 	"/>
	<polygon fill="none" points="82.5,81.6 81.7,82.5 80.8,86.2 81.7,85.2 	"/>
	<polygon fill="none" points="84.3,83.6 83.7,84.3 83.3,88.2 	"/>
	<polygon fill="none" points="83.2,83.9 82,85.3 81.7,86.2 83,84.7 	"/>
	<polygon fill="none" points="79.3,82.2 77.8,83.6 76.8,87.2 78.3,85.6 	"/>
	<polygon fill="none" points="81.6,66.8 82.7,66.1 82.9,65.3 81.8,66 	"/>
	<polygon fill="none" points="81.7,70.5 82.9,69.7 84.1,65.6 83,66.3 	"/>
	<polygon fill="none" points="83.1,65.8 84.2,65.1 84.4,64.4 83.4,65.1 	"/>
	<polygon fill="none" points="80,71.8 81.3,70.8 82.6,66.6 81.4,67.3 	"/>
	<polygon fill="none" points="77.9,78.8 79.3,77.7 79.6,76.6 78.2,77.7 	"/>
	<polygon fill="none" points="76.7,82.6 78.2,81.3 79.1,78.3 77.7,79.4 	"/>
	<polygon fill="none" points="78.4,77.1 79.8,76 81.1,71.4 79.9,72.3 	"/>
	<polygon fill="none" points="76,85 77.5,83.5 78,81.9 76.5,83.3 	"/>
	<path fill="none" d="M99.2,61.7L99.2,61.7l0.3-0.2c0,0,0,0,0,0L99.2,61.7z"/>
	<path fill="none" d="M82.8,137l-0.8,2.2c0.2,0.1,0.4,0.1,0.6,0.2L82.8,137z"/>
	<polygon fill="none" points="85,149 82.2,148.3 82.1,149 85,149.2 	"/>
	<path fill="none" d="M83.5,128.3l-3.5,8.9l-0.1,1.6c0.6,0.2,1.2,0.3,1.9,0.5l1.2-3.4L83.5,128.3z"/>
	<path fill="none" d="M86,133l-2.2,6.7c0.6,0.2,1.2,0.3,1.8,0.5L86,133z"/>
	<polygon fill="none" points="81.9,148.2 79,147.4 78.9,148.9 81.8,149 	"/>
	<path fill="none" d="M79.5,138.2l-0.1,0.4c0,0,0.1,0,0.1,0L79.5,138.2z"/>
	<path fill="none" d="M98.8,117.1l-0.2-1.2l-5.1,27.1c0.3,0.1,0.5,0.2,0.8,0.3L98.8,117.1z"/>
	<path fill="none" d="M98.5,114.8l-0.2-1.3l-5.8,29c0.2,0.1,0.5,0.2,0.7,0.3L98.5,114.8z"/>
	<polygon fill="none" points="110.9,71.8 111.2,72.1 111.3,70.1 111,69.8 	"/>
	<path fill="none" d="M98.1,112.5l-0.6-4.6l-8.1,29.5l-0.2,3.9c1,0.3,2,0.7,2.9,1L98.1,112.5z"/>
	<polygon fill="none" points="71,127.7 73.1,119.5 71.4,122.2 69,131.2 	"/>
	<polygon fill="none" points="72.3,111.3 70.4,114 65.5,131 68,127.1 	"/>
	<polygon fill="none" points="74.8,107.8 72.9,110.5 68.6,126.1 71.1,122.1 	"/>
	<path fill="none" d="M67,118.8l-2.5,3.5l-3.7,12.2c0.5,0.1,1,0.2,1.5,0.3L67,118.8z"/>
	<path fill="none" d="M99,118.8l-0.1-0.7l-4.4,25.2c0.1,0,0.1,0.1,0.2,0.1L99,118.8z"/>
	<path fill="none" d="M79.6,137l0.6-6.6l-2.1,5.7l-0.2,2.1c0.4,0.1,0.8,0.2,1.2,0.3L79.6,137z"/>
	<polygon fill="none" points="76.6,146.8 74.8,146.4 74.4,148.6 76.4,148.7 	"/>
	<path fill="none" d="M77.6,137.4l-0.3,0.7c0.1,0,0.1,0,0.2,0L77.6,137.4z"/>
	<polygon fill="none" points="78.7,147.4 76.9,146.9 76.7,148.7 78.5,148.8 	"/>
	<polygon fill="none" points="76.6,114 76.1,116.1 78,111.8 	"/>
	<path fill="none" d="M106.8,134.6l-0.3-1.2l-0.9,15c0.1,0.1,0.2,0.1,0.3,0.2L106.8,134.6z"/>
	<polygon fill="none" points="110.1,84.3 110.4,84.7 110.6,82.5 110.3,82.1 	"/>
	<polygon fill="none" points="110.3,81.6 110.6,82 110.7,79.6 110.4,79.2 	"/>
	<polygon fill="none" points="110,86.9 110.3,87.4 110.4,85.2 110.1,84.8 	"/>
	<polygon fill="none" points="109.8,90 110.1,90.5 110.2,87.9 109.9,87.5 	"/>
	<polygon fill="none" points="110.5,78.2 110.8,78.5 110.9,76.9 110.6,76.5 	"/>
	<polygon fill="none" points="110.6,76.1 110.9,76.4 111.1,74.4 110.8,74.1 	"/>
	<polygon fill="none" points="110.5,78.7 110.8,79.1 110.8,79 110.5,78.6 	"/>
	<path fill="none" d="M99.3,121l-0.1-1.1l-4.1,23.6c0.1,0,0.2,0.1,0.3,0.1L99.3,121z"/>
	<polygon fill="none" points="107.5,138.5 106.8,151 110.1,151 	"/>
	<polygon fill="none" points="110.8,73.6 111.1,73.9 111.2,72.5 110.9,72.2 	"/>
	<path fill="none" d="M102.3,142l-2.2-15.7l-3.1,18c1.9,0.8,3.6,1.6,5,2.2L102.3,142z"/>
	<path fill="none" d="M103,146.8l-0.5-3.3l-0.3,3.2c0.3,0.1,0.5,0.2,0.7,0.4L103,146.8z"/>
	<path fill="none" d="M99.9,125.2l-0.1-1.1L96.3,144c0.1,0,0.2,0.1,0.3,0.1L99.9,125.2z"/>
	<path fill="none" d="M99.6,123.1l-0.2-1.1l-3.8,21.7c0.1,0,0.2,0.1,0.3,0.1L99.6,123.1z"/>
	<path fill="none" d="M105.7,129.6l-0.2-0.8l-1.1,19c0.1,0,0.1,0.1,0.2,0.1L105.7,129.6z"/>
	<polygon fill="none" points="104.7,124.5 104.3,122.7 102.7,142 103.1,145.3 	"/>
	<path fill="none" d="M64,123.1l-1.7,2.3l-2.7,8.8c0.3,0.1,0.6,0.1,0.9,0.2L64,123.1z"/>
	<path fill="none" d="M106.3,132.2l-0.3-1.2l-1,17.2c0.1,0.1,0.2,0.1,0.3,0.2L106.3,132.2z"/>
	<path fill="none" d="M104.1,147.6l1.2-20.1l-0.4-1.8l-1.6,21.1l0.1,0.5C103.6,147.4,103.9,147.5,104.1,147.6z"/>
	<polygon fill="none" points="85.3,149.1 85.3,149.2 86.1,149.3 	"/>
	<polygon fill="none" points="87.2,59.8 87.3,59.8 87.6,58.9 87.2,59.1 	"/>
	<path fill="none" d="M61.7,126.3l-2,2.9l-1.5,4.7c0.4,0.1,0.8,0.1,1.1,0.2L61.7,126.3z"/>
	<polygon fill="none" points="87.5,63 88,62.7 88.2,62.2 87.7,62.5 	"/>
	<path fill="none" d="M87.5,58.1l-0.2,0.6l0.3-0.2l0.1-0.6C87.7,58,87.6,58,87.5,58.1z"/>
	<polygon fill="none" points="87.1,60.7 87.2,60.2 87.1,60.3 	"/>
	<polygon fill="none" points="87.6,60 87,62.5 87.4,62.2 88,59.8 	"/>
	<polygon fill="none" points="82.7,56.8 83.1,56.6 84.1,53.4 83.7,53.6 	"/>
	<path fill="none" d="M86.6,58.1c0.1-0.1,0.3-0.1,0.4-0.2l0.1-1.4L87,56.6L86.6,58.1z"/>
	<polygon fill="none" points="84.9,55.8 85.9,55.4 86.8,52.4 85.9,52.7 	"/>
	<polygon fill="none" points="86.8,56.2 87.1,55.2 86.9,55.3 	"/>
	<polygon fill="none" points="83.5,56.5 84.5,56 85.5,52.9 84.5,53.3 	"/>
	<polygon fill="none" points="103.7,47.8 104.6,48.4 105.4,48.1 104.5,47.5 	"/>
	<polygon fill="none" points="104.8,47.4 105.7,47.9 106.7,47.5 105.8,46.9 	"/>
	<polygon fill="none" points="107,47.3 109.5,46.3 109.8,45.1 106.1,46.8 	"/>
	<polygon fill="none" points="101.8,46.6 103.4,47.6 104.1,47.3 102.5,46.3 	"/>
	<polygon fill="none" points="91,39.5 101.4,46.3 102.2,46 90.9,38.7 	"/>
	<polygon fill="none" points="88.4,70.6 88.4,70.8 88.3,72.1 89.5,70.9 89.6,70.5 89.7,69.6 	"/>
	<polygon fill="none" points="89.7,68.6 88.7,69.4 88.5,70.1 89.7,69.1 	"/>
	<polygon fill="none" points="88.3,62.9 87.5,66.4 88.2,65.9 88.6,64.2 88.7,62.7 	"/>
	<path fill="none" d="M89.6,76.2l0,0.4l1.3-1.6c0-0.1,0-0.2,0-0.3L89.6,76.2z"/>
	<polygon fill="none" points="87.2,56.2 87.2,56 87.1,56.2 	"/>
	<polygon fill="none" points="70.1,88.7 71.5,87.4 72.8,83.5 71.4,84.6 	"/>
	<polygon fill="none" points="65.7,98.8 66.8,97.6 68.3,93.2 67.2,94.3 	"/>
	<polygon fill="none" points="81.6,57.3 82.3,57 83.3,53.7 82.6,54 	"/>
	<polygon fill="none" points="68.5,90.1 69.6,89.1 70.9,85 69.9,85.8 	"/>
	<polygon fill="none" points="62.8,107.6 64.1,106 66.6,98.4 65.4,99.6 	"/>
	<path fill="none" d="M54.4,133.2c0.3,0.1,0.6,0.1,0.9,0.2l3.3-10.3l-1.5,2L54.4,133.2z"/>
	<polygon fill="none" points="61.9,110.4 63.2,108.8 63.9,106.9 62.5,108.4 	"/>
	<path fill="none" d="M59,130.1l-1.8,2.5l-0.4,1.1c0.3,0.1,0.6,0.1,0.9,0.2L59,130.1z"/>
	<polygon fill="none" points="57.4,124.1 58.9,122.1 62.9,109.7 61.6,111.3 	"/>
	<polygon fill="none" points="67.4,93.6 68.5,92.5 69.4,89.8 68.3,90.7 	"/>
	<polygon fill="none" points="79.5,59.6 80.7,59.1 81,57.9 79.8,58.5 	"/>
	<path fill="none" d="M78.7,62c0.4-0.2,0.8-0.4,1.2-0.6l0.6-1.9L79.3,60L78.7,62z"/>
	<polygon fill="none" points="71.6,84 73,82.9 73.4,81.5 72,82.6 	"/>
	<polygon fill="none" points="80,58 81.2,57.5 82.2,54.2 81.1,54.6 	"/>
	<path fill="none" d="M78.2,63.4l1.2-0.6l0.3-0.9c-0.4,0.2-0.8,0.4-1.2,0.6L78.2,63.4z"/>
	<polygon fill="none" points="72.2,82 73.6,80.9 75.3,75.6 74,76.5 	"/>
	<polygon fill="none" points="76.5,68.8 77.7,68.1 78.7,65 77.5,65.7 	"/>
	<polygon fill="none" points="74.2,76 75.5,75 77.1,70 75.8,70.9 	"/>
	<polygon fill="none" points="76,70.4 77.3,69.6 77.6,68.6 76.3,69.3 	"/>
	<path fill="none" d="M85.1,154.1l-0.3,5.6c1.2-0.1,2.4-0.1,3.5-0.1l0.2-5.5C87.2,154.1,86.1,154.1,85.1,154.1z"/>
	<path fill="none" d="M69.5,86.2l-49.4,40.6c2.3,0.4,4.6,0.8,6.9,1.3L68,90.6L69.5,86.2z"/>
	<path fill="none" d="M81.3,160c1.1-0.1,2.1-0.2,3.1-0.2l0.3-5.6c-1.1,0-2.1,0.1-3,0.1L81.3,160z"/>
	<polygon fill="none" points="109.8,68.3 109.8,68.3 109.9,67.9 109.8,67.9 	"/>
	<path fill="none" d="M73.4,155.2l-0.9,6l2.1-0.5c0.2,0,0.4,0,0.5-0.1l0.6-5.8C74.8,155,74,155.1,73.4,155.2z"/>
	<path fill="none" d="M98.1,154.9c-3.4-0.4-6.5-0.6-9.4-0.7l-0.2,5.5c7.9-0.1,13.6,0.9,16.5,1.5l-0.8-5.3
		C102.4,155.5,100.3,155.1,98.1,154.9z"/>
	<path fill="none" d="M76.1,154.8l-0.6,5.8c0.7-0.1,1.4-0.2,2-0.3l0.5-5.8C77.3,154.6,76.7,154.7,76.1,154.8z"/>
	<path fill="none" d="M78.3,154.5l-0.5,5.8c1.1-0.1,2.1-0.2,3.1-0.3l0.5-5.7C80.3,154.3,79.3,154.4,78.3,154.5z"/>
	<path fill="none" d="M104.6,155.9l0.8,5.5c1.3,0.3,1.9,0.6,1.9,0.6h5l-0.8-4.3C109.7,157.2,107.3,156.5,104.6,155.9z"/>
	<path fill="none" d="M66.6,94.8L32.4,129c1.3,0.2,2.5,0.5,3.8,0.7l29-30.3L66.6,94.8z"/>
	<path fill="none" d="M67.8,91.2l-40.4,36.9c1.5,0.3,3.1,0.6,4.6,0.8l34.9-34.8L67.8,91.2z"/>
	<path fill="none" d="M70.2,84.1l-53.2,42.1c0.9,0.2,1.8,0.3,2.7,0.5l50-41.1L70.2,84.1z"/>
	<polygon fill="none" points="75.9,69.6 75.1,70.1 74.7,71.2 75.6,70.7 	"/>
	<polygon fill="none" points="77.1,66 76.3,66.4 75.2,69.6 76.1,69.1 	"/>
	<polygon fill="none" points="77.7,64.1 76.9,64.5 76.4,65.9 77.2,65.5 	"/>
	<polygon fill="none" points="71.1,84.4 71.6,82.9 70.6,83.7 70.1,85.2 	"/>
	<path fill="none" d="M112.6,162h3.4v-2.9c0,0-1.5-0.5-4.1-1.2L112.6,162z"/>
	<polygon fill="none" points="73.6,76.8 72.7,77.5 70.8,83.1 71.8,82.4 	"/>
	<polygon fill="none" points="130.4,161.4 137,161.3 116.3,115.5 	"/>
	<polygon fill="none" points="75.4,71.1 74.6,71.7 72.8,76.9 73.7,76.3 	"/>
	<path fill="none" d="M61.9,143.5l-3.7,12.9l3.7-7.4l1.4-5.2C62.9,143.7,62.4,143.6,61.9,143.5z"/>
	<path fill="none" d="M51.8,141.4l-7.2,22.2c0.4-0.1,0.8-0.3,1.1-0.4l7-21.6C52.3,141.5,52,141.5,51.8,141.4z"/>
	<path fill="none" d="M53,141.7L46,163.1c0.4-0.1,0.7-0.2,1.1-0.3l6.8-21C53.6,141.8,53.3,141.7,53,141.7z"/>
	<path fill="none" d="M54.2,141.9l-6.7,20.8c0.4-0.1,0.8-0.2,1.2-0.2l6.5-20.4C54.9,142,54.6,142,54.2,141.9z"/>
	<path fill="none" d="M55.5,142.2l-6.4,20.3c0.5-0.1,1.1-0.2,1.6-0.2l6.1-19.8C56.4,142.3,56,142.3,55.5,142.2z"/>
	<path fill="none" d="M56.5,125.9l-5.1,6.7c0.9,0.2,1.8,0.3,2.7,0.5L56.5,125.9z"/>
	<path fill="none" d="M64.9,100.1l-28.3,29.7c2.1,0.4,4.3,0.8,6.5,1.2l19.2-22.8L64.9,100.1z"/>
	<polygon fill="none" points="74.9,81.3 75.8,80.6 76.1,79.3 75.3,80 	"/>
	<path fill="none" d="M61,112l-15.9,19.4c2,0.4,3.9,0.7,5.9,1.1l5.7-7.6L61,112z"/>
	<path fill="none" d="M71.8,155.5l-1.8,6.2l2.2-0.5l0.9-6C72.2,155.4,71.8,155.5,71.8,155.5z"/>
	<path fill="none" d="M62,109.1l-18.5,22c0.4,0.1,0.9,0.2,1.3,0.2l16.6-20.2L62,109.1z"/>
	<path fill="none" d="M70.8,123.2l-2.5,4l-2.3,8.2c0.2,0,0.4,0.1,0.6,0.1l1.9-3.2L70.8,123.2z"/>
	<path fill="none" d="M65.1,132.1l-0.9,3c0.5,0.1,0.9,0.2,1.4,0.3l2-7.2L65.1,132.1z"/>
	<path fill="none" d="M67.5,135.7l0.6-2.2l-1.2,2.1C67.1,135.7,67.3,135.7,67.5,135.7z"/>
	<polygon fill="none" points="68.7,132.5 68.2,134.6 70.1,130 	"/>
	<path fill="none" d="M58.3,142.7L52.4,162c0.6-0.1,1.2-0.1,1.8-0.1l5.6-18.9C59.4,142.9,58.8,142.8,58.3,142.7z"/>
	<path fill="none" d="M57.1,142.5l-6,19.7c0.3,0,0.7-0.1,1-0.1l5.9-19.4C57.7,142.6,57.4,142.5,57.1,142.5z"/>
	<path fill="none" d="M62.6,147.4l1.7-3.4c0,0-0.2-0.1-0.7-0.2L62.6,147.4z"/>
	<path fill="none" d="M60.2,143.1l-5.6,18.8c0.3,0,0.5,0,0.8,0l2-3.9l4.2-14.6C61.1,143.3,60.7,143.2,60.2,143.1z"/>
	<path fill="none" d="M78.1,62.7c-0.2,0.1-0.5,0.2-0.7,0.4L77,64l0.8-0.4L78.1,62.7z"/>
	<polygon fill="none" points="111,63.2 110.8,64.5 111,64.7 111.1,63.2 	"/>
	<polygon fill="none" points="111,61.5 110.9,61.4 110.8,62.6 110.8,62.6 	"/>
	<polygon fill="none" points="109.9,44.7 110.4,43.2 104.2,45.6 105.8,46.6 	"/>
	<polygon fill="none" points="111,65.1 110.8,64.9 110.6,65.9 110.5,66.8 110.8,67 	"/>
	<polygon fill="none" points="104.5,47.1 105.4,46.7 103.9,45.8 102.9,46.1 	"/>
	<path fill="none" d="M90.6,72.7c-0.1-0.5-0.2-1-0.3-1.6l-0.4,0.4l-0.1,2L90.6,72.7z"/>
	<polygon fill="none" points="110.4,64.2 110.4,62.9 110.4,63 110.2,64.1 	"/>
	<path fill="none" d="M90.1,69.8l-0.1,0.7l0,0l0.2-0.2C90.2,70.2,90.1,70,90.1,69.8z"/>
	<path fill="none" d="M90.2,70.7L89.9,71l0,0.1L90.2,70.7C90.3,70.8,90.3,70.7,90.2,70.7z"/>
	<polygon fill="none" points="102.6,45.9 103.5,45.5 90.7,37.5 90.8,38.3 	"/>
	<path fill="none" d="M89.6,75.7l1.2-1.4c-0.1-0.3-0.1-0.7-0.2-1.1l-0.9,1L89.6,75.7z"/>
	<path fill="none" d="M78.9,60.2l-0.7,0.3l-0.7,2.1c0.3-0.1,0.5-0.2,0.7-0.4L78.9,60.2z"/>
	<polygon fill="none" points="112.1,57.2 112,58 112,58.1 	"/>
	<polygon fill="none" points="111.1,68.5 111.4,68.8 111.4,68 111.1,67.7 	"/>
	<polygon fill="none" points="111,69.4 111.3,69.7 111.4,69.2 111.1,69 	"/>
	<polygon fill="none" points="112,58.5 111.9,58.4 111.6,60.1 111.9,60.3 	"/>
	<polygon fill="none" points="111.8,62.1 111.5,61.9 111.4,63.1 111.7,63.3 	"/>
	<polygon fill="none" points="111.9,60.7 111.6,60.5 111.5,61.5 111.8,61.7 	"/>
	<polygon fill="none" points="111.5,67.5 111.6,65.6 111.3,65.3 111.2,67.3 	"/>
	<polygon fill="none" points="111.7,63.7 111.4,63.5 111.3,64.9 111.6,65.2 	"/>
	<polygon fill="none" points="111.2,60.2 111.2,60.2 110.9,61.1 111.1,61.2 	"/>
	<polygon fill="none" points="110.8,67.4 110.5,67.2 110.5,68 110.8,68.3 	"/>
	<path fill="none" d="M84.2,53l1.9-6.1c0-0.2-0.1-0.4-0.1-0.6l-2.2,6.8L84.2,53z"/>
	<path fill="none" d="M83.4,53.3l2.4-7.7c-0.1-0.4-0.1-0.7-0.2-1.1l-2.9,9L83.4,53.3z"/>
	<path fill="none" d="M85.6,52.5l0.9-3.1c-0.1-0.6-0.2-1.2-0.3-1.8l-1.6,5.3L85.6,52.5z"/>
	<path fill="none" d="M86.9,52L86.9,52l0-0.2c-0.1-0.5-0.2-1.1-0.3-1.6L86,52.3L86.9,52z"/>
	<path fill="none" d="M87.2,54.8l0.2-0.5l0-0.1c-0.1-0.4-0.1-0.8-0.2-1.2l-0.2,2L87.2,54.8z"/>
	<path fill="none" d="M82.4,53.7l3.2-9.9c-0.1-0.7-0.2-1.4-0.4-2.1l-4,12.4L82.4,53.7z"/>
	<polygon fill="none" points="79.4,58.6 78.7,59 78.3,60.1 79.1,59.8 	"/>
	<polygon fill="none" points="80.7,54.8 80,55 78.9,58.5 79.6,58.2 	"/>
	<path fill="none" d="M85.1,41.1C85,40.7,85,40.4,84.9,40l-4.8,14.6l0.7-0.3L85.1,41.1z"/>
	<path fill="none" d="M88.7,62.2l0-0.2c0-0.1,0-0.1,0-0.2l-0.2,0.1l-0.1,0.5L88.7,62.2z"/>
	<polygon fill="none" points="89.1,65.7 88.8,65.9 88.6,68 	"/>
	<path fill="none" d="M88.3,61.7l0.2-1.1c-0.1-0.3-0.1-0.6-0.2-0.9L87.8,62L88.3,61.7z"/>
	<path fill="none" d="M89.8,68.1l0-0.2c-0.1-0.7-0.2-1.4-0.4-2.2l-0.6,3.2L89.8,68.1z"/>
	<path fill="none" d="M89.2,64.9c-0.1-0.4-0.1-0.8-0.2-1.2l-0.1,0.6l-0.1,1.2l0.4-0.3L89.2,64.9z"/>
	<path fill="none" d="M87.6,55.4L87.5,56l0.2-0.1C87.6,55.8,87.6,55.6,87.6,55.4z"/>
	<path fill="none" d="M87.9,57.5L87.9,57.5c0-0.2-0.1-0.5-0.1-0.7l-0.2,0.8C87.7,57.6,87.8,57.5,87.9,57.5z"/>
	<polygon fill="none" points="87.5,56.4 87.4,57 87.6,56.3 	"/>
	<path fill="none" d="M88.1,59.3l0.1-0.3c0-0.1,0-0.2-0.1-0.4l-0.2,0.1l-0.2,0.8L88.1,59.3z"/>
	<path fill="none" d="M88.1,58.2L88.1,58.2L88.1,58.2C88.1,58.2,88.1,58.2,88.1,58.2z"/>
	<polygon fill="none" points="77.6,65.3 78.9,64.5 79.3,63.2 78.1,63.9 	"/>
	<path fill="none" d="M107.7,84.3l-0.1-0.1l-0.1,1c0,0.1,0,0.3,0.1,0.4L107.7,84.3z"/>
	<path fill="none" d="M107.3,74.5l0.1,0.1l0.2-1.3l0,0C107.5,73.7,107.4,74.1,107.3,74.5z"/>
	<polygon fill="none" points="107.8,78.3 107.8,78.4 107.9,77.4 	"/>
	<polygon fill="none" points="107.9,51.6 107,51 105.9,51.6 107,52.4 107.9,51.7 	"/>
	<polygon fill="none" points="107.9,81.9 107.9,81.8 107.7,83.7 107.8,83.8 	"/>
	<polygon fill="none" points="107.2,77.6 107.5,78 107.8,76 107.6,75.7 	"/>
	<polygon fill="none" points="108.1,51.1 107.4,50.7 107.3,50.8 108,51.3 	"/>
	<polygon fill="none" points="106.2,49.5 107.3,50.2 108,49.8 106.9,49.1 	"/>
	<polygon fill="none" points="108.6,70 108.5,70 108.3,71.1 108.5,71.2 	"/>
	<polygon fill="none" points="108.2,50.8 108.4,50.1 107.7,50.5 	"/>
	<polygon fill="none" points="104.4,63.7 103.8,63.2 103.1,64.2 104,65 	"/>
	<path fill="none" d="M104.9,56.1l0.3-0.3l-1.2-0.9l-0.7,0.5l0.8,0.6C104.4,56,104.7,56.1,104.9,56.1L104.9,56.1z"/>
	<path fill="none" d="M104.5,63.2c-0.1-0.1-0.3-0.2-0.4-0.2l0.4,0.4L104.5,63.2z"/>
	<polygon fill="none" points="108.4,75.6 108.4,75.8 108.4,75.8 	"/>
	<polygon fill="none" points="106.5,55.3 105.8,55.8 105.8,55.8 	"/>
	<path fill="none" d="M107.3,75.3l-0.2-0.2c-0.2,0.8-0.3,1.4-0.3,2l0.1,0.2L107.3,75.3z"/>
	<polygon fill="none" points="107.3,53.8 107.5,53.1 107,52.8 105.8,53.6 106.8,54.3 	"/>
	<path fill="none" d="M107.3,83.1l0.3-1.7l-0.3-0.4l-0.2,1.2c0,0.2,0.1,0.5,0.1,0.7L107.3,83.1z"/>
	<path fill="none" d="M106.8,77.6c0,0.3,0,0.5,0,0.8l0.1-0.7L106.8,77.6z"/>
	<polygon fill="none" points="107.8,78.9 107.7,78.8 107.4,80.6 107.6,80.9 	"/>
	<polygon fill="none" points="108.3,49.6 108.6,49.4 108.7,48.8 108.1,48.4 107.2,48.9 	"/>
	<polygon fill="none" points="105.8,49.7 106.9,50.5 107,50.4 105.8,49.6 	"/>
	<path fill="none" d="M104.9,48.6l0.4,0.3c0.2-0.1,0.5-0.2,0.7-0.4l-0.4-0.2L104.9,48.6z"/>
	<path fill="none" d="M104.5,48.8l0.4,0.3c0,0,0,0,0.1,0L104.5,48.8L104.5,48.8z"/>
	<path fill="none" d="M106.1,48.1l0.3,0.2c0.3-0.2,0.6-0.3,0.9-0.5l-0.3-0.2L106.1,48.1z"/>
	<path fill="none" d="M107.7,47.7c0.6-0.3,1.1-0.5,1.6-0.8l0.1-0.3l-2,0.9L107.7,47.7z"/>
	<polygon fill="none" points="103.8,65.4 102.9,64.5 102.5,65.1 103.6,66.2 	"/>
	<polygon fill="none" points="101.8,48.7 102.6,49.3 103.8,48.8 103,48.2 	"/>
	<polygon fill="none" points="103,47.8 103,47.8 102.1,47.1 	"/>
	<polygon fill="none" points="103.3,48 104.2,48.6 104.3,48.6 103.4,48 	"/>
	<polygon fill="none" points="108.7,80.1 108.5,79.9 108.4,82 108.6,82.2 	"/>
	<path fill="none" d="M102.9,49.5l0.5,0.3c0.4-0.2,0.8-0.4,1.2-0.6l-0.4-0.3L102.9,49.5z"/>
	<polygon fill="none" points="109.2,71.9 109.3,70.7 109.1,70.5 109,71.8 109.2,72 	"/>
	<polygon fill="none" points="109.3,70.2 109.4,68.9 109.2,70.1 	"/>
	<polygon fill="none" points="108.8,48.5 109,47.8 108.4,48.2 	"/>
	<polygon fill="none" points="108.9,77.3 108.7,77 108.5,79.4 108.7,79.6 	"/>
	<polygon fill="none" points="108.9,73.2 108.9,73.7 109.1,72.4 109,72.3 	"/>
	<polygon fill="none" points="109.3,80.9 109,80.5 108.9,82.7 109.2,83.1 	"/>
	<polygon fill="none" points="109.5,78.1 109.2,77.7 109.1,80 109.4,80.4 	"/>
	<polygon fill="none" points="109.2,83.6 108.9,83.2 108.8,85.2 109.1,85.6 	"/>
	<polygon fill="none" points="109,74.8 109,74.8 108.8,76.2 108.9,76.4 	"/>
	<polygon fill="none" points="80.9,93.5 79.4,95.6 77.4,103.5 79.2,101 	"/>
	<polygon fill="none" points="71.2,99.7 69.7,101.4 66.4,112.3 67.9,110.2 	"/>
	<polygon fill="none" points="76.9,104.3 78.9,96.2 77.8,97.7 75.6,106.2 	"/>
	<polygon fill="none" points="77.8,91.5 76.4,93.2 73.7,102.5 75.4,100.3 	"/>
	<polygon fill="none" points="103.5,66.6 102.3,65.3 101.6,66.3 102.8,67.6 103.3,66.9 	"/>
	<polygon fill="none" points="75.9,93.9 74.2,96 71.2,105.8 73.2,103.3 	"/>
	<polygon fill="none" points="79.6,89.3 78.4,90.9 75.9,99.6 77.5,97.6 	"/>
	<polygon fill="none" points="82.9,96.3 82.3,97.2 81.8,101.9 	"/>
	<polygon fill="none" points="82.3,94.2 81.6,97.7 82,97.1 	"/>
	<polygon fill="none" points="82.6,91.3 81.4,92.9 79.7,100.3 81.1,98.4 	"/>
	<polygon fill="none" points="99.8,47.3 101.4,48.5 102.7,48 101,46.8 	"/>
	<polygon fill="none" points="71.1,93.1 72.3,91.9 73.5,88 72.4,89.1 	"/>
	<polygon fill="none" points="73.5,85.5 74.5,84.6 75.6,81.2 74.7,81.9 	"/>
	<polygon fill="none" points="72.6,88.4 73.7,87.3 74.3,85.3 73.3,86.2 	"/>
	<polygon fill="none" points="109.8,67.4 110,67.6 110.1,66.8 109.9,66.7 	"/>
	<polygon fill="none" points="83.5,95.5 83.4,95.7 82.1,102.1 83.1,99.8 	"/>
	<polygon fill="none" points="69.1,102.1 67.7,103.8 64.1,115.3 65.8,113.1 	"/>
	<polygon fill="none" points="66.1,105.4 67.4,103.7 68,102 66.6,103.6 	"/>
	<polygon fill="none" points="61.9,118.2 63.5,116.1 67.2,104.5 65.8,106.2 	"/>
	<polygon fill="none" points="69.4,94.9 70.6,93.7 71.9,89.6 70.8,90.7 	"/>
	<polygon fill="none" points="66.9,102.7 68.2,101.1 70.4,94.4 69.2,95.6 	"/>
	<polygon fill="none" points="73.6,96.6 71.7,99 68.5,109.5 70.7,106.6 	"/>
	<polygon fill="none" points="101.6,98.3 101.4,97.7 100.5,102.4 100.7,103.2 	"/>
	<polygon fill="none" points="99.6,89.9 99.5,89.3 98.4,92.3 98.6,93 	"/>
	<polygon fill="none" points="100.8,94.8 99.8,90.5 98.7,93.7 99.7,98.5 	"/>
	<polygon fill="none" points="101.8,99.4 101.8,99.1 100.8,104 101,104.6 	"/>
	<polygon fill="none" points="101.3,96.9 100.9,95.4 99.9,99.3 100.3,101.6 	"/>
	<polygon fill="none" points="102.2,100.8 102,100.2 101.1,105.4 101.2,106 	"/>
	<polygon fill="none" points="103.3,105.7 103.1,104.9 102.2,110.5 102.3,111.4 	"/>
	<polygon fill="none" points="102.9,104.1 102.8,103.3 101.8,108.7 102,109.6 	"/>
	<polygon fill="none" points="102.6,102.5 102.4,101.7 101.4,107 101.6,107.8 	"/>
	<polygon fill="none" points="98.4,93.7 98.2,92.9 96.4,98 96.6,99.2 	"/>
	<polygon fill="none" points="86.8,119 87.1,113.6 84.5,119.4 84,126.1 	"/>
	<polygon fill="none" points="85,93.4 83.9,95 83.5,98.8 84.3,97 	"/>
	<polygon fill="none" points="83.6,94.9 83.6,94.9 83.6,94.9 	"/>
	<polygon fill="none" points="90.1,111.5 87.1,119.1 86.8,124.5 89.9,115.5 	"/>
	<polygon fill="none" points="98,91.6 96.2,96.2 96.3,97.3 98.1,92.2 	"/>
	<polygon fill="none" points="84.1,89.4 83.1,90.7 83,91.2 82.4,96.5 83.1,95.5 83.9,91.7 	"/>
	<polygon fill="none" points="99.3,88.4 98.2,91.1 98.3,91.6 99.3,88.7 	"/>
	<polygon fill="none" points="96.2,98.7 90.3,115.6 90.1,119.1 96.4,99.9 	"/>
	<polygon fill="none" points="90.3,106.5 87.5,112.8 87.2,118 90.1,110.5 	"/>
	<polygon fill="none" points="107.4,123.3 107.2,122.2 106.6,132.1 106.8,133.4 	"/>
	<polygon fill="none" points="101.1,106.9 101,106.3 99.1,117.1 99.2,117.7 	"/>
	<polygon fill="none" points="101.8,110.5 101.6,109.6 99.7,121 99.8,122.1 	"/>
	<polygon fill="none" points="101.5,108.7 101.3,107.9 99.4,118.9 99.5,119.9 	"/>
	<polygon fill="none" points="105.9,116.9 105.7,115.8 105,124.5 105.4,126.3 	"/>
	<polygon fill="none" points="104.1,121.6 102.4,113.1 100.3,125.2 102.5,140.6 	"/>
	<polygon fill="none" points="105.4,114.7 105.1,113.4 104.4,121.6 104.8,123.3 	"/>
	<polygon fill="none" points="104.9,112.4 103.5,106.6 102.5,112.3 104.2,120.4 	"/>
	<polygon fill="none" points="102.2,112.3 102,111.4 100,123.1 100.1,124.2 	"/>
	<polygon fill="none" points="100.5,104 100.3,103.2 98.5,112.5 98.7,113.8 	"/>
	<polygon fill="none" points="100.8,105.5 100.7,104.9 98.8,114.8 99,116 	"/>
	<polygon fill="none" points="80.9,99.2 79.5,101.1 76.8,113 78.5,110.4 	"/>
	<polygon fill="none" points="79,101.8 77.2,104.4 73.9,117.6 76.3,113.8 	"/>
	<polygon fill="none" points="73.4,118.5 76.7,105.2 75.3,107.1 71.7,121.2 	"/>
	<polygon fill="none" points="81.9,97.7 81.4,98.5 79,109.3 81.3,104.1 	"/>
	<polygon fill="none" points="97.4,107.1 96.5,100.7 90.1,120.3 89.5,136 	"/>
	<polygon fill="none" points="99.5,99.2 98.5,94.3 96.7,100 97.6,106.3 	"/>
	<polygon fill="none" points="83.5,127.1 84.1,120.3 84.1,120.3 80.7,129.3 80.1,135.9 	"/>
	<polygon fill="none" points="100.2,102.4 99.7,100 97.7,107.1 98.3,111.5 	"/>
	<polygon fill="none" points="89.9,116.6 86.7,125.7 86.4,130.5 89.8,120.2 	"/>
	<polygon fill="none" points="77.2,98.4 75.7,100.5 73.2,109.6 75,106.9 	"/>
	<polygon fill="none" points="110,91.6 109.7,91.1 109.6,93.5 109.9,94.4 	"/>
	<polygon fill="none" points="110.3,76.2 110,75.9 109.9,77.5 110.2,77.8 	"/>
	<polygon fill="none" points="110.2,78.3 109.9,77.9 110.2,78.3 	"/>
	<polygon fill="none" points="109.5,84 109.4,86.1 109.7,86.5 109.8,84.4 	"/>
	<polygon fill="none" points="110.1,78.8 109.8,78.4 109.7,80.8 110,81.2 	"/>
	<polygon fill="none" points="109.9,65.8 109.9,66.2 110.2,66.4 110.3,65.8 110.3,64.6 110.2,64.4 	"/>
	<polygon fill="none" points="110.5,71.9 110.2,71.6 110.2,73 110.5,73.3 	"/>
	<polygon fill="none" points="110.4,73.8 110.1,73.4 110,75.4 110.3,75.7 	"/>
	<polygon fill="none" points="91.4,41.5 99.4,47.1 100.7,46.6 91.1,40 	"/>
	<polygon fill="none" points="108,125.6 107.7,124.5 107.1,134.6 107.4,135.9 	"/>
	<polygon fill="none" points="107.9,73.6 107.7,75 107.9,75.3 108.2,73.9 	"/>
	<polygon fill="none" points="107.9,81.2 107.9,81.3 108,81.4 108,80.6 	"/>
	<polygon fill="none" points="106.4,118.8 106.2,118.1 105.6,127.5 105.8,128.3 	"/>
	<polygon fill="none" points="106.9,121.1 106.7,120 106.1,129.6 106.3,130.9 	"/>
	<polygon fill="none" points="108.8,89.5 108.5,89 108.5,89.9 108.8,90.8 	"/>
	<polygon fill="none" points="108.6,82.7 108.4,82.5 108.2,84.5 108.4,84.8 	"/>
	<polygon fill="none" points="109,86.2 108.7,85.7 108.6,88.2 108.9,88.7 	"/>
	<polygon fill="none" points="109.4,90.5 109.1,90 109,91.7 109.3,92.6 	"/>
	<polygon fill="none" points="109.6,87 109.3,86.6 109.2,89.1 109.5,89.6 	"/>
	<polygon fill="none" points="110,81.7 109.7,81.3 109.5,83.5 109.8,83.9 	"/>
	<polygon fill="none" points="83,58 84,57.6 84.4,56.4 83.4,56.9 	"/>
	<path fill="none" d="M83.8,59.5c0.3-0.2,0.7-0.3,1-0.5l0.5-1.6l-1,0.4L83.8,59.5z"/>
	<path fill="none" d="M85.2,58.8c0.3-0.2,0.6-0.3,1-0.5l0.1-0.3l0.1-1.2l-0.7,0.3L85.2,58.8z"/>
	<polygon fill="none" points="84.4,57.4 85.4,57 85.8,55.8 84.8,56.3 	"/>
	<path fill="none" d="M82.4,60.2c0.3-0.2,0.7-0.3,1-0.5l0.5-1.7l-1,0.5L82.4,60.2z"/>
	<polygon fill="none" points="86.7,53.7 86.3,55.2 86.6,55.1 	"/>
	<path fill="none" d="M80.3,61.2c0.2-0.1,0.5-0.2,0.7-0.4l0.6-1.8l-0.7,0.3L80.3,61.2z"/>
	<polygon fill="none" points="82.2,58.4 82.6,58.2 83,57.1 82.5,57.3 	"/>
	<polygon fill="none" points="81.1,58.9 81.8,58.6 82.1,57.4 81.4,57.8 	"/>
	<path fill="none" d="M81.5,60.7c0.2-0.1,0.3-0.2,0.5-0.2l0.5-1.8L82,58.8L81.5,60.7z"/>
	<polygon fill="none" points="89.4,74 89.5,72.9 89.2,74.2 	"/>
	<path fill="none" d="M79.9,62.6l0.7-0.4l0.3-0.9c-0.2,0.1-0.5,0.2-0.7,0.4L79.9,62.6z"/>
	<polygon fill="none" points="87.7,69.8 88.2,69.4 88.4,66.6 	"/>
	<polygon fill="none" points="88.2,72.8 89.4,71.6 89.4,71.5 88.2,72.6 	"/>
	<path fill="none" d="M89.6,77.2L89.3,82l1.9-2.5c0-0.2,0-0.4,0-0.5c0-1.2,0-2-0.2-3.5L89.6,77.2z"/>
	<polygon fill="none" points="85.8,56.8 86.4,56.5 86.5,55.5 86.2,55.6 	"/>
	<path fill="none" d="M86.5,58.5l-0.1,0.6l0.4-0.2l0,0l0-0.5C86.8,58.4,86.7,58.5,86.5,58.5z"/>
	<polygon fill="none" points="86.5,70.7 87.3,70.1 88.1,66.4 87.4,66.9 	"/>
	<polygon fill="none" points="86.8,63.4 87.1,63.3 87.3,62.7 86.9,62.9 	"/>
	<polygon fill="none" points="87.4,63.5 86.5,67.1 87.1,66.7 87.9,63.1 	"/>
	<polygon fill="none" points="63.8,108.1 65.5,106 66.1,104.2 64.4,106.2 	"/>
	<polygon fill="none" points="69,92 70.5,90.5 71.3,88 69.9,89.3 	"/>
	<polygon fill="none" points="75.1,101.2 73.5,103.4 70.7,113.1 72.6,110.4 	"/>
	<polygon fill="none" points="59.5,121.3 61.3,119 65.2,106.9 63.5,109 	"/>
	<polygon fill="none" points="64.7,105.4 66.3,103.4 68.7,96.2 67.1,97.8 	"/>
	<polygon fill="none" points="67.4,97.1 68.9,95.5 70.3,91.2 68.8,92.7 	"/>
	<polygon fill="none" points="59.4,129 63.2,117 61.6,119.1 57.6,131.5 	"/>
	<polygon fill="none" points="70.4,107.5 68.2,110.4 64.9,121.2 67.3,117.8 	"/>
	<polygon fill="none" points="72.9,104.2 71,106.7 67.9,116.9 70.1,113.9 	"/>
	<polygon fill="none" points="67.6,111.1 66.1,113.2 62.6,124.4 64.3,122.1 	"/>
	<polygon fill="none" points="65.5,114 63.8,116.3 60,128.2 62,125.3 	"/>
	<polygon fill="none" points="79.3,64.3 80.1,63.9 80.5,62.6 79.7,63 	"/>
	<polygon fill="none" points="78.2,67.8 79,67.3 79.9,64.3 79.2,64.8 	"/>
	<polygon fill="none" points="77.7,69.3 78.5,68.7 78.8,67.8 78,68.3 	"/>
	<polygon fill="none" points="76,74.7 76.8,74.1 78.4,69.2 77.5,69.8 	"/>
	<polygon fill="none" points="71,90 72.1,88.9 72.9,86.6 71.8,87.6 	"/>
	<polygon fill="none" points="72,86.9 73.1,86 74.2,82.3 73.3,83.1 	"/>
	<polygon fill="none" points="73.4,82.5 74.4,81.7 74.8,80.4 73.9,81.1 	"/>
	<polygon fill="none" points="74.1,80.5 75,79.8 76.7,74.6 75.8,75.2 	"/>
	<path fill="#FFFFFF" d="M146.9,161.1l-1.1,0l-35.7-66l0.2-3l39.3,66.7c0.1-0.1,0.2-0.1,0.3-0.2l-39.3-66.6l42.1,64.1
		c0.1-0.1,0.2-0.2,0.2-0.2L110.4,91l0.2-2.6l45.3,64.5c0.1-0.1,0.2-0.2,0.2-0.2l-45.5-64.8l0.1-2.2l47.7,64.4
		c0.1-0.1,0.2-0.2,0.2-0.3l-47.8-64.7l0.1-2.2l49.9,64.3c0.1-0.1,0.1-0.2,0.2-0.3l-50.1-64.5l0.1-2.5l52.3,63.9
		c0.1-0.1,0.1-0.2,0.2-0.3l-52.5-64.1l0-0.1l54.3,61.5c0.1-0.1,0.1-0.2,0.2-0.3l-54.5-61.7l0.1-1.7l56.1,60.7
		c0.1-0.1,0.1-0.2,0.2-0.3l-56.3-60.8l0.1-2l57.9,59.7c0.1-0.1,0.1-0.2,0.2-0.3l-58.1-59.9l0.1-1.4l59.6,58.3
		c0.1-0.1,0.1-0.2,0.2-0.3l-59.7-58.4l0.1-2l61.3,56.7c0-0.1,0.1-0.2,0.1-0.3L111.7,70l0-0.5l62.3,54.8c0-0.1,0.1-0.2,0.1-0.3
		l-62.4-54.9l0.1-0.9l63.4,53c0-0.1,0.1-0.2,0.1-0.3l-63.5-53.1l0.1-2l64.4,51.9c0-0.1,0.1-0.2,0.1-0.3l-64.5-52L112,64l65.1,50.8
		c0-0.1,0.1-0.2,0.1-0.3L112,63.6l0.1-1.2l65.8,49.3c0-0.1,0.1-0.2,0.1-0.4L112.1,62l0.1-1.1l66.2,48.4c0-0.1,0-0.2,0.1-0.4
		l-66.2-48.5l0.1-1.8l66.5,47.9c0-0.1,0-0.2,0.1-0.4l-66.6-47.9l0.1-1.7l66.9,46.7c0-0.1,0-0.3,0-0.4l-66.9-46.8l0.1-0.9l0.1-0.5
		l66.9,46.2c0-0.1,0-0.3,0-0.4l-66.9-46.1l0.1-0.3l67,44.2c0-0.1,0-0.3,0-0.4l-66.9-44.2l0.2-0.8l66.8,43.2c0-0.1,0-0.3,0-0.4
		l-66.7-43.1l0.3-1L180,93.3c0-0.1,0-0.3,0-0.4l-66.4-41.4l4.4-15.9l-6.4,3.5l-1.1,3.7l-6.6,2.6l-13.3-8.3L90,33.9L84.3,28l-1,2.5
		c0.5,3.1,1,6.1,1.5,8.8l-5.1,15.5L5.4,83.6c0,0.1,0,0.2,0,0.4l74.2-28.8l-1.2,3.5L5,91.3c0,0.1,0,0.2,0,0.4l73.3-32.6l-0.4,1.1
		L5,92.7c0,0.1,0,0.2,0,0.4l72.8-32.4l-0.7,2.1c-21.5,10.6-48.7,24-71.9,35.3c0,0.1,0,0.2,0,0.4C28.3,87.1,55.5,73.8,77,63.2l-0.3,1
		L5.5,101.7c0,0.1,0,0.2,0,0.4l71-37.3L76,66.2L6,105.9c0,0.1,0,0.2,0.1,0.4l69.8-39.6l-1,3.2L7,110.9c0,0.1,0,0.2,0.1,0.3
		l67.6-40.9l-0.4,1.1L7.7,114c0,0.1,0.1,0.2,0.1,0.3L74.1,72l-1.7,5.3l-62.2,44.8c0,0.1,0.1,0.2,0.1,0.3l61.9-44.6l-1.9,5.7
		l-53.9,42.6c-1.7-0.3-3.5-0.6-5.2-0.9c1.3,3.3,2.9,6.5,4.6,9.7c14.7,2.5,27,4.8,35.5,6.5l-7.3,22.4c-0.5,0.2-1,0.4-1.5,0.6
		c0.6,0.4,1.2,0.9,1.9,1.3c0.2-0.1,0.4-0.1,0.6-0.2l0.2,0.1l0-0.1c2.3-0.6,5.6-1.3,9-1.4l-2.9,5.8c6.8,3.6,14.1,6.4,21.8,8.1
		l0.7-9.2c26.3-2.2,40.7,2.5,40.7,2.5l-4.8,7.2c8.4-1.7,16.3-4.5,23.6-8.4l-2.1-4.6l10.2-0.2C143.3,163.8,145.1,162.4,146.9,161.1z
		 M145.4,161.1l-8.1,0.2L115.6,113l-5.1-16.6L145.4,161.1z M113.9,151h-3.5l-2.8-13.8l0.6-10.4L113.9,151z M106.6,148.9
		c-0.1-0.1-0.3-0.1-0.3-0.2l0.8-12.9l0.3,1.2L106.6,148.9z M88.1,141c-0.7-0.2-1.5-0.5-2.2-0.7l0.5-8.6l3.3-10.3l-0.6,16L88.1,141z
		 M89,138.9l-0.1,2.4c-0.2-0.1-0.3-0.1-0.5-0.2L89,138.9z M71.8,126.1l1.9-7.5l2.4-3.8l-0.7,3L71.8,126.1z M74.3,147.1l-0.2,1.5
		l-0.2,0L74.3,147.1z M63,134.9c-0.1,0-0.3-0.1-0.4-0.1l5-16.9l2.2-3.1l-5,17.1L63,134.9z M64.5,133.2L64,135
		c-0.2,0-0.4-0.1-0.6-0.1L64.5,133.2z M56.2,133.5c-0.2,0-0.4-0.1-0.6-0.1l3.6-11.1l1.8-2.4l-4,12.5L56.2,133.5z M56.6,133.5l0,0.1
		c0,0,0,0,0,0L56.6,133.5z M110.7,69.6l-0.1,1.9l-0.3-0.3l0.1-1.9L110.7,69.6z M110.4,68.8l0-0.4l0.3,0.3l0,0.4L110.4,68.8z
		 M108.1,87.4l0.1-2.4l0.2,0.3l-0.1,2.4L108.1,87.4z M108.2,88.5L108.2,88.5C108.2,88.5,108.2,88.5,108.2,88.5L108.2,88.5z
		 M83.3,134.5l0.6-7.3l2.8-7.2l-0.3,5.6L83.3,134.5z M86.3,126.9l-0.3,4.8l-2.6,7.9c-0.2-0.1-0.4-0.1-0.6-0.2l0.3-3.7L86.3,126.9z
		 M110,69L110,69l-0.1,1.9l-0.2-0.2L110,69z M109.8,68.7L109.8,68.7L109.8,68.7L109.8,68.7z M109.9,71.3l-0.1,1.3l-0.3-0.3l0-0.7
		l0.1-0.6L109.9,71.3z M109.8,73.1l-0.1,2l-0.3-0.3l0.1-1.9L109.8,73.1z M109.4,67l0-0.4l0.1-0.3l0,0L109.4,67z M109.7,75.5
		l-0.1,1.6l-0.3-0.3l0.1-1.6L109.7,75.5z M108.3,73.5l-0.3-0.3l0.3-1.7l0.1,0.1L108.3,73.5z M108.3,76.6l0,0.6l0,0.2L108.3,76.6
		L108.3,76.6z M107.6,52.8l-0.3-0.2l0.5-0.4L107.6,52.8z M107.7,72.7l0,0.2l0,0C107.7,72.8,107.7,72.8,107.7,72.7z M106.8,79.8
		l0.3-1.8l0.3,0.4l-0.3,1.8L106.8,79.8z M107,80.7l-0.1,0.5c0-0.3-0.1-0.5-0.1-0.8L107,80.7z M105.5,55.6l-1.2-0.9l1.2-0.9l1,0.7
		L105.5,55.6z M105.6,56.1l-0.2,0.2c0,0,0,0,0,0L105.6,56.1L105.6,56.1z M86.5,60.2l-0.2,0.1l0.1-0.8l0.4-0.2L86.5,60.2z M87,63.7
		l-0.3,1.4l0.1-1.2L87,63.7z M86.4,60.7l-0.2,0.6l0.1-0.6L86.4,60.7z M86.8,60.7l-0.2,2l0,0.1L86.1,63L86.8,60.7z M99.5,73l0.2-0.2
		l1.3,1.9l-0.3,0.4L99.5,73z M100.5,75.9L100.5,75.9L100.5,75.9L100.5,75.9z M100.3,75.6l-1.3-2l0.2-0.3l1.2,2.1L100.3,75.6z
		 M100.4,76.4l-0.1,0.4l-0.1-0.2l0.2-0.3L100.4,76.4z M99.9,76.2L98.7,74l0.1-0.1l1.3,2L99.9,76.2z M100,77.1L99.8,77l0.1-0.2
		L100,77.1z M68.8,100.5l2.1-6.6l1.1-1.2l-1.9,6.2L68.8,100.5z M69.9,99.7l-0.5,1.6L68,103l0.5-1.7L69.9,99.7z M70.4,99l1.4-1.7
		l-0.5,1.5l-1.5,1.8L70.4,99z M70.7,98.2l1.9-6.1l1.3-1.4l-1.8,5.8L70.7,98.2z M86,60.9l-0.3,2.3l0,0L85,63.7l0.8-2.7L86,60.9z
		 M85.9,60.6l0.2-0.6L86,60.5L85.9,60.6z M86.5,90.8l-0.8,1.1l1.2-5.8L86.5,90.8z M86.8,90.9l0.4-0.5l-0.4,1L86.8,90.9z M86.6,85.5
		L85,87.6l1.3-6.4l1-1.2L87,83.3L86.6,85.5z M87.9,79.3l-0.3,1.3l0.1-1.1L87.9,79.3z M87.7,78.9l0-0.5l0.3-0.4L88,78.6L87.7,78.9z
		 M87.4,78.3l-0.7,0.9l0.5-2.4l0.4-0.4L87.4,78.3z M78.7,80.8l0.9-3l1.3-1L80,79.6L78.7,80.8z M79.8,80.2l-0.4,1.3L78,83l0.5-1.5
		L79.8,80.2z M84,76l-0.7,0.6l0.6-2.3l0.6-0.5L84,76z M84.3,76.2l-0.1,0.6L84.1,77L84.3,76.2L84.3,76.2z M82.2,75.7l-0.7,2.6l-1,1
		l0.8-2.7L82.2,75.7z M81.4,75.9l0.3-1l0.9-0.7l-0.3,0.9L81.4,75.9z M81.8,78.4l0.8-0.8l-0.2,1l-0.9,0.9L81.8,78.4z M82,77.8
		l0.7-2.5l0.7-0.6l-0.6,2.4L82,77.8z M82.8,74.7l0.3-0.9l0.7-0.6l-0.2,0.9L82.8,74.7z M83.1,77.2l0.7-0.6l-0.2,0.8l-0.7,0.7
		L83.1,77.2z M84.7,72.6l-0.1,0.7L84,73.8l0.2-0.9L84.7,72.6z M84.4,72.4l0.6-2.2l-0.2,1.9L84.4,72.4z M84.5,77l0.3-0.3l-0.5,2.1
		L84.5,77z M84.6,76.4l0.1-0.6l0.4-0.4L85,76.1L84.6,76.4z M84.7,75.3l0.2-1.8l0-0.1l0.7-0.6l0,0.5l-0.3,1.4L84.7,75.3z M85.7,75.8
		l0.4-0.4L85.5,78l-0.1,0.1L85.7,75.8z M85.7,72.4l-0.6,0.5l0.2-0.8l0.5-0.4L85.7,72.4z M84.6,68.5l0.9-3.2L85.2,68l0,0.1L84.6,68.5
		z M85,68.6l-1.1,4.2l-0.7,0.6l1.2-4.3L85,68.6z M82.8,73.6l-0.9,0.7l1.3-4.4l0.8-0.6L82.8,73.6z M81.4,74.7l-1.2,1l1.4-4.6l1.2-0.8
		L81.4,74.7z M81.3,75.3l-0.3,1l-1.3,1l0.3-1.1L81.3,75.3z M80.3,79.8l1.1-1L81,80l-1.1,1.1L80.3,79.8z M81.3,80.1l0.9-0.9l-0.8,3.1
		l-1,1L81.3,80.1z M82.7,78.8l0.7-0.7L82.7,81l-0.8,0.8L82.7,78.8z M83.9,77.6l0.3-0.3l-0.3,2.4l-0.7,0.8L83.9,77.6z M84,81.5
		l0.4-1.9L85,79l-0.2,2.2l-0.1,0.2l-0.9,1L84,81.5z M84.6,79l0.6-2.8l0.1-0.1l-0.2,2.3L84.6,79z M85.1,81.6l1-1.2L86,81l-0.9,1.1
		L85.1,81.6z M85.2,80.9l0.6-2.7l0.9-1l-0.5,2.5L85.2,80.9z M86.6,79.9l0.8-1l0,0.5l-0.9,1.1L86.6,79.9z M86.9,76.6L86,77.6l0.6-2.6
		l0.8-0.8L86.9,76.6z M86.3,74.8l-0.5,0.5l0-0.5l0.6-0.5L86.3,74.8z M85.8,71.3l-0.4,0.3l0.5-2.2L85.8,71.3z M85.2,71.1l0.3-2.9
		l0.5-0.4L85.2,71.1z M85.4,64.4l-0.7,0.5l0.2-0.7l0.7-0.4L85.4,64.4z M85.3,64.9l-1.1,3.9l-0.8,0.6l1.2-4.1L85.3,64.9z M84.2,65.1
		l-1.1,0.7l0.2-0.7l1.1-0.6L84.2,65.1z M84.1,65.6l-1.2,4.1l-1.2,0.8l1.3-4.2L84.1,65.6z M82.7,66.1l-1.2,0.7l0.2-0.8l1.1-0.7
		L82.7,66.1z M82.6,66.6l-1.3,4.3L80,71.8l1.4-4.4L82.6,66.6z M81.1,71.4L79.8,76l-1.4,1.1l1.5-4.8L81.1,71.4z M79.6,76.6l-0.3,1.1
		l-1.4,1.1l0.4-1.2L79.6,76.6z M79.1,78.3l-0.9,3l-1.5,1.4l1-3.2L79.1,78.3z M78,81.9l-0.5,1.6L76,85l0.5-1.8L78,81.9z M77.3,84.1
		l-1.1,3.6l-1.7,1.7l1.2-3.8L77.3,84.1z M77.8,83.6l1.4-1.4l-1,3.4l-1.5,1.6L77.8,83.6z M79.7,81.7l1.1-1.1L80,83.9l-1.2,1.3
		L79.7,81.7z M80.3,84l1-1.1l-1,3.9l-1.2,1.4L80.3,84z M80.6,87l0.9-1.1l-0.2,0.9l-0.9,1.2L80.6,87z M80.8,86.2l1-3.8l0.8-0.8
		l-0.9,3.5L80.8,86.2z M82,85.3l1.2-1.4L83,84.7l-1.2,1.5L82,85.3z M82.2,84.6l0.9-3.4l0.8-0.9l-0.1,1.2l-0.4,1.7L82.2,84.6z
		 M83.7,84.3l0.6-0.7l-1,4.6L83.7,84.3z M83.8,83.7l0.1-0.6l0.8-0.9l-0.2,0.7L83.8,83.7z M85,82.7l0.8-1l-1.3,6.5l-0.1,0.1L85,82.7z
		 M87.4,83.4l0.9-4.6l0.9-1.1l-0.3,4.8l-1.6,2.2L87.4,83.4z M88.2,77.4l-0.4,0.5L88,76l0.7-0.7L88.2,77.4z M87.6,75.8l-0.3,0.4
		l0.5-2.5l0,0L87.6,75.8z M87.5,73.5l-0.8,0.8l0.1-0.5l0.8-0.7L87.5,73.5z M86.5,73.7l-0.7,0.6l0.1-0.9l0.2-1l0.8-0.6L86.5,73.7z
		 M86.1,67.4l-0.5,0.4l0.8-3.1l-0.2,2.5L86.1,67.4z M85.8,65.8l0.1-1.4l0.3-0.2L85.8,65.8z M84.6,64l-1.1,0.6l0.8-2.7l1-0.6L84.6,64
		z M83.1,64.8L82,65.5l0.9-2.8l1.1-0.6L83.1,64.8z M81.5,65.8l-1.1,0.7l0.9-2.9l1.1-0.6L81.5,65.8z M81.4,66.3l-0.3,0.8L80,67.8
		l0.3-0.9L81.4,66.3z M81,67.6l-1.4,4.5l-1.1,0.8l1.4-4.6L81,67.6z M79.4,72.6l-1.5,4.9l-1.2,0.9l1.5-5L79.4,72.6z M77.8,78
		l-0.4,1.2l-1.2,1l0.4-1.2L77.8,78z M77.2,79.8l-1,3.3L75,84.2l1.1-3.4L77.2,79.8z M76,83.7l-0.6,1.8l-1.3,1.3l0.6-2L76,83.7z
		 M75.3,86.2L74.1,90l-1.3,1.4l1.2-3.9L75.3,86.2z M72.4,96.7l1.9-2.2l-0.4,1.3L72,98.1L72.4,96.7z M72.7,95.9l1.7-5.7l1.7-1.8
		l-1.6,5.2L72.7,95.9z M74.8,93.8l1.7-2l-0.4,1.2l-1.7,2.1L74.8,93.8z M75,93l1.5-5.1l1.5-1.6l-1.4,4.7L75,93z M77,91.2l1.4-1.6
		l-0.3,1.1l-1.4,1.7L77,91.2z M77.2,90.5l1.3-4.6l1.2-1.3l-1.2,4.3L77.2,90.5z M78.9,89l1.2-1.4l-0.3,1l-1.2,1.5L78.9,89z
		 M80.1,88.7l1-1.2l-2,7.9L78,96.9L80.1,88.7z M81.6,87l1.2-1.5l-1.7,7.3l-1.5,2L81.6,87z M83.3,84.9l0.1-0.1l-0.6,5.9l-1.1,1.5
		L83.3,84.9z M84.6,83.9l-0.5,4.9l-0.9,1.1L84.6,83.9z M84.2,91.8l0.7-3.4l1.6-2.1l-1.3,6.3l-1.2,1.8L84.2,91.8z M85.5,92.7l0.9-1.3
		l-0.1,0.8l-1.4,3.2L85.5,92.7z M87.2,112.1l0,0.6l-1.2,2.7L87.2,112.1z M86.8,90.3l0.4-5.1l1.7-2.2l-0.2,3.9
		c-0.2,0.4-0.3,0.6-0.3,0.6l-0.6,1.4L86.8,90.3z M87.6,111l2.8-7.5l-0.1,2.1l-2.8,6.2L87.6,111z M90.5,110.6l5.4-13.7l0.2,1.2
		l-5.8,16.4L90.5,110.6z M93.9,54c-0.2,0-0.3,0-0.3,0l0-0.2L93.9,54z M93.5,53.1l0-0.1l0.4,0.3l-0.1,0L93.5,53.1z M93.4,52.4
		l1.2-0.5l0.8,0.6l-1.2,0.6L93.4,52.4z M102.1,51.4l-1.4,0.8l-0.1-0.1L102.1,51.4L102.1,51.4z M102,50.9c0.2-0.1,0.4-0.2,0.6-0.3
		L102,50.9L102,50.9z M100.9,54.9l0.7-0.4l1.2,0.9l-0.3,0.2c-0.3-0.1-0.5-0.1-0.8-0.2L100.9,54.9z M101.4,62.2l-0.2,0.2l0,0
		L101.4,62.2z M98,75l0.8,1.7L98,76.5l-0.2-1.1L98,75z M97.7,74.9l-0.3-1.3l0.5,1L97.7,74.9z M97.1,72.2L97.1,72.2l0.1-0.2l1.1,2
		l-0.3,0.4L97.1,72.2z M96.7,70.1l-0.3-1.3l0.1-0.1l1.2,2.1l-0.3,0.5L96.7,70.1z M97.1,71.6L97.1,71.6l-0.1-0.3L97.1,71.6z
		 M96.2,67.3l0.5-0.6l0.2,0.3l-0.5,0.6L96.2,67.3z M96.4,68.4L96.4,68.4L96.4,68.4L96.4,68.4z M100.3,55.2l0.2-0.1l0.3,0.3
		C100.7,55.3,100.5,55.2,100.3,55.2z M101,61.8l-0.1,0.2l-0.3-0.3C100.7,61.8,100.9,61.8,101,61.8z M100.6,54.6l0.7-0.4l0,0
		L100.6,54.6L100.6,54.6z M100.3,54.4l-1.2-1l0.7-0.4L101,54L100.3,54.4z M96.9,68.3l0.5-0.6l1.3,1.8l-0.5,0.7L96.9,68.3z M98,70.4
		L98,70.4l-0.2-0.2L98,70.4z M98.3,52.9l-0.1-0.1c0.2-0.1,0.5-0.2,0.7-0.3l0.1,0.1L98.3,52.9z M99.3,52.7l0.2,0.1l-0.7,0.4l-0.2-0.2
		L99.3,52.7z M99,61.9L99,61.9l-0.7,0.8l-0.1-0.2L99,61.9z M98.9,61.4c0.1,0,0.1,0,0.2,0L99,61.5L98.9,61.4z M98.7,64.3l-0.6-0.7
		l0.3-0.3l0.6,0.6L98.7,64.3z M99.2,64.2L99.2,64.2L99,64.6l-0.1-0.1L99.2,64.2z M98,65.8l-0.1-0.2l0.6-0.6l0.1,0.1L98,65.8z
		 M98,66.3l-0.6,0.8l0-0.1L98,66.3L98,66.3z M97.1,62.3l-1-1.3c0.1,0,0.2,0,0.3,0l1,1.1L97.1,62.3z M97.2,63L97.2,63L97,62.8
		l0.1-0.1L97.2,63z M97.1,53.9l0.2,0.2l-0.8,0.4c-0.2,0-0.3-0.1-0.5-0.1L97.1,53.9z M97,53.4c0.3-0.1,0.6-0.3,0.9-0.4L98,53
		l-0.9,0.5L97,53.4z M97.5,62.4l0.1,0.2l-0.2,0.2l-0.1-0.2L97.5,62.4z M97.8,63.2L97.6,63l0.3-0.2l0.2,0.2L97.8,63.2z M98.4,64.5
		L98.4,64.5l-0.6-0.7l0,0L98.4,64.5z M97.4,63.2l0.2,0.2l0,0L97.4,63.2L97.4,63.2z M97.6,64l0.6,0.7l-0.6,0.6L97,64.5L97.6,64z
		 M98.8,65.4L98.8,65.4l-0.5,0.7l0-0.1L98.8,65.4z M97.9,62.3l-0.1-0.2l0.8-0.6l0.1,0.1L97.9,62.3z M97.6,61.9l-0.8-0.8
		c0.5,0,1,0.1,1.5,0.2l0,0L97.6,61.9z M97.1,54.6l0.5-0.3l0.6,0.5C97.8,54.7,97.4,54.7,97.1,54.6z M97.4,53.7l0.9-0.5l0.2,0.2
		l-0.8,0.5L97.4,53.7z M97.9,52.6l-0.6-0.5l0.7-0.3l0.6,0.5C98.4,52.3,98.1,52.4,97.9,52.6z M97,51.8l-0.8-0.6l0.7-0.3l0.8,0.6
		L97,51.8z M97.6,52.7c-0.3,0.1-0.6,0.3-0.9,0.4L96,52.6l0.9-0.4L97.6,52.7z M96.8,53.7l-1.2,0.6l-0.2-0.1c0.4-0.2,0.8-0.4,1.2-0.6
		L96.8,53.7z M95.5,61c0,0,0.1,0,0.1,0l1.2,1.5l-0.1,0.1L95.5,61L95.5,61z M96.9,63.2l-0.5,0.4l-0.2-0.2l0.5-0.4L96.9,63.2z
		 M97.1,63.5l0.2,0.3l-0.5,0.5l-0.3-0.3L97.1,63.5z M97.4,65.6l-0.6,0.7l-0.6-0.9l0.2-0.2l0.4-0.4L97.4,65.6z M97.6,65.8l0.1,0.2
		l-0.6,0.7L97,66.5L97.6,65.8z M97.1,67.3L97.1,67.3L96.7,68l-0.1-0.1L97.1,67.3z M97.6,67.4l0.6-0.8l1.3,1.7l-0.6,0.8L97.6,67.4z
		 M98.4,66.4l0.6-0.7l1.4,1.6l-0.6,0.8L98.4,66.4z M99.2,64.9l0.3-0.4l0,0L99.2,64.9L99.2,64.9z M99.5,64L99.5,64l0.7-0.8L99.5,64z
		 M99.2,63.7l-0.6-0.6l0.8-0.7l0.5,0.6L99.2,63.7z M99.3,61.8L99.3,61.8l0.2-0.3c0,0,0,0,0,0L99.3,61.8z M99.3,55
		c-0.1,0-0.3,0-0.4-0.1l-1-0.8l0.9-0.5l1.2,1L99.3,55z M100.3,54.8L100.3,54.8l-0.4,0.3c0,0,0,0-0.1,0L100.3,54.8z M99.6,52.6
		l0.7-0.4l0.1,0.1l-0.7,0.4L99.6,52.6z M99.3,52.3L99.3,52.3c0.2-0.2,0.4-0.3,0.6-0.4L100,52L99.3,52.3z M98.9,52.1l-0.6-0.5
		l0.7-0.3l0.6,0.4C99.4,51.8,99.2,51.9,98.9,52.1z M98,51.4l-0.8-0.6l0.7-0.3l0.8,0.6L98,51.4z M96.9,50.5l-1.8-1.4l0.7-0.3l1.8,1.3
		L96.9,50.5z M96.5,50.7L95.9,51l-1.8-1.4l0.6-0.2L96.5,50.7z M96.6,52l-0.9,0.4L95,51.7l0.9-0.4L96.6,52z M96.4,53.3
		c-0.4,0.2-0.8,0.4-1.2,0.6l-0.7-0.6l1.2-0.6L96.4,53.3z M94.9,61l-0.1,0.1l0-0.1C94.8,61,94.8,61,94.9,61L94.9,61z M95.1,61.3
		l1.3,1.5L96,63.2l-1-1.3l-0.1-0.4L95.1,61.3z M96.1,63.9l-0.6,0.5l-0.1-0.3l0.5-0.4L96.1,63.9z M96.3,64.1l0.3,0.4l-0.4,0.4
		l-0.2,0.2l-0.3-0.4L96.3,64.1z M95.9,65.6l0.7,0.9L96,67l-0.3-1.3L95.9,65.6z M98.2,73.1l0.4,0.5l0,0.1L98.2,73.1z M97.6,71.5
		l0.3-0.4l1.1,1.9l-0.3,0.4L97.6,71.5z M98.1,70.8L98.1,70.8l1.3,1.7l-0.1,0.2L98.1,70.8z M98.4,70.5l0.6-0.7l1.2,1.7l-0.6,0.8
		L98.4,70.5z M99.1,69.5l0.6-0.8l1.2,1.6l-0.6,0.9L99.1,69.5z M100,68.3l0.6-0.8l1.3,1.5l-0.7,1L100,68.3z M99.4,65.2l0.3-0.4
		l1.4,1.5l-0.4,0.5L99.4,65.2z M99.7,64.3L99.7,64.3l0.7-0.9l0,0L99.7,64.3z M100.2,62.7l-0.5-0.5l0.5-0.4l0.5,0.5L100.2,62.7z
		 M101.1,62.6L101.1,62.6l-0.4,0.5l0,0L101.1,62.6z M101.3,53.8l-1.2-0.9l0.7-0.4l1.2,0.9L101.3,53.8z M101.1,52.3l1.4-0.8l1.2,0.9
		l-1.3,0.8L101.1,52.3z M100.3,51.8L100.3,51.8c0.4-0.3,0.9-0.5,1.4-0.8l0,0L100.3,51.8z M100,51.5l-0.6-0.4l1.5-0.7l0.5,0.4
		C100.9,51.1,100.5,51.3,100,51.5z M99.1,50.9l-0.8-0.6l1.5-0.7l0.8,0.6L99.1,50.9z M97.9,50.1l-1.8-1.3l1.5-0.6l1.7,1.2L97.9,50.1z
		 M95.8,48.5l-3.6-2.7L91.8,44l5.5,4L95.8,48.5z M95.5,48.7l-0.7,0.3l-2.3-1.7l-0.2-0.9L95.5,48.7z M94.4,49.1l-0.6,0.2l-1.1-0.9
		l-0.1-0.8L94.4,49.1z M93.4,49.5l-0.5,0.2L92.7,49L93.4,49.5z M93.7,49.7l1.8,1.4l-0.9,0.4L93,50.1l0-0.1L93.7,49.7z M94.3,51.7
		l-1,0.4L93,50.6L94.3,51.7z M94.1,53.5l0.7,0.6c0,0-0.1,0-0.1,0.1L94,53.5L94.1,53.5z M95.1,91.1l0.1,0.4l-0.8,1.6L95.1,91.1z
		 M95.1,62.6l0.6,0.8l-0.4,0.3L95.1,62.6z M96.4,87.5l0.6,0.2l-1.6,3.3l-0.1-0.5L96.4,87.5z M97.2,88l0.3,1.6l-1.8,3.9l-0.3-2
		L97.2,88z M95.8,96.2l-5.3,13.4l0.2-3.9l5-11L95.8,96.2z M96.1,95.6l-0.2-1.4l1.8-4l0.2,0.9L96.1,95.6z M97.8,89.1l-0.3-1.3
		l0.7,0.2L97.8,89.1z M98.6,88.1l0.4,0.1l-0.9,2.2l-0.2-0.8L98.6,88.1z M98.3,74.7l0.3-0.4l1.2,2.2l-0.2,0.4l-0.3-0.1L98.3,74.7z
		 M99.8,72.5l0.6-0.8l1,1.4l-0.4,1.2L99.8,72.5z M100.6,71.4l0.6-0.9l0.7,0.9l-0.4,1.3L100.6,71.4z M101.4,70.2l0.7-1l0.4,0.4
		l-0.4,1.4L101.4,70.2z M102.4,68.8l0.5-0.7l0.1,0.1l-0.3,0.9L102.4,68.8z M102.2,68.6l-1.2-1.5l0.4-0.5l1.3,1.4L102.2,68.6z
		 M101.3,66l-1.4-1.5l0.7-0.9l1.4,1.4L101.3,66z M100.9,63.4l0.4-0.5l1.4,1.3l-0.4,0.6L100.9,63.4z M101.5,62.6l0.4-0.5
		c0.4,0.1,0.8,0.3,1.2,0.4l0.5,0.5l-0.7,1L101.5,62.6z M102.9,55.7l0.2-0.1l0.3,0.2C103.2,55.8,103,55.7,102.9,55.7z M103.1,55.2
		l-1.2-0.9l0.7-0.4l1.2,0.9L103.1,55.2z M102.8,53.6l1.3-0.8l1.1,0.8l-1.2,0.9L102.8,53.6z M104.4,52.6l1.2-0.8l1,0.7l-1.1,0.8
		L104.4,52.6z M105.4,51.3l-1.1-0.8l1.1-0.6l1.1,0.8L105.4,51.3z M104,50.3L104,50.3l0.9-0.5L104,50.3z M104,50.7l1.2,0.8l-1.2,0.7
		l-1.2-0.8L104,50.7z M102.4,51.2L102.4,51.2l1.2-0.7l0,0L102.4,51.2z M101.7,50.7l-0.5-0.4l1.3-0.6L103,50
		C102.6,50.2,102.2,50.4,101.7,50.7z M100.9,50.1l-0.8-0.6l1.3-0.6l0.9,0.6L100.9,50.1z M99.8,49.2L98.1,48l1.3-0.5l1.7,1.2
		L99.8,49.2z M97.7,47.8l-6-4.3L91.5,42l7.6,5.3L97.7,47.8z M93.2,96.2l2.1-4.2l0.3,2.1l-4.8,10.7l0.1-2.3L93.2,96.2z M89,86
		l0.2-3.4l1.8-2.4C90.6,82,89.7,84.4,89,86z M89.2,77.1l-0.8,1l0.1-0.5l0.7-0.8L89.2,77.1z M88.7,76.8l0.4-2l0.3-0.3l-0.1,1.6
		L88.7,76.8z M88.8,74.6L88,75.4l0.2-2.1l1.1-1.1L88.8,74.6z M88.1,70.4L87.4,71l0.2-0.7l0.5-0.4L88.1,70.4z M88,70.9l-0.3,1.7
		l-0.8,0.7l0.4-1.8L88,70.9z M87,71.3L86.2,72l0.2-0.8l0.8-0.6L87,71.3z M86.1,71l0.3-3.4l0.6-0.4L86.1,71z M86.4,63.2l-0.2,0.6
		L85.9,64l0.1-0.5L86.4,63.2z M85.9,59.4l-1,0.5l0.2-0.7c0.3-0.2,0.6-0.3,1-0.5L85.9,59.4z M85.7,59.9l-0.3,1l-1,0.6l0.3-1
		L85.7,59.9z M84.5,60.1l-1.1,0.6l0.2-0.8c0.3-0.2,0.7-0.3,1-0.5L84.5,60.1z M84.4,60.6l-0.3,1L83,62.2l0.3-1.1L84.4,60.6z M83,60.9
		l-1,0.6l0.2-0.8c0.3-0.2,0.7-0.3,1-0.5L83,60.9z M82.9,61.4l-0.3,1.1l-1.1,0.6l0.4-1.2L82.9,61.4z M81.6,61.7L81,62l0.3-0.9
		c0.2-0.1,0.3-0.2,0.5-0.2L81.6,61.7z M81.4,62.1l-0.4,1.2l-0.6,0.3l0.4-1.2L81.4,62.1z M80.9,63.8L80,66.7l-0.6,0.4l0.9-3
		L80.9,63.8z M79.9,67.2l-0.3,0.9L79,68.5l0.3-0.9L79.9,67.2z M79.4,68.6L78,73.2l-0.7,0.5l1.5-4.8L79.4,68.6z M77.9,73.7l-1.5,5
		l-0.8,0.7l1.6-5.2L77.9,73.7z M76.1,79.3l-0.4,1.2l-0.9,0.7l0.4-1.3L76.1,79.3z M75.6,81.2l-1.1,3.5l-1,0.9l1.2-3.7L75.6,81.2z
		 M74.3,85.3l-0.6,2.1l-1,1l0.7-2.2L74.3,85.3z M73.5,88l-1.2,3.9l-1.1,1.2l1.3-4.1L73.5,88z M70.6,93.7l-1.2,1.2l1.4-4.2l1.1-1.1
		L70.6,93.7z M70.4,94.4l-2.1,6.7l-1.3,1.6l2.3-7.1L70.4,94.4z M68,102l-0.5,1.7l-1.4,1.7l0.6-1.8L68,102z M67.2,104.5l-3.7,11.6
		l-1.6,2.1l3.9-11.9L67.2,104.5z M67.7,103.8l1.4-1.7l-3.4,10.9l-1.7,2.3L67.7,103.8z M69.7,101.4l1.5-1.8l-3.2,10.6l-1.6,2.1
		L69.7,101.4z M71.7,99l1.9-2.4l-3,9.9l-2.2,2.9L71.7,99z M74.2,96l1.7-2.1l-2.7,9.4l-1.9,2.5L74.2,96z M76.4,93.2l1.4-1.7l-2.5,8.9
		l-1.7,2.2L76.4,93.2z M78.4,90.9l1.3-1.5l-2.2,8.3l-1.5,2L78.4,90.9z M77.8,97.7l1.1-1.5l-2,8.1l-1.3,1.9L77.8,97.7z M79.4,95.6
		l1.5-2l-1.7,7.5l-1.8,2.6L79.4,95.6z M81.4,92.9l1.2-1.6l-1.6,7.1l-1.4,1.9L81.4,92.9z M82.3,94.2L82,97.1l-0.5,0.6L82.3,94.2z
		 M82.3,97.2l0.6-0.8l-1.1,5.5L82.3,97.2z M83.4,95.7l0.1-0.1l-0.4,4.3l-1,2.3L83.4,95.7z M83.1,95.5l-0.7,1l0.6-5.3l0.1-0.6l1-1.3
		l-0.2,2.3L83.1,95.5z M83.6,94.9L83.6,94.9L83.6,94.9L83.6,94.9z M83.9,95l1.1-1.6L84.3,97l-0.8,1.8L83.9,95z M84.5,119.4l2.6-5.8
		l-0.3,5.4l-2.8,7.1L84.5,119.4z M87.1,119.1l3-7.6l-0.2,4l-3.2,9L87.1,119.1z M87.2,118l0.3-5.2l2.8-6.3l-0.2,4L87.2,118z
		 M90.3,115.6l5.9-16.9l0.2,1.2l-6.2,19.1L90.3,115.6z M96.3,97.3l-0.2-1.1l1.8-4.6l0.1,0.6L96.3,97.3z M98.2,92.9l0.2,0.8l-1.8,5.6
		L96.4,98L98.2,92.9z M98.3,91.6l-0.1-0.6l1.1-2.7l0.1,0.3L98.3,91.6z M99.5,89.3l0.1,0.6l-1,3.1l-0.2-0.8L99.5,89.3z M99.8,90.5
		l1,4.2l-1,3.8l-1-4.8L99.8,90.5z M100.9,95.4l0.4,1.5l-0.9,4.6l-0.5-2.3L100.9,95.4z M101.4,97.7l0.1,0.6l-0.9,4.8l-0.2-0.8
		L101.4,97.7z M101.8,99.1l0.1,0.3l-0.9,5.1l-0.1-0.5L101.8,99.1z M102,100.2l0.1,0.5l-0.9,5.2l-0.1-0.6L102,100.2z M102.4,101.7
		l0.2,0.8l-0.9,5.4l-0.2-0.9L102.4,101.7z M102.8,103.3l0.2,0.8l-1,5.5l-0.2-0.9L102.8,103.3z M103.1,104.9l0.2,0.8l-1,5.6l-0.2-0.9
		L103.1,104.9z M102.8,67.6l-1.3-1.4l0.7-0.9l1.2,1.2l-0.1,0.4L102.8,67.6z M102.5,65.1l0.5-0.6l0.9,0.9l-0.3,0.8L102.5,65.1z
		 M103.1,64.2l0.7-1l0.5,0.5L104,65L103.1,64.2z M104.1,63c0.2,0.1,0.3,0.2,0.4,0.2l0,0.1L104.1,63z M104.1,56l-0.8-0.6l0.7-0.5
		l1.2,0.9l-0.3,0.3l0,0C104.7,56.1,104.4,56,104.1,56z M106.5,55.3l-0.7,0.6l0,0L106.5,55.3z M105.8,53.6l1.1-0.8l0.5,0.4l-0.2,0.6
		l-0.5,0.5L105.8,53.6z M107.1,75.1l0.2,0.2l-0.3,2l-0.1-0.2C106.9,76.5,107,75.9,107.1,75.1z M106.8,77.6l0.1,0.1l-0.1,0.7
		C106.7,78.1,106.7,77.9,106.8,77.6z M107.3,81l0.3,0.4l-0.3,1.7l-0.1-0.1c0-0.2-0.1-0.5-0.1-0.7L107.3,81z M107.4,80.6l0.3-1.8
		l0.1,0.1l-0.2,2L107.4,80.6z M107.7,84.2l0.1,0.1l-0.1,1.3c0-0.1,0-0.3-0.1-0.4L107.7,84.2z M107.7,83.7l0.2-1.9l0.1,0.1l-0.1,1.9
		L107.7,83.7z M107.8,78.4L107.8,78.4l0.1-1.1L107.8,78.4z M107.5,78l-0.3-0.3l0.3-2l0.3,0.3L107.5,78z M107.4,74.7l-0.1-0.1
		c0.1-0.4,0.2-0.8,0.3-1.2l0,0L107.4,74.7z M107,52.4l-1-0.7L107,51l0.9,0.6l0,0.1L107,52.4z M108.2,50.8l-0.4-0.3l0.6-0.4
		L108.2,50.8z M108.5,70L108.5,70l-0.1,1.3l-0.1-0.1L108.5,70z M107.3,50.2l-1.1-0.7l0.7-0.4l1.1,0.7L107.3,50.2z M107.3,50.8
		l0.1-0.1l0.6,0.4l0,0.1L107.3,50.8z M108.4,75.6l0,0.2l0,0L108.4,75.6z M108.5,79.9l0.2,0.3l-0.1,2.1l-0.2-0.3L108.5,79.9z
		 M108.5,79.4l0.1-2.3l0.2,0.2l-0.1,2.3L108.5,79.4z M109,71.8l0.1-1.3l0.2,0.2l-0.1,1.2l0,0.1L109,71.8z M109.1,72.4l-0.2,1.3
		l0-0.5l0.1-0.9L109.1,72.4z M108.8,48.5l-0.5-0.3l0.6-0.4L108.8,48.5z M109,74.8L109,74.8l-0.1,1.6l-0.2-0.2L109,74.8z M108.9,83.2
		l0.3,0.4l-0.1,2.1l-0.3-0.4L108.9,83.2z M108.9,82.7l0.1-2.1l0.3,0.4l-0.1,2.1L108.9,82.7z M109.1,80l0.1-2.4l0.3,0.4l-0.1,2.4
		L109.1,80z M109.3,70.2l-0.1-0.1l0.2-1.2L109.3,70.2z M109.3,46.9c-0.5,0.2-1,0.5-1.6,0.8l-0.3-0.2l2-0.9L109.3,46.9z M108.1,48.4
		l0.7,0.4l-0.2,0.6l-0.3,0.2l-1.1-0.7L108.1,48.4z M106.4,48.4l-0.3-0.2l0.9-0.4l0.3,0.2C107,48.1,106.7,48.2,106.4,48.4z M107,50.4
		l-0.1,0.1l-1.1-0.8l0.1,0L107,50.4z M105.3,48.9l-0.4-0.3l0.8-0.3l0.4,0.2C105.8,48.7,105.6,48.8,105.3,48.9z M105,49.1
		C105,49.1,104.9,49.1,105,49.1l-0.5-0.2l0.1,0L105,49.1z M104.6,49.3c-0.4,0.2-0.8,0.4-1.2,0.6l-0.5-0.3l1.2-0.6L104.6,49.3z
		 M104.2,48.6l-0.9-0.6l0,0L104.2,48.6L104.2,48.6z M103.8,48.8l-1.2,0.5l-0.9-0.6l1.2-0.5L103.8,48.8z M103,47.8l-0.9-0.7L103,47.8
		L103,47.8z M102.7,48l-1.2,0.5l-1.7-1.2l1.3-0.5L102.7,48z M99.4,47.1l-8-5.6L91.1,40l9.6,6.6L99.4,47.1z M91.2,79
		c0,0.2,0,0.3,0,0.5L89.3,82l0.3-4.8l1.4-1.7C91.2,77,91.2,77.8,91.2,79z M89.4,74l-0.2,0.2l0.3-1.3L89.4,74z M89.4,71.6l-1.2,1.2
		l0-0.2l1.2-1.1L89.4,71.6z M88.2,69.4l-0.5,0.4l0.7-3.2L88.2,69.4z M87.3,70.1l-0.7,0.6l0.9-3.8l0.7-0.5L87.3,70.1z M87.1,66.7
		l-0.6,0.4l0.9-3.6l0.5-0.3L87.1,66.7z M87.1,63.3l-0.3,0.2l0-0.5l0.4-0.2L87.1,63.3z M86.9,58.9l-0.4,0.2l0.1-0.6
		c0.1-0.1,0.3-0.1,0.4-0.2L86.9,58.9L86.9,58.9z M86.5,55.5l-0.1,1l-0.6,0.3l0.3-1.1L86.5,55.5z M86.3,55.2l0.4-1.5l-0.1,1.3
		L86.3,55.2z M86.4,56.9l-0.1,1.2l-0.1,0.3c-0.3,0.2-0.6,0.3-1,0.5l0.5-1.6L86.4,56.9z M85.4,57l-1,0.4l0.3-1.1l1-0.4L85.4,57z
		 M85.3,57.4L84.8,59c-0.3,0.2-0.7,0.3-1,0.5l0.5-1.7L85.3,57.4z M84,57.6L83,58l0.3-1.1l1-0.5L84,57.6z M83.9,58l-0.5,1.7
		c-0.3,0.2-0.7,0.3-1,0.5l0.5-1.8L83.9,58z M82.6,58.2l-0.5,0.2l0.4-1.1l0.4-0.2L82.6,58.2z M82.5,58.6l-0.5,1.8
		c-0.2,0.1-0.3,0.2-0.5,0.2l0.6-1.8L82.5,58.6z M81.8,58.6l-0.7,0.3l0.4-1.1l0.7-0.3L81.8,58.6z M81.6,59L81,60.9
		c-0.2,0.1-0.5,0.2-0.7,0.4l0.6-1.9L81.6,59z M80.9,61.3l-0.3,0.9l-0.7,0.4l0.3-0.9C80.4,61.5,80.7,61.4,80.9,61.3z M80.5,62.6
		l-0.4,1.2l-0.8,0.4l0.4-1.3L80.5,62.6z M79.9,64.3l-1,3l-0.8,0.5l1-3L79.9,64.3z M78.8,67.8l-0.3,0.9l-0.8,0.5l0.3-1L78.8,67.8z
		 M78.4,69.2l-1.5,4.8L76,74.7l1.6-4.9L78.4,69.2z M76.7,74.6L75,79.8l-1,0.8l1.7-5.3L76.7,74.6z M74.8,80.4l-0.4,1.3l-1,0.8
		l0.4-1.4L74.8,80.4z M74.2,82.3L73.1,86l-1.1,1l1.2-3.9L74.2,82.3z M72.9,86.6l-0.7,2.3L71,90l0.8-2.4L72.9,86.6z M70.5,90.5L69,92
		l0.9-2.7l1.4-1.3L70.5,90.5z M70.3,91.2l-1.4,4.3l-1.5,1.6l1.4-4.4L70.3,91.2z M68.7,96.2l-2.3,7.2l-1.7,2l2.4-7.5L68.7,96.2z
		 M66.1,104.2l-0.6,1.8l-1.7,2.1l0.6-1.9L66.1,104.2z M65.2,106.9L61.3,119l-1.8,2.4l4-12.4L65.2,106.9z M61.6,119.1l1.6-2.1
		l-3.8,12l-1.8,2.5L61.6,119.1z M63.8,116.3l1.7-2.3L62,125.3l-2,2.9L63.8,116.3z M66.1,113.2l1.6-2.1l-3.4,11l-1.7,2.3L66.1,113.2z
		 M68.2,110.4l2.2-2.9l-3.1,10.3l-2.5,3.5L68.2,110.4z M71,106.7l1.9-2.6l-2.8,9.7l-2.2,3L71,106.7z M73.5,103.4l1.7-2.2l-2.5,9.1
		l-1.9,2.7L73.5,103.4z M75.7,100.5l1.6-2.1l-2.2,8.5l-1.9,2.6L75.7,100.5z M75.3,107.1l1.3-1.9l-3.3,13.3l-1.7,2.7L75.3,107.1z
		 M77.2,104.4l1.8-2.6l-2.8,12l-2.4,3.7L77.2,104.4z M79.5,101.1l1.4-1.9l-2.4,11.2l-1.6,2.6L79.5,101.1z M81.4,98.5l0.6-0.8
		l-0.7,6.4l-2.2,5.2L81.4,98.5z M84.1,120.3L84.1,120.3l-0.5,6.8l-3.5,8.8l0.6-6.6L84.1,120.3z M86.7,125.7l3.2-9.1l-0.1,3.6
		l-3.3,10.2L86.7,125.7z M90.1,120.3l6.4-19.6l0.9,6.4L89.5,136L90.1,120.3z M96.7,100l1.8-5.6l1,4.9l-1.9,7.1L96.7,100z M99.7,100
		l0.5,2.4l-1.8,9.2l-0.6-4.4L99.7,100z M100.3,103.2l0.2,0.8l-1.9,9.8l-0.2-1.3L100.3,103.2z M100.7,104.9l0.1,0.6L99,116l-0.2-1.2
		L100.7,104.9z M101,106.3l0.1,0.6l-1.9,10.8l-0.1-0.7L101,106.3z M101.3,107.9l0.2,0.9l-1.9,11.2l-0.1-1.1L101.3,107.9z
		 M101.6,109.6l0.2,0.9l-2,11.6l-0.1-1.1L101.6,109.6z M102,111.4l0.2,0.9l-2.1,11.9l-0.1-1.1L102,111.4z M102.4,113.1l1.7,8.4
		l-1.6,19l-2.2-15.3L102.4,113.1z M102.5,112.3l1-5.7l1.4,5.9l-0.7,8L102.5,112.3z M105.1,113.4l0.3,1.3l-0.7,8.6l-0.4-1.7
		L105.1,113.4z M105.7,115.8l0.3,1.1l-0.6,9.3l-0.4-1.8L105.7,115.8z M106.2,118.1l0.2,0.7l-0.6,9.5l-0.2-0.8L106.2,118.1z
		 M106.7,120l0.3,1.1l-0.6,9.8l-0.3-1.2L106.7,120z M107.2,122.2l0.3,1.1l-0.6,10l-0.3-1.2L107.2,122.2z M107.7,124.5l0.3,1.1
		l-0.6,10.3l-0.3-1.2L107.7,124.5z M108,81.4L108,81.4l0-0.2l0.1-0.6L108,81.4z M107.9,75.3l-0.3-0.3l0.2-1.4l0.3,0.3L107.9,75.3z
		 M108.2,84.5l0.1-2l0.2,0.3l-0.1,2L108.2,84.5z M108.5,89l0.3,0.5l-0.1,1.3l-0.3-0.9L108.5,89z M108.6,88.2l0.1-2.5l0.3,0.4
		l-0.2,2.5L108.6,88.2z M109.1,90l0.3,0.5l-0.1,2l-0.3-0.9L109.1,90z M109.2,89.1l0.2-2.5l0.3,0.4l-0.2,2.6L109.2,89.1z M109.7,91.1
		l0.3,0.5l-0.2,2.8l-0.3-0.9L109.7,91.1z M109.7,86.5l-0.3-0.4l0.1-2.1l0.3,0.4L109.7,86.5z M109.5,83.5l0.1-2.2l0.3,0.4l-0.1,2.2
		L109.5,83.5z M109.7,80.8l0.1-2.4l0.3,0.4l-0.1,2.4L109.7,80.8z M109.9,77.9l0.3,0.3l0,0L109.9,77.9z M109.9,77.5l0.1-1.6l0.3,0.3
		l-0.1,1.6L109.9,77.5z M110,75.4l0.1-2l0.3,0.3l-0.1,2L110,75.4z M110.2,73l0.1-1.4l0.3,0.3l-0.1,1.4L110.2,73z M110.3,65.8
		l-0.1,0.6l-0.2-0.2l0-0.4l0.2-1.4l0.2,0.1L110.3,65.8z M110.1,66.8l-0.1,0.7l-0.1-0.1l0-0.8L110.1,66.8z M109.9,67.9l-0.1,0.4l0,0
		L109.9,67.9L109.9,67.9z M109.5,46.3l-2.4,1.1l-0.9-0.6l3.7-1.6L109.5,46.3z M106.7,47.5l-0.9,0.4l-0.9-0.6l0.9-0.4L106.7,47.5z
		 M105.4,48.1l-0.8,0.3l-0.9-0.6l0.7-0.3L105.4,48.1z M103.4,47.6l-1.6-1.1l0.8-0.3l1.6,1L103.4,47.6z M101.4,46.3L91,39.5l-0.1-0.7
		l11.3,7.3L101.4,46.3z M90.9,75l-1.3,1.6l0-0.4l1.3-1.5C90.9,74.8,90.9,74.9,90.9,75z M89.5,70.9l-1.3,1.1l0.1-1.2l0-0.2l1.2-1
		l-0.1,0.9L89.5,70.9z M88.5,70.1l0.1-0.7l1.1-0.8l0,0.5L88.5,70.1z M88.2,65.9l-0.7,0.5l0.8-3.5l0.4-0.2l-0.1,1.5L88.2,65.9z
		 M88,62.7L87.5,63l0.1-0.5l0.5-0.3L88,62.7z M87.4,62.2L87,62.5l0.7-2.5l0.4-0.2L87.4,62.2z M87.3,58.6l0.2-0.6
		c0.1-0.1,0.2-0.1,0.3-0.2l-0.1,0.6L87.3,58.6z M87.6,58.9l-0.2,0.9l-0.2,0.1l0.1-0.8L87.6,58.9z M87.2,56.2L87.2,56.2l0-0.1
		L87.2,56.2z M87.2,60.2l-0.1,0.5L87.2,60.2L87.2,60.2z M87,57.9c-0.1,0.1-0.3,0.1-0.4,0.2l0.4-1.5l0.1-0.1L87,57.9z M86.8,56.2
		l0.1-0.9l0.2-0.1L86.8,56.2z M85.9,55.4l-1,0.4l0.9-3.1l0.9-0.4L85.9,55.4z M84.5,56l-1,0.5l1-3.2l1-0.4L84.5,56z M83.1,56.6
		l-0.4,0.2l1-3.3l0.4-0.2L83.1,56.6z M82.3,57l-0.7,0.3l1.1-3.3l0.7-0.3L82.3,57z M81.2,57.5L80,58l1.1-3.4l1.2-0.5L81.2,57.5z
		 M81,57.9l-0.4,1.1l-1.2,0.5l0.4-1.1L81,57.9z M80.5,59.5l-0.6,1.9c-0.4,0.2-0.8,0.4-1.2,0.6l0.6-2L80.5,59.5z M79.8,61.9l-0.3,0.9
		l-1.2,0.6l0.3-1C78.9,62.3,79.4,62.1,79.8,61.9z M79.3,63.2l-0.4,1.3l-1.2,0.7l0.4-1.4L79.3,63.2z M78.7,65l-1,3.1l-1.3,0.8l1-3.1
		L78.7,65z M77.6,68.6l-0.3,1L76,70.4l0.3-1L77.6,68.6z M77.1,70l-1.6,5l-1.3,1l1.7-5.1L77.1,70z M75.3,75.6l-1.7,5.4L72.2,82
		l1.8-5.5L75.3,75.6z M73.4,81.5L73,82.9L71.6,84l0.5-1.4L73.4,81.5z M72.8,83.5l-1.3,3.9l-1.4,1.3l1.3-4.1L72.8,83.5z M69.6,89.1
		l-1,1l1.4-4.3l1-0.8L69.6,89.1z M69.4,89.8l-0.9,2.7l-1.1,1.1l0.9-2.9L69.4,89.8z M68.3,93.2l-1.4,4.4l-1.2,1.2l1.5-4.5L68.3,93.2z
		 M66.6,98.4l-2.5,7.7l-1.3,1.6l2.6-8L66.6,98.4z M63.9,106.9l-0.6,1.9l-1.3,1.6l0.7-2L63.9,106.9z M62.9,109.7l-4,12.5l-1.5,2
		l4.2-12.8L62.9,109.7z M58.6,123.1l-3.3,10.3c-0.3-0.1-0.6-0.1-0.9-0.2l2.6-8.1L58.6,123.1z M57.3,132.6l1.8-2.5l-1.2,3.8
		c-0.3-0.1-0.6-0.1-0.9-0.2L57.3,132.6z M59.7,129.2l2-2.9l-2.4,7.8c-0.4-0.1-0.8-0.1-1.1-0.2L59.7,129.2z M62.3,125.4l1.7-2.3
		l-3.5,11.3c-0.3-0.1-0.6-0.1-0.9-0.2L62.3,125.4z M64.6,122.3l2.5-3.5l-4.7,16c-0.5-0.1-1-0.2-1.5-0.3L64.6,122.3z M70.4,114
		l1.9-2.7L68,127.1l-2.5,3.9L70.4,114z M72.9,110.5l1.9-2.7l-3.7,14.3l-2.5,4L72.9,110.5z M71.4,122.2l1.7-2.7l-2.1,8.2l-2,3.5
		L71.4,122.2z M74.8,146.4l1.8,0.5l-0.2,1.9l-2-0.1L74.8,146.4z M76.1,116.1l0.5-2.2l1.4-2.2L76.1,116.1z M77.6,137.4l-0.1,0.8
		c-0.1,0-0.1,0-0.2,0L77.6,137.4z M76.9,146.9l1.7,0.4l-0.1,1.5l-1.8-0.1L76.9,146.9z M77.9,138.2l0.2-2.1l2.1-5.7l-0.6,6.6
		l-0.6,1.5C78.7,138.4,78.3,138.3,77.9,138.2z M79.5,138.2l0,0.4c0,0-0.1,0-0.1,0L79.5,138.2z M79,147.4l2.9,0.7l-0.1,0.8l-2.9-0.2
		L79,147.4z M81.7,139.1c-0.6-0.2-1.2-0.3-1.9-0.5l0.1-1.6l3.5-8.9l-0.6,7.5L81.7,139.1z M82.8,137l-0.2,2.4
		c-0.2-0.1-0.4-0.1-0.6-0.2L82.8,137z M82.2,148.3L85,149l0,0.2l-2.9-0.2L82.2,148.3z M83.8,139.7L86,133l-0.4,7.2
		C85,140.1,84.4,139.9,83.8,139.7z M85.3,149.1l0.7,0.2l-0.7,0L85.3,149.1z M89.4,137.5l8.1-29.5l0.6,4.6l-6,29.9
		c-0.9-0.3-1.9-0.7-2.9-1L89.4,137.5z M98.3,113.5l0.2,1.3l-5.3,28c-0.2-0.1-0.5-0.2-0.7-0.3L98.3,113.5z M98.6,115.8l0.2,1.2
		l-4.5,26.1c-0.3-0.1-0.5-0.2-0.8-0.3L98.6,115.8z M98.9,118.1l0.1,0.7l-4.3,24.6c-0.1,0-0.1-0.1-0.2-0.1L98.9,118.1z M99.2,119.9
		l0.1,1.1l-3.9,22.7c-0.1,0-0.2-0.1-0.3-0.1L99.2,119.9z M99.5,122.1l0.2,1.1L96,143.9c-0.1,0-0.2-0.1-0.3-0.1L99.5,122.1z
		 M99.8,124.2l0.1,1.1l-3.3,18.9c-0.1,0-0.2-0.1-0.3-0.1L99.8,124.2z M100.1,126.3l2.2,15.7l-0.4,4.5c-1.4-0.7-3-1.4-5-2.2
		L100.1,126.3z M102.5,143.5l0.5,3.3l0,0.2c-0.2-0.1-0.5-0.2-0.7-0.4L102.5,143.5z M102.7,142l1.7-19.3l0.4,1.8l-1.6,20.8L102.7,142
		z M104.9,125.7l0.4,1.8l-1.2,20.1c-0.2-0.1-0.5-0.2-0.7-0.4l-0.1-0.5L104.9,125.7z M105.6,128.8l0.2,0.8l-1.1,18.3
		c-0.1,0-0.1-0.1-0.2-0.1L105.6,128.8z M106,130.9l0.3,1.2l-1,16.1c-0.1-0.1-0.2-0.1-0.3-0.2L106,130.9z M106.5,133.4l0.3,1.2
		l-0.8,14c-0.1-0.1-0.2-0.1-0.3-0.2L106.5,133.4z M107.5,138.5l2.6,12.5h-3.3L107.5,138.5z M110.1,90.5l-0.3-0.5l0.2-2.6l0.3,0.4
		L110.1,90.5z M110.3,87.4l-0.3-0.4l0.1-2.1l0.3,0.4L110.3,87.4z M110.4,84.7l-0.3-0.4l0.1-2.2l0.3,0.4L110.4,84.7z M110.6,82
		l-0.3-0.4l0.1-2.4l0.3,0.4L110.6,82z M110.8,79.1l-0.3-0.4l0-0.1L110.8,79.1L110.8,79.1z M110.8,78.5l-0.3-0.3l0.1-1.6l0.3,0.3
		L110.8,78.5z M110.9,76.4l-0.3-0.3l0.1-2l0.3,0.3L110.9,76.4z M111.1,73.9l-0.3-0.3l0.1-1.4l0.3,0.3L111.1,73.9z M111.2,72.1
		l-0.3-0.3l0.1-1.9l0.3,0.3L111.2,72.1z M111,64.7l-0.2-0.1l0.2-1.3l0,0L111,64.7z M111.3,69.7l-0.3-0.3l0-0.5l0.3,0.3L111.3,69.7z
		 M111.4,68.8l-0.3-0.3l0.1-0.8l0.3,0.3L111.4,68.8z M112.1,57.2l-0.1,0.9L112,58L112.1,57.2z M111.9,58.4l0.1,0.1l-0.1,1.8
		l-0.3-0.2L111.9,58.4z M111.6,60.5l0.3,0.2l-0.1,1.1l-0.3-0.2L111.6,60.5z M111.5,61.9l0.3,0.2l-0.1,1.2l-0.3-0.2L111.5,61.9z
		 M111.4,63.5l0.3,0.2l-0.1,1.4l-0.3-0.3L111.4,63.5z M111.6,65.6l-0.1,2l-0.3-0.3l0.1-2L111.6,65.6z M111.2,60.2L111.2,60.2l-0.1,1
		l-0.1-0.1L111.2,60.2z M110.9,61.4l0.1,0.1l-0.2,1.1l0,0L110.9,61.4z M110.6,65.9l0.2-1l0.2,0.2l-0.1,1.9l-0.3-0.3L110.6,65.9z
		 M110.5,67.2l0.3,0.3l0,0.8l-0.3-0.3L110.5,67.2z M110.4,62.9l-0.1,1.2l-0.1-0.1L110.4,62.9L110.4,62.9z M110.4,43.2l-0.4,1.5
		l-4.2,1.8l-1.5-1L110.4,43.2z M105.4,46.7l-0.9,0.4l-1.6-1l0.9-0.4L105.4,46.7z M103.5,45.5l-0.9,0.4l-11.8-7.6l-0.1-0.8
		L103.5,45.5z M90.6,73.2c0.1,0.4,0.1,0.8,0.2,1.1l-1.2,1.4l0.1-1.6L90.6,73.2z M89.9,70.5l0.1-0.7c0,0.2,0.1,0.4,0.1,0.5L89.9,70.5
		L89.9,70.5z M89.9,71l0.3-0.3c0,0,0,0,0,0L89.9,71L89.9,71z M90.3,71.2c0.1,0.6,0.2,1.1,0.3,1.6l-0.8,0.9l0.1-2L90.3,71.2z
		 M89.8,67.9l0,0.2l-1,0.8l0.6-3.2C89.5,66.5,89.7,67.2,89.8,67.9z M88.9,64.2l0.1-0.6c0.1,0.4,0.1,0.8,0.2,1.2l-0.1,0.3l-0.4,0.3
		L88.9,64.2z M89.1,65.7L88.6,68l0.2-2.2L89.1,65.7z M88.7,61.8c0,0.1,0,0.1,0,0.2l0,0.2l-0.3,0.2l0.1-0.5L88.7,61.8z M88.5,60.7
		l-0.2,1.1L87.8,62l0.6-2.2C88.4,60.1,88.5,60.4,88.5,60.7z M88.1,58.2C88.1,58.2,88.1,58.2,88.1,58.2L88.1,58.2L88.1,58.2z
		 M88.1,58.6c0,0.1,0,0.2,0.1,0.4l-0.1,0.3l-0.4,0.2l0.2-0.8L88.1,58.6z M87.9,57.4L87.9,57.4c-0.1,0.1-0.2,0.2-0.3,0.2l0.2-0.8
		C87.9,57,87.9,57.2,87.9,57.4z M87.6,55.4c0,0.2,0.1,0.4,0.1,0.6L87.5,56L87.6,55.4z M87.5,56.4l0.1-0.1L87.4,57L87.5,56.4z
		 M87.4,54.2l0,0.1l-0.2,0.5l-0.3,0.1l0.2-2C87.2,53.3,87.3,53.8,87.4,54.2z M86.9,51.8l0,0.2l0,0.1L86,52.3l0.7-2.2
		C86.8,50.7,86.9,51.2,86.9,51.8z M86.5,49.4l-0.9,3.1l-1,0.4l1.6-5.3C86.3,48.2,86.4,48.8,86.5,49.4z M86.1,46.9L84.2,53l-0.4,0.2
		l2.2-6.8C86,46.5,86.1,46.7,86.1,46.9z M85.9,45.6l-2.4,7.7l-0.7,0.3l2.9-9C85.8,44.9,85.8,45.3,85.9,45.6z M85.6,43.8l-3.2,9.9
		l-1.2,0.5l4-12.4C85.3,42.5,85.5,43.2,85.6,43.8z M84.9,40c0.1,0.4,0.1,0.7,0.2,1.1l-4.3,13.3l-0.7,0.3L84.9,40z M80,55l0.7-0.3
		l-1.1,3.5l-0.7,0.3L80,55z M78.7,59l0.7-0.3l-0.4,1.1l-0.7,0.3L78.7,59z M78.2,60.5l0.7-0.3l-0.6,2c-0.2,0.1-0.5,0.2-0.7,0.4
		L78.2,60.5z M77.4,63c0.3-0.1,0.5-0.2,0.7-0.4l-0.3,1L77,64L77.4,63z M76.9,64.5l0.8-0.4l-0.4,1.4l-0.8,0.4L76.9,64.5z M76.3,66.4
		l0.8-0.4l-1,3.1l-0.8,0.5L76.3,66.4z M75.1,70.1l0.8-0.5l-0.3,1.1l-0.8,0.5L75.1,70.1z M74.6,71.7l0.8-0.5l-1.7,5.2l-0.9,0.6
		L74.6,71.7z M72.7,77.5l0.9-0.6l-1.8,5.5l-1,0.8L72.7,77.5z M70.6,83.7l1-0.8l-0.5,1.5l-1,0.8L70.6,83.7z M16.9,126.2l53.2-42.1
		l-0.5,1.5l-50,41.1C18.7,126.5,17.8,126.4,16.9,126.2z M20.1,126.8l49.4-40.6L68,90.6L27,128C24.6,127.6,22.3,127.2,20.1,126.8z
		 M27.4,128.1l40.4-36.9l-1,2.9L32,129C30.4,128.7,28.9,128.4,27.4,128.1z M32.4,129l34.2-34.2l-1.5,4.6l-29,30.3
		C34.9,129.5,33.6,129.3,32.4,129z M36.6,129.8l28.3-29.7l-2.7,8.1L43.1,131C40.9,130.6,38.7,130.2,36.6,129.8z M43.5,131.1l18.5-22
		l-0.7,2.1l-16.6,20.2C44.3,131.3,43.9,131.2,43.5,131.1z M45.1,131.4L61,112l-4.2,12.9l-5.7,7.6C49,132.2,47.1,131.8,45.1,131.4z
		 M51.4,132.6l5.1-6.7l-2.4,7.2C53.2,133,52.3,132.8,51.4,132.6z M44.5,163.6l7.2-22.2c0.3,0.1,0.6,0.1,0.9,0.2l-7,21.6
		C45.3,163.3,44.9,163.5,44.5,163.6z M46,163.1l6.9-21.4c0.3,0.1,0.6,0.1,1,0.2l-6.8,21C46.8,162.9,46.4,163,46,163.1z M47.5,162.7
		l6.7-20.8c0.3,0.1,0.6,0.1,1,0.2l-6.5,20.4C48.3,162.6,47.9,162.6,47.5,162.7z M49.1,162.4l6.4-20.3c0.4,0.1,0.8,0.2,1.2,0.2
		l-6.1,19.8C50.2,162.3,49.6,162.3,49.1,162.4z M51,162.2l6-19.7c0.3,0.1,0.6,0.1,0.9,0.2L52,162.1C51.7,162.1,51.4,162.1,51,162.2z
		 M54.2,161.9c-0.6,0-1.2,0.1-1.8,0.1l5.9-19.3c0.5,0.1,1,0.2,1.5,0.3L54.2,161.9z M55.4,161.9c-0.3,0-0.5,0-0.8,0l5.6-18.8
		c0.5,0.1,1,0.2,1.4,0.3L57.3,158L55.4,161.9z M58.1,156.4l3.7-12.9c0.6,0.1,1.1,0.2,1.4,0.3l-1.4,5.2L58.1,156.4z M62.6,147.4
		l1-3.6c0.5,0.1,0.7,0.2,0.7,0.2L62.6,147.4z M64.3,135.1l0.9-3l2.5-4l-2,7.2C65.2,135.3,64.7,135.2,64.3,135.1z M66,135.4l2.3-8.2
		l2.5-4l-2.4,9.2l-1.9,3.2C66.4,135.5,66.2,135.5,66,135.4z M67.5,135.7c-0.2,0-0.4-0.1-0.6-0.1l1.2-2.1L67.5,135.7z M68.7,132.5
		l1.4-2.5l-2,4.6L68.7,132.5z M70,161.7l1.8-6.2c0,0,0.4-0.1,1.3-0.3l-0.9,6L70,161.7z M74.6,160.7l-2.1,0.5l0.9-6
		c0.6-0.1,1.4-0.2,2.3-0.4l-0.6,5.8C74.9,160.7,74.7,160.7,74.6,160.7z M75.4,160.6l0.6-5.8c0.6-0.1,1.2-0.2,1.9-0.2l-0.5,5.8
		C76.8,160.4,76.1,160.5,75.4,160.6z M77.8,160.3l0.5-5.8c0.9-0.1,2-0.2,3.1-0.2l-0.5,5.7C79.9,160.1,78.9,160.2,77.8,160.3z
		 M84.4,159.8c-1,0.1-2.1,0.1-3.1,0.2l0.5-5.7c0.9-0.1,1.9-0.1,3-0.1L84.4,159.8z M88.2,159.7c-1.1,0-2.3,0-3.5,0.1l0.3-5.6
		c1.1,0,2.2,0,3.4,0L88.2,159.7z M88.5,159.7l0.2-5.5c2.8,0.1,6,0.3,9.4,0.7c2.2,0.3,4.3,0.6,6.2,1l0.8,5.3
		C102.1,160.5,96.4,159.6,88.5,159.7z M107.3,162c0,0-0.7-0.3-1.9-0.6l-0.8-5.4c2.7,0.5,5,1.2,6.8,1.8l0.8,4.2H107.3z M116,162h-3.4
		l-0.8-4.2c2.6,0.8,4.1,1.2,4.1,1.2V162z M130.4,161.4l-14-45.9l20.7,45.8L130.4,161.4z"/>
</g>
</svg>
