<?xml version="1.0" encoding="utf-8"?>
<!-- Generator: Adobe Illustrator 17.1.0, SVG Export Plug-In . SVG Version: 6.00 Build 0)  -->
<!DOCTYPE svg PUBLIC "-//W3C//DTD SVG 1.1//EN" "http://www.w3.org/Graphics/SVG/1.1/DTD/svg11.dtd">
<svg version="1.1" id="singapore" xmlns="http://www.w3.org/2000/svg" xmlns:xlink="http://www.w3.org/1999/xlink" x="0px" y="0px"
	 viewBox="0 0 185 185" enable-background="new 0 0 185 185" xml:space="preserve">
<path fill="#FFFFFF" d="M111,93.2c6,0.2,11,0.4,16.3,0.5l5.4,76.4c9.7-5.1,18.4-11.9,25.6-20.1c-3.1-18.1-4.4-37.2-3.7-55.8
	c2,0,4.1,0,6.1,0c0.6,0,1.1-0.5,1.4-1c0.8-1.8,1.5-3.7,1.7-5.7c0-0.5-1-1-1.5-1c-4.9-0.2-9.4-0.3-14.4-0.4V81h-10v4.9
	c-21-0.3-41.2-0.1-73.2-2.3C64,83.6,62,83.3,59,83v-7H49v5.7c-13-1.6-29.5-3.3-29.8-1.7c-0.1,0.8,0.7,1.6,1.3,2.1
	c0.9,0.7,2.1,1.1,3.2,1.4c6.4,1.8,12.7,4.2,19.2,5.1c0.5,20.6-2,48.6-6,71.5c7.8,6.4,16.8,11.5,26.5,14.9l6-84
	c5.2,0.4,9.6,0.6,15.6,0.9v87.8c2,0.2,4.5,0.3,7,0.3c6.7,0,13-0.8,19-2.2V93.2z"/>
</svg>
