<?xml version="1.0" encoding="utf-8"?>
<!-- Generator: Adobe Illustrator 17.1.0, SVG Export Plug-In . SVG Version: 6.00 Build 0)  -->
<!DOCTYPE svg PUBLIC "-//W3C//DTD SVG 1.1//EN" "http://www.w3.org/Graphics/SVG/1.1/DTD/svg11.dtd">
<svg version="1.1" id="Layer_3" xmlns="http://www.w3.org/2000/svg" xmlns:xlink="http://www.w3.org/1999/xlink" x="0px" y="0px"
	 viewBox="0 0 185 185" enable-background="new 0 0 185 185" xml:space="preserve">
<g>
	<path fill="none" d="M92.4,70.7l0.2,5.1c0.2,0.1,0.3,0.3,0.3,0.5c0,0.1,0,0.2,0,0.2l1.4,1.3c0,0,0,0,0.1-0.1c0.1-0.1,0.3,0,0.4,0.2
		c0.1,0.2-0.1,0.3,0.1,0.5c-0.3-0.1-0.3,0-0.6,0c-0.2,0-0.4-0.3-0.2-0.4C94,78,94,78,94,78l-1.4-1.3c-0.1,0.1-0.2,0.1-0.3,0.1
		c-0.3,0-0.5-0.2-0.5-0.5c0-0.2,0.1-0.4,0.3-0.5l0.1-5.1c-3,0.1-5.4,2.5-5.4,5.6c0,3.1,2.5,5.6,5.5,5.6c3.1,0,5.5-2.5,5.5-5.6
		C97.8,73.2,95.4,70.7,92.4,70.7z"/>
	<path fill="none" d="M92.3,68.7c-4.2,0-7.5,3.4-7.5,7.6c0,4.2,3.4,7.6,7.5,7.6c4.2,0,7.5-3.4,7.5-7.6
		C99.9,72.1,96.5,68.7,92.3,68.7z M92.3,82.2c-3.3,0-5.9-2.7-5.9-6c0-3.2,2.6-5.8,5.8-5.9l0-1.3h0.1l0,1.3c3.3,0,5.9,2.7,5.9,5.9
		C98.2,79.6,95.6,82.2,92.3,82.2z"/>
	<polygon fill="#FFFFFF" points="97.4,38 97.4,38 97.4,38 	"/>
	<path fill="#FFFFFF" d="M80.6,68L80,68.6V85h25V68.5l-0.5-0.5H80.6z M92.3,83.8c-4.2,0-7.5-3.4-7.5-7.6c0-4.2,3.4-7.6,7.5-7.6
		c4.2,0,7.5,3.4,7.5,7.6C99.9,80.4,96.5,83.8,92.3,83.8z"/>
	<path fill="#FFFFFF" d="M93,10v2.2c-1,0-0.7,0.3-0.7,0.5c0,0.3,0.1,0.5,0.4,0.6c-0.4,2.9-3,20.7-5.4,24.7h10.1
		c-2.5-4-4.4-21.7-4.8-24.7c0.3,0,0.7-0.3,0.7-0.6c0-0.3-0.3-0.5-0.3-0.6V10L93,10z"/>
	<path fill="#FFFFFF" d="M92.4,70.3l0-1.3h-0.1l0,1.3c-3.2,0.1-5.8,2.7-5.8,5.9c0,3.3,2.7,6,5.9,6c3.3,0,5.9-2.7,5.9-5.9
		C98.2,73,95.6,70.4,92.4,70.3z M92.3,81.8c-3.1,0-5.5-2.5-5.5-5.6c0-3,2.4-5.5,5.4-5.6l-0.1,5.1c-0.2,0.1-0.3,0.3-0.3,0.5
		c0,0.3,0.2,0.5,0.5,0.5c0.1,0,0.2,0,0.3-0.1L94,78c0,0,0,0-0.1,0.1c-0.1,0.1,0,0.4,0.2,0.4c0.2,0,0.3-0.1,0.6,0
		c-0.1-0.2,0-0.3-0.1-0.5c-0.1-0.3-0.3-0.4-0.4-0.2c0,0-0.1,0.1-0.1,0.1l-1.4-1.3c0-0.1,0-0.1,0-0.2c0-0.2-0.1-0.4-0.3-0.5l-0.2-5.1
		c3,0,5.5,2.5,5.5,5.6C97.8,79.3,95.4,81.8,92.3,81.8z"/>
	<polygon fill="#FFFFFF" points="105,85 80,85 80,86.8 82,90 103.2,90 105,87.2 	"/>
	<path fill="#FFFFFF" d="M97,180c2.1,0,4-0.4,6-0.7V166H82v13.4c2,0.2,4,0.6,6,0.6H97z"/>
	<rect x="87" y="39" fill="#FFFFFF" width="10" height="10"/>
	<polygon fill="#FFFFFF" points="82,61 82,64.9 81,67 104.1,67 103,64.9 103,61 	"/>
	<polygon fill="#FFFFFF" points="87.1,50 82,60 103.2,60 97.5,50 	"/>
	<rect x="82" y="163" fill="#FFFFFF" width="21" height="3"/>
	<rect x="82" y="144" fill="#FFFFFF" width="21" height="3"/>
	<rect x="82" y="92" fill="#FFFFFF" width="21" height="16"/>
	<rect x="82" y="148" fill="#FFFFFF" width="21" height="14"/>
	<rect x="82" y="130" fill="#FFFFFF" width="21" height="14"/>
	<rect x="82" y="109" fill="#FFFFFF" width="21" height="3"/>
	<rect x="82" y="113" fill="#FFFFFF" width="21" height="13"/>
	<rect x="82" y="126" fill="#FFFFFF" width="21" height="3"/>
</g>
</svg>
