<?xml version="1.0" encoding="utf-8"?>
<!-- Generator: Adobe Illustrator 17.1.0, SVG Export Plug-In . SVG Version: 6.00 Build 0)  -->
<!DOCTYPE svg PUBLIC "-//W3C//DTD SVG 1.1//EN" "http://www.w3.org/Graphics/SVG/1.1/DTD/svg11.dtd">
<svg version="1.1" id="Layer_3" xmlns="http://www.w3.org/2000/svg" xmlns:xlink="http://www.w3.org/1999/xlink" x="0px" y="0px"
	 viewBox="0 0 185 185" enable-background="new 0 0 185 185" xml:space="preserve">
<g>
	<rect x="77" y="156" fill="none" width="5" height="2"/>
	<path fill="none" d="M81.3,60.3c0.1,0.1,0.1,0.1,0.1,0.1l3.9-0.6c0-0.2,0.1-0.4,0.1-0.6L80,56.4v1.1C80,58.3,80.9,59.7,81.3,60.3z"
		/>
	<path fill="none" d="M85,61.4L85,61.4l-3.1-0.5c0.9,1.1,0.7,2.6,0.5,3.2c-0.1,0.1,0.4,1.1,0.4,1.4l1.5,0.7
		C85.6,65.5,85,61.4,85,61.4z"/>
	<rect x="92" y="156" fill="none" width="6" height="2"/>
	<rect x="85" y="156" fill="none" width="5" height="2"/>
	<rect x="100" y="156" fill="none" width="6" height="2"/>
	<path fill="#FFFFFF" d="M109.2,80l-4.4,6.2c-0.4-2.1-0.7-3.6-0.8-3.9c-0.4-0.8-2.3-2.8-2.3-3.2c-0.4-2.4-0.1-5.3-2.8-6.4
		c-1.8-1-2.3-1.9-2.8-3.7c0,0,1.6-1.4,1.1-2.7C96.8,65,96,64.9,96,62.7v-1.3l6.1-0.5l-6.4-1.3c0-0.2-0.1-0.4-0.1-0.6l5.3-3.7
		l-6.1,1.9c-0.2-0.2-0.3-0.4-0.5-0.7l3.1-5.2l-5,4.2c-0.5-0.2-0.8-0.2-1.4-0.2L90,49.4l-1,5.9c-0.5,0.1-0.9,0.2-1.3,0.4l-5-4.5
		l3.5,5.8c0,0.1-0.1,0.1-0.1,0.2L80,56.4l5.4,2.8c0,0.2-0.1,0.4-0.1,0.6l-3.9,0.6c0,0-0.1-0.1-0.1-0.1c-0.4-0.5-1.3-2-1.3-2.7v-1.1
		c0-3-1.6-14.2-2.8-16.9l-0.3-1.1l0.9-3.4H79v-4h-1.8l0-2.1c2.1-1-0.1-9.2-0.1-9.2c-0.4,1.8-0.5,2.2-0.5,2.2c-0.6-1.6,0.1-3,0.1-3
		c-1.4,1.3-1.7,2.3-1.8,2.7c0.1-0.8,0-3.2,0-3.2c-0.5,1.1-3.3,5.7-3.6,7.4c-0.4,1.9,0.8,3,0.9,3l0,2h-2v4h1.7l1,3.4
		c-0.4,1.3-0.1,3.1,0.7,3.9c0.6,0.7,0.4,3.5,0.5,4.5c0.3,2.5,0.1,3.7,0.6,6.2c0.3,1.4,1.6,4.1,1.6,5.5l-0.6,3.1c0,0,0-0.1,0-0.1
		c-0.8,1-2.6,4.2-1.2,8.9c0,0-0.8,1.4,0.4,2.2c0,0-0.6,2.6,2.2,4.2c1.2,0.7,0.8,2.9,0.5,5c-0.3,1.5,0.8,3.4,1.4,4.4
		c-0.2,0.5-4,10.6-0.5,14.1c-0.2,0.7-4.8,7.4,0.6,9.7l0.1,22.1c0,0,1.6,1.1,1.1,3.6c-0.1,0.1-2,0.3-2,2.1c0,1.3,2.2,2.2,1.9,3.4
		c-0.4,1.2-3.9,2.7-3.9,3.2l0,2.7h-1v4h-2v5h2v6.4l-2,5.4v8.2h-3v1c7,1.9,14.8,3,22.7,3c7,0,13.3-0.8,20.3-2.4V176h-3v-8.2l-2-5.4
		V156h1v-5h-1v-4h-2.1c-0.5-1-2.6-6.7-2.8-12.4c0,0,2.4-1.2,2.7-3.3c1.4-8.5-0.4-26.4-0.4-26.5c0.4-0.4,0.3-1,1.5-1.2
		c1-0.2,2.3-0.7,2.7-3.4c0.4-2.8,0-4.6,0-4.6s1.3,0.1,1.9-0.7c0.7-0.8,2.5-4,2.5-4s0.6-1.7-1.1-3.2l2.3-3.2L109.2,80z M82,158h-5v-2
		h5V158z M82.9,65.5c-0.1-0.3-0.4-1.3-0.4-1.4c0.2-0.6,0.4-2.1-0.6-3.2l3.1,0.4v0.1c0,0,0.6,4.1-0.6,4.8L82.9,65.5z M90,158h-5v-2h5
		V158z M98,158h-6v-2h6V158z M106,156v2h-6v-2H106z"/>
</g>
</svg>
