<?xml version="1.0" encoding="utf-8"?>
<!-- Generator: Adobe Illustrator 17.1.0, SVG Export Plug-In . SVG Version: 6.00 Build 0)  -->
<!DOCTYPE svg PUBLIC "-//W3C//DTD SVG 1.1//EN" "http://www.w3.org/Graphics/SVG/1.1/DTD/svg11.dtd">
<svg version="1.1" xmlns="http://www.w3.org/2000/svg" xmlns:xlink="http://www.w3.org/1999/xlink" x="0px" y="0px"
	 viewBox="0 0 288 288" enable-background="new 0 0 288 288" xml:space="preserve">
<g id="Layer_1" display="none">
	<rect x="0" y="0" display="inline" fill="#BCBEC0" width="288" height="252"/>
</g>
<g id="Layer_2">
	<g>
		<path d="M283.7,81.5c-5,0.8-10.2,1.7-15.4,2.7v-7.4c5.4-0.7,10.8-1.3,16.1-1.8l-0.5-5c-5.1,0.5-10.3,1.1-15.6,1.7V21.2
			c3.2,5.3,8,12.5,13.9,19.9L286,38c-9.6-12.2-16.4-24.2-17.8-26.8V9.4h-13.8v4h-12.2v-4h-13.8v2.3c-0.8,3.9-12.2,59.8-45.6,75.5
			c-0.1,0-0.2,0-0.3,0.1c-38.1-21.6-77.6-78-82.1-84.5V1H81.7v1.6l-5.3,6.8H53.4c-2.7-3.3-4.5-5.7-5.3-6.8V1H29.2v1.6L2.1,34.3
			l3.8,3.2l23.3-27.3v59.3L2,104.2l3.9,3.1l23.2-29.6v56.6c-8.7,3.3-17.4,6.6-26.1,10l1.8,4.7c25.8-10.2,51.7-19.6,76.8-27.9v27.7
			C45,166,16.5,181.6,2.7,189.5l2.5,4.3c5.7-3.2,13.8-7.8,24-13.2v70.2h18.9v-80.1c10.1-5.1,21.4-10.7,33.6-16.5v96.5h18.9V145.6
			c45.6-20.5,88.5-36.3,127.9-47v62.9h13.8V95.1c4.1-1,8.2-2,12.2-2.9v69.3h13.8V89.3c5.5-1.1,10.9-2,16.2-2.9L283.7,81.5z
			 M43.1,245.9h-8.9V178c2.8-1.5,5.8-3.1,8.9-4.7V245.9z M262.9,14.4c-0.5,3.5-1.5,10.2-3.4,18.2V14.4H262.9z M254.5,73.7
			c-1.9,0.3-3.7,0.5-5.6,0.8c2-3.3,3.9-6.8,5.6-10.7V73.7z M237.9,81.3c-7.3,8.5-16.6,14.3-28.5,14.3c-6.3,0-13-1.8-19.8-4.8
			C206.1,87,222.2,83.9,237.9,81.3z M254.5,39.4h-12.2v-8h12.2V39.4z M254.5,50.1c-0.3,0.8-0.6,1.6-0.9,2.4h-11.3v-8h12.2V50.1z
			 M251.7,57.5c-2.6,6.3-5.7,12.5-9.4,18v-18H251.7z M254.5,18.3v8h-12.2v-8H254.5z M237.3,14.4v61.9c-1.2,0.2-2.5,0.4-3.8,0.6V14.4
			H237.3z M223.3,45.4c2.1-5,3.8-9.8,5.2-14.2v46.6c-10.4,1.8-20.9,3.9-31.7,6.2C207.2,75.4,216.2,62.3,223.3,45.4z M134.1,52.5
			c15,16.2,28.9,28.4,41.6,36.4c-3.2,0.8-6.4,1.5-9.6,2.4c-0.5,0-1,0-1.6,0c-20.4,0-43.6-14.8-63.9-32.4V11.4
			C106.9,20.1,119.2,36.4,134.1,52.5z M100.6,65.5c19.1,16,36.3,25.8,51.6,29.3c-16.9,4.4-34.1,9.4-51.6,14.9V65.5z M86.7,6h8.9
			v48.5c-3.1-2.8-6.1-5.6-8.9-8.4v-0.2h-0.2c-1.8-1.8-3.6-3.5-5.3-5.3h5.5V19.7h-12l4.2-5.3h7.9V6z M48.1,53.5l2.1-2.7h31.5v10.9
			H48.1V53.5z M54.1,45.8l4.2-5.3h15.9c1.7,1.8,3.4,3.5,5.2,5.3H54.1z M70.7,24.7h11v10.9h-5.3c-2.7-2.8-5.3-5.6-7.7-8.3L70.7,24.7z
			 M62.2,27.5l-6.3,8.1h-7.7V24.7h11.6C60.5,25.6,61.3,26.5,62.2,27.5z M65.6,31.3c1.3,1.4,2.6,2.8,3.9,4.3h-7.3L65.6,31.3z
			 M72.4,14.4l-4.2,5.3H62c-1.6-1.9-3.1-3.6-4.5-5.3H72.4z M34.2,6h8.9v8.4H51c1.3,1.6,2.8,3.4,4.4,5.3H43.1v20.9h8.8l-4.2,5.3h-4.7
			v5.9l-8.9,11.4V6z M48.1,127.4v-24.2h33.6v12.6C70.6,119.4,59.4,123.3,48.1,127.4z M86.7,245.9V98.2H43.1v31c-3,1.1-6,2.2-8.9,3.3
			V71.3l8.9-11.4v6.8h43.6V53c3,2.9,6,5.6,8.9,8.2v184.7H86.7z M100.6,114.9c28-8.8,55.2-16.3,81.3-22.4c8.2,4.4,15.8,7,22.9,7.8
			c-32.7,10.1-67.6,23.4-104.2,39.8V114.9z M237.3,156.6h-3.8V97.3c1.3-0.3,2.5-0.7,3.8-1V156.6z M233.7,92.1
			c4.1-3.1,7.9-7.1,11.4-12c3.1-0.5,6.3-1,9.4-1.4v8.4C247.7,88.6,240.7,90.3,233.7,92.1z M259.5,156.6V51c1.5-4.3,2.7-8.6,3.8-12.6
			v118.1H259.5z"/>
		<path d="M43.1,92.9h43.6V72H43.1V92.9z M48.1,77h33.6v10.9H48.1V77z"/>
	</g>
</g>
</svg>
