<?xml version="1.0" encoding="utf-8"?>
<!-- Generator: Adobe Illustrator 16.0.4, SVG Export Plug-In . SVG Version: 6.00 Build 0)  -->
<!DOCTYPE svg PUBLIC "-//W3C//DTD SVG 1.1//EN" "http://www.w3.org/Graphics/SVG/1.1/DTD/svg11.dtd">
<svg version="1.1" id="Layer_2" xmlns="http://www.w3.org/2000/svg" xmlns:xlink="http://www.w3.org/1999/xlink" x="0px" y="0px"
	 width="100px" height="100px" viewBox="0 0 100 100" enable-background="new 0 0 100 100" xml:space="preserve">
<path fill="#FFFFFF" d="M68.08,1.293H31.898c-3.711,0-7.422,3.711-7.422,7.422v82.57c0,4.638,3.711,7.422,7.422,7.422h35.255
	c4.639,0,7.422-3.711,7.422-7.422V8.715C75.503,5.004,71.792,1.293,68.08,1.293z M45.815,9.643h7.422c0.927,0,0.927,0,0.927,0.928
	c0,0.928-0.927,0.928-0.927,0.928h-7.422l-0.928-0.928C44.887,9.643,45.815,9.643,45.815,9.643z M41.176,8.715
	c0.928,0,1.855,0.927,1.855,1.855c0,0-0.928,0.928-1.855,0.928s-0.928-0.928-0.928-0.928C40.248,9.643,41.176,8.715,41.176,8.715z
	 M49.526,94.996c-2.784,0-4.639-1.856-4.639-4.639c0-2.784,2.784-5.566,4.639-5.566c2.783,0,5.567,2.782,5.567,4.639
	C55.093,92.213,52.309,94.996,49.526,94.996z M71.792,82.008H28.188V17.993h43.604V82.008z"/>
</svg>
