<?xml version="1.0" encoding="utf-8"?>
<!-- Generator: Adobe Illustrator 17.1.0, SVG Export Plug-In . SVG Version: 6.00 Build 0)  -->
<!DOCTYPE svg PUBLIC "-//W3C//DTD SVG 1.1//EN" "http://www.w3.org/Graphics/SVG/1.1/DTD/svg11.dtd">
<svg version="1.1" xmlns="http://www.w3.org/2000/svg" xmlns:xlink="http://www.w3.org/1999/xlink" x="0px" y="0px"
	 viewBox="0 0 288 288" enable-background="new 0 0 288 288" xml:space="preserve">
<g id="Layer_1" display="none">
	<rect x="0" y="0" display="inline" fill="#BCBEC0" width="288" height="252"/>
</g>
<g id="Layer_2">
	<path d="M245.2,26.9c-7.2,0-11.6,2.1-14.3,4.4c-2.3-9.1-8.7-20.2-22.6-20.2c-7.6,0-12.8,4.4-15.9,8.3c-2.4-9-8.6-19.6-21.7-19.6
		c-11.6,0-17.8,5-20.7,9.9c-3.4-4.8-9.6-9.9-19.1-9.9c-13.2,0-21.5,4.3-22,25.2c-32.5,6.1-43.9,21.2-47.4,27.9
		c-2.9-2-6.2-3.3-10.1-3.5c-8.3-0.5-15.4,2.9-20.7,9.7c-11.6,15.1-12.4,44.7-2.1,75.5c19.8,59.3,45.1,117.3,115.4,117.3
		c34.4,0,63.7-10.4,84.8-30.2c24.4-22.9,36.8-56.7,36.8-100.7V54.9C265.7,37.3,258,26.9,245.2,26.9z M154.7,164.7
		c-9.1-8.3-14.3-20-14.3-32.4c0-12.4,5.2-24.1,14.3-32.4c8.8,8,14.3,19.6,14.3,32.4C169,145.2,163.5,156.7,154.7,164.7z
		 M135.4,132.3c0,13.6,5.6,26.4,15.4,35.6c-7.2,5.2-16,8.2-25.5,8.2c-9.5,0-18.3-3.1-25.5-8.2c9.8-9.2,15.4-22,15.4-35.6
		c0-13.6-5.6-26.4-15.4-35.6c7.2-5.2,16-8.2,25.5-8.2c9.5,0,18.3,3.1,25.5,8.2C140.9,106,135.4,118.8,135.4,132.3z M108.9,74.6
		c-7.4-0.3-15,2.7-22.2,8.6c-2.7,2.2-4.9,4.5-6.6,6.3c-1-3.8-2-7.7-3.3-11.5c3.8-3.8,18.1-17.1,32.1-18.5V74.6z M95.8,100
		c9.1,8.3,14.3,20,14.3,32.4c0,12.4-5.2,24.1-14.3,32.4c-8.8-8-14.3-19.6-14.3-32.4C81.4,119.5,86.9,108,95.8,100z M84.1,106
		c-0.7-2.5-1.3-5.3-2-8.1c-0.2-0.8-0.4-1.5-0.6-2.3c2.7-3.5,13.7-16.6,27.3-16v6.7C98.6,90,90,97,84.1,106z M73.1,46.2
		c5.8-5.4,16.7-12.4,35.8-16.1v24.3C94.6,55.6,80.8,67.3,75,72.8c-2.5-6.4-5.5-12.3-9.6-16.5C66.4,54.3,68.5,50.5,73.1,46.2z
		 M260.7,121c0,42.5-11.9,75.1-35.2,97c-20.2,18.9-48.3,28.8-81.4,28.8c-29.8,0-53.2-10.9-71.7-33.3c-17.9-21.7-29.3-51.5-39-80.6
		c-9.6-28.8-9.1-57.2,1.3-70.8c4.3-5.6,9.8-8.2,16.4-7.8C66.9,55.3,72.9,80.6,77.3,99c1.2,4.9,2.3,9.6,3.4,13.3
		c-2.8,6.1-4.3,12.9-4.3,20.1c0,26.9,21.9,48.8,48.8,48.8s48.8-21.9,48.8-48.8s-21.9-48.8-48.8-48.8c-3.9,0-7.7,0.5-11.3,1.3V27.1
		c0-17.3,3.8-22.3,17-22.3c11.9,0,16.3,9.5,17,11.5v61h5V16c0.1-0.5,0.6-2.9,2.5-5.4c3.1-3.9,8.2-5.8,15.2-5.8
		c15.9,0,17.7,20.2,17.8,21.6V86h5V26.9c1-2,5.7-10.8,14.8-10.8c16.7,0,18.4,20.2,18.5,21.6v54.5h5V38c0.5-1.2,3.2-6.2,13.3-6.2
		c14,0,15.5,16.1,15.5,23V121z"/>
</g>
</svg>
