<?xml version="1.0" encoding="utf-8"?>
<!-- Generator: Adobe Illustrator 17.1.0, SVG Export Plug-In . SVG Version: 6.00 Build 0)  -->
<!DOCTYPE svg PUBLIC "-//W3C//DTD SVG 1.1//EN" "http://www.w3.org/Graphics/SVG/1.1/DTD/svg11.dtd">
<svg version="1.1" xmlns="http://www.w3.org/2000/svg" xmlns:xlink="http://www.w3.org/1999/xlink" x="0px" y="0px"
	 viewBox="0 0 288 288" enable-background="new 0 0 288 288" xml:space="preserve">
<g id="Layer_1" display="none">
	<rect x="0" y="0" display="inline" fill="#BCBEC0" width="288" height="252"/>
</g>
<g id="Layer_2">
	<path d="M146.5,0.1h-5H18.1v128.4h0v123.4h123.4h5h123.4V128.5v-5V0.1H146.5z M251.3,123.5V5.1h5.8v118.4H251.3z M158.3,123.5V5.1
		h4.8v118.4H158.3z M168.1,5.1h14.6v118.4h-14.6V5.1z M187.7,5.1h1.9v118.4h-1.9V5.1z M194.5,5.1h3.8v118.4h-3.8V5.1z M203.3,5.1
		H214v118.4h-10.7V5.1z M219,5.1h4.8v118.4H219V5.1z M228.8,5.1h9.7v118.4h-9.7V5.1z M243.5,5.1h2.8v118.4h-2.8V5.1z M146.5,5.1h6.8
		v118.4h-6.8h0V5.1z M36.7,128.5v118.4h-5.8V128.5H36.7z M41.7,128.5h2.8v118.4h-2.8V128.5z M49.5,128.5h9.7v118.4h-9.7V128.5z
		 M64.2,128.5H69v118.4h-4.8V128.5z M74,128.5h10.7v118.4H74V128.5z M89.7,128.5h3.8v118.4h-3.8V128.5z M98.5,128.5h1.9v118.4h-1.9
		V128.5z M105.3,128.5h14.6v118.4h-14.6V128.5z M124.9,128.5h4.8v118.4h-4.8V128.5z M23.1,123.5v-6.8h118.4v6.8H23.1z M141.5,18.7
		H23.1v-5.8h118.4V18.7z M141.5,23.7v2.8H23.1v-2.8H141.5z M141.5,31.5v9.7H23.1v-9.7H141.5z M141.5,46.2V51H23.1v-4.8H141.5z
		 M141.5,56v10.7H23.1V56H141.5z M141.5,71.6v3.8H23.1v-3.8H141.5z M141.5,80.5v1.9H23.1v-1.9H141.5z M141.5,87.3v14.6H23.1V87.3
		H141.5z M141.5,106.9v4.8H23.1v-4.8H141.5z M146.5,233.3h118.4v5.8H146.5V233.3z M146.5,228.3v-2.8h118.4v2.8H146.5z M146.5,220.5
		v-9.7h118.4v9.7H146.5z M146.5,205.8V201h118.4v4.8H146.5z M146.5,196v-10.7h118.4V196H146.5z M146.5,180.3v-3.8h118.4v3.8H146.5z
		 M146.5,171.5v-1.9h118.4v1.9H146.5z M146.5,164.7v-14.6h118.4v14.6H146.5z M146.5,145.1v-4.8h118.4v4.8H146.5z M141.5,5.1v2.8
		H23.1V5.1H141.5z M23.1,128.5h2.8v118.4h-2.8V128.5z M141.5,246.9h-6.8V128.5h6.8h0V246.9z M146.5,246.9v-2.8h118.4v2.8H146.5z
		 M264.9,135.3H146.5v-6.8h118.4V135.3z M262.1,123.5V5.1h2.8v118.4H262.1z"/>
</g>
</svg>
