<?xml version="1.0" encoding="utf-8"?>
<!-- Generator: Adobe Illustrator 16.0.4, SVG Export Plug-In . SVG Version: 6.00 Build 0)  -->
<!DOCTYPE svg PUBLIC "-//W3C//DTD SVG 1.1//EN" "http://www.w3.org/Graphics/SVG/1.1/DTD/svg11.dtd">
<svg version="1.1" id="Layer_1" xmlns="http://www.w3.org/2000/svg" xmlns:xlink="http://www.w3.org/1999/xlink" x="0px" y="0px"
	 width="288px" height="288px" viewBox="144 0 288 288" enable-background="new 144 0 288 288" xml:space="preserve">
<path d="M414.266,209.537c-1.443-21.645-18.76-37.519-40.404-38.963l0,0c-12.988-31.746-12.988-37.518-25.976-70.708
	c36.076-15.873,64.937-46.176,66.38-88.025c0-4.329-4.329-8.658-8.658-8.658c-79.367,0-157.291,0-235.215,0
	c-4.329,0-8.658,4.329-8.658,8.658c1.443,43.291,30.304,73.595,66.379,88.025c-18.759,47.621-36.075,93.797-54.834,141.417
	c-4.329,10.103,12.987,14.432,15.873,4.329c12.987-33.189,25.975-66.379,37.519-98.125c38.961,0,79.367,0,118.329,0
	c2.886,7.215,5.771,15.873,10.101,27.417c-14.43,7.216-23.088,21.646-24.532,37.519c-1.441,23.089,20.203,40.405,41.849,40.405
	c21.646,1.442,38.962-17.316,40.405-38.962c0,0,0-1.443,0-2.886C414.266,210.98,414.266,210.98,414.266,209.537z M179.051,20.5
	c72.151,0,144.303,0,216.455,0c-5.772,49.063-60.608,75.037-108.228,75.037C241.101,95.538,186.266,69.563,179.051,20.5z
	 M233.887,131.614c2.886-8.659,5.772-17.317,10.101-24.532c14.43,4.329,28.86,7.215,43.291,7.215c14.431,0,28.861-2.887,43.29-7.215
	c4.329,10.102,7.217,18.759,8.658,24.532C304.595,131.614,269.962,131.614,233.887,131.614z M349.329,212.423
	c-1.443-30.303,47.62-30.303,49.063,0C395.506,242.728,350.771,242.728,349.329,212.423z"/>
<path d="M285.503,96.555c-8.324,9.989-11.653,23.307-8.324,34.96c3.33,11.653,14.983,19.977,14.983,33.294
	c0,6.66-1.665,16.648-6.659,21.643c-3.33,1.664,0,8.323,3.329,6.658c11.653-6.658,13.318-26.635,8.324-38.289
	c-1.665-6.658-4.994-11.653-8.324-16.647c-4.994-4.994-6.659-13.318-4.994-19.977c0-6.659,3.329-13.318,6.659-16.647
	C293.826,98.22,288.832,93.226,285.503,96.555L285.503,96.555z"/>
<path d="M285.503,96.555c-8.324,9.989-11.653,23.307-8.324,34.96c3.33,11.653,14.983,19.977,14.983,33.294
	c0,6.66-1.665,16.648-6.659,21.643c-3.33,1.664,0,8.323,3.329,6.658c11.653-6.658,13.318-26.635,8.324-38.289
	c-1.665-6.658-4.994-11.653-8.324-16.647c-4.994-4.994-6.659-13.318-4.994-19.977c0-6.659,3.329-13.318,6.659-16.647
	C293.826,98.22,288.832,93.226,285.503,96.555L285.503,96.555z"/>
<path d="M285.503,96.555c-8.324,9.989-11.653,23.307-8.324,34.96c3.33,11.653,14.983,19.977,14.983,33.294
	c0,6.66-1.665,16.648-6.659,21.643c-3.33,1.664,0,8.323,3.329,6.658c11.653-6.658,13.318-26.635,8.324-38.289
	c-1.665-6.658-4.994-11.653-8.324-16.647c-4.994-4.994-6.659-13.318-4.994-19.977c0-6.659,3.329-13.318,6.659-16.647
	C293.826,98.22,288.832,93.226,285.503,96.555L285.503,96.555z"/>
</svg>
