<?xml version="1.0" encoding="utf-8"?>
<!-- Generator: Adobe Illustrator 17.1.0, SVG Export Plug-In . SVG Version: 6.00 Build 0)  -->
<!DOCTYPE svg PUBLIC "-//W3C//DTD SVG 1.1//EN" "http://www.w3.org/Graphics/SVG/1.1/DTD/svg11.dtd">
<svg version="1.1" id="Layer_1" xmlns="http://www.w3.org/2000/svg" xmlns:xlink="http://www.w3.org/1999/xlink" x="0px" y="0px"
	 viewBox="0 0 33.5 24.5" enable-background="new 0 0 33.5 24.5" xml:space="preserve">
<path fill="#000000" d="M32.2,15.6c-0.4-0.4-0.7-0.7-0.7-1v-2.2c0-0.8,0-3-2.3-4.7c0.9-0.7,1.4-1.9,1.4-3.3c0-1.1-0.4-2.3-1.2-3.1
	c-0.8-0.9-2-1.4-3.3-1.4c-1.3,0-2.4,0.4-3.1,1.2c-1.1,1.2-1,2.8-1,2.9l0.1,0c0,0.2,0.2,0.3,0.3,0.3c0.2,0,0.3-0.2,0.3-0.3
	c0,0,0,0,0,0L23,4c0-0.7,0.5-2.6,2.6-2.6c2.1,0,2.6,1.9,2.6,2.6c0,0.7-0.5,2.6-2.6,2.6l-0.1,0c0,0,0,0-0.1,0H14.9
	c-0.3,0-1-0.3-2.2-1c-0.7-0.4-1.4-1-2-1.5l-0.1-0.1c-0.2-0.2-0.5-0.4-0.7-0.6C9.6,3.1,9.2,2.9,8.9,2.7c0,0-0.1,0-0.1-0.1
	C8.6,1.9,8,1.4,7.3,1.4H6.5C6,1.4,5.5,1.6,5.3,2L5,2v0C3.5,2.3,3.2,2.9,3.1,3.4c0,0,0,0,0,0l0,0C3,3.6,2.6,3.8,1.8,3.8
	c-0.3,0-0.5,0-0.6,0L0.7,3.7v0L0,3.6v0.5c0,0.1,0,0.1,0,0.2h0l0.1,0.5c0,0,0,0,0,0c0,0,0,0,0,0l0.1,0.3h0c0.4,1.4,1.4,3,3.3,3
	c0.3,0,0.5,0,0.7,0c0.1,0,0.3,0,0.4,0c0.2,0,0.3,0,0.5,0l0,0h0c0,0,0,0,0,0c0,0,0,0,0,0h0c0.8,0.1,1.5,0.3,2.2,2.7
	c1,3.3,2.1,4.7,2.8,5.6c0,0,0.1,0.1,0.1,0.1v6.2c-0.1,0-0.3,0.1-0.4,0.1c-0.8,0.3-1,0.9-1,1.2v0.4h2.9l1-1l1.4-4.9
	c0.3,0,0.7,0.1,1.3,0.1c1.4,0,3.5-0.3,5.2-1.7c1.9-1.5,3.3-2,3.9-2.1c0.8,1.2,2.3,2,4.6,2.2c0.7,0.1,1.8,1.2,1.9,2.5
	c0.1,1,0,1.9,0,2.3c-0.7,0.2-1.5,0.6-1.5,1.5v0.4h3l0.9-1.1V18C33.5,16.9,32.8,16.2,32.2,15.6z M5.9,2.8C5.9,2.7,5.9,2.7,5.9,2.8
	C5.9,2.7,5.9,2.7,5.9,2.8c0-0.1,0-0.1,0-0.2v0C6,2.4,6.2,2.2,6.5,2.2h0.8c0.3,0,0.6,0.2,0.6,0.5c0,0,0,0,0,0c0,0,0,0,0,0.1
	c0,0,0,0,0,0c0,0,0,0.1,0,0.1c0,0,0,0,0,0c0,0,0,0.1,0,0.1c0,0,0,0,0,0c0,0,0,0.1,0,0.1c0,0,0,0,0,0c0,0,0,0.1,0,0.1c0,0,0,0,0,0
	c0,0,0,0.1,0,0.1c0,0,0,0,0,0c0,0,0,0.1,0,0.1c0,0,0,0,0,0c0,0,0,0.1,0,0.1c0,0.3-0.2,0.7-0.6,0.7H6.7c-0.4,0-0.6-0.4-0.6-0.7
	c0,0,0-0.1,0-0.1c0,0,0,0,0,0c0,0,0,0,0-0.1c0,0,0,0,0,0c0,0,0,0,0-0.1c0,0,0,0,0,0c0,0,0,0,0-0.1c0,0,0,0,0,0c0,0,0,0,0-0.1
	c0,0,0,0,0,0c0,0,0,0,0-0.1c0,0,0,0,0,0C5.9,2.9,5.9,2.9,5.9,2.8C5.9,2.8,5.9,2.8,5.9,2.8C5.9,2.8,5.9,2.8,5.9,2.8
	C5.9,2.8,5.9,2.8,5.9,2.8z M32.6,22.5L32.2,23h-1.4c0.3-0.2,0.6-0.3,0.8-0.3l0.3-0.1l0-0.3c0,0,0.1-1.2,0-2.7
	c-0.1-1.7-1.5-3.2-2.7-3.3c-2.1-0.2-3.4-0.9-4-1.9c-0.1-0.1-0.2-0.3-0.4-0.3l0,0c-0.6,0.1-2.3,0.4-4.7,2.3c-1.6,1.2-3.4,1.5-4.7,1.5
	c-0.9,0-1.5-0.1-1.5-0.1l-0.4-0.1L12,23.1l-0.6,0.6h-1.2c0.2-0.1,0.4-0.1,0.5-0.1l0.4,0v-7.2l-0.1-0.1C11.1,16,11,16,10.9,15.9
	c-0.7-0.9-1.7-2.2-2.7-5.4c-0.6-2.2-1.3-3-2.6-3.3v0l0,0l-0.4,0c0,0,0,0,0,0l0,0l0,0l0,0c0,0,0,0-0.1,0c-0.2,0-0.3,0-0.5,0
	c-0.1,0-0.3,0-0.4,0c-0.2,0-0.5,0-0.7,0C2,7.2,1.3,5.9,1.1,5.1c0,0,0,0,0,0c0,0,0,0,0.1,0c0,0,0,0,0,0c0,0,0,0,0.1,0c0,0,0,0,0,0
	c0,0,0,0,0.1,0c0,0,0,0,0,0c0,0,0,0,0.1,0c0,0,0,0,0,0c0,0,0,0,0-0.1c0,0,0,0,0,0c0,0,0,0,0-0.1c0,0,0,0,0,0c0,0,0,0,0-0.1
	c0,0,0,0,0,0c0,0,0,0,0-0.1c0,0,0,0,0,0c0.1,0,0.2,0,0.3,0c1.1,0,1.8-0.4,2-0.9C3.9,3.7,4,3.6,4,3.5c0-0.2,0.4-0.4,1-0.6L5,3
	c0.1,0.2,0.2,0.6,0.2,0.7c0,0,0,0,0,0c0.1,0.7,0.5,1.2,1.1,1.3c0.1,0,0.3,0.1,0.4,0.1H7c0.7,0,1.3-0.6,1.5-1.4c0,0,0,0,0,0
	c0,0,0,0,0,0c0,0,0,0,0,0c0,0,0,0,0,0c0,0,0,0,0,0c0,0,0,0,0,0c0,0,0,0,0-0.1c0,0,0,0,0,0c0.3,0.2,0.5,0.4,0.9,0.6
	c0.2,0.2,0.4,0.4,0.7,0.6l0.1,0.1c0.6,0.5,1.3,1.1,2.1,1.5c0.8,0.5,2,1.2,2.7,1.2h10.6c0,0,0.1,0,0.1,0l0.5,0v0
	c2.2-0.2,3.1-2.2,3.1-3.4c0-0.9-0.4-2.1-1.4-2.8c1.3,0.6,2.1,2,2.1,3.3c0,1.4-0.5,2.4-1.5,3l-0.6,0.4l0.6,0.4
	c2.2,1.3,2.4,3.1,2.4,4.3v2.2c0,0.7,0.5,1.1,1,1.6c0.5,0.5,1,1,1,1.8L32.6,22.5L32.6,22.5z"/>
</svg>
