<?xml version="1.0" encoding="utf-8"?>
<!-- Generator: Adobe Illustrator 17.1.0, SVG Export Plug-In . SVG Version: 6.00 Build 0)  -->
<!DOCTYPE svg PUBLIC "-//W3C//DTD SVG 1.1//EN" "http://www.w3.org/Graphics/SVG/1.1/DTD/svg11.dtd">
<svg version="1.1" xmlns="http://www.w3.org/2000/svg" xmlns:xlink="http://www.w3.org/1999/xlink" x="0px" y="0px"
	 viewBox="0 0 288 288" enable-background="new 0 0 288 288" xml:space="preserve">
<g id="Layer_1" display="none">
	<rect x="0" display="inline" fill="#BCBEC0" width="288" height="252"/>
</g>
<g id="Layer_2">
	<g>
		<path d="M119.4,187.2c1.6,0,3.1-0.6,4.6-1.2c1.7-0.7,3.5-1.4,4.8-0.8c1.3,0.6,2.2,1.6,3.3,3c2.1,2.6,5,6.1,11.9,6.1
			c6.9,0,9.8-3.5,11.9-6.1c1.1-1.4,2-2.5,3.3-3c1.3-0.5,3.1,0.1,4.8,0.8c1.5,0.6,3,1.2,4.6,1.2c2.8,0,4.8-1.8,5.9-5.5
			c0.9-3,0.4-6-1.6-8.6c-4.4-6-16-10-28.9-10c-12.9,0-24.5,4-28.9,10c-2,2.6-2.5,5.6-1.6,8.6C114.6,185.4,116.6,187.2,119.4,187.2z
			 M119.1,176.1c3.4-4.6,13.9-7.9,24.9-7.9s21.5,3.3,24.9,7.9c1,1.4,1.3,2.7,0.8,4.2c-0.2,0.6-0.6,1.9-1.2,1.9
			c-0.6,0-1.7-0.4-2.7-0.8c-1.6-0.7-3.5-1.4-5.6-1.4c-1.1,0-2.1,0.2-3.1,0.6c-2.4,1-3.9,2.9-5.2,4.5c-1.9,2.4-3.5,4.3-8,4.3
			s-6.1-1.9-8-4.3c-1.3-1.6-2.8-3.4-5.2-4.5c-1-0.4-2-0.6-3.1-0.6c-2.1,0-3.9,0.7-5.6,1.4c-1,0.4-2.1,0.8-2.7,0.8
			c-0.5,0-1-1.3-1.2-1.9C117.8,178.8,118.1,177.5,119.1,176.1z"/>
		<path d="M172.4,215.7c-11.4,0-26.8-11.6-26.9-11.7l-1.5-1.2l-1.5,1.2c-0.2,0.1-15.5,11.7-26.9,11.7c-10.7,0-16.6-10.8-16.7-10.9
			l-4.4,2.3c0.3,0.6,7.3,13.6,21.1,13.6c10.9,0,24-8.5,28.4-11.7c4.4,3.1,17.5,11.7,28.4,11.7c13.7,0,20.8-13,21.1-13.6l-4.4-2.3
			C189,204.9,183.1,215.7,172.4,215.7z"/>
		<path d="M271.4,144.1c-10-4.7-22.3-10.5-25.5-57.1c-1.2-18-13.6-31.7-35.7-39.4c-10.8-3.8-21.4-5.3-27.5-5.9
			c1.2-2.7,0.6-5.5-0.3-7.8c-1.3-3-4.6-6.4-13.5-6c-0.7,0-1.3,0.1-2,0.1c4.4-5.2,7.2-9.5,5.7-13.1c-0.9-2.1-3-3.3-6.3-3.5
			c-22-1.5-64.2,22-72.1,30.1c-7.4,0.6-49.4,5.9-52.1,45.5c-3.1,46.6-15.5,52.5-25.5,57.1c-7.2,3.4-14,6.6-14,22.7
			c0,15.6,6,28.9,16.4,36.6c6.8,5,18.5,9.8,36.1,4.8c6.5,8.6,15.5,14,22.8,16.4c2.1,0.7,4.2,1.3,6.2,2c10.2,3.2,19.9,6.2,25.1,10.7
			c15.7,13.3,22,13.4,34.3,13.4c0.1,0,1.2,0,1.3,0v0c11.8,0,18.2-0.4,33.6-13.4c5.3-4.4,14.9-7.5,25.1-10.7c2-0.6,4.1-1.3,6.2-2
			c7.3-2.4,16.4-7.8,22.8-16.4c5.3,1.5,10,2.1,14.3,2.1c10,0,17.1-3.4,21.9-6.9c10.4-7.7,16.4-21.1,16.4-36.6
			C285.4,150.6,278.6,147.4,271.4,144.1z M265.9,199.4c-8,5.9-18.4,7.4-30.2,4.4c1.5-2.6,2.7-5.4,3.7-8.4
			c3.1-10.1,3.5-26.3-12.1-46.1c-17.5-22.3-19.7-57.5-19.7-57.8l-5,0.3c0.1,1.5,2.3,37.1,20.8,60.7c11.3,14.4,15.2,28.7,11.3,41.6
			c-4.4,14.3-16.8,22.9-26.2,25.9c-2.1,0.7-4.2,1.3-6.2,2c-11.2,3.5-20.8,6.5-26.8,11.6c-14.4,12.2-19,12.2-31.4,12.2
			c-0.2,0-0.3,0-0.3,0c-12.1,0-16.8-0.1-31.1-12.2c-6-5.1-15.7-8.1-26.8-11.6c-2-0.6-4.1-1.3-6.2-2c-9.4-3-21.8-11.6-26.2-25.9
			c-3.9-12.8,0-27.2,11.3-41.6c18.5-23.5,20.7-59.2,20.8-60.7l-5-0.3c0,0.4-2.2,35.6-19.7,57.8c-15.6,19.9-15.2,36-12.1,46.1
			c0.9,3,2.2,5.9,3.7,8.4c-11.9,3-22.3,1.5-30.2-4.4c-9-6.6-14.4-18.8-14.4-32.6c0-12.9,4.4-15,11.1-18.2c10.6-5,25-11.8,28.3-61.3
			c1.1-16.2,9.4-27.9,24.8-35c11.8-5.4,23.4-5.9,23.5-5.9l1.2,0l0.7-1c4.6-6.3,48.1-30.4,68.6-29c1.6,0.1,2,0.5,2,0.4
			c0.5,1.9-5.4,8.6-7.3,10.8c-0.8,0.9-1.6,1.8-2.2,2.5l-5.1,6.2l7.7-2.2c3.7-1.1,14.7-3,16.7,1.7c1.4,3.2,0.5,4.5-1.7,5.9l-7,4.4
			l8.3,0.2c0.6,0,61,2.3,63.6,41c3.3,49.6,17.8,56.4,28.3,61.3c6.7,3.1,11.1,5.2,11.1,18.2C280.4,180.5,275,192.7,265.9,199.4z"/>
	</g>
</g>
</svg>
