<?xml version="1.0" encoding="utf-8"?>
<!-- Generator: Adobe Illustrator 17.1.0, SVG Export Plug-In . SVG Version: 6.00 Build 0)  -->
<!DOCTYPE svg PUBLIC "-//W3C//DTD SVG 1.1//EN" "http://www.w3.org/Graphics/SVG/1.1/DTD/svg11.dtd">
<svg version="1.1" xmlns="http://www.w3.org/2000/svg" xmlns:xlink="http://www.w3.org/1999/xlink" x="0px" y="0px"
	 viewBox="0 0 288 288" enable-background="new 0 0 288 288" xml:space="preserve">
<g id="Layer_1" display="none">
	<rect x="0" y="0" display="inline" fill="#BCBEC0" width="288" height="252"/>
</g>
<g id="Layer_2">
	<path d="M144,0.1C74.9,0.1,18.6,56.3,18.6,125.5S74.9,250.9,144,250.9c69.1,0,125.4-56.3,125.4-125.4S213.1,0.1,144,0.1z
		 M264.3,120.1c-28.8,4.4-73.5,7-120.3,7c-24.9,0-49.2-0.7-70.9-2.1c0-10.1,0.8-19.9,2.2-29.3c23.1-0.8,41.1-15,60.2-30
		c22.6-17.7,46-36,80.9-36.3C244.2,50.4,262.6,83.1,264.3,120.1z M23.7,120.1c0.8-17.3,5.2-33.7,12.6-48.4c3.4,8.4,12.4,22.8,34,24
		c-1.4,9.4-2.1,19.1-2.1,29C51.1,123.5,36,122,23.7,120.1z M209.8,24.7c-33.1,2.5-56.5,20.8-77.3,37.1C114.3,76,97.1,89.5,76.1,90.7
		C84.9,41.2,112,5.1,144,5.1C168.3,5.1,190.9,12.3,209.8,24.7z M117.1,8.1C107,14.4,97.7,24.2,90,37.3c-9,15.1-15.5,33.4-18.9,53.4
		c-24.2-1.1-30.4-20.5-31.5-25C56,37,83.9,15.7,117.1,8.1z M23.6,125.1c12.5,1.9,27.7,3.4,44.6,4.6c0.2,8.7,0.9,17.3,2.1,25.6
		c-21.5,1.2-30.5,15.6-34,24c-8.1-16.2-12.7-34.4-12.7-53.8C23.6,125.4,23.6,125.3,23.6,125.1z M39.5,185.2c0.5-2,2-7,5.8-12.1
		c6-8.1,14.7-12.5,25.8-12.9c3.5,20,9.9,38.3,18.9,53.4c7.8,13,17,22.9,27.1,29.2C83.9,235.2,56,213.9,39.5,185.2z M76.1,160.3
		c21,1.2,38.2,14.6,56.3,28.9c20.8,16.3,44.2,34.6,77.3,37.1c-18.9,12.4-41.5,19.6-65.8,19.6C112,245.9,84.9,209.7,76.1,160.3z
		 M216.5,221.5c-35-0.3-58.3-18.6-80.9-36.3c-19.1-15-37.2-29.1-60.2-30c-1.2-8.1-1.9-16.5-2.1-25.2c21.5,1.3,45.6,2,70.8,2
		c47.4,0,91-2.5,120.4-6.9c0,0.1,0,0.2,0,0.3C264.4,164.7,245.6,199.5,216.5,221.5z"/>
</g>
</svg>
