<?xml version="1.0" encoding="utf-8"?>
<!-- Generator: Adobe Illustrator 17.1.0, SVG Export Plug-In . SVG Version: 6.00 Build 0)  -->
<!DOCTYPE svg PUBLIC "-//W3C//DTD SVG 1.1//EN" "http://www.w3.org/Graphics/SVG/1.1/DTD/svg11.dtd">
<svg version="1.1" xmlns="http://www.w3.org/2000/svg" xmlns:xlink="http://www.w3.org/1999/xlink" x="0px" y="0px"
	 viewBox="0 0 288 288" enable-background="new 0 0 288 288" xml:space="preserve">
<g id="Layer_1" display="none">
	<rect x="0" y="0" display="inline" fill="#BCBEC0" width="288" height="252"/>
</g>
<g id="Layer_2">
	<g>
		<path d="M44.9,51C43.8,51,43.1,51,43,51l-1.7,0.2l-0.4,1.7c-7.2,28.8,5.5,54.8,6.1,55.9l2.2,4.5l2.2-4.4
			c8.3-16.4,21.2-30.2,37.5-39.9l3.8-2.3l-4-2.1C65.3,52.3,50.3,51,44.9,51z M49.5,101.9C46.4,93.6,41,75.4,45.3,56
			c4.1,0.1,17,1.1,37.3,11C68.8,76,57.5,87.9,49.5,101.9z"/>
		<path d="M128.5,194c0.9,0,1.8-0.3,2.5-0.5c0.5-0.2,1-0.3,1.4-0.3c0.2,0,0.2,0,0.3,0.1c0.7,0.4,1.2,1.1,1.8,2
			c1.4,1.9,3.3,4.6,8.1,4.6s6.8-2.7,8.1-4.6c0.6-0.8,1.1-1.5,1.8-2c0.1-0.1,0.2-0.1,0.3-0.1c0.3,0,0.9,0.2,1.4,0.3
			c0.7,0.2,1.6,0.5,2.5,0.5c4,0,4.9-4.5,5.2-6c0.7-3.3-0.1-6.3-2.1-8.8c-3.2-3.9-9.6-6.2-17.3-6.2c-7.6,0-14.1,2.3-17.3,6.2
			c-2,2.5-2.7,5.5-2.1,8.8C123.6,189.5,124.5,194,128.5,194z M129.2,182.4c2.2-2.7,7.4-4.4,13.4-4.4c6,0,11.2,1.7,13.4,4.4
			c1.1,1.3,1.4,2.8,1,4.6c-0.2,1.1-0.5,1.7-0.6,1.9c-0.2-0.1-0.6-0.1-0.8-0.2c-0.8-0.2-1.7-0.5-2.8-0.5c-1.1,0-2.1,0.3-3,0.9
			c-1.5,0.9-2.3,2.2-3.1,3.3c-1.2,1.7-1.8,2.5-4.1,2.5c-2.3,0-2.9-0.8-4.1-2.5c-0.8-1.1-1.6-2.3-3.1-3.3c-0.9-0.6-1.9-0.9-3-0.9
			c-1.1,0-2,0.3-2.8,0.5c-0.3,0.1-0.6,0.2-0.8,0.2c-0.1-0.3-0.4-0.8-0.6-1.9C127.8,185.2,128.2,183.7,129.2,182.4z"/>
		<path d="M276.8,198.5l0.3-5l-37.7-2.4c2.9-6.1,5.2-12.5,6.7-19.1l27-4.2l-0.8-4.9l-25.1,3.9c1-5.5,1.5-11.1,1.5-16.8
			c0-8.1-1-16.2-3.1-24.1c10.4-13,15.5-32.1,14.7-55.4c-0.6-17.9-4.3-31.8-4.5-32.4l-0.5-1.7l-1.7-0.2c-2.2-0.2-4.5-0.3-6.8-0.3
			c-29.5,0-58.8,16.9-64.8,20.6c-12.5-4.8-25.7-7.2-39.4-7.2s-26.8,2.4-39.4,7.2c-6-3.7-35.3-20.6-64.8-20.6c-2.3,0-4.6,0.1-6.8,0.3
			l-1.7,0.2L29.4,38c-0.2,0.6-3.9,14.5-4.5,32.4c-0.8,23.3,4.3,42.4,14.7,55.4c-2,7.8-3.1,15.9-3.1,24.1c0,5.7,0.5,11.4,1.5,16.8
			L13,162.8l-0.8,4.9l27,4.2c1.6,6.6,3.8,13,6.7,19.1l-37.7,2.4l0.3,5l39.9-2.5c2.7,4.9,5.8,9.6,9.3,14l-38.7,10.5l1.3,4.8l41-11.1
			c19.5,22.2,48.7,36.3,81.4,36.3c32.7,0,62-14.1,81.4-36.3l41,11.1l1.3-4.8L227.6,210c3.5-4.4,6.6-9.1,9.3-14L276.8,198.5z
			 M222.3,208.6l-39.6-10.7l-1.3,4.8l37.2,10.1c-18.5,20.1-45.7,32.8-76,32.8c-30.3,0-57.5-12.7-76-32.8l37.2-10.1l-1.3-4.8
			l-39.6,10.7c-3.4-4.1-6.4-8.4-9-13l49.4-3.1l-0.3-5l-51.7,3.3c-2.9-5.7-5.1-11.7-6.8-18l58.2,9l0.8-4.9l-60.2-9.3
			c-1.1-5.7-1.7-11.6-1.7-17.7c0-8.1,1.1-16.2,3.2-24l0.3-1.3l-0.8-1C22.1,97.3,31.6,50.5,33.8,41c1.5-0.1,3.1-0.2,4.6-0.2
			c31,0,62.9,20.3,63.2,20.5l1.1,0.7l1.2-0.5c12.3-4.8,25.3-7.3,38.7-7.3s26.4,2.4,38.7,7.3l1.2,0.5l1.1-0.7
			c0.3-0.2,32.3-20.5,63.2-20.5c1.6,0,3.1,0.1,4.6,0.2c2.2,9.5,11.7,56.2-10.5,82.6l-0.8,1l0.3,1.3c2.1,7.8,3.2,15.9,3.2,24
			c0,6-0.6,11.9-1.7,17.7l-60.2,9.3l0.8,4.9l58.2-9c-1.6,6.2-3.9,12.3-6.8,18l-51.7-3.3l-0.3,5l49.4,3.1
			C228.7,200.2,225.7,204.5,222.3,208.6z"/>
		<path d="M233.9,108.8l2.2,4.4l2.2-4.5c0.5-1.1,13.3-27.1,6.1-55.9l-0.4-1.7l-1.7-0.2c-0.1,0-0.7-0.1-1.9-0.1
			c-5.4,0-20.3,1.3-43.9,13.6l-4,2.1l3.8,2.3C212.6,78.6,225.6,92.4,233.9,108.8z M240,56c4.3,19.4-1.1,37.6-4.2,45.9
			c-8-13.9-19.3-25.8-33.1-34.9C223,57.1,235.9,56,240,56z"/>
		<polygon points="121.4,222.9 123.5,227.4 142.6,218.5 161.8,227.4 163.9,222.9 142.6,212.9 		"/>
	</g>
</g>
</svg>
