<?xml version="1.0" encoding="utf-8"?>
<!-- Generator: Adobe Illustrator 16.0.4, SVG Export Plug-In . SVG Version: 6.00 Build 0)  -->
<!DOCTYPE svg PUBLIC "-//W3C//DTD SVG 1.1//EN" "http://www.w3.org/Graphics/SVG/1.1/DTD/svg11.dtd">
<svg version="1.1" id="Layer_1" xmlns="http://www.w3.org/2000/svg" xmlns:xlink="http://www.w3.org/1999/xlink" x="0px" y="0px"
	 width="288px" height="288px" viewBox="144 0 288 288" enable-background="new 144 0 288 288" xml:space="preserve">
<path d="M430.047,139.132h-41.613c1.6-3.201,2.4-7.202,2.4-11.204c0-11.204-14.404-27.209-30.41-34.412c-0.8,0-0.8,0-1.601,0V71.109
	c0-2.401-1.601-4.001-4.001-4.001h-24.809c2.401-4.001,3.201-8.002,4.002-12.004c0,0,0,0,0-0.8s0-1.6,0-2.401c0-0.8,0-2.4,0-3.201
	c0-22.407-18.406-41.614-41.614-41.614c-23.208,0-41.614,19.207-41.614,42.415c0,6.402,1.601,12.004,4.001,17.605H229.98
	c-2.4,0-4.001,1.601-4.001,4.001v21.607h-0.8c-23.208,11.204-35.212,29.61-38.413,35.212c-5.602,1.601-10.404,5.602-13.604,11.204
	h-27.209c-2.4,0-4.001,1.601-4.001,4.001s1.601,4.001,4.001,4.001h24.008c0,0.801,0,1.601,0,2.4c0,1.601,0,3.202,0.8,5.603
	c0,0.8,0.8,0.8,0.8,1.6c-0.8,1.602-1.601,4.002-1.601,6.403c0,1.601,0,3.2,0.8,4.801c0.8,1.602,2.401,2.401,4.001,2.401h35.211
	c1.601,0,3.201-0.8,4.001-2.401c0-2.4,0-4.001,0-5.602c0-2.4-0.801-4.001-1.601-6.402c0-0.8,0.8-0.8,0.8-1.601
	c0.801-1.6,0.801-3.201,0.801-4.802c0-0.8,0-1.6,0-2.4h11.204v22.408c0,2.4,1.601,4,4.001,4h126.442c1.6,0,3.2-1.6,4.001-3.2
	c10.403,6.402,12.004,15.205,11.203,26.408H167.56c-2.401,0-4.001,1.602-4.001,4.002c0,2.401,1.6,4.001,4.001,4.001h202.467
	c0,1.601-0.801,3.201-0.801,5.603c-2.4,16.005-5.602,34.41,10.403,45.615c0.801,0.799,1.602,0.799,2.401,0.799
	c1.601,0,2.4-0.799,3.2-1.6c0.802-1.6,0.802-4.001-0.8-5.603c-12.004-8.002-9.603-21.606-7.202-37.612c0-2.4,0.8-4.001,0.8-6.401
	h35.212c2.401,0,4.002-1.601,4.002-4.002c0-2.4-1.601-4.001-4.002-4.001H378.83c0.8-14.405-1.601-27.209-19.206-35.212v-3.201
	c8.002-0.8,17.605-4.001,24.008-11.203h46.415c2.401,0,4.002-1.601,4.002-4.002C434.049,140.732,432.448,139.132,430.047,139.132z
	 M326.813,47.901c-5.603-2.401-10.404-4.802-13.604-6.402c4.801-2.401,8.002-4.802,10.402-6.402
	C325.213,39.098,326.013,43.1,326.813,47.901z M292.401,15.09c11.204,0,20.808,5.602,27.21,13.604
	c-6.402,4.802-25.609,16.005-60.821,27.209c0-1.601-0.801-4.001-0.801-6.402C258.791,30.295,273.995,15.09,292.401,15.09z
	 M261.191,63.106c19.206-6.402,33.61-12.004,44.015-17.605c3.201,2.401,10.403,6.402,20.807,10.403
	c-0.8,4.001-2.401,7.202-4.001,10.403h-58.42C262.792,65.507,261.992,63.907,261.191,63.106z M192.368,135.13
	c8.003,0,14.405,6.402,14.405,14.404v0.801h-1.6h-26.409h-0.8v-0.801C177.964,141.532,184.366,135.13,192.368,135.13z
	 M177.964,161.538c0-1.6,1.6-3.2,2.4-4.001h24.008c0.801,0.801,1.601,2.401,1.601,4.001H177.964z M211.575,139.132
	c-3.201-6.403-8.803-10.404-16.005-12.004c4.802-7.202,14.405-18.406,29.61-26.409v37.612h-13.604V139.132z M351.621,164.74H233.182
	V74.31h28.009h63.221h28.01L351.621,164.74L351.621,164.74z M359.624,150.335v-23.208l4.001-0.8c2.4-0.8,3.201-2.401,3.201-4.802
	c-0.801-2.401-2.4-3.201-4.802-3.201l-2.4,0.8v-17.605c13.604,7.203,24.008,20.807,24.008,26.409
	C383.632,143.933,367.626,148.734,359.624,150.335z"/>
<path d="M288.464,127.277c-9.29,0-16.723,7.432-16.723,16.723c0,9.291,7.433,16.723,16.723,16.723
	c9.291,0,16.723-7.432,16.723-16.723C305.188,134.709,297.755,127.277,288.464,127.277z M288.464,151.432
	c-4.645,0-7.432-3.715-7.432-7.432c0-4.645,3.716-7.432,7.432-7.432c4.645,0,7.432,3.716,7.432,7.432
	C295.896,148.645,292.181,151.432,288.464,151.432z"/>
</svg>
