<?xml version="1.0" encoding="utf-8"?>
<!-- Generator: Adobe Illustrator 17.1.0, SVG Export Plug-In . SVG Version: 6.00 Build 0)  -->
<!DOCTYPE svg PUBLIC "-//W3C//DTD SVG 1.1//EN" "http://www.w3.org/Graphics/SVG/1.1/DTD/svg11.dtd">
<svg version="1.1" id="Layer_1" xmlns="http://www.w3.org/2000/svg" xmlns:xlink="http://www.w3.org/1999/xlink" x="0px" y="0px"
	 viewBox="0 0 5.5 10.5" enable-background="new 0 0 5.5 10.5" xml:space="preserve">
<path fill="#FFFFFF" d="M4.7,0H0.8C0.4,0,0,0.4,0,0.8v8.9c0,0.5,0.4,0.8,0.8,0.8h3.8c0.5,0,0.8-0.4,0.8-0.8V0.8C5.5,0.4,5.1,0,4.7,0
	z M2.3,0.9h0.8c0.1,0,0.1,0,0.1,0.1c0,0.1-0.1,0.1-0.1,0.1H2.3C2.3,1.1,2.2,1,2.2,1C2.2,0.9,2.3,0.9,2.3,0.9z M1.8,0.8
	C1.9,0.8,2,0.9,2,1C2,1,1.9,1.1,1.8,1.1S1.7,1,1.7,1C1.7,0.9,1.8,0.8,1.8,0.8z M2.7,10.1c-0.3,0-0.5-0.2-0.5-0.5
	C2.2,9.3,2.5,9,2.7,9C3,9,3.3,9.3,3.3,9.5C3.3,9.8,3,10.1,2.7,10.1z M5.1,8.7H0.4V1.8h4.7V8.7z"/>
</svg>
