<?xml version="1.0" encoding="utf-8"?>
<!-- Generator: Adobe Illustrator 17.1.0, SVG Export Plug-In . SVG Version: 6.00 Build 0)  -->
<!DOCTYPE svg PUBLIC "-//W3C//DTD SVG 1.1//EN" "http://www.w3.org/Graphics/SVG/1.1/DTD/svg11.dtd">
<svg version="1.1" xmlns="http://www.w3.org/2000/svg" xmlns:xlink="http://www.w3.org/1999/xlink" x="0px" y="0px"
	 viewBox="0 0 288 288" enable-background="new 0 0 288 288" xml:space="preserve">
<g id="Layer_1" display="none">
	<rect x="0" display="inline" fill="#BCBEC0" width="288" height="252"/>
</g>
<g id="Layer_2">
	<path d="M219.2,176.7L219.2,176.7c-0.4-4.6-3.1-17-4.5-22.1c-3.6-13.4-7.8-22.2-12.4-26.3c1.5-3.6,0.6-7.2,0.6-7.4
		c-0.2-0.7-0.6-1.3-1.3-1.6c-0.6-0.3-1.4-0.4-2.1-0.1c0,0-2.6,0.9-4-0.3c-0.8-0.7-2.6-3.4-0.7-12.5c5.2-24.5-14.7-34.8-18.9-36.6
		l-13.8-37l18.7-28.4c0.6-0.9,0.5-2.1-0.1-3c-0.7-0.8-1.8-1.1-2.9-0.7l-42.3,16.8c-0.6,0.2-1.1,0.7-1.4,1.3l-22.1,50.9
		c-3.8,1.6-24.2,11.8-19,36.7c1.9,9.1,0.2,11.7-0.7,12.5c-1.4,1.2-4,0.3-4,0.3c-0.7-0.3-1.4-0.2-2.1,0.1c-0.6,0.3-1.1,0.9-1.3,1.6
		c0,0.2-0.9,3.8,0.6,7.4c-4.6,4.1-8.8,12.9-12.4,26.3c-1.4,5.1-4.2,17.5-4.5,22.1l0,0c-0.2,0.5-3.7,13,2.3,21.1
		c3.2,4.2,8.2,6.3,15,6.3c1.4,0,2.6-0.1,3.8-0.2c1.4,3,5.3,8,15.9,12.3v7.7c-5.5,0.9-19,4.1-19,14.3c0,13,23.8,13,34,13
		c10.6,0,18.2-5.5,18.2-13v-21.3h5h5v21.3c0,7.5,7.7,13,18.2,13c10.2,0,34,0,34-13c0-10.3-13.5-13.5-19-14.3v-7.7
		c10.6-4.2,14.5-9.3,15.9-12.3c1.2,0.2,2.4,0.2,3.8,0.2c6.8,0,11.8-2.1,15-6.3C222.9,189.7,219.4,177.2,219.2,176.7z M138.4,21.7
		l33.9-13.5l-15,22.8c-0.4,0.7-0.5,1.5-0.3,2.3l14.7,39.4c-1.5,1.9-11.6,5.2-27.8,5.2c-16,0-26.1-3.2-27.8-5.1L138.4,21.7z
		 M113,76.4c5.4,5,21,6.4,31,6.4c10,0,25.6-1.4,31-6.4c4.9,6.6,7.6,14.4,7.7,22.4c-0.5,1.6-3,8.7-8.6,15.8c-2-1.4-4.4-3.4-7.7-6.3
		l-0.2-0.1c-5.6-4.8-11.7-5.8-15.7-5.8c-3,0-5.4,0.5-6.6,0.9c-1.2-0.3-3.6-0.9-6.6-0.9c-4.1,0-10.1,1-15.7,5.8l-0.2,0.1
		c-3.3,2.8-5.7,4.9-7.7,6.3c-5.5-7-8.1-14.2-8.6-15.7C105.4,90.8,108.1,83,113,76.4z M158.2,121.2c-4-2.1-7.4-3.1-10.2-3.1
		c-1.8,0-3.1,0.4-4,1c-0.9-0.5-2.2-1-4-1c-2.8,0-6.2,1.1-10.2,3.1c-1.8,1-4,1.4-6.3,1.4h0c-3.4,0-6.8-1-9.7-2.2
		c2.9-1.4,6.1-4.2,10.9-8.3l0.2-0.1c3.6-3.1,7.8-4.6,12.5-4.6c3.3,0,5.7,0.8,5.7,0.8c0.5,0.2,1.2,0.2,1.7,0c0,0,2.4-0.8,5.7-0.8
		c4.7,0,8.9,1.5,12.5,4.6l0.2,0.1c4.9,4.2,8.1,6.9,10.9,8.3c-2.9,1.2-6.3,2.2-9.7,2.2C162.2,122.6,160.1,122.1,158.2,121.2z
		 M159,126.9c-4.7,2.1-9.7,3.2-15,3.2c-5.3,0-10.4-1.1-15-3.2c1.1-0.3,2.1-0.7,3.1-1.2c4.1-2.1,6.6-2.6,7.9-2.6
		c1.1,0,1.6,0.3,1.8,0.5c0.4,0.9,1.3,1.4,2.3,1.4s1.8-0.6,2.3-1.4c0.1-0.2,0.7-0.5,1.8-0.5c1.3,0,3.8,0.4,7.9,2.6
		C156.9,126.1,157.9,126.5,159,126.9z M95.7,122.6c3.4-2.9,4.2-8.6,2.4-17.3c-2.5-11.8,1.7-19.7,6.5-24.5c-2.8,5.8-4.2,12-4.2,18.4
		c0,0.2,0,0.5,0.1,0.7c0.1,0.4,2.5,8.4,8.8,16.8c-0.1,0-0.2,0-0.3,0c-0.9,0-1.8-0.2-3-0.6c-1.2-0.4-2.5,0.1-3,1.2
		c-0.6,1.1-0.3,2.5,0.7,3.2c0.4,0.3,7.8,5.6,16.4,6.9c7.1,5.1,15.2,7.8,24.1,7.8c8.9,0,17-2.6,24.1-7.8c8.6-1.3,16.1-6.6,16.4-6.9
		c1-0.7,1.3-2.1,0.7-3.2c-0.6-1.1-1.9-1.6-3-1.2c-1.2,0.4-2.2,0.6-3,0.6c-0.1,0-0.2,0-0.4,0c6.2-8.3,8.7-16.4,8.8-16.8
		c0.1-0.2,0.1-0.5,0.1-0.7c0-6.4-1.5-12.7-4.3-18.5c4.8,4.9,9.1,12.7,6.6,24.6c-1.8,8.8-1.1,14.4,2.4,17.3c1.8,1.5,3.9,1.9,5.8,1.8
		c-0.1,1-0.4,2.1-1.1,3c-1.1,1.5-3.1,2.4-5.9,2.6c-1.4,0.1-2.4,1.3-2.3,2.7c0.3,4.2,0.4,7.9,0.2,10.8c-1,11.4-9.2,17.4-15.8,22.2
		c-1.1,0.8-2.2,1.6-3.2,2.4c0.3-2.6,1.2-6.7,2.3-10.6c0.4-1.2-0.3-2.5-1.5-3c-1.2-0.5-2.5,0-3.1,1.1c-0.1,0.2-9,16.5-23.8,22.5
		c-14.9-6-23.8-22.3-23.8-22.5c-0.6-1.1-2-1.6-3.1-1.1c-1.2,0.5-1.8,1.8-1.5,3c1.1,3.9,2,7.9,2.3,10.6c-1-0.8-2.1-1.6-3.2-2.4
		C108.1,161,99.9,155,99,143.6c-0.2-2.9-0.2-6.6,0.2-10.8c0.1-1.4-0.9-2.6-2.3-2.7c-2.8-0.2-4.8-1.1-5.9-2.6c-0.7-1-1-2.1-1.1-3
		C91.7,124.5,93.9,124.1,95.7,122.6z M88.6,132.3c1.4,1.2,3.2,2,5.3,2.4c-0.2,3.5-0.2,6.6,0,9.3c1.2,13.7,11.2,21,17.8,25.8
		c1.8,1.3,3.3,2.4,4.5,3.5c2.2,2.1,4,1.7,5,1.1c0.8-0.5,2.1-1.3,1.7-6c4.7,5.5,11.5,11.7,20.2,14.9c0.3,0.1,0.6,0.2,0.9,0.2
		s0.6-0.1,0.9-0.2c8.7-3.2,15.5-9.4,20.2-14.9c-0.4,4.7,0.9,5.5,1.7,6c1,0.6,2.7,1,5-1.1c1.1-1,2.7-2.2,4.5-3.5
		c6.6-4.8,16.7-12.1,17.8-25.8c0.2-2.6,0.2-5.7,0-9.3c2.1-0.5,3.9-1.3,5.3-2.4c8.1,7.6,13.8,36.4,14.8,43.9
		c-5.5,3.4-14.5,2.1-18.1,1.4c-0.6-4.3-2.4-13.7-3.3-18.1l-4.9,0.9c1.3,6.8,3.2,16.8,3.4,19c-0.1,0.3-0.4,0.9-0.6,1.3
		c-0.7,1.5-1.7,3.5-2.4,5.8c-4.2,1.9-22,9.3-44.2,9.3c-22.2,0-40-7.4-44.2-9.3c-0.8-2.3-1.7-4.3-2.4-5.8c-0.2-0.5-0.5-1-0.6-1.3
		c0.2-2,1.8-10.9,3.4-19l-4.9-0.9c-0.9,4.4-2.6,13.8-3.3,18.1c-3.7,0.7-12.6,1.9-18.1-1.4C74.8,168.7,80.6,139.9,88.6,132.3z
		 M75.1,194.7c-3-3.9-2.7-9.8-2.2-13.4c3.4,1.6,7.4,2.1,11.1,2.1c3.5,0,6.7-0.5,8.7-0.8c0,0.1,0.1,0.2,0.1,0.3
		c1.5,3.2,4.6,9.7,2.4,13.2c-1.6,2.5-5.9,3-9.2,3C81,199.1,77.3,197.6,75.1,194.7z M134,238.2c0,4.6-5.7,8-13.2,8
		c-19.3,0-29-2.7-29-8c0-7,13-9.2,16.1-9.6c2.9,1.4,14.1,6.4,26.2,6.6V238.2z M196.2,238.2c0,5.3-9.8,8-29,8c-7.5,0-13.2-3.4-13.2-8
		v-3c12.1-0.2,23.3-5.2,26.2-6.6C183.2,229,196.2,231.1,196.2,238.2z M178.8,212c-1,0.4-1.6,1.3-1.6,2.3v10.1
		c-3.5,1.6-13.1,5.5-23.2,5.7v-15.8c0-1.4-1.1-2.5-2.5-2.5H144h-7.5c-1.4,0-2.5,1.1-2.5,2.5v15.8c-10.1-0.2-19.8-4.1-23.2-5.7v-10.1
		c0-1-0.7-2-1.6-2.3c-9.3-3.4-12.9-7.3-14.3-9.5c2-0.9,3.6-2.1,4.6-3.8c1.2-1.9,1.6-4.1,1.5-6.3c7.4,3,23.5,8.4,43,8.4
		c19.6,0,35.6-5.4,43-8.4c-0.1,2.2,0.3,4.4,1.5,6.3c1,1.6,2.6,2.9,4.6,3.8C191.7,204.7,188.1,208.6,178.8,212z M212.9,194.7
		c-2.2,2.9-5.8,4.3-11,4.3c-3.3,0-7.6-0.5-9.2-3c-2.2-3.5,0.9-10,2.4-13.2c0.1-0.1,0.1-0.2,0.1-0.3c2,0.4,5.2,0.8,8.7,0.8
		c3.6,0,7.6-0.5,11.1-2.1C215.6,185,215.8,190.8,212.9,194.7z"/>
</g>
</svg>
