<?xml version="1.0" encoding="utf-8"?>
<!-- Generator: Adobe Illustrator 17.1.0, SVG Export Plug-In . SVG Version: 6.00 Build 0)  -->
<!DOCTYPE svg PUBLIC "-//W3C//DTD SVG 1.1//EN" "http://www.w3.org/Graphics/SVG/1.1/DTD/svg11.dtd">
<svg version="1.1" xmlns="http://www.w3.org/2000/svg" xmlns:xlink="http://www.w3.org/1999/xlink" x="0px" y="0px"
	 viewBox="0 0 288 288" enable-background="new 0 0 288 288" xml:space="preserve">
<g id="Layer_1" display="none">
	<rect x="0" y="0" display="inline" fill="#BCBEC0" width="288" height="252"/>
</g>
<g id="Layer_2">
	<path d="M146.6,0.9C77.6,0.9,21.5,57,21.5,126s56.1,125.1,125.1,125.1S271.8,195,271.8,126S215.6,0.9,146.6,0.9z M146.6,246.1
		c-65.4,0-118.8-52.5-120.1-117.6h24.9v-5H26.5c0.2-9,1.4-17.8,3.4-26.2l16.7,4.5l1.3-4.8l-16.7-4.5c2.5-8.6,5.9-16.7,10.1-24.4
		l21.5,12.4l2.5-4.3L43.9,63.8c4.6-7.6,10-14.6,16.1-20.9l12.2,12.2l3.5-3.5L63.5,39.3c6.3-6.1,13.4-11.5,20.9-16.1l12.4,21.5
		l4.3-2.5L88.7,20.8c7.7-4.2,15.8-7.6,24.4-10.1l4.5,16.7l4.8-1.3L118,9.3c8.4-2.1,17.2-3.3,26.2-3.4v24.9h5V5.9
		c9,0.2,17.8,1.4,26.2,3.4L170.8,26l4.8,1.3l4.5-16.7c8.6,2.5,16.7,5.9,24.4,10.1l-12.4,21.5l4.3,2.5l12.4-21.5
		c7.6,4.6,14.6,10,20.9,16.1l-4,4l-0.1-0.1l-47,42.3c-8-6.9-18-10.6-28.6-10.6c-16.3,0-31.4,9.2-38.9,23.6c-3.1-0.8-6.3-1.2-9.6-1.2
		c-22,0-39.8,17.9-39.8,39.8S79.6,177,101.6,177h98c17.6,0,31.9-14.3,31.9-31.9s-14.3-31.9-31.9-31.9c-2,0-4,0.2-5.9,0.6
		c-0.8-7-3.3-13.6-7.2-19.5L228,48.1l5.3-5.3c6.1,6.3,11.5,13.4,16.1,20.9l-21.5,12.4l2.5,4.3l21.5-12.4c4.2,7.7,7.6,15.8,10.1,24.4
		L245.3,97l1.3,4.8l16.7-4.5c2.1,8.4,3.3,17.2,3.4,26.2h-24.9v5h24.9C265.4,193.6,212,246.1,146.6,246.1z M134.7,137.9
		c3.1,3.1,7.3,4.9,11.7,4.9c0,0,0,0,0,0c4.4,0,8.7-1.7,12-4.8c4.6-4.3,6.2-11.1,4.1-17.3l20.4-22.6c3.6,5.7,5.6,12.1,6,18.8l0.2,3.2
		l3-0.9c2.4-0.7,4.9-1.1,7.5-1.1c14.9,0,26.9,12.1,26.9,26.9S214.4,172,199.6,172h-98c-19.2,0-34.8-15.6-34.8-34.8
		s15.6-34.8,34.8-34.8c3.5,0,6.9,0.5,10.2,1.5l2.1,0.6l0.9-2C121.1,88.8,135,80,150.1,80c9.2,0,17.9,3.2,24.9,9l-23.2,20.9
		c-1.6-0.5-3.2-0.7-4.9-0.7c-4.5,0-8.9,1.8-12,4.9c-3.2,3.2-4.9,7.4-4.9,11.9C129.8,130.5,131.5,134.7,134.7,137.9z M156.7,119.7
		l0.7,1.5c2,4.6,1.1,9.9-2.3,13.1c-2.4,2.2-5.4,3.5-8.6,3.5c-3.1,0-6-1.2-8.2-3.4c-2.2-2.2-3.5-5.2-3.5-8.4c0-3.2,1.2-6.1,3.5-8.4
		c2.2-2.2,5.3-3.4,8.5-3.4c1.6,0,3.2,0.3,4.6,0.9l1.5,0.6l40.5-36.5L156.7,119.7z"/>
</g>
</svg>
