<?xml version="1.0" encoding="utf-8"?>
<!-- Generator: Adobe Illustrator 16.0.4, SVG Export Plug-In . SVG Version: 6.00 Build 0)  -->
<!DOCTYPE svg PUBLIC "-//W3C//DTD SVG 1.1//EN" "http://www.w3.org/Graphics/SVG/1.1/DTD/svg11.dtd">
<svg version="1.1" id="Layer_2" xmlns="http://www.w3.org/2000/svg" xmlns:xlink="http://www.w3.org/1999/xlink" x="0px" y="0px"
	 width="100px" height="100px" viewBox="0 0 100 100" enable-background="new 0 0 100 100" xml:space="preserve">
<path fill="#FFFFFF" d="M50,1C22.982,1,1,22.982,1,50s21.982,49,49,49s49-21.982,49-49S77.018,1,50,1z M89.846,70.719H76.699
	c1.61-5.715,2.575-12.027,2.74-18.677H94.87C94.568,58.752,92.787,65.084,89.846,70.719z M5.13,52.042h15.433
	c0.165,6.649,1.13,12.962,2.739,18.677H10.154C7.213,65.084,5.432,58.752,5.13,52.042z M10.154,29.281h13.147
	c-1.609,5.714-2.575,12.027-2.739,18.677H5.13C5.432,41.248,7.213,34.916,10.154,29.281z M52.042,25.198V5.228
	c7.969,1.128,14.913,8.8,19.109,19.97H52.042z M72.516,29.281c1.663,5.634,2.669,11.966,2.84,18.677H52.042V29.281H72.516z
	 M47.958,5.228v19.97H28.85C33.046,14.028,39.989,6.356,47.958,5.228z M47.958,29.281v18.677H24.646
	c0.17-6.711,1.177-13.043,2.839-18.677H47.958z M24.646,52.042h23.312v18.677H27.486C25.823,65.084,24.817,58.752,24.646,52.042z
	 M47.958,74.802v19.971c-7.969-1.129-14.913-8.8-19.108-19.971H47.958z M52.042,94.772V74.802h19.109
	C66.955,85.973,60.011,93.644,52.042,94.772z M52.042,70.719V52.042h23.313c-0.171,6.71-1.177,13.042-2.84,18.677H52.042z
	 M79.439,47.958c-0.165-6.65-1.13-12.963-2.74-18.677h13.146c2.941,5.634,4.723,11.966,5.024,18.677H79.439z M87.432,25.198H75.404
	c-2.587-7.299-6.278-13.393-10.689-17.639C74.074,10.813,82.036,17.082,87.432,25.198z M35.286,7.559
	c-4.411,4.246-8.103,10.339-10.689,17.639H12.568C17.964,17.082,25.926,10.813,35.286,7.559z M12.569,74.802h12.028
	c2.586,7.3,6.278,13.394,10.689,17.64C25.926,89.187,17.964,82.918,12.569,74.802z M64.715,92.44
	c4.411-4.246,8.103-10.339,10.689-17.639h12.027C82.036,82.918,74.074,89.187,64.715,92.44z"/>
</svg>
