<?xml version="1.0" encoding="utf-8"?>
<!-- Generator: Adobe Illustrator 17.1.0, SVG Export Plug-In . SVG Version: 6.00 Build 0)  -->
<!DOCTYPE svg PUBLIC "-//W3C//DTD SVG 1.1//EN" "http://www.w3.org/Graphics/SVG/1.1/DTD/svg11.dtd">
<svg version="1.1" xmlns="http://www.w3.org/2000/svg" xmlns:xlink="http://www.w3.org/1999/xlink" x="0px" y="0px"
	 viewBox="0 0 288 288" enable-background="new 0 0 288 288" xml:space="preserve">
<g id="Layer_1" display="none">
	<rect x="0" display="inline" fill="#BCBEC0" width="288" height="252"/>
</g>
<g id="Layer_2">
	<g>
		<path d="M41.3,81.6c-4.6,0-9.9-1-14.3-2.8c-2.4-1-5.1-1.5-7.9-1.5c-9.1,0-17.1,5-17.4,5.2l-1.2,0.7v32.3v4.6V252h5V117.1
			c2.3-1.2,7.7-3.8,13.6-3.8c2.2,0,4.2,0.4,6.1,1.1c5,2,10.9,3.1,16.1,3.1c6.5,0,11.7-1.7,15.1-4.9l0.8-0.7V74l-4.2,4
			C49.8,81,44.9,81.6,41.3,81.6z M52.2,109.6c-3.1,2.4-7.6,2.9-10.9,2.9c-4.6,0-9.9-1-14.3-2.8c-2.4-1-5.1-1.5-7.9-1.5
			c-5.3,0-10.3,1.7-13.6,3.2V86.1c2.3-1.2,7.8-3.8,13.6-3.8c2.2,0,4.2,0.4,6.1,1.1c5,2,10.9,3.1,16.1,3.1c4.2,0,7.9-0.7,10.9-2.1
			V109.6z"/>
		<path d="M118,12.7c-4.6,0-9.9-1-14.3-2.8c-2.4-1-5.1-1.5-7.9-1.5c-9.1,0-17.1,5-17.4,5.2l-1.2,0.7v32.3v4.6V252h5V48.2
			c2.3-1.2,7.7-3.8,13.6-3.8c2.2,0,4.2,0.4,6.1,1.1c5,2,10.9,3.1,16.1,3.1c6.5,0,11.7-1.7,15.1-4.9l0.8-0.7V5.1l-4.2,4
			C126.6,12.1,121.7,12.7,118,12.7z M128.9,40.7c-3.1,2.4-7.6,2.9-10.9,2.9c-4.6,0-9.9-1-14.3-2.8c-2.4-1-5.1-1.5-7.9-1.5
			c-5.3,0-10.3,1.7-13.6,3.2V17.2c2.3-1.2,7.8-3.8,13.6-3.8c2.2,0,4.2,0.4,6.1,1.1c5,2,10.9,3.1,16.1,3.1c4.2,0,7.9-0.7,10.9-2.1
			V40.7z"/>
		<path d="M194.8,55.8c-4.6,0-9.9-1-14.3-2.8c-2.4-1-5.1-1.5-7.9-1.5c-9.1,0-17.1,5-17.4,5.2l-1.2,0.7l0,32.3h0V252h5V91.3
			c2.3-1.2,7.8-3.8,13.6-3.8c2.2,0,4.2,0.4,6.1,1.1c5,2,10.9,3.1,16.1,3.1c6.5,0,11.7-1.7,15.1-4.9l0.8-0.7V48.3l-4.2,4
			C203.4,55.2,198.4,55.8,194.8,55.8z M205.7,83.9c-3.1,2.4-7.6,2.9-10.9,2.9c-4.6,0-9.9-1-14.3-2.8c-2.4-1-5.1-1.5-7.9-1.5
			c-5.3,0-10.3,1.7-13.6,3.2V60.4c2.3-1.2,7.8-3.8,13.6-3.8c2.2,0,4.2,0.4,6.1,1.1c5,2,10.9,3.1,16.1,3.1c4.2,0,7.9-0.7,10.9-2.1
			V83.9z"/>
		<path d="M283.3,99.8c-3.1,2.9-8.1,3.6-11.7,3.6c-4.6,0-9.9-1-14.3-2.8c-2.4-1-5.1-1.5-7.9-1.5c-9.1,0-17.1,5-17.4,5.2l-1.2,0.7
			l0,32.3h0V252h5V138.9c2.3-1.2,7.8-3.8,13.6-3.8c2.2,0,4.2,0.4,6.1,1.1c5,2,10.9,3.1,16.1,3.1c6.5,0,11.7-1.7,15.1-4.9l0.8-0.7
			V95.8L283.3,99.8z M282.5,131.4c-3.1,2.4-7.6,2.9-10.9,2.9c-4.6,0-9.9-1-14.3-2.8c-2.4-1-5.1-1.5-7.9-1.5
			c-5.3,0-10.3,1.7-13.6,3.2v-25.4c2.3-1.2,7.8-3.8,13.6-3.8c2.2,0,4.2,0.4,6.1,1.1c5,2,10.9,3.1,16.1,3.1c4.2,0,7.9-0.7,10.9-2.1
			V131.4z"/>
	</g>
</g>
</svg>
