<?xml version="1.0" encoding="utf-8"?>
<!-- Generator: Adobe Illustrator 17.1.0, SVG Export Plug-In . SVG Version: 6.00 Build 0)  -->
<!DOCTYPE svg PUBLIC "-//W3C//DTD SVG 1.1//EN" "http://www.w3.org/Graphics/SVG/1.1/DTD/svg11.dtd">
<svg version="1.1" id="Layer_1" xmlns="http://www.w3.org/2000/svg" xmlns:xlink="http://www.w3.org/1999/xlink" x="0px" y="0px"
	 viewBox="0 0 17.5 17.3" enable-background="new 0 0 17.5 17.3" xml:space="preserve">
<path fill="#6B6D6F" d="M17.5,14.3c-0.1-1.5-1.3-2.6-2.8-2.7c0,0,0,0,0,0c-0.9-2.2-0.9-2.6-1.8-4.9c2.5-1.1,4.5-3.2,4.6-6.1
	c0-0.3-0.3-0.6-0.6-0.6C11.4,0,6,0,0.6,0C0.3,0,0,0.3,0,0.6c0.1,3,2.1,5.1,4.6,6.1c-1.3,3.3-2.5,6.5-3.8,9.8c-0.3,0.7,0.9,1,1.1,0.3
	c0.9-2.3,1.8-4.6,2.6-6.8c2.7,0,5.5,0,8.2,0c0.2,0.5,0.4,1.1,0.7,1.9c-1,0.5-1.6,1.5-1.7,2.6c-0.1,1.6,1.4,2.8,2.9,2.8
	c1.5,0.1,2.7-1.2,2.8-2.7c0,0,0-0.1,0-0.2C17.5,14.4,17.5,14.4,17.5,14.3z M1.2,1.2c5,0,10,0,15,0C15.8,4.6,12,6.4,8.7,6.4
	C5.5,6.4,1.7,4.6,1.2,1.2z M5,8.9c0.2-0.6,0.4-1.2,0.7-1.7c1,0.3,2,0.5,3,0.5c1,0,2-0.2,3-0.5c0.3,0.7,0.5,1.3,0.6,1.7
	C9.9,8.9,7.5,8.9,5,8.9z M13,14.5c-0.1-2.1,3.3-2.1,3.4,0C16.2,16.6,13.1,16.6,13,14.5z"/>
<path fill="#6B6D6F" d="M8.6,5.8C8.1,6.4,7.9,7.2,8.1,7.9c0.2,0.7,0.9,1.2,0.9,2c0,0.4-0.1,1-0.4,1.3c-0.2,0.1,0,0.5,0.2,0.4
	c0.7-0.4,0.8-1.6,0.5-2.3C9.2,8.9,9,8.6,8.8,8.3C8.5,8,8.4,7.5,8.5,7.1c0-0.4,0.2-0.8,0.4-1C9.1,5.9,8.8,5.6,8.6,5.8L8.6,5.8z"/>
<path fill="#6B6D6F" d="M8.6,5.8C8.1,6.4,7.9,7.2,8.1,7.9c0.2,0.7,0.9,1.2,0.9,2c0,0.4-0.1,1-0.4,1.3c-0.2,0.1,0,0.5,0.2,0.4
	c0.7-0.4,0.8-1.6,0.5-2.3C9.2,8.9,9,8.6,8.8,8.3C8.5,8,8.4,7.5,8.5,7.1c0-0.4,0.2-0.8,0.4-1C9.1,5.9,8.8,5.6,8.6,5.8L8.6,5.8z"/>
<path fill="#6B6D6F" d="M8.6,5.8C8.1,6.4,7.9,7.2,8.1,7.9c0.2,0.7,0.9,1.2,0.9,2c0,0.4-0.1,1-0.4,1.3c-0.2,0.1,0,0.5,0.2,0.4
	c0.7-0.4,0.8-1.6,0.5-2.3C9.2,8.9,9,8.6,8.8,8.3C8.5,8,8.4,7.5,8.5,7.1c0-0.4,0.2-0.8,0.4-1C9.1,5.9,8.8,5.6,8.6,5.8L8.6,5.8z"/>
</svg>
