<?xml version="1.0" encoding="utf-8"?>
<!-- Generator: Adobe Illustrator 17.1.0, SVG Export Plug-In . SVG Version: 6.00 Build 0)  -->
<!DOCTYPE svg PUBLIC "-//W3C//DTD SVG 1.1//EN" "http://www.w3.org/Graphics/SVG/1.1/DTD/svg11.dtd">
<svg version="1.1" xmlns="http://www.w3.org/2000/svg" xmlns:xlink="http://www.w3.org/1999/xlink" x="0px" y="0px"
	 viewBox="0 0 288 288" enable-background="new 0 0 288 288" xml:space="preserve">
<g id="Layer_1" display="none">
	<rect x="0" y="0" display="inline" fill="#BCBEC0" width="288" height="252"/>
</g>
<g id="Layer_2">
	<g>
		<path d="M84.3,0.9v250.6h119.6V0.9H84.3z M198.9,246.4H89.3V5.9h109.6V246.4z"/>
		<path d="M144.1,237.3c10.9,0,19.7-8.8,19.7-19.7s-8.8-19.7-19.7-19.7s-19.7,8.8-19.7,19.7S133.3,237.3,144.1,237.3z M144.1,202.9
			c8.1,0,14.7,6.6,14.7,14.7s-6.6,14.7-14.7,14.7s-14.7-6.6-14.7-14.7S136,202.9,144.1,202.9z"/>
		<path d="M143.4,227.7h4v-21h-3.3c-0.5,1.3-1.3,2.4-2.5,3.3c-1.2,1-2.4,1.6-3.4,1.9v3.6c2-0.7,3.7-1.7,5.2-3V227.7z"/>
		<path d="M144.1,176.3c10.9,0,19.7-8.8,19.7-19.7s-8.8-19.7-19.7-19.7s-19.7,8.8-19.7,19.7S133.3,176.3,144.1,176.3z M144.1,141.9
			c8.1,0,14.7,6.6,14.7,14.7s-6.6,14.7-14.7,14.7s-14.7-6.6-14.7-14.7S136,141.9,144.1,141.9z"/>
		<path d="M142.5,157.7c-2.2,2.1-3.8,3.8-4.5,5c-0.8,1.3-1.2,2.6-1.4,4h14.1V163h-8c0.2-0.4,0.5-0.7,0.8-1.1s1.1-1.2,2.4-2.3
			s2.1-2.1,2.6-2.7c0.7-0.9,1.3-1.8,1.6-2.7s0.5-1.7,0.5-2.7c0-1.7-0.6-3-1.8-4.2c-1.2-1.1-2.8-1.7-4.9-1.7c-1.9,0-3.5,0.5-4.7,1.4
			c-1.3,1-2,2.5-2.2,4.8l4,0.4c0.1-1.2,0.4-2,0.9-2.5c0.5-0.5,1.2-0.8,2-0.8c0.8,0,1.5,0.2,2,0.7s0.7,1.2,0.7,2.1
			c0,0.8-0.3,1.6-0.8,2.5C145.4,154.8,144.3,156,142.5,157.7z"/>
		<path d="M144.1,115.4c10.9,0,19.7-8.8,19.7-19.7S155,76,144.1,76s-19.7,8.8-19.7,19.7S133.3,115.4,144.1,115.4z M144.1,81
			c8.1,0,14.7,6.6,14.7,14.7s-6.6,14.7-14.7,14.7s-14.7-6.6-14.7-14.7S136,81,144.1,81z"/>
		<path d="M143.8,102.8c-0.8,0-1.4-0.3-2-0.8c-0.5-0.5-0.9-1.3-1-2.3l-3.9,0.5c0.2,1.8,0.9,3.2,2.2,4.3c1.2,1.1,2.8,1.6,4.7,1.6
			c2,0,3.7-0.6,5-1.9c1.3-1.3,2-2.9,2-4.7c0-1.3-0.4-2.3-1.1-3.2c-0.7-0.9-1.7-1.5-2.9-1.7c2-1.1,3-2.6,3-4.4c0-1.3-0.5-2.5-1.5-3.5
			c-1.2-1.3-2.8-1.9-4.7-1.9c-1.2,0-2.2,0.2-3.1,0.6c-0.9,0.4-1.7,1-2.2,1.8s-0.9,1.8-1.2,3l3.7,0.6c0.1-0.9,0.4-1.6,0.9-2.1
			c0.5-0.5,1.1-0.7,1.8-0.7c0.7,0,1.3,0.2,1.7,0.6c0.4,0.4,0.6,1,0.6,1.7c0,0.8-0.3,1.5-0.9,2c-0.6,0.5-1.4,0.7-2.5,0.7l-0.4,3.3
			c0.7-0.2,1.3-0.3,1.8-0.3c0.8,0,1.4,0.3,2,0.9c0.5,0.6,0.8,1.4,0.8,2.4c0,1.1-0.3,1.9-0.8,2.5S144.7,102.8,143.8,102.8z"/>
		<path d="M144.1,54.4c10.9,0,19.7-8.8,19.7-19.7S155,15,144.1,15s-19.7,8.8-19.7,19.7S133.3,54.4,144.1,54.4z M144.1,20
			c8.1,0,14.7,6.6,14.7,14.7s-6.6,14.7-14.7,14.7s-14.7-6.6-14.7-14.7S136,20,144.1,20z"/>
		<path d="M141.7,27.5c0.7-0.6,1.5-0.9,2.6-0.9c1.1,0,1.9,0.3,2.5,0.8s0.9,1.2,0.9,2c0,0.6-0.2,1.1-0.5,1.5
			c-0.2,0.3-0.9,0.9-2.1,1.9c-1.2,1-2,1.8-2.3,2.6c-0.4,0.8-0.6,1.7-0.6,2.9c0,0.1,0,0.4,0,1h3.6c0-1.1,0.1-1.9,0.3-2.3
			c0.2-0.4,0.7-1,1.6-1.7c1.6-1.4,2.7-2.4,3.2-3.2c0.5-0.8,0.8-1.6,0.8-2.5c0-1.6-0.7-3-2-4.2c-1.4-1.2-3.2-1.8-5.5-1.8
			c-2.2,0-4,0.6-5.3,1.8c-1.3,1.2-2.1,2.6-2.2,4.3l3.7,0.5C140.5,29,141,28.1,141.7,27.5z"/>
		<rect x="142.2" y="40.7" width="4" height="4"/>
	</g>
</g>
</svg>
