<?xml version="1.0" encoding="utf-8"?>
<!-- Generator: Adobe Illustrator 17.1.0, SVG Export Plug-In . SVG Version: 6.00 Build 0)  -->
<!DOCTYPE svg PUBLIC "-//W3C//DTD SVG 1.1//EN" "http://www.w3.org/Graphics/SVG/1.1/DTD/svg11.dtd">
<svg version="1.1" xmlns="http://www.w3.org/2000/svg" xmlns:xlink="http://www.w3.org/1999/xlink" x="0px" y="0px"
	 viewBox="0 0 288 288" enable-background="new 0 0 288 288" xml:space="preserve">
<g id="Layer_1" display="none">
	<rect x="0" y="0" display="inline" fill="#BCBEC0" width="288" height="252"/>
</g>
<g id="Layer_2">
	<path d="M146.5,15.3V0h-5v15.3C78.7,16.5,28,62.5,28,118.9h5c0-13.6,15.9-24.6,35.3-24.6c19.5,0,35.3,11.1,35.3,24.6h5
		c0-13,14.5-23.7,32.8-24.6v137.9c0,7.8-6.3,14.1-14.1,14.1c-7.8,0-14.1-6.3-14.1-14.1h-5c0,10.5,8.6,19.1,19.1,19.1
		s19.1-8.6,19.1-19.1V94.4c18.3,0.9,32.8,11.6,32.8,24.6h5c0-13.6,15.9-24.6,35.3-24.6c19.5,0,35.3,11.1,35.3,24.6h5
		C260,62.5,209.3,16.5,146.5,15.3z M68.3,89.3c-14.2,0-26.7,5.4-33.9,13.5C42.8,58,85.2,23.3,137.1,20.5c-9.9,9.8-29.8,35.3-33,84.8
		C97.4,95.8,83.9,89.3,68.3,89.3z M144,89.3c-14.8,0-27.8,5.9-34.8,14.7c4-53.4,28.6-77.7,34.8-83c6.2,5.3,30.8,29.4,34.8,83
		C171.8,95.2,158.8,89.3,144,89.3z M219.7,89.3c-15.5,0-29,6.5-35.8,16c-3.2-49.4-23.1-75-33-84.8c51.9,2.8,94.3,37.5,102.6,82.3
		C246.3,94.7,233.9,89.3,219.7,89.3z"/>
</g>
</svg>
