<?xml version="1.0" encoding="utf-8"?>
<!-- Generator: Adobe Illustrator 16.0.4, SVG Export Plug-In . SVG Version: 6.00 Build 0)  -->
<!DOCTYPE svg PUBLIC "-//W3C//DTD SVG 1.1//EN" "http://www.w3.org/Graphics/SVG/1.1/DTD/svg11.dtd">
<svg version="1.1" id="Layer_1" xmlns="http://www.w3.org/2000/svg" xmlns:xlink="http://www.w3.org/1999/xlink" x="0px" y="0px"
	 width="288px" height="288px" viewBox="0.5 288.5 288 288" enable-background="new 0.5 288.5 288 288" xml:space="preserve">
<path d="M275.521,464.614c-3.396-3.396-5.943-5.943-5.943-8.489v-18.679c0-6.79,0-25.469-19.527-39.902
	c7.641-5.943,11.886-16.13,11.886-28.017c0-9.338-3.396-19.525-10.188-26.318c-6.792-7.641-16.979-11.886-28.016-11.886
	s-20.376,3.396-26.319,10.188c-9.339,10.188-8.489,23.771-8.489,24.62h0.849c0,1.698,1.697,2.547,2.546,2.547
	c1.699,0,2.548-1.698,2.548-2.547l0,0h2.546c0-5.942,4.245-22.073,22.074-22.073c17.828,0,22.073,16.131,22.073,22.073
	c0,5.943-4.245,22.074-22.073,22.074h-0.85c0,0,0,0-0.849,0h-89.144c-2.546,0-8.49-2.548-18.678-8.49
	c-5.942-3.396-11.886-8.49-16.979-12.735l-0.849-0.849c-1.698-1.697-4.245-3.396-5.943-5.094c-2.547-2.546-5.943-4.244-8.489-5.943
	c0,0-0.85,0-0.85-0.848c-1.698-5.944-6.792-10.188-12.735-10.188h-6.792c-4.245,0-8.49,1.698-10.188,5.094h-2.548l0,0
	c-12.734,2.547-15.282,7.642-16.13,11.886l0,0l0,0c-0.85,1.697-4.245,3.396-11.038,3.396c-2.547,0-4.245,0-5.094,0l-4.245-0.849l0,0
	l-5.943-0.851v4.245c0,0.85,0,0.85,0,1.698l0,0l0.849,4.245l0,0l0,0l0.849,2.547l0,0c3.396,11.887,11.886,25.471,28.017,25.471
	c2.546,0,4.244,0,5.942,0c0.849,0,2.547,0,3.396,0c1.698,0,2.548,0,4.246,0l0,0l0,0l0,0l0,0l0,0
	c6.792,0.848,12.734,2.546,18.677,22.922c8.49,28.017,17.829,39.901,23.772,47.543l0.849,0.849v52.639
	c-0.849,0-2.547,0.849-3.396,0.849c-6.792,2.547-8.49,7.64-8.49,10.188v3.395h24.621l8.49-8.49l11.886-41.601
	c2.547,0,5.943,0.849,11.037,0.849c11.886,0,29.714-2.546,44.147-14.432c16.131-12.734,28.017-16.98,33.11-17.828
	c6.792,10.188,19.527,16.979,39.054,18.677c5.943,0.85,15.282,10.188,16.13,21.225c0.849,8.49,0,16.131,0,19.527
	c-5.943,1.698-12.734,5.094-12.734,12.735v3.395h25.469l7.641-9.338V484.99C286.558,475.651,280.615,469.708,275.521,464.614z
	 M52.237,355.943C52.237,355.095,52.237,355.095,52.237,355.943C52.237,355.095,52.237,355.095,52.237,355.943
	c0-0.849,0-0.849,0-1.696l0,0c0.849-1.698,2.547-3.396,5.094-3.396h6.792c2.547,0,5.094,1.698,5.094,4.244l0,0c0,0,0,0,0,0.849l0,0
	v0.851l0,0v0.849l0,0v0.85l0,0v0.848l0,0v0.85l0,0v0.849l0,0v0.849c0,2.548-1.698,5.943-5.094,5.943h-5.094
	c-3.396,0-5.094-3.396-5.094-5.943v-0.849l0,0c0,0,0,0,0-0.849l0,0c0,0,0,0,0-0.85l0,0c0,0,0,0,0-0.848l0,0c0,0,0,0,0-0.85l0,0
	c0,0,0,0,0-0.849l0,0C52.237,356.794,52.237,356.794,52.237,355.943L52.237,355.943L52.237,355.943L52.237,355.943z
	 M278.917,523.195l-3.396,4.244h-11.886c2.547-1.698,5.094-2.546,6.792-2.546l2.547-0.85v-2.547c0,0,0.849-10.188,0-22.922
	c-0.849-14.434-12.735-27.169-22.923-28.018c-17.829-1.697-28.866-7.641-33.959-16.131c-0.849-0.849-1.698-2.547-3.396-2.547l0,0
	c-5.094,0.848-19.527,3.396-39.903,19.526c-13.583,10.188-28.865,12.735-39.902,12.735c-7.641,0-12.735-0.851-12.735-0.851
	l-3.396-0.848l-12.734,45.846l-5.094,5.093H88.744c1.698-0.849,3.396-0.849,4.245-0.849h3.395v-61.127l-0.849-0.849
	c0.849-2.546,0-2.546-0.849-3.396c-5.942-7.642-14.433-18.677-22.922-45.845C66.67,402.639,60.728,395.846,49.69,393.3l0,0l0,0
	h-3.396l0,0l0,0l0,0l0,0c0,0,0,0-0.849,0c-1.698,0-2.547,0-4.246,0c-0.849,0-2.546,0-3.396,0c-1.698,0-4.245,0-5.942,0
	c-12.735,0-18.679-11.037-20.376-17.829l0,0c0,0,0,0,0.849,0l0,0c0,0,0,0,0.849,0l0,0c0,0,0,0,0.849,0l0,0c0,0,0,0,0.849,0l0,0
	c0,0,0,0,0-0.849l0,0c0,0,0,0,0-0.85l0,0c0,0,0,0,0-0.849l0,0c0,0,0,0,0-0.849l0,0c0.849,0,1.698,0,2.547,0
	c9.339,0,15.282-3.396,16.98-7.641c0.849-0.849,1.698-1.699,1.698-2.548c0-1.697,3.396-3.395,8.49-5.093v0.849
	c0.85,1.697,1.698,5.093,1.698,5.943l0,0c0.85,5.941,4.245,10.187,9.339,11.036c0.849,0,2.547,0.849,3.396,0.849h2.547
	c5.943,0,11.037-5.093,12.735-11.885l0,0l0,0l0,0l0,0l0,0l0,0c0,0,0,0,0-0.851l0,0c2.547,1.699,4.245,3.396,7.641,5.095
	c1.698,1.697,3.396,3.396,5.943,5.094l0.849,0.849c5.094,4.245,11.037,9.34,17.829,12.735c6.792,4.245,16.979,10.188,22.923,10.188
	h89.993h0.849h4.245l0,0c18.678-1.697,26.318-18.678,26.318-28.865c0-7.641-3.396-17.828-11.886-23.771
	c11.037,5.094,17.829,16.979,17.829,28.017c0,11.886-4.245,20.375-12.735,25.469l-5.093,3.397l5.093,3.395
	c18.678,11.037,20.376,26.32,20.376,36.507v18.677c0,5.943,4.245,9.341,8.49,13.585c4.245,4.245,8.49,8.49,8.49,15.282
	L278.917,523.195L278.917,523.195z"/>
</svg>
