<?xml version="1.0" encoding="utf-8"?>
<!-- Generator: Adobe Illustrator 17.1.0, SVG Export Plug-In . SVG Version: 6.00 Build 0)  -->
<!DOCTYPE svg PUBLIC "-//W3C//DTD SVG 1.1//EN" "http://www.w3.org/Graphics/SVG/1.1/DTD/svg11.dtd">
<svg version="1.1" xmlns="http://www.w3.org/2000/svg" xmlns:xlink="http://www.w3.org/1999/xlink" x="0px" y="0px"
	 viewBox="0 0 288 288" enable-background="new 0 0 288 288" xml:space="preserve">
<g id="Layer_1" display="none">
	<rect display="inline" fill="#BCBEC0" width="288" height="252"/>
</g>
<g id="Layer_2">
	<path d="M266.5,213.4c9.1-9,7-18.6,6.9-19l-1-4.6l-3.2,3.4c-2,2.1-4.3,2.4-6.4,0.8c-3.4-2.5-4.8-8.9-0.8-15.6
		c7.2-12,11.8-51.7-0.6-74.3c-5.8-10.5-14.8-16.4-26-16.9c-2.3-1.8-9.7-7.3-20-9.9c-11.4-2.9-28.6-2.7-45.8,14.7
		c-17.8,18.1-23.1,37-24.3,49.8c-7.7-5.9-17.7-10-30-14.3c-12.3-4.2-12.8-15.7-12.6-19.7c13.1-8.6,22-24.9,22.1-43.4
		c1.1-4.8,7.7-37-6.1-46.3c-1.7-3.4-10-16.9-31.3-16.9c-9.1,0-19.5,2.6-30.9,7.7c-10.8,4.9-18,12.1-21.2,21.4
		c-5.4,15.4,1.6,31.3,3.1,34.4c0.2,13.4,4.7,25.8,12.6,35.1c2.7,3.1,5.6,5.8,8.8,7.9c0.2,3.9-0.2,15.5-12.6,19.8
		c-23.9,8.2-45.3,17.9-45.3,46v2.5h64.1h30.5h54.5c0.5,0.9,1,1.8,1.5,2.5c4.8,7,2.4,12.9-0.4,15.2c-0.9,0.7-3.9,2.7-6.9-0.5
		l-3.2-3.4l-1,4.6c-0.1,0.4-2.1,9.8,6.7,18.7c-11.9,7.3-20.1,17.6-20.1,35v2.5h64.1h30.5h64.1v-2.5
		C286.2,231,278.1,220.7,266.5,213.4z M110.6,131.1l-3.6,17.8l-20.5-13.3l18.7-8C106.7,128.8,108.5,130.1,110.6,131.1z M40,32
		c2.8-8,9-14.2,18.5-18.4c10.7-4.8,20.4-7.2,28.8-7.2c20.3,0,26.8,14,27,14.6l0.3,0.7l0.7,0.4c7.5,4.4,7.4,20.2,6,31.8l-7.8-23.1
		l-0.6-1.6l-1.7-0.1c0,0-0.3,0-1,0c-2.6,0-12.2,0.3-24.5,4.1c-4,1.2-9.1,1.8-15.4,1.8c-10.8,0-21.1-1.9-21.2-1.9l-2.2-0.4l-6.7,23.7
		C38.6,50.2,36.9,40.8,40,32z M54.7,96.6c-7.2-8.4-11.3-19.9-11.4-32.2l7.4-26.1c3.7,0.6,11.5,1.6,19.8,1.6c6.7,0,12.4-0.7,16.8-2.1
		c10.4-3.2,18.7-3.8,22.1-3.8l10.2,30.5c-0.2,24.6-17.2,44.7-38.2,44.9C71.4,109.6,61.9,105,54.7,96.6z M81.2,114.5
		c0.1,0,0.2,0,0.4,0c5.7-0.1,11.1-1.4,16.1-3.7c0.2,3.9,1.4,8.6,4.2,12.8l-20.3,8.7l-0.3-0.2l-0.2,0.1l-20-9.3
		c2.5-4,3.6-8.4,3.8-12.2C69.9,113.2,75.4,114.5,81.2,114.5z M57.8,126.9l18.3,8.5l-20.5,13.4l-3.8-17.8
		C54.2,129.9,56.1,128.5,57.8,126.9z M47,132.9l7.8,38.2H6.9C7.9,150.8,22,141.7,47,132.9z M59.9,171.1l-3.5-16.9l11.8-7.7l5.6,8.1
		l-6.1,16.5H59.9z M73.1,171.1l6.4-17.3l-7-10l8.7-5.8l8.7,5.8l-7,10l6.4,17.3H73.1z M94.6,171.1l-6.1-16.5l5.6-8.1l11.8,7.7
		l-3.5,17H94.6z M107.5,171.1l7.8-38.2c12.6,4.4,22.5,8.8,29.5,15.2c-0.1,9.2,1.5,17.1,3.8,23H107.5z M145.8,199.6
		c3.1,1.1,6.5,0.5,9.4-1.9c5.3-4.3,7.4-13.2,1.4-21.9c-9-13-13.4-49.9,16.5-80.2c29.5-29.9,58.4-5,59.6-4l0.7,0.6l0.9,0
		c9.9,0.2,17.5,5.1,22.6,14.4c11.5,20.8,7.2,58.4,0.7,69.3c-4.1,6.9-4.8,17,2.1,22.2c2.7,2.1,5.9,2.5,8.8,1.5c-0.5,3-2,7.2-6.6,11.2
		c-6.4-3.4-13.6-6.1-21.1-8.6c-12.1-4.2-12.8-15.5-12.6-19.5c13.2-8.6,22.1-25.1,22.1-43.9v-1.2l-0.9-0.8
		c-0.1-0.1-14-11.3-16.5-24.9l-0.6-3.5l-3.1,1.8c-0.4,0.2-39.4,23.2-63.1,26.1l-2.2,0.3v2.2c0,18.5,8.6,34.7,21.4,43.4
		c0.2,3.6,0,15.7-12.6,20c-7.3,2.5-14.4,5.2-20.7,8.4C147.7,206.6,146.2,202.5,145.8,199.6z M177.4,205.7c2.4-1.2,4.3-2.6,6-4.2
		l18.3,8.5l-20.5,13.4L177.4,205.7z M207.1,184.1c-20.5,0-37.2-19.2-38.2-43.2c21-3.5,50.5-19.5,59.8-24.8
		c3.5,11.8,13.4,21.1,16.5,23.8C244.8,164.4,227.9,184.1,207.1,184.1z M207.1,189.1c5.7,0,11.1-1.3,16.1-3.6
		c0.3,3.9,1.4,8.6,4.2,12.7l-20.3,8.7l-0.3-0.2l-0.2,0.1l-20-9.3c2.6-4.1,3.6-8.6,3.8-12.4C195.6,187.7,201.2,189.1,207.1,189.1z
		 M212.1,210.1l18.7-8c1.5,1.4,3.3,2.6,5.4,3.6l-3.6,17.7L212.1,210.1z M172.7,207.5l7.8,38.2h-47.9
		C133.6,225.4,147.6,216.3,172.7,207.5z M185.6,245.7l-3.5-16.9l11.8-7.7l5.6,8.1l-6.1,16.5H185.6z M198.7,245.7l6.4-17.3l-7-10
		l8.7-5.8l8.7,5.8l-7,10l6.4,17.3H198.7z M220.2,245.7l-6.1-16.5l5.6-8.1l11.8,7.7l-3.5,17H220.2z M233.2,245.7l3.6-17.7l0,0
		l4.2-20.5c25.1,8.8,39.1,17.9,40.2,38.2H233.2z"/>
</g>
</svg>
