<?xml version="1.0" encoding="utf-8"?>
<!-- Generator: Adobe Illustrator 17.1.0, SVG Export Plug-In . SVG Version: 6.00 Build 0)  -->
<!DOCTYPE svg PUBLIC "-//W3C//DTD SVG 1.1//EN" "http://www.w3.org/Graphics/SVG/1.1/DTD/svg11.dtd">
<svg version="1.1" xmlns="http://www.w3.org/2000/svg" xmlns:xlink="http://www.w3.org/1999/xlink" x="0px" y="0px"
	 viewBox="0 0 288 288" enable-background="new 0 0 288 288" xml:space="preserve">
<g id="Layer_1" display="none">
	<rect x="0" y="0" display="inline" fill="#BCBEC0" width="288" height="252"/>
</g>
<g id="Layer_2">
	<g>
		<path d="M234.2,250.8l-3-4c-13.1-17.8-25-37.6-35.3-59l4.4-22.4H186c-25.8-62.6-31.3-117.6-31.7-122l2.3-14.8h-3.4l-4.4-7.5
			L146.5,5h-4.9l-2.4,16.2l-4.4,7.5h-3.4l2.3,14.8c-0.4,4.4-5.9,59.4-31.7,122H87.6l4.4,22.4c-10.3,21.4-22.2,41.2-35.3,59l-3,4
			h43.1v-2.5c0-26,21.1-47.1,47.1-47.1s47.1,21.1,47.1,47.1v2.5H234.2z M138.3,40.9l-1.1-7.2h13.6l-1.1,7.2H138.3z M143.7,23.4
			l0.3-0.8l0.3,0.8l3.1,5.3h-6.8L143.7,23.4z M138.5,45.9h11.1c1.2,11.2,7.6,62.1,31,119.6h-10.1l-10.4-35.1l-32.2,0l-10.4,35.1
			h-10.1C130.8,108,137.3,57.1,138.5,45.9z M165.3,165.5h-42.5l8.9-30.1l24.7,0L165.3,165.5z M116,170.5H172h22.3l-3,15.2H96.7
			l-3-15.2H116z M144,196.2c-27.9,0-50.8,22-52.1,49.6H63.7c12-16.8,23-35.3,32.6-55.1h95.5c9.6,19.8,20.5,38.3,32.5,55.1h-28.3
			C194.8,218.2,171.9,196.2,144,196.2z"/>
		<path d="M144,76.1l-13.8,46.8l27.7,0L144,76.1z M144,93.7l7.2,24.1l-14.3,0L144,93.7z"/>
	</g>
</g>
</svg>
