<?xml version="1.0" encoding="utf-8"?>
<!-- Generator: Adobe Illustrator 17.1.0, SVG Export Plug-In . SVG Version: 6.00 Build 0)  -->
<!DOCTYPE svg PUBLIC "-//W3C//DTD SVG 1.1//EN" "http://www.w3.org/Graphics/SVG/1.1/DTD/svg11.dtd">
<svg version="1.1" xmlns="http://www.w3.org/2000/svg" xmlns:xlink="http://www.w3.org/1999/xlink" x="0px" y="0px"
	 viewBox="0 0 288 288" enable-background="new 0 0 288 288" xml:space="preserve">
<g id="Layer_1" display="none">
	<rect y="0" display="inline" fill="#BCBEC0" width="288" height="252"/>
</g>
<g id="Layer_2">
	<g>
		<path d="M98.6,75.4C92.4,71.2,84,68.7,76,68.7c-4.7,0-8.6,0.9-11,2.5c-9.8,6.5-12,16-14.1,25.1c-0.7,3-1.4,6.2-2.4,9.1
			c-2.1,6.1-4.7,7.7-8.4,10c-2.7,1.7-6.1,3.7-9.7,8c-4.5,5.3-7.6,15-3.9,23.9c2.7,6.5,10,14.7,29.3,16.4c1.3,0.1,2.6,0.2,3.9,0.2
			c33.2,0,51.6-38.4,51.6-65C111.2,89,106.8,80.9,98.6,75.4z M59.6,158.9c-1.1,0-2.3-0.1-3.5-0.2c-13.3-1.2-22-5.8-25.1-13.4
			c-2.9-6.9-0.4-14.6,3.1-18.7c3.1-3.6,5.8-5.3,8.5-6.9c4.1-2.5,7.9-4.8,10.6-12.6c1.1-3.2,1.8-6.5,2.6-9.6c2-8.6,3.9-16.7,12-22.1
			c1.6-1,4.6-1.7,8.2-1.7c7,0,14.4,2.2,19.8,5.8c6.8,4.6,10.3,11.1,10.3,19.4c0,13-4.7,28.1-12.4,39.5
			C82.4,155.3,68.9,158.9,59.6,158.9z"/>
		<path d="M72.2,63.3c2.3,0.1,5.2,0.1,8.5,0.1c0,0,0,0,0,0c18.7,0,47.1-1.1,47.4-1.1l2.4-0.1v-24H74.7c-11.1,0-47.5,3.9-49,4
			l-1.8,0.2l-5.8,24.9l3.6-0.4C21.9,66.9,55.5,62.8,72.2,63.3z M28,47c7.6-0.8,37.3-3.8,46.7-3.8h50.8v14.2c-7.3,0.3-29.4,1-44.8,1
			c0,0,0,0,0,0c-3.3,0-6.1,0-8.4-0.1c-13.9-0.4-38.6,2.2-47.7,3.2L28,47z"/>
		<path d="M163.8,151.5c-12.6,0-21.7,16.1-21.7,27c0,11,11.6,19.5,21.6,19.5c10.6,0,23.1-13.3,23.1-24.6
			C186.9,161.7,176.1,151.5,163.8,151.5z M163.8,192.9c-7.5,0-16.6-6.5-16.6-14.5c0-4.3,2-10,5-14.4c2-2.8,6.1-7.6,11.6-7.6
			c9.6,0,18.1,7.9,18.1,16.9C181.9,181.1,172.2,192.9,163.8,192.9z"/>
		<path d="M277.4,146.4c-8.9-13-21.4-19.6-37.1-19.6c-17.7,0-33.8,8.4-38.5,11.1c-4.7-2.7-20.8-11.1-38.5-11.1c-6,0-11.5,1-16.5,2.9
			c0.6-11.5,0.8-21.7,0.6-30.3c-0.8-30.6-4.2-65.7-4.6-69.6l3.3-18.9l-2.9-0.1c-2.3,0-55.7-0.9-76.3,0.8c-20.6,1.7-55.2,8-55.6,8.1
			l-2.7,0.5l4.6,16.5c-1,5.3-7.9,42.7-6.8,65.1l0.3,5.1c1.2,23.1,2.7,54.8-0.3,67.5l-5,24.8l2.3,0.6c1.6,0.4,33.8,8.2,59.4,8.2
			c4.2,0,8.2-0.2,11.9-0.7c14.7-2,34.5-3.6,49-4.6c5.6,10.2,13,17.9,17.7,21.7c-1.8,4.9-2.3,13.1,5.8,18.8c2.8,2,5.7,3,8.7,3
			c5,0,8.9-2.9,10.9-4.8c4.9,2.6,19.3,9.4,34.8,9.4s29.8-6.8,34.8-9.4c2,1.9,5.8,4.8,10.9,4.8c3,0,5.9-1,8.7-3
			c8.1-5.7,7.6-13.9,5.8-18.8C273.6,215.2,301.9,182.2,277.4,146.4z M74.4,202.4c-21.8,2.9-57.7-4.7-67.1-6.9l4-20
			c3.2-13.2,1.6-45.3,0.4-68.8l-0.3-5.1c-1.1-23.1,6.8-64.1,6.9-64.5l0.1-0.6L15,24.2c8.5-1.5,35.3-6.1,52.4-7.6
			c17.7-1.5,61.2-1,72.9-0.8l-2.4,13.8l0,0.3c0,0.4,3.7,37.4,4.6,69.5c0.2,9.1,0,20-0.7,32.5c-6,3.3-11.1,8.1-15.4,14.4
			c-1.9,2.8-3.4,5.5-4.7,8.2c-2.5-1.8-5.5-2.8-8.7-2.8c-8.3,0-15.1,6.8-15.1,15.1s6.8,15.1,15.1,15.1c1.4,0,2.8-0.2,4.1-0.6
			c0.7,5.9,2.4,11.5,4.6,16.6C107.3,199,88.5,200.6,74.4,202.4z M116.7,176.2c-1.2,0.5-2.5,0.7-3.8,0.7c-5.6,0-10.1-4.5-10.1-10.1
			s4.5-10.1,10.1-10.1c2.5,0,4.8,0.9,6.7,2.6C117.5,165.2,116.6,170.8,116.7,176.2z M257.5,221.7l-1.8,1.3l1.1,2
			c0.5,0.9,4.5,8.8-3.4,14.3c-1.9,1.4-3.9,2.1-5.8,2.1c-4.9,0-8.3-4.4-8.4-4.4l-1.3-1.7l-1.9,1.1c-0.2,0.1-16.7,9.7-34,9.7
			s-33.8-9.6-34-9.7l-1.9-1.1l-1.3,1.7c0,0-3.5,4.4-8.4,4.4c-1.9,0-3.9-0.7-5.8-2.1c-7.9-5.5-3.9-13.4-3.4-14.3l1.1-2l-1.8-1.3
			c-9.3-6.6-39.2-38.1-15.8-72.4c7.9-11.6,19-17.4,33-17.4c19.1,0,37,11,37.1,11.1l1.3,0.8l1.3-0.8c0.2-0.1,18.1-11.1,37.1-11.1
			c14,0,25.1,5.9,33,17.4C296.7,183.5,266.8,215.1,257.5,221.7z"/>
		<path d="M204.3,193.8h-4.9c-2.7,13.9-18.5,22.3-18.7,22.4L180,220c5.4,6,13.7,9.6,21.8,9.6s16.5-3.7,21.8-9.6l-0.7-3.9
			C222.9,216.1,207,207.7,204.3,193.8z M201.9,224.7c-5.6,0-11.5-2.2-15.9-5.8c4.2-2.7,11.7-8.4,15.9-16.9
			c4.2,8.4,11.7,14.2,15.9,16.9C213.4,222.4,207.5,224.7,201.9,224.7z"/>
		<path d="M239.9,151.5c-12.3,0-23.1,10.2-23.1,21.9c0,11.3,12.5,24.6,23.1,24.6c10,0,21.6-8.5,21.6-19.5
			C261.6,167.6,252.5,151.5,239.9,151.5z M239.9,192.9c-8.4,0-18.1-11.8-18.1-19.6c0-9,8.4-16.9,18.1-16.9c5.5,0,9.7,4.8,11.6,7.6
			c3,4.4,5,10.1,5,14.4C256.6,186.5,247.5,192.9,239.9,192.9z"/>
	</g>
</g>
</svg>
