<?xml version="1.0" encoding="utf-8"?>
<!-- Generator: Adobe Illustrator 17.1.0, SVG Export Plug-In . SVG Version: 6.00 Build 0)  -->
<!DOCTYPE svg PUBLIC "-//W3C//DTD SVG 1.1//EN" "http://www.w3.org/Graphics/SVG/1.1/DTD/svg11.dtd">
<svg version="1.1" id="Layer_1" xmlns="http://www.w3.org/2000/svg" xmlns:xlink="http://www.w3.org/1999/xlink" x="0px" y="0px"
	 viewBox="0 0 10 7" enable-background="new 0 0 10 7" xml:space="preserve">
<path fill="#FFFFFF" d="M9.2,0H0.8C0.4,0,0,0.4,0,0.9v5.3C0,6.6,0.4,7,0.8,7h8.3C9.6,7,10,6.6,10,6.1V0.9C10,0.4,9.6,0,9.2,0z
	 M9,0.6l-3.3,3C5.4,3.9,5.1,4.1,5,4.1c-0.1,0-0.4-0.1-0.6-0.4L1,0.6H9z M0.6,5.9V1.2l2.6,2.3L0.6,5.9z M1.1,6.4L3.7,4l0.4,0.4
	C4.3,4.6,4.6,4.7,5,4.7c0.4,0,0.7-0.1,0.9-0.3L6.3,4l2.6,2.4H1.1z M9.4,5.9L6.8,3.5l2.6-2.3V5.9z"/>
</svg>
