<?xml version="1.0" encoding="utf-8"?>
<!-- Generator: Adobe Illustrator 17.1.0, SVG Export Plug-In . SVG Version: 6.00 Build 0)  -->
<!DOCTYPE svg PUBLIC "-//W3C//DTD SVG 1.1//EN" "http://www.w3.org/Graphics/SVG/1.1/DTD/svg11.dtd">
<svg version="1.1" id="Layer_1" xmlns="http://www.w3.org/2000/svg" xmlns:xlink="http://www.w3.org/1999/xlink" x="0px" y="0px"
	 viewBox="0 0 36.5 31" enable-background="new 0 0 36.5 31" xml:space="preserve">
<path fill="#6B6D6F" d="M36,16.5h-5.2c0.2-0.4,0.3-0.9,0.3-1.4c0-1.4-1.8-3.4-3.8-4.3c-0.1,0-0.1,0-0.2,0V8c0-0.3-0.2-0.5-0.5-0.5
	h-3.1C23.8,7,23.9,6.5,24,6c0,0,0,0,0-0.1c0-0.1,0-0.2,0-0.3c0-0.1,0-0.3,0-0.4C24,2.4,21.7,0,18.8,0s-5.2,2.4-5.2,5.3
	c0,0.8,0.2,1.5,0.5,2.2h-3.1c-0.3,0-0.5,0.2-0.5,0.5v2.7c0,0-0.1,0-0.1,0c-2.9,1.4-4.4,3.7-4.8,4.4c-0.7,0.2-1.3,0.7-1.7,1.4H0.5
	C0.2,16.5,0,16.7,0,17c0,0.3,0.2,0.5,0.5,0.5h3c0,0.1,0,0.2,0,0.3c0,0.2,0,0.4,0.1,0.7c0,0.1,0.1,0.1,0.1,0.2
	c-0.1,0.2-0.2,0.5-0.2,0.8c0,0.2,0,0.4,0.1,0.6c0.1,0.2,0.3,0.3,0.5,0.3h4.4c0.2,0,0.4-0.1,0.5-0.3C9,19.8,9,19.6,9,19.4
	c0-0.3-0.1-0.5-0.2-0.8c0-0.1,0.1-0.1,0.1-0.2C9,18.2,9,18,9,17.8c0-0.1,0-0.2,0-0.3h1.4v2.8c0,0.3,0.2,0.5,0.5,0.5h15.8
	c0.2,0,0.4-0.2,0.5-0.4c1.3,0.8,1.5,1.9,1.4,3.3H3.2c-0.3,0-0.5,0.2-0.5,0.5c0,0.3,0.2,0.5,0.5,0.5h25.3c0,0.2-0.1,0.4-0.1,0.7
	c-0.3,2-0.7,4.3,1.3,5.7c0.1,0.1,0.2,0.1,0.3,0.1c0.2,0,0.3-0.1,0.4-0.2c0.1-0.2,0.1-0.5-0.1-0.7c-1.5-1-1.2-2.7-0.9-4.7
	c0-0.3,0.1-0.5,0.1-0.8h4.4c0.3,0,0.5-0.2,0.5-0.5c0-0.3-0.2-0.5-0.5-0.5h-4.3c0.1-1.8-0.2-3.4-2.4-4.4v-0.4c1-0.1,2.2-0.5,3-1.4H36
	c0.3,0,0.5-0.2,0.5-0.5C36.5,16.7,36.3,16.5,36,16.5z M23.1,5.1c-0.7-0.3-1.3-0.6-1.7-0.8c0.6-0.3,1-0.6,1.3-0.8
	C22.9,4,23,4.5,23.1,5.1z M18.8,1c1.4,0,2.6,0.7,3.4,1.7c-0.8,0.6-3.2,2-7.6,3.4c0-0.2-0.1-0.5-0.1-0.8C14.6,2.9,16.5,1,18.8,1z
	 M14.9,7c2.4-0.8,4.2-1.5,5.5-2.2c0.4,0.3,1.3,0.8,2.6,1.3c-0.1,0.5-0.3,0.9-0.5,1.3h-7.3C15.1,7.3,15,7.1,14.9,7z M6.3,16
	c1,0,1.8,0.8,1.8,1.8c0,0,0,0.1,0,0.1H7.9H4.6H4.5c0,0,0-0.1,0-0.1C4.5,16.8,5.3,16,6.3,16z M4.5,19.3c0-0.2,0.2-0.4,0.3-0.5h3
	C7.9,18.9,8,19.1,8,19.3H4.5z M8.7,16.5c-0.4-0.8-1.1-1.3-2-1.5c0.6-0.9,1.8-2.3,3.7-3.3v4.7H8.7z M26.2,19.7H11.4V8.4h3.5h7.9h3.5
	L26.2,19.7L26.2,19.7z M27.2,17.9V15l0.5-0.1c0.3-0.1,0.4-0.3,0.4-0.6c-0.1-0.3-0.3-0.4-0.6-0.4L27.2,14v-2.2c1.7,0.9,3,2.6,3,3.3
	C30.2,17.1,28.2,17.7,27.2,17.9z"/>
<path fill="#6B6D6F" d="M18.3,13.7c-1,0-1.8,0.8-1.8,1.8c0,1,0.8,1.8,1.8,1.8c1,0,1.8-0.8,1.8-1.8C20.1,14.5,19.3,13.7,18.3,13.7z
	 M18.3,16.3c-0.5,0-0.8-0.4-0.8-0.8c0-0.5,0.4-0.8,0.8-0.8c0.5,0,0.8,0.4,0.8,0.8C19.1,16,18.7,16.3,18.3,16.3z"/>
</svg>
