<?xml version="1.0" encoding="utf-8"?>
<!-- Generator: Adobe Illustrator 17.1.0, SVG Export Plug-In . SVG Version: 6.00 Build 0)  -->
<!DOCTYPE svg PUBLIC "-//W3C//DTD SVG 1.1//EN" "http://www.w3.org/Graphics/SVG/1.1/DTD/svg11.dtd">
<svg version="1.1" id="Layer_1" xmlns="http://www.w3.org/2000/svg" xmlns:xlink="http://www.w3.org/1999/xlink" x="0px" y="0px"
	 viewBox="0 0 24.5 24.5" enable-background="new 0 0 24.5 24.5" xml:space="preserve">
<path fill="#000000" d="M23.6,0H0.9C0.4,0,0,0.4,0,0.9v22.6c0,0.5,0.4,0.9,0.9,0.9h22.6c0.5,0,0.9-0.4,0.9-0.9V0.9
	C24.5,0.4,24.1,0,23.6,0z M23.6,12h-4.9V7.2c0,0,0,0,0,0c0.3,0.1,0.6,0.2,0.9,0.2c0.1,0,0.3,0,0.4,0c1.1-0.2,1.9-0.9,1.8-1.7
	c-0.1-0.8-1.1-1.3-2.2-1.1c-0.1,0-0.3,0.1-0.4,0.1c-0.1-0.3-0.3-0.5-0.5-0.6v-3h4.9L23.6,12L23.6,12z M6.4,4.8
	C6.4,4.8,6.4,4.8,6.4,4.8c0.1,0.1,0.1,0.1,0.2,0.1c0.1,0,0.1,0,0.2,0c0.5-0.4,1.3-0.3,1.8,0C8.7,5,8.8,5,8.9,4.9
	c0.2-0.2,0.5-0.3,0.8-0.3c0.7,0,1.2,0.6,1.2,1.2c0,0.7-0.6,1.2-1.2,1.2c-0.2,0-0.3,0-0.5-0.1C9,7,8.9,7,8.8,7.1
	C8.6,7.5,8.1,7.7,7.7,7.7C7.2,7.7,6.7,7.4,6.4,7L6.4,4.8L6.4,4.8z M5.9,7C5.7,7.1,5.4,7.2,5.2,7.2c-0.8,0-1.5-0.7-1.5-1.5
	c0-0.8,0.7-1.5,1.5-1.5c0.3,0,0.5,0.1,0.7,0.2V7z M6.4,7.8C6.8,8,7.2,8.2,7.7,8.2c0.6,0,1.1-0.2,1.5-0.6c0.2,0.1,0.4,0.1,0.5,0.1
	c1,0,1.8-0.8,1.8-1.8c0-1-0.8-1.8-1.8-1.8C9.3,4.1,9,4.2,8.7,4.4C8.1,4,7.3,4,6.7,4.3C6.6,4.2,6.5,4.1,6.4,4.1V0.9h5.3v11H6.4V7.8z
	 M11.8,12.5v11.1H6.4V12.5H11.8z M12.8,12.5h5.4v11.1h-5.4V12.5z M12.8,12v-11h5.4v2.6c-0.3-0.1-0.6-0.2-1-0.1
	c-0.6,0.1-1.1,0.4-1.4,1c-0.2,0-0.4,0-0.6,0c-1,0.1-1.7,0.9-1.6,1.6c0.1,0.7,1,1.3,2,1.1c0.2,0,0.4-0.1,0.5-0.1
	c0.4,0.3,0.8,0.5,1.3,0.5c0.1,0,0.2,0,0.3,0c0.1,0,0.3-0.1,0.4-0.1V12H12.8z M18.7,4.6c0.1,0.1,0.1,0.2,0.2,0.3
	c0,0.1,0.1,0.1,0.1,0.1c0.1,0,0.1,0,0.2,0C19.3,5,19.5,5,19.7,4.9c0.8-0.1,1.6,0.2,1.7,0.7c0.1,0.5-0.6,1-1.4,1.2
	c-0.1,0-0.2,0-0.3,0c-0.3,0-0.6-0.1-0.9-0.2c0,0-0.1,0-0.1,0V4.6L18.7,4.6z M18.2,6.9C18,7,17.9,7,17.7,7.1
	c-0.5,0.1-0.9-0.1-1.3-0.5c0-0.1-0.1-0.1-0.2-0.1c0,0-0.1,0-0.1,0c-0.2,0.1-0.4,0.1-0.6,0.2c-0.7,0.1-1.4-0.2-1.4-0.7
	c-0.1-0.5,0.5-1,1.2-1.1c0.2,0,0.4,0,0.6,0c0.1,0,0.2,0,0.3-0.1C16.4,4.4,16.8,4,17.3,4c0.3,0,0.6,0,0.9,0.2L18.2,6.9L18.2,6.9z
	 M5.9,0.9v2.8C5.7,3.7,5.4,3.6,5.2,3.6c-1.1,0-2,0.9-2,2c0,1.1,0.9,2,2,2c0.3,0,0.5,0,0.7-0.1V12h-5v-11H5.9z M0.9,12.5h5v11.1h-5
	V12.5z M18.7,23.6V12.5h4.9v11.1H18.7z"/>
</svg>
