<?xml version="1.0" encoding="utf-8"?>
<!-- Generator: Adobe Illustrator 17.1.0, SVG Export Plug-In . SVG Version: 6.00 Build 0)  -->
<!DOCTYPE svg PUBLIC "-//W3C//DTD SVG 1.1//EN" "http://www.w3.org/Graphics/SVG/1.1/DTD/svg11.dtd">
<svg version="1.1" xmlns="http://www.w3.org/2000/svg" xmlns:xlink="http://www.w3.org/1999/xlink" x="0px" y="0px"
	 viewBox="0 0 288 288" enable-background="new 0 0 288 288" xml:space="preserve">
<g id="Layer_1" display="none">
	<rect x="0" y="0" display="inline" fill="#BCBEC0" width="288" height="252"/>
</g>
<g id="Layer_2">
	<g>
		<path d="M281.3,79.1L235,44.5l-16.8,12.6L145.2,3.6l-1.5-1.1l-1.5,1.1L69.4,56.8L53,44.5L6.7,79.1l3,4l3.7-2.8v57.2v2.5v110.9
			h73.2h4.6h106h5h72.3V140v-2.5V80.3l3.7,2.8L281.3,79.1z M269.5,122.8l-4.3-4.9V78.2h4.3V122.8z M82.9,73.2H67.8V61.9L82.9,73.2z
			 M237.5,73.2V52.6l7.3,5.5v15H237.5z M232.5,73.2h-7.3v-15l7.3-5.5V73.2z M220.2,61.9v11.3h-15.1L220.2,61.9z M253.5,125.5
			l-3.6-4.1h7.3L253.5,125.5z M250.3,129.4l-6,6.8l-6-6.8l6-6.8L250.3,129.4z M235,125.6l-3.8-4.3h7.6L235,125.6z M231.7,129.4
			l-6,6.8l-6-6.8l6-6.8L231.7,129.4z M216.5,125.5l-3.6-4.1h7.3L216.5,125.5z M207.3,122.6l6,6.8l-6,6.8l-6-6.8L207.3,122.6z
			 M204.8,117.9l-4.3,4.9V78.2h4.3V117.9z M173.1,106.7V73.8h22.4v32.9H173.1z M154.9,106.7h-22.4V73.8h22.4V106.7z M114.3,106.7
			H92.5v-31c0-0.6-0.2-1.2-0.6-1.6v-0.3h22.4V106.7z M110,68.8V57.6c0-4.8,2.9-8.7,6.5-8.7s6.5,3.9,6.5,8.7v11.2h-3.8H110z
			 M96.3,43.9l8.7-6.4v6.4H96.3z M182.3,43.9v-6.4l8.7,6.4H182.3z M159.3,68.8h-13.1V57.6c0-4.8,2.9-8.7,6.5-8.7s6.5,3.9,6.5,8.7
			V68.8z M128.1,57.6c0-4.8,2.9-8.7,6.5-8.7s6.5,3.9,6.5,8.7v11.2h-13.1V57.6z M168.1,43.9h-48.8v-14h48.8V43.9z M177.3,43.9h-4.3
			V30.6l4.3,3.2V43.9z M121.9,24.9l21.7-16.1l21.7,16.1H121.9z M114.3,43.9H110V33.7l4.3-3.2V43.9z M164.3,57.6
			c0-4.8,2.9-8.7,6.5-8.7s6.5,3.9,6.5,8.7v11.2h-9.3h-3.8V57.6z M195.4,68.8h-13.1V57.6c0-4.8,2.9-8.7,6.5-8.7s6.5,3.9,6.5,8.7V68.8
			z M98.5,48.9c3.6,0,6.5,3.9,6.5,8.7v11.2H91.9V57.6C91.9,52.8,94.9,48.9,98.5,48.9z M78.2,116.3H64.8V78.2h13.3V116.3z M62.8,73.2
			h-3h-4.3V52.6l7.3,5.5V73.2z M50.5,73.2h-4.3h-3v-15l7.3-5.5V73.2z M38.1,73.2H23l15.1-11.3V73.2z M41.2,78.2v38.2H27.8V78.2H41.2
			z M32.1,121.3v16.2h-4.3v-16.2H32.1z M37.1,121.3h4v16.2h-4V121.3z M46.2,121.3v-2.5V78.2h4.3v59.3h-4.3V121.3z M55.5,78.2h4.3
			v40.7v2.5v16.2h-4.3V78.2z M64.8,121.3h4v16.2h-4V121.3z M73.8,121.3h4.3v16.2h-4.3V121.3z M83.2,121.3v-2.5V78.2h3.8v33.5v25.8
			h-0.2h-3.5V121.3z M92.5,111.7h8.1v25.8h-8.1V111.7z M105.6,111.7h8.7v25.8h-8.7V111.7z M119.3,111.7v-2.5V73.8h8.2v35.4v2.5v25.8
			h-8.2V111.7z M132.5,111.7h8.7v25.8h-8.7V111.7z M146.2,111.7h8.7v25.8h-8.7V111.7z M159.9,111.7v-2.5V73.8h8.2v35.4v2.5v25.8
			h-8.2V111.7z M173.1,111.7h8.7v25.8h-8.7V111.7z M186.7,111.7h8.7v25.8h-8.7V111.7z M200.5,136l1.3,1.5h-1.3V136z M216.5,133.4
			l3.6,4.1h-7.3L216.5,133.4z M235,133.2l3.8,4.3h-7.6L235,133.2z M253.5,133.4l3.6,4.1h-7.3L253.5,133.4z M256.7,129.4l6-6.8l6,6.8
			l-6,6.8L256.7,129.4z M260.2,116.3h-50.4V78.2h50.4V116.3z M249.9,73.2V61.9L265,73.2H249.9z M200.4,70.4v-1.6V50.3l13.6,10
			L200.4,70.4z M86.9,50.3v18.5v1.1L73.6,60L86.9,50.3z M18.5,78.2h4.3v40.7v2.5v16.2h-4.3V78.2z M86.3,245.9H18.5V142.5h67.8V245.9
			z M197.2,245.9H91.7V142.5h105.5V245.9z M269.5,245.9h-67.3V142.5h67.3V245.9z M268.2,137.5l1.3-1.5v1.5H268.2z"/>
		<path d="M212.3,158.5v21.5v2.5h47.5v-2.5v-21.5V156h-47.5V158.5z M217.3,161h9.2v16.5h-9.2V161z M231.5,161h9.2v16.5h-9.2V161z
			 M254.8,177.6h-9.2V161h9.2V177.6z"/>
		<path d="M212.3,200.3v34.1v1.8h47.5v-1.8v-34.1v-2.5h-47.5V200.3z M217.3,202.8h9.2v28.4h-9.2V202.8z M231.5,202.8h9.2v28.4h-9.2
			V202.8z M254.8,231.2h-9.2v-28.4h9.2V231.2z"/>
		<path d="M186.7,180.1v-21.5V156h-84.4v2.5v21.5v2.5h84.4V180.1z M181.7,177.6h-10.9V161h10.9V177.6z M139.1,161H150v16.5h-10.9
			V161z M134.1,177.6h-10.9V161h10.9V177.6z M155,161h10.9v16.5H155V161z M107.4,161h10.9v16.5h-10.9V161z"/>
		<path d="M76.7,180.1v-21.5V156H29.2v2.5v21.5v2.5h47.5V180.1z M71.7,177.6h-9.2V161h9.2V177.6z M57.6,177.6h-9.2V161h9.2V177.6z
			 M34.2,161h9.2v16.5h-9.2V161z"/>
		<path d="M76.7,233.7v-33.4v-2.5H29.2v2.5v33.4v2.5h47.5V233.7z M71.7,231.2h-9.2v-28.4h9.2V231.2z M57.6,231.2h-9.2v-28.4h9.2
			V231.2z M34.2,202.8h9.2v28.4h-9.2V202.8z"/>
		<path d="M186.7,236.2v-1.8v-34.1v-2.5h-84.4v2.5v34.1v1.8v0.7h84.4V236.2z M155,231.2v-28.4h10.9v28.4H155z M150,231.2h-10.9
			v-28.4H150V231.2z M134.1,231.2h-10.9v-28.4h10.9V231.2z M118.2,231.2h-10.9v-28.4h10.9V231.2z M181.7,231.2h-10.9v-28.4h10.9
			V231.2z"/>
	</g>
</g>
</svg>
