<?xml version="1.0" encoding="utf-8"?>
<!-- Generator: Adobe Illustrator 17.1.0, SVG Export Plug-In . SVG Version: 6.00 Build 0)  -->
<!DOCTYPE svg PUBLIC "-//W3C//DTD SVG 1.1//EN" "http://www.w3.org/Graphics/SVG/1.1/DTD/svg11.dtd">
<svg version="1.1" xmlns="http://www.w3.org/2000/svg" xmlns:xlink="http://www.w3.org/1999/xlink" x="0px" y="0px"
	 viewBox="0 0 288 288" enable-background="new 0 0 288 288" xml:space="preserve">
<g id="Layer_1" display="none">
	<rect x="0" y="0" display="inline" fill="#BCBEC0" width="288" height="252"/>
</g>
<g id="Layer_2">
	<g>
		<path d="M281.9,133c0,3.1-1.7,6-4.8,8.3c-3.3,2.5-7.9,3.8-12.7,3.9c-0.1,0-0.1,0-0.2,0c-0.4,0-0.9,0-1.3,0V0h-5v11h-26.7v5h26.7
			V30h-19.4v5h19.4v13.9h-26.7v5h26.7v13.9h-19.4v5h19.4v13.9h-26.7v5h26.7v13.9h-19.4v5h19.4v13.9h-26.7v5h26.7v14.7
			c-6.4-1.8-11.1-6.2-11.1-11.2l-5,0c0,3-1.7,5.9-4.8,8.2c-3.3,2.4-7.8,3.8-12.7,3.8c-4.8,0-9.3-1.3-12.7-3.7
			c-3.1-2.3-4.9-5.2-4.9-8.3l-5,0c0,6.5-7.8,11.9-17.5,12c-0.1,0-0.1,0-0.2,0c-9.4,0-17.4-5.5-17.5-12l-5,0c0,3-1.7,5.9-4.8,8.2
			c-3.3,2.4-7.8,3.8-12.7,3.8c-0.1,0-0.1,0-0.2,0c-9.4,0-17.4-5.5-17.5-12l-5,0c0,3-1.7,5.9-4.8,8.2c-3.3,2.4-7.8,3.8-12.7,3.8
			c-4.8,0.1-9.3-1.3-12.7-3.7c-3.1-2.3-4.9-5.2-4.9-8.3l-5,0c0,6.5-7.8,11.9-17.5,12c-4.8,0.1-9.3-1.3-12.7-3.7
			c-3.1-2.3-4.9-5.2-4.9-8.3l-5,0c0,6.5-7.8,11.9-17.5,12c-0.1,0-0.1,0-0.2,0c-4.8,0-9.2-1.3-12.5-3.7c-3.1-2.2-4.9-5.1-4.9-8.2
			l-5,0c0,4.7,2.5,9,7,12.2c4.2,3,9.8,4.7,15.7,4.6c8.8-0.1,16.3-3.7,20-9.1c1.1,1.6,2.6,3.1,4.4,4.5c4.2,3.1,9.8,4.7,15.7,4.7
			c8.8-0.1,16.3-3.7,20-9.1c1.1,1.6,2.6,3.1,4.4,4.5c4.2,3.1,9.8,4.7,15.7,4.7c5.9,0,11.4-1.7,15.6-4.8c1.8-1.3,3.3-2.8,4.4-4.4
			c3.8,5.5,11.3,9.2,19.9,9.2c0.1,0,0.1,0,0.2,0c5.9,0,11.4-1.7,15.6-4.8c1.8-1.3,3.3-2.8,4.4-4.4c3.8,5.5,11.3,9.2,19.9,9.2
			c0.1,0,0.1,0,0.2,0c8.8-0.1,16.3-3.7,20-9.1c1.1,1.6,2.6,3.1,4.4,4.5c4.2,3,9.7,4.7,15.5,4.7c0.1,0,0.1,0,0.2,0
			c5.9,0,11.4-1.7,15.6-4.8c1.8-1.3,3.3-2.8,4.4-4.4c3.8,5.5,11.3,9.2,19.9,9.2c0.1,0,0.1,0,0.2,0c5.9,0,11.4-1.8,15.6-4.8
			c4.4-3.3,6.9-7.6,6.8-12.3L281.9,133z"/>
		<path d="M154.1,176.1c3.8,5.5,11.3,9.2,19.9,9.2c0.1,0,0.1,0,0.2,0c12.6-0.1,22.5-7.6,22.4-17l-5,0c0,6.5-7.8,11.9-17.5,12
			c-0.1,0-0.1,0-0.2,0c-9.4,0-17.4-5.5-17.5-12l-5,0c0,3-1.7,5.9-4.8,8.2c-3.3,2.4-7.8,3.8-12.7,3.8c-0.1,0-0.1,0-0.2,0
			c-9.4,0-17.4-5.5-17.5-12l-5,0c0,3-1.7,5.9-4.8,8.2c-3.3,2.4-7.8,3.8-12.7,3.8c-0.1,0-0.1,0-0.2,0c-9.6,0-17.4-5.3-17.4-11.9l-5,0
			c0.1,9.3,10.1,16.8,22.4,16.8c0.1,0,0.2,0,0.2,0c5.9,0,11.4-1.7,15.6-4.8c1.8-1.3,3.3-2.8,4.4-4.4c3.8,5.5,11.4,9.3,20.1,9.2
			c5.9,0,11.4-1.7,15.6-4.8C151.5,179.2,153,177.7,154.1,176.1z"/>
		<path d="M257,211.6c-3.3,2.5-7.8,3.8-12.7,3.9c-0.1,0-0.1,0-0.2,0c-9.4,0-17.4-5.5-17.5-12l-5,0c0,3-1.7,5.9-4.8,8.2
			c-3.3,2.4-7.8,3.8-12.7,3.8c-0.1,0-0.1,0-0.2,0c-9.4,0-17.4-5.5-17.5-12l-5,0c0,3-1.7,5.9-4.8,8.2c-3.3,2.4-7.8,3.8-12.7,3.8
			c-0.1,0-0.1,0-0.2,0c-9.4,0-17.4-5.5-17.5-12l-5,0c0.1,9.4,10.1,17,22.5,17c0.1,0,0.1,0,0.2,0c5.9,0,11.4-1.7,15.6-4.8
			c1.8-1.3,3.3-2.8,4.4-4.4c3.8,5.5,11.3,9.2,19.9,9.2c0.1,0,0.1,0,0.2,0c5.9,0,11.4-1.7,15.6-4.8c1.8-1.3,3.3-2.8,4.4-4.4
			c3.8,5.5,11.3,9.2,19.9,9.2c0.1,0,0.1,0,0.2,0c5.9,0,11.4-1.8,15.6-4.8c4.4-3.3,6.9-7.6,6.8-12.3l-5,0
			C261.8,206.4,260.1,209.3,257,211.6z"/>
	</g>
</g>
</svg>
