<?xml version="1.0" encoding="utf-8"?>
<!-- Generator: Adobe Illustrator 17.1.0, SVG Export Plug-In . SVG Version: 6.00 Build 0)  -->
<!DOCTYPE svg PUBLIC "-//W3C//DTD SVG 1.1//EN" "http://www.w3.org/Graphics/SVG/1.1/DTD/svg11.dtd">
<svg version="1.1" xmlns="http://www.w3.org/2000/svg" xmlns:xlink="http://www.w3.org/1999/xlink" x="0px" y="0px"
	 viewBox="0 0 288 288" enable-background="new 0 0 288 288" xml:space="preserve">
<g id="Layer_1" display="none">
	<rect x="0" display="inline" fill="#BCBEC0" width="288" height="252"/>
</g>
<g id="Layer_2">
	<g>
		<path d="M13.6,251.5h120.2V0.5H13.6V251.5z M18.6,169.5h52.6v77H18.6V169.5z M71.2,164.5H18.6v-77h52.6V164.5z M76.2,87.5h52.6v77
			H76.2V87.5z M76.2,246.5v-77h52.6v77H76.2z M128.8,82.5H76.2v-77h52.6V82.5z M71.2,5.5v77H18.6v-77H71.2z"/>
		<path d="M154.2,0.5v251.1h120.2V0.5H154.2z M269.4,82.5h-52.6v-77h52.6V82.5z M216.8,87.5h52.6v77h-52.6V87.5z M211.8,164.5h-52.6
			v-77h52.6V164.5z M211.8,5.5v77h-52.6v-77H211.8z M159.2,169.5h52.6v77h-52.6V169.5z M216.8,246.5v-77h52.6v77H216.8z"/>
	</g>
</g>
</svg>
