<?xml version="1.0" encoding="utf-8"?>
<!-- Generator: Adobe Illustrator 17.1.0, SVG Export Plug-In . SVG Version: 6.00 Build 0)  -->
<!DOCTYPE svg PUBLIC "-//W3C//DTD SVG 1.1//EN" "http://www.w3.org/Graphics/SVG/1.1/DTD/svg11.dtd">
<svg version="1.1" xmlns="http://www.w3.org/2000/svg" xmlns:xlink="http://www.w3.org/1999/xlink" x="0px" y="0px"
	 viewBox="0 0 288 288" enable-background="new 0 0 288 288" xml:space="preserve">
<g id="Layer_1" display="none">
	<rect x="0" y="0" display="inline" fill="#BCBEC0" width="288" height="252"/>
</g>
<g id="Layer_2">
	<g>
		<path d="M188,164c4.7,0,8.3-3.7,10.3-6.5c1.7,1.4,3.7,2.4,6.2,2.4c7.5,0,12.1-9.2,12.2-9.6l-4.5-2.2c-0.9,1.8-4.1,6.8-7.8,6.8
			c-4.1,0-6.7-6.5-6.7-6.5l-4.7,1.7c0.1,0.2,0.6,1.7,1.8,3.5c-1.4,2.2-4.1,5.4-7,5.4c-2.8,0-4.8-2.9-5.9-4.8
			c1.5-1.9,2.4-3.6,2.5-3.8l-4.5-2.2c-0.9,1.8-4.1,6.8-7.8,6.8c-4.1,0-6.7-6.5-6.7-6.5l-4.7,1.7c0.1,0.4,3.7,9.8,11.4,9.8
			c2.3,0,4.4-0.9,6.1-2.1C180.3,160.6,183.4,164,188,164z"/>
		<path d="M207.1,189.1c-2.8,0-4.8-2.9-5.9-4.8c1.5-1.9,2.4-3.6,2.5-3.8l-4.5-2.2c-0.9,1.8-4.1,6.8-7.8,6.8c-4.1,0-6.7-6.5-6.7-6.5
			l-4.7,1.7c0.1,0.4,3.7,9.8,11.4,9.8c2.3,0,4.4-0.9,6.1-2.1c1.8,2.8,4.9,6.2,9.5,6.2c7.5,0,12.1-9.2,12.2-9.6l-4.5-2.2
			C214,184.1,210.7,189.1,207.1,189.1z"/>
		<path d="M237,144.9c-4.1-19-16.9-33.2-21.5-37.7c1.8-3.1,2.3-6.8,0.3-11.3c-0.5-1.3-1.4-2.4-2.4-3.8c-3.3-4.5-7.9-10.7-3.5-25
			c4.4-14.3,4.2-36.2-6.3-50.4c-7.1-9.6-17.7-14.4-31.5-14.4c-37.5,0-47.6,19-49.3,22.8c-6.7,5.9-7,11.1-7.1,14.2
			c0,0.6-0.1,1.3-0.2,1.6c-0.7,0.5-2.8,1.3-4.4,1.9c-6.5,2.5-15.3,6-14,12.8c1.1,5.9,3.5,12.8,6.9,14.8c0.7,0.4,1.4,0.6,2.3,0.6
			c3.1,0,6.4-2.9,7.6-4.6c0.7-0.6,3.9-2.1,6.3-2.1c0.4,0,0.7,0.1,0.7,0.1c0.7,0.7,1.9,3.6,1.5,5.8c-0.2,1.2-0.8,1.4-1.1,1.5
			c-1.1,0.4-2.6,0.6-4.5,0.6c-0.8,0-1.5,0-2.2-0.1c-0.7,0-1.3-0.1-1.8-0.1c-1,0-3,0-4.2,1.5c-1.8,2.2-3,12.9,0.8,16.5
			c1.5,1.4,4.1,2,8.1,2c0,0,0,0,0,0c1.9,0,4-0.2,6.2-0.4c0.7,0.1,2.2,0.6,2.7,1.4c0.4,0.7,0.1,1.9-0.2,2.7c-0.5,1.2-1.3,2.8-2.2,4.6
			c-1.3,2.7-2.9,5.9-4.2,9.2c-2.9-1.9-6.2-2.8-9.7-3.5c-6.6-1.4-11.7,0-14.6,1.2c-2.2-3.8-5.4-6.4-9.4-7.8
			c-10.4-3.7-23.4,2.1-27.1,3.9c-3.4,1.7-12.2,7.4-11.5,13c0.2,1.8,1.4,4.1,6,5.1c4.8,1,11,5,15.5,8.4c-5.8,1-9.8,5-13.1,8.4
			c-1.9,2-2.5,4.4-1.5,6.4c1.6,3.3,6.3,4.5,15,3.9c5-0.4,11.5,3,17.4,9c7.5,7.6,14.9,20.9,13.5,35.2c-1.4,14,3,27.9,12.2,38
			c12,13.3,31.9,20.3,57.5,20.3c24.4,0,42.9-7.5,54.8-22.3c9.1-11.2,14.3-26.4,15.4-45.1C241.1,167.3,238.6,152.3,237,144.9z
			 M117.4,87.3c-3.1,0-4.4-0.5-4.6-0.7c-0.9-0.8-1.3-6.5-0.4-9.3c0.5,0,1.3,0,2.1,0c0.8,0,1.6,0.1,2.4,0.1c1.6,0,4-0.1,6.3-1
			c2.2-0.9,3.7-2.7,4.2-5.3c0.7-3.9-1.1-8.7-3.2-10.5c-1-0.8-2.3-1.3-4-1.3c-3.4,0-8.9,1.9-10.4,4.2c-0.6,1-2.5,2.3-3.3,2.4
			c-0.8-0.7-3-4.2-4.4-11.3c-0.5-2.7,6.9-5.7,10.9-7.2c3.9-1.5,5.8-2.3,6.7-3.7c0.9-1.3,0.9-2.7,1-4.2c0.2-2.8,0.4-6.4,5.9-11.1
			c4.2-3.6,10.9-5.8,17.4-5.8c5.5,0,10.1,1.6,12.7,4.3c6.2,6.7,11.3,24,4.7,39C155.1,79.9,129.4,87.3,117.4,87.3z M128.4,102.8
			c1-1.9,1.8-3.6,2.4-5c1.4-3.4,0.7-5.8-0.2-7.1c0,0,0-0.1-0.1-0.1c4.4-1,9-2.5,13.2-4.2c7.8-3.3,18-9.2,22.2-18.5
			c7.1-16.1,2.6-35.6-5.6-44.4c-3.6-3.8-9.4-5.9-16.3-5.9c-3.7,0-7.4,0.6-10.7,1.7c6-5.6,17.5-12,38.9-12c12.2,0,21.4,4.2,27.5,12.4
			c10.2,13.8,8.9,35,5.6,46c-5.1,16.7,0.8,24.7,4.3,29.4c0.8,1.1,1.5,2.1,1.8,2.8c1.6,3.8,2.2,8-9.2,14.2c-3.2,1.8-5.3,1.7-6.4,1.5
			c0.2-2.8-0.6-5.4-2.5-7.5c-7.2-7.9-11.9-30.8-11.9-31l-4.9,1c0.2,1,5,24.5,13.1,33.4c1.1,1.2,1.5,2.7,1.2,4.5
			c-0.7,3.8-4.5,7.6-6.9,8.8c-0.4,0.2-0.8,0.4-1.3,0.6c-8.1,4-17.7,7.6-21.9,1.5c0.5-2.6-0.7-5-1.8-7.1c-1.7-3.2-3.4-6.4-1.8-11.6
			c3.1-10.1,0.4-14.6-1-16.7c-0.1-0.2-0.3-0.5-0.4-0.6c0,0,0,0.1,0.1,0.2l-4.9,0.8c0.1,0.9,0.6,1.5,1,2.2c1.1,1.8,2.9,4.7,0.5,12.6
			c-2.2,7.1,0.3,11.9,2.1,15.3c1.6,3.1,1.7,3.7,0.9,4.7c-3,3.3-17,8.2-25.9,5.4c-0.6-8-2.6-13.2-5.3-16.6
			C125,109.7,126.9,105.9,128.4,102.8z M235,183.8c-1.1,17.6-5.9,31.8-14.3,42.2c-11,13.6-28.1,20.4-50.9,20.4
			c-24.1,0-42.8-6.5-53.8-18.7c-8.2-9.1-12.2-21.5-10.9-34.2c1.6-16-6.6-30.7-14.9-39.2c-7-7.2-14.8-11-21.3-10.5
			c-7.9,0.6-9.7-0.7-10-1c0-0.2,0.2-0.5,0.6-0.9c5.3-5.4,9-8.6,16.4-6.5c5.1,3.1,18,11.8,20.7,17.8l4.6-2.1
			c-3.8-8.4-20.1-18.5-22.8-20.1c-1.7-1.5-14.4-12.3-23.8-14.4c-1.5-0.3-2-0.8-2.1-0.9c-0.2-1.1,3.4-5.2,8.8-7.9
			c2.3-1.2,14.4-6.8,23.2-3.7c3,1.1,5.4,3.1,7,6.1c-2.2,2.7-4.8,6.6-4.1,9.4c0.3,1.3,1.3,2.3,2.6,2.7c2.6,0.9,13.9,13.2,15.5,27.3
			l5-0.6c-1.7-14.9-12.9-28.4-18-31.2c0.5-1.2,2-3.5,3.7-5.4c1-0.6,5.8-3.1,13-1.6c8.2,1.7,17.6,3.6,14.8,35.1l-0.3,3.7l3.6-1.1
			c0,0,1.4-0.4,2.4,0.2c0.6,0.4,1.1,1.1,1.3,2.3c0.4,2.1-1.1,7-2.8,12.2c-2.4,7.5-5.3,16.8-5.6,26.5c-0.2,7.9,8.5,19.6,18.9,25.6
			c8.9,5.1,17.8,5.3,25.1,0.7c4.8-3,7.8-7.6,8.6-13.3c0.9-6.9-1.5-14.7-6.3-20c-4.3-4.7-9.7-6.5-15.5-8.3
			c-6.8-2.2-13.9-4.5-19.8-12.1c1.7-5.3,2.7-9.3,2.1-12.3c-0.7-3.2-2.4-4.8-3.7-5.6c-1-0.6-2-0.9-3-1c0.2-3.1,0.3-6,0.3-8.6
			c1.9,0.4,3.8,0.6,5.9,0.6c8.7,0,18-3.3,22.3-6.7c2.6,2.9,6.1,4,9.7,4c6.6,0,13.8-3.5,17.4-5.3c0.5-0.2,0.9-0.4,1.2-0.6
			c3.1-1.4,6.6-4.9,8.5-8.9c0.7,0.2,1.6,0.3,2.6,0.3c2,0,4.5-0.5,7.6-2.2c2.8-1.5,5.6-3.3,7.9-5.4c4.4,4.5,16.1,17.7,19.8,34.8
			C233.3,151.7,236.1,166.9,235,183.8z M131.8,168.3c6.3,6.8,13.5,9.2,20,11.2c5.3,1.7,9.9,3.2,13.3,6.9c3.8,4.1,5.8,10.5,5,15.9
			c-0.4,2.9-1.8,6.9-6.3,9.7c-7.3,4.6-14.9,2.1-20-0.8c-9.4-5.4-16.5-15.8-16.4-21.1C127.6,182.5,129.7,174.9,131.8,168.3z"/>
		<path d="M178.3,16.1c-1.1-4-4.4-6.5-8.4-6.5c-4.1,0-8.6,2.9-9.1,8.4l-0.1,1.1l0.8,0.8c2.3,2.4,6.1,7,6.8,9.3l0.9,3.3l2.8-1.9
			C172.4,30.3,180.7,24.8,178.3,16.1z M166,17.3c0.6-1.9,2.3-2.8,3.9-2.8c0.8,0,2.9,0.3,3.6,2.8c0.8,3-0.6,5.4-2,7
			C169.8,21.6,167.4,18.8,166,17.3z"/>
	</g>
</g>
</svg>
