<?xml version="1.0" encoding="utf-8"?>
<!-- Generator: Adobe Illustrator 17.1.0, SVG Export Plug-In . SVG Version: 6.00 Build 0)  -->
<!DOCTYPE svg PUBLIC "-//W3C//DTD SVG 1.1//EN" "http://www.w3.org/Graphics/SVG/1.1/DTD/svg11.dtd">
<svg version="1.1" xmlns="http://www.w3.org/2000/svg" xmlns:xlink="http://www.w3.org/1999/xlink" x="0px" y="0px"
	 viewBox="0 0 288 288" enable-background="new 0 0 288 288" xml:space="preserve">
<g id="Layer_1" display="none">
	<rect y="0" display="inline" fill="#BCBEC0" width="288" height="252"/>
</g>
<g id="Layer_2">
	<g>
		<rect y="38.5" width="288" height="5"/>
		<path d="M201,162.1c0,5.8,4.7,10.5,10.5,10.5s10.5-4.7,10.5-10.5s-4.7-10.5-10.5-10.5S201,156.3,201,162.1z M217.1,162.1
			c0,3.1-2.5,5.5-5.5,5.5c-3.1,0-5.5-2.5-5.5-5.5c0-3.1,2.5-5.5,5.5-5.5C214.6,156.6,217.1,159.1,217.1,162.1z"/>
		<path d="M258.4,162.1c0,5.8,4.7,10.5,10.5,10.5s10.5-4.7,10.5-10.5s-4.7-10.5-10.5-10.5S258.4,156.3,258.4,162.1z M274.5,162.1
			c0,3.1-2.5,5.5-5.5,5.5c-3.1,0-5.5-2.5-5.5-5.5c0-3.1,2.5-5.5,5.5-5.5C272,156.6,274.5,159.1,274.5,162.1z"/>
		<path d="M70.7,78.3c0-5.8-4.7-10.5-10.5-10.5s-10.5,4.7-10.5,10.5s4.7,10.5,10.5,10.5S70.7,84.1,70.7,78.3z M54.7,78.3
			c0-3.1,2.5-5.5,5.5-5.5c3.1,0,5.5,2.5,5.5,5.5c0,3.1-2.5,5.5-5.5,5.5C57.1,83.8,54.7,81.3,54.7,78.3z"/>
		<path d="M147.9,78.3c0-5.8-4.7-10.5-10.5-10.5s-10.5,4.7-10.5,10.5s4.7,10.5,10.5,10.5S147.9,84.1,147.9,78.3z M131.8,78.3
			c0-3.1,2.5-5.5,5.5-5.5c3.1,0,5.5,2.5,5.5,5.5c0,3.1-2.5,5.5-5.5,5.5C134.3,83.8,131.8,81.3,131.8,78.3z"/>
		<path d="M225,78.3c0-5.8-4.7-10.5-10.5-10.5s-10.5,4.7-10.5,10.5s4.7,10.5,10.5,10.5S225,84.1,225,78.3z M208.9,78.3
			c0-3.1,2.5-5.5,5.5-5.5s5.5,2.5,5.5,5.5c0,3.1-2.5,5.5-5.5,5.5S208.9,81.3,208.9,78.3z"/>
		<path d="M273.6,73.6c0-5.8-4.7-10.5-10.5-10.5s-10.5,4.7-10.5,10.5s4.7,10.5,10.5,10.5S273.6,79.4,273.6,73.6z M257.5,73.6
			c0-3.1,2.5-5.5,5.5-5.5c3.1,0,5.5,2.5,5.5,5.5c0,3.1-2.5,5.5-5.5,5.5C260,79.1,257.5,76.6,257.5,73.6z"/>
		<path d="M269.7,106.2h3.9V95.3l4.2,9.6l4.4-2.4l-8.6-17.7h-21.1L245,105l4.6,1.9l2.9-9v8.3h4V126H228l-8.6-6.4v-8.7h3.6v0l6.7,0
			V84.7h-5v21.2l-1.7,0V89.5h-19.1l-15.6,8.2h-14.8l2-4.6l0.4,2.3l4.9-1l-5.5-28.1l-4.9,1l3.3,17.1l-5.8,13.3h-2.5V126h-14.7
			l-8.6-6.4v-8.7h3.6v0l6.7,0V84.7h-5v21.2l-1.7,0V89.5h-19.1l-15.6,8.2H96.4l2-4.6l0.4,2.3l4.9-1l-5.5-28.1l-4.9,1l3.3,17.1
			l-5.8,13.3h-2.5V126H73.8l-8.6-6.4v-8.7h3.6v0l6.7,0V84.7h-5v21.2l-1.7,0V89.5H49.7l-15.6,8.2H19.3l2-4.6l0.4,2.3l4.9-1l-5.5-28.1
			l-4.9,1l3.3,17.1l-5.8,13.3h-2.5V126H0v5h11.3v0.1h31.2V131h2.4l-0.1,0.1h35.9l-0.1-0.1h8v0.1h31.2V131h2.4l-0.1,0.1h35.9
			l-0.1-0.1h8v0.1h30.3l0,16.8l-22,0l0.1,21.9l-21.8-0.1v21.9h-21.9v21.9H75.8l-10.6-7.9v-8.7h3.6v0l6.7,0v-26.2h-5v21.2l-1.7,0
			v-16.3H49.7l-15.6,8.2H19.3l2-4.6l0.4,2.3l4.9-1l-5.5-28.1l-4.9,1l3.3,17.1l-5.8,13.3h-2.5v29.8H0v5h288v-5h-12.5v-18.8h3.9v-8.7
			l3.2,9.4l4.6-2l-7.8-20.1h-21.1l-5,11.7v-11.7h-16.8v21.4h16.8l5-11.7v11.7h4v18.8h-44.2v-18.8h4v-15.2l8.8,7.6l2.9-4l-11.8-9.8
			H201l-7.5,20.1l4.6,1.9l2.9-9v8.3h3.9v18.8h-69.8v-16.9H157v-21.9l21.8,0.1l-0.1-21.9l22,0l0-21.8h34l-0.1-0.1H288v-5h-18.3V106.2
			z M59.9,126l2.8-2.1l2.8,2.1H59.9z M63.8,94.5v11.3l-9.1,0V94.5H63.8z M49.7,106.3c-0.6,0.2-1.2,0.6-1.9,1.1
			c-2.7,2.2-4.5,6.5-5.3,12.9v-21l7.2-4.3V106.3z M16.3,102.7h21.2V126H16.3V102.7z M47,126c0.4-10.2,2.6-13.5,3.6-14.5
			c0.4-0.4,0.8-0.6,1-0.6h8.5v8.7l-8.6,6.4H47z M137,126l2.8-2.1l2.8,2.1H137z M140.9,94.5v11.3l-9.1,0V94.5H140.9z M126.8,106.3
			c-0.6,0.2-1.2,0.6-1.9,1.1c-2.7,2.2-4.5,6.5-5.3,12.9v-21l7.2-4.3V106.3z M93.4,102.7h21.2V126H93.4V102.7z M124.1,126
			c0.4-10.2,2.6-13.5,3.6-14.5c0.4-0.4,0.8-0.6,1-0.6h8.5v8.7l-8.6,6.4H124.1z M248.4,189.7h-6.8v-11.4h6.8V189.7z M59.8,212.1
			l2.9-2.1l2.9,2.1H59.8z M60.1,205.6l-10.6,7.9H47c0.2-11.4,2.6-15,3.7-16c0.4-0.4,0.8-0.6,1-0.6h8.5V205.6z M63.8,180.6v11.3
			l-9.1,0v-11.3H63.8z M49.7,192.3c-0.6,0.2-1.2,0.6-1.9,1.1c-2.7,2.2-4.5,6.5-5.3,12.9v-21l7.2-4.3V192.3z M16.3,188.7h21.2v23.4
			H16.3V188.7z M263.4,178.4h11.1v11.4h-11.1V178.4z M267.3,194.7h3.2v18.8h-3.2V194.7z M206,178.4h11.1v11.4H206V178.4z M210,194.7
			h3.2v18.8H210V194.7z M214.1,126l2.8-2.1l2.8,2.1H214.1z M214.4,119.6l-8.6,6.4h-4.5c0.4-10.2,2.6-13.5,3.6-14.5
			c0.4-0.4,0.8-0.6,1-0.6h8.5V119.6z M218,94.5v11.3l-9.1,0V94.5H218z M203.9,106.3c-0.6,0.2-1.2,0.6-1.9,1.1
			c-2.7,2.2-4.5,6.5-5.3,12.9v-21l7.2-4.3V106.3z M170.5,102.7h21.2V126h-21.2V102.7z M257.5,89.8h11.1v11.4h-11.1V89.8z
			 M261.5,106.2h3.2V126h-3.2V106.2z"/>
		<path d="M70.7,164.3c0-5.8-4.7-10.5-10.5-10.5s-10.5,4.7-10.5,10.5s4.7,10.5,10.5,10.5S70.7,170.1,70.7,164.3z M54.7,164.3
			c0-3.1,2.5-5.5,5.5-5.5c3.1,0,5.5,2.5,5.5,5.5c0,3.1-2.5,5.5-5.5,5.5C57.1,169.9,54.7,167.4,54.7,164.3z"/>
	</g>
</g>
</svg>
