<?xml version="1.0" encoding="utf-8"?>
<!-- Generator: Adobe Illustrator 17.1.0, SVG Export Plug-In . SVG Version: 6.00 Build 0)  -->
<!DOCTYPE svg PUBLIC "-//W3C//DTD SVG 1.1//EN" "http://www.w3.org/Graphics/SVG/1.1/DTD/svg11.dtd">
<svg version="1.1" xmlns="http://www.w3.org/2000/svg" xmlns:xlink="http://www.w3.org/1999/xlink" x="0px" y="0px"
	 viewBox="0 0 288 288" enable-background="new 0 0 288 288" xml:space="preserve">
<g id="Layer_1" display="none">
	<rect y="0" display="inline" fill="#BCBEC0" width="288" height="252"/>
</g>
<g id="Layer_2">
	<path d="M285.1,247c-0.1-0.2-11.6-17.4-15.8-25.9c-3.2-6.5-2.8-32.9-2.3-43.5c9-12.6,18.5-33.8,18.5-56.5
		c0-20.9-6.3-38.9-18.1-51.8c-11.3-12.3-26.9-19.1-44-19.1c-34.1,0-57.6,22.6-61.4,59.2c-0.4,6.9-4.3,12.4-7.3,16.8
		c-2.5,3.6-4.4,6.4-4.4,9.4c0,11.2,8.7,12.7,14.9,13.1c0.9,3,2.5,7.7,3,9.3l0.7,1.9l19.6-2.4L173.8,173l0.4,1.4
		c0.6,2.1,6,21,14.5,24.4c2.4,1,5.8,1.4,10.2,1.4c5.6,0,11.5-0.7,14.6-1.2c1.2,5.1,3.4,18.2-5,21c-14,4.7-27.5,19.4-28.7,28.2
		l-0.4,2.8H283h4.7L285.1,247z M185.6,245.9c3.1-7,13.4-17.6,24.4-21.3c4.5-1.5,9.8-5.7,9.6-17.1c-0.1-6.3-1.9-11.9-2-12.2l-0.7-2.1
		l-2.2,0.4c-0.1,0-8.5,1.5-16,1.5c-4.7,0-7.2-0.6-8.4-1.1c-4.4-1.7-8.9-12.4-11.1-19.7l22.4-23.5l-29.4,3.6c-1-2.9-2.4-7.3-2.8-8.8
		l-0.5-1.8l-1.8-0.1c-8.4-0.4-12-1.7-12-8.2c0-1.4,1.7-3.9,3.5-6.5c3.2-4.7,7.7-11.1,8.2-19.3c3.5-33.7,25.1-54.6,56.4-54.6
		c33.6,0,57,27.1,57,65.9c0,18-7.1,39.3-18,54.2l-0.4,0.6l0,0.8c-0.2,3.8-1.7,37.7,2.8,46.7c3.1,6.3,9.8,16.9,13.5,22.5H185.6z"/>
	<path d="M133.4,101.1c0-32.9-29.8-59.7-66.5-59.7S0.5,68.2,0.5,101.1c0,32.9,29.8,59.7,66.5,59.7c13.1,0,25.7-3.4,36.6-9.8
		l53.3,8.9l-32.9-28C130.2,122.7,133.4,112.1,133.4,101.1z M139.8,152l-37.2-6.3l-0.8,0.5c-10.3,6.3-22.3,9.6-34.8,9.6
		c-33.9,0-61.5-24.6-61.5-54.7S33.1,46.4,67,46.4s61.5,24.6,61.5,54.7c0,10.6-3.4,20.9-9.9,29.8l-1.4,1.9L139.8,152z"/>
	<rect x="28.7" y="82.2" width="77.5" height="5"/>
	<rect x="19.7" y="100.8" width="95.5" height="5"/>
	<rect x="28.7" y="119.3" width="77.5" height="5"/>
</g>
</svg>
