<?xml version="1.0" encoding="utf-8"?>
<!-- Generator: Adobe Illustrator 17.1.0, SVG Export Plug-In . SVG Version: 6.00 Build 0)  -->
<!DOCTYPE svg PUBLIC "-//W3C//DTD SVG 1.1//EN" "http://www.w3.org/Graphics/SVG/1.1/DTD/svg11.dtd">
<svg version="1.1" xmlns="http://www.w3.org/2000/svg" xmlns:xlink="http://www.w3.org/1999/xlink" x="0px" y="0px"
	 viewBox="0 0 288 288" enable-background="new 0 0 288 288" xml:space="preserve">
<g id="Layer_1" display="none">
	<rect x="0" y="0" display="inline" fill="#BCBEC0" width="288" height="252"/>
</g>
<g id="Layer_2">
	<path d="M182.4,13C173.6,4.7,160,0.5,141.8,0.5c-16.5,0-23.9,14.2-29.3,24.5c-1.5,2.9-3,5.7-4.5,7.9c-1.9,2.7-4.2,5-6.7,7.4
		c-6.1,5.9-13.1,12.7-13.1,28.1c0,11.2-2,19.4-3.8,26.6c-1.4,5.6-2.6,10.5-2.6,15.8c0,6.2,4.6,13.6,9.2,15.7v30.3
		c0,10.4,0,29.9,13.5,29.9h21.9v52c0,5.4,2.9,9.5,8.1,11.6c3.7,1.5,7.3,1.5,7.5,1.5c0,0,0,0,0,0c0,0,0,0,0,0c0.2,0,3.8,0,7.5-1.5
		c5.2-2.1,8.1-6.2,8.1-11.6v-52h21.9c13.5,0,13.5-19.4,13.5-29.9V39.8C193,28.9,189.3,19.7,182.4,13z M152.6,238.5
		c0,3.3-1.6,5.6-4.9,6.9c-2.8,1.2-5.7,1.2-5.7,1.2c0,0-2.9,0-5.7-1.2c-3.3-1.4-4.9-3.6-4.9-6.9v-52h21.2V238.5z M188,156.7
		c0,12.9-1,24.9-8.5,24.9h-75c-7.5,0-8.5-11.9-8.5-24.9v-29.9c1.2-0.3,2.7-0.8,4.2-2c3.3-2.6,5.3-7.1,5.9-13.5
		c0.4-4.5,0.3-9.4,0.2-14.1c-0.2-7.1-0.4-15.1,1.9-17.4c0.3-0.3,0.8-0.7,1.8-0.7c0,0,0.3,0.2,0.5,0.6c0.7,1.3,1.1,4.1-0.2,8.1
		c-1.3,4.2-0.8,8.1,1.3,11c1.9,2.6,5.1,4.2,8.4,4.2l0.3,0c0.4-0.1,4.2-0.6,6.7-3.9c1.8-2.4,2.4-5.4,1.9-9.1
		c-1.4-9.5-0.7-20.8,1.7-27.5l-4.7-1.7c-3.2,8.7-3.3,21.3-2,29.9c0.3,2.3,0,4-0.9,5.3c-1.1,1.4-2.8,1.9-3.3,2
		c-1.7-0.1-3.3-0.9-4.2-2.2c-1.2-1.6-1.4-4-0.6-6.6c1.6-5.3,1.4-9.9-0.7-12.8c-1.1-1.5-2.7-2.4-4.4-2.4c-2.2,0-4,0.7-5.4,2.2
		c-3.8,3.9-3.6,11.8-3.3,21c0.1,4.6,0.2,9.3-0.2,13.6c-0.5,4.8-1.8,8.2-3.9,9.9c-1.1,0.9-2.2,1.1-2.8,1.2l-0.9,0
		c-1.5,0-6.7-5.6-6.7-11.3c0-4.6,1.1-9.2,2.5-14.6c1.9-7.5,4-15.9,4-27.8c0-13.3,5.6-18.7,11.6-24.5c2.5-2.5,5.2-5,7.3-8.2
		c1.6-2.4,3.2-5.3,4.8-8.4c5.4-10.2,11.4-21.8,24.9-21.8C159,5.5,188,10,188,39.8V156.7z"/>
</g>
</svg>
