<?xml version="1.0" encoding="utf-8"?>
<!-- Generator: Adobe Illustrator 17.1.0, SVG Export Plug-In . SVG Version: 6.00 Build 0)  -->
<!DOCTYPE svg PUBLIC "-//W3C//DTD SVG 1.1//EN" "http://www.w3.org/Graphics/SVG/1.1/DTD/svg11.dtd">
<svg version="1.1" xmlns="http://www.w3.org/2000/svg" xmlns:xlink="http://www.w3.org/1999/xlink" x="0px" y="0px"
	 viewBox="0 0 288 288" enable-background="new 0 0 288 288" xml:space="preserve">
<g id="Layer_1" display="none">
	<rect x="0" display="inline" fill="#BCBEC0" width="288" height="252"/>
</g>
<g id="Layer_2">
	<path d="M144,0.2C74.6,0.2,18.2,56.6,18.2,126S74.6,251.8,144,251.8S269.8,195.4,269.8,126S213.4,0.2,144,0.2z M252.5,142.4
		c0.2,1.5,0.3,2.7-0.1,4.3c-0.8,2.8-5.1,10.5-6.8,12.5l-0.2,0.3c-2.4,2.7-5.6,6.4-4.8,10.3c0.6,2.8,0.6,11.7-2.7,15.2
		c-4.2,4.5-8.1,11.7-9,16.9c-0.6,3.2-7.8,9.2-11.3,10.4c-1.1,0.4-2.1,1-3.1,1.6c-1,0.5-2.7,1.5-3.2,1.5c0,0-0.7-0.5-1-3.5
		c-0.4-3.5-0.9-7.2-1.4-10.9c-0.9-6.8-1.8-13.2-1.7-16.5l0.3-5.3v-0.3c0-0.2-0.3-5.4-2-11.7c-0.4-1.6-0.7-3.2-0.9-4.7
		c-0.6-4.3-1.3-9.1-6.9-10.3c-2.8-0.6-6.1,0.2-9.3,0.9c-3.4,0.8-7.3,1.6-9,0.4c-0.4-0.3-0.9-0.6-1.3-1c-4-2.9-9.4-7-9.4-11
		c0-5.7,1.4-14.5,2.9-18.9c0.6-1.8,1.3-2.3,2.2-3.1c1.1-0.9,2.4-2.1,3.6-4.8c1.6-3.6,6.6-7.7,11.7-9.6c0.5-0.2,1.1-0.4,1.6-0.6
		c2.9-1.1,9-3.4,10.7-2.5c0.1,0,0.1,0,0.1,0.2c1.6,5.1,9.7,12.2,14.4,11.2c1.2-0.2,5.7,0.3,8.7,0.6c3.7,0.4,5.9,0.7,7.1,0.5
		c2.4-0.3,5.3-2.2,6-4.7c0.5-1.9-0.2-3.8-2-5.2c-1.7-1.3-3.8-2.3-5.7-3.1c-1.1-0.5-2.7-1.2-3-1.5c-1.4-2.1-4.9-3.5-11.4-6l-1.5-0.6
		c-0.2-0.1-19.8-6.6-24-2.5c-2.1,2.1-7.1,5.5-9.2,6.2c-0.7-1.4-1.1-4.9-0.7-6.4c2.5-0.1,5.1-0.5,6.5-2.5c0.6-0.9,1.2-2.5,0.2-4.9
		c-0.2-0.5-0.4-1-0.6-1.5c-1.1-2.7-2-5-4.7-7.1c-0.7-0.6-2-1.8-2.2-3.2c-0.1-1,0.4-2.2,1.4-3.4c1.2-1.4,2.4-3,3.5-4.6
		c0.4-0.5,0.8-1.1,1.2-1.6c1.2,10.3,2.1,14.8,5.7,14.8c1.7,0,9-1.3,11.3-5c0.9-1.5,1-3.2,0.2-4.7c-0.6-1.3-1.6-2.6-2.5-3.9
		c-1.4-2-3.4-4.8-2.6-5.8c1-1.2,2.9-2.9,4.7-4.5c3.7-3.3,6-5.5,6.7-7.5c0.6-1.4,6-4.8,7.8-5c1.6,0.2,9.1,3.1,11.7,4.9
		c0.6,0.4,1.2,0.9,1.9,1.5c2.1,1.7,5,4,7.5,3.4c15.8,19.5,25.7,43.9,26.9,70.6c-0.7,0.6-1.1,1.2-1.3,1.7c-0.5,1.3-0.9,2.5-1.1,3.6
		c-0.5,1.9-0.9,3.3-2.2,4.5c-0.7,0.6-1.6,1.3-2.4,1.9c-2.5,1.9-5.4,4-5.4,7.2C252.3,140.6,252.4,141.5,252.5,142.4z M160.3,6.3
		c-4.9-0.1-13.9,0.6-22,1.3c-5,0.4-9.8,0.8-11.6,0.8c-1.7,0-3.8-0.4-5.9-0.9c7.5-1.5,15.3-2.3,23.2-2.3
		C149.5,5.2,154.9,5.5,160.3,6.3z M91.8,17c3-0.8,6.2-1.9,9.3-3c3.5-1.2,6.9-2.4,9.2-2.8c2.2-0.4,5.5,0.3,8.6,0.9
		c2.6,0.6,5.3,1.1,7.7,1.1c2,0,6.6-0.4,12-0.8c8.5-0.7,19-1.5,22.8-1.2c5.1,0.4,7.6,1.7,8.1,2.3c-0.2,0.6-0.6,1.3-1.1,2
		c-1.1,1.7-2.4,3.8-2.8,7.5c-0.2,2.1-1.2,4.2-2.2,6.2c-1.1,2.5-2.2,4.8-2,7.1c-0.3,0.8-3.8,2-5.6,2.6c-1.2,0.4-2.4,0.8-3.5,1.3
		c-1.3,0.5-2.6,0.9-3.8,1.3c-3.2,1-6.2,2-8.8,4.9c-0.8,0.9-1.6,1.9-2.4,2.9c-1.4,1.7-3.8,4.8-5.3,5.8c-1.6-2.4-4-10.8-3.8-14.8
		c0.3-5.2-1-12.5-4.6-16.4c-1.7-1.9-4.7-3-7.6-4.1c-1.5-0.6-4.1-1.6-4.6-2.2c-0.5-1.3-1.6-2.1-2.9-2.2c-3.9-0.3-8.6,7.4-10,9.8
		c-1,1.7-0.9,3.2-0.6,4.2c0.8,2.8,3.6,4.4,6.4,6c0.9,0.5,1.8,1,2.6,1.6c2.7,1.9,3.6,5.3,2.6,7.1c-1.5,2.7-2.3,3.7-2.7,4.1
		c-1.1-0.5-2.9-1.8-3.9-2.7c0.2-0.5,0.2-1,0.2-1.5c-0.5-3.5-7.2-5.7-8.5-6.1c-1.7-0.5-3-0.1-3.8,0.4c-2.2,1.3-2.7,4.3-3.2,7.1
		c-0.2,1-0.4,2-0.6,2.7c-0.9,0.2-3.9-0.8-5.4-2.3c-0.9-0.9-2.1-1.2-3.3-0.9c-4.5,1.2-8.4,13.4-8.5,13.5c-0.8,2.9,2.2,4.7,5.3,6.6
		c1,0.6,2.7,1.6,3.2,2.1c0.7,2.1,3.1,5.2,6,5.9c1.7,0.4,3.3-0.1,4.4-1.4c0.3-0.4,0.7-0.7,1-1.1c2-2.1,4.7-5,4.4-8.9
		c-0.2-2.2,0.8-4,2.2-6.5c0.1-0.1,0.1-0.2,0.2-0.3c1,0.8,2.6,2.6,3.3,4c1.9,3.7,7.5,2.4,11.1,1.5c0,0,0.1,0,0.1,0
		c0.5,1,1.2,3.2,1.6,4.8c0.5,1.8,1.1,3.9,1.9,5.9c0.8,2,1.8,3.8,2.6,5.5c0.9,1.7,2.2,4.3,2.3,5.3c-1-0.1-3.2-1.3-4.6-2.9
		c-2.2-2.8-6-4-8.5-2.8c-1.4,0.7-2.7,2.4-2,4.9c0.3,1.3,0.9,2.4,1.4,3.3c-2,0.7-4.5,2-7.1,3.4c-1.5,0.8-3.1,1.6-4.4,2.2
		c-3.1,1.4-5.2,5.5-7.2,9.4c-0.9,1.7-2.3,4.4-2.9,4.8c-2.5,1.2-3.4,4.8-4.3,9c-0.3,1.2-0.6,2.9-1,4c-1-1.2-2.2-3.4-2.7-4.4
		c-0.4-0.8-0.8-1.4-1.1-1.9c-2.1-3.4-7-1.2-12.1,1.1c-1.7,0.8-3.5,1.6-4.8,2c-2.1,0.7-3.6,2.2-4.2,4.3c-1,3.5,0.8,8.2,3,10.7
		c2.9,3.2,7.1,1.3,10.3-0.1c0.6-0.3,1.2-0.5,1.7-0.7c-0.2,0.8-0.5,2-1.2,3.8c-0.5,1.3-0.3,2.3,0,2.9c0.8,1.7,2.5,2.3,4.1,2.8
		c0.5,0.2,1.2,0.4,1.6,0.6c-0.5,3.7,0.4,4.9,3.3,7.2c0.3,0.2,0.6,0.5,1,0.8c3.8,3.2,8.1,0.7,11.2-1.2c1-0.6,2-1.2,2.9-1.6
		c2.6-1.1,8.9,0.1,13.5,2.7c3.9,2.2,7.4,4.8,11,8.1c1.5,1.3,1.8,2.9,2.2,4.5c0.3,1.4,0.6,2.8,1.8,3.9c1.1,1.1,4.3,2.5,11.4,5.4
		c3,1.3,5.9,2.4,7.4,3.2c0.1,0,0.1,0.1,0.1,0.1c0.5,0.7-0.9,4.6-4,8.4c-1.6,1.9-2.3,5-3,8.2c-0.5,2.5-1.2,5.5-2.2,6.5
		c-0.7,0.7-1.7,1.4-2.8,2.1c-2.8,1.9-6.3,4.2-6,8.5c0.2,2.8-3.1,5.5-6.9,8.6l-0.3,0.3c-3.9,3.2-7.5,9.2-10.7,14.4
		c-0.8,1.3-1.5,2.5-2.2,3.5c-1.1,1.7-1.5,3.9-1.1,6.5c-1.8-0.7-3.6-1.5-5.3-2.3c-0.7-5.1-0.7-20,0.1-29c0.9-9.9,0.9-18.6-7.3-26.1
		c-6.6-6-6.7-19.2-5.4-21.4c2.5-4.2-2.2-8.4-6.4-12c-1.2-1.1-2.4-2.1-3.2-3c-3.7-4-14.1-10.6-17.5-12.3c-3-1.5-11.2-10.2-12.4-14.9
		c-0.4-1.6-1.2-4-2.2-7c-2.5-7.3-6.3-18.4-5.6-23.5c0.4-2.8,0.2-6.5-0.7-11.2C45.8,50.2,66.3,29.3,91.8,17z M23.2,126
		c0-13.7,2.3-27,6.6-39.3c-0.7,6.4,3,17.4,5.8,25.5c0.9,2.8,1.8,5.1,2.1,6.5c1.6,6.4,11.2,16.2,15,18.1c3.1,1.5,13,7.9,16.1,11.2
		c1,1.1,2.2,2.2,3.6,3.4c1.7,1.5,5.2,4.6,5.3,5.8c-2.7,4.8-1.4,20.4,6.4,27.5c6.5,5.9,6.4,12.8,5.6,22c-0.6,6.8-0.9,19.5-0.4,27
		C50.1,213.8,23.2,173,23.2,126z M144,246.8c-13.4,0-26.3-2.2-38.4-6.3c-0.9-2.6-1-4.7-0.3-5.9c0.7-1.1,1.4-2.3,2.2-3.6
		c2.8-4.7,6.3-10.5,9.6-13.1l0.3-0.3c4.7-3.8,9.1-7.4,8.7-12.8c-0.1-1.3,1.4-2.4,3.8-4c1.3-0.8,2.6-1.7,3.6-2.8c2-2,2.7-5.4,3.5-8.9
		c0.5-2.4,1.1-5.1,2-6.1c0.6-0.8,6.1-7.6,5.1-12.6c-0.3-1.6-1.3-2.9-2.8-3.6c-1.6-0.8-4.6-2-7.7-3.3c-3.5-1.5-8.8-3.6-9.8-4.3
		c-0.1-0.3-0.3-0.9-0.4-1.4c-0.4-1.9-1.1-4.7-3.7-7c-3.9-3.6-7.7-6.3-12-8.7c-4.1-2.3-12.6-5.2-17.9-2.9c-1.2,0.5-2.3,1.2-3.4,1.8
		c-3.2,1.9-4.5,2.4-5.5,1.6c-0.4-0.3-0.7-0.6-1.1-0.9c-0.7-0.6-1.5-1.2-1.6-1.4c0-0.1,0-0.4,0.1-1.6c0.6-3.8-3.2-5.1-5-5.7
		c-0.2-0.1-0.4-0.1-0.6-0.2c1.6-4.2,1.7-6.8,0.4-8.4c-0.5-0.6-1.6-1.6-3.5-1.5c-1.4,0.1-2.9,0.8-4.5,1.5c-1.1,0.5-4.1,1.8-4.5,1.3
		c-1.3-1.4-2.4-4.4-1.9-6c0.1-0.5,0.3-0.7,0.8-0.8c1.6-0.5,3.4-1.3,5.4-2.2c1.8-0.8,4.8-2.2,6.2-2.4c0.2,0.3,0.4,0.6,0.5,1
		c2.1,3.8,4.6,8.5,8.5,7.6c2.8-0.6,3.6-4.1,4.6-8.4c0.4-1.8,1.1-4.9,1.7-5.7c1.9-1,3.3-3.6,5-6.9c1.4-2.7,3.4-6.4,4.9-7.2
		c1.4-0.7,3-1.5,4.6-2.3c2.8-1.4,5.9-3.1,7.5-3.4c1.4-0.3,2.4-1,2.9-2c0.7-1.7-0.2-3.2-0.9-4.4c-0.3-0.5-0.6-0.9-0.8-1.5
		c0.5,0.2,1,0.6,1.4,1.1c2,2.5,6,5,9.2,4.8c1.6-0.1,2.9-1,3.7-2.3c1.6-2.9-0.2-6.3-2.2-10.3c-0.8-1.6-1.7-3.3-2.4-5.1
		c-0.7-1.7-1.2-3.6-1.8-5.4c-1.3-4.6-2.7-9.3-6.7-8.4c-0.3,0.1-0.6,0.1-0.9,0.2c-1.2,0.3-4.6,1.1-5.7,0.8c-0.8-1.3-4.1-6.7-7.9-6.7
		c0,0,0,0-0.1,0c-1.5,0-2.8,0.8-3.5,2.2c-0.2,0.3-0.4,0.7-0.6,1c-1.5,2.8-3.1,5.6-2.8,9.4c0.1,1.7-1.5,3.4-3,5
		c-0.3,0.3-0.6,0.6-0.9,1c-0.7-0.4-1.9-1.8-2.1-2.5c-0.5-1.9-2.6-3.2-5.3-4.9c-0.8-0.5-2.1-1.3-2.8-1.8c0.9-2.4,2.9-6.8,4.2-8.6
		c2.3,1.7,6.1,3.3,9,2.6c1.7-0.4,3-1.5,3.5-3.2c0.4-1.1,0.6-2.3,0.8-3.5c0.2-1.1,0.5-2.7,0.8-3.5c1.8,0.6,3.4,1.4,4.3,2
		c-0.2,0.6-0.1,1.2,0,1.8c0.9,2.9,7.1,6.9,9.3,6.9c2.7,0,4.6-2.6,7-6.9c2.3-4.3,0.5-10.4-4.1-13.6c-0.9-0.6-2-1.2-2.9-1.8
		c-1.4-0.8-3.8-2.2-4-2.9c0,0,0-0.2,0.1-0.4c1.6-2.8,3.6-5.4,4.9-6.6c1.4,1.5,3.8,2.4,6.4,3.4c2.1,0.8,4.7,1.8,5.6,2.8
		c2.1,2.3,3.5,7.9,3.3,12.8c-0.2,4.4,2.3,16.2,5.9,19.3c1.3,1.1,2.6,1.1,3.2,1c2.8-0.6,5.3-3.5,8.8-7.9c0.8-1,1.6-2,2.2-2.7
		c1.6-1.9,3.7-2.5,6.6-3.5c1.2-0.4,2.7-0.9,4.1-1.5c1-0.4,2.2-0.8,3.3-1.2c4.4-1.5,9.3-3.2,8.9-7.8c-0.1-1,0.8-2.8,1.6-4.6
		c1.1-2.3,2.3-4.9,2.6-7.8c0.3-2.6,1.2-3.9,2.1-5.3c0.7-1,1.3-2.1,1.8-3.5c0.4-1.4,0.2-2.8-0.6-4c-0.9-1.3-2.5-2.3-4.3-3
		c22.3,4.8,42.4,15.8,58.3,31.2c-3.9-1.9-9.2-3.9-11.2-3.9c-2.7,0-11.2,4.6-12.5,8.4c-0.4,1-3.5,3.7-5.3,5.4c-2,1.8-3.9,3.5-5.2,5
		c-3.2,3.9,0,8.5,2.4,11.8c0.8,1.1,1.6,2.2,2.1,3.2c-0.6,0.9-4,2.2-6,2.5c-0.8-2.2-1.5-8.4-1.8-10.9c-0.1-1.1-0.2-2-0.3-2.8
		c-0.3-2.4-1.7-3.1-2.5-3.3c-2.6-0.6-4.4,1.8-7.3,6c-1.1,1.5-2.2,3-3.2,4.3c-2,2.3-2.8,4.7-2.6,7.2c0.3,3.1,2.4,5.4,4.1,6.7
		c1.6,1.2,2.1,2.6,3.1,5c0.2,0.5,0.4,1,0.6,1.6c0,0.1,0.1,0.1,0.1,0.2c-0.4,0.1-1.2,0.3-2.8,0.3c-0.8,0-2.8,0.3-3.8,2.8
		c-0.4,1.1-0.6,2.4-0.6,3.9c0,3.9,1.4,9.7,5.3,9.7c4.2,0,11.5-6.1,13.1-7.6c2.3-0.7,13,1.2,18.8,3.5l1.6,0.6c3.7,1.4,8.3,3.1,9,4.1
		c1,1.5,2.9,2.3,5.1,3.3c1.6,0.7,3.4,1.5,4.7,2.5c0,0,0.1,0.1,0.1,0.1c-0.3,0.4-1.1,0.8-1.7,0.9c-0.7,0.1-3.7-0.3-5.9-0.5
		c-5-0.6-8.4-0.9-10.1-0.6c0,0,0,0,0,0c-1.7,0-7.6-4.4-8.7-7.8c-0.4-1.4-1.4-2.5-2.7-3.2c-3.4-1.7-8.4,0-14.7,2.4
		c-0.6,0.2-1.1,0.4-1.6,0.6c-5.3,2-12.1,6.6-14.6,12.3c-0.7,1.6-1.4,2.2-2.3,3c-1.2,1-2.6,2.2-3.7,5.2c-1.8,4.9-3.2,14.3-3.2,20.6
		c0,6.6,6.6,11.5,11.5,15.1c0.4,0.3,0.9,0.6,1.3,1c3.5,2.6,8.4,1.5,13.1,0.5c2.7-0.6,5.5-1.2,7.2-0.9c1.9,0.4,2.3,1.6,3,6.1
		c0.2,1.6,0.5,3.4,1,5.3c1.4,5.3,1.8,9.8,1.9,10.6l-0.3,5.2c-0.2,3.7,0.7,10.4,1.7,17.4c0.5,3.6,1,7.3,1.4,10.7c0.3,2.5,1,6,3.7,7.4
		c0.7,0.4,1.5,0.5,2.2,0.5c2,0,4-1.1,5.7-2.1c0.9-0.5,1.7-1,2.3-1.2c4.5-1.6,13.4-8.5,14.5-14.2c0.7-3.7,3.7-10.1,7.8-14.4
		c5-5.3,4.7-16.2,4-19.6c-0.3-1.5,2.4-4.5,3.7-6l0.3-0.3c2.1-2.4,6.9-10.9,7.8-14.4c0.7-2.5,0.5-4.4,0.3-6.1
		c-0.1-0.8-0.2-1.6-0.2-2.4c0-0.7,2.1-2.3,3.4-3.2c0.9-0.7,1.9-1.4,2.8-2.2c0.5-0.4,0.8-0.8,1.2-1.3
		C261.1,196.3,208.4,246.8,144,246.8z"/>
</g>
</svg>
