<?xml version="1.0" encoding="utf-8"?>
<!-- Generator: Adobe Illustrator 17.1.0, SVG Export Plug-In . SVG Version: 6.00 Build 0)  -->
<!DOCTYPE svg PUBLIC "-//W3C//DTD SVG 1.1//EN" "http://www.w3.org/Graphics/SVG/1.1/DTD/svg11.dtd">
<svg version="1.1" xmlns="http://www.w3.org/2000/svg" xmlns:xlink="http://www.w3.org/1999/xlink" x="0px" y="0px"
	 viewBox="0 0 288 288" enable-background="new 0 0 288 288" xml:space="preserve">
<g id="Layer_1" display="none">
	<rect x="0" y="0" display="inline" fill="#BCBEC0" width="288" height="252"/>
</g>
<g id="Layer_2">
	<path d="M271.2,67.7c-3.6-2.1-7.6-1.8-10.4,0.8c-2.3,2.1-3.7,5.7-5.4,10.3c-4,10.5-8.9,23.6-26.7,23.8c-3.6-0.7-39.3-7.1-60.4-5.6
		c-3,0.2-6.1,0.5-9.1,0.8c-22.2,2.1-37.2,2.3-40-13.5c8.8-4.6,10.8-10.7,10.8-15.1c0.1-14.4-19.6-30.7-30.6-35.8
		c-13.2-6.1-22.1-1.8-24.9-0.1C53,31.4,36.4,49,30.8,60.8c-3,6.4-7.8,9.5-12.5,12.5c-3.8,2.4-7.3,4.7-9.2,8.4
		c-2.8,5.6,1.6,17.8,7.3,26c5.6,8.1,12.2,12.3,18.4,11.6c9.4-1,31.4-1.9,33.5,10.9c0.5,3.3,0.9,7.1,1.3,11.1
		c1.2,12.6,2.6,26.9,9.8,33.5c7.4,6.7,2.2,37.6,0.8,41.1c-0.3,0.5-2.1,1.9-3.4,2.9c-5.3,4-14.2,10.8-11.8,21.6
		c1.4,6.1,7.8,10.4,16.4,11c0.7,0,1.3,0.1,2,0.1c6.6,0,13.3-2.2,19.3-6.3c7.8-5.4,14-13.9,18-24.7c13.7-36.9,15.8-38.2,23.3-38.2
		c11.2,0,44.9,3,51.9,16.5c7.6,14.8,6.1,18.4,0.1,27.5c-2.8,4.3-3.2,8.9-1.2,12.9c2.6,5.4,9.4,9.5,16.9,10.2c0.5,0,1,0.1,1.5,0.1
		c11.6,0,27.1-10.9,29.4-24.4c1.9-11.6,4.6-27.5-0.1-43.8c-2.1-7.2-1.5-15.2-1-23c0.5-7.3,1-14.8-0.6-21.8c3-1.2,8.7-3.6,14.8-7.6
		c11.8-7.7,19.5-17.4,22.2-28.1C282.4,83.4,277.8,71.7,271.2,67.7z M273.1,99.6c-5.9,23-35.7,32.9-36,33l-2.3,0.8l0.7,2.3
		c2,6.8,1.5,14.3,1,22.3c-0.6,8.2-1.1,16.7,1.2,24.7c4,14,2.3,27.1-0.1,41.6c-2,12-17.1,20.9-25.5,20.2c-5.7-0.5-10.9-3.5-12.8-7.4
		c-1.2-2.5-0.9-5.2,0.9-8c6.8-10.5,8.6-16.1,0.1-32.5c-9.8-19-55.8-19.2-56.3-19.2c-11.7,0-14.7,5.7-28,41.4
		c-5,13.5-17,28.9-34.2,27.7c-6.2-0.4-11-3.3-11.8-7.1c-1.7-7.7,5-12.8,9.9-16.5c2.5-1.9,4.3-3.3,5-5c1.5-3.7,8-37.4-2.1-46.7
		c-5.8-5.3-7.1-18.6-8.2-30.3c-0.4-4.1-0.8-8-1.3-11.4c-2.1-13-17.4-15.6-29.3-15.6c-3.7,0-7.1,0.2-9.6,0.5c-4.2,0.4-9.3-3-13.7-9.5
		c-6.1-8.8-8.2-18.4-6.9-20.9c1.3-2.5,4.1-4.3,7.4-6.5c4.8-3.1,10.7-6.9,14.3-14.6c5.4-11.4,21.2-26.6,39.4-24.6l1,0.1l0.8-0.6
		c0.3-0.2,7.8-5.8,20.6,0.1c9.4,4.4,27.8,19.4,27.7,31.3c0,4.8-3.2,8.5-9.6,11.4c-16.9,7.6-28.9,8.8-34.9,3.7
		c-8.7-7.5-3.4-26.5-3.4-26.7l-4.8-1.4C71.9,57,66,78.4,77.1,88c7.3,6.3,19.8,5.8,37.3-1.6c4.5,20.2,27,18.1,45.2,16.3
		c3.1-0.3,6.1-0.6,9-0.8c21.1-1.4,59.1,5.5,59.4,5.6l0.2,0l0.2,0c21.4-0.1,27.6-16.3,31.6-27c1.4-3.6,2.7-7.1,4.1-8.4
		c1.6-1.5,3.3-0.9,4.5-0.2C273.5,74.9,276.9,84.8,273.1,99.6z"/>
</g>
</svg>
