<?xml version="1.0" encoding="utf-8"?>
<!-- Generator: Adobe Illustrator 17.1.0, SVG Export Plug-In . SVG Version: 6.00 Build 0)  -->
<!DOCTYPE svg PUBLIC "-//W3C//DTD SVG 1.1//EN" "http://www.w3.org/Graphics/SVG/1.1/DTD/svg11.dtd">
<svg version="1.1" xmlns="http://www.w3.org/2000/svg" xmlns:xlink="http://www.w3.org/1999/xlink" x="0px" y="0px"
	 viewBox="0 0 288 288" enable-background="new 0 0 288 288" xml:space="preserve">
<g id="Layer_1" display="none">
	<rect x="0" y="0" display="inline" fill="#BCBEC0" width="288" height="252"/>
</g>
<g id="Layer_2">
	<g>
		<path d="M272.7,26.3H15.3c-6.9,0-12.5,5.6-12.5,12.5v156.8c0,6.9,5.6,12.5,12.5,12.5h108.7c0,6.8-1,20.1-6,25.3
			c-1.4,1.4-2.9,2.1-4.7,2.1v0h-16v16h93.5v-16h-16v0c-1.8,0-3.4-0.7-4.7-2.1c-5-5.2-6-18.5-6-25.3h108.7c6.9,0,12.5-5.6,12.5-12.5
			V38.8C285.2,31.9,279.6,26.3,272.7,26.3z M185.8,246.5h-83.5v-6h83.5V246.5z M165.3,235.5h-42.6c5.5-7.4,6.2-21.3,6.2-27.1H144
			h15.1C159.1,214.2,159.7,228.1,165.3,235.5z M280.2,195.6c0,4.1-3.4,7.5-7.5,7.5H15.3c-4.1,0-7.5-3.4-7.5-7.5V38.8
			c0-4.1,3.4-7.5,7.5-7.5h257.5c4.1,0,7.5,3.4,7.5,7.5V195.6z"/>
		<path d="M13.9,188h260.2V46.4H13.9V188z M18.9,51.4h250.2V183H18.9V51.4z"/>
	</g>
</g>
</svg>
