<?xml version="1.0" encoding="utf-8"?>
<!-- Generator: Adobe Illustrator 17.1.0, SVG Export Plug-In . SVG Version: 6.00 Build 0)  -->
<!DOCTYPE svg PUBLIC "-//W3C//DTD SVG 1.1//EN" "http://www.w3.org/Graphics/SVG/1.1/DTD/svg11.dtd">
<svg version="1.1" xmlns="http://www.w3.org/2000/svg" xmlns:xlink="http://www.w3.org/1999/xlink" x="0px" y="0px"
	 viewBox="0 0 288 288" enable-background="new 0 0 288 288" xml:space="preserve">
<g id="Layer_1" display="none">
	<rect x="0" y="0" display="inline" fill="#BCBEC0" width="288" height="252"/>
</g>
<g id="Layer_2">
	<g>
		<path d="M19.4,150h249.2V17H19.4V150z M24.4,22h239.2v123H24.4V22z"/>
		<path d="M277.7,228.4v-69.3v-2.5V7.9H10.3v148.7v2.5v69.3c-5.2,1.1-9.1,5.8-9.1,11.3c0,6.4,5.2,11.6,11.6,11.6s11.6-5.2,11.6-11.6
			c0-5.5-3.9-10.2-9.1-11.3v-69.3h257.4v69.3c-5.2,1.1-9.1,5.8-9.1,11.3c0,6.4,5.2,11.6,11.6,11.6s11.6-5.2,11.6-11.6
			C286.8,234.2,282.9,229.5,277.7,228.4z M19.4,239.7c0,3.6-3,6.6-6.6,6.6s-6.6-3-6.6-6.6s3-6.6,6.6-6.6S19.4,236.1,19.4,239.7z
			 M15.3,12.9h257.4v141.2H15.3V12.9z M275.2,246.3c-3.6,0-6.6-3-6.6-6.6s3-6.6,6.6-6.6s6.6,3,6.6,6.6S278.9,246.3,275.2,246.3z"/>
		<path d="M76,44.4c4.3,6.1,20.9,5,27,2.9c5.9-2,15.8-2.2,18.7-0.3c3.9,2.6,17.6,6.7,23.5,3.3c4.2-2.4,18.9-6,23.6-6.1
			c0,0,0,0,0.1,0c2.4,0,8.5,2.3,13,4c5.7,2.2,8.9,3.4,10.9,3.4c0.1,0,0.3,0,0.4,0c3.9-0.4,15.8-5.6,19.2-7.7c0,0,0,0,0,0
			c1.2,0,4.8,2.4,6.8,3.7c3.1,2.1,5.8,3.8,8.1,4l0.4-5c-1-0.1-3.9-2-5.8-3.2c-4.6-3-8.9-5.9-12.1-3.8c-3.2,2-14.6,6.8-17.2,7
			c-1.1,0-5.8-1.7-9.1-3c-5.6-2.2-11.5-4.4-14.8-4.4c0,0-0.1,0-0.1,0c-5.5,0.1-20.9,3.9-25.9,6.8c-2.4,1.4-13.2,0.2-18.3-3.1
			c-5-3.3-17-2.3-23.1-0.3c-6.1,2.1-19.2,1.8-21.3-1.1C75.9,35.5,64,42.7,59,46.1l2.8,4.1C68.7,45.6,75.3,43.4,76,44.4z"/>
		<rect x="60.4" y="65.2" width="117.6" height="5"/>
		<rect x="60.4" y="86.1" width="152.2" height="5"/>
		<rect x="195.6" y="120.7" width="40.5" height="5"/>
	</g>
</g>
</svg>
