<?xml version="1.0" encoding="utf-8"?>
<!-- Generator: Adobe Illustrator 16.0.4, SVG Export Plug-In . SVG Version: 6.00 Build 0)  -->
<!DOCTYPE svg PUBLIC "-//W3C//DTD SVG 1.1//EN" "http://www.w3.org/Graphics/SVG/1.1/DTD/svg11.dtd">
<svg version="1.1" id="Layer_1" xmlns="http://www.w3.org/2000/svg" xmlns:xlink="http://www.w3.org/1999/xlink" x="0px" y="0px"
	 width="288px" height="288px" viewBox="144 0 288 288" enable-background="new 144 0 288 288" xml:space="preserve">
<path d="M421.42,0H154.58C148.702,0,144,4.123,144,9.277v232.947c0,5.154,4.702,9.276,10.58,9.276h265.666
	c5.877,0,10.579-4.122,10.579-9.276V9.277C432,4.123,427.298,0,421.42,0z M421.42,123.688h-57.6V74.213l0,0
	c3.526,1.031,7.053,2.062,10.58,2.062c1.176,0,3.526,0,4.701,0c12.932-2.062,22.335-9.277,21.16-17.523
	c-1.176-8.246-12.932-13.399-25.861-11.338c-1.176,0-3.527,1.031-4.703,1.031c-1.175-3.092-3.525-5.154-5.877-6.185V11.338h57.6
	V123.688L421.42,123.688z M219.232,49.475L219.232,49.475c1.176,1.031,1.176,1.031,2.351,1.031c1.176,0,1.176,0,2.351,0
	c5.877-4.123,15.282-3.093,21.159,0c1.176,1.03,2.351,1.03,3.527,0c2.351-2.062,5.877-3.093,9.404-3.093
	c8.229,0,14.106,6.185,14.106,12.369c0,7.215-7.053,12.369-14.106,12.369c-2.351,0-3.526,0-5.877-1.031
	c-2.351,1.031-3.526,1.031-4.702,2.062c-2.351,4.123-8.229,6.184-12.931,6.184c-5.877,0-11.755-3.092-15.282-7.215V49.475
	L219.232,49.475z M213.355,72.152c-2.351,1.031-5.877,2.062-8.229,2.062c-9.404,0-17.633-7.215-17.633-15.461
	c0-8.246,8.229-15.461,17.633-15.461c3.526,0,5.877,1.031,8.229,2.062V72.152z M219.232,80.398
	c4.702,2.062,9.404,4.123,15.282,4.123c7.053,0,12.931-2.061,17.633-6.184c2.351,1.03,4.702,1.03,5.877,1.03
	c11.755,0,21.159-8.246,21.159-18.553c0-10.307-9.404-18.553-21.159-18.553c-4.702,0-8.229,1.031-11.755,3.092
	c-7.053-4.123-16.458-4.123-23.51-1.031c-1.176-1.031-2.351-2.062-3.527-2.062V9.277h62.302v113.381h-62.302V80.398z
	 M282.71,128.843v114.411h-63.478V128.843H282.71z M294.465,128.843h63.479v114.411h-63.479V128.843z M294.465,123.688V10.307
	h63.479v26.799c-3.527-1.03-7.054-2.062-11.756-1.03c-7.053,1.03-12.93,4.123-16.457,10.307c-2.352,0-4.701,0-7.053,0
	c-11.756,1.03-19.984,9.276-18.809,16.492s11.756,13.4,23.51,11.338c2.352,0,4.703-1.031,5.879-1.031
	c4.701,3.092,9.403,5.154,15.281,5.154c1.176,0,2.351,0,3.526,0c1.175,0,3.526-1.031,4.702-1.031v46.383H294.465z M363.82,47.414
	c1.176,1.031,1.176,2.062,2.352,3.093c0,1.03,1.176,1.03,1.176,1.03c1.175,0,1.175,0,2.351,0c1.175,0,3.526,0,5.878-1.03
	c9.403-1.031,18.808,2.062,19.982,7.215c1.176,5.154-7.053,10.308-16.457,12.369c-1.175,0-2.351,0-3.525,0
	c-3.527,0-7.054-1.031-10.58-2.062h-1.176V47.414L363.82,47.414z M357.943,71.121c-2.352,1.031-3.527,1.031-5.878,2.062
	c-5.878,1.031-10.579-1.031-15.282-5.154c0-1.031-1.175-1.031-2.351-1.031h-1.175c-2.352,1.031-4.703,1.031-7.054,2.062
	c-8.229,1.031-16.457-2.062-16.457-7.215c-1.176-5.153,5.878-10.308,14.106-11.338c2.351,0,4.701,0,7.053,0
	c1.176,0,2.352,0,3.526-1.031c2.351-4.123,7.054-8.246,12.931-8.246c3.526,0,7.053,0,10.58,2.062V71.121L357.943,71.121z
	 M213.355,9.277v28.86c-2.351,0-5.877-1.031-8.229-1.031c-12.931,0-23.51,9.277-23.51,20.615c0,11.338,10.58,20.615,23.51,20.615
	c3.526,0,5.877,0,8.229-1.031v46.383H154.58V10.307h58.775V9.277z M154.58,128.843h58.775v114.411H154.58V128.843z M363.82,243.254
	V128.843h57.6v114.411H363.82z"/>
</svg>
