<?xml version="1.0" encoding="utf-8"?>
<!-- Generator: Adobe Illustrator 16.0.4, SVG Export Plug-In . SVG Version: 6.00 Build 0)  -->
<!DOCTYPE svg PUBLIC "-//W3C//DTD SVG 1.1//EN" "http://www.w3.org/Graphics/SVG/1.1/DTD/svg11.dtd">
<svg version="1.1" id="Layer_2" xmlns="http://www.w3.org/2000/svg" xmlns:xlink="http://www.w3.org/1999/xlink" x="0px" y="0px"
	 width="100px" height="100px" viewBox="0 0 100 100" enable-background="new 0 0 100 100" xml:space="preserve">
<path fill="#FFFFFF" d="M90.6,16.167H9.4c-3.867,0-7.733,3.867-7.733,8.7V76.1c0,3.867,3.867,7.733,7.733,7.733h80.232
	c4.834,0,8.7-3.866,8.7-8.7V24.867C98.333,20.034,94.467,16.167,90.6,16.167z M88.666,21.967l-31.899,29
	c-2.9,2.899-5.8,4.833-6.767,4.833s-3.867-0.967-5.8-3.866L11.333,21.967H88.666z M7.467,73.2V27.767L32.6,50L7.467,73.2z
	 M12.3,78.033l25.133-23.2L41.3,58.7c1.933,1.933,4.833,2.899,8.7,2.899c3.866,0,6.767-0.967,8.7-2.899l3.866-3.867l25.134,23.2
	H12.3z M92.533,73.2L67.399,50l25.134-22.233V73.2z"/>
</svg>
