<?xml version="1.0" encoding="utf-8"?>
<!-- Generator: Adobe Illustrator 17.1.0, SVG Export Plug-In . SVG Version: 6.00 Build 0)  -->
<!DOCTYPE svg PUBLIC "-//W3C//DTD SVG 1.1//EN" "http://www.w3.org/Graphics/SVG/1.1/DTD/svg11.dtd">
<svg version="1.1" xmlns="http://www.w3.org/2000/svg" xmlns:xlink="http://www.w3.org/1999/xlink" x="0px" y="0px"
	 viewBox="0 0 288 288" enable-background="new 0 0 288 288" xml:space="preserve">
<g id="Layer_1" display="none">
	<rect x="0" y="0" display="inline" fill="#BCBEC0" width="288" height="252"/>
</g>
<g id="Layer_2">
	<g>
		<path d="M264.8,208.5c8-11.5,12.3-24.8,12.3-38.4c0-39.9-36.1-72.3-80.5-72.3c-6.9,0-13.6,0.8-19.9,2.2c3.6-8.3,5.5-17,5.6-26.1
			c0.3-17.5-6.7-34.5-19.7-47.8c-15.4-15.7-37.5-24.6-60.8-24.6c-44.4,0-80.5,32.5-80.5,72.4c0,13.5,4.2,26.7,12.1,38.1L1.4,153.1
			l56-18.9c12.8,7.6,28.1,11.7,44.3,11.9c6.7,0.1,13.3-0.6,19.7-2c-3.5,8.1-5.4,16.8-5.4,25.9c0,39.9,36.1,72.4,80.5,72.4
			c15.8,0,31-4.1,44.2-11.8l44.1,20.2L264.8,208.5z M101.7,141.1c-15.7-0.2-30.5-4.3-42.7-11.8l-1-0.6l-42.5,14.3l24-31.1l-1.1-1.5
			c-8-10.9-12.2-23.6-12.2-36.7c0-37.1,33.9-67.4,75.5-67.4c21.9,0,42.8,8.4,57.3,23.1c12.1,12.3,18.6,28,18.3,44.2
			c-0.2,9.8-2.5,19.2-7,27.9c-20.2,6.3-36.7,19.6-46.1,36.6C116.9,140.3,109.3,141.3,101.7,141.1z M240.3,224.9l-1.1,0.7
			c-12.6,7.7-27.4,11.8-42.7,11.8c-41.7,0-75.5-30.2-75.5-67.4c0-37.1,33.9-67.3,75.5-67.3s75.5,30.2,75.5,67.3
			c0,13.1-4.2,25.8-12.2,36.7l-0.9,1.2l15.4,32.6L240.3,224.9z"/>
		<path d="M108.4,25.8H97l-30.7,79.9h11.2l8.8-24.2h33.4l9.3,24.2h12L108.4,25.8z M89.4,72.9l8.8-23.4c1.9-5,3.3-10.1,4.3-15.3
			c1.2,4.3,3.1,9.8,5.7,16.6l8.3,22.1H89.4z"/>
		<path d="M204,125h-10v11.3h-38.5v10h68.8c-1.9,3.8-4.8,9-9.2,14.9c-4.1,5.7-10,12.6-18,20c-11.8-12.5-18.6-25.6-18.8-25.9
			c0,0,0,0,0,0l-8.9,4.5c0.3,0.5,6.9,13.5,18.8,26.6c0.4,0.5,0.9,0.9,1.3,1.4c-6.7,5.5-14.7,11.1-23.9,16.4l5,8.7
			c10.1-5.8,18.8-11.9,26.2-18c13.9,12.2,28.8,18.7,43.9,18.7v-10c-14.1,0-26.4-6.8-36.2-15.3c19.5-18.1,28-34.9,31-41.9h7.1v-10
			H204V125z"/>
	</g>
</g>
</svg>
