<?xml version="1.0" encoding="utf-8"?>
<!-- Generator: Adobe Illustrator 17.1.0, SVG Export Plug-In . SVG Version: 6.00 Build 0)  -->
<!DOCTYPE svg PUBLIC "-//W3C//DTD SVG 1.1//EN" "http://www.w3.org/Graphics/SVG/1.1/DTD/svg11.dtd">
<svg version="1.1" xmlns="http://www.w3.org/2000/svg" xmlns:xlink="http://www.w3.org/1999/xlink" x="0px" y="0px"
	 viewBox="0 0 288 288" enable-background="new 0 0 288 288" xml:space="preserve">
<g id="Layer_1" display="none">
	<rect x="0" display="inline" fill="#BCBEC0" width="288" height="252"/>
</g>
<g id="Layer_2">
	<path d="M191,181.8c1.2-1.2,2.5-2.5,3.8-3.8c5.5-4.8,14.3-5.9,24.4-7.1c11.3-1.3,24-2.8,36.4-9.8c16.6-9.3,23.4-30.4,21.7-46.4
		c-1.2-11.2-6.5-19-14.4-21.4c-11-3.3-18.8-1-23.4,1.6c-0.5,0.3-1,0.6-1.4,0.9c0.7-4,1.1-7.1,1.4-8.7c0.1-0.5,0.2-1,0.2-1.6
		c0-7.1-9.8-12.9-29.2-17.2c-17.8-4-41.3-6.2-66.4-6.2s-48.6,2.2-66.4,6.2c-19.4,4.3-29.2,10.1-29.2,17.2c0,0.5,0.1,1,0.2,1.6
		c0.5,3.8,2.2,15.5,6.2,29.6c6.5,22.7,15.4,39.5,26.7,50.1c6.3,5.9,11.5,10.9,15.6,15.1c-42.8,4-90.3,15-90.3,33.8
		c0,13.1,22.5,21.4,41.4,26c25.7,6.4,59.7,9.9,95.9,9.9s70.3-3.5,95.9-9.9c18.9-4.7,41.4-13,41.4-26
		C281.3,196.7,233.8,185.7,191,181.8z M261.4,98.1c5.9,1.8,9.9,8,10.9,17.1c1.5,14-4.7,33.4-19.2,41.5c-11.5,6.5-23.7,7.9-34.5,9.2
		c-4.7,0.6-9.2,1.1-13.3,2c0.4-0.4,0.8-0.8,1.3-1.2c2.6-2.4,5-5.2,7.4-8.3c1.4,0.2,3.6,0.5,6.7,0.5c5.5,0,13.5-0.9,23.6-4.4
		c13.4-4.6,21.3-18,22.2-28.9c0.6-7.8-2.2-14-7.9-17.1c-9-4.9-18.5,0.6-24.8,6c1-3.8,1.9-7.4,2.6-10.7
		C237.8,102.1,245.4,93.2,261.4,98.1z M230.6,125.2c0.9-1.1,4.2-5.2,8.7-8.6c6.5-5,12.2-6.2,16.9-3.6c5.2,2.8,5.5,8.9,5.3,12.3
		c-0.7,9-7.6,20.7-18.8,24.5c-12.1,4.2-20.8,4.4-25.4,4C222.3,145.9,226.8,136.4,230.6,125.2z M144,67.2c56,0,90.4,10.6,90.6,18.3
		c0,0.2-0.1,0.4-0.1,0.8c-2.1,7.6-36.2,17.6-90.5,17.6c-54.3,0-88.3-10-90.5-17.6c0-0.4-0.1-0.6-0.1-0.8C53.6,77.8,88,67.2,144,67.2
		z M84.9,163.1c-18.9-17.7-27.1-52-30-68.5c4.9,3.1,12.5,5.8,22.8,8.1c17.8,4,41.3,6.2,66.4,6.2s48.6-2.2,66.4-6.2
		c10.3-2.3,17.9-5,22.8-8.1c-3,16.5-11.1,50.8-30,68.5c-4.5,4.3-8.4,7.9-11.6,11.1c-0.7,0.6-1.3,1.2-1.9,1.9l0,0
		c-10.9,10.9-14.1,15.7-14.1,19.8c0,3.8,4.5,6.4,9.8,9.5c2.6,1.5,8,4.7,8.1,6c-0.7,3-18.7,11.9-49.4,11.9s-48.8-8.8-49.4-11.8
		c0.1-1.4,5.5-4.5,8.1-6.1c5.3-3.1,9.8-5.7,9.8-9.5C112.5,190.4,106.8,183.6,84.9,163.1z M238.7,236.8c-25.3,6.3-58.9,9.7-94.7,9.7
		s-69.5-3.4-94.7-9.7C25.7,231,11.7,223,11.7,215.6c0-10.9,30.8-24.3,89.7-29.2c4,4.4,6.1,7.5,6.1,9.4c-0.5,1.2-4.7,3.7-7.3,5.2
		c-5.4,3.2-10.6,6.2-10.6,10.4c0,8.8,25.9,16.8,54.4,16.8s54.4-8,54.4-16.8c0-4.2-5.1-7.2-10.6-10.4c-2.6-1.5-6.9-4-7.3-5.2
		c0.1-1.9,2.2-5,6.1-9.4c58.9,4.9,89.7,18.3,89.7,29.2C276.3,223,262.3,231,238.7,236.8z"/>
</g>
</svg>
