<?xml version="1.0" encoding="utf-8"?>
<!-- Generator: Adobe Illustrator 17.1.0, SVG Export Plug-In . SVG Version: 6.00 Build 0)  -->
<!DOCTYPE svg PUBLIC "-//W3C//DTD SVG 1.1//EN" "http://www.w3.org/Graphics/SVG/1.1/DTD/svg11.dtd">
<svg version="1.1" xmlns="http://www.w3.org/2000/svg" xmlns:xlink="http://www.w3.org/1999/xlink" x="0px" y="0px"
	 viewBox="0 0 288 288" enable-background="new 0 0 288 288" xml:space="preserve">
<g id="Layer_1" display="none">
	<rect x="0" y="0" display="inline" fill="#BCBEC0" width="288" height="252"/>
</g>
<g id="Layer_2">
	<g>
		<path d="M257.9,81.3l-0.2-0.3c-13.2-23.3-31.3-38.9-58.7-50.5c-18.6-7.9-37.8-12.2-54.1-12.2c-11,0-20.5,1.9-28.4,5.7
			c-0.5,0-1.2,0-2.1,0c-14,0-60.7,2.6-75.8,36.5c-3.3,3.2-25.5,25.3-28.2,46.3c-1.7,13.3,2.7,39.7,17.9,57
			c8.9,10.1,19.8,15.2,32.5,15.2c2.4,0,4.9-0.2,7.4-0.6c4-0.6,7-2.2,8.8-4.8c3.2-4.6,1.9-11,1-15.7c-0.3-1.7-0.7-3.3-0.7-4.2
			c0-2.2-0.4-4.8-0.8-7.2c-0.5-3.3-1.1-7.5-0.3-8.9c0,0,0.2-0.1,0.7-0.1c0.6,0,1.4,0.1,2.3,0.2c1.2,0.2,2.5,0.3,4,0.3
			c2,0,3.7-0.3,5.4-1c7.9,4.2,52.2,27.5,77.9,27.5c0,0,0,0,0,0c1.2,0,2.4-0.1,3.5-0.2c-0.8,2-2.3,4.8-5.1,8.1
			c-0.6,0.8-1.2,1.6-1.7,2.4c-2.2,3.3-4.5,6.7-12.8,6.7c-1.9,0-4-0.2-6.3-0.5c-5.5-0.8-11-1.3-16-1.3c-7.4,0-17.1,1-21.8,5.7
			c-1.8,1.8-2.7,4-2.7,6.5c0.1,7.1,12.8,18,25.4,25.6c10.2,6.2,30.8,16.5,53.6,16.5h0c29,0,56.7-13.9,70.6-35.5
			c3.4-2.6,25-20.2,25-53.2C278,116.7,265.9,95.4,257.9,81.3z M251.3,193.3c-5.7-5.2-25.7-20.6-53.8-15.3l0.9,4.9
			c25.6-4.9,44.3,9.5,49.5,14.1c-13.3,19.4-38.8,31.9-65.5,31.9v2.5l0-2.5c-21.6,0-41.2-9.9-51-15.8c-15-9-23-18.2-23-21.3
			c0-1.1,0.4-2,1.2-2.9c2.6-2.7,9.3-4.2,18.2-4.2c4.7,0,10,0.4,15.3,1.2c2.6,0.4,5,0.6,7.1,0.6c11,0,14.4-5.2,16.9-9
			c0.5-0.7,1-1.4,1.4-2c6.6-8,7.2-13.6,7.2-14.3l0.2-3.4l-3.3,0.8c-1.8,0.5-3.9,0.7-6.3,0.7c0,0,0,0,0,0
			c-26.3,0-76.1-27.2-76.6-27.5l-1.2-0.7l-1.2,0.7c-1.2,0.7-2.6,1-4.2,1c-1.1,0-2.3-0.2-3.4-0.3c-1-0.1-2-0.3-3-0.3
			c-2.3,0-4,0.9-5,2.5c-1.8,3-1.1,7.5-0.4,12.2c0.3,2.3,0.7,4.6,0.7,6.4c0,1.5,0.4,3.2,0.8,5.2c0.8,4,1.8,9-0.2,11.8
			c-1,1.4-2.8,2.3-5.4,2.7c-14,2.1-26-2.3-35.4-13c-14-15.9-18.2-41-16.7-53c2.6-20.4,26.8-43.4,27-43.7l0.4-0.4l0.2-0.5
			c14.1-32.3,62-34,71.5-34c1.6,0,2.5,0,2.6,0l0.6,0l0.6-0.3c7.3-3.6,16.3-5.4,26.8-5.4c15.6,0,34.1,4.2,52.1,11.9
			c26.3,11.2,43.7,26.1,56.3,48.4l0.2,0.3c8.2,14.5,19.4,34.3,19.4,61.5C273,172.4,256.6,188.8,251.3,193.3z"/>
		<path d="M237.3,74.6l-2.4-4.4c-1.5,0.8-37.6,20.9-55.8,68.5l4.7,1.8C201.3,94.7,237,74.8,237.3,74.6z"/>
		<path d="M112.3,41.9c-1.2,1.1-28.2,27.8-22.5,72.5l5-0.6c-5.3-42.2,20.8-68,21-68.3L112.3,41.9z"/>
		<path d="M44,72.8l-2.5-0.3l-2.5-0.3c-0.2,1.3-4,32.8,24.1,55.8l3.2-3.9C40.4,102.9,44,73.1,44,72.8z"/>
		<path d="M187.5,153.7l2.7,4.2c0.3-0.2,33-20.6,67.8,0l2.6-4.3C223.1,131.4,187.9,153.5,187.5,153.7z"/>
	</g>
</g>
</svg>
