<?xml version="1.0" encoding="utf-8"?>
<!-- Generator: Adobe Illustrator 17.1.0, SVG Export Plug-In . SVG Version: 6.00 Build 0)  -->
<!DOCTYPE svg PUBLIC "-//W3C//DTD SVG 1.1//EN" "http://www.w3.org/Graphics/SVG/1.1/DTD/svg11.dtd">
<svg version="1.1" xmlns="http://www.w3.org/2000/svg" xmlns:xlink="http://www.w3.org/1999/xlink" x="0px" y="0px"
	 viewBox="0 0 288 288" enable-background="new 0 0 288 288" xml:space="preserve">
<g id="Layer_1" display="none">
	<rect x="0" display="inline" fill="#BCBEC0" width="288" height="252"/>
</g>
<g id="Layer_2">
	<path d="M222.8,194.1c-1.1,0-2.2,0.1-3.2,0.4l-20.7-49.8c-0.1-1.5-0.7-2.9-1.7-4.1L177.4,93c32.3-10.8,55.1-36.9,55.1-67.3
		c0-16.4-45.6-25.2-88.5-25.2c-42.9,0-88.5,8.8-88.5,25.2c0,30.6,23.1,56.8,55.8,67.5l-19.6,47.3c-1,1.3-1.6,2.7-1.7,4.1l-20.7,49.8
		c-1-0.2-2.1-0.4-3.2-0.4c-8.1,0-14.7,6.6-14.7,14.7s6.6,14.7,14.7,14.7s14.7-6.6,14.7-14.7c0-5.2-2.7-9.8-6.9-12.4l18.8-45.3
		c7.3,7.3,28.1,11.2,49.2,11.4V252h5v-89.4c13.2-0.2,25.5-1.7,34.9-4.4c6.7-1.9,11.5-4.3,14.3-7l18.8,45.3
		c-4.1,2.6-6.9,7.2-6.9,12.4c0,8.1,6.6,14.7,14.7,14.7s14.7-6.6,14.7-14.7S230.9,194.1,222.8,194.1z M66,218.6
		c-5.4,0-9.7-4.4-9.7-9.7s4.4-9.7,9.7-9.7s9.7,4.4,9.7,9.7S71.4,218.6,66,218.6z M189.4,135.1c-9.8-4.5-26.1-6.9-42.5-7.1V98.3
		c9-0.2,17.6-1.6,25.7-3.9L189.4,135.1z M83.5,32.3c1.5,1.9,4.1,3.5,7.3,4.8H76.2c-4.5-1.6-7.9-3.2-10.3-4.8H83.5z M151.8,12.7
		c-1.9,1.5-2.9,3.1-3.1,4.8h-25c-3.9-0.7-8.2-1-12.4-1s-8.5,0.4-12.4,1H68.8c3.1-1.6,7.3-3.2,12.7-4.8H151.8z M206.6,12.7
		c5.3,1.5,9.5,3.2,12.7,4.8h-21.6c-0.2-1.6-1.2-3.3-3.1-4.8H206.6z M192.7,18c0,1.5-6.8,5.2-19.5,5.2s-19.5-3.7-19.5-5.2
		c0-1.5,6.8-5.2,19.5-5.2S192.7,16.5,192.7,18z M140.3,27.3c-0.3-1.8-1.5-3.4-3.2-4.8h13.8c2.1,2,5.8,3.8,11.2,4.8H140.3z
		 M111.3,21.5c15.6,0,24.2,4.5,24.2,6.9s-8.5,6.9-24.2,6.9s-24.2-4.5-24.2-6.9S95.6,21.5,111.3,21.5z M191.9,42.1
		c-14,2.5-30.5,3.9-47.9,3.9s-33.9-1.4-47.9-3.9H191.9z M211.8,37.1h-80.1c3.2-1.2,5.8-2.8,7.3-4.8h83.1
		C219.7,33.9,216.3,35.5,211.8,37.1z M227.1,27.3h-42.9c5.3-1,9-2.8,11.2-4.8h30.7c0.9,1.2,1.4,2.3,1.4,3.2
		C227.5,26.2,227.4,26.7,227.1,27.3z M181.2,7.7h-74.4c11.4-1.5,24.1-2.2,37.2-2.2S169.7,6.3,181.2,7.7z M61.9,22.5h23.5
		c-1.8,1.4-2.9,3-3.2,4.8H60.9c-0.2-0.5-0.4-1.1-0.4-1.6C60.5,24.8,61,23.7,61.9,22.5z M61.4,35.2C75,45.5,110.3,51,144,51
		c33.7,0,69-5.5,82.6-15.7C220.9,68,186,93.4,144,93.4S67.1,68,61.4,35.2z M141.9,98.4V128c-13.2,0.2-25.5,1.7-34.9,4.4
		c-2.9,0.8-5.4,1.7-7.6,2.7l16.8-40.4C124.3,96.9,132.9,98.2,141.9,98.4z M95,145.7l1.1-2.6c4.4-4.6,21.2-9.8,45.8-10.1v24.7
		C113.9,157.2,95.9,150.5,95,145.7z M146.9,157.6V133c24.6,0.3,41.5,5.5,45.8,10.1l1.1,2.6C192.9,150.5,174.9,157.2,146.9,157.6z
		 M222.8,218.6c-5.4,0-9.7-4.4-9.7-9.7s4.4-9.7,9.7-9.7s9.7,4.4,9.7,9.7S228.1,218.6,222.8,218.6z"/>
</g>
</svg>
