<?xml version="1.0" encoding="utf-8"?>
<!-- Generator: Adobe Illustrator 17.1.0, SVG Export Plug-In . SVG Version: 6.00 Build 0)  -->
<!DOCTYPE svg PUBLIC "-//W3C//DTD SVG 1.1//EN" "http://www.w3.org/Graphics/SVG/1.1/DTD/svg11.dtd">
<svg version="1.1" id="Layer_1" xmlns="http://www.w3.org/2000/svg" xmlns:xlink="http://www.w3.org/1999/xlink" x="0px" y="0px"
	 viewBox="0 0 13.5 13.5" enable-background="new 0 0 13.5 13.5" xml:space="preserve">
<path fill-rule="evenodd" clip-rule="evenodd" fill="#54C3BF" d="M13.5,9.5c0,0.7-0.1,1.2-0.3,1.6c-0.2,0.4-0.4,0.8-0.8,1.2
	c-0.4,0.4-0.8,0.6-1.2,0.8c-0.4,0.2-0.9,0.3-1.6,0.3c-0.7,0-0.9,0-2.8,0s-2.1,0-2.8,0c-0.7,0-1.2-0.1-1.6-0.3
	c-0.4-0.2-0.8-0.4-1.2-0.8c-0.4-0.4-0.6-0.8-0.8-1.2C0.2,10.7,0.1,10.3,0,9.5c0-0.7,0-0.9,0-2.8S0,4.7,0,4c0-0.7,0.1-1.2,0.3-1.6
	c0.2-0.4,0.4-0.8,0.8-1.2c0.4-0.4,0.8-0.6,1.2-0.8C2.8,0.2,3.2,0.1,4,0c0.7,0,0.9,0,2.8,0s2.1,0,2.8,0c0.7,0,1.2,0.1,1.6,0.3
	c0.4,0.2,0.8,0.4,1.2,0.8c0.4,0.4,0.6,0.8,0.8,1.2c0.2,0.4,0.3,0.9,0.3,1.6c0,0.7,0,0.9,0,2.8S13.5,8.8,13.5,9.5z M12.2,4
	c0-0.7-0.1-1-0.2-1.3c-0.1-0.3-0.3-0.5-0.5-0.8c-0.2-0.2-0.5-0.4-0.8-0.5c-0.2-0.1-0.6-0.2-1.3-0.2c-0.7,0-0.9,0-2.7,0s-2,0-2.7,0
	c-0.7,0-1,0.1-1.3,0.2C2.5,1.6,2.2,1.8,2,2S1.6,2.5,1.5,2.8C1.4,3,1.3,3.4,1.3,4c0,0.7,0,0.9,0,2.7s0,2,0,2.7c0,0.7,0.1,1,0.2,1.3
	C1.6,11,1.8,11.3,2,11.5s0.5,0.4,0.8,0.5C3,12.1,3.4,12.2,4,12.2c0.7,0,0.9,0,2.7,0c1.8,0,2,0,2.7,0c0.7,0,1-0.1,1.3-0.2
	c0.3-0.1,0.5-0.3,0.8-0.5c0.2-0.2,0.4-0.5,0.5-0.8c0.1-0.2,0.2-0.6,0.2-1.3c0-0.7,0-0.9,0-2.7S12.3,4.7,12.2,4z M10.4,4
	C9.9,4,9.5,3.6,9.5,3.1c0-0.4,0.4-0.8,0.8-0.8c0.4,0,0.8,0.4,0.8,0.8C11.2,3.6,10.8,4,10.4,4z M6.8,10.2c-1.9,0-3.5-1.6-3.5-3.5
	s1.6-3.5,3.5-3.5s3.5,1.6,3.5,3.5S8.7,10.2,6.8,10.2z M6.8,4.5c-1.2,0-2.2,1-2.2,2.2S5.5,9,6.8,9S9,8,9,6.8S8,4.5,6.8,4.5z"/>
</svg>
