<?xml version="1.0" encoding="utf-8"?>
<!-- Generator: Adobe Illustrator 15.0.0, SVG Export Plug-In . SVG Version: 6.00 Build 0)  -->
<!DOCTYPE svg PUBLIC "-//W3C//DTD SVG 1.1//EN" "http://www.w3.org/Graphics/SVG/1.1/DTD/svg11.dtd">
<svg version="1.1" id="Layer_1" xmlns="http://www.w3.org/2000/svg" xmlns:xlink="http://www.w3.org/1999/xlink" x="0px" y="0px"
	 width="792px" height="612px" viewBox="0 0 792 612" enable-background="new 0 0 792 612" xml:space="preserve">
<path d="M702,430.667c0,31.733-4.533,54.399-13.6,72.533c-9.067,18.133-18.134,36.267-36.268,54.399
	c-18.133,18.134-36.267,27.2-54.399,36.267c-18.134,9.067-40.8,13.601-72.533,13.601s-40.8,0-126.934,0c-86.133,0-95.2,0-126.933,0
	c-31.733,0-54.4-4.533-72.534-13.601c-18.133-9.066-36.267-18.133-54.4-36.267c-18.133-18.133-27.2-36.267-36.267-54.399
	c-9.066-18.134-13.6-36.267-18.133-72.533c0-31.733,0-40.801,0-126.934c0-86.133,0-90.667,0-122.4c0-31.733,4.533-54.4,13.6-72.534
	c9.066-18.133,18.133-36.267,36.267-54.4s36.267-27.2,54.4-36.267c22.667-9.067,40.8-13.6,77.067-18.133c31.733,0,40.8,0,126.933,0
	c86.134,0,95.2,0,126.934,0s54.399,4.533,72.533,13.6c18.134,9.066,36.267,18.133,54.4,36.267
	c18.133,18.133,27.199,36.267,36.267,54.4c9.066,18.133,13.6,40.8,13.6,72.533c0,31.733,0,40.8,0,126.934
	C702,389.866,702,398.934,702,430.667z M643.066,181.333c0-31.733-4.533-45.333-9.066-58.934s-13.6-22.667-22.667-36.267
	c-9.066-9.067-22.666-18.133-36.267-22.667c-9.066-4.533-27.2-9.067-58.934-9.067c-31.732,0-40.8,0-122.399,0
	c-81.6,0-90.667,0-122.4,0C239.6,54.4,226,58.934,212.4,63.467c-9.066,9.066-22.667,18.133-31.733,27.2
	c-9.066,9.067-18.133,22.667-22.667,36.267c-4.533,9.067-9.067,27.2-9.067,54.4c0,31.733,0,40.8,0,122.4c0,81.6,0,90.667,0,122.399
	c0,31.733,4.534,45.334,9.067,58.934c4.533,13.601,13.6,27.2,22.667,36.267c9.067,9.067,22.667,18.134,36.267,22.667
	c9.067,4.533,27.2,9.066,54.4,9.066c31.733,0,40.8,0,122.4,0c81.6,0,90.667,0,122.399,0c31.733,0,45.334-4.533,58.934-9.066
	c13.601-4.533,22.667-13.6,36.267-22.667c9.067-9.066,18.134-22.666,22.667-36.267c4.533-9.066,9.066-27.2,9.066-58.934
	c0-31.732,0-40.8,0-122.399C643.066,222.133,647.6,213.066,643.066,181.333z M561.467,181.333c-22.667,0-40.8-18.133-40.8-40.8
	c0-18.133,18.133-36.267,36.267-36.267c18.133,0,36.267,18.133,36.267,36.267C597.733,163.2,579.6,181.333,561.467,181.333z
	 M398.267,462.4c-86.133,0-158.667-72.534-158.667-158.667c0-86.133,72.533-158.667,158.667-158.667
	c86.134,0,158.667,72.534,158.667,158.667C556.934,389.866,484.4,462.4,398.267,462.4z M398.267,204
	c-54.4,0-99.733,45.333-99.733,99.733c0,54.399,40.8,104.267,99.733,104.267C457.2,408,498,362.667,498,308.267
	C498,253.867,452.667,204,398.267,204z"/>
</svg>
