<?xml version="1.0" encoding="utf-8"?>
<!-- Generator: Adobe Illustrator 17.1.0, SVG Export Plug-In . SVG Version: 6.00 Build 0)  -->
<!DOCTYPE svg PUBLIC "-//W3C//DTD SVG 1.1//EN" "http://www.w3.org/Graphics/SVG/1.1/DTD/svg11.dtd">
<svg version="1.1" id="Layer_1" xmlns="http://www.w3.org/2000/svg" xmlns:xlink="http://www.w3.org/1999/xlink" x="0px" y="0px"
	 viewBox="0 0 78.6 24.9" enable-background="new 0 0 78.6 24.9" xml:space="preserve">
<g>
	<g>
		<path fill="#54C3BF" d="M-9.4,7.4c-2.9,0-4.6,1.1-5.5,2.7h-0.1V0H-18v24.5h2.9v-2.4h0.1c0.8,1.2,2.7,2.7,5.7,2.7
			c5,0,7.1-4.4,7.1-9C-2.2,11.4-4.5,7.4-9.4,7.4z M-10,22.4c-3.5,0-4.9-3.4-4.9-6.2c0-3.1,1.6-6.3,4.9-6.3c3.3,0,4.6,3.2,4.6,6.2
			C-5.4,18.7-6.7,22.4-10,22.4z M8.5,7.4C3.4,7.4,0,11.1,0,16.2c0,4.8,3.5,8.7,8.5,8.7c5,0,8.4-4,8.4-8.7
			C16.9,11.1,13.5,7.4,8.5,7.4z M8.5,22.4c-3.6,0-5.2-3.3-5.2-6.2c0-3.2,1.9-6.2,5.2-6.2c3.3,0,5.2,3.1,5.2,6.2
			C13.7,19.1,12.1,22.4,8.5,22.4z M37.3,21.6L37.3,21.6L33.1,7.8h-3.6l-4.2,13.8h-0.1L21.4,7.8H18l5.3,16.7h3.6l4.2-14h0.1l4.3,14
			H39l5.3-16.7h-3L37.3,21.6z M53.2,7.4c-4.7,0-7.8,3.5-7.8,8.4c0,5.4,2.7,9,8.6,9c2.7,0,4.1-0.7,5.2-1.1v-3.1
			c-0.7,0.6-3.1,1.7-5.1,1.7c-2.9,0-5.5-2.3-5.5-5.5h11.9C60.6,11.5,58.8,7.4,53.2,7.4z M48.7,14.6c0.2-2.2,1.5-4.6,4.5-4.6
			c2.6,0,4.1,2.1,4.1,4.6H48.7z M72.3,7.4c-2.3,0-4.5,1.1-5.4,3h-0.1V7.8h-3v16.7h3.1v-7.7c0-4,1.6-6.9,5.1-6.9
			c2.7,0.2,3.5,2.1,3.5,5.9v8.6h3.1v-9.9C78.6,10.1,76.6,7.4,72.3,7.4z"/>
	</g>
</g>
</svg>
