<?xml version="1.0" encoding="utf-8"?>
<!-- Generator: Adobe Illustrator 17.1.0, SVG Export Plug-In . SVG Version: 6.00 Build 0)  -->
<!DOCTYPE svg PUBLIC "-//W3C//DTD SVG 1.1//EN" "http://www.w3.org/Graphics/SVG/1.1/DTD/svg11.dtd">
<svg version="1.1" id="Layer_1" xmlns="http://www.w3.org/2000/svg" xmlns:xlink="http://www.w3.org/1999/xlink" x="0px" y="0px"
	 viewBox="0 0 29.3 25.6" enable-background="new 0 0 29.3 25.6" xml:space="preserve">
<g>
	<g>
		<path fill="#FFFFFF" d="M26.9,14.9V5.3c0-2.7-1.2-5.3-4.4-5.3C19.7,0,18,1.5,16,2.9C15.5,0.9,14,0,12,0C9.3,0,7.6,1.3,5.6,2.8V0.5
			C5.6,0.2,5.5,0,5.3,0C5.1,0,4.9,0,4.6,0.2C4.4,0.3,2.4,1,0.6,1.5v0.6c1.4,0.7,1.9,1,1.9,2.6v10.1c0,1.2-0.7,1.2-1.8,1.2H0v1
			c1.5,0,2.8-0.1,4.1-0.1c1.3,0,2.7,0.1,4,0.1v-1H7.4c-1,0-1.9,0-1.9-1.2V3.8C6.4,3.2,8.5,2,10,2c2.8,0,3.3,2.2,3.3,4.6v8.3
			c0,1.2-0.7,1.2-1.8,1.2h-0.7v1c1.3,0,2.7-0.1,4-0.1c1.3,0,2.7,0.1,4,0.1v-1h-0.7c-1,0-1.9,0-1.9-1.2V3.8c0.9-0.6,3-1.8,4.4-1.8
			c2.8,0,3.3,2.2,3.3,4.6v8.3c0,1.2-0.7,1.2-1.8,1.2h-0.7v1c1.3,0,2.7-0.1,4-0.1c1.3,0,2.7,0.1,3.8,0.1v-1h-0.6
			C27.7,16.1,26.9,16.1,26.9,14.9z M40.6,14.9c-4.1,0-6.5-3.4-6.5-7.3c0-2.8,1.7-6.4,4.9-6.4c3.5,0,3.4,3,5,3c0.9,0,1.4-0.8,1.4-1.6
			c0-2-3.1-2.6-5-2.6c-5.4,0-9.3,4.5-9.3,9.9c0,4,3.5,7.7,7.4,7.7c3,0,5.5-1.8,7.3-3.9l-0.6-0.6C43.8,14.2,42.5,14.9,40.6,14.9z
			 M59.5,14.7c-1.5,0-3.3,0-5.2,0c-2.5,0-2.6-1.2-2.6-1.7c0-0.9,0.4-1.4,1.1-1.9c0.7,0.2,1.5,0.2,2.1,0.2c4.6,0,6.9-3,6.9-5.8
			c0-1-0.3-2.1-1-2.8l3.7,0.2V1c-1,0.1-1.5,0.2-2.2,0.2c-1.5,0-2.6-0.3-3.6-0.6C57.8,0.3,56.6,0,55.4,0c-4.6,0-7,2.5-7,5.8
			c0,2.5,1.4,3.9,3.5,5c-0.5,0.5-2.1,1.2-3.1,1.9c-0.1,0.4-0.1,0.8-0.1,1.2c0,1.7,1.7,2.8,3.3,3.3v0.1c-2.3,0.5-4.4,1.9-4.4,4.3
			c0,2,2.3,4.2,7.1,4.2c8,0,9.9-5.7,9.9-7.2C64.6,15.6,62.7,14.7,59.5,14.7z M51.7,5.2c0-2,1-4.3,3.3-4.3c2.6,0,3.8,2.6,3.8,4.9
			c0,2.3-1.1,4.4-3.6,4.4C52.6,10.3,51.7,7.4,51.7,5.2z M55.3,24.4c-2.6,0-4.9-1.2-4.9-3.8c0-3.5,3.8-3.5,6.2-3.5c2,0,5.3,0.3,5.3,3
			C61.8,23.5,57.6,24.4,55.3,24.4z M81.1,15.6c-0.8,0-1.3-0.6-1.3-2.1V3.1c0-2.1-2.9-3.1-4.6-3.1c-1.4,0-2.1,0.5-3.4,1.2
			c-2.6,1.3-4.3,2.3-4.3,4.3c0,0.3,0.1,0.7,0.7,0.7c0.9,0,2.1-0.5,2.1-1.6C70.4,3,71.5,2,73.1,2c2.4,0,3.6,1.1,3.6,3.2v2.5
			C68.7,10.5,67.2,11,67,14c0,2,1.6,3.6,4,3.6c2.3,0,4-1.2,5.8-2.8c0.1,1.3,0.8,2.8,2.3,2.8c1.5,0,2.7-1,3.7-2L82.5,15
			C82.1,15.4,81.6,15.6,81.1,15.6z M76.8,13.7c-1.2,1.1-2.4,2.2-4.1,2.2c-1.5,0-2.7-1.2-2.7-2.7c0-2.8,4.9-3.7,6.8-4.4V13.7z
			 M95.6,0c-2.3,0-3.8,2.4-4.8,3.9h-0.1V0.5c0-0.4-0.1-0.5-0.3-0.5c-0.3,0-1.8,1-4.6,2.1v0.6c0.6,0.3,1.9,0.5,1.9,1.7v10.5
			c0,1.2-0.7,1.2-1.8,1.2h-1v1c1.3,0,2.9-0.1,4.4-0.1c1.6,0,3.2,0,5.2,0.1v-1h-2.1c-1,0-1.8,0-1.8-1.2V6.1c0-2.2,2.1-3.1,2.7-3.1
			c1.3,0,1.3,0.9,2.5,0.9c1,0,1.8-0.9,1.8-1.9C97.8,0.6,96.6,0,95.6,0z M110.2,0c-2.3,0-3.8,2.4-4.8,3.9h-0.1V0.5
			c0-0.4-0.1-0.5-0.3-0.5c-0.3,0-1.8,1-4.6,2.1v0.6c0.6,0.3,1.9,0.5,1.9,1.7v10.5c0,1.2-0.7,1.2-1.8,1.2h-1v1c1.3,0,2.9-0.1,4.4-0.1
			c1.6,0,3.2,0,5.2,0.1v-1h-2.1c-1,0-1.8,0-1.8-1.2V6.1c0-2.2,2.1-3.1,2.7-3.1c1.3,0,1.3,0.9,2.5,0.9c1,0,1.8-0.9,1.8-1.9
			C112.3,0.6,111.1,0,110.2,0z M128.4,0.6c-1.2,0-2.4,0-3.5-0.1v1c0.9,0,2.1,0,2.1,1.6c0,1-2.9,7.3-3.7,9.5h-0.1
			c-0.4-1.5-3.8-9-3.8-10.1c0-1,1.3-0.9,2.1-1v-1c-1.1,0-2.2,0.1-3.4,0.1c-1.5,0-2.9,0-4.3-0.1v1c1.2-0.1,1.8,0.5,2.4,1.4
			c0.4,0.9,5.4,13.5,5.4,13.6c0,0-0.8,2.1-2.6,6c-0.5-0.5-0.9-0.6-1.5-0.6c-1,0-1.8,1-1.8,1.9c0,1,0.7,1.8,1.8,1.8
			c1.1,0,1.8-0.6,2.4-1.9l8.4-19.8c0.7-1.4,1.2-2.4,3-2.4v-1C130.3,0.6,129.4,0.6,128.4,0.6z"/>
	</g>
</g>
</svg>
