<?xml version="1.0" encoding="utf-8"?>
<!-- Generator: Adobe Illustrator 17.1.0, SVG Export Plug-In . SVG Version: 6.00 Build 0)  -->
<!DOCTYPE svg PUBLIC "-//W3C//DTD SVG 1.1//EN" "http://www.w3.org/Graphics/SVG/1.1/DTD/svg11.dtd">
<svg version="1.1" id="Layer_1" xmlns="http://www.w3.org/2000/svg" xmlns:xlink="http://www.w3.org/1999/xlink" x="0px" y="0px"
	 viewBox="0 0 15.8 24.9" enable-background="new 0 0 15.8 24.9" xml:space="preserve">
<g>
	<g>
		<path fill="#54C3BF" d="M8.6,7.4c-2.9,0-4.6,1.1-5.5,2.7H3.1V0H0v24.5h2.9v-2.4H3c0.8,1.2,2.7,2.7,5.7,2.7c5,0,7.1-4.4,7.1-9
			C15.8,11.4,13.5,7.4,8.6,7.4z M8,22.4c-3.5,0-4.9-3.4-4.9-6.2c0-3.1,1.6-6.3,4.9-6.3c3.3,0,4.6,3.2,4.6,6.2
			C12.6,18.7,11.2,22.4,8,22.4z M26.5,7.4c-5.1,0-8.5,3.7-8.5,8.7c0,4.8,3.5,8.7,8.5,8.7c5,0,8.4-4,8.4-8.7
			C34.9,11.1,31.5,7.4,26.5,7.4z M26.5,22.4c-3.6,0-5.2-3.3-5.2-6.2c0-3.2,1.9-6.2,5.2-6.2c3.3,0,5.2,3.1,5.2,6.2
			C31.7,19.1,30.1,22.4,26.5,22.4z M55.3,21.6L55.3,21.6L51.1,7.8h-3.6l-4.2,13.8h-0.1L39.3,7.8H36l5.3,16.7h3.6l4.2-14h0.1l4.3,14
			H57l5.3-16.7h-3L55.3,21.6z M71.2,7.4c-4.7,0-7.8,3.5-7.8,8.4c0,5.4,2.7,9,8.6,9c2.7,0,4.1-0.7,5.2-1.1v-3.1
			c-0.7,0.6-3.1,1.7-5.1,1.7c-2.9,0-5.5-2.3-5.5-5.5h11.9C78.6,11.5,76.8,7.4,71.2,7.4z M66.7,14.6c0.2-2.2,1.5-4.6,4.5-4.6
			c2.6,0,4.1,2.1,4.1,4.6H66.7z M90.3,7.4c-2.3,0-4.5,1.1-5.4,3h-0.1V7.8h-3v16.7h3.1v-7.7c0-4,1.6-6.9,5.1-6.9
			c2.7,0.2,3.5,2.1,3.5,5.9v8.6h3.1v-9.9C96.5,10.1,94.6,7.4,90.3,7.4z"/>
	</g>
</g>
</svg>
