<?xml version="1.0" encoding="utf-8"?>
<!-- Generator: Adobe Illustrator 17.1.0, SVG Export Plug-In . SVG Version: 6.00 Build 0)  -->
<!DOCTYPE svg PUBLIC "-//W3C//DTD SVG 1.1//EN" "http://www.w3.org/Graphics/SVG/1.1/DTD/svg11.dtd">
<svg version="1.1" id="Layer_1" xmlns="http://www.w3.org/2000/svg" xmlns:xlink="http://www.w3.org/1999/xlink" x="0px" y="0px"
	 viewBox="0 0 100.1 25.6" enable-background="new 0 0 100.1 25.6" xml:space="preserve">
<g>
	<g>
		<path fill="#FFFFFF" d="M-4.3,14.9V5.3C-4.3,2.5-5.5,0-8.7,0c-2.7,0-4.4,1.5-6.4,2.9c-0.5-1.9-2-2.9-4-2.9c-2.7,0-4.4,1.3-6.5,2.8
			V0.5c0-0.3-0.1-0.5-0.3-0.5c-0.2,0-0.4,0-0.7,0.2c-0.2,0.1-2.2,0.8-4,1.3v0.6c1.4,0.7,1.9,1,1.9,2.6v10.1c0,1.2-0.7,1.2-1.8,1.2
			h-0.8v1c1.5,0,2.8-0.1,4.1-0.1c1.3,0,2.7,0.1,4,0.1v-1h-0.7c-1,0-1.9,0-1.9-1.2V3.8c0.9-0.6,3-1.8,4.4-1.8c2.8,0,3.3,2.2,3.3,4.6
			v8.3c0,1.2-0.7,1.2-1.8,1.2h-0.7v1c1.3,0,2.7-0.1,4-0.1c1.3,0,2.7,0.1,4,0.1v-1H-13c-1,0-1.9,0-1.9-1.2V3.8C-14,3.2-12,2-10.5,2
			c2.8,0,3.3,2.2,3.3,4.6v8.3c0,1.2-0.7,1.2-1.8,1.2h-0.7v1c1.3,0,2.7-0.1,4-0.1c1.3,0,2.7,0.1,3.8,0.1v-1h-0.6
			C-3.4,16.1-4.3,16.1-4.3,14.9z M9.5,14.9C5.5,14.9,3,11.5,3,7.6c0-2.8,1.7-6.4,4.9-6.4c3.5,0,3.4,3,5,3c0.9,0,1.4-0.8,1.4-1.6
			c0-2-3.1-2.6-5-2.6C3.9,0,0,4.5,0,9.9c0,4,3.5,7.7,7.4,7.7c3,0,5.5-1.8,7.3-3.9l-0.6-0.6C12.7,14.2,11.4,14.9,9.5,14.9z
			 M28.3,14.7c-1.5,0-3.3,0-5.2,0c-2.5,0-2.6-1.2-2.6-1.7c0-0.9,0.4-1.4,1.1-1.9c0.7,0.2,1.5,0.2,2.1,0.2c4.6,0,6.9-3,6.9-5.8
			c0-1-0.3-2.1-1-2.8l3.7,0.2V1c-1,0.1-1.5,0.2-2.2,0.2c-1.5,0-2.6-0.3-3.6-0.6C26.7,0.3,25.4,0,24.3,0c-4.6,0-7,2.5-7,5.8
			c0,2.5,1.4,3.9,3.5,5c-0.5,0.5-2.1,1.2-3.1,1.9c-0.1,0.4-0.1,0.8-0.1,1.2c0,1.7,1.7,2.8,3.3,3.3v0.1c-2.3,0.5-4.4,1.9-4.4,4.3
			c0,2,2.3,4.2,7.1,4.2c8,0,9.9-5.7,9.9-7.2C33.5,15.6,31.6,14.7,28.3,14.7z M20.5,5.2c0-2,1-4.3,3.3-4.3c2.6,0,3.8,2.6,3.8,4.9
			c0,2.3-1.1,4.4-3.6,4.4C21.5,10.3,20.5,7.4,20.5,5.2z M24.2,24.4c-2.6,0-4.9-1.2-4.9-3.8c0-3.5,3.8-3.5,6.2-3.5c2,0,5.3,0.3,5.3,3
			C30.7,23.5,26.4,24.4,24.2,24.4z M50,15.6c-0.8,0-1.3-0.6-1.3-2.1V3.1c0-2.1-2.9-3.1-4.6-3.1c-1.4,0-2.1,0.5-3.4,1.2
			c-2.6,1.3-4.3,2.3-4.3,4.3c0,0.3,0.1,0.7,0.7,0.7c0.9,0,2.1-0.5,2.1-1.6C39.3,3,40.4,2,42,2c2.4,0,3.6,1.1,3.6,3.2v2.5
			C37.6,10.5,36,11,35.9,14c0,2,1.6,3.6,4,3.6c2.3,0,4-1.2,5.8-2.8c0.1,1.3,0.8,2.8,2.3,2.8c1.5,0,2.7-1,3.7-2L51.4,15
			C51,15.4,50.5,15.6,50,15.6z M45.6,13.7c-1.2,1.1-2.4,2.2-4.1,2.2c-1.5,0-2.7-1.2-2.7-2.7c0-2.8,4.9-3.7,6.8-4.4V13.7z M64.5,0
			c-2.3,0-3.8,2.4-4.8,3.9h-0.1V0.5c0-0.4-0.1-0.5-0.3-0.5c-0.3,0-1.8,1-4.6,2.1v0.6c0.6,0.3,1.9,0.5,1.9,1.7v10.5
			c0,1.2-0.7,1.2-1.8,1.2h-1v1c1.3,0,2.9-0.1,4.4-0.1c1.6,0,3.2,0,5.2,0.1v-1h-2.1c-1,0-1.8,0-1.8-1.2V6.1c0-2.2,2.1-3.1,2.7-3.1
			c1.3,0,1.3,0.9,2.5,0.9c1,0,1.8-0.9,1.8-1.9C66.6,0.6,65.4,0,64.5,0z M79,0c-2.3,0-3.8,2.4-4.8,3.9h-0.1V0.5
			c0-0.4-0.1-0.5-0.3-0.5c-0.3,0-1.8,1-4.6,2.1v0.6c0.6,0.3,1.9,0.5,1.9,1.7v10.5c0,1.2-0.7,1.2-1.8,1.2h-1v1c1.3,0,2.9-0.1,4.4-0.1
			c1.6,0,3.2,0,5.2,0.1v-1H76c-1,0-1.8,0-1.8-1.2V6.1c0-2.2,2.1-3.1,2.7-3.1c1.3,0,1.3,0.9,2.5,0.9c1,0,1.8-0.9,1.8-1.9
			C81.2,0.6,80,0,79,0z M97.3,0.6c-1.2,0-2.4,0-3.5-0.1v1c0.9,0,2.1,0,2.1,1.6c0,1-2.9,7.3-3.7,9.5h-0.1c-0.4-1.5-3.8-9-3.8-10.1
			c0-1,1.3-0.9,2.1-1v-1c-1.1,0-2.2,0.1-3.4,0.1c-1.5,0-2.9,0-4.3-0.1v1c1.2-0.1,1.8,0.5,2.4,1.4c0.4,0.9,5.4,13.5,5.4,13.6
			c0,0-0.8,2.1-2.6,6C87.3,22,86.9,22,86.3,22c-1,0-1.8,1-1.8,1.9c0,1,0.7,1.8,1.8,1.8c1.1,0,1.8-0.6,2.4-1.9l8.4-19.8
			c0.7-1.4,1.2-2.4,3-2.4v-1C99.2,0.6,98.2,0.6,97.3,0.6z"/>
	</g>
</g>
</svg>
