<?xml version="1.0" encoding="utf-8"?>
<!-- Generator: Adobe Illustrator 15.0.0, SVG Export Plug-In . SVG Version: 6.00 Build 0)  -->
<!DOCTYPE svg PUBLIC "-//W3C//DTD SVG 1.1//EN" "http://www.w3.org/Graphics/SVG/1.1/DTD/svg11.dtd">
<svg version="1.1" id="Layer_1" xmlns="http://www.w3.org/2000/svg" xmlns:xlink="http://www.w3.org/1999/xlink" x="0px" y="0px"
	 width="200px" height="200px" viewBox="0 0 200 200" enable-background="new 0 0 200 200" xml:space="preserve">
<path d="M192.631,60c1.053-1.053,2.105-2.105,2.105-4.21c0-1.053-1.053-3.158-2.105-4.21c-2.104-2.105-6.314-2.105-8.42,0
	l-85.264,84.21L13.684,51.58c-2.105-2.105-6.316-2.105-8.421,0C4.21,53.684,4.21,57.895,7.369,60l88.421,88.421
	c2.105,2.104,6.315,2.104,8.421,0L192.631,60z"/>
<path d="M192.631,93c1.053-1.053,2.105-2.105,2.105-4.21c0-1.053-1.053-3.158-2.105-4.21c-2.104-2.105-6.314-2.105-8.42,0
	l-85.264,84.21L13.684,84.58c-2.105-2.105-6.316-2.105-8.421,0C4.21,86.684,4.21,90.895,7.369,93l88.421,88.421
	c2.105,2.104,6.315,2.104,8.421,0L192.631,93z"/>
</svg>
