<svg xmlns="http://www.w3.org/2000/svg" viewBox="0 0 900 292.5"><path d="M900 292.5H638.1V289c26.3 0 47.8-10.9 62.1-31.7 12.5-18.1 19.3-43.4 19.3-71.3 0-26.4-7.2-50.3-20.3-67.3C684.7 99.9 663.4 90 637.7 90c-29.2 0-50.2 10.2-62.7 30.2l-1.5.8h-.8l-1.8-1.8V3.5h-32.2v282.6l-1.8 1.8c-6.8 0-21.1-.2-36.2-.4-15.8-.2-32.1-.5-40.2-.5-9.7 0-14 .2-19.4.4-3.4.1-7.3.3-13.3.5l-1.8-1.8v-11.3l1.8-1.8c11.8 0 12.8 0 12.8-12.6v-96c0-16.4-2.1-27.9-6.6-36.1-5.7-10.5-15.4-15.5-29.5-15.5-16 0-39 12.8-49.6 20v127.7c0 12.6 2.1 12.6 14.1 12.6l1.8 1.8v11.3L369 288c-7.6 0-11.9-.2-16-.4-4.2-.2-8.5-.4-16.3-.4-9.7 0-14 .2-19.5.4-3.4.1-7.3.3-13.3.5l-1.8-1.8V275l1.8-1.8h.7c5.5 0 8.9 0 10.3-1.3 1.5-1.4 1.8-5.2 1.8-11.3v-96c0-16.4-2.1-27.9-6.6-36.1-5.7-10.5-15.4-15.5-29.5-15.5-15 0-37.5 11.8-49.6 20v127.7c0 6.8.6 9.9 2.1 11.2 1.6 1.4 5.3 1.4 10.8 1.4h.7l1.8 1.8v11.3l-1.8 1.8c-7.6 0-11.8-.2-15.8-.4-4.1-.2-8.3-.4-16.1-.4-9.4 0-13.6.2-19.4.4-3.8.2-8 .3-14.8.5l-1.8-1.8v-11.3l1.8-1.8h2.1c5.5 0 8.8 0 10.2-1.3 1.5-1.4 1.8-5.2 1.8-11.3v-118c0-17.2-4.9-19.8-19.6-27.7l-1.7-.9H0v-3.5h171.7l.8.2 2.1 1.1c14.7 7.9 21.4 11.5 21.4 30.8v117.8c0 15.6-2.7 16.1-15.5 16.1h-.3v7.7c5.7-.2 9.5-.3 12.9-.4 5.6-.2 10-.4 19.5-.4 7.9 0 12.2.2 16.3.5 3.8.2 7.5.4 13.9.4v-7.7c-5.9 0-9.5-.1-12-2.2-2.9-2.4-3.4-6.7-3.4-13.9V131.9l.8-1.5c10.5-7.3 35-21.2 52.4-21.2 15.3 0 26.3 5.8 32.6 17.4 4.8 8.8 7.1 20.8 7.1 37.8v96c0 15.1-2.6 16.1-14.6 16.1v7.7c4.9-.1 8.4-.3 11.4-.4 5.5-.2 9.9-.4 19.7-.4 7.9 0 12.3.2 16.5.5 3.9.2 7.7.4 14.1.4v-7.7c-5.4 0-9.1-.2-11.8-2.1-3.4-2.5-4.1-7.4-4.1-14V131.9l.8-1.5c10.6-7.3 35.2-21.2 52.4-21.2 15.3 0 26.3 5.8 32.6 17.4 4.8 8.8 7.1 20.8 7.1 37.8v96c0 7.2-.5 11.5-3.3 13.9-2.4 2-5.8 2.2-11.2 2.2v7.7c4.9-.1 8.4-.3 11.4-.4 5.5-.2 9.8-.4 19.6-.4 8.1 0 24.4.2 40.2.5 13.9.2 27.1.4 34.4.4V1.8l1.8-1.8H573l1.8 1.8v112.8c13.3-18.7 34.6-28.1 63.2-28.1 26.8 0 49.1 10.4 64.3 30.1 13.6 17.6 21.1 42.3 21.1 69.5 0 28.6-7.1 54.6-20 73.3-10.2 14.7-23.7 24.7-40 29.6H900v3.5z"/></svg>
