<svg xmlns="http://www.w3.org/2000/svg" viewBox="-433.3 385.4 600 127.4"><path fill="none" stroke="#231F20" stroke-width="5" stroke-linejoin="bevel" stroke-miterlimit="10" d="M166.7 510.3h-218c24.7 0 35.2-21.8 35.2-44.3 0-22-11.6-41.4-35.3-41.4-14.3 0-22.5 5.6-27.1 13.2h-.3V388H-94v120.4c-5.9 0-25.6-.4-32.3-.4-6.6 0-7.2.2-13.9.4v-4.8c5.1 0 6.1 0 6.1-6.1v-40.7c0-11.6-2.4-22.6-16-22.6-7.2 0-17.5 5.9-21.7 8.8v54.5c0 6.1 1.6 6.1 6.7 6.1v4.8c-6.4 0-7.1-.4-13.7-.4s-7.3.2-13.9.4v-4.8h.3c5.2 0 5.9 0 5.9-6.1v-40.7c0-11.6-2.4-22.6-16-22.6-7.2 0-17.5 5.9-21.7 8.8v54.5c0 6.1 1 6.1 6.2 6.1h.3v4.8c-6.4 0-6.9-.4-13.5-.4s-7.3.2-14.4.4v-4.8h.9c5.2 0 5.8 0 5.8-6.1v-49.7c0-8.1-2.8-9.2-9.6-12.9h-184.8"/></svg>
