<?xml version="1.0" encoding="utf-8"?>
<!-- Generator: Adobe Illustrator 17.1.0, SVG Export Plug-In . SVG Version: 6.00 Build 0)  -->
<!DOCTYPE svg PUBLIC "-//W3C//DTD SVG 1.1//EN" "http://www.w3.org/Graphics/SVG/1.1/DTD/svg11.dtd">
<svg version="1.1" id="Layer_1" xmlns="http://www.w3.org/2000/svg" xmlns:xlink="http://www.w3.org/1999/xlink" x="0px" y="0px"
	 viewBox="-1136 202.5 4720.8 773.8" enable-background="new -1136 202.5 4720.8 773.8" xml:space="preserve">
<path d="M3584.8,976.3H1688.1v-9.3c69.6,0,126.5-28.8,164.3-83.9c33.1-47.9,51.1-114.8,51.1-188.6c0-69.8-19-133.1-53.7-178
	c-38.4-49.7-94.7-75.9-162.7-75.9c-77.3,0-132.8,27-165.9,79.9l-4,2.1h-2.1l-4.8-4.8V211.8h-85.2v747.6l-4.8,4.8
	c-18,0-55.8-0.5-95.8-1.1c-41.8-0.5-84.9-1.3-106.4-1.3c-25.7,0-37,0.5-51.3,1.1c-9,0.3-19.3,0.8-35.2,1.3l-4.8-4.8v-29.9l4.8-4.8
	c31.2,0,33.9,0,33.9-33.3v-254c0-43.4-5.6-73.8-17.5-95.5c-15.1-27.8-40.7-41-78-41c-42.3,0-103.2,33.9-131.2,52.9v337.8
	c0,33.3,5.6,33.3,37.3,33.3l4.8,4.8v29.9l-4.8,4.8c-20.1,0-31.5-0.5-42.3-1.1c-11.1-0.5-22.5-1.1-43.1-1.1c-25.7,0-37,0.5-51.6,1.1
	c-9,0.3-19.3,0.8-35.2,1.3l-4.8-4.8V930l4.8-4.8h1.9c14.6,0,23.5,0,27.2-3.4c4-3.7,4.8-13.8,4.8-29.9V638c0-43.4-5.6-73.8-17.5-95.5
	c-15.1-27.8-40.7-41-78-41c-39.7,0-99.2,31.2-131.2,52.9v337.8c0,18,1.6,26.2,5.6,29.6c4.2,3.7,14,3.7,28.6,3.7h1.9l4.8,4.8v29.9
	l-4.8,4.8c-20.1,0-31.2-0.5-41.8-1.1c-10.8-0.5-22-1.1-42.6-1.1c-24.9,0-36,0.5-51.3,1.1c-10.1,0.5-21.2,0.8-39.2,1.3l-4.8-4.8
	v-29.9l4.8-4.8h5.6c14.6,0,23.3,0,27-3.4c4-3.7,4.8-13.8,4.8-29.9V580.3c0-45.5-13-52.4-51.9-73.3l-4.5-2.4H-1136v-9.3H454.2
	l2.1,0.5l5.6,2.9c38.9,20.9,56.6,30.4,56.6,81.5v311.6c0,41.3-7.1,42.6-41,42.6h-0.8v20.4c15.1-0.5,25.1-0.8,34.1-1.1
	c14.8-0.5,26.5-1.1,51.6-1.1c20.9,0,32.3,0.5,43.1,1.3c10.1,0.5,19.8,1.1,36.8,1.1v-20.4c-15.6,0-25.1-0.3-31.7-5.8
	c-7.7-6.3-9-17.7-9-36.8V551.5l2.1-4c27.8-19.3,92.6-56.1,138.6-56.1c40.5,0,69.6,15.3,86.2,46c12.7,23.3,18.8,55,18.8,100v254
	c0,39.9-6.9,42.6-38.6,42.6v20.4c13-0.3,22.2-0.8,30.2-1.1c14.6-0.5,26.2-1.1,52.1-1.1c20.9,0,32.5,0.5,43.7,1.3
	c10.3,0.5,20.4,1.1,37.3,1.1v-20.4c-14.3,0-24.1-0.5-31.2-5.6c-9-6.6-10.8-19.6-10.8-37V551.5l2.1-4c28-19.3,93.1-56.1,138.6-56.1
	c40.5,0,69.6,15.3,86.2,46c12.7,23.3,18.8,55,18.8,100v254c0,19-1.3,30.4-8.7,36.8c-6.3,5.3-15.3,5.8-29.6,5.8v20.4
	c13-0.3,22.2-0.8,30.2-1.1c14.6-0.5,25.9-1.1,51.9-1.1c21.4,0,64.6,0.5,106.4,1.3c36.8,0.5,71.7,1.1,91,1.1V207.3l4.8-4.8h94.4
	l4.8,4.8v298.4c35.2-49.5,91.5-74.3,167.2-74.3c70.9,0,129.9,27.5,170.1,79.6c36,46.6,55.8,111.9,55.8,183.9
	c0,75.7-18.8,144.4-52.9,193.9c-27,38.9-62.7,65.3-105.8,78.3h1829.7V976.3L3584.8,976.3z"/>
</svg>
