<?xml version="1.0" encoding="utf-8"?>
<!-- Generator: Adobe Illustrator 15.0.0, SVG Export Plug-In . SVG Version: 6.00 Build 0)  -->
<!DOCTYPE svg PUBLIC "-//W3C//DTD SVG 1.1//EN" "http://www.w3.org/Graphics/SVG/1.1/DTD/svg11.dtd">
<svg version="1.1" id="Layer_1" xmlns="http://www.w3.org/2000/svg" xmlns:xlink="http://www.w3.org/1999/xlink" x="0px" y="0px"
	 width="612px" height="792px" viewBox="0 0 612 792" enable-background="new 0 0 612 792" xml:space="preserve">
<path d="M600.649,238.663C590.5,227.5,575.5,224.5,566.245,229.439L306.676,500.366h-0.18L44.927,229.439
	c-7.427-4.939-23.382,0.387-32.405,9.224s-8.31,29.319-2,35.629l281.182,284.182c4.219,4.221,10.439,6.49,14.659,6.812h0.446
	c4.219-0.321,10.439-2.592,14.657-6.812l281.184-286.182C608.623,266.318,610.799,249.826,600.649,238.663z"/>
<path d="M600.649,461.663C590.5,450.5,575.5,447.5,566.245,452.439L306.676,723.366h-0.18L44.927,452.439
	c-7.427-4.939-23.382,0.387-32.405,9.224s-8.31,29.319-2,35.629l281.182,284.182c4.219,4.221,10.439,6.49,14.659,6.812h0.446
	c4.219-0.321,10.439-2.592,14.657-6.812l281.184-286.182C608.623,489.318,610.799,472.826,600.649,461.663z"/>
</svg>
