<?xml version="1.0" encoding="utf-8"?>
<!-- Generator: Adobe Illustrator 20.1.0, SVG Export Plug-In . SVG Version: 6.00 Build 0)  -->
<svg version="1.1" id="Layer_1" xmlns="http://www.w3.org/2000/svg" xmlns:xlink="http://www.w3.org/1999/xlink" x="0px" y="0px"
	 viewBox="0 0 30 30" style="enable-background:new 0 0 30 30;" xml:space="preserve">
<style type="text/css">
	.st0{fill:#4BCCC5;}
</style>
<title>Menu</title>
<desc>Created with Sketch.</desc>
<g id="Symbols">
	<g id="Menu">
		<g>
			<path id="Fill-1" class="st0" d="M10,0H2.5C1.1,0,0,1.1,0,2.5V10c0,1.4,1.1,2.5,2.5,2.5H10c1.4,0,2.5-1.1,2.5-2.5V2.5
				C12.4,1.1,11.3,0,10,0"/>
			<path id="Fill-3" class="st0" d="M27.4,0h-7.5c-1.4,0-2.5,1.1-2.5,2.5V10c0,1.4,1.1,2.5,2.5,2.5h7.5c1.4,0,2.5-1.1,2.5-2.5V2.5
				C29.9,1.1,28.8,0,27.4,0"/>
			<path id="Fill-5" class="st0" d="M10,17.4H2.5c-1.4,0-2.5,1.1-2.5,2.5v7.5c0,1.4,1.1,2.5,2.5,2.5H10c1.4,0,2.5-1.1,2.5-2.5v-7.5
				C12.4,18.5,11.3,17.4,10,17.4"/>
			<path id="Fill-7" class="st0" d="M27.4,17.4h-7.5c-1.4,0-2.5,1.1-2.5,2.5v7.5c0,1.4,1.1,2.5,2.5,2.5h7.5c1.4,0,2.5-1.1,2.5-2.5
				v-7.5C29.9,18.5,28.8,17.4,27.4,17.4"/>
		</g>
	</g>
</g>
</svg>
