<?xml version="1.0" encoding="utf-8"?>
<!-- Generator: Adobe Illustrator 17.1.0, SVG Export Plug-In . SVG Version: 6.00 Build 0)  -->
<!DOCTYPE svg PUBLIC "-//W3C//DTD SVG 1.1//EN" "http://www.w3.org/Graphics/SVG/1.1/DTD/svg11.dtd">
<svg version="1.1" id="Layer_1" xmlns="http://www.w3.org/2000/svg" xmlns:xlink="http://www.w3.org/1999/xlink" x="0px" y="0px"
	 viewBox="0 0 100 100" enable-background="new 0 0 100 100" xml:space="preserve">
<path fill="#959595" d="M64,41l-3.7-2.7l-2.7,3.7c-0.2-1.3-0.5-2.2-0.5-2.4c-0.2-0.5-1.4-1.7-1.4-1.9c-0.3-1.4-0.1-3.2-1.7-3.9
	c-1.1-0.6-1.4-1.1-1.7-2.2c0,0,0.8-0.8,0.6-1.6c-0.3-0.8-0.9-0.9-0.9-2.2v-0.8l3.9-0.3l-3.9-0.7c0-0.1,0-0.2-0.1-0.3l3.3-2.2
	l-3.7,1.1c-0.1-0.1-0.2-0.3-0.3-0.4l1.9-3.1l-3,2.5c-0.3-0.1-0.5-0.1-0.9-0.1L48.5,20l-0.6,3.6c-0.3,0.1-0.6,0.1-0.8,0.3l-3.1-2.7
	l2.1,3.5c0,0,0,0.1-0.1,0.1l-3.8-0.5c0-1.8-1-8.5-1.7-10.1l-0.2-0.7l0.6-2h0.8V8.7h-1.2l0-1.1c1.3-0.6,0-5.4,0-5.4
	c-0.2,1.1-0.3,1.4-0.3,1.4c-0.4-0.9,0-1.8,0-1.8c-1.1,1-1.1,1.7-1.2,1.8c0.1-0.3,0-2,0-2c-0.3,0.7-2,3.4-2.2,4.5
	c-0.2,1.2,0.5,1.7,0.5,1.7l0,1.1h-1v2.7h0.8l0.6,2c-0.3,0.8,0,1.8,0.4,2.3c0.4,0.4,0.3,2.1,0.3,2.7c0.2,1.5,0.1,2.2,0.3,3.7
	c0.2,0.8,1,2.4,1,3.3l-0.3,1.9c0,0,0,0,0,0c-0.5,0.6-1.6,2.5-0.7,5.3c0,0-0.5,0.8,0.3,1.3c0,0-0.4,1.5,1.3,2.5
	c0.8,0.4,0.5,1.8,0.3,3c-0.2,0.9,0.5,2.1,0.9,2.6c-0.1,0.3-2.4,6.4-0.3,8.4c-0.1,0.4-3,4.5,0.4,5.8l0,13.2c0,0,1,0.6,0.7,2.2
	c-0.1,0.1-1.2,0.2-1.2,1.2c0,0.8,1.4,1.3,1.1,2.1c-0.2,0.7-2.4,1.7-2.4,2l0,1.7h-0.8v2.6h-0.9v2.6h0.9v4L37.7,91v4.9H36v2.6h26.5
	v-2.6h-1.7V91l-1.3-3.2v-4h1v-2.6h-1v-2.6h-1.2c-0.3-0.8-1.6-4.1-1.7-7.5c0,0,1.5-0.7,1.7-2c0.9-5.1-0.3-15.8-0.3-15.9
	c0.2-0.3,0.2-0.6,1-0.7c0.6-0.1,1.4-0.4,1.7-2c0.3-1.7,0-2.8,0-2.8s0.8,0.1,1.2-0.4c0.4-0.5,1.5-2.4,1.5-2.4s0.3-1-0.7-1.9L64,41z
	 M42.3,24.2l3.4,1.7c0,0.1,0,0.2-0.1,0.3l-2.4,0.3c0,0,0,0-0.1-0.1c-0.2-0.3-0.8-1.2-0.8-1.6V24.2z M43.8,85.1h-3.4v-1.4h3.4V85.1z
	 M44.1,29.7c0-0.2-0.3-0.8-0.2-0.8c0.1-0.4,0.3-1.3-0.3-1.9l2,0.3v0c0,0,0.3,2.5-0.5,2.9L44.1,29.7z M48.6,85.1h-3.4v-1.4h3.4V85.1z
	 M53.4,85.1h-3.4v-1.4h3.4V85.1z M58.1,83.8v1.4h-3.4v-1.4H58.1z"/>
</svg>
