<?xml version="1.0" encoding="utf-8"?>
<!-- Generator: Adobe Illustrator 17.1.0, SVG Export Plug-In . SVG Version: 6.00 Build 0)  -->
<!DOCTYPE svg PUBLIC "-//W3C//DTD SVG 1.1//EN" "http://www.w3.org/Graphics/SVG/1.1/DTD/svg11.dtd">
<svg version="1.1" id="Layer_1" xmlns="http://www.w3.org/2000/svg" xmlns:xlink="http://www.w3.org/1999/xlink" x="0px" y="0px"
	 viewBox="0 0 42 42" enable-background="new 0 0 42 42" xml:space="preserve">
<path fill-rule="evenodd" clip-rule="evenodd" fill="#54C3BF" d="M21,41.2C9.8,41.2,0.8,32.2,0.8,21S9.8,0.8,21,0.8
	S41.2,9.8,41.2,21S32.2,41.2,21,41.2z M21,2.7C10.9,2.7,2.7,10.9,2.7,21S10.9,39.3,21,39.3S39.3,31.1,39.3,21S31.1,2.7,21,2.7z
	 M31.3,21.9l-14.7,8.5c-0.2,0.1-0.3,0.1-0.5,0.1c-0.2,0-0.3,0-0.5-0.1c-0.3-0.2-0.5-0.5-0.5-0.9v-17c0-0.4,0.2-0.7,0.5-0.9
	c0.3-0.2,0.7-0.2,1,0l14.7,8.5c0.3,0.2,0.5,0.5,0.5,0.9S31.6,21.7,31.3,21.9z M17.1,14.2v13.6L28.9,21L17.1,14.2z"/>
</svg>
