<?xml version="1.0" encoding="utf-8"?>
<!-- Generator: Adobe Illustrator 16.0.4, SVG Export Plug-In . SVG Version: 6.00 Build 0)  -->
<!DOCTYPE svg PUBLIC "-//W3C//DTD SVG 1.1//EN" "http://www.w3.org/Graphics/SVG/1.1/DTD/svg11.dtd">
<svg version="1.1" id="Layer_1" xmlns="http://www.w3.org/2000/svg" xmlns:xlink="http://www.w3.org/1999/xlink" x="0px" y="0px"
	 width="288px" height="288px" viewBox="144 0 288 288" enable-background="new 144 0 288 288" xml:space="preserve">
<path d="M288,282.514c-76.8,0-138.514-61.714-138.514-138.514S211.2,5.486,288,5.486S426.515,67.2,426.515,144
	S364.8,282.514,288,282.514z M288,18.514c-69.257,0-125.486,56.229-125.486,125.486c0,69.258,56.229,125.486,125.486,125.486
	c69.258,0,125.485-56.229,125.485-125.486C413.485,74.743,357.258,18.514,288,18.514z M358.629,150.172l-100.8,58.285
	c-1.372,0.686-2.057,0.686-3.429,0.686s-2.057,0-3.429-0.686c-2.057-1.371-3.428-3.429-3.428-6.172V85.714
	c0-2.743,1.371-4.8,3.428-6.171c2.057-1.372,4.8-1.372,6.857,0l100.8,58.286c2.057,1.372,3.428,3.429,3.428,6.171
	C362.057,146.742,360.686,148.8,358.629,150.172z M261.257,97.372v93.257L342.172,144L261.257,97.372z"/>
</svg>
