<?xml version="1.0" encoding="utf-8"?>
<!-- Generator: Adobe Illustrator 17.1.0, SVG Export Plug-In . SVG Version: 6.00 Build 0)  -->
<!DOCTYPE svg PUBLIC "-//W3C//DTD SVG 1.1//EN" "http://www.w3.org/Graphics/SVG/1.1/DTD/svg11.dtd">
<svg version="1.1" id="Layer_1" xmlns="http://www.w3.org/2000/svg" xmlns:xlink="http://www.w3.org/1999/xlink" x="0px" y="0px"
	 viewBox="0 0 100 100" enable-background="new 0 0 100 100" xml:space="preserve">
<path fill="#959595" d="M43.9,17.3 M41.5,19 M89.8,77.8v4.4 M73.3,67.8v0.3 M96.6,55.7v17.3v2.1v10h-1.2v-1.1l-2.8-3l-2.8,3V85h-1.2
	v-8.8c-2.1-0.9-4.2-1.7-6.3-2.5c-5.5-2-11.1-3.7-16.8-5c-5.7-1.3-11.4-2.3-17.1-2.9c-0.8-0.1-1.5-0.1-2.3-0.2v28.8h-2.3V82.9
	l-5.7-6.1l-5.7,6.1v11.6h-2.3V65.7c-0.6,0-1.2,0.1-1.8,0.1c-5.7,0.5-11.5,1.5-17.1,2.9C10,69,4.3,70.2,3,70.5l3-3
	c1-0.4,3.4-1.5,4.4-1.8c0,0,0.1,0,0.1,0v-4c-1,1-6.5,4.9-7.5,5.8l4.4-4c1.1-1,2.1-1.9,3.1-2.9v-9.1c-0.9,1.3-1.9,2.7-2.9,4
	c-0.1,0.1-4.6,4-4.7,4.1l4.4-5.2c5.8-7.8,10.2-15.6,13.4-22.1c6.2-12.8,9-23.1,9.4-24.9V7.2V5.5h2.3v1.7h11.3V5.5h2.3v1.3
	c0.2,0,0.3,0.1,0.4,0.3c0,0.1,2.7,11.1,9.5,25.2c4.9,10,12.8,23.3,24.4,34.9c4.6-4,7-12,8.2-17.1v-1.5v-2.4v-0.8h0.9c0,0,0,0,0,0
	l0.3,0h0l0,0l0.3,0c0,0,0,0.3-0.1,0.8h5.5v-0.8h1.2l0.3,0C96.9,45.3,97.2,49.9,96.6,55.7z M15.7,56.5c-1.4,1.5-2.8,3-4.3,4.4v4.5
	c1.4-0.5,2.9-0.9,4.3-1.3V56.5z M15.7,43.5c-1.4,2.3-2.8,4.6-4.3,6.8v9.5c1.5-1.5,2.9-3,4.3-4.5V43.5z M20,51.7
	c-1.1,1.3-2.3,2.6-3.5,4v8.2c1.2-0.3,2.3-0.7,3.5-1V51.7z M20,35.7c-1.1,2.2-2.3,4.3-3.5,6.4v12.3c1.2-1.3,2.4-2.7,3.5-4V35.7z
	 M23.3,47.6c-0.8,1-1.7,2.1-2.6,3.1v11.9c0.9-0.2,1.7-0.4,2.6-0.6V47.6z M23.3,28.7c-0.6,1.3-1.2,2.6-1.8,3.9
	c-0.3,0.5-0.5,1-0.8,1.6v15.4c0.9-1.1,1.8-2.1,2.6-3.2V28.7z M26.3,43.8c-0.7,0.9-1.4,1.9-2.2,2.8v15.3c0.7-0.2,1.4-0.3,2.2-0.4
	V43.8z M26.3,21.8c-0.6,1.6-1.4,3.4-2.2,5.2v18.4c0.7-1,1.5-1.9,2.2-2.8V21.8z M28.9,40.2c-0.6,0.9-1.2,1.7-1.9,2.6v18.5
	c0.2,0,0.5-0.1,0.7-0.1c0.4-0.1,0.8-0.1,1.2-0.2V40.2z M28.9,14.5c-0.5,1.5-1.1,3.3-1.9,5.2v21.7c0.6-0.9,1.3-1.8,1.9-2.6V14.5z
	 M30.3,38.3c-0.2,0.3-0.4,0.5-0.5,0.8v21.8c0.2,0,0.4-0.1,0.5-0.1V38.3z M30.3,10.3c-0.2,0.5-0.3,1.1-0.5,1.8v25.6
	c0.2-0.3,0.4-0.5,0.5-0.8V12V10.3z M32.6,17.3c0,0.9,0.7,1.7,1.7,1.7h1.1c-1.1-2.3-2.1-4.4-2.8-6.1V17.3z M32.6,29.1
	c0,0.9,0.7,1.6,1.6,1.7c0.3-0.4,0.5-0.9,0.8-1.3c1.1-1.9,2.1-3.7,3.1-5.4c-0.6-1-1.1-2.1-1.6-3h-2.2c-0.9,0-1.7,0.8-1.7,1.7V29.1z
	 M38.4,23.2c0.4-0.7,0.8-1.5,1.1-2.2h-2.3C37.7,21.7,38,22.5,38.4,23.2z M38.4,24.9c-0.9,1.6-1.8,3.2-2.8,5
	c-0.2,0.3-0.4,0.6-0.5,0.9h6.7c-0.2-0.3-0.4-0.6-0.5-0.9C40.3,28.1,39.3,26.5,38.4,24.9z M36.6,75.1l-4.1-4.4v8.8L36.6,75.1z
	 M43.9,70.7l-4.1,4.4l4.1,4.4V70.7z M43.9,65.9c-0.1,0-0.3,0-0.4,0c-0.4,0-0.8,0-1.2-0.1l-1.1-0.1c-0.9-0.1-1.8-0.1-2.7-0.2
	c-0.9,0-1.8,0.1-2.7,0.2l-1.1,0.1c-0.4,0-0.8,0.1-1.2,0.1c-0.3,0-0.6,0-0.9,0v1.4l5.7,6.1l5.7-6.1V65.9z M43.9,48.1
	c0-1.8-0.7-3.2-1.7-3.2h-8c-0.9,0-1.7,1.4-1.7,3.2v11.5c0.3,0,0.6,0,0.8,0c0.4,0,0.7,0,1,0c0.3,0,0.7,0,1.1,0c1,0,2,0,2.9,0.1
	c1-0.1,1.9-0.1,2.9-0.1c0.4,0,0.8,0,1.1,0c0.3,0,0.7,0,1,0c0.1,0,0.3,0,0.4,0V48.1z M43.9,34.8c0-0.9-0.7-1.7-1.7-1.7h-8
	c-0.3,0-0.5,0.1-0.8,0.2c-0.3,0.5-0.6,0.9-0.9,1.4c0,0,0,0.1,0,0.1v6.4c0,0.9,0.7,1.7,1.7,1.7h8c0.9,0,1.7-0.8,1.7-1.7V34.8z
	 M43.9,22.7c0-0.9-0.7-1.7-1.7-1.7h-1.7c-0.5,1-1,2-1.6,3c0.9,1.7,2,3.5,3.1,5.4c0.2,0.4,0.5,0.8,0.7,1.2c0.7-0.2,1.2-0.9,1.2-1.6
	V22.7z M43.9,13.9c-0.7,1.5-1.4,3.2-2.4,5h0.7c0.9,0,1.7-0.8,1.7-1.7V13.9z M43.9,10.9c0-0.9-0.7-1.7-1.7-1.7h-8
	c-0.9,0-1.6,0.7-1.7,1.6c0.8,2,2.1,4.8,3.7,8.1h4.4c1.4-2.7,2.4-5.1,3.2-7V10.9z M47.2,39c-0.3-0.5-0.7-1-1-1.5v23.1
	c0.3,0.1,0.7,0.1,1,0.2V39z M47.2,12.1c-0.4-1.4-0.8-2.5-1-3.4V12v24.1c0.3,0.5,0.7,1,1,1.5V12.1z M49.8,42.7
	c-0.6-0.9-1.3-1.7-1.9-2.6V61c0.4,0.1,0.8,0.1,1.2,0.2c0.2,0,0.5,0.1,0.7,0.1V42.7z M49.8,19.7c-0.7-1.9-1.3-3.7-1.9-5.2v24.3
	c0.6,0.9,1.2,1.7,1.9,2.6V19.7z M52.8,46.6c-0.7-0.9-1.5-1.9-2.1-2.8v17.6c0.7,0.1,1.4,0.3,2.1,0.4V46.6z M52.8,26.9
	c-0.8-1.8-1.5-3.5-2.1-5.2v20.7c0.7,0.9,1.4,1.9,2.1,2.8V26.9z M56.1,50.8c-0.9-1.1-1.8-2.1-2.6-3.1v14.5c0.9,0.2,1.7,0.4,2.6,0.6
	V50.8z M56.1,34.1c-0.3-0.5-0.5-1-0.8-1.6c-0.6-1.3-1.2-2.6-1.8-3.9v17.6c0.8,1.1,1.7,2.1,2.6,3.2V34.1z M60.5,55.6
	c-1.2-1.3-2.4-2.6-3.5-4v11.2c1.2,0.3,2.4,0.6,3.5,1V55.6z M60.5,42.1c-1.2-2.1-2.4-4.2-3.5-6.4v14.8c1.1,1.3,2.3,2.7,3.5,4V42.1z
	 M65.6,60.9c-1.5-1.5-2.9-2.9-4.3-4.4v7.6c1.5,0.4,2.9,0.9,4.3,1.3V60.9z M65.6,50.3c-1.5-2.2-2.9-4.5-4.3-6.8v11.9
	c1.4,1.5,2.8,3,4.3,4.5V50.3z M86.1,72.4c0.3,0.3,0.7,0.6,1,0.9v-16c-0.3,0.9-0.7,1.7-1,2.5V72.4z M72.5,67.2
	c-2.1-1.8-4.2-3.6-6.1-5.5v4c0,0,0.1,0,0.1,0c2,0.7,4,1.4,6,2.2V67.2z M72.5,59.5c-1.1-1.3-2.2-2.7-3.3-4.1c-1-1.3-1.9-2.6-2.9-4
	v9.1c1.9,1.9,4,3.7,6.1,5.6V59.5z M74.1,68.4c-0.3-0.2-0.5-0.4-0.8-0.6v0.3C73.5,68.2,73.8,68.3,74.1,68.4z M76.6,69.5l-0.1-0.3
	c1.2-0.3,2.3-0.9,3.3-1.6c-2.3-2.2-4.4-4.6-6.5-7.1v6.3C74.4,67.7,75.5,68.6,76.6,69.5z M80.9,68.7c-0.2-0.2-0.5-0.5-0.7-0.7
	c-1,0.8-2.1,1.3-3.2,1.7c1.3,0.5,2.6,1.1,3.9,1.7V68.7z M80.9,67.4C80.9,67.4,80.8,67.4,80.9,67.4c-0.1,0.1,0,0.1,0,0.2V67.4z
	 M83.6,71.2c-0.7-0.7-1.4-1.3-2.1-2v2.3h-0.3c0.6,0.3,1.2,0.6,1.8,0.8c0.2,0.1,0.4,0.2,0.6,0.3V71.2z M83.6,64.3
	c-0.7,1-1.4,1.8-2.1,2.6v1.1c0.7,0.7,1.4,1.4,2.1,2V64.3z M85.6,73c-0.5-0.4-1-0.9-1.5-1.3v1.2c0.5,0.2,1,0.5,1.5,0.7V73z
	 M85.6,60.8c-0.5,1-1,1.9-1.5,2.7v7c0.5,0.5,1,0.9,1.5,1.3V60.8z M87.4,74.5c-0.4-0.4-0.9-0.7-1.3-1.1v0.4
	C86.5,74,87,74.2,87.4,74.5z M88.7,52.2c-0.3,1.1-0.6,2.3-1,3.5v17.9c0.3,0.2,0.6,0.5,0.9,0.7c0,0,0.1-0.1,0.1-0.1v-1.3V52.2z
	 M89.8,63.1c0,0.5,0.4,0.8,0.8,0.8h3.9c0.4-1.3,0.7-2.7,1-4c0-0.5-0.4-0.8-0.8-0.8h-4c-0.5,0-0.8,0.4-0.8,0.8V63.1z M89.8,72.9H90
	c1.9-2.2,3.3-5,4.2-8h-3.6c-0.5,0-0.8,0.7-0.8,1.6v6C89.8,72.7,89.8,72.8,89.8,72.9z M94,72.9v-5.7c-0.4,1.1-0.9,2.1-1.5,3.1v2.7H94
	z M92.5,75.1v2h-0.2c0.6,0.3,1.1,0.6,1.5,0.9l0.2-0.2v-2.7H92.5z M92,72.9v-1.8c-0.4,0.6-0.8,1.2-1.3,1.8H92z M89.8,75.1v0.3
	c0.5,0.4,1,0.8,1.5,1.1c0,0,0,0,0.1,0.1c0.2,0.1,0.4,0.2,0.6,0.3v-1.9H89.8z M91.9,80l-2-2.2v4.4L91.9,80z M92.7,79.2l0.8-0.9
	c-0.6-0.3-1.3-0.5-2.4-1c-0.1,0-0.1,0-0.2-0.1c0,0,0,0,0,0 M95.5,79.2c-0.3-0.2-0.6-0.3-0.8-0.4L93.5,80l2,2.2V79.2z M95.5,77.8
	l-0.7,0.7c0.2,0.1,0.4,0.3,0.7,0.4V77.8z M95.5,75.1h-1v2.2l1-1.1V75.1z M95.5,66.6c0-0.8-0.3-1.5-0.7-1.6c-0.1,0.3-0.2,0.6-0.3,0.9
	v7.1h1c0-0.1,0-0.2,0-0.3V66.6z M95.5,62.4c-0.1,0.4-0.2,0.9-0.4,1.3c0.2-0.2,0.4-0.4,0.4-0.7V62.4z M95.5,53.8
	c0-0.5-0.4-0.8-0.8-0.8h-4c-0.5,0-0.8,0.4-0.8,0.8V57c0,0.5,0.4,0.8,0.8,0.8h4c0.5,0,0.8-0.4,0.8-0.8V53.8z M95.5,48
	c0-0.5-0.4-0.8-0.8-0.8h-4c-0.5,0-0.8,0.4-0.8,0.8v0.6h0v2.6c0,0.5,0.4,0.8,0.8,0.8h4c0.5,0,0.8-0.4,0.8-0.8v-2.6V48z"/>
</svg>
