<?xml version="1.0" encoding="utf-8"?>
<!-- Generator: Adobe Illustrator 17.1.0, SVG Export Plug-In . SVG Version: 6.00 Build 0)  -->
<!DOCTYPE svg PUBLIC "-//W3C//DTD SVG 1.1//EN" "http://www.w3.org/Graphics/SVG/1.1/DTD/svg11.dtd">
<svg version="1.1" id="Layer_1" xmlns="http://www.w3.org/2000/svg" xmlns:xlink="http://www.w3.org/1999/xlink" x="0px" y="0px"
	 viewBox="0 0 13.3 11" enable-background="new 0 0 13.3 11" xml:space="preserve">
<path fill="#54C3BF" d="M13.3,1.3c-0.5,0.2-1,0.4-1.6,0.4c0.6-0.3,1-0.9,1.2-1.5c-0.5,0.3-1.1,0.5-1.7,0.7C10.7,0.3,10,0,9.2,0
	C7.5,0,6.2,1.7,6.6,3.4C4.3,3.3,2.3,2.2,0.9,0.5C0.2,1.8,0.6,3.4,1.8,4.2c-0.4,0-0.9-0.1-1.2-0.3c0,1.3,0.9,2.5,2.2,2.8
	c-0.4,0.1-0.8,0.1-1.2,0C1.8,7.8,2.8,8.6,4,8.6C2.9,9.5,1.4,9.9,0,9.7C1.2,10.5,2.6,11,4.2,11c5.1,0,7.9-4.3,7.8-8.2
	C12.5,2.3,12.9,1.9,13.3,1.3z"/>
</svg>
