<?xml version="1.0" encoding="utf-8"?>
<!-- Generator: Adobe Illustrator 15.0.0, SVG Export Plug-In . SVG Version: 6.00 Build 0)  -->
<!DOCTYPE svg PUBLIC "-//W3C//DTD SVG 1.1//EN" "http://www.w3.org/Graphics/SVG/1.1/DTD/svg11.dtd">
<svg version="1.1" id="Layer_1" xmlns="http://www.w3.org/2000/svg" xmlns:xlink="http://www.w3.org/1999/xlink" x="0px" y="0px"
	 width="792px" height="612px" viewBox="0 0 792 612" enable-background="new 0 0 792 612" xml:space="preserve">
<path d="M765.981,72.327c-27.817,11.127-55.636,22.255-89.018,22.255c33.382-16.691,55.636-50.073,66.764-83.455
	c-27.818,16.691-61.2,27.818-94.582,38.945C621.327,16.691,582.382,0,537.873,0c-94.582,0-166.909,94.582-144.655,189.164
	C265.254,183.6,153.982,122.4,76.091,27.818C37.146,100.146,59.4,189.164,126.164,233.673c-22.254,0-50.073-5.564-66.764-16.691
	c0,72.327,50.073,139.09,122.4,155.782c-22.254,5.563-44.509,5.563-66.764,0c11.127,61.2,66.764,105.709,133.527,105.709
	c-61.2,50.073-144.654,72.327-222.545,61.2C92.782,584.182,170.673,612,259.691,612c283.746,0,439.527-239.236,433.963-456.218
	C721.473,127.964,743.728,105.709,765.981,72.327z"/>
</svg>
