<?xml version="1.0" encoding="utf-8"?>
<!-- Generator: Adobe Illustrator 17.1.0, SVG Export Plug-In . SVG Version: 6.00 Build 0)  -->
<!DOCTYPE svg PUBLIC "-//W3C//DTD SVG 1.1//EN" "http://www.w3.org/Graphics/SVG/1.1/DTD/svg11.dtd">
<svg version="1.1" id="Layer_1" xmlns="http://www.w3.org/2000/svg" xmlns:xlink="http://www.w3.org/1999/xlink" x="0px" y="0px"
	 viewBox="0 0 246 88" enable-background="new 0 0 246 88" xml:space="preserve">
<g>
	<path fill-rule="evenodd" clip-rule="evenodd" fill="#00376D" d="M80.3,49.2c0.8-0.2,1.2-0.2,2.1-0.1c1,0.1,1.1,0,1.1,1
		c0,0.5,0,1.7,0,2.2c-0.1,0.5,0.1,0.4-1.4,0.7C78.4,53.7,77.4,50,80.3,49.2L80.3,49.2z M75.7,43.4c1.9,0.1,7.3-2.1,7.9,2.1
		c-2.7-0.2-4.5-0.7-6.9,0.6c-1.6,0.9-3,2.5-2.9,5.3c0.2,4.7,5.4,6.8,9.6,4.4l0.2,0.4c0,0.2,0,0.1,0.1,0.4l5,0c0.1-2.6,0-5.4,0-8
		c0-5.1,0.1-9-5.7-10.1c-1.9-0.4-5.5-0.3-7.3,0.3L75.7,43.4L75.7,43.4z"/>
	<path fill-rule="evenodd" clip-rule="evenodd" fill="#00376D" d="M92.8,38.6l-2.1,0l0,4.5l2.2,0l0,13.4l5.1,0l0-13.4l3.4,0l0.1-4.5
		l-3.4,0c0-1.4,0-2.5,1-3.1c1.1-0.7,2.1-0.3,3.3-0.4l0-4.5c-2.7-0.6-5.4,0-7.2,1.3C93.4,33.3,92.8,35.7,92.8,38.6L92.8,38.6z"/>
	<path fill-rule="evenodd" clip-rule="evenodd" fill="#00376D" d="M105.3,38.6l-2.1,0l0,4.5l2.1,0c0,6.1-1.5,14.4,8,14
		c-0.4-0.9-2-2.2-2.7-5.7c-0.4-2.1-0.2-6-0.2-8.3l3.8,0l0-4.5l-3.8,0v-4.8l-5.1,0L105.3,38.6L105.3,38.6z"/>
	<path fill-rule="evenodd" clip-rule="evenodd" fill="#00376D" d="M63.5,32.3l-6.1,0l-8.2,11.3l-0.1-11.3l-5.5,0l0,24.3h5.5l0-10.6
		l5.4,8.1c0.2,0.3,1.4,2.4,1.9,2.5l6.1,0c-0.2-0.5-0.7-1.1-1-1.6l-7-10.6L63.5,32.3L63.5,32.3z"/>
	<path fill-rule="evenodd" clip-rule="evenodd" fill="#00376D" d="M69.1,56.6c0.3-5.1-1.3-9.8,2.2-11.9c2.5-1.5,2.5,0,2.5-2.1v-3.8
		c-0.9-0.1-2.1,0.6-2.8,1c-0.4,0.3-0.7,0.6-1,0.9c-0.6,0.6-0.4,0.7-0.9,1.1l0-3l-5.2,0l0,17.8L69.1,56.6L69.1,56.6z"/>
	<path fill-rule="evenodd" clip-rule="evenodd" fill="#ED2526" d="M125.9,43.2c0-0.9-1-2.3-1.3-3.4c-0.6-2.5,0.2-5.6,3-6.4
		c1.2-0.3,3.2-0.4,4,0.4c0.4,0.7-4.2,15.9-4.8,17.4c-0.5,1.1-1.5,2.8-2.2,3.4c-1.2,1-2.8,1-4.1,0c-0.9-0.6-1.5-2.3-1.9-3.7
		c-0.4-1.6-0.1-4.6-0.4-5.3c-1.2,0-3.5,1.1-4.4,1.7c-0.8,0.5-0.7,1.1-0.7,2.3c0.1,2.3,1.4,5.4,2.8,6.6c2.8,2.2,6.4,1.4,9.6-0.1
		c5.5-2.6,6.8-4.1,8.2-10.5h4.3c-0.4,2.6-3.5,10.6-2.1,11.4c2,0.3,6-0.6,6.7-1.9c-0.2-0.7-0.4-0.5-0.8-1.1c-0.3-0.6-0.3-1.1-0.1-1.7
		l2.4-9.1c0.7-2.5,1.9-7.7,3.6-9.8c0.3-0.4,0.7-0.6,1-1c-1,0-4.5-0.1-5.3,0.1c-2.4,0.6-3.1,5-3.7,7c-0.4,1.3-0.9,3-1.1,4.3l-4.3,0
		c0.3-1.5,2.1-7.6,2.6-9.6c0.6-2,0.6-1.8-3.7-1.8c-3.2,0-8.1-0.1-10.7,1.6c-3,2-3.1,5.7-1.8,8.9c0.4,1,0.9,1,2.1,0.9
		C124,43.5,125.1,43.4,125.9,43.2L125.9,43.2z"/>
	<path fill-rule="evenodd" clip-rule="evenodd" fill="#ED2526" d="M175.4,41.4c0.1-0.9,0.3-1.3,0.1-2.2c-1.7-0.2-5.8,1.2-6.6,2.2
		c0,1.1,1,0.7,0.4,2.7c-0.3,0.9-0.5,1.7-0.8,2.6c-0.6,1.8-1,3.5-1.6,5.3c-0.4,1.2-1.8,4.8,0.1,5.1c1.4,0.2,4.3-1.2,5-1.8
		c0.1-0.8,0-1.5,0.1-2.3c0.1-0.6,0.3-1.3,0.4-1.9c0.5-1.6,1.6-6,2.5-7c0.4-0.5,2-2.2,3.1-1.5c0.5,0.7-0.2,2.2-0.4,2.9
		c-0.8,2.7-1.4,5.3-2.3,8.1c-0.8,2.5-0.8,4.1,2.4,3.3c1.1-0.3,4.3-1.3,4.7-2.3c-0.3-0.2-0.9-0.3-1.2-0.8c-0.4-0.8,0.7-3.9,0.9-4.8
		c0.6-2.1,1.2-4.1,1.8-6.2c0.8-2.9,0.5-4.6-3.1-3.9C177.9,39.5,177.1,40.6,175.4,41.4L175.4,41.4z"/>
	<path fill-rule="evenodd" clip-rule="evenodd" fill="#ED2526" d="M192.7,43.7c-0.2,1.1-3.7,5-4.9,6.2c-0.7,0.7-4.9,5.3-4.7,6.4
		c1.1,0.3,7.6,0.1,9.2,0.1c1,0,4,0.1,4.7,0c0.6-0.1,0.9-0.7,1.2-1.1c1.2-1.7,4-5.4,4.2-7.6c0.2-2.5-4.8-3.8-4.9,0.2
		c4.3-0.5,2.5,3.7,0.7,4c-0.8,0.1-7.7,0.1-8.3-0.1c0-0.5,3.8-5.4,4.3-6.1l3.4-4.6c1.4-1.9,1.2-2.1-1.3-2.1l-4.3,0.1
		c-2.6,0-4-0.3-5,1.7c-0.2,0.4-2.4,5.4-0.4,3.5c0.9-0.9,0.3-0.7,2.7-0.7C190.3,43.7,191.5,43.6,192.7,43.7L192.7,43.7z"/>
	<path fill-rule="evenodd" clip-rule="evenodd" fill="#ED2526" d="M150.7,46.5c0.3-1.1,2.3-6.5,3.6-5c0.5,0.5-0.6,2.8-0.9,3.4
		C153,45.8,153,46.3,150.7,46.5L150.7,46.5z M150.3,48.3c2.3-0.6,4.4-1.3,6.1-2.5c4.4-3,3.8-8.6-4.1-5.9c-4.2,1.4-6.9,5-7.9,9.2
		c-0.6,2.5-0.8,5.1,0.8,6.8c0.8,0.8,1.7,1.2,2.9,1.3c4.4,0.4,8.3-2.8,8.2-4.4c-1.3,0-3.2,1.9-5.3,0.7
		C149.5,52.6,149.5,50.1,150.3,48.3L150.3,48.3z"/>
	<path fill-rule="evenodd" clip-rule="evenodd" fill="#ED2526" d="M164.7,54.7c-0.3-0.4-0.8-0.4-1-0.7c-0.7-0.9,0.3-3.3,0.7-4.5
		c0.6-2,2-6.6,2.5-8.6c0.4-1.7-0.1-1.9-1.6-1.6c-0.9,0.2-5.1,1.3-5,2.4c0,0.4,0.5,0.5,0.5,1.2c0,1-2.6,9-3,10
		c-2,5.2,1.1,4.8,4.7,3.3C163,55.8,164.5,55.3,164.7,54.7L164.7,54.7z"/>
	<path fill-rule="evenodd" clip-rule="evenodd" fill="#ED2526" d="M167.3,31.8c-1.8,0.3-3,0.7-3.6,2.3c-0.2,0.6-0.6,1.8-0.4,2.5
		c0.2,0.9,1.1,0.6,1.9,0.4c0.8-0.3,1.3-0.6,2-0.9c0.7-0.3,1.2-0.6,1.5-1.4c0.1-0.3,0.6-2,0.6-2.3C169.4,31.2,167.9,31.7,167.3,31.8
		L167.3,31.8z"/>
</g>
</svg>
