<?xml version="1.0" encoding="utf-8"?>
<!-- Generator: Adobe Illustrator 17.1.0, SVG Export Plug-In . SVG Version: 6.00 Build 0)  -->
<!DOCTYPE svg PUBLIC "-//W3C//DTD SVG 1.1//EN" "http://www.w3.org/Graphics/SVG/1.1/DTD/svg11.dtd">
<svg version="1.1" id="Layer_1" xmlns="http://www.w3.org/2000/svg" xmlns:xlink="http://www.w3.org/1999/xlink" x="0px" y="0px"
	 viewBox="0 0 246 88" enable-background="new 0 0 246 88" xml:space="preserve">
<g>
	<path d="M83.1,53.9h6.2c0.6,0,1.3,0,2,0.3c1.2,0.6,1.2,1.8,1.2,2c0,0.6-0.2,1.2-0.7,1.7c-0.7,0.8-1.7,0.9-2.4,1c0.8,0,2,0.1,3,1.1
		c0.4,0.4,0.8,1,0.8,2c0,0.7-0.2,1.5-0.8,2.1c-0.9,0.9-2,0.9-3,1h-6.3v-0.4h1.5l0-1.6v-7.4l0-1.3h-1.5V53.9z M87.1,54.4l0,1.1l0,3.2
		h1c0.7,0,1.2-0.2,1.5-0.5c0.3-0.3,0.4-0.8,0.4-1.7c0-1.8-0.6-2.1-1.8-2.1H87.1z M87.1,59.1v4.2l0,1.2h1.2c0.5,0,1.1-0.1,1.6-0.6
		c0.6-0.7,0.6-1.8,0.6-2.2c0-1.2-0.3-1.9-0.8-2.2c-0.4-0.3-1-0.5-1.9-0.4H87.1z"/>
	<path d="M95.8,53.9c0.7,0,1,0,1.7-0.1l0,1.7v7.7l0,1.3h1.1V65h-4.6v-0.4h1.2l0-1.3v-7.7l0-1.3h-1.2v-0.4H95.8z"/>
	<path d="M100.1,57.4c0.8,0,1.1,0,1.8-0.1l0,1.5v3.5c0,0.6,0,1.1,0.2,1.4c0.2,0.5,0.6,0.7,1.1,0.7c0.5,0,0.8-0.2,1.1-0.5
		c0.6-0.6,0.6-1.4,0.6-2.1V59l0-1.2h-1.2v-0.4h1.4c0.9,0,1.2,0,2.1-0.1l0,1.5v4.4l0,1.4h1.1V65h-1.2c-1,0-1.4,0-2.1,0.1l0-1.2
		c-0.3,0.4-1.1,1.3-2.9,1.3c-1.2,0-1.9-0.4-2.2-1c-0.2-0.4-0.2-1-0.2-1.5v-3.7l0-1.1h-1.1v-0.4H100.1z"/>
	<path d="M116.2,62.8c-0.4,0.8-1.3,2.4-3.6,2.4c-2.4,0-3.9-1.9-3.9-4.1c0-2.1,1.4-3.9,3.9-3.9c1.6,0,2.4,0.7,2.8,1.1
		c0.9,0.9,0.9,1.8,0.9,2.5h-5.2c0,1.3,0,2.5,0.7,3.2c0.4,0.4,0.9,0.5,1.4,0.5c1.7,0,2.3-1.4,2.6-1.9L116.2,62.8z M114,60.3
		c0-1.2,0-2.7-1.4-2.7c-1.3,0-1.4,1.3-1.4,2.7H114z"/>
	<path d="M127.5,64.2c-1.2,0.4-2.6,0.9-4.4,0.9c-3.2,0-5.6-2.3-5.6-5.7c0-3.7,2.8-5.8,5.9-5.8c1,0,2.4,0.2,4.1,0.9v3.1H127
		c-0.1-0.6-0.2-1.6-1.2-2.5c-0.7-0.7-1.6-1-2.3-1c-0.8,0-1.7,0.3-2.2,0.9c-0.8,0.8-1.1,2-1.1,4.3c0,2.2,0.3,3.6,1.1,4.4
		c0.5,0.5,1.2,0.8,2,0.8c0.8,0,1.8-0.3,2.6-1.2c0.9-1,1.1-1.8,1.1-2.4h0.5V64.2z"/>
	<path d="M131.9,64.6h1.2V65h-4.6v-0.4h1.1l0-1.3v-4.1l0-1.4h-1.1v-0.4h1.8c0.7,0,1,0,1.6-0.1l0,1.2v0.3c0.1-0.3,0.2-0.6,0.6-1
		c0.4-0.4,0.9-0.6,1.4-0.6c1,0,1.4,0.8,1.4,1.5c0,1-0.6,1.1-1,1.1c-0.2,0-1-0.1-1-1c0-0.1,0-0.5,0-0.6c0-0.3-0.2-0.3-0.3-0.3
		c-0.2,0-0.5,0.3-0.7,0.6c-0.5,0.8-0.5,2.1-0.6,2.9v1.9L131.9,64.6z"/>
	<path d="M143.7,61.2c0,2.5-2,3.9-4.1,3.9c-2.3,0-4-1.7-4-4c0-2.5,1.8-3.9,4-4C142.1,57.1,143.7,58.9,143.7,61.2 M138,60.8
		c0,2.5,0.2,3.9,1.7,3.9c1.5,0,1.6-1.4,1.6-3.5c0-1.9-0.1-3.6-1.7-3.6C138.2,57.6,138,59.1,138,60.8"/>
	<path d="M145.4,62.1c0.1,0.5,0.1,0.8,0.4,1.3c0.3,0.5,0.9,1.3,2,1.3c0.9,0,1.5-0.5,1.5-1.1c0-0.7-0.7-1-1.7-1.4
		c-1.4-0.5-2.6-0.9-2.6-2.6c0-2,1.7-2.4,2.8-2.4c0.9,0,1.6,0.3,2.3,0.5l0,2h-0.5c-0.1-0.3-0.1-0.6-0.2-0.8c-0.2-0.4-0.8-1.2-1.8-1.2
		c-0.8,0-1.2,0.6-1.2,1c0,0.5,0.4,0.7,0.6,0.8c0.3,0.1,1.5,0.6,1.8,0.7c1,0.4,1.9,0.9,1.9,2.4c0,1.6-1.3,2.7-3.2,2.7
		c-1,0-1.8-0.3-2.6-0.6l0-2.5H145.4z"/>
	<path d="M152.2,62.1c0.1,0.5,0.1,0.8,0.4,1.3c0.3,0.5,0.9,1.3,2,1.3c0.9,0,1.5-0.5,1.5-1.1c0-0.7-0.7-1-1.7-1.4
		c-1.4-0.5-2.6-0.9-2.6-2.6c0-2,1.7-2.4,2.8-2.4c0.9,0,1.6,0.3,2.3,0.5l0,2h-0.5c-0.1-0.3-0.1-0.6-0.2-0.8c-0.2-0.4-0.8-1.2-1.8-1.2
		c-0.8,0-1.2,0.6-1.2,1c0,0.5,0.4,0.7,0.6,0.8c0.3,0.1,1.5,0.6,1.8,0.7c1,0.4,1.9,0.9,1.9,2.4c0,1.6-1.3,2.7-3.2,2.7
		c-1,0-1.8-0.3-2.6-0.6l0-2.5H152.2z"/>
	<path d="M83.1,67.9h6.2c0.6,0,1.3,0,2,0.3c1.2,0.6,1.2,1.8,1.2,2c0,0.6-0.2,1.2-0.7,1.7c-0.7,0.8-1.7,0.9-2.4,1c0.8,0,2,0.1,3,1.1
		c0.4,0.4,0.8,1,0.8,2c0,0.7-0.2,1.5-0.8,2.1c-0.9,0.9-2,0.9-3,1h-6.3v-0.4h1.5l0-1.6v-7.4l0-1.3h-1.5V67.9z M87.1,68.4l0,1.1l0,3.2
		h1c0.7,0,1.2-0.2,1.5-0.5c0.3-0.3,0.4-0.8,0.4-1.7c0-1.8-0.6-2.1-1.8-2.1H87.1z M87.1,73.1v4.2l0,1.2h1.2c0.6,0,1.1-0.1,1.6-0.6
		c0.6-0.7,0.6-1.8,0.6-2.2c0-1.2-0.3-1.9-0.8-2.2c-0.4-0.3-1-0.5-1.9-0.4H87.1z"/>
	<path d="M95.8,67.9c0.7,0,1,0,1.6-0.1l0,1.7v7.7l0,1.3h1.1V79h-4.6v-0.4h1.2l0-1.3v-7.7l0-1.3h-1.2v-0.4H95.8z"/>
	<path d="M100.1,71.4c0.8,0,1.1,0,1.8-0.1l0,1.5v3.5c0,0.6,0,1.1,0.2,1.4c0.2,0.5,0.6,0.7,1.1,0.7c0.5,0,0.8-0.2,1.1-0.5
		c0.6-0.6,0.6-1.4,0.6-2.1V73l0-1.2h-1.2v-0.4h1.4c0.9,0,1.2,0,2.1-0.1l0,1.5v4.4l0,1.4h1.1V79h-1.2c-1,0-1.4,0-2.1,0.1l0-1.2
		c-0.3,0.4-1.1,1.3-2.9,1.3c-1.2,0-1.9-0.4-2.2-1c-0.2-0.4-0.2-1-0.2-1.5v-3.7l0-1.1h-1.1v-0.4H100.1z"/>
	<path d="M116.1,76.8c-0.4,0.8-1.3,2.4-3.6,2.4c-2.4,0-3.9-1.9-3.9-4.1c0-2.1,1.4-3.9,3.9-3.9c1.6,0,2.4,0.7,2.8,1.1
		c0.9,0.9,0.9,1.8,0.9,2.5H111c0,1.3,0,2.5,0.7,3.2c0.4,0.4,0.9,0.5,1.4,0.5c1.7,0,2.3-1.4,2.6-1.9L116.1,76.8z M113.8,74.3
		c0-1.2,0-2.7-1.4-2.7c-1.3,0-1.4,1.3-1.4,2.7H113.8z"/>
	<path d="M117.8,75.2c0.1,0.5,0.2,0.9,0.4,1.4c0.9,1.9,2.7,2,3,2c1.2,0,2.3-0.7,2.3-1.9c0-1.1-0.9-1.5-3.2-2.5
		c-0.4-0.2-0.7-0.3-1.1-0.5c-0.4-0.2-1.8-1-1.8-2.8c0-1.9,1.6-3.3,3.7-3.3c1.4,0,2.4,0.5,3,0.7l0.2,2.6h-0.5
		c-0.2-0.8-0.3-1.3-0.9-1.8c-0.6-0.6-1.3-1-2.1-1c-1.2,0-1.8,0.8-1.8,1.6c0,1,0.9,1.4,1.3,1.6c0.5,0.3,1.1,0.4,1.6,0.7
		c1.4,0.6,3.1,1.4,3.1,3.5c0,2-1.6,3.5-4.2,3.5c-1.4,0-2.4-0.4-3.4-0.7l-0.1-3.2H117.8z"/>
	<path d="M127.4,67.9c0.8,0,1,0,1.7-0.1l0,1.7v3c0.3-0.5,0.6-0.9,1.5-1.2c0.4-0.1,0.8-0.2,1.1-0.2c1.2,0,1.7,0.5,2,0.7
		c0.6,0.6,0.6,1.3,0.7,1.9v3.7l0,1.1h1.1V79h-4.6v-0.4h1.2l0-1.1v-3.8c0-0.6,0-1.8-1.2-1.8c-0.4,0-0.9,0.2-1.2,0.5
		c-0.5,0.5-0.6,1.2-0.6,2.2v3l0,1.1h1.2V79h-4.6v-0.4h1.1l0-1.1v-7.9l0-1.2h-1.1v-0.4H127.4z"/>
	<path d="M137.2,71.4c0.9,0,1.2,0,2-0.1l0,1.7v4.3l0,1.2h1.1V79h-4.6v-0.4h1.2l0-1.2v-4.3l0-1.3h-1.2v-0.4H137.2z M136.7,69.1
		c0-0.7,0.6-1.2,1.3-1.2c0.7,0,1.2,0.5,1.2,1.2c0,0.7-0.6,1.2-1.2,1.2c-0.3,0-0.7-0.1-0.9-0.4C136.9,69.7,136.7,69.4,136.7,69.1"/>
	<path d="M148.3,76.8c-0.4,0.8-1.3,2.4-3.6,2.4c-2.4,0-3.9-1.9-3.9-4.1c0-2.1,1.4-3.9,3.9-3.9c1.6,0,2.4,0.7,2.8,1.1
		c0.9,0.9,0.9,1.8,0.9,2.5h-5.2c0,1.3,0,2.5,0.7,3.2c0.4,0.4,0.9,0.5,1.4,0.5c1.7,0,2.3-1.4,2.6-1.9L148.3,76.8z M146,74.3
		c0-1.2,0-2.7-1.4-2.7c-1.3,0-1.4,1.3-1.4,2.7H146z"/>
	<path d="M150.8,67.9c0.7,0,1,0,1.7-0.1l0,1.7v7.7l0,1.3h1.1V79h-4.6v-0.4h1.2l0-1.3v-7.7l0-1.3h-1.2v-0.4H150.8z"/>
	<path d="M159.9,67.9c0.9,0,1.2,0,1.9-0.1l0,1.3v8.4l0,1.1h1.1V79h-1.5c-0.9,0-1.2,0-1.9,0.1v-1c-0.4,0.5-0.9,1.1-2.4,1.1
		c-2.4,0-3.3-2.1-3.3-3.9c0-2.5,1.5-4.1,3.5-4.1c1,0,1.5,0.3,1.9,0.7c0.2,0.2,0.3,0.3,0.3,0.5v-3.1l0-1h-1.2v-0.4H159.9z
		 M156.9,72.3c-0.5,0.5-0.5,1.4-0.5,2.9c0,1.8,0,3.3,1.5,3.3c0.4,0,0.8-0.1,1.2-0.5c0.4-0.4,0.6-1,0.6-3c0-1.4,0-3.1-1.7-3.1
		C157.4,71.9,157.1,72.1,156.9,72.3"/>
	<g>
		<polygon fill="#FFFFFF" points="132.4,11.8 145.6,14.3 158.2,11.6 160.7,16.9 159.6,27.2 154.6,39.3 145.8,47.5 137.1,39.4 
			132.7,30.6 131.2,21.2 		"/>
		<path fill="#FFFFFF" d="M115.8,29.5c0,6.3-5.1,11.5-11.5,11.5c-6.3,0-11.5-5.1-11.5-11.5c0-6.3,5.1-11.5,11.5-11.5
			C110.6,18,115.8,23.1,115.8,29.5"/>
		<path fill="#0099D8" d="M117.7,47.2c0-1.2,1-2.2,2.2-2.2c1.2,0,2.2,1,2.2,2.2c0,1.2-1,2.2-2.2,2.2
			C118.6,49.4,117.7,48.4,117.7,47.2 M121.7,47.2c0-1.1-0.8-1.8-1.8-1.8c-1.1,0-1.9,0.8-1.9,1.8c0,1.1,0.8,1.9,1.9,1.9
			C120.9,49,121.7,48.2,121.7,47.2 M119.4,48.4H119v-2.5h1.1c0.7,0,0.9,0.2,0.9,0.7c0,0.5-0.3,0.7-0.8,0.7l0.7,1.1h-0.4l-0.7-1.1
			h-0.5V48.4z M119.8,47c0.4,0,0.8,0.1,0.8-0.4c0-0.4-0.3-0.4-0.6-0.4h-0.7V47H119.8z"/>
		<path fill="#0099D8" d="M156.1,47.2c0-1.2,1-2.2,2.2-2.2c1.2,0,2.2,1,2.2,2.2c0,1.2-1,2.2-2.2,2.2
			C157.1,49.4,156.1,48.4,156.1,47.2 M160.1,47.2c0-1.1-0.8-1.8-1.8-1.8c-1.1,0-1.9,0.8-1.9,1.8c0,1.1,0.8,1.9,1.9,1.9
			C159.4,49,160.1,48.2,160.1,47.2 M157.8,48.4h-0.3v-2.5h1.1c0.7,0,0.9,0.2,0.9,0.7c0,0.5-0.3,0.7-0.8,0.7l0.7,1.1H159l-0.7-1.1
			h-0.5V48.4z M158.2,47c0.3,0,0.8,0.1,0.8-0.4c0-0.4-0.3-0.4-0.6-0.4h-0.7V47H158.2z"/>
		<path fill="#0099D8" d="M144.5,20.3c-0.1,0.1-0.2,0.2-0.4,0.2c-0.3,0-0.3-0.2-0.5-0.4c-0.1-0.1-0.3,0-0.4-0.2c0.4,0,1.1,0,1.5,0.4
			C144.7,20.3,144.5,20.2,144.5,20.3"/>
		<path fill="#0099D8" d="M112.9,20.7v-11H95.4v11h-11v17.5h11v11h17.5v-11h11V20.7H112.9z M104.2,18.6c4.3,0,8.1,2.6,9.8,6.3h-7.7
			c-1.1,0-1.6-0.7-1.6-1.2c0-0.6,0.1-0.8,0.6-1.5c0.6-0.7,0.2-2.2-1.1-2.2c-1.3,0-1.6,1.5-1.1,2.2c0.5,0.7,0.6,0.9,0.6,1.5
			c0,0.5-0.5,1.2-1.6,1.2h-7.7C96.1,21.2,99.9,18.6,104.2,18.6 M93.4,29.5c0-1.3,0.2-2.6,0.7-3.8h0l0,0v0l7.3,0.7
			c1.4,0.2,1.5,1.5,1.2,2.3l-5,9.4l0,0C95,36,93.4,32.9,93.4,29.5 M110.2,38.5c-1.7,1.1-3.8,1.8-6,1.8c-2.2,0-4.2-0.7-6-1.8l0,0v0
			c0,0,0,0,0,0l5.3-7.9c0.4-0.6,1-0.5,1.4,0L110.2,38.5C110.2,38.5,110.2,38.5,110.2,38.5L110.2,38.5L110.2,38.5z M110.9,38
			L110.9,38l-5-9.3c-0.4-0.8-0.2-2.1,1.2-2.3l7.3-0.7l0,0l0,0h0c0.4,1.2,0.7,2.5,0.7,3.8C115,32.9,113.4,36,110.9,38"/>
		<path fill="#0099D8" d="M100.6,27.8l-5.5-0.5c-0.2,0.7-0.3,1.5-0.3,2.2c0,2.3,0.8,4.4,2.3,6.1l3.9-7.4
			C101.1,28,101,27.8,100.6,27.8"/>
		<path fill="#0099D8" d="M104.2,32.3c-0.1,0-0.1,0-0.2,0.1l-3.6,5.6c1.2,0.5,2.4,0.8,3.8,0.8c1.4,0,2.6-0.3,3.8-0.8l-3.6-5.6
			C104.3,32.4,104.3,32.3,104.2,32.3"/>
		<path fill="#0099D8" d="M101.6,20.5c-1.8,0.5-3.3,1.5-4.5,2.9l4.9,0c0.1,0,0.1-0.1,0-0.2C101.5,22.6,101.1,21.4,101.6,20.5"/>
		<path fill="#0099D8" d="M107.8,27.8c-0.4,0-0.4,0.2-0.3,0.4l3.9,7.4c1.4-1.6,2.3-3.8,2.3-6.1c0-0.8-0.1-1.5-0.3-2.2L107.8,27.8z"
			/>
		<path fill="#0099D8" d="M111.3,23.4c-1.2-1.4-2.7-2.4-4.5-2.9c0.6,0.9,0.1,2.1-0.4,2.7c-0.1,0.1,0,0.2,0,0.2L111.3,23.4z"/>
		<polygon fill="#0099D8" points="145.7,44.7 145.7,44.7 145.7,44.7 		"/>
		<path fill="#0099D8" d="M151.1,16.6c-1.8,0.2-3.6,0.4-5.4,0.4h0c-1.8,0-3.6-0.2-5.4-0.4c-1.8-0.2-3.6-0.7-5.5-1.2
			c-1.3,3.7-1,8.5,0,12.7c1.9,7.9,6.7,13.9,10.9,16.6c4.2-2.7,9-8.7,10.9-16.6c1-4.2,1.3-8.9,0-12.7C154.7,15.9,153,16.3,151.1,16.6
			 M144.7,41c-0.1,0.4,0.1,0.6,0.1,0.8c-0.1,0.3-0.3,0.2-0.4,0c-0.2-0.3-0.3-0.5-0.3-0.9c-0.1-0.8,0.3-1.1,0.5-1.3
			c0.2-0.2,0.4-0.3,0.4-0.3l0.1,1.3C144.9,40.5,144.7,40.6,144.7,41 M146.4,42.3c0,0.2-0.1,0.4-0.5,0.4c-0.3,0-0.5-0.1-0.5-0.5
			c-0.1-1.6-0.1-4.5-0.1-4.5s0.4,0.1,0.6,0.3c0.1,0,0.3,0.2,0.5,0.4c0,0.1,0.1,0.1,0.1,0.2C146.5,39.7,146.4,41.8,146.4,42.3
			 M147.7,39.3c-0.4,0.3-0.8,0.4-0.8,0.4l0-1.2c0,0,0.1-0.1,0.1-0.3c-0.1-0.2-0.9-0.8-1.3-1c-0.5-0.2-1-0.3-1.5-0.5
			c-1-0.4-1.4-1.3-1-2.3c0.1-0.4,0.5-0.6,0.8-0.7c0.2-0.1,0.6-0.2,0.6-0.2l0.1,1.4c0,0-0.1,0-0.2,0.2c-0.1,0.2,0.1,0.4,0.2,0.4
			c0.7,0.3,1.6,0.7,2.3,1.1c0.9,0.5,1.2,0.9,1.2,1.5C148.2,38.7,148,39.1,147.7,39.3 M145.1,32.9c0.7,0.1,0.9,0.1,1.4,0.2l-0.1,2.7
			l-0.6-0.3l-0.6-0.3L145.1,32.9z M149.1,33.5c-0.1,0.5-0.4,0.9-0.9,1.2c-0.5,0.3-1.1,0.3-1.1,0.3l0-1.6c0,0,0.1,0,0.2-0.1
			c0.1-0.1,0.1-0.2,0.1-0.3c0-0.1-0.1-0.2-0.2-0.3c-0.2-0.1-0.4-0.1-0.5-0.1c-0.8-0.1-1.6-0.2-2.3-0.3c-1.4-0.2-2.4-1.1-2.4-2.4
			c0.1-0.9,1-1.2,1.7-1.5c0.2,0.4,0.4,0.8,0.5,1c0.1,0.4,0.2,0.6,0.2,0.6s-0.3,0.1-0.3,0.3c0,0.2,0.3,0.3,0.4,0.3
			c1,0.1,2.3,0.3,3,0.5c0.5,0.2,0.9,0.4,1.2,0.8C149.1,32.5,149.2,32.9,149.1,33.5 M144.6,27c0,0,0.3,0,1.2,0.1c0.6,0,1,0.2,1,0.2
			l-0.1,3c-0.7-0.1-1.1-0.2-1.7-0.3c-0.2-1.1-0.5-1.5-0.9-2.2c-0.1-0.2,0-0.2,0-0.3c0.1-0.1,0.5-0.2,0.5-0.2L144.6,27z M147.2,30
			c0,0,0.1-1.4,0.1-2.1c0.4-0.2,0.5-0.5,0.3-0.8c-0.1-0.2-0.4-0.3-0.5-0.3c-0.8-0.2-1.5-0.2-2.3-0.3c-0.7-0.1-1.3-0.2-1.9-0.3
			c-1.3-0.3-2.4-1-3-2.2c-0.7-1.5-0.1-3.3,1.4-4.1c1.1-0.6,2.3-0.5,3.4,0c0.4,0.1,0.6,0.5,0.8,0.8c0.1,0.1,0.3,0.2,0.4,0.4
			c0.1,0.1-0.1,0.1-0.1,0.1c-0.2,0.1-1,0.1-1.3,0c-0.3,0-0.9,0-1.2,0c0.3,0.2,0.7,0.4,1.1,0.6c0.2,0.1,0.4,0.1,0.6,0.2
			c0.1,0,0.3,0.1,0.3,0.2c0,0.1-0.2,0.1-0.3,0.2c-0.3,0.1-0.7,0.1-1.1,0c-0.6-0.1-0.9-0.5-1.3-0.3c-0.3,0.2-0.3,0.5-0.2,0.9
			c0.1,0.6,0.7,0.8,1.2,0.9c1.7,0.5,3.5,0.2,5.2,1.1c0.6,0.3,1.4,1,1.5,1.7C150.6,29.6,147.2,30,147.2,30 M150.2,20.8
			c-0.1,0.3-0.2,0.3-0.4,0.5c-0.4,0.4-1,0.8-1.5,1.3c-0.4,0.3-0.7,0.5-0.9,0.9c-0.1,0.1-0.2,0.3-0.2,0.3c-0.9-0.2-1.9-0.2-2.6-0.4
			l0-0.8c0,0,0.9,0,1-0.6c0,0,0-0.2-0.1-0.3c-0.1-0.1-0.4-0.2-0.5-0.2c0.7,0.1,1.3,0.4,2.1,0.7c0-0.1-0.1-0.3-0.1-0.4
			c-0.1-0.1-0.2-0.2-0.5-0.3c-0.4-0.1-1.5-0.2-1.5-0.2s0.4,0,0.9,0c0.2,0,0.5-0.1,0.5-0.2c0.1-0.1,0-0.3-0.2-0.5
			c-0.1-0.1-0.2-0.2-0.3-0.3c-0.1-0.2-0.2-0.4-0.4-0.6c-0.2-0.3-0.9-0.6-0.9-0.6s-0.1-0.5,0.1-0.7c0.1-0.2,0.5-0.2,0.6-0.1
			c0.5,0.3,1.1,0.6,1.9,0.8c0.2,0.1,0.2,0.1,0.2,0.4c0.1,0.5-0.1,1.2,0,1.5c0,0.1,0.2,0.1,0.2,0.1c0.7-0.4,1.1-1,1.8-1.3
			C149.5,19.7,150.4,20.1,150.2,20.8"/>
		<path fill="#0099D8" d="M159.4,9.2c-4.3,2.2-8.6,3.4-13.7,3.4c-5.1,0-9.4-1.2-13.7-3.4c-2.8,5.6-3.3,14.7-0.8,22.3
			c2.4,7.3,7,14,14.5,18.2c7.6-4.2,12.2-10.9,14.5-18.2C162.7,23.8,162.3,14.8,159.4,9.2 M157.4,30.6c-2.1,6.2-5.4,11.8-11.7,15.6
			c0,0,0,0,0,0h0c0,0,0,0,0,0c-6.2-3.9-9.6-9.4-11.7-15.6c-1.9-5.5-2.4-12-0.3-17.1c3.1,1.1,4.9,1.4,6.6,1.7c1.6,0.2,3,0.4,5.3,0.4
			h0c2.3,0,3.7-0.2,5.3-0.4c1.7-0.3,3.5-0.6,6.6-1.7C159.8,18.5,159.3,25,157.4,30.6"/>
	</g>
</g>
</svg>
