<?xml version="1.0" encoding="utf-8"?>
<!-- Generator: Adobe Illustrator 19.2.1, SVG Export Plug-In . SVG Version: 6.00 Build 0)  -->
<!DOCTYPE svg PUBLIC "-//W3C//DTD SVG 1.1//EN" "http://www.w3.org/Graphics/SVG/1.1/DTD/svg11.dtd">
<svg version="1.1" id="Layer_1" xmlns="http://www.w3.org/2000/svg" xmlns:xlink="http://www.w3.org/1999/xlink" x="0px" y="0px"
	 viewBox="0 0 246 88" style="enable-background:new 0 0 246 88;" xml:space="preserve">
<style type="text/css">
	.st0{fill:#595959;}
</style>
<g>
	<path class="st0" d="M145.8,24.5h3.2c-0.2-0.4-1.3-3-1.6-3.7C147.1,21.4,146,24.1,145.8,24.5z"/>
	<path class="st0" d="M92.1,9c0.5,10.8,2.5,20.4,5.3,28.6h59.9c2.7-8.2,4.7-17.7,5.1-28.6H92.1z M113.6,26.2c0,3.5-3,4.2-7.4,4.2
		c-3.8,0-7.3-0.5-7.3-4.2v-7.4c0-1.3-2.2-2.6-2.2-2.6h5.4c0.8,0,1.4,0.6,1.4,1.4v8.9c0,0.4,0,0.7,2.7,0.7c2.7,0,2.7-0.2,2.7-0.7
		v-7.7c0-1.3-2.2-2.6-2.2-2.6h5.4c0.8,0,1.4,0.6,1.4,1.4V26.2z M133,30.3c-0.8,0-1.4-0.6-1.4-1.4v-9.5h-9.6c-1.9,0-1.9,0-2.2,0.1
		c-0.3,0.1-0.6,0.4-0.6,0.9c0,0.9,0.1,1,2.8,1.1l0.1,0c5.1,0.2,6.8,0.9,6.8,4.4c0,3.6-2.7,4.3-7,4.3h-5.6c-0.8,0-1.4-0.6-1.4-1.4V25
		c0,0,1.4,2.1,2.8,2.1h4.3c0.5,0,2,0,2.3-0.1l0,0c0.4-0.2,0.6-0.6,0.6-1.2c0-0.3-0.3-0.7-0.5-0.8c-0.2-0.1-0.3-0.2-2.2-0.3l-1.8-0.1
		c-4.3-0.2-5.2-1.7-5.2-4.1c0-3.6,2.2-4.2,6.9-4.2h16.5c1.3,0,2.7-1.2,2.7-1.2v3c0,0.8-0.6,1.4-1.4,1.4h-3.5v8.3
		c0,1.3,2.4,2.6,2.4,2.6H133z M152.4,30.3c-0.4,0-0.9-0.3-1.1-0.7h0c-0.4-0.8-1-1.9-1.1-2.1h-5.7c0,0.1-0.3,0.6-0.5,1.1
		c-0.4,1,1.3,1.7,1.3,1.7h-4.9c-0.8,0-1.5-0.7-1.3-1.4h0l4.8-10.2c0.5-1.1-1-2.5-1-2.5h5.7c0.6,0,1.4,0.5,1.6,1h0l5.1,10.7
		c0.6,1.2,2.6,2.3,2.6,2.3H152.4z"/>
	<path class="st0" d="M108.2,65.2c-5.1-6.6-9.5-14.3-12.5-22.3c-2.2-5.7-3.9-11.8-5-18.1C89.8,19.8,89,9.2,89,9.2l-5.4,2
		c0.7,10.8,2.6,20.7,6.3,30.7c3.1,8.5,7.5,16,12.7,22.5c7.2,9.1,11.4,12.1,13.6,13.6l6,1C118.8,76.5,113.5,71.9,108.2,65.2z"/>
	<path class="st0" d="M127.2,78.8c0,0,18.9-11.4,29-39h-58C108,66.9,127.2,78.8,127.2,78.8z M143.4,55.7c-1,1-2.2,1.6-3.5,2
		c0.3-1.2,1.1-2.2,2.1-3.3c0.9-0.9,2-1.6,3.2-2.1C145.1,53.5,144.4,54.7,143.4,55.7z M139,47.7c1.6-0.2,3.1,0.1,4.3,0.9
		c1.1,0.7,1.8,1.7,1.9,2.8c-1.4,0.6-2.7,1.4-3.8,2.4c-1.3,1.2-2.1,2.7-2.4,4.2c-1.8,0.3-3.6,0.1-5-0.7c-1-0.6-1.6-1.5-1.9-2.5l0,0
		c0-0.1-0.1-0.3-0.1-0.4c0-0.1,0-0.3,0-0.4c1.8-0.5,3.4-1.5,4.7-2.7c0.9-0.9,1.6-1.9,2.1-3C138.9,48,138.9,47.8,139,47.7z
		 M136.1,50.4c-1.1,1.1-2.4,1.9-4,2.4c0.2-1,0.8-2,1.7-2.8c0.1-0.1,0.3-0.3,0.4-0.4l-0.3-0.2l0.3,0.2c1.1-0.9,2.4-1.5,3.7-1.8
		C137.6,48.7,137,49.6,136.1,50.4z M109.7,52.9c1.9-0.2,2.9-1.5,4.5-1.9c1.6-0.4,2.6-0.1,3.8,0.7c0.9,0.6,2.8,0.3,2.8-1.2
		c0-1.3-2.1-0.9-2.1-0.9s1.2-1,3.1-1c1.3,0,2.4,0.5,3.6,1c1.2,0.5,2.8,0.4,3-0.7c0.1-1.1-1.6-1.1-1.6-1.1s1.8-0.9,2.8-1
		c1-0.1,2.6,0.1,3.7,0.6c0.6,0.3,1.7,0.3,2.4,0.3c-0.8,0.4-1.5,0.8-2.1,1.4l0,0c-0.1,0.1-0.2,0.2-0.3,0.2c-0.5,0.5-0.9,1-1.3,1.6
		c-0.6,0.3-2,0.8-3.4,1c-2,0.3-2.8-0.6-4.6-0.2c-1.8,0.4-2.6,1.1-2.6,1.1s2.9-0.5,3.9,0.3c1.2,0.9,0.9,1.8,0.9,1.8
		c0.1-0.1,1-1.1,2.8-1.1c1.9,0,2.1,0.3,2.1,0.3v0c0,0.2,0,0.3,0.1,0.5c0.3,1.3,1.1,2.3,2.3,3.1c0,0,0,0,0.1,0
		c-1-0.3-2.6-0.8-3.8-0.7c-1.8,0.1-3.1,1.4-5.5,1.7c-2.3,0.3-2.9-1.4-3-1.5c0.1,0,1.5,0.5,2.3-0.2c1.1-0.9,0.3-2.2-1-2.1
		c-1.3,0.2-2.1,0.9-4.3,1.2c-2.2,0.3-3.8-0.9-3.8-0.9s1.3,0.1,1.7-0.5c0.4-0.6,0.2-1.3-0.5-1.5c-0.7-0.2-1.2,0.6-4.2,0.7
		c-2.9,0.2-4.4-1.8-4.5-2C107,52.5,107.8,53.1,109.7,52.9z"/>
</g>
</svg>
