<?xml version="1.0" encoding="utf-8"?>
<!-- Generator: Adobe Illustrator 17.1.0, SVG Export Plug-In . SVG Version: 6.00 Build 0)  -->
<!DOCTYPE svg PUBLIC "-//W3C//DTD SVG 1.1//EN" "http://www.w3.org/Graphics/SVG/1.1/DTD/svg11.dtd">
<svg version="1.1" id="Layer_1" xmlns="http://www.w3.org/2000/svg" xmlns:xlink="http://www.w3.org/1999/xlink" x="0px" y="0px"
	 viewBox="0 0 246 88" enable-background="new 0 0 246 88" xml:space="preserve">
<g>
	<path fill-rule="evenodd" clip-rule="evenodd" fill="#595959" d="M49.8,19.2c-3.6,0-6.3,0.2-9.1,0.2c-1.3,0-2.5-0.2-3.8-0.2
		c-0.2,0-0.5,0.1-0.5,0.5c0,1.1,3.3-0.2,3.3,4.1v20.8c0,3.9-3,3-3,3.9c0,0.2,0.1,0.4,0.5,0.4c0.2,0,4.3-0.1,4.7-0.1
		c2.1,0,4.3,0.1,6.4,0.1c11.6,0,16.1-6.7,16.1-16.2C64.5,24.8,57.2,19.2,49.8,19.2z M49.8,47.7c-1.9,0-5-0.6-6.4-1.9
		c-0.4-0.4-0.2-2.4-0.2-3.1V22.9c0-1.9,0.1-2.6,4.2-2.6c7.9,0,14.1,5.4,14.1,14.6C61.4,44.5,55.8,47.7,49.8,47.7z"/>
	<path fill-rule="evenodd" clip-rule="evenodd" fill="#595959" d="M97.1,48.4c0-1.1-2.4-0.1-3.7-2c-1-1.4-1.4-3.2-2-4.8l-8.7-21.5
		c-0.1-0.4-0.5-1.6-0.8-1.6c-0.6,0-0.7,0.6-3.2,5.8l-9.9,21.4c-1.1,2.4-3.1,1.7-3.1,2.5c0,0.2,0.1,0.5,0.4,0.5
		c1.1,0,2.3-0.1,3.3-0.1c1.2,0,2.4,0.1,3.6,0.1c0.5,0,1.1,0.1,1.1-0.6c0-1.1-3,0.1-3-2.7c0-0.6,0.2-1.2,0.4-1.4l2.6-5.8
		c0.5-1,1.2-1,2-1h9.2c1.1,0,1.4,0.6,1.8,1.7l1.3,3.3c0.5,1.2,1.3,3.1,1.3,3.9c0,1.7-2.5,1.2-2.5,2.3c0,0.4,0.7,0.4,1,0.4
		c1.1,0,2.3-0.1,3.3-0.1c1.7,0,3.5,0.1,5.1,0.1C96.8,48.8,97.1,48.8,97.1,48.4z M84.4,35.4h-8.2c-0.5,0-0.8-0.2-0.5-0.7l4.7-10.3
		c0.2-0.5,0.5-0.5,0.7,0l4.1,10.1C85.4,35.1,85.4,35.4,84.4,35.4z"/>
	<path fill-rule="evenodd" clip-rule="evenodd" fill="#595959" d="M122.6,48.8c0.4,0,2.7,0,2.7-0.5c0-1-2,0.5-5-4.1l-7-10.6
		c3-1.1,5.2-3.9,5.2-7.2c0-8.1-9.2-7.3-9.9-7.3c-2.1,0-4.5,0.2-6.9,0.2c-2.1,0-1.9-0.2-2.7-0.2c-0.5,0-0.8,0.2-0.8,0.6
		c0,1.3,3.7-0.4,3.7,3.7v21.2c0,3.1-3.1,2.6-3.1,3.6c0,0.2,0.1,0.5,0.5,0.5c1.6,0,3.1-0.1,4.7-0.1c3.5,0,4.4,0.1,4.9,0.1
		c0.2,0,0.7,0.1,0.7-0.4c0-1.4-4.4-0.1-4.4-3.7v-8.8c0-0.4-0.2-1.1,1.1-1.1c4.8,0,4.1-0.1,5.6,2.1l4.7,7.3
		C117.9,46.6,119.6,48.8,122.6,48.8z M109.6,33.4c-1.9,0-4.5,0.1-4.5-0.6V22.2c0-1.7,1-1.6,2.4-1.6c4.1,0,8,1.7,8,6.8
		C115.4,32.6,111.4,33.4,109.6,33.4z"/>
	<path fill-rule="evenodd" clip-rule="evenodd" fill="#595959" d="M154.9,32.6c0-7.8-7.3-13.4-14.7-13.4c-3.6,0-6.3,0.2-9.1,0.2
		c-1.2,0-2.4-0.2-3.7-0.2c-0.2,0-0.6,0.1-0.6,0.5c0,1.1,3.5-0.2,3.5,4.1v20.8c0,3.9-3,3-3,3.9c0,0.2,0,0.4,0.4,0.4
		c0.4,0,4.3-0.1,4.7-0.1c2.1,0,4.3,0.1,6.4,0.1C150.4,48.8,154.9,42.1,154.9,32.6z M133.6,42.7V22.9c0-1.9,0.2-2.6,4.2-2.6
		c7.9,0,14.1,5.4,14.1,14.6c0,9.7-5.6,12.9-11.6,12.9c-1.8,0-5-0.6-6.4-1.9C133.4,45.5,133.6,43.4,133.6,42.7z"/>
	<path fill-rule="evenodd" clip-rule="evenodd" fill="#595959" d="M176.3,47.4c1.1-1.1,2.1-2.5,2.1-4.1c0,0-0.1-0.5-0.4-0.5
		c-0.6,0-1.9,4.3-11.6,4.3c-3.6,0-3.2-1-3.2-3.5V36c0-0.7-0.1-1.3,0.7-1.3h6.2c3.6,0,2.1,3.6,3.5,3.6c0.2,0,0.4-0.1,0.4-0.5
		c0-1.2,0-2.3,0-3.3c0-1.3,0-2.7,0-4.2c0-0.4-0.1-0.8-0.4-0.8c-1.1,0,0.1,3.3-4.3,3.3h-4.5c-1.7,0-1.6,0-1.6-1.4v-7.8
		c0-2.7-0.1-2.6,3.9-2.6c1.7,0,6-0.2,7.2,1.2c0.6,1,0,3,1,3c0.2,0,0.8-0.4,0.8-5c0-0.5-0.1-1-0.5-1c-1.2,0-5.1,0.2-6,0.2
		c-1.7,0-3.9-0.2-11.8-0.2c-1.2,0-1.4,0.2-1.4,0.6c0,0.5,1,0.5,1.3,0.6c2.1,0.4,2.1,2.4,2.1,4.3v19c0,2,0,3.1-1.1,3.7
		c-1.4,0.6-1.8,0.5-1.9,1.1c0,0.2,0.2,0.4,0.7,0.4c1.7,0,3.3-0.1,5-0.1c3.2-0.1,6.3,0.1,9.5,0.1C174,48.8,174.9,48.9,176.3,47.4z"/>
	<path fill-rule="evenodd" clip-rule="evenodd" fill="#595959" d="M189.1,48.3c0-1.2-3.7,0.2-3.7-3.5V27.8c0-0.8,0.1-1,0.2-1
		c0.4,0,0.8,0.7,1,0.7l17.9,20.3c1,1,1.3,1.2,1.6,1.2c0.4,0,0.5-0.6,0.5-1.9V23c0-3.1,2.4-2.3,2.4-3.3c0-0.4-0.1-0.5-0.4-0.5
		c-1.1,0-2.9,0.2-4.3,0.2c-1.3,0-2.5-0.2-3.7-0.2c-0.4,0-0.5,0.1-0.5,0.5c0,1.3,4.7-0.2,4.7,5.2v17.4c0,0.4-0.1,0.5-0.1,0.5
		c-0.1,0-0.4-0.1-0.6-0.5l-19.9-22.2c-0.2-0.2-0.6-1-1.1-1c-0.6,0-1.3,0.2-1.9,0.2c-0.6,0-1.3-0.2-1.9-0.2c-0.2,0-0.6,0.2-0.6,0.5
		c0,1.6,5-0.8,5,7.8v15.4c0,5.8-3.7,4.1-3.7,5.5c0,0.2,0,0.5,0.6,0.5c0.2,0,2.4-0.1,3.9-0.1c2,0,3.1,0.1,4.2,0.1
		C189,48.8,189.1,48.4,189.1,48.3z"/>
	<path fill-rule="evenodd" clip-rule="evenodd" fill="#595959" d="M46.8,67l-4.3-5.4c2.1-0.5,4.3-1.6,4.3-4.1c0-2-1.4-3.1-4.7-3.1
		h-4.4v14.3c0.4-0.1,0.6-0.1,1-0.1c0.2,0,0.6,0,1,0.1v-7h0.7l1.7,2l2.5,3.1c0.5,0.6,0.8,1.2,1.3,1.9c0.4-0.1,0.8-0.1,1.2-0.1
		c0.4,0,0.7,0,1.2,0.1l-0.4-0.6L46.8,67z M39.7,61v-5.7c0.8,0,2.3,0,3,0.1c1.6,0.2,2.4,1.1,2.4,2.6c0,1.6-1.2,2.6-2.7,2.9
		C41.2,61.1,39.9,61.1,39.7,61z"/>
	<path fill-rule="evenodd" clip-rule="evenodd" fill="#595959" d="M59.6,67.6c-1.3,0-2.5,0.1-3.8,0.1v-6.1H59c0.6,0,1.2,0.1,1.9,0.1
		c-0.1-0.2-0.1-0.5-0.1-0.6c0-0.2,0-0.4,0.1-0.6c-0.7,0-1.3,0.1-1.9,0.1h-3.2v-5.2h1.6l2.1,0.1c0.6,0,1.2,0,1.9,0.1
		c-0.1-0.1-0.1-0.4-0.1-0.6c0-0.2,0-0.4,0.1-0.6h-7.5v14.2h7.6c0-0.2-0.1-0.4-0.1-0.6c0-0.2,0.1-0.5,0.1-0.6
		C60.8,67.5,60.2,67.6,59.6,67.6z"/>
	<path fill-rule="evenodd" clip-rule="evenodd" fill="#595959" d="M68.9,57.6c0-1.6,1.2-2.5,2.6-2.5c1.2,0,2.1,0.7,2.5,1.8h0.2
		c0.2-0.6,0.4-1.1,0.6-1.7c-0.8-0.7-2-1-3-1c-2.5,0-4.7,1.3-4.7,3.9c0,4.8,6.6,3,6.6,6.9c0,1.7-1.2,3-3,3c-1.6,0-2.5-0.8-3.3-2.1
		h-0.2c0,0.6-0.1,1.3-0.4,1.9c0.7,0.7,2.4,1.2,3.5,1.2c2.7,0,5.1-1.8,5.1-4.8C75.5,59.9,68.9,61.4,68.9,57.6z"/>
	<path fill-rule="evenodd" clip-rule="evenodd" fill="#595959" d="M80.4,55.1c0,0.2-0.1,0.5-0.1,0.7c1.2-0.2,2.5-0.4,4.5-0.4v13.4
		c0.4,0,0.6-0.1,1-0.1c0.2,0,0.6,0.1,1,0.1V55.5c1.8,0,3.3,0.1,4.3,0.4c0-0.2,0-0.5,0-0.7c0-0.1,0-0.4,0-0.6H80.2
		C80.2,54.8,80.4,55,80.4,55.1z"/>
	<path fill-rule="evenodd" clip-rule="evenodd" fill="#595959" d="M101.7,54.3l-6.6,14.6c0.2-0.1,0.5-0.1,0.7-0.1
		c0.2,0,0.5,0,0.8,0.1c0.6-2,1.3-3.8,2-5.7h5.4c0.7,1.9,1.6,3.9,2.1,5.7c0.4-0.1,0.7-0.1,1.1-0.1c0.4,0,0.7,0,1.1,0.1l-6.2-14.6
		H101.7z M99.2,62.3l2.3-5.4l2.3,5.4H99.2z"/>
	<path fill-rule="evenodd" clip-rule="evenodd" fill="#595959" d="M125.1,54.5v7.8c0,3.5-1.2,5.8-4.5,5.8c-3.6,0-4.5-1.9-4.5-5.6v-8
		c-0.4,0-0.7,0.1-1,0.1c-0.4,0-0.6-0.1-1-0.1v8.3c0,1.7,0.2,3.6,1.6,4.8c1.1,1,2.5,1.4,4.5,1.4c3.7,0,6.1-2.1,6.1-6.2v-8.3
		c-0.2,0-0.4,0.1-0.6,0.1C125.4,54.6,125.3,54.5,125.1,54.5z"/>
	<path fill-rule="evenodd" clip-rule="evenodd" fill="#595959" d="M142.9,67l-4.3-5.4c2-0.5,4.2-1.6,4.2-4.1c0-2-1.3-3.1-4.5-3.1
		h-4.5v14.3c0.4-0.1,0.7-0.1,1-0.1c0.4,0,0.6,0,1,0.1v-7h0.7l1.8,2l2.4,3.1c0.5,0.6,0.8,1.2,1.3,1.9c0.4-0.1,0.8-0.1,1.2-0.1
		c0.4,0,0.8,0,1.2,0.1l-0.4-0.6L142.9,67z M135.6,61v-5.7c0.8,0,2.3,0,3.1,0.1c1.6,0.2,2.3,1.1,2.3,2.6c0,1.6-1.2,2.6-2.7,2.9
		C137.3,61.1,135.8,61.1,135.6,61z"/>
	<path fill-rule="evenodd" clip-rule="evenodd" fill="#595959" d="M154.9,54.3l-6.6,14.6c0.2-0.1,0.5-0.1,0.7-0.1
		c0.2,0,0.5,0,0.8,0.1c0.6-2,1.3-3.8,2-5.7h5.2c0.8,1.9,1.7,3.9,2.3,5.7c0.4-0.1,0.7-0.1,1.1-0.1c0.4,0,0.7,0,1.1,0.1l-6.2-14.6
		H154.9z M152.3,62.3l2.3-5.4l2.4,5.4H152.3z"/>
	<path fill-rule="evenodd" clip-rule="evenodd" fill="#595959" d="M178.4,54.5v10.7h-0.2l-9.9-10.7h-0.8v14.3
		c0.2-0.1,0.4-0.1,0.6-0.1c0.2,0,0.4,0,0.6,0.1V57.5h0.2l9.1,10c0.4,0.5,0.8,1,1.1,1.3h0.6V54.5c-0.2,0-0.4,0.1-0.6,0.1
		C178.8,54.6,178.6,54.5,178.4,54.5z"/>
	<path fill-rule="evenodd" clip-rule="evenodd" fill="#595959" d="M185.6,55.1c0,0.2-0.1,0.5-0.1,0.7c1.2-0.2,2.5-0.4,4.5-0.4v13.4
		c0.4,0,0.7-0.1,1-0.1c0.4,0,0.6,0.1,1,0.1V55.5c1.8,0,3.3,0.1,4.3,0.4c0-0.2,0-0.5,0-0.7c0-0.1,0-0.4,0-0.6h-10.7
		C185.4,54.8,185.6,55,185.6,55.1z"/>
	<path fill-rule="evenodd" clip-rule="evenodd" fill="#595959" d="M203,57.6c0-1.6,1.2-2.5,2.6-2.5c1.2,0,2.1,0.7,2.6,1.8h0.2
		c0.1-0.6,0.2-1.1,0.5-1.7c-0.7-0.7-1.9-1-3-1c-2.5,0-4.7,1.3-4.7,3.9c0,4.8,6.6,3,6.6,6.9c0,1.7-1.2,3-2.9,3
		c-1.7,0-2.6-0.8-3.3-2.1h-0.2c-0.1,0.6-0.2,1.3-0.4,1.9c0.6,0.7,2.3,1.2,3.3,1.2c2.9,0,5.1-1.8,5.1-4.8
		C209.5,59.9,203,61.4,203,57.6z"/>
</g>
</svg>
