<?xml version="1.0" encoding="utf-8"?>
<!-- Generator: Adobe Illustrator 17.1.0, SVG Export Plug-In . SVG Version: 6.00 Build 0)  -->
<!DOCTYPE svg PUBLIC "-//W3C//DTD SVG 1.1//EN" "http://www.w3.org/Graphics/SVG/1.1/DTD/svg11.dtd">
<svg version="1.1" id="Layer_1" xmlns="http://www.w3.org/2000/svg" xmlns:xlink="http://www.w3.org/1999/xlink" x="0px" y="0px"
	 viewBox="0 0 246 88" enable-background="new 0 0 246 88" xml:space="preserve">
<g>
	<polygon fill="#595959" points="45.3,55.1 49,55.1 49,63.3 50.3,63.3 50.3,55.1 54.1,55.1 54.1,54.1 45.3,54.1 	"/>
	<path fill="#595959" d="M59,56.4c-1.2,0-2.3,0.5-2.8,1.4v-3.8h-1.3v9.2h1.3v-3.1c0-2.1,1.3-2.9,2.6-2.9c1.2,0,2,0.7,2,2.3v3.7H62
		v-3.8C62,57.4,60.7,56.4,59,56.4z"/>
	<path fill="#595959" d="M67.4,56.4c-2.3,0-3.8,1.3-3.8,3.7c0,2.1,1.4,3.4,3.8,3.4c1.6,0,3.2-0.6,3.5-2.2h-1.4
		c-0.3,0.9-1,1.3-2.2,1.3c-1.5,0-2.3-1-2.4-2.3H71v-0.4C71,57.7,69.7,56.4,67.4,56.4z M65,59.4c0.2-1.5,1.1-2.2,2.4-2.2
		c1.1,0,2.3,0.7,2.3,2.2H65z"/>
	<path fill="#595959" d="M118.2,58l-0.1-1.3h-1.2c0,0.5,0.1,0.9,0.1,1.5v5.1h1.2v-3.2c0-1.6,0.7-2.4,2.3-2.4c0.2,0,0.5,0,0.9,0.1
		v-1.1c-0.2-0.1-0.4-0.1-0.7-0.1C119.5,56.5,118.6,57.2,118.2,58z"/>
	<path fill="#595959" d="M157.1,58v-1.3h-1.2c0,0.5,0,0.9,0,1.5v5.1h1.3v-3.2c0-1.6,0.7-2.4,2.3-2.4c0.3,0,0.6,0,1,0.1v-1.1
		c-0.2-0.1-0.4-0.1-0.8-0.1C158.4,56.5,157.7,57.2,157.1,58z"/>
	<polygon fill="#595959" points="103.4,62.3 101.2,56.7 99.5,56.7 97.2,62.3 95.2,56.7 93.7,56.7 96.3,63.3 98.1,63.3 100.2,57.7 
		102.6,63.3 104.3,63.3 106.9,56.7 105.5,56.7 	"/>
	<path fill="#595959" d="M80.3,54.1h-3.9v9.2h1.3v-3.6h2.8c2.4,0,3.6-1.2,3.6-2.9C84,55.2,83.1,54,80.3,54.1z M80.3,58.7h-2.7V55
		h2.6c1.8,0,2.3,0.7,2.3,1.8C82.6,58,82,58.7,80.3,58.7z"/>
	<path fill="#595959" d="M88.8,56.4c-2.6,0-4,1.4-4,3.6c0,2.3,1.4,3.5,4,3.5c2.7,0,4.1-1.2,4.1-3.5S91.6,56.4,88.8,56.4z M88.8,62.6
		c-1.8,0-2.7-1.2-2.7-2.6c0-1.6,0.9-2.7,2.7-2.7c1.9,0,2.8,1.1,2.8,2.7C91.6,61.4,90.7,62.6,88.8,62.6z"/>
	<path fill="#595959" d="M111.4,56.4c-2.3,0-3.8,1.3-3.8,3.7c0,2.1,1.3,3.4,3.8,3.4c1.6,0,3.2-0.6,3.5-2.2h-1.3
		c-0.3,0.9-1.1,1.3-2.3,1.3c-1.5,0-2.3-1-2.4-2.3h6.2v-0.4C115.1,57.7,113.8,56.4,111.4,56.4z M109,59.4c0.2-1.5,1.1-2.2,2.4-2.2
		c1.1,0,2.3,0.7,2.3,2.2H109z"/>
	<path fill="#595959" d="M165,56.4c-2.3,0-3.8,1.3-3.8,3.7c0,2.1,1.4,3.4,3.8,3.4c1.7,0,3.3-0.6,3.6-2.2h-1.4
		c-0.3,0.9-1,1.3-2.2,1.3c-1.5,0-2.3-1-2.4-2.3h6.1v-0.4C168.6,57.7,167.3,56.4,165,56.4z M162.6,59.4c0.1-1.5,1.1-2.2,2.4-2.2
		c1.1,0,2.3,0.7,2.3,2.2H162.6z"/>
	<path fill="#595959" d="M135.6,56.4v0.3h-1.7v0.8h1.7v5.7h1.2v-5.7h2.7v-0.8h-2.7v-0.6c0-1,0.5-1.4,1.5-1.4c0.3,0,0.7,0.1,1.4,0.2
		V54c-0.5-0.1-1-0.1-1.7-0.1C136.2,53.9,135.6,54.8,135.6,56.4z"/>
	<path fill="#595959" d="M129.2,56.4c-2.6,0-4.1,1.4-4.1,3.6c0,2.3,1.4,3.5,4.1,3.5c2.6,0,4.1-1.2,4.1-3.5S132,56.4,129.2,56.4z
		 M129.2,62.6c-1.8,0-2.7-1.2-2.7-2.6c0-1.6,0.9-2.7,2.7-2.7c1.9,0,2.7,1.1,2.7,2.7C132,61.4,131,62.6,129.2,62.6z"/>
	<path fill="#595959" d="M187.9,56.4c-1.3,0-2.3,0.9-2.5,1.6c-0.4-1-1.4-1.6-2.3-1.6c-0.9,0-1.9,0.5-2.4,1.4l-0.1-1.1h-1.2
		c0,0.5,0.1,0.9,0.1,1.5v5.1h1.2v-3.2c0-2,1.1-2.8,2.2-2.8c1,0,1.6,0.8,1.6,2.6v3.4h1.3v-3.2c0-2.3,1.4-2.8,2.1-2.8
		c1.3,0,1.7,0.9,1.7,2.6v3.4h1.2v-3.8C190.6,57.3,189.5,56.4,187.9,56.4z"/>
	<path fill="#595959" d="M197.4,59.7l-2.2-0.5c-0.9-0.2-1.4-0.4-1.4-0.9c0-0.7,0.8-1,2-1c0.9,0,1.8,0.3,1.9,1.1h1.3
		c0-1.6-1.8-2-3.2-2c-1.7,0-3.2,0.6-3.2,2.1c0,1,0.8,1.5,1.8,1.7l2.1,0.4c0.7,0.2,1.4,0.4,1.4,0.9c0,0.8-0.7,1.1-2.2,1.1
		c-1.1,0-2-0.4-2.2-1.2h-1.3c0.1,1.5,1.5,2.1,3.4,2.1c2.4,0,3.7-0.7,3.7-2.1C199.2,60.4,198.6,59.9,197.4,59.7z"/>
	<path fill="#595959" d="M148.9,54.1h-3.9v9.2h3.9c3.3,0,5.2-1.7,5.2-4.6C154,55.7,152.4,54.1,148.9,54.1z M148.7,62.3h-2.3V55h2.2
		c3.3,0,4.1,1.2,4.1,3.7C152.6,60.6,151.9,62.3,148.7,62.3z"/>
	<path fill="#595959" d="M173.9,56.4c-1.4,0-3.1,0.4-3.3,2h1.4c0.1-0.7,0.7-1.1,1.9-1.1s1.9,0.5,1.9,1.6v0.3H175
		c-1.5,0-4.9-0.1-4.9,2.2c0,1.3,1.1,2.2,2.8,2.2c1.3,0,2.2-0.1,2.8-1.1l0.1,0.9h1.2c0-0.4,0-0.7,0-1.3v-3.2
		C177.1,57.2,175.8,56.4,173.9,56.4z M175.8,60.4c0,1.6-0.8,2.3-2.4,2.3c-1.3,0-1.8-0.6-1.8-1.3c0-1.4,2.6-1.3,3.6-1.3h0.7V60.4z"/>
	<path fill="#595959" d="M212.4,43c-0.9-0.1-1.5-1-2.3-2.2l-9.4-14.4c-0.4-0.6-0.9-1.2-1.9-1.2h-16v2.9l3.7,0.4
		c0.8,0.1,1.3,0.9,0.8,1.8l-7,11.5c-0.2,0.2-0.6,1-1.5,1.2l-2.9,0.3v2.8h13.4v-2.8l-2.3-0.3c-0.9-0.1-1.5-0.8-0.9-1.7l1-1.6h12.9
		l0.8,1.3c0.9,1.3,0,1.9-1.1,2l-2.3,0.3v2.8h18.1v-2.9L212.4,43z M189.2,36.1l4-6.4l4.1,6.4H189.2z"/>
	<path fill="#595959" d="M177.5,35.4c0-5.4-4.1-10.1-13.7-10.1h-20.6v2.9l2.5,0.2c1,0.2,1.4,0.8,1.4,1.8c0,0.9,0,10.5,0,11.3
		c0,0.8-0.4,1.6-1.2,1.7l-2.7,0.4v2.7h20.6C173.3,46.2,177.5,41.6,177.5,35.4z M155.2,42.2V29.3h5.3c5.2,0,7.2,1.1,7.2,6.5
		c0,5.3-2.1,6.4-7.2,6.4H155.2z"/>
	<path fill="#595959" d="M47.4,43.4l-2.9-0.3c-0.7-0.1-1.3-0.5-1.3-1.9v-3.4h12.9V41c0,0.9-0.2,1.9-1.3,2l-2.9,0.3v2.9h16.8v-2.9
		l-3-0.3c-0.6-0.1-1.2-0.6-1.2-1.7V30.4c0-1.1,0.4-1.9,1.3-2l2.9-0.3v-2.9H51.9v2.8l2.9,0.4c1,0.1,1.3,0.9,1.3,2v3.2H43.2v-3.3
		c0-1.2,0.6-1.8,1.4-1.9l2.8-0.3v-2.9H30.7v2.9l2.8,0.3c1,0.1,1.4,0.9,1.3,2V41c0,1.2-0.3,2-1.4,2.1l-2.8,0.3v2.8h16.8V43.4z"/>
	<path fill="#595959" d="M103.7,35.7c0-6.6-5.3-11.2-17.1-11.2c-11.8,0-17.2,4.6-17.2,11.2c0,6.7,5.3,11.3,17.2,11.3
		C98.4,47,103.7,42.4,103.7,35.7z M79.1,35.7c0-5.4,2.7-7.2,7.5-7.2c4.7,0,7.4,1.8,7.4,7.2c0,5.5-2.7,7.3-7.4,7.3
		C81.8,43,79.1,41.2,79.1,35.7z"/>
	<path fill="#595959" d="M128,28.1l2.9,0.4c1,0.1,1.2,1,1.2,2v10.3l-11-14.5c-0.5-0.6-1-0.9-1.8-0.9h-14.7v2.9l2.7,0.3
		c1,0.2,1.4,0.7,1.4,2l0,10.6c0,1.3-0.4,1.9-1.4,2.1l-2.7,0.3v2.8H118v-2.8l-2.8-0.3c-0.8-0.1-1.3-0.8-1.3-1.8V30.7l11.1,14.6
		c0.4,0.6,1.1,0.8,1.8,0.8h10.5V30.3c0-0.7,0.2-1.8,1.2-1.9l2.9-0.3v-2.9H128V28.1z"/>
</g>
</svg>
