<?xml version="1.0" encoding="utf-8"?>
<!-- Generator: Adobe Illustrator 17.1.0, SVG Export Plug-In . SVG Version: 6.00 Build 0)  -->
<!DOCTYPE svg PUBLIC "-//W3C//DTD SVG 1.1//EN" "http://www.w3.org/Graphics/SVG/1.1/DTD/svg11.dtd">
<svg version="1.1" id="Layer_1" xmlns="http://www.w3.org/2000/svg" xmlns:xlink="http://www.w3.org/1999/xlink" x="0px" y="0px"
	 viewBox="0 0 246 88" enable-background="new 0 0 246 88" xml:space="preserve">
<g>
	<path fill-rule="evenodd" clip-rule="evenodd" fill="#0079BB" d="M69.2,50.1V53c0,5.1,2,9.6,4.1,12.6c2.3,3.5,5.4,5.5,8.9,7.7
		c2.8,1.8,8.4,3.7,12.2,4.5c4.7,0.9,9.4,1.6,15.1,1.6h2.8c17.3,0,34.9-5,46.3-11v-8.2c-3.1,1.6-6.8,3.8-10.4,4.9
		c-0.8,0.2-1.9,0.7-2.7,1c-1,0.4-1.9,0.6-2.9,1c-1.4,0.6-4.3,1.3-5.9,1.7c-2.1,0.4-4,1-6.2,1.4c-2.2,0.4-4.2,0.7-6.5,1.1
		c-2.1,0.4-4.7,0.5-7,0.7c-2.4,0.2-4.9,0.3-7.4,0.3h-0.5c-9.2,0-18-1.4-24.1-4.5c-5.9-3-11.4-8.4-11.4-17.2v-0.8
		c0-4.1,1.3-7.3,2.5-10.3c0.5-1.3,1.5-3,2.3-4.1c0.5-0.7,0.9-1.2,1.3-1.9c0.4-0.6,1.1-1.2,1.5-1.8v-2.9c-1.4,1-2.9,2.8-4.1,4.1
		c-1.4,1.4-2.4,3-3.5,4.7C71.6,40.2,69.2,46,69.2,50.1L69.2,50.1z"/>
	<path fill-rule="evenodd" clip-rule="evenodd" fill="#0079BB" d="M176.8,34.6V32c0,0-0.4-2.9-0.5-3.3c-0.2-0.9-0.5-2.1-0.8-2.9
		c-0.8-2-1.5-3.3-2.7-4.9c-2.2-2.9-4.9-5.1-8.2-6.9c-6.1-3.4-15.4-5.4-25-5.4h-0.8c-9.8,0-17.9,1.6-25.6,3.8c-2,0.6-3.7,1.2-5.6,1.8
		c-1.6,0.5-3.9,1.4-5.3,2.1c-1.7,0.8-3.3,1.5-5,2.4c-0.9,0.4-4.2,2.5-4.8,2.6v2.2c0.7-0.2,3.5-1.7,4.5-2.1c1.5-0.6,3.3-1.5,4.7-2
		c0.7-0.2,1.8-0.6,2.4-0.9c0.8-0.3,1.6-0.5,2.5-0.8c1.6-0.5,3.4-1.2,5.1-1.6c3.7-0.9,6.9-1.7,11-2.4c3.4-0.6,8.3-1.2,12.1-1.2h4
		c7.9,0,16.4,1.8,21.4,4.6c3.1,1.7,5.1,3.1,7.2,5.8c1.6,2,3.6,6,3.6,9.5v1.5c0,3.7-1.9,7.7-3.6,9.9c-1,1.3-1.9,2.5-3.2,3.6
		c-0.6,0.5-3.3,2.7-4,2.8V56c1.3-0.1,5.1-2.6,6-3.3c1.8-1.3,3.4-2.9,4.8-4.6c1.6-2,2.4-3.4,3.5-5.9c0.5-1.1,0.8-2.2,1.2-3.5
		C176.3,38.2,176.8,34.6,176.8,34.6L176.8,34.6z"/>
	<path fill-rule="evenodd" clip-rule="evenodd" fill="#0079BB" d="M128.5,44.6v1.1c0,6.2,3.8,10.7,10,10.7h1.2c1.9,0,3.2-0.5,4.5-1
		c1.5-0.6,2.2-1.7,3.3-2.4l-3.5-3.3c-0.7,1-2.6,2.1-4.4,2.1h-1c-2.3,0-4.5-2-4.5-4.2v-0.6h14v-2.4c0-2.9-1-5.6-2.3-7.2
		c-1.2-1.6-3.6-3.3-6.3-3.3h-1.7c-2.8,0-5.4,1.8-6.8,3.3C129.6,38.7,128.5,41.6,128.5,44.6L128.5,44.6z M134,42.4v0.6h8.4v-0.4
		c0-2.2-1.6-4.2-3.9-4.2h-0.4C136,38.4,134,40.4,134,42.4L134,42.4z"/>
	<path fill-rule="evenodd" clip-rule="evenodd" fill="#0079BB" d="M95.4,56h5.5V38.7h4.9c1.1,0,2,0.8,2,1.9V56h5.6V40.6
		c0-3.6-2.5-6.5-6.1-6.5H95.4V56L95.4,56z"/>
	<path fill-rule="evenodd" clip-rule="evenodd" fill="#0079BB" d="M117.3,49.5c0,3.7,2.4,6.5,6,6.5h3.8v-4.7h-2.8
		c-0.8,0-1.4-1-1.4-1.8V38.7h4.2v-4.5h-4.2v-6h-5.6V49.5L117.3,49.5z"/>
	<path fill-rule="evenodd" clip-rule="evenodd" fill="#0079BB" d="M151.3,50.7c0,1.5,0.9,2.8,1.7,3.6c0.4,0.4,1.1,0.8,1.7,1
		c0.9,0.3,1.3,0.3,2.2,0.5V25.1h-5.6V50.7L151.3,50.7z"/>
	<path fill-rule="evenodd" clip-rule="evenodd" fill="#0079BB" d="M84.8,39.3l0,10.9c0,3.7,2.2,6,5.7,6.1V34.2l-5.5,0L84.8,39.3
		L84.8,39.3z"/>
	<polygon fill-rule="evenodd" clip-rule="evenodd" fill="#0079BB" points="84.9,31.1 90.4,31.1 90.4,25.8 84.9,25.8 84.9,31.1 	"/>
	<path fill-rule="evenodd" clip-rule="evenodd" fill="#0079BB" d="M162.8,25.1c0.4,0,0.7,0.1,1.1,0.3c0.4,0.2,0.6,0.5,0.8,0.8
		c0.2,0.4,0.3,0.7,0.3,1.1c0,0.4-0.1,0.8-0.3,1.1c-0.2,0.4-0.5,0.6-0.8,0.8c-0.4,0.2-0.7,0.3-1.1,0.3c-0.4,0-0.8-0.1-1.1-0.3
		c-0.4-0.2-0.6-0.5-0.8-0.8c-0.2-0.4-0.3-0.7-0.3-1.1c0-0.4,0.1-0.8,0.3-1.1c0.2-0.4,0.5-0.6,0.8-0.8
		C162.1,25.2,162.4,25.1,162.8,25.1L162.8,25.1z M162.8,25.5c-0.3,0-0.6,0.1-0.9,0.2c-0.3,0.2-0.5,0.4-0.7,0.7
		c-0.2,0.3-0.3,0.6-0.3,0.9c0,0.3,0.1,0.6,0.2,0.9c0.2,0.3,0.4,0.5,0.7,0.7c0.3,0.2,0.6,0.2,0.9,0.2s0.6-0.1,0.9-0.2
		c0.3-0.2,0.5-0.4,0.7-0.7c0.2-0.3,0.2-0.6,0.2-0.9c0-0.3-0.1-0.6-0.2-0.9c-0.2-0.3-0.4-0.5-0.7-0.7
		C163.4,25.5,163.1,25.5,162.8,25.5L162.8,25.5z M161.8,28.6v-2.4h0.8c0.3,0,0.5,0,0.6,0.1c0.1,0,0.2,0.1,0.3,0.2
		c0.1,0.1,0.1,0.2,0.1,0.4c0,0.2-0.1,0.3-0.2,0.5c-0.1,0.1-0.3,0.2-0.5,0.2c0.1,0,0.2,0.1,0.2,0.1c0.1,0.1,0.2,0.3,0.4,0.5l0.3,0.5
		h-0.5l-0.2-0.4c-0.2-0.3-0.3-0.5-0.4-0.6c-0.1-0.1-0.2-0.1-0.3-0.1h-0.2v1H161.8L161.8,28.6z M162.2,27.2h0.5c0.2,0,0.4,0,0.5-0.1
		c0.1-0.1,0.1-0.2,0.1-0.3c0-0.1,0-0.1-0.1-0.2c0-0.1-0.1-0.1-0.2-0.1c-0.1,0-0.2,0-0.4,0h-0.4V27.2L162.2,27.2z"/>
</g>
</svg>
