<?xml version="1.0" encoding="utf-8"?>
<!-- Generator: Adobe Illustrator 19.2.1, SVG Export Plug-In . SVG Version: 6.00 Build 0)  -->
<!DOCTYPE svg PUBLIC "-//W3C//DTD SVG 1.1//EN" "http://www.w3.org/Graphics/SVG/1.1/DTD/svg11.dtd">
<svg version="1.1" id="Layer_1" xmlns="http://www.w3.org/2000/svg" xmlns:xlink="http://www.w3.org/1999/xlink" x="0px" y="0px"
	 viewBox="0 0 246 88" style="enable-background:new 0 0 246 88;" xml:space="preserve">
<style type="text/css">
	.st0{fill:#E6E6E6;}
	.st1{fill:#D9D9D9;}
	.st2{fill:#CCCCCC;}
	.st3{fill:#BFBFBF;}
	.st4{fill:#FFFFFF;}
	.st5{fill:#727272;}
	.st6{fill:none;stroke:#4F4F4F;stroke-width:7.883899e-02;stroke-miterlimit:2.6131;}
	.st7{fill:#353535;}
</style>
<g>
	<path class="st0" d="M79.6,35.5L79.6,35.5C79.6,35.5,79.6,35.5,79.6,35.5c1.3,0,2,0.6,2,1.9c0,1.2-0.6,1.8-2,1.8c0,0-0.1,0-0.2,0
		c0-0.8,0-2.3,0.1-3.7C79.5,35.5,79.6,35.5,79.6,35.5L79.6,35.5L79.6,35.5z M84.4,40.4c1-0.8,1.7-1.9,1.6-3.5c0-3.4-2-5.2-5.8-5.2
		h-5c-0.1,0-0.2,0-0.2,0.1c-0.1,0.1-0.1,0.2-0.1,0.2c0.1,3.5,0.2,5.3,0.2,8.7c0,3.2-0.1,5.1-0.2,8.3c0,0.1,0,0.2,0.1,0.3
		c0.1,0.1,0.2,0.1,0.3,0.1l4-0.3c0.2,0,0.3-0.2,0.3-0.3c0,0,0,0,0,0c-0.1-2.1-0.2-3.9-0.2-5.9c0.2,0,0.3,0,0.4,0
		c0.6,1.6,1.4,3.6,2.1,5.4l0.2,0.5c0.1,0.1,0.2,0.2,0.3,0.2l1-0.1c1.3-0.1,2.7-0.2,4.1-0.2c0.3,0,0.5-0.3,0.6-0.4
		c0.1-0.2,0.2-0.7,0-1C87.2,45.9,85.2,42.2,84.4,40.4L84.4,40.4z"/>
	<path class="st0" d="M99.4,32.6L99.4,32.6c-0.1,0-3.9,0-3.9,0c-0.1,0-0.2,0-0.2,0.1c-0.1,0.1-0.1,0.2-0.1,0.3l0,0.1
		c0.1,1.7,0.2,6.1,0.1,7.9c-0.1,2.7-0.4,3.5-1.4,3.5c-0.8,0-1.1-0.1-1.2-0.3c-0.4-0.4-0.6-1.4-0.6-3.2c0-3,0.1-7,0.1-7.9l0-0.1
		c0-0.1,0-0.2-0.1-0.3c-0.1-0.1-0.2-0.1-0.3-0.1l-1.5,0l-2.8,0c-0.1,0-0.2,0-0.3,0.1c-0.1,0.1-0.1,0.2-0.1,0.3l0,0.1
		c0.1,1.2,0.2,5.5,0.1,9.9c0,1.9,0.5,3.3,1.4,4.2c1,1,2.6,1.5,4.7,1.4c4-0.2,6-2.2,6-5.9c0-2.6,0-8.1,0.1-9.6l0-0.1
		c0-0.1,0-0.2-0.1-0.3C99.6,32.6,99.5,32.6,99.4,32.6L99.4,32.6z"/>
	<path class="st0" d="M107.8,38.3c0,0-0.9-0.4-0.9-0.4c-1.4-0.6-1.4-0.8-1.4-1.1c0-0.4,0.4-0.7,1.1-0.7c0.8,0,1.9,0.2,2.7,0.6
		c0,0,0.1,0,0.1,0c0.1,0,0.2,0,0.3,0c0.1,0,0.2-0.1,0.2-0.2l0.9-3.3c0-0.2-0.1-0.4-0.2-0.4l-0.1,0c-1.4-0.5-2.6-0.7-4.1-0.6
		c-3.2,0-5.6,2.3-5.6,5.2c0,2.3,1,3.9,3,4.6l1.1,0.4c1.4,0.6,1.4,0.9,1.4,1.2c0,0.2,0,0.6-1.2,0.7c-0.9,0-2.1-0.2-3.1-0.6
		c0,0-0.1,0-0.1,0l-0.1-0.1c-0.1,0-0.2,0-0.3,0c-0.1,0-0.2,0.1-0.2,0.2l0,0.1c0,0-0.9,3-0.9,3c0,0.2,0,0.3,0.2,0.4l0.1,0.1
		c0,0,0,0,0,0c1.2,0.5,2.7,0.7,4.6,0.7c3.4-0.1,5.6-2.1,5.6-5C111,40.8,110,39.3,107.8,38.3L107.8,38.3z"/>
	<path class="st0" d="M148.8,43.6l-0.4-0.1l-0.2,0c0,0,0,0,0,0c0,0-0.3,0-0.3,0l-0.6,0.1c-0.7,0-1.3,0.1-2.3,0.1
		c0-1-0.1-2.1-0.1-3.3c0-3,0-4.5,0.2-7.2c0,0,0-0.3,0-0.3c0,0,0,0,0,0c0-0.1,0-0.2-0.1-0.2c-0.1-0.1-0.2-0.1-0.2-0.1l-4.3,0
		c-0.1,0-0.2,0-0.2,0.1c-0.1,0.1-0.1,0.1-0.1,0.2c0,0,0,0.2,0,0.2c0,0,0,0.1,0,0.1c0.1,2.9,0.2,4.4,0.2,7.2c0,2.5,0,3.9-0.2,6.3
		c0,0,0,0,0-0.1c0,0,0,0.1,0,0.1c0,0,0,0.2,0,0.2c0,0.1,0,0.2,0.1,0.3c0.1,0.1,0.2,0.1,0.2,0.1l6.1,0.1l1.1,0c0.2,0,0.3-0.1,0.3-0.3
		c0,0,0.8-3.1,0.8-3.1l0-0.1c0-0.1,0.1-0.1,0.1-0.2c0,0,0,0,0-0.1C148.9,43.7,148.9,43.7,148.8,43.6L148.8,43.6z"/>
	<path class="st0" d="M158.3,43.8l-0.1,0l0,0l-0.3,0c0,0-0.5,0-0.5,0c-0.9,0-1.9,0-3.2,0c0-0.6,0-1.3,0-2c0,0,0.2,0,0.2,0
		c1.1,0,1.7,0.1,2.5,0.2c0,0,0.5,0,0.5,0c0,0,0.1,0,0.1,0c0.1,0,0.2,0,0.3-0.1c0.1-0.1,0.1-0.2,0.1-0.3l0-0.1v-3.3
		c0-0.1,0-0.2-0.1-0.2c-0.1-0.1-0.2-0.1-0.3-0.1l-0.1,0c0,0-0.2,0-0.2,0c-1,0.1-1.5,0.1-2.5,0.1c0,0-0.2,0-0.5,0c0-0.6,0-1.2,0-1.7
		c1.3,0,2.3,0,3.3,0.1l0.2,0c0.1,0,0.2,0,0.3-0.1c0.1-0.1,0.1-0.2,0.1-0.3l0-0.1v-3.3c0-0.2-0.2-0.3-0.3-0.3l-8,0
		c-0.1,0-0.2,0-0.2,0.1c-0.1,0.1-0.1,0.2-0.1,0.2l0,0.3c0.1,2.9,0.2,4.5,0.2,7.3c0,2.6-0.1,4-0.2,6.4c0,0,0,0,0,0c0,0.1,0,0.1,0,0.2
		c0,0,0,0.1,0,0.1c0,0.2,0.1,0.3,0.3,0.3l7.6,0.2c0,0,0,0,0,0c0,0,0.1,0,0.1,0c0.2,0,0.3-0.1,0.3-0.2l1-3.1c0-0.1,0-0.2-0.1-0.3
		C158.5,43.9,158.4,43.8,158.3,43.8L158.3,43.8z"/>
	<path class="st0" d="M171.5,32.6C171.5,32.6,171.4,32.6,171.5,32.6l-3.9,0c-0.1,0-0.2,0-0.2,0.1c-0.1,0.1-0.1,0.2-0.1,0.3l0,0.3
		c0.1,2.6,0.1,4.1,0.1,6.6l0,0.9c0,1.8-0.2,2.8-0.6,3.2c-0.1,0.1-0.3,0.2-0.8,0.2c-0.5,0-0.8-0.1-1.1-0.2c-0.5-0.3-0.7-1.3-0.8-3.3
		v-0.8c0-2.5,0-4,0.1-6.6c0,0,0-0.3,0-0.3c0-0.1,0-0.2-0.1-0.3c-0.1-0.1-0.2-0.1-0.2-0.1l-0.1,0c0,0-4.2,0-4.2,0
		c-0.1,0-0.2,0-0.2,0.1c-0.1,0.1-0.1,0.2-0.1,0.2l0,0.1c0,0,0,0.2,0,0.2c0.1,2.3,0.1,4,0.1,5.6c0,0,0,0.3,0,0.3c0,0,0,3.3,0,3.3
		c0,3.6,2.1,5.6,6.1,5.8c2.1,0.1,3.6-0.4,4.7-1.4c0.9-0.9,1.4-2.3,1.4-4.1c0,0,0-3.4,0-3.4v-0.3c0-1.7,0-3.3,0.1-5.7c0,0,0,0,0,0
		c0,0,0-0.2,0-0.2c0-0.1,0-0.2-0.1-0.3C171.7,32.6,171.6,32.6,171.5,32.6L171.5,32.6z"/>
	<path class="st0" d="M190.2,48.6c-0.5-6.1-0.6-15.2-0.7-15.6V33c0,0,0-0.1,0-0.1c0-0.2-0.2-0.3-0.3-0.3h-4.9
		c-0.1,0-0.3,0.1-0.3,0.2l0,0c0,0,0,0,0,0l0,0.1c0,0,0,0,0,0c-0.7,2.4-1.2,5-1.9,7.7c-0.7-3-2-7.9-2-7.9c0-0.1-0.2-0.2-0.3-0.2
		l-5.4,0c0,0-0.1,0-0.1,0c-0.1,0-0.2,0-0.2,0.1c-0.1,0.1-0.1,0.1-0.1,0.2l0,0.3c-0.1,4.8-0.5,8.9-1.1,14.4c0,0,0,0.3,0,0.3
		c0,0.1,0,0.2,0.1,0.3c0.1,0.1,0.2,0.1,0.2,0.1l0.1,0c0,0,3.5,0.2,3.5,0.2c0.1,0,0.2,0,0.2-0.1c0.1-0.1,0.1-0.1,0.1-0.2l0-0.2
		c0,0,0-0.1,0-0.1c0.1-2.5,0.2-4.8,0.4-7.4c0.7,2.7,1.3,5.2,1.8,7.6c0,0,0,0.2,0,0.2c0,0.2,0.2,0.3,0.3,0.3c0,0,0.1,0,0.1,0
		c0,0,3.4,0.2,3.4,0.2c0.2,0,0.3-0.1,0.4-0.3c0,0,1.3-5.1,2-7.9c0.1,2.6,0.1,5.4,0.1,7.7v0.2c0,0.2,0.1,0.3,0.3,0.3l4.1,0.3
		c0.1,0,0.2,0,0.3-0.1c0.1-0.1,0.1-0.2,0.1-0.3L190.2,48.6L190.2,48.6z"/>
	<path class="st0" d="M122.3,36.6C122.3,36.6,122.3,36.6,122.3,36.6c0,0,0.1,0,0.1,0c0,0,0.1,0,0.1,0c0.1,0,0.2,0,0.3-0.1
		c0.1-0.1,0.1-0.2,0.1-0.2l0-3.3c0-0.1,0-0.2-0.1-0.2c-0.1-0.1-0.2-0.1-0.2-0.1l-10.6,0c-0.2,0-0.3,0.1-0.3,0.3l-0.9,3.5
		c0,0.1,0,0.2,0.1,0.3c0.1,0.1,0.2,0.1,0.3,0.1l0.3,0c0,0,0.6-0.1,0.6-0.1c0.7-0.1,1.2-0.1,2.1-0.1c0,0.4,0,3.5,0,3.5
		c0,2.9,0,4.3-0.2,6.9c0,0,0,0.2,0,0.2c0,0,0,0,0,0c0,0.1,0,0.2,0.1,0.2c0.1,0.1,0.2,0.1,0.3,0.1l0.1,0c0,0,4.2-0.1,4.2-0.1
		c0.1,0,0.2,0,0.2-0.1c0.1-0.1,0.1-0.2,0.1-0.3l0-0.1c0,0,0-0.1,0-0.1c-0.1-2.4-0.2-3.9-0.2-6.8c0,0,0-2.5,0-3.5
		C120,36.5,121.4,36.5,122.3,36.6L122.3,36.6z"/>
	<path class="st0" d="M134.7,40.1c0,1.1-0.2,3.7-2.3,3.7c-1.7,0-2.3-1.9-2.4-3.7c0-1.2,0.2-3.9,2.4-3.9
		C134.1,36.2,134.7,38.3,134.7,40.1L134.7,40.1L134.7,40.1z M132.4,32.3C132.4,32.3,132.4,32.3,132.4,32.3c-5,0.1-7.3,4.2-7.3,8
		c0,4.4,2.8,7.1,7.3,7.1c4.4-0.1,7.2-3,7.3-7.5C139.6,35.4,136.8,32.4,132.4,32.3L132.4,32.3z"/>
	<path class="st0" d="M123.9,38.5h-4c-0.2,0-0.3,0.2-0.3,0.3v2.7c0,0.2,0.2,0.3,0.3,0.3h4c0.2,0,0.3-0.2,0.3-0.3v-2.7
		C124.2,38.7,124.1,38.5,123.9,38.5L123.9,38.5z"/>
	<path class="st1" d="M79.4,35.3L79.4,35.3L79.4,35.3c1.3,0,2,0.6,2,1.9c0,1.2-0.6,1.8-2,1.8c0,0-0.1,0-0.2,0c0-0.8,0-2.3,0.1-3.7
		C79.4,35.4,79.4,35.3,79.4,35.3L79.4,35.3L79.4,35.3z M84.1,40.3c1.1-0.9,1.8-2,1.8-3.6c0-3.4-2-5.2-5.8-5.2h-5
		c-0.1,0-0.2,0-0.2,0.1c-0.1,0.1-0.1,0.2-0.1,0.2c0.1,3.5,0.2,5.3,0.2,8.7c0,3.2-0.1,5.1-0.2,8.3c0,0.1,0,0.2,0.1,0.3
		c0.1,0.1,0.2,0.1,0.3,0.1l4-0.3c0.2,0,0.3-0.2,0.3-0.3c0,0,0,0,0,0c-0.1-2.1-0.2-3.9-0.2-5.9c0.2,0,0.3,0,0.4,0
		c0.6,1.6,1.4,3.6,2.1,5.4l0.2,0.5c0.1,0.1,0.2,0.2,0.3,0.2l1-0.1c1.3-0.1,2.7-0.2,4.1-0.2c0.3,0,0.4-0.3,0.5-0.4
		c0.1-0.2,0.1-0.6,0-0.8C86.9,45.9,84.9,42.1,84.1,40.3L84.1,40.3z"/>
	<path class="st1" d="M99.2,32.4L99.2,32.4l-3.9,0c-0.1,0-0.2,0-0.2,0.1C95,32.5,95,32.6,95,32.7l0,0.1c0.1,1.7,0.2,6.1,0.1,7.9
		c-0.1,2.7-0.4,3.5-1.4,3.5c-0.8,0-1.1-0.1-1.2-0.3c-0.4-0.4-0.6-1.4-0.6-3.2c0-3,0.1-7,0.1-7.9l0-0.1c0-0.1,0-0.2-0.1-0.3
		c-0.1-0.1-0.2-0.1-0.3-0.1l-1.5,0l-2.8,0c-0.1,0-0.2,0-0.3,0.1c-0.1,0.1-0.1,0.2-0.1,0.3l0,0.1c0.1,1.2,0.2,5.5,0.1,9.9
		c0,1.9,0.5,3.3,1.4,4.2c1,1,2.6,1.5,4.7,1.4c4-0.2,6-2.2,6-5.9c0-2.6,0-8.1,0.1-9.6l0-0.1c0-0.1,0-0.2-0.1-0.3
		C99.4,32.4,99.3,32.4,99.2,32.4L99.2,32.4z"/>
	<path class="st1" d="M107.6,38.2c0,0-0.9-0.4-0.9-0.4c-1.4-0.6-1.4-0.8-1.4-1.1c0-0.4,0.4-0.7,1.1-0.7c0.8,0,1.9,0.2,2.7,0.6
		c0,0,0.1,0,0.1,0c0.1,0,0.2,0,0.3,0c0.1,0,0.2-0.1,0.2-0.2l0.9-3.3c0-0.2-0.1-0.4-0.2-0.4l-0.1,0c-1.4-0.5-2.6-0.7-4.1-0.6
		c-3.2,0-5.6,2.3-5.6,5.2c0,2.3,1,3.9,3,4.6l1.1,0.4c1.4,0.6,1.4,0.9,1.4,1.2c0,0.2,0,0.6-1.2,0.7c-0.9,0-2.1-0.2-3.1-0.6
		c0,0-0.1,0-0.1,0l-0.1-0.1c-0.1,0-0.2,0-0.3,0c-0.1,0-0.2,0.1-0.2,0.2l0,0.1c0,0-0.9,3-0.9,3c0,0.2,0,0.3,0.2,0.4l0.1,0.1
		c0,0,0,0,0,0c1.2,0.5,2.7,0.7,4.6,0.7c3.4-0.2,5.6-2.1,5.6-5C110.8,40.6,109.8,39.1,107.6,38.2L107.6,38.2z"/>
	<path class="st1" d="M148.6,43.4l-0.4-0.1c0,0-0.2,0-0.2,0c0,0,0,0,0,0c0,0-0.3,0-0.3,0l-0.6,0.1c-0.7,0-1.3,0.1-2.3,0.1
		c0-1-0.1-2.1-0.1-3.3c0-3,0-4.5,0.2-7.2c0,0,0-0.3,0-0.3c0,0,0,0,0,0c0-0.1,0-0.2-0.1-0.2c-0.1-0.1-0.2-0.1-0.2-0.1l-4.3,0h0
		c-0.1,0-0.2,0-0.2,0.1c-0.1,0.1-0.1,0.1-0.1,0.2c0,0,0,0.2,0,0.2c0,0,0,0.1,0,0.1c0.1,2.9,0.2,4.4,0.2,7.2c0,2.5,0,3.9-0.2,6.3
		c0,0,0,0,0-0.1c0,0,0,0.1,0,0.1c0,0,0,0.2,0,0.2c0,0.1,0,0.2,0.1,0.3c0.1,0.1,0.2,0.1,0.2,0.1l6.1,0.1l1.1,0c0.2,0,0.3-0.1,0.3-0.3
		c0,0,0.8-3.1,0.8-3.1c0,0,0-0.1,0-0.1c0-0.1,0.1-0.1,0.1-0.2c0,0,0,0,0-0.1C148.7,43.5,148.7,43.5,148.6,43.4L148.6,43.4z"/>
	<path class="st1" d="M158.1,43.6l-0.1,0c0,0,0,0,0,0l-0.3,0c0,0-0.5,0-0.5,0c-0.9,0-1.9,0-3.2,0c0-0.6,0-1.3,0-2c0,0,0.2,0,0.2,0
		c1.1,0,1.7,0.1,2.5,0.2c0,0,0.5,0,0.5,0c0,0,0.1,0,0.1,0c0.1,0,0.2,0,0.3-0.1c0.1-0.1,0.1-0.2,0.1-0.3l0-0.1v-3.3
		c0-0.1,0-0.2-0.1-0.2c-0.1-0.1-0.2-0.1-0.3-0.1l-0.1,0c0,0-0.2,0-0.2,0c-1,0.1-1.5,0.1-2.5,0.1c0,0-0.2,0-0.5,0c0-0.6,0-1.2,0-1.7
		c1.3,0,2.3,0,3.3,0.1c0,0,0.2,0,0.2,0c0.1,0,0.2,0,0.3-0.1c0.1-0.1,0.1-0.2,0.1-0.3l0-0.1v-3.3c0-0.2-0.2-0.3-0.3-0.3l-8,0
		c-0.1,0-0.2,0-0.2,0.1c-0.1,0.1-0.1,0.2-0.1,0.2l0,0.3c0.1,2.9,0.2,4.5,0.2,7.3c0,2.6-0.1,4-0.2,6.4c0,0,0,0,0,0c0,0.1,0,0.1,0,0.2
		c0,0,0,0.1,0,0.1c0,0.2,0.1,0.3,0.3,0.3l7.6,0.2c0,0,0,0,0,0c0,0,0.1,0,0.1,0c0.2,0,0.3-0.1,0.3-0.2l1-3.1c0-0.1,0-0.2-0.1-0.3
		C158.3,43.7,158.2,43.6,158.1,43.6L158.1,43.6z"/>
	<path class="st1" d="M171.3,32.4C171.3,32.4,171.3,32.4,171.3,32.4l-3.9,0c-0.1,0-0.2,0-0.2,0.1c-0.1,0.1-0.1,0.2-0.1,0.3l0,0.3
		c0.1,2.6,0.1,4.1,0.1,6.6l0,0.9c0,1.8-0.2,2.8-0.6,3.2c-0.1,0.1-0.3,0.2-0.8,0.2c-0.5,0-0.8-0.1-1.1-0.2c-0.5-0.3-0.7-1.3-0.8-3.3
		v-0.8c0-2.5,0-4,0.1-6.6c0,0,0-0.3,0-0.3c0-0.1,0-0.2-0.1-0.3c-0.1-0.1-0.2-0.1-0.2-0.1l-0.1,0c0,0-4.2,0-4.2,0
		c-0.1,0-0.2,0-0.2,0.1c-0.1,0.1-0.1,0.2-0.1,0.2l0,0.1c0,0,0,0.2,0,0.2c0.1,2.3,0.1,4,0.1,5.6c0,0,0,0.3,0,0.3c0,0,0,3.3,0,3.3
		c0,3.6,2.1,5.6,6.1,5.8c2.1,0.1,3.6-0.4,4.7-1.4c0.9-0.9,1.4-2.3,1.4-4.1c0,0,0-3.4,0-3.4v-0.3c0-1.7,0-3.3,0.1-5.7c0,0,0,0,0,0
		c0,0,0-0.2,0-0.2c0-0.1,0-0.2-0.1-0.3C171.5,32.4,171.4,32.4,171.3,32.4L171.3,32.4z"/>
	<path class="st1" d="M190.1,48.5c-0.5-6.1-0.6-15.2-0.7-15.6v-0.1c0,0,0-0.1,0-0.1c0-0.2-0.2-0.3-0.3-0.3h-4.9
		c-0.1,0-0.3,0.1-0.3,0.2l0,0c0,0,0,0,0,0l0,0.1c0,0,0,0,0,0c-0.7,2.4-1.2,5-1.9,7.7c-0.7-3-2-7.9-2-7.9c0-0.1-0.2-0.2-0.3-0.2
		l-5.4,0c0,0-0.1,0-0.1,0c-0.1,0-0.2,0-0.2,0.1c-0.1,0.1-0.1,0.1-0.1,0.2l0,0.3c-0.1,4.8-0.5,8.9-1.1,14.4c0,0,0,0.3,0,0.3
		c0,0.1,0,0.2,0.1,0.3c0.1,0.1,0.2,0.1,0.2,0.1l0.1,0c0,0,3.5,0.2,3.5,0.2c0.1,0,0.2,0,0.2-0.1c0.1-0.1,0.1-0.1,0.1-0.2l0-0.2
		c0,0,0-0.1,0-0.1c0.1-2.5,0.2-4.8,0.4-7.4c0.7,2.7,1.3,5.2,1.8,7.6c0,0,0,0.2,0,0.2c0,0.2,0.2,0.3,0.3,0.3l0.1,0
		c0,0,3.4,0.2,3.4,0.2c0.2,0,0.3-0.1,0.4-0.3c0,0,1.3-5.1,2-7.9c0.1,2.6,0.1,5.4,0.1,7.7v0.2c0,0.2,0.1,0.3,0.3,0.3l4.1,0.3
		c0.1,0,0.2,0,0.3-0.1c0.1-0.1,0.1-0.2,0.1-0.3L190.1,48.5L190.1,48.5z"/>
	<path class="st1" d="M122.1,36.4C122.1,36.4,122.1,36.4,122.1,36.4c0,0,0.1,0,0.1,0c0,0,0.1,0,0.1,0c0.1,0,0.2,0,0.3-0.1
		c0.1-0.1,0.1-0.2,0.1-0.2l0-3.3c0-0.1,0-0.2-0.1-0.2c-0.1-0.1-0.2-0.1-0.2-0.1l-10.6,0c-0.2,0-0.3,0.1-0.3,0.3l-0.9,3.5
		c0,0.1,0,0.2,0.1,0.3c0.1,0.1,0.2,0.1,0.3,0.1l0.3,0c0,0,0.6-0.1,0.6-0.1c0.7-0.1,1.2-0.1,2.1-0.1c0,0.4,0,3.5,0,3.5
		c0,2.9,0,4.3-0.2,6.9c0,0,0,0.2,0,0.2c0,0,0,0,0,0c0,0.1,0,0.2,0.1,0.2c0.1,0.1,0.2,0.1,0.3,0.1l0.1,0c0,0,4.2-0.1,4.2-0.1
		c0.1,0,0.2,0,0.2-0.1c0.1-0.1,0.1-0.2,0.1-0.3l0-0.1c0,0,0-0.1,0-0.1c-0.1-2.4-0.2-3.9-0.2-6.8c0,0,0-2.5,0-3.5
		C119.9,36.3,121.2,36.3,122.1,36.4L122.1,36.4z"/>
	<path class="st1" d="M134.6,39.9c0,1.1-0.2,3.7-2.3,3.7c-1.7,0-2.3-1.9-2.4-3.7c0-1.2,0.2-3.9,2.4-3.9
		C133.9,36.1,134.5,38.2,134.6,39.9L134.6,39.9L134.6,39.9z M132.2,32.1C132.2,32.1,132.2,32.1,132.2,32.1c-5,0.1-7.3,4.2-7.3,8
		c0,4.4,2.8,7.1,7.3,7.1c4.4-0.1,7.2-3,7.3-7.5C139.5,35.2,136.6,32.2,132.2,32.1L132.2,32.1z"/>
	<path class="st1" d="M123.7,38.3h-4c-0.2,0-0.3,0.2-0.3,0.3v2.7c0,0.2,0.2,0.3,0.3,0.3h4c0.2,0,0.3-0.2,0.3-0.3v-2.7
		C124.1,38.5,123.9,38.3,123.7,38.3L123.7,38.3z"/>
	<path class="st2" d="M79.2,35.1L79.2,35.1C79.2,35.1,79.2,35.1,79.2,35.1c1.3,0,2,0.6,2,1.9c0,1.2-0.6,1.8-2,1.8c0,0-0.1,0-0.2,0
		c0-0.8,0-2.3,0.1-3.7C79.1,35.1,79.2,35.1,79.2,35.1L79.2,35.1L79.2,35.1z M83.8,40.2c1.2-0.9,1.9-2.1,1.9-3.7c0-3.4-2-5.2-5.8-5.2
		h-5c-0.1,0-0.2,0-0.2,0.1c-0.1,0.1-0.1,0.2-0.1,0.2c0.1,3.5,0.2,5.3,0.2,8.7c0,3.2-0.1,5.1-0.2,8.3c0,0.1,0,0.2,0.1,0.3
		c0.1,0.1,0.2,0.1,0.3,0.1l4-0.3c0.2,0,0.3-0.2,0.3-0.3c0,0,0,0,0,0c-0.1-2.1-0.2-3.9-0.2-5.9c0.2,0,0.3,0,0.4,0
		c0.6,1.6,1.4,3.6,2.1,5.4l0.2,0.5c0.1,0.1,0.2,0.2,0.3,0.2l1-0.1c1.3-0.1,2.9-0.2,4.3-0.2c0.1,0,0.3-0.1,0.3-0.3
		c0.1-0.2,0-0.4-0.1-0.6C86.7,46,84.6,42,83.8,40.2L83.8,40.2z"/>
	<path class="st2" d="M99,32.2L99,32.2c-0.1,0-3.9,0-3.9,0c-0.1,0-0.2,0-0.2,0.1c-0.1,0.1-0.1,0.2-0.1,0.3l0,0.1
		c0.1,1.7,0.2,6.1,0.1,7.9c-0.1,2.7-0.4,3.5-1.4,3.5c-0.8,0-1.1-0.1-1.2-0.3c-0.4-0.4-0.6-1.4-0.6-3.2c0-3,0.1-7,0.1-7.9l0-0.1
		c0-0.1,0-0.2-0.1-0.3c-0.1-0.1-0.2-0.1-0.3-0.1l-1.5,0l-2.8,0c-0.1,0-0.2,0-0.3,0.1c-0.1,0.1-0.1,0.2-0.1,0.3l0,0.1
		c0.1,1.2,0.2,5.5,0.1,9.9c0,1.9,0.5,3.3,1.4,4.2c1,1,2.6,1.5,4.7,1.4c4-0.2,6-2.2,6-5.9c0-2.6,0-8.1,0.1-9.6l0-0.1
		c0-0.1,0-0.2-0.1-0.3C99.2,32.2,99.1,32.2,99,32.2L99,32.2z"/>
	<path class="st2" d="M107.4,37.9c0,0-0.9-0.4-0.9-0.4c-1.4-0.6-1.4-0.8-1.4-1.1c0-0.4,0.4-0.7,1.1-0.7c0.8,0,1.9,0.2,2.7,0.6
		c0,0,0.1,0,0.1,0c0.1,0,0.2,0,0.3,0c0.1,0,0.2-0.1,0.2-0.2l0.9-3.3c0-0.2-0.1-0.4-0.2-0.4l-0.1,0c-1.4-0.5-2.6-0.7-4.1-0.6
		c-3.2,0-5.6,2.3-5.6,5.2c0,2.3,1,3.9,3,4.6l1.1,0.4c1.4,0.6,1.4,0.9,1.4,1.2c0,0.2,0,0.6-1.2,0.7c-0.9,0-2.1-0.2-3.1-0.6
		c0,0-0.1,0-0.1,0l-0.1-0.1c-0.1,0-0.2,0-0.3,0c-0.1,0-0.2,0.1-0.2,0.2l0,0.1c0,0-0.9,3-0.9,3c0,0.2,0,0.3,0.2,0.4l0.1,0.1
		c0,0,0,0,0,0c1.2,0.5,2.7,0.7,4.6,0.7c3.4-0.1,5.6-2.1,5.6-5C110.6,40.4,109.6,38.9,107.4,37.9L107.4,37.9z"/>
	<path class="st2" d="M148.4,43.2l-0.4-0.1c0,0-0.2,0-0.2,0c0,0,0,0,0,0c0,0-0.3,0-0.3,0l-0.6,0.1c-0.7,0-1.3,0.1-2.3,0.1
		c0-1-0.1-2.1-0.1-3.3c0-3,0-4.5,0.2-7.2c0,0,0-0.3,0-0.3c0,0,0,0,0,0c0-0.1,0-0.2-0.1-0.2c-0.1-0.1-0.2-0.1-0.2-0.1l-4.3,0
		c-0.1,0-0.2,0-0.2,0.1c-0.1,0.1-0.1,0.1-0.1,0.2c0,0,0,0.2,0,0.2c0,0,0,0.1,0,0.1c0.1,2.9,0.2,4.4,0.2,7.2c0,2.5,0,3.9-0.2,6.3
		c0,0,0,0,0-0.1c0,0,0,0.1,0,0.1c0,0,0,0.2,0,0.2c0,0.1,0,0.2,0.1,0.3c0.1,0.1,0.2,0.1,0.2,0.1l6.1,0.1l1.1,0c0.2,0,0.3-0.1,0.3-0.3
		c0,0,0.8-3.1,0.8-3.1c0,0,0-0.1,0-0.1c0-0.1,0.1-0.1,0.1-0.2c0,0,0,0,0-0.1C148.5,43.3,148.5,43.3,148.4,43.2L148.4,43.2z"/>
	<path class="st2" d="M157.9,43.4l-0.1,0c0,0,0,0,0,0l-0.3,0c0,0-0.5,0-0.5,0c-0.9,0-1.9,0-3.2,0c0-0.6,0-1.3,0-2c0,0,0.2,0,0.2,0
		c1.1,0,1.7,0.1,2.5,0.2c0,0,0.5,0,0.5,0c0,0,0.1,0,0.1,0c0.1,0,0.2,0,0.3-0.1c0.1-0.1,0.1-0.2,0.1-0.3l0-0.1V38
		c0-0.1,0-0.2-0.1-0.2c-0.1-0.1-0.2-0.1-0.3-0.1l-0.1,0c0,0-0.2,0-0.2,0c-1,0.1-1.5,0.1-2.5,0.1c0,0-0.2,0-0.5,0c0-0.6,0-1.2,0-1.7
		c1.3,0,2.3,0,3.3,0.1l0.2,0c0.1,0,0.2,0,0.3-0.1c0.1-0.1,0.1-0.2,0.1-0.3l0-0.1v-3.3c0-0.2-0.2-0.3-0.3-0.3l-8,0
		c-0.1,0-0.2,0-0.2,0.1c-0.1,0.1-0.1,0.2-0.1,0.2l0,0.3c0.1,2.9,0.2,4.5,0.2,7.3c0,2.6-0.1,4-0.2,6.4c0,0,0,0,0,0c0,0.1,0,0.1,0,0.2
		c0,0,0,0.1,0,0.1c0,0.2,0.1,0.3,0.3,0.3l7.6,0.2c0,0,0,0,0,0c0,0,0.1,0,0.1,0c0.2,0,0.3-0.1,0.3-0.2l1-3.1c0-0.1,0-0.2-0.1-0.3
		C158.1,43.5,158,43.4,157.9,43.4L157.9,43.4z"/>
	<path class="st2" d="M171.1,32.2C171.1,32.2,171,32.2,171.1,32.2l-3.9,0c-0.1,0-0.2,0-0.2,0.1c-0.1,0.1-0.1,0.2-0.1,0.3l0,0.3
		c0.1,2.6,0.1,4.1,0.1,6.6l0,0.9c0,1.8-0.2,2.8-0.6,3.2c-0.1,0.1-0.3,0.2-0.8,0.2c-0.5,0-0.8-0.1-1.1-0.2c-0.5-0.3-0.7-1.3-0.8-3.3
		v-0.8c0-2.5,0-4,0.1-6.6c0,0,0-0.3,0-0.3c0-0.1,0-0.2-0.1-0.3c-0.1-0.1-0.2-0.1-0.2-0.1l-0.1,0c0,0-4.2,0-4.2,0
		c-0.1,0-0.2,0-0.2,0.1c-0.1,0.1-0.1,0.2-0.1,0.2l0,0.1c0,0,0,0.2,0,0.2c0.1,2.3,0.1,4,0.1,5.6l0,0.3c0,0,0,3.3,0,3.3
		c0,3.6,2.1,5.6,6.1,5.8c2.1,0.1,3.6-0.4,4.7-1.4c0.9-0.9,1.4-2.3,1.4-4.1c0,0,0-3.4,0-3.4v-0.3c0-1.7,0-3.3,0.1-5.7c0,0,0,0,0,0
		c0,0,0-0.2,0-0.2c0-0.1,0-0.2-0.1-0.3C171.3,32.2,171.2,32.2,171.1,32.2L171.1,32.2z"/>
	<path class="st2" d="M189.8,48.2c-0.5-6.1-0.6-15.2-0.7-15.6v-0.1c0,0,0-0.1,0-0.1c0-0.2-0.2-0.3-0.3-0.3h-4.9
		c-0.1,0-0.3,0.1-0.3,0.2l0,0c0,0,0,0,0,0l0,0.1c0,0,0,0,0,0c-0.7,2.4-1.3,5.2-1.9,7.9c-0.7-3-2.1-8.2-2.1-8.2
		c0-0.1-0.2-0.2-0.3-0.2l-0.1,0l-5.2,0c0,0-0.1,0-0.1,0c-0.1,0-0.2,0-0.2,0.1c-0.1,0.1-0.1,0.1-0.1,0.2l0,0.3
		c-0.1,4.8-0.5,8.9-1.1,14.4c0,0,0,0.3,0,0.3c0,0.1,0,0.2,0.1,0.3c0.1,0.1,0.2,0.1,0.2,0.1l0.1,0c0,0,3.5,0.2,3.5,0.2
		c0.1,0,0.2,0,0.2-0.1c0.1-0.1,0.1-0.1,0.1-0.2l0-0.2c0,0,0-0.1,0-0.1c0.1-2.5,0.2-4.8,0.4-7.4c0.7,2.7,1.3,5.2,1.8,7.6
		c0,0,0,0.2,0,0.2c0,0.2,0.2,0.3,0.3,0.3l0.1,0c0,0,3.4,0.2,3.4,0.2c0.2,0,0.3-0.1,0.4-0.3c0,0,1.3-5.1,2-7.9
		c0.1,2.6,0.1,5.4,0.1,7.7v0.2c0,0.2,0.1,0.3,0.3,0.3l4.1,0.3c0.1,0,0.2,0,0.3-0.1c0.1-0.1,0.1-0.2,0.1-0.3L189.8,48.2L189.8,48.2z"
		/>
	<path class="st2" d="M121.9,36.2C121.9,36.2,121.9,36.1,121.9,36.2c0,0,0.1,0,0.1,0c0,0,0.1,0,0.1,0c0.1,0,0.2,0,0.3-0.1
		c0.1-0.1,0.1-0.2,0.1-0.2l0-3.3c0-0.1,0-0.2-0.1-0.2c-0.1-0.1-0.2-0.1-0.2-0.1l-10.6,0c-0.2,0-0.3,0.1-0.3,0.3l-0.9,3.5
		c0,0.1,0,0.2,0.1,0.3c0.1,0.1,0.2,0.1,0.3,0.1l0.3,0c0,0,0.6-0.1,0.6-0.1c0.7-0.1,1.2-0.1,2.1-0.1c0,0.4,0,3.5,0,3.5
		c0,2.9,0,4.3-0.2,6.9c0,0,0,0.2,0,0.2c0,0,0,0,0,0c0,0.1,0,0.2,0.1,0.2c0.1,0.1,0.2,0.1,0.3,0.1l0.1,0c0,0,4.2-0.1,4.2-0.1
		c0.1,0,0.2,0,0.2-0.1c0.1-0.1,0.1-0.2,0.1-0.3l0-0.1c0,0,0-0.1,0-0.1c-0.1-2.4-0.2-3.9-0.2-6.8c0,0,0-2.5,0-3.5
		C119.7,36.1,121,36.1,121.9,36.2L121.9,36.2z"/>
	<path class="st2" d="M134.3,39.7c0,1.1-0.2,3.7-2.3,3.7c-1.7,0-2.3-1.9-2.4-3.7c0-1.2,0.2-3.9,2.4-3.9
		C133.7,35.8,134.3,37.9,134.3,39.7L134.3,39.7L134.3,39.7z M132,31.9C132,31.9,132,31.9,132,31.9c-5,0.1-7.3,4.2-7.3,8
		c0,4.4,2.8,7.1,7.3,7.1c4.4-0.1,7.2-3,7.3-7.5C139.3,35,136.4,32,132,31.9L132,31.9z"/>
	<path class="st2" d="M123.5,38.1h-4c-0.2,0-0.3,0.2-0.3,0.3v2.7c0,0.2,0.2,0.3,0.3,0.3h4c0.2,0,0.3-0.2,0.3-0.3v-2.7
		C123.8,38.3,123.7,38.1,123.5,38.1L123.5,38.1z"/>
	<path class="st3" d="M79,34.9L79,34.9C79,34.9,79,34.9,79,34.9c1.3,0,2,0.6,2,1.9c0,1.2-0.6,1.8-2,1.8c0,0-0.1,0-0.2,0
		c0-0.8,0-2.3,0.1-3.7C78.9,34.9,79,34.9,79,34.9L79,34.9L79,34.9z M83.4,40.2c1.3-0.9,2.1-2.3,2-3.9c0-3.4-2-5.2-5.8-5.2h-5
		c-0.1,0-0.2,0-0.2,0.1c-0.1,0.1-0.1,0.2-0.1,0.2c0.1,3.5,0.2,5.3,0.2,8.7c0,3.2-0.1,5.1-0.2,8.3c0,0.1,0,0.2,0.1,0.3
		c0.1,0.1,0.2,0.1,0.3,0.1l4-0.3c0.2,0,0.3-0.2,0.3-0.3c0,0,0,0,0,0c-0.1-2.1-0.2-3.9-0.2-5.9c0.2,0,0.3,0,0.4,0
		c0.6,1.6,1.4,3.6,2.1,5.4l0.2,0.5c0.1,0.1,0.2,0.2,0.3,0.2l1-0.1c1.3-0.1,2.9-0.2,4.3-0.2c0.1,0,0.2-0.1,0.3-0.2c0-0.1,0-0.1,0-0.2
		c0-0.1,0-0.1-0.1-0.2C86.4,46.1,84.2,42,83.4,40.2L83.4,40.2z"/>
	<path class="st3" d="M98.8,31.9L98.8,31.9l-3.9,0c-0.1,0-0.2,0-0.2,0.1c-0.1,0.1-0.1,0.2-0.1,0.3l0,0.1c0.1,1.7,0.2,6.1,0.1,7.9
		c-0.1,2.7-0.4,3.5-1.4,3.5c-0.8,0-1.1-0.1-1.2-0.3c-0.4-0.4-0.6-1.4-0.6-3.2c0-3,0.1-7,0.1-7.9l0-0.1c0-0.1,0-0.2-0.1-0.3
		c-0.1-0.1-0.2-0.1-0.3-0.1l-1.5,0l-2.8,0c-0.1,0-0.2,0-0.3,0.1c-0.1,0.1-0.1,0.2-0.1,0.3l0,0.1c0.1,1.2,0.2,5.5,0.1,9.9
		c0,1.9,0.5,3.3,1.4,4.2c1,1,2.6,1.5,4.7,1.4c4-0.2,6-2.2,6-5.9c0-2.6,0-8.1,0.1-9.6l0-0.1c0-0.1,0-0.2-0.1-0.3
		C99,32,98.9,31.9,98.8,31.9L98.8,31.9z"/>
	<path class="st3" d="M107.1,37.7c0,0-0.9-0.4-0.9-0.4c-1.4-0.6-1.4-0.8-1.4-1.1c0-0.4,0.4-0.7,1.1-0.7c0.8,0,1.9,0.2,2.7,0.6
		c0,0,0.1,0,0.1,0c0.1,0,0.2,0,0.3,0c0.1,0,0.2-0.1,0.2-0.2l0.9-3.3c0-0.2-0.1-0.4-0.2-0.4l-0.1,0c-1.4-0.5-2.6-0.7-4.1-0.6
		c-3.2,0-5.6,2.3-5.6,5.2c0,2.3,1,3.9,3,4.6l1.1,0.4c1.4,0.6,1.4,0.9,1.4,1.2c0,0.2,0,0.6-1.2,0.7c-0.9,0-2.1-0.2-3.1-0.6
		c0,0-0.1,0-0.1,0l-0.1-0.1c-0.1,0-0.2,0-0.3,0c-0.1,0-0.2,0.1-0.2,0.2l0,0.1c0,0-0.9,3-0.9,3c0,0.2,0,0.3,0.2,0.4l0.1,0.1
		c0,0,0,0,0,0c1.2,0.5,2.7,0.7,4.6,0.7c3.4-0.1,5.6-2.1,5.6-5C110.4,40.1,109.3,38.6,107.1,37.7L107.1,37.7z"/>
	<path class="st3" d="M148.2,43l-0.4-0.1c0,0-0.2,0-0.2,0c0,0,0,0,0,0c0,0-0.3,0-0.3,0l-0.6,0.1c-0.7,0-1.3,0.1-2.3,0.1
		c0-1-0.1-2.1-0.1-3.3c0-3,0-4.5,0.2-7.2c0,0,0-0.3,0-0.3c0,0,0,0,0,0c0-0.1,0-0.2-0.1-0.2c-0.1-0.1-0.2-0.1-0.2-0.1l-4.3,0
		c-0.1,0-0.2,0-0.2,0.1c-0.1,0.1-0.1,0.1-0.1,0.2c0,0,0,0.2,0,0.2c0,0,0,0.1,0,0.1c0.1,2.9,0.2,4.4,0.2,7.2c0,2.5,0,3.9-0.2,6.3
		c0,0,0,0,0-0.1c0,0,0,0.1,0,0.1c0,0,0,0.2,0,0.2c0,0.1,0,0.2,0.1,0.3c0.1,0.1,0.2,0.1,0.2,0.1l6.1,0.1l1.1,0c0.2,0,0.3-0.1,0.3-0.3
		c0,0,0.8-3.1,0.8-3.1c0,0,0-0.1,0-0.1c0-0.1,0.1-0.1,0.1-0.2c0,0,0,0,0-0.1C148.2,43,148.2,43,148.2,43L148.2,43z"/>
	<path class="st3" d="M157.7,43.2l-0.1,0c0,0,0,0,0,0l-0.3,0c0,0-0.5,0-0.5,0c-0.9,0-1.9,0-3.2,0c0-0.6,0-1.3,0-2c0,0,0.2,0,0.2,0
		c1.1,0,1.7,0.1,2.5,0.2c0,0,0.5,0,0.5,0c0,0,0.1,0,0.1,0c0.1,0,0.2,0,0.3-0.1c0.1-0.1,0.1-0.2,0.1-0.3l0-0.1v-3.3
		c0-0.1,0-0.2-0.1-0.2c-0.1-0.1-0.2-0.1-0.3-0.1l-0.1,0c0,0-0.2,0-0.2,0c-1,0.1-1.5,0.1-2.5,0.1c0,0-0.2,0-0.5,0c0-0.6,0-1.2,0-1.7
		c1.3,0,2.3,0,3.3,0.1l0.2,0c0.1,0,0.2,0,0.3-0.1c0.1-0.1,0.1-0.2,0.1-0.3l0-0.1v-3.3c0-0.2-0.2-0.3-0.3-0.3l-8,0
		c-0.1,0-0.2,0-0.2,0.1c-0.1,0.1-0.1,0.2-0.1,0.2l0,0.3c0.1,2.9,0.2,4.5,0.2,7.3c0,2.6-0.1,4-0.2,6.4c0,0,0,0,0,0c0,0.1,0,0.1,0,0.2
		c0,0,0,0.1,0,0.1c0,0.2,0.1,0.3,0.3,0.3l7.6,0.2c0,0,0,0,0,0c0,0,0.1,0,0.1,0c0.2,0,0.3-0.1,0.3-0.2l1-3.1c0-0.1,0-0.2-0.1-0.3
		C157.9,43.2,157.8,43.2,157.7,43.2L157.7,43.2z"/>
	<path class="st3" d="M170.9,32C170.9,32,170.8,32,170.9,32l-3.9,0c-0.1,0-0.2,0-0.2,0.1c-0.1,0.1-0.1,0.2-0.1,0.3l0,0.3
		c0.1,2.6,0.1,4.1,0.1,6.6l0,0.9c0,1.8-0.2,2.8-0.6,3.2c-0.1,0.1-0.3,0.2-0.8,0.2c-0.5,0-0.8-0.1-1.1-0.2c-0.5-0.3-0.7-1.3-0.8-3.3
		v-0.8c0-2.5,0-4,0.1-6.6c0,0,0-0.3,0-0.3c0-0.1,0-0.2-0.1-0.3c-0.1-0.1-0.2-0.1-0.2-0.1l-0.1,0c0,0-4.2,0-4.2,0
		c-0.1,0-0.2,0-0.2,0.1c-0.1,0.1-0.1,0.2-0.1,0.2l0,0.1c0,0,0,0.2,0,0.2c0.1,2.3,0.1,4,0.1,5.6c0,0,0,0.3,0,0.3c0,0,0,3.3,0,3.3
		c0,3.6,2.1,5.6,6.1,5.8c2.1,0.1,3.6-0.4,4.7-1.4c0.9-0.9,1.4-2.3,1.4-4.1c0,0,0-3.4,0-3.4v-0.3c0-1.7,0-3.3,0.1-5.7c0,0,0,0,0,0
		c0,0,0-0.2,0-0.2c0-0.1,0-0.2-0.1-0.3C171.1,32,171,32,170.9,32L170.9,32z"/>
	<path class="st3" d="M189.6,48c-0.5-6.1-0.6-15.2-0.7-15.6v-0.1c0,0,0-0.1,0-0.1c0-0.2-0.2-0.3-0.3-0.3h-4.9
		c-0.1,0-0.3,0.1-0.3,0.2l0,0c0,0,0,0,0,0l0,0.1c0,0,0,0,0,0c-0.7,2.4-1.3,5.4-2,8.1c-0.7-3-2.1-8.4-2.1-8.4c0-0.1-0.2-0.2-0.3-0.2
		l-0.1,0l-5.1,0c0,0-0.1,0-0.1,0c-0.1,0-0.2,0-0.2,0.1c-0.1,0.1-0.1,0.1-0.1,0.2l0,0.3c-0.1,4.8-0.5,8.9-1.1,14.4c0,0,0,0.3,0,0.3
		c0,0.1,0,0.2,0.1,0.3c0.1,0.1,0.2,0.1,0.2,0.1l0.1,0c0,0,3.5,0.2,3.5,0.2c0.1,0,0.2,0,0.2-0.1c0.1-0.1,0.1-0.1,0.1-0.2l0-0.2
		c0,0,0-0.1,0-0.1c0.1-2.5,0.2-4.8,0.4-7.4c0.7,2.7,1.3,5.2,1.8,7.6c0,0,0,0.2,0,0.2c0,0.2,0.2,0.3,0.3,0.3l0.1,0
		c0,0,3.4,0.2,3.4,0.2c0.2,0,0.3-0.1,0.4-0.3c0,0,1.3-5.1,2-7.9c0.1,2.6,0.1,5.4,0.1,7.7V48c0,0.2,0.1,0.3,0.3,0.3l4.1,0.3
		c0.1,0,0.2,0,0.3-0.1c0.1-0.1,0.1-0.2,0.1-0.3L189.6,48L189.6,48z"/>
	<path class="st3" d="M121.7,35.9C121.7,35.9,121.7,35.9,121.7,35.9c0,0,0.1,0,0.1,0c0,0,0.1,0,0.1,0c0.1,0,0.2,0,0.3-0.1
		c0.1-0.1,0.1-0.2,0.1-0.2l0-3.3c0-0.1,0-0.2-0.1-0.2c-0.1-0.1-0.2-0.1-0.2-0.1l-10.6,0c-0.2,0-0.3,0.1-0.3,0.3l-0.9,3.5
		c0,0.1,0,0.2,0.1,0.3c0.1,0.1,0.2,0.1,0.3,0.1l0.3,0c0,0,0.6-0.1,0.6-0.1c0.7-0.1,1.2-0.1,2.1-0.1c0,0.4,0,3.5,0,3.5
		c0,2.9,0,4.3-0.2,6.9c0,0,0,0.2,0,0.2c0,0,0,0,0,0c0,0.1,0,0.2,0.1,0.2c0.1,0.1,0.2,0.1,0.3,0.1l0.1,0c0,0,4.2-0.1,4.2-0.1
		c0.1,0,0.2,0,0.2-0.1c0.1-0.1,0.1-0.2,0.1-0.3l0-0.1c0,0,0-0.1,0-0.1c-0.1-2.4-0.2-3.9-0.2-6.8c0,0,0-2.5,0-3.5
		C119.4,35.9,120.8,35.9,121.7,35.9L121.7,35.9z"/>
	<path class="st3" d="M134.1,39.5c0,1.1-0.2,3.7-2.3,3.7c-1.7,0-2.3-1.9-2.4-3.7c0-1.2,0.2-3.9,2.4-3.9
		C133.5,35.6,134.1,37.7,134.1,39.5L134.1,39.5L134.1,39.5z M131.8,31.7C131.8,31.7,131.8,31.7,131.8,31.7c-5,0.1-7.3,4.2-7.3,8
		c0,4.4,2.8,7.1,7.3,7.1c4.4-0.1,7.2-3,7.3-7.5C139,34.8,136.2,31.8,131.8,31.7L131.8,31.7z"/>
	<path class="st3" d="M123.3,37.9h-4c-0.2,0-0.3,0.2-0.3,0.3V41c0,0.2,0.2,0.3,0.3,0.3h4c0.2,0,0.3-0.2,0.3-0.3v-2.7
		C123.6,38,123.5,37.9,123.3,37.9L123.3,37.9z"/>
	<path class="st4" d="M80.5,36.3c0,1.2-0.6,1.8-2,1.8c0,0-0.1,0-0.2,0c0-0.8,0-2.3,0.1-3.7c0.1,0,0.2,0,0.2,0
		C79.8,34.4,80.5,35,80.5,36.3L80.5,36.3L80.5,36.3z M82.8,40c1.4-1,2.2-2.4,2.2-4.1c0-3.4-2-5.2-5.8-5.2h-5h-0.4l0,0.4
		c0.1,3.5,0.2,5.3,0.2,8.7c0,3.2-0.1,5.1-0.2,8.3l0,0.4l4.7-0.3l0-0.3c-0.1-2.1-0.2-3.9-0.2-5.9c0.2,0,0.3,0,0.4,0
		c0.6,1.6,1.4,3.6,2.1,5.4l0.3,0.7l1.2-0.1c1.3-0.1,2.5-0.2,3.9-0.2l0.6,0L86.5,47C85.6,45.6,83.6,41.7,82.8,40L82.8,40z"/>
	<path class="st4" d="M94,31.4l0,0.4c0.1,1.7,0.2,6.1,0.1,7.9c-0.1,2.7-0.4,3.5-1.4,3.5c-0.8,0-1.1-0.1-1.2-0.3
		c-0.4-0.4-0.6-1.4-0.6-3.2c0-3,0.1-7,0.1-7.9l0-0.5l-0.4,0l-1.5,0l-3.1,0l0,0.5c0.1,1.2,0.2,5.5,0.1,9.9c0,1.9,0.5,3.3,1.4,4.2
		c1,1,2.6,1.5,4.7,1.4c4-0.2,6-2.2,6-5.9c0-2.6,0-8.1,0.1-9.6l0-0.4h-0.4L94,31.4L94,31.4z"/>
	<path class="st4" d="M106.7,37.2l-0.9-0.4c-1.4-0.6-1.4-0.8-1.4-1.1c0-0.4,0.4-0.7,1.1-0.7c0.8,0,1.9,0.2,2.7,0.6
		c0,0,0.5,0.2,0.5,0.2l1-4l-0.4-0.1c-1.4-0.5-2.6-0.7-4.1-0.6c-3.2,0-5.6,2.3-5.6,5.2c0,2.3,1,3.9,3,4.6l1.1,0.4
		c1.4,0.6,1.4,0.9,1.4,1.2c0,0.2,0,0.6-1.2,0.7c-0.9,0-2.1-0.2-3.1-0.6c0,0-0.1,0-0.1,0l-0.5-0.2l-0.1,0.5c0,0-0.9,3-0.9,3l-0.1,0.3
		l0.4,0.2c0,0,0,0,0,0c1.2,0.5,2.7,0.7,4.6,0.7c3.4-0.1,5.6-2.1,5.6-5C109.9,39.7,108.9,38.1,106.7,37.2L106.7,37.2z"/>
	<path class="st4" d="M147.3,42.4c0,0-0.2,0-0.2,0c0,0,0,0,0,0c0,0-0.3,0-0.3,0l-0.6,0.1c-0.7,0-1.3,0.1-2.3,0.1
		c0-1-0.1-2.1-0.1-3.3c0-3,0-4.5,0.2-7.2c0,0,0-0.6,0-0.6l-5,0l0,0.4l0,0.1c0,0,0,0.1,0,0.1c0,0,0,0.1,0,0.1
		c0.1,2.9,0.2,4.4,0.2,7.2c0,2.5,0,3.9-0.2,6.3c0,0,0,0,0,0c0,0,0,0.1,0,0.1c0,0,0,0.2,0,0.2l0,0.4l6.5,0.1l1.4,0
		c0,0,0.9-3.3,0.9-3.3l0.1-0.4l-0.2,0L147.3,42.4L147.3,42.4z"/>
	<path class="st4" d="M157.1,42.7l-0.3,0c0,0-0.5,0-0.5,0c-0.9,0-1.9,0-3.2,0c0-0.6,0-1.3,0-2c0,0,0.2,0,0.2,0
		c1.1,0,1.7,0.1,2.5,0.2c0,0,0.5,0,0.5,0c0,0,0.1,0,0.1,0l0.4,0l0-0.5v-3.7l-0.5,0c0,0-0.2,0-0.2,0c-1,0.1-1.5,0.1-2.5,0.1
		c0,0-0.2,0-0.5,0c0-0.6,0-1.2,0-1.7c1.3,0,2.3,0,3.3,0.1l0.6,0.1l0-0.5v-3.6h-0.6c0,0-8.1,0-8.1,0l0,0.4l0,0.3
		c0.1,2.9,0.2,4.5,0.2,7.3c0,2.6-0.1,4-0.2,6.4c0,0,0,0,0,0c0,0.1,0,0.1,0,0.1c0,0,0,0.4,0,0.4l0.4,0c0,0,7.5,0.2,7.5,0.2
		c0,0,0,0,0,0c0,0,0.3,0,0.3,0l1.2-3.8L157.1,42.7L157.1,42.7L157.1,42.7z"/>
	<path class="st4" d="M166.5,31.5h-0.4l0,0.6c0.1,2.6,0.1,4.1,0.1,6.6l0,0.9c0,1.8-0.2,2.8-0.6,3.2c-0.1,0.1-0.3,0.2-0.8,0.2
		c-0.5,0-0.8-0.1-1.1-0.2c-0.5-0.3-0.7-1.3-0.8-3.3v-0.8c0-2.5,0-4,0.1-6.6c0,0,0-0.3,0-0.3l0-0.4l-0.4,0c0,0-4.6,0-4.6,0l0,0.4
		l0,0.1c0,0,0,0.2,0,0.2c0.1,2.3,0.1,4,0.1,5.6c0,0,0,0.3,0,0.3c0,0,0,3.3,0,3.3c0,3.6,2.1,5.6,6.1,5.8c2.1,0.1,3.6-0.4,4.7-1.4
		c0.9-0.9,1.4-2.3,1.4-4.1c0,0,0-3.4,0-3.4v-0.3c0-1.7,0-3.3,0.1-5.7c0,0,0,0,0,0c0,0,0-0.2,0-0.2l0-0.4l-0.4,0L166.5,31.5
		L166.5,31.5z"/>
	<path class="st4" d="M189.2,48.2l0-0.6c0,0,0-0.1,0-0.1c-0.5-6.1-0.6-15.2-0.7-15.6v-0.1c0,0,0-0.1,0-0.1l0-0.3H183
		c0,0-1.7,5.9-2.3,8.6c-0.7-3.1-2.2-8.6-2.2-8.6l-5.7,0l0,0.3l0,0.3c-0.1,4.8-0.5,8.9-1.1,14.4c0,0-0.1,0.6-0.1,0.6l0.5,0
		c0,0,3.5,0.2,3.5,0.2l0.3,0l0-0.5c0,0,0-0.1,0-0.1c0.1-2.5,0.2-4.8,0.4-7.4c0.7,2.7,1.3,5.2,1.8,7.6c0,0,0,0.2,0,0.2l0.1,0.3
		c0,0,0.3,0,0.3,0c0,0,3.5,0.2,3.5,0.2l0.3,0l0.1-0.4c0,0,0-0.1,0-0.1c0.5-2.2,1.1-4.6,1.9-7.3c0.1,2.6,0.1,5,0.1,7.3v0.6
		L189.2,48.2L189.2,48.2z"/>
	<path class="st4" d="M121.2,35.4L121.2,35.4c0,0,0.1,0,0.1,0c0,0,0.5,0,0.5,0l0-4l-11.2,0l-1.1,4.2l0.8-0.1c0,0,0.6-0.1,0.6-0.1
		c0.7-0.1,1.2-0.1,2.1-0.1c0,0.4,0,3.5,0,3.5c0,2.9,0,4.3-0.2,6.9c0,0,0,0.6,0,0.6l0.5,0c0,0,4.2-0.1,4.2-0.1l0.4,0l0-0.5
		c0,0,0-0.1,0-0.1c-0.1-2.4-0.2-3.9-0.2-6.8c0,0,0-2.5,0-3.5C118.9,35.4,120.3,35.4,121.2,35.4L121.2,35.4z"/>
	<path class="st4" d="M133.6,39c0,1.1-0.2,3.7-2.3,3.7c-1.7,0-2.3-1.9-2.4-3.7c0-1.2,0.2-3.9,2.4-3.9C133,35.1,133.6,37.2,133.6,39
		L133.6,39L133.6,39z M131.3,31.2L131.3,31.2L131.3,31.2c-4.9,0.1-7.3,4.2-7.3,8c0,4.4,2.8,7.1,7.3,7.1c4.4-0.1,7.2-3,7.3-7.5
		C138.6,34.3,135.7,31.3,131.3,31.2L131.3,31.2z"/>
	<polygon class="st4" points="118.6,37.6 118.6,41 123.3,41 123.3,37.6 122.9,37.6 118.6,37.6 	"/>
	<polygon class="st5" points="70.4,47.8 53.4,47.8 53.4,30.9 70.4,30.9 70.4,47.8 	"/>
	<polygon class="st6" points="70.4,47.8 53.4,47.8 53.4,30.9 70.4,30.9 70.4,47.8 70.4,47.8 	"/>
	<polygon class="st4" points="70.4,39.2 62.1,39.2 62.1,47.8 62.8,47.2 62.8,39.9 69.8,39.9 70.4,39.2 	"/>
	<path class="st7" d="M69.8,39.9c0,7.6,0,6.9,0,7.3c-0.4,0,0.3,0-7.1,0l-0.6,0.6h8.3v-8.6L69.8,39.9L69.8,39.9z"/>
	<polygon class="st4" points="61.7,39.2 53.4,39.2 53.4,47.8 54,47.2 54,39.9 61.1,39.9 61.7,39.2 	"/>
	<path class="st7" d="M61.1,39.9c0,7.6,0,6.9,0,7.3c-0.4,0,0.3,0-7.1,0l-0.6,0.6h8.3v-8.6L61.1,39.9L61.1,39.9z"/>
	<polygon class="st4" points="62.1,30.9 62.1,38.8 62.8,38.2 62.8,30.9 62.1,30.9 	"/>
	<path class="st7" d="M69.8,30.9c0,7.6,0,6.9,0,7.2c-0.4,0,0.3,0-7.1,0l-0.6,0.6h8.3v-7.9H69.8L69.8,30.9z"/>
	<polygon class="st4" points="53.4,30.9 53.4,38.8 54,38.2 54,30.9 53.4,30.9 	"/>
	<path class="st7" d="M61.1,30.9c0,7.6,0,6.9,0,7.2c-0.4,0,0.3,0-7.1,0l-0.6,0.6h8.3v-7.9H61.1L61.1,30.9z"/>
	<path class="st5" d="M191.4,32.9c0,0.1-0.1,0.2-0.2,0.2h-0.3v-0.4h0.3C191.3,32.7,191.4,32.8,191.4,32.9L191.4,32.9L191.4,32.9z
		 M191.9,34l-0.3-0.6c0.2-0.1,0.3-0.2,0.3-0.5c0-0.4-0.3-0.5-0.6-0.5h-0.7V34h0.5v-0.6h0.2l0.3,0.6H191.9L191.9,34L191.9,34z
		 M192.6,33.2c0-0.9-0.7-1.5-1.5-1.5c-0.9,0-1.5,0.7-1.5,1.5c0,0.9,0.7,1.5,1.5,1.5C192,34.7,192.6,34.1,192.6,33.2L192.6,33.2
		L192.6,33.2z M192.3,33.2c0,0.7-0.5,1.2-1.2,1.2c-0.7,0-1.2-0.5-1.2-1.2c0-0.7,0.5-1.2,1.2-1.2C191.8,32,192.3,32.5,192.3,33.2
		L192.3,33.2z"/>
	<path class="st5" d="M78,41.4c0.3,0,0.7,0,1,0c0.6,1.8,1.6,4.1,2.4,6c1.7-0.1,3.2-0.2,4.9-0.3c-0.9-1.5-3.1-5.7-3.9-7.3
		c1.4-0.8,2.2-2.2,2.3-4c0-3.4-2.2-4.8-5.5-4.9c-1.7,0-3.3,0-5,0c0.1,3.5,0.2,5.2,0.2,8.7c0,3.2-0.1,5.1-0.2,8.3
		c1.4-0.1,2.7-0.2,4-0.3C78.1,45.6,78,43.7,78,41.4L78,41.4L78,41.4z M78.5,34.1c1.6,0,2.3,0.9,2.3,2.2c0,1.4-0.7,2.1-2.4,2.1
		c-0.1,0-0.3,0-0.5,0c0-1.2,0-2.9,0.1-4.3C78.2,34.1,78.4,34.1,78.5,34.1L78.5,34.1z"/>
	<path class="st5" d="M98.3,31.8L98.3,31.8l-3.9,0l0,0.1c0.1,1.7,0.2,6.1,0.1,8c-0.1,2.5-0.3,3.9-1.7,3.9c-0.7,0-1.2-0.1-1.5-0.4
		c-0.5-0.5-0.7-1.5-0.7-3.5c0-3,0.1-7,0.1-8l0-0.1l-1.5,0l-2.8,0l0,0.1c0.1,1.2,0.2,5.6,0.1,9.9c0,1.8,0.5,3.1,1.3,4
		c1,1,2.4,1.4,4.4,1.3c3.8-0.2,5.7-2,5.7-5.6C98.1,38.9,98.2,33.4,98.3,31.8L98.3,31.8L98.3,31.8z"/>
	<path class="st5" d="M106.5,37.5c0,0-0.9-0.4-0.9-0.4c-1.4-0.6-1.6-0.9-1.6-1.4c0-0.6,0.6-1,1.4-1c0.8-0.1,2,0.2,2.9,0.6l0.1,0
		l0.9-3.3l-0.1,0c-1.3-0.5-2.5-0.6-4-0.6c-3,0-5.2,2.1-5.2,4.9c0,2.2,0.9,3.6,2.8,4.3l1.1,0.4c1.5,0.6,1.6,1,1.7,1.5
		c0,0.6-0.5,1-1.5,1c-0.9,0-2.2-0.3-3.2-0.7c0,0-0.1,0-0.1,0l-0.1-0.1l0,0.1l-0.9,3l0.1,0.1l0,0c1.1,0.5,2.7,0.7,4.4,0.7
		c3.2-0.1,5.3-2,5.3-4.6C109.6,39.8,108.6,38.4,106.5,37.5L106.5,37.5z"/>
	<path class="st5" d="M147.4,42.8L147.4,42.8L147.4,42.8l-0.1,0l-0.2,0c0,0-0.3,0-0.3,0c-0.2,0-0.4,0-0.6,0.1
		c-0.8,0.1-1.5,0.1-2.7,0.1c0-1.1-0.1-2.3-0.1-3.7c0-3,0-4.5,0.2-7.3c0,0,0-0.2,0-0.2l0-0.1l-4.3,0l0,0.1l0,0.1l0,0
		c0.1,2.9,0.2,4.4,0.2,7.2c0,2.5,0,3.9-0.2,6.3l0,0.1l0,0.2l0.1,0l6,0.1l1.1,0l0.8-3.1L147.4,42.8L147.4,42.8z"/>
	<path class="st5" d="M157.1,43.1C157.1,43.1,157.1,43.1,157.1,43.1L157.1,43.1l-0.3,0c-0.2,0-0.4,0-0.6,0c-1,0-2.1,0-3.5,0
		c0-0.8-0.1-1.6-0.1-2.6c0.1,0,0.2,0,0.3,0c0,0,0.1,0,0.1,0c0,0,0.1,0,0.1,0c1.1,0,1.7,0.1,2.6,0.2l0.3,0l0.2,0v0l0.1,0l0-0.1v-3.3
		l-0.1,0v0l-0.2,0c-1,0.1-1.5,0.1-2.6,0.1c-0.2,0-0.5,0-0.8,0c0-0.9,0-1.6,0.1-2.4c1.6,0,2.5,0,3.6,0.1l0.2,0l0-0.1v-3.3h-0.2
		c0,0-7.8,0-7.8,0l0,0.1l0,0.2c0.1,2.9,0.2,4.5,0.2,7.3c0,2.6-0.1,4-0.2,6.4c0,0,0,0.1,0,0.1l0,0.1l0.1,0c2.5,0.1,4.9,0.1,7.4,0.2
		l0.1,0l0,0c0,0,0,0,0.1,0l0.1,0l1-3.1L157.1,43.1L157.1,43.1z"/>
	<path class="st5" d="M166.5,31.8l0,0.2l0,0.1c0.1,2.6,0.1,4.1,0.1,6.6l0,0.9c0,1.9-0.2,3-0.7,3.5c-0.2,0.2-0.5,0.3-1,0.3
		c-0.5,0-0.9-0.1-1.3-0.3c-0.6-0.4-0.9-1.4-0.9-3.6v-0.8c0-2.5,0-4,0.1-6.6l0-0.3l-0.1,0l-4.2,0l0,0.1l0,0l0,0.1
		c0.1,2.3,0.1,4,0.1,5.6l0,0.3l0,1.7l0,1.6c0,3.4,1.9,5.2,5.7,5.4c2,0.1,3.4-0.4,4.4-1.3c0.9-0.9,1.3-2.1,1.3-3.9c0,0,0-1.7,0-1.7
		l0-1.7c0,0,0-0.3,0-0.3c0-1.7,0-3.3,0.1-5.7l0,0l0-0.2L166.5,31.8L166.5,31.8z"/>
	<path class="st5" d="M188.8,47.8l0-0.2l0-0.1l0,0c-0.4-5.9-0.6-14.7-0.7-15.6v-0.1h0c0,0,0,0,0,0l0-0.1h-4.9l0,0c0,0,0,0,0,0
		c0,0,0,0,0,0l0,0.1l0,0c-0.8,2.8-1.8,6.6-2.5,9.6c0-0.1-0.1-0.2-0.1-0.4c-0.7-3.4-1.5-6.5-2.3-9.2c0,0,0,0,0-0.1c0-0.1,0-0.1,0-0.1
		l0-0.1l-0.1,0c0,0-3.4,0-5,0l-0.1,0l0,0.1l0,0.2c-0.1,4.8-0.5,9-1.1,14.5c0,0,0,0.2,0,0.2l0,0.1l0.1,0l3.5,0.2l0-0.2l0,0
		c0.1-3.1,0.3-5.9,0.5-9.3c1,3.3,1.7,6.5,2.4,9.5c0,0,0,0.1,0,0.1l0,0.1l0.1,0l3.5,0.2l0-0.1l0-0.1c0.6-2.7,1.4-5.8,2.5-9.4
		c0.1,3.3,0.1,6.4,0.2,9.6v0.2L188.8,47.8L188.8,47.8z"/>
	<path class="st5" d="M110.9,31.8l-0.9,3.5l0.3,0l0.6-0.1c0.8-0.1,1.3-0.1,2.4-0.1c0,0.1,0,1.5,0,1.5l0,2.3c0,2.9,0,4.4-0.2,6.9
		c0,0,0,0.2,0,0.2l0,0.1l0.1,0l4.2-0.1l0-0.1l0-0.1c-0.1-2.4-0.2-3.9-0.2-6.8c0,0,0-3.3,0-3.8c1.3,0,2.9,0,3.9,0.1c0,0,0.1,0,0.1,0
		l0.1,0l0-3.3L110.9,31.8L110.9,31.8z"/>
	<path class="st5" d="M134,39c0,1.2-0.3,4-2.7,4.1c-2,0-2.7-2.1-2.7-4.1c0-1.3,0.3-4.2,2.7-4.3C133.2,34.8,134,37.1,134,39L134,39
		L134,39z M131.3,31.5L131.3,31.5L131.3,31.5c-4.7,0.1-6.9,4-7,7.7c0,4.2,2.6,6.7,7,6.8c4.2-0.1,6.9-2.9,7-7.1
		C138.2,34.5,135.5,31.6,131.3,31.5L131.3,31.5z"/>
	<path class="st5" d="M122.9,37.9c0,0.2,0,2.5,0,2.7c-0.2,0-3.8,0-4,0c0-0.2,0-2.5,0-2.7C119.2,37.9,122.7,37.9,122.9,37.9
		L122.9,37.9z"/>
	<path class="st5" d="M110,53c0,0.3-0.2,0.5-0.6,0.5h-1.5v-1h1.5C109.8,52.6,110,52.8,110,53L110,53L110,53z M112,55.4
		c0-0.7-0.4-1.1-1-1.4c0.5-0.2,0.8-0.5,0.8-1.2c0-1-0.7-1.6-2.4-1.6H106v6.1h3.4C111.1,57.3,112,56.6,112,55.4L112,55.4L112,55.4z
		 M110.1,55.4c0,0.3-0.2,0.6-0.7,0.6h-1.5v-1.2h1.5C109.9,54.8,110.1,55,110.1,55.4L110.1,55.4z"/>
	<path class="st5" d="M121.2,57.3l-1.4-2.3c0.8-0.3,1.3-0.9,1.3-1.8c0-1.5-1.1-2-2.7-2h-3.1v6.1h1.9v-2.1h0.8l1.1,2.1H121.2
		L121.2,57.3L121.2,57.3z M119.1,53.2c0,0.4-0.2,0.7-0.9,0.7h-1.1v-1.3h1.2C118.9,52.6,119.1,52.9,119.1,53.2L119.1,53.2z"/>
	<path class="st5" d="M130.7,57.3l-2.5-6.1h-2l-2.5,6.1h2.1l0.4-1.1h2.1l0.4,1.1H130.7L130.7,57.3L130.7,57.3z M127.7,54.9h-1.2
		l0.1-0.4c0.2-0.8,0.4-1.1,0.5-1.5c0.1,0.4,0.2,0.7,0.4,1.5L127.7,54.9L127.7,54.9z"/>
	<path class="st5" d="M137.8,57.3l-1.7-2c-0.3-0.4-0.9-1.2-1.1-1.4c0,0.3,0.1,1.1,0.1,1.6v1.9h-1.9v-6.1h1.7l1.5,1.8
		c0.3,0.4,0.9,1.2,1.1,1.4c-0.1-0.3-0.1-1.1-0.1-1.6v-1.7h1.9v6.1H137.8L137.8,57.3z"/>
	<path class="st5" d="M148.9,54.2c0-2.3-1.4-3-3.6-3h-2.4v6.1h2.3C147.7,57.3,148.9,56.5,148.9,54.2L148.9,54.2L148.9,54.2z
		 M147,54.3c0,1.2-0.5,1.6-1.7,1.6h-0.4v-3.2h0.5C146.6,52.7,147,53.1,147,54.3L147,54.3z"/>
	<path class="st5" d="M154,57.4c-0.9-0.1-1.7-0.4-2.3-0.7l0.9-1.3c0.5,0.3,1.4,0.6,2,0.6c0.7,0,0.9-0.1,0.9-0.4
		c0-0.2-0.3-0.4-1.2-0.6c-1.7-0.3-2.5-0.7-2.5-2c0-1.2,1.1-1.9,2.8-1.9c1.2,0,2,0.3,2.8,0.7l-0.9,1.3c-0.6-0.4-1.2-0.6-2-0.6
		c-0.6,0-0.7,0.2-0.7,0.4c0,0.2,0.3,0.3,1.1,0.5c1.8,0.4,2.5,0.8,2.5,2c0,1.2-0.9,1.8-2.2,1.9H154L154,57.4z"/>
</g>
</svg>
