<?xml version="1.0" encoding="utf-8"?>
<!-- Generator: Adobe Illustrator 17.1.0, SVG Export Plug-In . SVG Version: 6.00 Build 0)  -->
<!DOCTYPE svg PUBLIC "-//W3C//DTD SVG 1.1//EN" "http://www.w3.org/Graphics/SVG/1.1/DTD/svg11.dtd">
<svg version="1.1" id="Layer_1" xmlns="http://www.w3.org/2000/svg" xmlns:xlink="http://www.w3.org/1999/xlink" x="0px" y="0px"
	 viewBox="0 0 246 88" enable-background="new 0 0 246 88" xml:space="preserve">
<g>
	<path fill="#20B4E8" d="M69,34c0,0.8-0.6,1.4-1.4,1.4c-0.8,0-1.4-0.6-1.4-1.4c0-0.8,0.6-1.4,1.4-1.4C68.4,32.6,69,33.2,69,34"/>
	<path fill="#20B4E8" d="M69,47.4c0,0.8-0.6,1.4-1.4,1.4c-0.8,0-1.4-0.6-1.4-1.4c0-0.8,0.6-1.4,1.4-1.4C68.4,46,69,46.6,69,47.4"/>
	<path fill="#20B4E8" d="M65.7,54.1c0,0.8-0.6,1.4-1.4,1.4c-0.8,0-1.4-0.6-1.4-1.4c0-0.8,0.6-1.4,1.4-1.4
		C65,52.7,65.7,53.4,65.7,54.1"/>
	<path fill="#20B4E8" d="M69,60.9c0,0.8-0.6,1.4-1.4,1.4c-0.8,0-1.4-0.6-1.4-1.4c0-0.8,0.6-1.4,1.4-1.4C68.4,59.4,69,60.1,69,60.9"
		/>
	<path fill="#20B4E8" d="M72.4,23.9c0,0.8-0.6,1.4-1.4,1.4c-0.8,0-1.4-0.6-1.4-1.4c0-0.8,0.6-1.4,1.4-1.4
		C71.8,22.5,72.4,23.1,72.4,23.9"/>
	<path fill="#20B4E8" d="M72.4,57.5c0,0.8-0.6,1.4-1.4,1.4c-0.8,0-1.4-0.6-1.4-1.4c0-0.8,0.6-1.4,1.4-1.4
		C71.8,56.1,72.4,56.7,72.4,57.5"/>
	<path fill="#20B4E8" d="M72.4,67.6c0,0.8-0.6,1.4-1.4,1.4c-0.8,0-1.4-0.6-1.4-1.4c0-0.8,0.6-1.4,1.4-1.4
		C71.8,66.1,72.4,66.8,72.4,67.6"/>
	<path fill="#20B4E8" d="M79.1,60.9c0,0.8-0.6,1.4-1.4,1.4c-0.8,0-1.4-0.6-1.4-1.4c0-0.8,0.6-1.4,1.4-1.4
		C78.5,59.4,79.1,60.1,79.1,60.9"/>
	<path fill="#20B4E8" d="M82.5,64.2c0,0.8-0.6,1.4-1.4,1.4c-0.8,0-1.4-0.6-1.4-1.4c0-0.8,0.6-1.4,1.4-1.4
		C81.8,62.8,82.5,63.4,82.5,64.2"/>
	<path fill="#20B4E8" d="M89.2,64.2c0,0.8-0.6,1.4-1.4,1.4c-0.8,0-1.4-0.6-1.4-1.4c0-0.8,0.6-1.4,1.4-1.4
		C88.5,62.8,89.2,63.4,89.2,64.2"/>
	<path fill="#20B4E8" d="M95.9,23.9c0,0.8-0.6,1.4-1.4,1.4c-0.8,0-1.4-0.6-1.4-1.4c0-0.8,0.6-1.4,1.4-1.4
		C95.3,22.5,95.9,23.1,95.9,23.9"/>
	<path fill="#20B4E8" d="M92.5,37.4c0,0.8-0.6,1.4-1.4,1.4c-0.8,0-1.4-0.6-1.4-1.4c0-0.8,0.6-1.4,1.4-1.4
		C91.9,35.9,92.5,36.6,92.5,37.4"/>
	<path fill="#20B4E8" d="M92.5,50.8c0,0.8-0.6,1.4-1.4,1.4c-0.8,0-1.4-0.6-1.4-1.4c0-0.8,0.6-1.4,1.4-1.4
		C91.9,49.4,92.5,50,92.5,50.8"/>
	<path fill="#20B4E8" d="M92.5,57.5c0,0.8-0.6,1.4-1.4,1.4c-0.8,0-1.4-0.6-1.4-1.4c0-0.8,0.6-1.4,1.4-1.4
		C91.9,56.1,92.5,56.7,92.5,57.5"/>
	<path fill="#20B4E8" d="M95.9,30.6c0,0.8-0.6,1.4-1.4,1.4c-0.8,0-1.4-0.6-1.4-1.4s0.6-1.4,1.4-1.4C95.3,29.2,95.9,29.9,95.9,30.6"
		/>
	<path fill="#20B4E8" d="M95.9,40.7c0,0.8-0.6,1.4-1.4,1.4c-0.8,0-1.4-0.6-1.4-1.4c0-0.8,0.6-1.4,1.4-1.4
		C95.3,39.3,95.9,39.9,95.9,40.7"/>
	<path fill="#20B4E8" d="M95.9,60.9c0,0.8-0.6,1.4-1.4,1.4c-0.8,0-1.4-0.6-1.4-1.4c0-0.8,0.6-1.4,1.4-1.4
		C95.3,59.4,95.9,60.1,95.9,60.9"/>
	<path fill="#20B4E8" d="M102.6,34c0,0.8-0.6,1.4-1.4,1.4c-0.8,0-1.4-0.6-1.4-1.4c0-0.8,0.6-1.4,1.4-1.4
		C102,32.6,102.6,33.2,102.6,34"/>
	<path fill="#20B4E8" d="M99.2,44.1c0,0.8-0.6,1.4-1.4,1.4c-0.8,0-1.4-0.6-1.4-1.4c0-0.8,0.6-1.4,1.4-1.4
		C98.6,42.6,99.2,43.3,99.2,44.1"/>
	<path fill="#20B4E8" d="M99.2,50.8c0,0.8-0.6,1.4-1.4,1.4c-0.8,0-1.4-0.6-1.4-1.4c0-0.8,0.6-1.4,1.4-1.4
		C98.6,49.4,99.2,50,99.2,50.8"/>
	<path fill="#20B4E8" d="M75.7,17.2c0,0.8-0.6,1.4-1.4,1.4c-0.8,0-1.4-0.6-1.4-1.4c0-0.8,0.6-1.4,1.4-1.4
		C75.1,15.8,75.7,16.4,75.7,17.2"/>
	<path fill="#20B4E8" d="M106,27.3c0,0.8-0.6,1.4-1.4,1.4c-0.8,0-1.4-0.6-1.4-1.4c0-0.8,0.6-1.4,1.4-1.4
		C105.3,25.9,106,26.5,106,27.3"/>
	<path fill="#20B4E8" d="M112.7,34c0,0.8-0.6,1.4-1.4,1.4c-0.8,0-1.4-0.6-1.4-1.4c0-0.8,0.6-1.4,1.4-1.4
		C112,32.6,112.7,33.2,112.7,34"/>
	<path fill="#20B4E8" d="M112.7,57.5c0,0.8-0.6,1.4-1.4,1.4c-0.8,0-1.4-0.6-1.4-1.4c0-0.8,0.6-1.4,1.4-1.4
		C112,56.1,112.7,56.7,112.7,57.5"/>
	<path fill="#20B4E8" d="M116,23.9c0,0.8-0.6,1.4-1.4,1.4c-0.8,0-1.4-0.6-1.4-1.4c0-0.8,0.6-1.4,1.4-1.4
		C115.4,22.5,116,23.1,116,23.9"/>
	<path fill="#20B4E8" d="M116,37.4c0,0.8-0.6,1.4-1.4,1.4c-0.8,0-1.4-0.6-1.4-1.4c0-0.8,0.6-1.4,1.4-1.4
		C115.4,35.9,116,36.6,116,37.4"/>
	<path fill="#20B4E8" d="M119.4,27.3c0,0.8-0.6,1.4-1.4,1.4c-0.8,0-1.4-0.6-1.4-1.4c0-0.8,0.6-1.4,1.4-1.4
		C118.8,25.9,119.4,26.5,119.4,27.3"/>
	<path fill="#20B4E8" d="M119.4,60.9c0,0.8-0.6,1.4-1.4,1.4c-0.8,0-1.4-0.6-1.4-1.4c0-0.8,0.6-1.4,1.4-1.4
		C118.8,59.4,119.4,60.1,119.4,60.9"/>
	<path fill="#20B4E8" d="M122.8,44.1c0,0.8-0.6,1.4-1.4,1.4c-0.8,0-1.4-0.6-1.4-1.4c0-0.8,0.6-1.4,1.4-1.4
		C122.1,42.6,122.8,43.3,122.8,44.1"/>
	<path fill="#20B4E8" d="M122.8,64.2c0,0.8-0.6,1.4-1.4,1.4c-0.8,0-1.4-0.6-1.4-1.4c0-0.8,0.6-1.4,1.4-1.4
		C122.1,62.8,122.8,63.4,122.8,64.2"/>
	<path fill="#20B4E8" d="M122.8,70.9c0,0.8-0.6,1.4-1.4,1.4c-0.8,0-1.4-0.6-1.4-1.4c0-0.8,0.6-1.4,1.4-1.4
		C122.1,69.5,122.8,70.1,122.8,70.9"/>
	<path fill="#20B4E8" d="M126.1,60.9c0,0.8-0.6,1.4-1.4,1.4c-0.8,0-1.4-0.6-1.4-1.4c0-0.8,0.6-1.4,1.4-1.4
		C125.5,59.4,126.1,60.1,126.1,60.9"/>
	<path fill="#20B4E8" d="M129.5,27.3c0,0.8-0.6,1.4-1.4,1.4c-0.8,0-1.4-0.6-1.4-1.4c0-0.8,0.6-1.4,1.4-1.4
		C128.8,25.9,129.5,26.5,129.5,27.3"/>
	<path fill="#20B4E8" d="M129.5,47.4c0,0.8-0.6,1.4-1.4,1.4c-0.8,0-1.4-0.6-1.4-1.4c0-0.8,0.6-1.4,1.4-1.4
		C128.8,46,129.5,46.6,129.5,47.4"/>
	<path fill="#20B4E8" d="M132.8,64.2c0,0.8-0.6,1.4-1.4,1.4c-0.8,0-1.4-0.6-1.4-1.4c0-0.8,0.6-1.4,1.4-1.4
		C132.2,62.8,132.8,63.4,132.8,64.2"/>
	<path fill="#20B4E8" d="M136.2,27.3c0,0.8-0.6,1.4-1.4,1.4c-0.8,0-1.4-0.6-1.4-1.4c0-0.8,0.6-1.4,1.4-1.4
		C135.5,25.9,136.2,26.5,136.2,27.3"/>
	<path fill="#20B4E8" d="M136.2,50.8c0,0.8-0.6,1.4-1.4,1.4c-0.8,0-1.4-0.6-1.4-1.4c0-0.8,0.6-1.4,1.4-1.4
		C135.5,49.4,136.2,50,136.2,50.8"/>
	<path fill="#20B4E8" d="M139.5,30.6c0,0.8-0.6,1.4-1.4,1.4c-0.8,0-1.4-0.6-1.4-1.4s0.6-1.4,1.4-1.4
		C138.9,29.2,139.5,29.9,139.5,30.6"/>
	<path fill="#20B4E8" d="M139.5,47.4c0,0.8-0.6,1.4-1.4,1.4c-0.8,0-1.4-0.6-1.4-1.4c0-0.8,0.6-1.4,1.4-1.4
		C138.9,46,139.5,46.6,139.5,47.4"/>
	<path fill="#20B4E8" d="M139.5,57.5c0,0.8-0.6,1.4-1.4,1.4c-0.8,0-1.4-0.6-1.4-1.4c0-0.8,0.6-1.4,1.4-1.4
		C138.9,56.1,139.5,56.7,139.5,57.5"/>
	<path fill="#20B4E8" d="M146.3,47.4c0,0.8-0.6,1.4-1.4,1.4c-0.8,0-1.4-0.6-1.4-1.4c0-0.8,0.6-1.4,1.4-1.4
		C145.6,46,146.3,46.6,146.3,47.4"/>
	<path fill="#20B4E8" d="M149.6,60.9c0,0.8-0.6,1.4-1.4,1.4c-0.8,0-1.4-0.6-1.4-1.4c0-0.8,0.6-1.4,1.4-1.4
		C149,59.4,149.6,60.1,149.6,60.9"/>
	<path fill="#20B4E8" d="M153,67.6c0,0.8-0.6,1.4-1.4,1.4c-0.8,0-1.4-0.6-1.4-1.4c0-0.8,0.6-1.4,1.4-1.4
		C152.3,66.1,153,66.8,153,67.6"/>
	<path fill="#20B4E8" d="M156.3,57.5c0,0.8-0.6,1.4-1.4,1.4c-0.8,0-1.4-0.6-1.4-1.4c0-0.8,0.6-1.4,1.4-1.4
		C155.7,56.1,156.3,56.7,156.3,57.5"/>
	<path fill="#20B4E8" d="M156.3,37.4c0,0.8-0.6,1.4-1.4,1.4c-0.8,0-1.4-0.6-1.4-1.4c0-0.8,0.6-1.4,1.4-1.4
		C155.7,35.9,156.3,36.6,156.3,37.4"/>
	<path fill="#20B4E8" d="M159.7,40.7c0,0.8-0.6,1.4-1.4,1.4c-0.8,0-1.4-0.6-1.4-1.4c0-0.8,0.6-1.4,1.4-1.4
		C159,39.3,159.7,39.9,159.7,40.7"/>
	<path fill="#20B4E8" d="M163,34c0,0.8-0.6,1.4-1.4,1.4c-0.8,0-1.4-0.6-1.4-1.4c0-0.8,0.6-1.4,1.4-1.4C162.4,32.6,163,33.2,163,34"
		/>
	<path fill="#20B4E8" d="M163,47.4c0,0.8-0.6,1.4-1.4,1.4c-0.8,0-1.4-0.6-1.4-1.4c0-0.8,0.6-1.4,1.4-1.4C162.4,46,163,46.6,163,47.4
		"/>
	<path fill="#20B4E8" d="M166.4,30.6c0,0.8-0.6,1.4-1.4,1.4c-0.8,0-1.4-0.6-1.4-1.4s0.6-1.4,1.4-1.4
		C165.8,29.2,166.4,29.9,166.4,30.6"/>
	<path fill="#20B4E8" d="M166.4,54.1c0,0.8-0.6,1.4-1.4,1.4c-0.8,0-1.4-0.6-1.4-1.4c0-0.8,0.6-1.4,1.4-1.4
		C165.8,52.7,166.4,53.4,166.4,54.1"/>
	<path fill="#20B4E8" d="M173.1,23.9c0,0.8-0.6,1.4-1.4,1.4c-0.8,0-1.4-0.6-1.4-1.4c0-0.8,0.6-1.4,1.4-1.4
		C172.5,22.5,173.1,23.1,173.1,23.9"/>
	<path fill="#20B4E8" d="M173.1,30.6c0,0.8-0.6,1.4-1.4,1.4c-0.8,0-1.4-0.6-1.4-1.4s0.6-1.4,1.4-1.4
		C172.5,29.2,173.1,29.9,173.1,30.6"/>
	<path fill="#20B4E8" d="M176.5,44.1c0,0.8-0.6,1.4-1.4,1.4c-0.8,0-1.4-0.6-1.4-1.4c0-0.8,0.6-1.4,1.4-1.4
		C175.8,42.6,176.5,43.3,176.5,44.1"/>
	<path fill="#20B4E8" d="M176.5,54.1c0,0.8-0.6,1.4-1.4,1.4c-0.8,0-1.4-0.6-1.4-1.4c0-0.8,0.6-1.4,1.4-1.4
		C175.8,52.7,176.5,53.4,176.5,54.1"/>
	<path fill="#20B4E8" d="M189.9,23.9c0,0.8-0.6,1.4-1.4,1.4c-0.8,0-1.4-0.6-1.4-1.4c0-0.8,0.6-1.4,1.4-1.4
		C189.3,22.5,189.9,23.1,189.9,23.9"/>
	<path fill="#20B4E8" d="M179.8,40.7c0,0.8-0.6,1.4-1.4,1.4c-0.8,0-1.4-0.6-1.4-1.4c0-0.8,0.6-1.4,1.4-1.4
		C179.2,39.3,179.8,39.9,179.8,40.7"/>
	<path fill="#20B4E8" d="M179.8,50.8c0,0.8-0.6,1.4-1.4,1.4c-0.8,0-1.4-0.6-1.4-1.4c0-0.8,0.6-1.4,1.4-1.4
		C179.2,49.4,179.8,50,179.8,50.8"/>
	<path fill="#20B4E8" d="M183.2,64.2c0,0.8-0.6,1.4-1.4,1.4c-0.8,0-1.4-0.6-1.4-1.4c0-0.8,0.6-1.4,1.4-1.4
		C182.5,62.8,183.2,63.4,183.2,64.2"/>
	<path fill="#20B4E8" d="M186.5,57.5c0,0.8-0.6,1.4-1.4,1.4c-0.8,0-1.4-0.6-1.4-1.4c0-0.8,0.6-1.4,1.4-1.4
		C185.9,56.1,186.5,56.7,186.5,57.5"/>
	<path fill="#20B4E8" d="M166.4,64.2c0,0.8-0.6,1.4-1.4,1.4c-0.8,0-1.4-0.6-1.4-1.4c0-0.8,0.6-1.4,1.4-1.4
		C165.8,62.8,166.4,63.4,166.4,64.2"/>
	<path fill="#20B4E8" d="M62.3,23.9c0,0.8-0.6,1.4-1.4,1.4c-0.8,0-1.4-0.6-1.4-1.4c0-0.8,0.6-1.4,1.4-1.4
		C61.7,22.5,62.3,23.1,62.3,23.9"/>
	<path fill="#20B4E8" d="M65.7,30.6c0,0.8-0.6,1.4-1.4,1.4c-0.8,0-1.4-0.6-1.4-1.4s0.6-1.4,1.4-1.4C65,29.2,65.7,29.9,65.7,30.6"/>
	<path fill="#20B4E8" d="M55.6,40.7c0,0.8-0.6,1.4-1.4,1.4c-0.8,0-1.4-0.6-1.4-1.4c0-0.8,0.6-1.4,1.4-1.4
		C55,39.3,55.6,39.9,55.6,40.7"/>
	<path fill="#20B4E8" d="M65.7,37.4c0,0.8-0.6,1.4-1.4,1.4c-0.8,0-1.4-0.6-1.4-1.4c0-0.8,0.6-1.4,1.4-1.4
		C65,35.9,65.7,36.6,65.7,37.4"/>
	<path fill="#0065A5" d="M69,20.6c0,0.8-0.6,1.4-1.4,1.4c-0.8,0-1.4-0.6-1.4-1.4c0-0.8,0.6-1.4,1.4-1.4C68.4,19.1,69,19.8,69,20.6"
		/>
	<path fill="#0065A5" d="M69,27.3c0,0.8-0.6,1.4-1.4,1.4c-0.8,0-1.4-0.6-1.4-1.4c0-0.8,0.6-1.4,1.4-1.4C68.4,25.9,69,26.5,69,27.3"
		/>
	<path fill="#0065A5" d="M69,40.7c0,0.8-0.6,1.4-1.4,1.4c-0.8,0-1.4-0.6-1.4-1.4c0-0.8,0.6-1.4,1.4-1.4C68.4,39.3,69,39.9,69,40.7"
		/>
	<path fill="#0065A5" d="M69,54.1c0,0.8-0.6,1.4-1.4,1.4c-0.8,0-1.4-0.6-1.4-1.4c0-0.8,0.6-1.4,1.4-1.4C68.4,52.7,69,53.4,69,54.1"
		/>
	<path fill="#0065A5" d="M69,64.2c0,0.8-0.6,1.4-1.4,1.4c-0.8,0-1.4-0.6-1.4-1.4c0-0.8,0.6-1.4,1.4-1.4C68.4,62.8,69,63.4,69,64.2"
		/>
	<path fill="#0065A5" d="M72.4,34c0,0.8-0.6,1.4-1.4,1.4c-0.8,0-1.4-0.6-1.4-1.4c0-0.8,0.6-1.4,1.4-1.4C71.8,32.6,72.4,33.2,72.4,34
		"/>
	<path fill="#0065A5" d="M72.4,50.8c0,0.8-0.6,1.4-1.4,1.4c-0.8,0-1.4-0.6-1.4-1.4c0-0.8,0.6-1.4,1.4-1.4
		C71.8,49.4,72.4,50,72.4,50.8"/>
	<path fill="#0065A5" d="M75.7,64.2c0,0.8-0.6,1.4-1.4,1.4c-0.8,0-1.4-0.6-1.4-1.4c0-0.8,0.6-1.4,1.4-1.4
		C75.1,62.8,75.7,63.4,75.7,64.2"/>
	<path fill="#0065A5" d="M79.1,57.5c0,0.8-0.6,1.4-1.4,1.4c-0.8,0-1.4-0.6-1.4-1.4c0-0.8,0.6-1.4,1.4-1.4
		C78.5,56.1,79.1,56.7,79.1,57.5"/>
	<path fill="#0065A5" d="M85.8,60.9c0,0.8-0.6,1.4-1.4,1.4c-0.8,0-1.4-0.6-1.4-1.4c0-0.8,0.6-1.4,1.4-1.4
		C85.2,59.4,85.8,60.1,85.8,60.9"/>
	<path fill="#0065A5" d="M89.2,30.6c0,0.8-0.6,1.4-1.4,1.4c-0.8,0-1.4-0.6-1.4-1.4s0.6-1.4,1.4-1.4C88.5,29.2,89.2,29.9,89.2,30.6"
		/>
	<path fill="#0065A5" d="M85.8,44.1c0,0.8-0.6,1.4-1.4,1.4c-0.8,0-1.4-0.6-1.4-1.4c0-0.8,0.6-1.4,1.4-1.4
		C85.2,42.6,85.8,43.3,85.8,44.1"/>
	<path fill="#0065A5" d="M92.5,60.9c0,0.8-0.6,1.4-1.4,1.4c-0.8,0-1.4-0.6-1.4-1.4c0-0.8,0.6-1.4,1.4-1.4
		C91.9,59.4,92.5,60.1,92.5,60.9"/>
	<path fill="#0065A5" d="M95.9,34c0,0.8-0.6,1.4-1.4,1.4c-0.8,0-1.4-0.6-1.4-1.4c0-0.8,0.6-1.4,1.4-1.4C95.3,32.6,95.9,33.2,95.9,34
		"/>
	<path fill="#0065A5" d="M95.9,44.1c0,0.8-0.6,1.4-1.4,1.4c-0.8,0-1.4-0.6-1.4-1.4c0-0.8,0.6-1.4,1.4-1.4
		C95.3,42.6,95.9,43.3,95.9,44.1"/>
	<path fill="#0065A5" d="M95.9,54.1c0,0.8-0.6,1.4-1.4,1.4c-0.8,0-1.4-0.6-1.4-1.4c0-0.8,0.6-1.4,1.4-1.4
		C95.3,52.7,95.9,53.4,95.9,54.1"/>
	<path fill="#0065A5" d="M99.2,27.3c0,0.8-0.6,1.4-1.4,1.4c-0.8,0-1.4-0.6-1.4-1.4c0-0.8,0.6-1.4,1.4-1.4
		C98.6,25.9,99.2,26.5,99.2,27.3"/>
	<path fill="#0065A5" d="M99.2,47.4c0,0.8-0.6,1.4-1.4,1.4c-0.8,0-1.4-0.6-1.4-1.4c0-0.8,0.6-1.4,1.4-1.4
		C98.6,46,99.2,46.6,99.2,47.4"/>
	<path fill="#0065A5" d="M102.6,57.5c0,0.8-0.6,1.4-1.4,1.4c-0.8,0-1.4-0.6-1.4-1.4c0-0.8,0.6-1.4,1.4-1.4
		C102,56.1,102.6,56.7,102.6,57.5"/>
	<path fill="#0065A5" d="M99.2,64.2c0,0.8-0.6,1.4-1.4,1.4c-0.8,0-1.4-0.6-1.4-1.4c0-0.8,0.6-1.4,1.4-1.4
		C98.6,62.8,99.2,63.4,99.2,64.2"/>
	<path fill="#0065A5" d="M106,20.6c0,0.8-0.6,1.4-1.4,1.4c-0.8,0-1.4-0.6-1.4-1.4c0-0.8,0.6-1.4,1.4-1.4
		C105.3,19.1,106,19.8,106,20.6"/>
	<path fill="#0065A5" d="M109.3,37.4c0,0.8-0.6,1.4-1.4,1.4c-0.8,0-1.4-0.6-1.4-1.4c0-0.8,0.6-1.4,1.4-1.4
		C108.7,35.9,109.3,36.6,109.3,37.4"/>
	<path fill="#0065A5" d="M109.3,44.1c0,0.8-0.6,1.4-1.4,1.4c-0.8,0-1.4-0.6-1.4-1.4c0-0.8,0.6-1.4,1.4-1.4
		C108.7,42.6,109.3,43.3,109.3,44.1"/>
	<path fill="#0065A5" d="M112.7,60.9c0,0.8-0.6,1.4-1.4,1.4c-0.8,0-1.4-0.6-1.4-1.4c0-0.8,0.6-1.4,1.4-1.4
		C112,59.4,112.7,60.1,112.7,60.9"/>
	<path fill="#0065A5" d="M116,30.6c0,0.8-0.6,1.4-1.4,1.4c-0.8,0-1.4-0.6-1.4-1.4s0.6-1.4,1.4-1.4C115.4,29.2,116,29.9,116,30.6"/>
	<path fill="#0065A5" d="M116,57.5c0,0.8-0.6,1.4-1.4,1.4c-0.8,0-1.4-0.6-1.4-1.4c0-0.8,0.6-1.4,1.4-1.4
		C115.4,56.1,116,56.7,116,57.5"/>
	<path fill="#0065A5" d="M122.8,34c0,0.8-0.6,1.4-1.4,1.4c-0.8,0-1.4-0.6-1.4-1.4c0-0.8,0.6-1.4,1.4-1.4
		C122.1,32.6,122.8,33.2,122.8,34"/>
	<path fill="#0065A5" d="M119.4,40.7c0,0.8-0.6,1.4-1.4,1.4c-0.8,0-1.4-0.6-1.4-1.4c0-0.8,0.6-1.4,1.4-1.4
		C118.8,39.3,119.4,39.9,119.4,40.7"/>
	<path fill="#0065A5" d="M122.8,23.9c0,0.8-0.6,1.4-1.4,1.4c-0.8,0-1.4-0.6-1.4-1.4c0-0.8,0.6-1.4,1.4-1.4
		C122.1,22.5,122.8,23.1,122.8,23.9"/>
	<path fill="#0065A5" d="M126.1,27.3c0,0.8-0.6,1.4-1.4,1.4c-0.8,0-1.4-0.6-1.4-1.4c0-0.8,0.6-1.4,1.4-1.4
		C125.5,25.9,126.1,26.5,126.1,27.3"/>
	<path fill="#0065A5" d="M126.1,47.4c0,0.8-0.6,1.4-1.4,1.4c-0.8,0-1.4-0.6-1.4-1.4c0-0.8,0.6-1.4,1.4-1.4
		C125.5,46,126.1,46.6,126.1,47.4"/>
	<path fill="#0065A5" d="M129.5,20.6c0,0.8-0.6,1.4-1.4,1.4c-0.8,0-1.4-0.6-1.4-1.4c0-0.8,0.6-1.4,1.4-1.4
		C128.8,19.1,129.5,19.8,129.5,20.6"/>
	<path fill="#0065A5" d="M129.5,44.1c0,0.8-0.6,1.4-1.4,1.4c-0.8,0-1.4-0.6-1.4-1.4c0-0.8,0.6-1.4,1.4-1.4
		C128.8,42.6,129.5,43.3,129.5,44.1"/>
	<path fill="#0065A5" d="M129.5,64.2c0,0.8-0.6,1.4-1.4,1.4c-0.8,0-1.4-0.6-1.4-1.4c0-0.8,0.6-1.4,1.4-1.4
		C128.8,62.8,129.5,63.4,129.5,64.2"/>
	<path fill="#0065A5" d="M132.8,23.9c0,0.8-0.6,1.4-1.4,1.4c-0.8,0-1.4-0.6-1.4-1.4c0-0.8,0.6-1.4,1.4-1.4
		C132.2,22.5,132.8,23.1,132.8,23.9"/>
	<path fill="#0065A5" d="M132.8,40.7c0,0.8-0.6,1.4-1.4,1.4c-0.8,0-1.4-0.6-1.4-1.4c0-0.8,0.6-1.4,1.4-1.4
		C132.2,39.3,132.8,39.9,132.8,40.7"/>
	<path fill="#0065A5" d="M132.8,47.4c0,0.8-0.6,1.4-1.4,1.4c-0.8,0-1.4-0.6-1.4-1.4c0-0.8,0.6-1.4,1.4-1.4
		C132.2,46,132.8,46.6,132.8,47.4"/>
	<path fill="#0065A5" d="M136.2,30.6c0,0.8-0.6,1.4-1.4,1.4c-0.8,0-1.4-0.6-1.4-1.4s0.6-1.4,1.4-1.4
		C135.5,29.2,136.2,29.9,136.2,30.6"/>
	<path fill="#0065A5" d="M136.2,54.1c0,0.8-0.6,1.4-1.4,1.4c-0.8,0-1.4-0.6-1.4-1.4c0-0.8,0.6-1.4,1.4-1.4
		C135.5,52.7,136.2,53.4,136.2,54.1"/>
	<path fill="#0065A5" d="M136.2,60.9c0,0.8-0.6,1.4-1.4,1.4c-0.8,0-1.4-0.6-1.4-1.4c0-0.8,0.6-1.4,1.4-1.4
		C135.5,59.4,136.2,60.1,136.2,60.9"/>
	<path fill="#0065A5" d="M136.2,67.6c0,0.8-0.6,1.4-1.4,1.4c-0.8,0-1.4-0.6-1.4-1.4c0-0.8,0.6-1.4,1.4-1.4
		C135.5,66.1,136.2,66.8,136.2,67.6"/>
	<path fill="#0065A5" d="M139.5,50.8c0,0.8-0.6,1.4-1.4,1.4c-0.8,0-1.4-0.6-1.4-1.4c0-0.8,0.6-1.4,1.4-1.4
		C138.9,49.4,139.5,50,139.5,50.8"/>
	<path fill="#0065A5" d="M146.3,23.9c0,0.8-0.6,1.4-1.4,1.4c-0.8,0-1.4-0.6-1.4-1.4c0-0.8,0.6-1.4,1.4-1.4
		C145.6,22.5,146.3,23.1,146.3,23.9"/>
	<path fill="#0065A5" d="M153,54.1c0,0.8-0.6,1.4-1.4,1.4c-0.8,0-1.4-0.6-1.4-1.4c0-0.8,0.6-1.4,1.4-1.4
		C152.3,52.7,153,53.4,153,54.1"/>
	<path fill="#0065A5" d="M153,60.9c0,0.8-0.6,1.4-1.4,1.4c-0.8,0-1.4-0.6-1.4-1.4c0-0.8,0.6-1.4,1.4-1.4
		C152.3,59.4,153,60.1,153,60.9"/>
	<path fill="#0065A5" d="M159.7,44.1c0,0.8-0.6,1.4-1.4,1.4c-0.8,0-1.4-0.6-1.4-1.4c0-0.8,0.6-1.4,1.4-1.4
		C159,42.6,159.7,43.3,159.7,44.1"/>
	<path fill="#0065A5" d="M159.7,54.1c0,0.8-0.6,1.4-1.4,1.4c-0.8,0-1.4-0.6-1.4-1.4c0-0.8,0.6-1.4,1.4-1.4
		C159,52.7,159.7,53.4,159.7,54.1"/>
	<path fill="#0065A5" d="M163,27.3c0,0.8-0.6,1.4-1.4,1.4c-0.8,0-1.4-0.6-1.4-1.4c0-0.8,0.6-1.4,1.4-1.4
		C162.4,25.9,163,26.5,163,27.3"/>
	<path fill="#0065A5" d="M166.4,40.7c0,0.8-0.6,1.4-1.4,1.4c-0.8,0-1.4-0.6-1.4-1.4c0-0.8,0.6-1.4,1.4-1.4
		C165.8,39.3,166.4,39.9,166.4,40.7"/>
	<path fill="#0065A5" d="M166.4,50.8c0,0.8-0.6,1.4-1.4,1.4c-0.8,0-1.4-0.6-1.4-1.4c0-0.8,0.6-1.4,1.4-1.4
		C165.8,49.4,166.4,50,166.4,50.8"/>
	<path fill="#0065A5" d="M166.4,57.5c0,0.8-0.6,1.4-1.4,1.4c-0.8,0-1.4-0.6-1.4-1.4c0-0.8,0.6-1.4,1.4-1.4
		C165.8,56.1,166.4,56.7,166.4,57.5"/>
	<path fill="#0065A5" d="M169.7,27.3c0,0.8-0.6,1.4-1.4,1.4c-0.8,0-1.4-0.6-1.4-1.4c0-0.8,0.6-1.4,1.4-1.4
		C169.1,25.9,169.7,26.5,169.7,27.3"/>
	<path fill="#0065A5" d="M173.1,50.8c0,0.8-0.6,1.4-1.4,1.4c-0.8,0-1.4-0.6-1.4-1.4c0-0.8,0.6-1.4,1.4-1.4
		C172.5,49.4,173.1,50,173.1,50.8"/>
	<path fill="#0065A5" d="M176.5,37.4c0,0.8-0.6,1.4-1.4,1.4c-0.8,0-1.4-0.6-1.4-1.4c0-0.8,0.6-1.4,1.4-1.4
		C175.8,35.9,176.5,36.6,176.5,37.4"/>
	<path fill="#0065A5" d="M176.5,17.2c0,0.8-0.6,1.4-1.4,1.4c-0.8,0-1.4-0.6-1.4-1.4c0-0.8,0.6-1.4,1.4-1.4
		C175.8,15.8,176.5,16.4,176.5,17.2"/>
	<path fill="#0065A5" d="M183.2,47.4c0,0.8-0.6,1.4-1.4,1.4c-0.8,0-1.4-0.6-1.4-1.4c0-0.8,0.6-1.4,1.4-1.4
		C182.5,46,183.2,46.6,183.2,47.4"/>
	<path fill="#0065A5" d="M183.2,60.9c0,0.8-0.6,1.4-1.4,1.4c-0.8,0-1.4-0.6-1.4-1.4c0-0.8,0.6-1.4,1.4-1.4
		C182.5,59.4,183.2,60.1,183.2,60.9"/>
	<path fill="#0065A5" d="M193.2,54.1c0,0.8-0.6,1.4-1.4,1.4c-0.8,0-1.4-0.6-1.4-1.4c0-0.8,0.6-1.4,1.4-1.4
		C192.6,52.7,193.2,53.4,193.2,54.1"/>
	<path fill="#0065A5" d="M189.9,64.2c0,0.8-0.6,1.4-1.4,1.4c-0.8,0-1.4-0.6-1.4-1.4c0-0.8,0.6-1.4,1.4-1.4
		C189.3,62.8,189.9,63.4,189.9,64.2"/>
	<path fill="#0065A5" d="M173.1,70.9c0,0.8-0.6,1.4-1.4,1.4c-0.8,0-1.4-0.6-1.4-1.4c0-0.8,0.6-1.4,1.4-1.4
		C172.5,69.5,173.1,70.1,173.1,70.9"/>
	<path fill="#0065A5" d="M65.7,50.8c0,0.8-0.6,1.4-1.4,1.4c-0.8,0-1.4-0.6-1.4-1.4c0-0.8,0.6-1.4,1.4-1.4C65,49.4,65.7,50,65.7,50.8
		"/>
	<path fill="#0065A5" d="M62.3,44.1c0,0.8-0.6,1.4-1.4,1.4c-0.8,0-1.4-0.6-1.4-1.4c0-0.8,0.6-1.4,1.4-1.4
		C61.7,42.6,62.3,43.3,62.3,44.1"/>
	<path fill="#0065A5" d="M59,30.6c0,0.8-0.6,1.4-1.4,1.4c-0.8,0-1.4-0.6-1.4-1.4s0.6-1.4,1.4-1.4C58.3,29.2,59,29.9,59,30.6"/>
	<path fill="#2E2D74" d="M65.7,27.3c0,0.8-0.6,1.4-1.4,1.4c-0.8,0-1.4-0.6-1.4-1.4c0-0.8,0.6-1.4,1.4-1.4
		C65,25.9,65.7,26.5,65.7,27.3"/>
	<path fill="#2E2D74" d="M69,30.6c0,0.8-0.6,1.4-1.4,1.4c-0.8,0-1.4-0.6-1.4-1.4s0.6-1.4,1.4-1.4C68.4,29.2,69,29.9,69,30.6"/>
	<path fill="#2E2D74" d="M69,37.4c0,0.8-0.6,1.4-1.4,1.4c-0.8,0-1.4-0.6-1.4-1.4c0-0.8,0.6-1.4,1.4-1.4C68.4,35.9,69,36.6,69,37.4"
		/>
	<path fill="#2E2D74" d="M69,44.1c0,0.8-0.6,1.4-1.4,1.4c-0.8,0-1.4-0.6-1.4-1.4c0-0.8,0.6-1.4,1.4-1.4C68.4,42.6,69,43.3,69,44.1"
		/>
	<path fill="#2E2D74" d="M69,50.8c0,0.8-0.6,1.4-1.4,1.4c-0.8,0-1.4-0.6-1.4-1.4c0-0.8,0.6-1.4,1.4-1.4C68.4,49.4,69,50,69,50.8"/>
	<path fill="#2E2D74" d="M62.3,50.8c0,0.8-0.6,1.4-1.4,1.4c-0.8,0-1.4-0.6-1.4-1.4c0-0.8,0.6-1.4,1.4-1.4
		C61.7,49.4,62.3,50,62.3,50.8"/>
	<path fill="#2E2D74" d="M62.3,57.5c0,0.8-0.6,1.4-1.4,1.4c-0.8,0-1.4-0.6-1.4-1.4c0-0.8,0.6-1.4,1.4-1.4
		C61.7,56.1,62.3,56.7,62.3,57.5"/>
	<path fill="#2E2D74" d="M69,57.5c0,0.8-0.6,1.4-1.4,1.4c-0.8,0-1.4-0.6-1.4-1.4c0-0.8,0.6-1.4,1.4-1.4C68.4,56.1,69,56.7,69,57.5"
		/>
	<path fill="#2E2D74" d="M59,64.2c0,0.8-0.6,1.4-1.4,1.4c-0.8,0-1.4-0.6-1.4-1.4c0-0.8,0.6-1.4,1.4-1.4C58.3,62.8,59,63.4,59,64.2"
		/>
	<path fill="#2E2D74" d="M69,70.9c0,0.8-0.6,1.4-1.4,1.4c-0.8,0-1.4-0.6-1.4-1.4c0-0.8,0.6-1.4,1.4-1.4C68.4,69.5,69,70.1,69,70.9"
		/>
	<path fill="#2E2D74" d="M69,23.9c0,0.8-0.6,1.4-1.4,1.4c-0.8,0-1.4-0.6-1.4-1.4c0-0.8,0.6-1.4,1.4-1.4C68.4,22.5,69,23.1,69,23.9"
		/>
	<path fill="#2E2D74" d="M72.4,27.3c0,0.8-0.6,1.4-1.4,1.4c-0.8,0-1.4-0.6-1.4-1.4c0-0.8,0.6-1.4,1.4-1.4
		C71.8,25.9,72.4,26.5,72.4,27.3"/>
	<path fill="#2E2D74" d="M72.4,30.6c0,0.8-0.6,1.4-1.4,1.4c-0.8,0-1.4-0.6-1.4-1.4s0.6-1.4,1.4-1.4C71.8,29.2,72.4,29.9,72.4,30.6"
		/>
	<path fill="#2E2D74" d="M72.4,37.4c0,0.8-0.6,1.4-1.4,1.4c-0.8,0-1.4-0.6-1.4-1.4c0-0.8,0.6-1.4,1.4-1.4
		C71.8,35.9,72.4,36.6,72.4,37.4"/>
	<path fill="#2E2D74" d="M72.4,40.7c0,0.8-0.6,1.4-1.4,1.4c-0.8,0-1.4-0.6-1.4-1.4c0-0.8,0.6-1.4,1.4-1.4
		C71.8,39.3,72.4,39.9,72.4,40.7"/>
	<path fill="#2E2D74" d="M72.4,47.4c0,0.8-0.6,1.4-1.4,1.4c-0.8,0-1.4-0.6-1.4-1.4c0-0.8,0.6-1.4,1.4-1.4
		C71.8,46,72.4,46.6,72.4,47.4"/>
	<path fill="#2E2D74" d="M72.4,54.1c0,0.8-0.6,1.4-1.4,1.4c-0.8,0-1.4-0.6-1.4-1.4c0-0.8,0.6-1.4,1.4-1.4
		C71.8,52.7,72.4,53.4,72.4,54.1"/>
	<path fill="#2E2D74" d="M72.4,60.9c0,0.8-0.6,1.4-1.4,1.4c-0.8,0-1.4-0.6-1.4-1.4c0-0.8,0.6-1.4,1.4-1.4
		C71.8,59.4,72.4,60.1,72.4,60.9"/>
	<path fill="#2E2D74" d="M72.4,64.2c0,0.8-0.6,1.4-1.4,1.4c-0.8,0-1.4-0.6-1.4-1.4c0-0.8,0.6-1.4,1.4-1.4
		C71.8,62.8,72.4,63.4,72.4,64.2"/>
	<path fill="#2E2D74" d="M75.7,37.4c0,0.8-0.6,1.4-1.4,1.4c-0.8,0-1.4-0.6-1.4-1.4c0-0.8,0.6-1.4,1.4-1.4
		C75.1,35.9,75.7,36.6,75.7,37.4"/>
	<path fill="#2E2D74" d="M75.7,50.8c0,0.8-0.6,1.4-1.4,1.4c-0.8,0-1.4-0.6-1.4-1.4c0-0.8,0.6-1.4,1.4-1.4
		C75.1,49.4,75.7,50,75.7,50.8"/>
	<path fill="#2E2D74" d="M75.7,60.9c0,0.8-0.6,1.4-1.4,1.4c-0.8,0-1.4-0.6-1.4-1.4c0-0.8,0.6-1.4,1.4-1.4
		C75.1,59.4,75.7,60.1,75.7,60.9"/>
	<path fill="#2E2D74" d="M79.1,64.2c0,0.8-0.6,1.4-1.4,1.4c-0.8,0-1.4-0.6-1.4-1.4c0-0.8,0.6-1.4,1.4-1.4
		C78.5,62.8,79.1,63.4,79.1,64.2"/>
	<path fill="#2E2D74" d="M82.5,60.9c0,0.8-0.6,1.4-1.4,1.4c-0.8,0-1.4-0.6-1.4-1.4c0-0.8,0.6-1.4,1.4-1.4
		C81.8,59.4,82.5,60.1,82.5,60.9"/>
	<path fill="#2E2D74" d="M79.1,67.6c0,0.8-0.6,1.4-1.4,1.4c-0.8,0-1.4-0.6-1.4-1.4c0-0.8,0.6-1.4,1.4-1.4
		C78.5,66.1,79.1,66.8,79.1,67.6"/>
	<path fill="#2E2D74" d="M85.8,64.2c0,0.8-0.6,1.4-1.4,1.4c-0.8,0-1.4-0.6-1.4-1.4c0-0.8,0.6-1.4,1.4-1.4
		C85.2,62.8,85.8,63.4,85.8,64.2"/>
	<path fill="#2E2D74" d="M85.8,67.6c0,0.8-0.6,1.4-1.4,1.4c-0.8,0-1.4-0.6-1.4-1.4c0-0.8,0.6-1.4,1.4-1.4
		C85.2,66.1,85.8,66.8,85.8,67.6"/>
	<path fill="#2E2D74" d="M89.2,57.5c0,0.8-0.6,1.4-1.4,1.4c-0.8,0-1.4-0.6-1.4-1.4c0-0.8,0.6-1.4,1.4-1.4
		C88.5,56.1,89.2,56.7,89.2,57.5"/>
	<path fill="#2E2D74" d="M89.2,67.6c0,0.8-0.6,1.4-1.4,1.4c-0.8,0-1.4-0.6-1.4-1.4c0-0.8,0.6-1.4,1.4-1.4
		C88.5,66.1,89.2,66.8,89.2,67.6"/>
	<path fill="#2E2D74" d="M92.5,20.6c0,0.8-0.6,1.4-1.4,1.4c-0.8,0-1.4-0.6-1.4-1.4c0-0.8,0.6-1.4,1.4-1.4
		C91.9,19.1,92.5,19.8,92.5,20.6"/>
	<path fill="#2E2D74" d="M102.6,17.2c0,0.8-0.6,1.4-1.4,1.4c-0.8,0-1.4-0.6-1.4-1.4c0-0.8,0.6-1.4,1.4-1.4
		C102,15.8,102.6,16.4,102.6,17.2"/>
	<path fill="#2E2D74" d="M92.5,27.3c0,0.8-0.6,1.4-1.4,1.4c-0.8,0-1.4-0.6-1.4-1.4c0-0.8,0.6-1.4,1.4-1.4
		C91.9,25.9,92.5,26.5,92.5,27.3"/>
	<path fill="#2E2D74" d="M92.5,34c0,0.8-0.6,1.4-1.4,1.4c-0.8,0-1.4-0.6-1.4-1.4c0-0.8,0.6-1.4,1.4-1.4C91.9,32.6,92.5,33.2,92.5,34
		"/>
	<path fill="#2E2D74" d="M85.8,23.9c0,0.8-0.6,1.4-1.4,1.4c-0.8,0-1.4-0.6-1.4-1.4c0-0.8,0.6-1.4,1.4-1.4
		C85.2,22.5,85.8,23.1,85.8,23.9"/>
	<path fill="#2E2D74" d="M92.5,40.7c0,0.8-0.6,1.4-1.4,1.4c-0.8,0-1.4-0.6-1.4-1.4c0-0.8,0.6-1.4,1.4-1.4
		C91.9,39.3,92.5,39.9,92.5,40.7"/>
	<path fill="#2E2D74" d="M92.5,47.4c0,0.8-0.6,1.4-1.4,1.4c-0.8,0-1.4-0.6-1.4-1.4c0-0.8,0.6-1.4,1.4-1.4
		C91.9,46,92.5,46.6,92.5,47.4"/>
	<path fill="#2E2D74" d="M92.5,54.1c0,0.8-0.6,1.4-1.4,1.4c-0.8,0-1.4-0.6-1.4-1.4c0-0.8,0.6-1.4,1.4-1.4
		C91.9,52.7,92.5,53.4,92.5,54.1"/>
	<path fill="#2E2D74" d="M92.5,64.2c0,0.8-0.6,1.4-1.4,1.4c-0.8,0-1.4-0.6-1.4-1.4c0-0.8,0.6-1.4,1.4-1.4
		C91.9,62.8,92.5,63.4,92.5,64.2"/>
	<path fill="#2E2D74" d="M95.9,20.6c0,0.8-0.6,1.4-1.4,1.4c-0.8,0-1.4-0.6-1.4-1.4c0-0.8,0.6-1.4,1.4-1.4
		C95.3,19.1,95.9,19.8,95.9,20.6"/>
	<path fill="#2E2D74" d="M95.9,27.3c0,0.8-0.6,1.4-1.4,1.4c-0.8,0-1.4-0.6-1.4-1.4c0-0.8,0.6-1.4,1.4-1.4
		C95.3,25.9,95.9,26.5,95.9,27.3"/>
	<path fill="#2E2D74" d="M95.9,37.4c0,0.8-0.6,1.4-1.4,1.4c-0.8,0-1.4-0.6-1.4-1.4c0-0.8,0.6-1.4,1.4-1.4
		C95.3,35.9,95.9,36.6,95.9,37.4"/>
	<path fill="#2E2D74" d="M95.9,47.4c0,0.8-0.6,1.4-1.4,1.4c-0.8,0-1.4-0.6-1.4-1.4c0-0.8,0.6-1.4,1.4-1.4
		C95.3,46,95.9,46.6,95.9,47.4"/>
	<path fill="#2E2D74" d="M95.9,50.8c0,0.8-0.6,1.4-1.4,1.4c-0.8,0-1.4-0.6-1.4-1.4c0-0.8,0.6-1.4,1.4-1.4
		C95.3,49.4,95.9,50,95.9,50.8"/>
	<path fill="#2E2D74" d="M95.9,57.5c0,0.8-0.6,1.4-1.4,1.4c-0.8,0-1.4-0.6-1.4-1.4c0-0.8,0.6-1.4,1.4-1.4
		C95.3,56.1,95.9,56.7,95.9,57.5"/>
	<path fill="#2E2D74" d="M99.2,23.9c0,0.8-0.6,1.4-1.4,1.4c-0.8,0-1.4-0.6-1.4-1.4c0-0.8,0.6-1.4,1.4-1.4
		C98.6,22.5,99.2,23.1,99.2,23.9"/>
	<path fill="#2E2D74" d="M99.2,30.6c0,0.8-0.6,1.4-1.4,1.4c-0.8,0-1.4-0.6-1.4-1.4s0.6-1.4,1.4-1.4C98.6,29.2,99.2,29.9,99.2,30.6"
		/>
	<path fill="#2E2D74" d="M99.2,37.4c0,0.8-0.6,1.4-1.4,1.4c-0.8,0-1.4-0.6-1.4-1.4c0-0.8,0.6-1.4,1.4-1.4
		C98.6,35.9,99.2,36.6,99.2,37.4"/>
	<path fill="#2E2D74" d="M99.2,40.7c0,0.8-0.6,1.4-1.4,1.4c-0.8,0-1.4-0.6-1.4-1.4c0-0.8,0.6-1.4,1.4-1.4
		C98.6,39.3,99.2,39.9,99.2,40.7"/>
	<path fill="#2E2D74" d="M99.2,54.1c0,0.8-0.6,1.4-1.4,1.4c-0.8,0-1.4-0.6-1.4-1.4c0-0.8,0.6-1.4,1.4-1.4
		C98.6,52.7,99.2,53.4,99.2,54.1"/>
	<path fill="#2E2D74" d="M99.2,57.5c0,0.8-0.6,1.4-1.4,1.4c-0.8,0-1.4-0.6-1.4-1.4c0-0.8,0.6-1.4,1.4-1.4
		C98.6,56.1,99.2,56.7,99.2,57.5"/>
	<path fill="#2E2D74" d="M102.6,47.4c0,0.8-0.6,1.4-1.4,1.4c-0.8,0-1.4-0.6-1.4-1.4c0-0.8,0.6-1.4,1.4-1.4
		C102,46,102.6,46.6,102.6,47.4"/>
	<path fill="#2E2D74" d="M106,54.1c0,0.8-0.6,1.4-1.4,1.4c-0.8,0-1.4-0.6-1.4-1.4c0-0.8,0.6-1.4,1.4-1.4
		C105.3,52.7,106,53.4,106,54.1"/>
	<path fill="#2E2D74" d="M109.3,57.5c0,0.8-0.6,1.4-1.4,1.4c-0.8,0-1.4-0.6-1.4-1.4c0-0.8,0.6-1.4,1.4-1.4
		C108.7,56.1,109.3,56.7,109.3,57.5"/>
	<path fill="#2E2D74" d="M109.3,64.2c0,0.8-0.6,1.4-1.4,1.4c-0.8,0-1.4-0.6-1.4-1.4c0-0.8,0.6-1.4,1.4-1.4
		C108.7,62.8,109.3,63.4,109.3,64.2"/>
	<path fill="#2E2D74" d="M112.7,30.6c0,0.8-0.6,1.4-1.4,1.4c-0.8,0-1.4-0.6-1.4-1.4s0.6-1.4,1.4-1.4C112,29.2,112.7,29.9,112.7,30.6
		"/>
	<path fill="#2E2D74" d="M109.3,30.6c0,0.8-0.6,1.4-1.4,1.4c-0.8,0-1.4-0.6-1.4-1.4s0.6-1.4,1.4-1.4
		C108.7,29.2,109.3,29.9,109.3,30.6"/>
	<path fill="#2E2D74" d="M112.7,37.4c0,0.8-0.6,1.4-1.4,1.4c-0.8,0-1.4-0.6-1.4-1.4c0-0.8,0.6-1.4,1.4-1.4
		C112,35.9,112.7,36.6,112.7,37.4"/>
	<path fill="#2E2D74" d="M112.7,23.9c0,0.8-0.6,1.4-1.4,1.4c-0.8,0-1.4-0.6-1.4-1.4c0-0.8,0.6-1.4,1.4-1.4
		C112,22.5,112.7,23.1,112.7,23.9"/>
	<path fill="#2E2D74" d="M116,27.3c0,0.8-0.6,1.4-1.4,1.4c-0.8,0-1.4-0.6-1.4-1.4c0-0.8,0.6-1.4,1.4-1.4
		C115.4,25.9,116,26.5,116,27.3"/>
	<path fill="#2E2D74" d="M116,34c0,0.8-0.6,1.4-1.4,1.4c-0.8,0-1.4-0.6-1.4-1.4c0-0.8,0.6-1.4,1.4-1.4C115.4,32.6,116,33.2,116,34"
		/>
	<path fill="#2E2D74" d="M116,40.7c0,0.8-0.6,1.4-1.4,1.4c-0.8,0-1.4-0.6-1.4-1.4c0-0.8,0.6-1.4,1.4-1.4
		C115.4,39.3,116,39.9,116,40.7"/>
	<path fill="#2E2D74" d="M116,44.1c0,0.8-0.6,1.4-1.4,1.4c-0.8,0-1.4-0.6-1.4-1.4c0-0.8,0.6-1.4,1.4-1.4
		C115.4,42.6,116,43.3,116,44.1"/>
	<path fill="#2E2D74" d="M116,54.1c0,0.8-0.6,1.4-1.4,1.4c-0.8,0-1.4-0.6-1.4-1.4c0-0.8,0.6-1.4,1.4-1.4
		C115.4,52.7,116,53.4,116,54.1"/>
	<path fill="#2E2D74" d="M112.7,54.1c0,0.8-0.6,1.4-1.4,1.4c-0.8,0-1.4-0.6-1.4-1.4c0-0.8,0.6-1.4,1.4-1.4
		C112,52.7,112.7,53.4,112.7,54.1"/>
	<path fill="#2E2D74" d="M116,60.9c0,0.8-0.6,1.4-1.4,1.4c-0.8,0-1.4-0.6-1.4-1.4c0-0.8,0.6-1.4,1.4-1.4
		C115.4,59.4,116,60.1,116,60.9"/>
	<path fill="#2E2D74" d="M116,64.2c0,0.8-0.6,1.4-1.4,1.4c-0.8,0-1.4-0.6-1.4-1.4c0-0.8,0.6-1.4,1.4-1.4
		C115.4,62.8,116,63.4,116,64.2"/>
	<path fill="#2E2D74" d="M116,67.6c0,0.8-0.6,1.4-1.4,1.4c-0.8,0-1.4-0.6-1.4-1.4c0-0.8,0.6-1.4,1.4-1.4
		C115.4,66.1,116,66.8,116,67.6"/>
	<path fill="#2E2D74" d="M119.4,23.9c0,0.8-0.6,1.4-1.4,1.4c-0.8,0-1.4-0.6-1.4-1.4c0-0.8,0.6-1.4,1.4-1.4
		C118.8,22.5,119.4,23.1,119.4,23.9"/>
	<path fill="#2E2D74" d="M119.4,30.6c0,0.8-0.6,1.4-1.4,1.4c-0.8,0-1.4-0.6-1.4-1.4s0.6-1.4,1.4-1.4
		C118.8,29.2,119.4,29.9,119.4,30.6"/>
	<path fill="#2E2D74" d="M119.4,37.4c0,0.8-0.6,1.4-1.4,1.4c-0.8,0-1.4-0.6-1.4-1.4c0-0.8,0.6-1.4,1.4-1.4
		C118.8,35.9,119.4,36.6,119.4,37.4"/>
	<path fill="#2E2D74" d="M119.4,44.1c0,0.8-0.6,1.4-1.4,1.4c-0.8,0-1.4-0.6-1.4-1.4c0-0.8,0.6-1.4,1.4-1.4
		C118.8,42.6,119.4,43.3,119.4,44.1"/>
	<path fill="#2E2D74" d="M119.4,57.5c0,0.8-0.6,1.4-1.4,1.4c-0.8,0-1.4-0.6-1.4-1.4c0-0.8,0.6-1.4,1.4-1.4
		C118.8,56.1,119.4,56.7,119.4,57.5"/>
	<path fill="#2E2D74" d="M119.4,64.2c0,0.8-0.6,1.4-1.4,1.4c-0.8,0-1.4-0.6-1.4-1.4c0-0.8,0.6-1.4,1.4-1.4
		C118.8,62.8,119.4,63.4,119.4,64.2"/>
	<path fill="#2E2D74" d="M119.4,20.6c0,0.8-0.6,1.4-1.4,1.4c-0.8,0-1.4-0.6-1.4-1.4c0-0.8,0.6-1.4,1.4-1.4
		C118.8,19.1,119.4,19.8,119.4,20.6"/>
	<path fill="#2E2D74" d="M122.8,27.3c0,0.8-0.6,1.4-1.4,1.4c-0.8,0-1.4-0.6-1.4-1.4c0-0.8,0.6-1.4,1.4-1.4
		C122.1,25.9,122.8,26.5,122.8,27.3"/>
	<path fill="#2E2D74" d="M122.8,40.7c0,0.8-0.6,1.4-1.4,1.4c-0.8,0-1.4-0.6-1.4-1.4c0-0.8,0.6-1.4,1.4-1.4
		C122.1,39.3,122.8,39.9,122.8,40.7"/>
	<path fill="#2E2D74" d="M122.8,47.4c0,0.8-0.6,1.4-1.4,1.4c-0.8,0-1.4-0.6-1.4-1.4c0-0.8,0.6-1.4,1.4-1.4
		C122.1,46,122.8,46.6,122.8,47.4"/>
	<path fill="#2E2D74" d="M122.8,60.9c0,0.8-0.6,1.4-1.4,1.4c-0.8,0-1.4-0.6-1.4-1.4c0-0.8,0.6-1.4,1.4-1.4
		C122.1,59.4,122.8,60.1,122.8,60.9"/>
	<path fill="#2E2D74" d="M126.1,23.9c0,0.8-0.6,1.4-1.4,1.4c-0.8,0-1.4-0.6-1.4-1.4c0-0.8,0.6-1.4,1.4-1.4
		C125.5,22.5,126.1,23.1,126.1,23.9"/>
	<path fill="#2E2D74" d="M126.1,20.6c0,0.8-0.6,1.4-1.4,1.4c-0.8,0-1.4-0.6-1.4-1.4c0-0.8,0.6-1.4,1.4-1.4
		C125.5,19.1,126.1,19.8,126.1,20.6"/>
	<path fill="#2E2D74" d="M126.1,40.7c0,0.8-0.6,1.4-1.4,1.4c-0.8,0-1.4-0.6-1.4-1.4c0-0.8,0.6-1.4,1.4-1.4
		C125.5,39.3,126.1,39.9,126.1,40.7"/>
	<path fill="#2E2D74" d="M126.1,44.1c0,0.8-0.6,1.4-1.4,1.4c-0.8,0-1.4-0.6-1.4-1.4c0-0.8,0.6-1.4,1.4-1.4
		C125.5,42.6,126.1,43.3,126.1,44.1"/>
	<path fill="#2E2D74" d="M126.1,64.2c0,0.8-0.6,1.4-1.4,1.4c-0.8,0-1.4-0.6-1.4-1.4c0-0.8,0.6-1.4,1.4-1.4
		C125.5,62.8,126.1,63.4,126.1,64.2"/>
	<path fill="#2E2D74" d="M126.1,67.6c0,0.8-0.6,1.4-1.4,1.4c-0.8,0-1.4-0.6-1.4-1.4c0-0.8,0.6-1.4,1.4-1.4
		C125.5,66.1,126.1,66.8,126.1,67.6"/>
	<path fill="#2E2D74" d="M129.5,23.9c0,0.8-0.6,1.4-1.4,1.4c-0.8,0-1.4-0.6-1.4-1.4c0-0.8,0.6-1.4,1.4-1.4
		C128.8,22.5,129.5,23.1,129.5,23.9"/>
	<path fill="#2E2D74" d="M129.5,60.9c0,0.8-0.6,1.4-1.4,1.4c-0.8,0-1.4-0.6-1.4-1.4c0-0.8,0.6-1.4,1.4-1.4
		C128.8,59.4,129.5,60.1,129.5,60.9"/>
	<path fill="#2E2D74" d="M132.8,27.3c0,0.8-0.6,1.4-1.4,1.4c-0.8,0-1.4-0.6-1.4-1.4c0-0.8,0.6-1.4,1.4-1.4
		C132.2,25.9,132.8,26.5,132.8,27.3"/>
	<path fill="#2E2D74" d="M132.8,30.6c0,0.8-0.6,1.4-1.4,1.4c-0.8,0-1.4-0.6-1.4-1.4s0.6-1.4,1.4-1.4
		C132.2,29.2,132.8,29.9,132.8,30.6"/>
	<path fill="#2E2D74" d="M132.8,44.1c0,0.8-0.6,1.4-1.4,1.4c-0.8,0-1.4-0.6-1.4-1.4c0-0.8,0.6-1.4,1.4-1.4
		C132.2,42.6,132.8,43.3,132.8,44.1"/>
	<path fill="#2E2D74" d="M132.8,50.8c0,0.8-0.6,1.4-1.4,1.4c-0.8,0-1.4-0.6-1.4-1.4c0-0.8,0.6-1.4,1.4-1.4
		C132.2,49.4,132.8,50,132.8,50.8"/>
	<path fill="#2E2D74" d="M132.8,57.5c0,0.8-0.6,1.4-1.4,1.4c-0.8,0-1.4-0.6-1.4-1.4c0-0.8,0.6-1.4,1.4-1.4
		C132.2,56.1,132.8,56.7,132.8,57.5"/>
	<path fill="#2E2D74" d="M132.8,60.9c0,0.8-0.6,1.4-1.4,1.4c-0.8,0-1.4-0.6-1.4-1.4c0-0.8,0.6-1.4,1.4-1.4
		C132.2,59.4,132.8,60.1,132.8,60.9"/>
	<path fill="#2E2D74" d="M132.8,67.6c0,0.8-0.6,1.4-1.4,1.4c-0.8,0-1.4-0.6-1.4-1.4c0-0.8,0.6-1.4,1.4-1.4
		C132.2,66.1,132.8,66.8,132.8,67.6"/>
	<path fill="#2E2D74" d="M136.2,23.9c0,0.8-0.6,1.4-1.4,1.4c-0.8,0-1.4-0.6-1.4-1.4c0-0.8,0.6-1.4,1.4-1.4
		C135.5,22.5,136.2,23.1,136.2,23.9"/>
	<path fill="#2E2D74" d="M136.2,34c0,0.8-0.6,1.4-1.4,1.4c-0.8,0-1.4-0.6-1.4-1.4c0-0.8,0.6-1.4,1.4-1.4
		C135.5,32.6,136.2,33.2,136.2,34"/>
	<path fill="#2E2D74" d="M136.2,44.1c0,0.8-0.6,1.4-1.4,1.4c-0.8,0-1.4-0.6-1.4-1.4c0-0.8,0.6-1.4,1.4-1.4
		C135.5,42.6,136.2,43.3,136.2,44.1"/>
	<path fill="#2E2D74" d="M136.2,47.4c0,0.8-0.6,1.4-1.4,1.4c-0.8,0-1.4-0.6-1.4-1.4c0-0.8,0.6-1.4,1.4-1.4
		C135.5,46,136.2,46.6,136.2,47.4"/>
	<path fill="#2E2D74" d="M136.2,57.5c0,0.8-0.6,1.4-1.4,1.4c-0.8,0-1.4-0.6-1.4-1.4c0-0.8,0.6-1.4,1.4-1.4
		C135.5,56.1,136.2,56.7,136.2,57.5"/>
	<path fill="#2E2D74" d="M136.2,64.2c0,0.8-0.6,1.4-1.4,1.4c-0.8,0-1.4-0.6-1.4-1.4c0-0.8,0.6-1.4,1.4-1.4
		C135.5,62.8,136.2,63.4,136.2,64.2"/>
	<path fill="#2E2D74" d="M139.5,17.2c0,0.8-0.6,1.4-1.4,1.4c-0.8,0-1.4-0.6-1.4-1.4c0-0.8,0.6-1.4,1.4-1.4
		C138.9,15.8,139.5,16.4,139.5,17.2"/>
	<path fill="#2E2D74" d="M139.5,27.3c0,0.8-0.6,1.4-1.4,1.4c-0.8,0-1.4-0.6-1.4-1.4c0-0.8,0.6-1.4,1.4-1.4
		C138.9,25.9,139.5,26.5,139.5,27.3"/>
	<path fill="#2E2D74" d="M142.9,34c0,0.8-0.6,1.4-1.4,1.4c-0.8,0-1.4-0.6-1.4-1.4c0-0.8,0.6-1.4,1.4-1.4
		C142.3,32.6,142.9,33.2,142.9,34"/>
	<path fill="#2E2D74" d="M139.5,40.7c0,0.8-0.6,1.4-1.4,1.4c-0.8,0-1.4-0.6-1.4-1.4c0-0.8,0.6-1.4,1.4-1.4
		C138.9,39.3,139.5,39.9,139.5,40.7"/>
	<path fill="#2E2D74" d="M139.5,54.1c0,0.8-0.6,1.4-1.4,1.4c-0.8,0-1.4-0.6-1.4-1.4c0-0.8,0.6-1.4,1.4-1.4
		C138.9,52.7,139.5,53.4,139.5,54.1"/>
	<path fill="#2E2D74" d="M139.5,60.9c0,0.8-0.6,1.4-1.4,1.4c-0.8,0-1.4-0.6-1.4-1.4c0-0.8,0.6-1.4,1.4-1.4
		C138.9,59.4,139.5,60.1,139.5,60.9"/>
	<path fill="#2E2D74" d="M142.9,50.8c0,0.8-0.6,1.4-1.4,1.4c-0.8,0-1.4-0.6-1.4-1.4c0-0.8,0.6-1.4,1.4-1.4
		C142.3,49.4,142.9,50,142.9,50.8"/>
	<path fill="#2E2D74" d="M142.9,54.1c0,0.8-0.6,1.4-1.4,1.4c-0.8,0-1.4-0.6-1.4-1.4c0-0.8,0.6-1.4,1.4-1.4
		C142.3,52.7,142.9,53.4,142.9,54.1"/>
	<path fill="#2E2D74" d="M142.9,60.9c0,0.8-0.6,1.4-1.4,1.4c-0.8,0-1.4-0.6-1.4-1.4c0-0.8,0.6-1.4,1.4-1.4
		C142.3,59.4,142.9,60.1,142.9,60.9"/>
	<path fill="#2E2D74" d="M142.9,67.6c0,0.8-0.6,1.4-1.4,1.4c-0.8,0-1.4-0.6-1.4-1.4c0-0.8,0.6-1.4,1.4-1.4
		C142.3,66.1,142.9,66.8,142.9,67.6"/>
	<path fill="#2E2D74" d="M149.6,54.1c0,0.8-0.6,1.4-1.4,1.4c-0.8,0-1.4-0.6-1.4-1.4c0-0.8,0.6-1.4,1.4-1.4
		C149,52.7,149.6,53.4,149.6,54.1"/>
	<path fill="#2E2D74" d="M149.6,47.4c0,0.8-0.6,1.4-1.4,1.4c-0.8,0-1.4-0.6-1.4-1.4c0-0.8,0.6-1.4,1.4-1.4
		C149,46,149.6,46.6,149.6,47.4"/>
	<path fill="#2E2D74" d="M149.6,67.6c0,0.8-0.6,1.4-1.4,1.4c-0.8,0-1.4-0.6-1.4-1.4c0-0.8,0.6-1.4,1.4-1.4
		C149,66.1,149.6,66.8,149.6,67.6"/>
	<path fill="#2E2D74" d="M153,57.5c0,0.8-0.6,1.4-1.4,1.4c-0.8,0-1.4-0.6-1.4-1.4c0-0.8,0.6-1.4,1.4-1.4
		C152.3,56.1,153,56.7,153,57.5"/>
	<path fill="#2E2D74" d="M153,64.2c0,0.8-0.6,1.4-1.4,1.4c-0.8,0-1.4-0.6-1.4-1.4c0-0.8,0.6-1.4,1.4-1.4
		C152.3,62.8,153,63.4,153,64.2"/>
	<path fill="#2E2D74" d="M163,67.6c0,0.8-0.6,1.4-1.4,1.4c-0.8,0-1.4-0.6-1.4-1.4c0-0.8,0.6-1.4,1.4-1.4
		C162.4,66.1,163,66.8,163,67.6"/>
	<path fill="#2E2D74" d="M156.3,30.6c0,0.8-0.6,1.4-1.4,1.4c-0.8,0-1.4-0.6-1.4-1.4s0.6-1.4,1.4-1.4
		C155.7,29.2,156.3,29.9,156.3,30.6"/>
	<path fill="#2E2D74" d="M156.3,44.1c0,0.8-0.6,1.4-1.4,1.4c-0.8,0-1.4-0.6-1.4-1.4c0-0.8,0.6-1.4,1.4-1.4
		C155.7,42.6,156.3,43.3,156.3,44.1"/>
	<path fill="#2E2D74" d="M156.3,50.8c0,0.8-0.6,1.4-1.4,1.4c-0.8,0-1.4-0.6-1.4-1.4c0-0.8,0.6-1.4,1.4-1.4
		C155.7,49.4,156.3,50,156.3,50.8"/>
	<path fill="#2E2D74" d="M156.3,54.1c0,0.8-0.6,1.4-1.4,1.4c-0.8,0-1.4-0.6-1.4-1.4c0-0.8,0.6-1.4,1.4-1.4
		C155.7,52.7,156.3,53.4,156.3,54.1"/>
	<path fill="#2E2D74" d="M156.3,60.9c0,0.8-0.6,1.4-1.4,1.4c-0.8,0-1.4-0.6-1.4-1.4c0-0.8,0.6-1.4,1.4-1.4
		C155.7,59.4,156.3,60.1,156.3,60.9"/>
	<path fill="#2E2D74" d="M156.3,64.2c0,0.8-0.6,1.4-1.4,1.4c-0.8,0-1.4-0.6-1.4-1.4c0-0.8,0.6-1.4,1.4-1.4
		C155.7,62.8,156.3,63.4,156.3,64.2"/>
	<path fill="#2E2D74" d="M159.7,37.4c0,0.8-0.6,1.4-1.4,1.4c-0.8,0-1.4-0.6-1.4-1.4c0-0.8,0.6-1.4,1.4-1.4
		C159,35.9,159.7,36.6,159.7,37.4"/>
	<path fill="#2E2D74" d="M159.7,47.4c0,0.8-0.6,1.4-1.4,1.4c-0.8,0-1.4-0.6-1.4-1.4c0-0.8,0.6-1.4,1.4-1.4
		C159,46,159.7,46.6,159.7,47.4"/>
	<path fill="#2E2D74" d="M159.7,50.8c0,0.8-0.6,1.4-1.4,1.4c-0.8,0-1.4-0.6-1.4-1.4c0-0.8,0.6-1.4,1.4-1.4
		C159,49.4,159.7,50,159.7,50.8"/>
	<path fill="#2E2D74" d="M159.7,57.5c0,0.8-0.6,1.4-1.4,1.4c-0.8,0-1.4-0.6-1.4-1.4c0-0.8,0.6-1.4,1.4-1.4
		C159,56.1,159.7,56.7,159.7,57.5"/>
	<path fill="#2E2D74" d="M163,30.6c0,0.8-0.6,1.4-1.4,1.4c-0.8,0-1.4-0.6-1.4-1.4s0.6-1.4,1.4-1.4C162.4,29.2,163,29.9,163,30.6"/>
	<path fill="#2E2D74" d="M163,37.4c0,0.8-0.6,1.4-1.4,1.4c-0.8,0-1.4-0.6-1.4-1.4c0-0.8,0.6-1.4,1.4-1.4
		C162.4,35.9,163,36.6,163,37.4"/>
	<path fill="#2E2D74" d="M163,40.7c0,0.8-0.6,1.4-1.4,1.4c-0.8,0-1.4-0.6-1.4-1.4c0-0.8,0.6-1.4,1.4-1.4
		C162.4,39.3,163,39.9,163,40.7"/>
	<path fill="#2E2D74" d="M163,44.1c0,0.8-0.6,1.4-1.4,1.4c-0.8,0-1.4-0.6-1.4-1.4c0-0.8,0.6-1.4,1.4-1.4
		C162.4,42.6,163,43.3,163,44.1"/>
	<path fill="#2E2D74" d="M163,54.1c0,0.8-0.6,1.4-1.4,1.4c-0.8,0-1.4-0.6-1.4-1.4c0-0.8,0.6-1.4,1.4-1.4
		C162.4,52.7,163,53.4,163,54.1"/>
	<path fill="#2E2D74" d="M166.4,23.9c0,0.8-0.6,1.4-1.4,1.4c-0.8,0-1.4-0.6-1.4-1.4c0-0.8,0.6-1.4,1.4-1.4
		C165.8,22.5,166.4,23.1,166.4,23.9"/>
	<path fill="#2E2D74" d="M166.4,27.3c0,0.8-0.6,1.4-1.4,1.4c-0.8,0-1.4-0.6-1.4-1.4c0-0.8,0.6-1.4,1.4-1.4
		C165.8,25.9,166.4,26.5,166.4,27.3"/>
	<path fill="#2E2D74" d="M166.4,34c0,0.8-0.6,1.4-1.4,1.4c-0.8,0-1.4-0.6-1.4-1.4c0-0.8,0.6-1.4,1.4-1.4
		C165.8,32.6,166.4,33.2,166.4,34"/>
	<path fill="#2E2D74" d="M169.7,20.6c0,0.8-0.6,1.4-1.4,1.4c-0.8,0-1.4-0.6-1.4-1.4c0-0.8,0.6-1.4,1.4-1.4
		C169.1,19.1,169.7,19.8,169.7,20.6"/>
	<path fill="#2E2D74" d="M159.7,17.2c0,0.8-0.6,1.4-1.4,1.4c-0.8,0-1.4-0.6-1.4-1.4c0-0.8,0.6-1.4,1.4-1.4
		C159,15.8,159.7,16.4,159.7,17.2"/>
	<path fill="#2E2D74" d="M169.7,23.9c0,0.8-0.6,1.4-1.4,1.4c-0.8,0-1.4-0.6-1.4-1.4c0-0.8,0.6-1.4,1.4-1.4
		C169.1,22.5,169.7,23.1,169.7,23.9"/>
	<path fill="#2E2D74" d="M169.7,30.6c0,0.8-0.6,1.4-1.4,1.4c-0.8,0-1.4-0.6-1.4-1.4s0.6-1.4,1.4-1.4
		C169.1,29.2,169.7,29.9,169.7,30.6"/>
	<path fill="#2E2D74" d="M169.7,50.8c0,0.8-0.6,1.4-1.4,1.4c-0.8,0-1.4-0.6-1.4-1.4c0-0.8,0.6-1.4,1.4-1.4
		C169.1,49.4,169.7,50,169.7,50.8"/>
	<path fill="#2E2D74" d="M169.7,54.1c0,0.8-0.6,1.4-1.4,1.4c-0.8,0-1.4-0.6-1.4-1.4c0-0.8,0.6-1.4,1.4-1.4
		C169.1,52.7,169.7,53.4,169.7,54.1"/>
	<path fill="#2E2D74" d="M169.7,57.5c0,0.8-0.6,1.4-1.4,1.4c-0.8,0-1.4-0.6-1.4-1.4c0-0.8,0.6-1.4,1.4-1.4
		C169.1,56.1,169.7,56.7,169.7,57.5"/>
	<path fill="#2E2D74" d="M173.1,27.3c0,0.8-0.6,1.4-1.4,1.4c-0.8,0-1.4-0.6-1.4-1.4c0-0.8,0.6-1.4,1.4-1.4
		C172.5,25.9,173.1,26.5,173.1,27.3"/>
	<path fill="#2E2D74" d="M173.1,34c0,0.8-0.6,1.4-1.4,1.4c-0.8,0-1.4-0.6-1.4-1.4c0-0.8,0.6-1.4,1.4-1.4
		C172.5,32.6,173.1,33.2,173.1,34"/>
	<path fill="#2E2D74" d="M173.1,37.4c0,0.8-0.6,1.4-1.4,1.4c-0.8,0-1.4-0.6-1.4-1.4c0-0.8,0.6-1.4,1.4-1.4
		C172.5,35.9,173.1,36.6,173.1,37.4"/>
	<path fill="#2E2D74" d="M173.1,54.1c0,0.8-0.6,1.4-1.4,1.4c-0.8,0-1.4-0.6-1.4-1.4c0-0.8,0.6-1.4,1.4-1.4
		C172.5,52.7,173.1,53.4,173.1,54.1"/>
	<path fill="#2E2D74" d="M176.5,30.6c0,0.8-0.6,1.4-1.4,1.4c-0.8,0-1.4-0.6-1.4-1.4s0.6-1.4,1.4-1.4
		C175.8,29.2,176.5,29.9,176.5,30.6"/>
	<path fill="#2E2D74" d="M176.5,34c0,0.8-0.6,1.4-1.4,1.4c-0.8,0-1.4-0.6-1.4-1.4c0-0.8,0.6-1.4,1.4-1.4
		C175.8,32.6,176.5,33.2,176.5,34"/>
	<path fill="#2E2D74" d="M176.5,40.7c0,0.8-0.6,1.4-1.4,1.4c-0.8,0-1.4-0.6-1.4-1.4c0-0.8,0.6-1.4,1.4-1.4
		C175.8,39.3,176.5,39.9,176.5,40.7"/>
	<path fill="#2E2D74" d="M176.5,50.8c0,0.8-0.6,1.4-1.4,1.4c-0.8,0-1.4-0.6-1.4-1.4c0-0.8,0.6-1.4,1.4-1.4
		C175.8,49.4,176.5,50,176.5,50.8"/>
	<path fill="#2E2D74" d="M176.5,57.5c0,0.8-0.6,1.4-1.4,1.4c-0.8,0-1.4-0.6-1.4-1.4c0-0.8,0.6-1.4,1.4-1.4
		C175.8,56.1,176.5,56.7,176.5,57.5"/>
	<path fill="#2E2D74" d="M179.8,67.6c0,0.8-0.6,1.4-1.4,1.4c-0.8,0-1.4-0.6-1.4-1.4c0-0.8,0.6-1.4,1.4-1.4
		C179.2,66.1,179.8,66.8,179.8,67.6"/>
	<path fill="#2E2D74" d="M179.8,27.3c0,0.8-0.6,1.4-1.4,1.4c-0.8,0-1.4-0.6-1.4-1.4c0-0.8,0.6-1.4,1.4-1.4
		C179.2,25.9,179.8,26.5,179.8,27.3"/>
	<path fill="#2E2D74" d="M179.8,37.4c0,0.8-0.6,1.4-1.4,1.4c-0.8,0-1.4-0.6-1.4-1.4c0-0.8,0.6-1.4,1.4-1.4
		C179.2,35.9,179.8,36.6,179.8,37.4"/>
	<path fill="#2E2D74" d="M179.8,44.1c0,0.8-0.6,1.4-1.4,1.4c-0.8,0-1.4-0.6-1.4-1.4c0-0.8,0.6-1.4,1.4-1.4
		C179.2,42.6,179.8,43.3,179.8,44.1"/>
	<path fill="#2E2D74" d="M179.8,47.4c0,0.8-0.6,1.4-1.4,1.4c-0.8,0-1.4-0.6-1.4-1.4c0-0.8,0.6-1.4,1.4-1.4
		C179.2,46,179.8,46.6,179.8,47.4"/>
	<path fill="#2E2D74" d="M179.8,54.1c0,0.8-0.6,1.4-1.4,1.4c-0.8,0-1.4-0.6-1.4-1.4c0-0.8,0.6-1.4,1.4-1.4
		C179.2,52.7,179.8,53.4,179.8,54.1"/>
	<path fill="#2E2D74" d="M183.2,44.1c0,0.8-0.6,1.4-1.4,1.4c-0.8,0-1.4-0.6-1.4-1.4c0-0.8,0.6-1.4,1.4-1.4
		C182.5,42.6,183.2,43.3,183.2,44.1"/>
	<path fill="#2E2D74" d="M183.2,50.8c0,0.8-0.6,1.4-1.4,1.4c-0.8,0-1.4-0.6-1.4-1.4c0-0.8,0.6-1.4,1.4-1.4
		C182.5,49.4,183.2,50,183.2,50.8"/>
	<path fill="#2E2D74" d="M183.2,54.1c0,0.8-0.6,1.4-1.4,1.4c-0.8,0-1.4-0.6-1.4-1.4c0-0.8,0.6-1.4,1.4-1.4
		C182.5,52.7,183.2,53.4,183.2,54.1"/>
	<path fill="#2E2D74" d="M183.2,57.5c0,0.8-0.6,1.4-1.4,1.4c-0.8,0-1.4-0.6-1.4-1.4c0-0.8,0.6-1.4,1.4-1.4
		C182.5,56.1,183.2,56.7,183.2,57.5"/>
	<path fill="#2E2D74" d="M186.5,50.8c0,0.8-0.6,1.4-1.4,1.4c-0.8,0-1.4-0.6-1.4-1.4c0-0.8,0.6-1.4,1.4-1.4
		C185.9,49.4,186.5,50,186.5,50.8"/>
	<path fill="#2E2D74" d="M186.5,60.9c0,0.8-0.6,1.4-1.4,1.4c-0.8,0-1.4-0.6-1.4-1.4c0-0.8,0.6-1.4,1.4-1.4
		C185.9,59.4,186.5,60.1,186.5,60.9"/>
	<path fill="#2E2D74" d="M186.5,64.2c0,0.8-0.6,1.4-1.4,1.4c-0.8,0-1.4-0.6-1.4-1.4c0-0.8,0.6-1.4,1.4-1.4
		C185.9,62.8,186.5,63.4,186.5,64.2"/>
	<path fill="#2E2D74" d="M186.5,67.6c0,0.8-0.6,1.4-1.4,1.4c-0.8,0-1.4-0.6-1.4-1.4c0-0.8,0.6-1.4,1.4-1.4
		C185.9,66.1,186.5,66.8,186.5,67.6"/>
	<path fill="#2E2D74" d="M189.9,40.7c0,0.8-0.6,1.4-1.4,1.4c-0.8,0-1.4-0.6-1.4-1.4c0-0.8,0.6-1.4,1.4-1.4
		C189.3,39.3,189.9,39.9,189.9,40.7"/>
	<path fill="#2E2D74" d="M189.9,57.5c0,0.8-0.6,1.4-1.4,1.4c-0.8,0-1.4-0.6-1.4-1.4c0-0.8,0.6-1.4,1.4-1.4
		C189.3,56.1,189.9,56.7,189.9,57.5"/>
	<path fill="#2E2D74" d="M189.9,67.6c0,0.8-0.6,1.4-1.4,1.4c-0.8,0-1.4-0.6-1.4-1.4c0-0.8,0.6-1.4,1.4-1.4
		C189.3,66.1,189.9,66.8,189.9,67.6"/>
	<path fill="#2E2D74" d="M193.2,64.2c0,0.8-0.6,1.4-1.4,1.4c-0.8,0-1.4-0.6-1.4-1.4c0-0.8,0.6-1.4,1.4-1.4
		C192.6,62.8,193.2,63.4,193.2,64.2"/>
	<path fill="#2E2D74" d="M62.3,17.2c0,0.8-0.6,1.4-1.4,1.4c-0.8,0-1.4-0.6-1.4-1.4c0-0.8,0.6-1.4,1.4-1.4
		C61.7,15.8,62.3,16.4,62.3,17.2"/>
	<path fill="#2E2D74" d="M62.3,34c0,0.8-0.6,1.4-1.4,1.4c-0.8,0-1.4-0.6-1.4-1.4c0-0.8,0.6-1.4,1.4-1.4C61.7,32.6,62.3,33.2,62.3,34
		"/>
	<path fill="#2E2D74" d="M65.7,40.7c0,0.8-0.6,1.4-1.4,1.4c-0.8,0-1.4-0.6-1.4-1.4c0-0.8,0.6-1.4,1.4-1.4
		C65,39.3,65.7,39.9,65.7,40.7"/>
	<path fill="#2E2D74" d="M65.7,44.1c0,0.8-0.6,1.4-1.4,1.4c-0.8,0-1.4-0.6-1.4-1.4c0-0.8,0.6-1.4,1.4-1.4
		C65,42.6,65.7,43.3,65.7,44.1"/>
	<path fill="#2E2D74" d="M65.7,47.4c0,0.8-0.6,1.4-1.4,1.4c-0.8,0-1.4-0.6-1.4-1.4c0-0.8,0.6-1.4,1.4-1.4C65,46,65.7,46.6,65.7,47.4
		"/>
	<path fill="#2E2D74" d="M65.7,60.9c0,0.8-0.6,1.4-1.4,1.4c-0.8,0-1.4-0.6-1.4-1.4c0-0.8,0.6-1.4,1.4-1.4
		C65,59.4,65.7,60.1,65.7,60.9"/>
</g>
</svg>
