<?xml version="1.0" encoding="utf-8"?>
<!-- Generator: Adobe Illustrator 17.1.0, SVG Export Plug-In . SVG Version: 6.00 Build 0)  -->
<!DOCTYPE svg PUBLIC "-//W3C//DTD SVG 1.1//EN" "http://www.w3.org/Graphics/SVG/1.1/DTD/svg11.dtd">
<svg version="1.1" id="Layer_1" xmlns="http://www.w3.org/2000/svg" xmlns:xlink="http://www.w3.org/1999/xlink" x="0px" y="0px"
	 viewBox="0 0 246 88" enable-background="new 0 0 246 88" xml:space="preserve">
<g>
	<polygon fill="#595959" points="52,69 52.7,69 52.7,66.3 56,66.3 56,65.7 52.7,65.7 52.7,63.5 56.4,63.5 56.4,62.8 52,62.8 	"/>
	<rect x="58.1" y="62.8" fill="#595959" width="0.7" height="6.2"/>
	<polygon fill="#595959" points="66.1,63.5 68.1,63.5 68.1,69 68.8,69 68.8,63.5 70.8,63.5 70.8,62.8 66.1,62.8 	"/>
	<polygon fill="#595959" points="139.8,63.5 141.8,63.5 141.8,69 142.5,69 142.5,63.5 144.5,63.5 144.5,62.8 139.8,62.8 	"/>
	<polygon fill="#595959" points="85.5,65.6 82,65.6 82,62.8 81.3,62.8 81.3,69 82,69 82,66.2 85.5,66.2 85.5,69 86.2,69 86.2,62.8 
		85.5,62.8 	"/>
	<polygon fill="#595959" points="106.5,62.8 105.8,62.8 105.8,69 109.9,69 109.9,68.3 106.5,68.3 	"/>
	<polygon fill="#595959" points="178.8,62.8 178.1,62.8 178.1,69 182.2,69 182.2,68.4 178.8,68.4 	"/>
	<polygon fill="#595959" points="111.9,66.2 115.2,66.2 115.2,65.6 111.9,65.6 111.9,63.5 115.6,63.5 115.6,62.8 111.2,62.8 
		111.2,69 115.6,69 115.6,68.3 111.9,68.3 	"/>
	<polygon fill="#595959" points="184.3,66.2 187.6,66.2 187.6,65.6 184.3,65.6 184.3,63.5 188,63.5 188,62.8 183.6,62.8 183.6,69 
		188.1,69 188.1,68.4 184.3,68.4 	"/>
	<rect x="175.2" y="62.8" fill="#595959" width="0.7" height="6.2"/>
	<path fill="#595959" d="M62.9,62.8L60.2,69h0.7l0.7-1.6h3.3l0.7,1.6h0.8l-2.8-6.2H62.9z M61.9,66.8l1.4-3.1l1.4,3.1H61.9z"/>
	<path fill="#595959" d="M129.3,62.8l-2.7,6.2h0.7l0.7-1.6h3.3L132,69h0.8l-2.8-6.2H129.3z M128.2,66.8l1.4-3.1l1.4,3.1H128.2z"/>
	<path fill="#595959" d="M77.4,68.5c-1.3,0-2.4-1.1-2.4-2.6c0-1.4,1.1-2.6,2.4-2.6c0,0,0.9-0.1,1.8,0.9l0.5-0.5
		c-0.6-0.6-1.4-1-2.3-1c-1.7,0-3.1,1.4-3.1,3.2c0,1.8,1.4,3.2,3.1,3.2c0.9,0,1.8-0.4,2.3-1.1l-0.5-0.5
		C78.4,68.5,77.4,68.5,77.4,68.5z"/>
	<path fill="#595959" d="M93.1,64.7c0,0,0.1-1.8-2-1.9h-2.8V69H89v-2.4h1.7l1.8,2.4h0.8l-1.9-2.5C91.5,66.5,93.1,66.2,93.1,64.7z
		 M89,66v-2.5h2c0,0,1.4,0,1.4,1.2c0,0,0.2,1.2-1.5,1.3H89z"/>
	<path fill="#595959" d="M122.2,64.7c0,0,0.1-1.8-2-1.9h-2.8V69h0.7v-2.4h1.7l1.8,2.4h0.8l-1.9-2.5
		C120.6,66.5,122.2,66.2,122.2,64.7z M118.1,66v-2.5h2c0,0,1.4,0,1.4,1.2c0,0,0.2,1.2-1.5,1.3H118.1z"/>
	<polygon fill="#595959" points="96.4,65.9 94.3,62.8 93.5,62.8 96,66.6 96,69 96.7,69 96.7,66.6 99.2,62.8 98.4,62.8 	"/>
	<path fill="#595959" d="M102.3,65.6c-1.5-0.4-1.7-0.6-1.7-1.4c0-0.8,1.5-1.4,3-0.2l0.4-0.6c0,0-0.8-0.7-2-0.7
		c-1.1,0-2.2,0.5-2.1,1.9c0.1,1.4,1.8,1.4,3,1.9c0,0,0.6,0.2,0.6,0.8c-0.1,0.6-0.4,1.1-1.5,1.1s-1.9-0.9-1.9-0.9l-0.4,0.5
		c0,0,0.8,1,2.5,1c1.6,0,2.1-1.1,2.1-1.8C104.1,66.6,103.8,66,102.3,65.6z"/>
	<path fill="#595959" d="M192.2,65.7c-1.5-0.4-1.7-0.6-1.7-1.4c0-0.8,1.5-1.4,3-0.2l0.4-0.6c0,0-0.8-0.7-2-0.7
		c-1.1,0-2.2,0.5-2.1,1.9c0.1,1.4,1.8,1.4,3,1.9c0,0,0.6,0.2,0.6,0.8s-0.4,1.1-1.5,1.1s-1.9-0.9-1.9-0.9l-0.4,0.5c0,0,0.8,1,2.5,1
		c1.6,0,2.1-1.1,2.1-1.8C194,66.6,193.6,66.1,192.2,65.7z"/>
	<path fill="#595959" d="M138.6,62.8h-0.7v3.8c-0.1,1.9-1.8,1.8-1.8,1.8c-2,0-1.9-1.9-1.9-1.9v-3.7h-0.7v3.7
		c0.1,2.7,2.5,2.6,2.5,2.6c2.7-0.1,2.5-2.6,2.5-2.6V62.8z"/>
	<path fill="#595959" d="M148,62.7c-1.7,0-3.1,1.4-3.1,3.2c0,1.8,1.4,3.2,3.1,3.2c1.7,0,3.1-1.4,3.1-3.2
		C151.1,64,149.7,62.7,148,62.7z M148.1,68.5c-1.3,0-2.4-1.1-2.4-2.6c0-1.4,1.1-2.6,2.4-2.6c1.3,0,2.4,1,2.4,2.6
		C150.4,67.3,149.4,68.5,148.1,68.5z"/>
	<path fill="#595959" d="M163.5,62.8c-1.7,0-3.1,1.4-3.1,3.2c0,1.8,1.4,3.2,3.1,3.2s3.1-1.4,3.1-3.2
		C166.6,64.1,165.2,62.8,163.5,62.8z M163.5,68.5c-1.3,0-2.4-1.1-2.4-2.6c0-1.4,1.1-2.6,2.4-2.6c1.3,0,2.4,1,2.4,2.6
		C165.9,67.4,164.9,68.5,163.5,68.5z"/>
	<polygon fill="#595959" points="155.7,66.2 153.5,62.8 152.8,62.8 152.8,69 153.5,69 153.5,64.1 155.7,67.3 158,64.1 158,69 
		158.6,69 158.6,62.8 158,62.8 	"/>
	<path fill="#595959" d="M172.1,65.8c0,0,1-0.4,0.9-1.5c-0.1-1.1-1.3-1.4-1.9-1.4h-2.7V69h2.9c0,0,2,0,2-1.7
		C173.4,67.3,173.4,66.1,172.1,65.8z M169.2,63.5h1.9c1.4,0,1.3,1,1.3,1c0,1.1-1.2,1.1-1.2,1.1h-2V63.5z M171.4,68.4h-2.2v-2.2h2.1
		c0,0,1.4,0,1.4,1.1C172.7,68.4,171.4,68.4,171.4,68.4z"/>
	<polygon fill="#595959" points="68.5,51.6 75.5,51.6 75.5,40.3 98.1,40.3 98.1,33.7 75.4,33.7 75.4,26 99.2,26 99.2,19.2 
		68.5,19.2 	"/>
	<polygon fill="#595959" points="145,51.6 157.8,29.6 170.3,51.6 178.1,51.6 157.7,16.5 137.4,51.6 	"/>
	<path fill="#595959" d="M131.8,38.7c-1.4,4.5-5.7,7.8-10.7,7.8c-6.2,0-11.2-5-11.2-11.2c0-6.2,5-11.2,11.2-11.2
		c5,0,9.2,3.3,10.7,7.7h6.7c-1.6-8.1-8.8-14.2-17.4-14.2c-9.8,0-17.8,7.9-17.8,17.7c0,9.8,8,17.7,17.8,17.7
		c8.7,0,15.9-6.2,17.5-14.3H131.8z"/>
</g>
</svg>
