<?xml version="1.0" encoding="utf-8"?>
<!-- Generator: Adobe Illustrator 17.1.0, SVG Export Plug-In . SVG Version: 6.00 Build 0)  -->
<!DOCTYPE svg PUBLIC "-//W3C//DTD SVG 1.1//EN" "http://www.w3.org/Graphics/SVG/1.1/DTD/svg11.dtd">
<svg version="1.1" id="Layer_1" xmlns="http://www.w3.org/2000/svg" xmlns:xlink="http://www.w3.org/1999/xlink" x="0px" y="0px"
	 viewBox="0 0 246 88" enable-background="new 0 0 246 88" xml:space="preserve">
<g>
	<g>
		<path fill="#C3002F" d="M181.7,52.5c-1.3-0.7-1.5-2.7-1.5-7.5l0-7.4l-2.5,0l0.6-1.4h2v-3.5l4.7-1.7l0,5.1l2.2,0l-0.6,1.5l-1.6,0
			l0,12.8c0.1,1,0.4,1.6,0.9,2.1H181.7z"/>
		<path fill="#C3002F" d="M63.1,39.9c0.5,1.3,1.6,2.7,0.8,4.2c-0.4,1.5-1.8,2.8-3.4,3c-1.6,0.1-3.1-0.1-4.3-1.1
			c-0.9-4.5,1-8.6,4.5-11.1L63.1,39.9z"/>
	</g>
	<g>
		<path fill="#C3002F" d="M69.3,53.5c-0.8,2.7-8.8,0.9-11.3-3.5c3.3,0.4,7-2.5,7.1-5.9L69.3,53.5z"/>
		<path fill="#C3002F" d="M72.6,53.2c0.4-0.2,1.1-0.5,1.3-1.3l-8.6-18.6c-0.6-0.1-1-0.1-1.7,0.4L72.6,53.2z"/>
		<path fill="#C3002F" d="M76.4,49.2c3.7-5.5,0.6-14.6-7.3-15.9L76.4,49.2z"/>
		<path fill="#C3002F" d="M144.7,36.8c0.9-0.7,2.4-0.7,3.4-0.3c0.4,0.2,0.8,0.5,1.1,0.8l-1.9,3c-0.2-0.2-0.4-0.3-0.7-0.4
			c-0.9-0.4-1.9-0.2-2.5,0.3v8.6c0,1.5,0.2,2.9,1,3.6h-4.3c-0.9-0.7-1.1-1.8-1.2-2.8l0-11.5c0-0.9-0.2-1.3-0.6-1.9l4.5,0
			c0.4,0.3,0.4,0.7,0.6,1.1L144.7,36.8z"/>
		<path fill="#C3002F" d="M150.2,39.7c0-1.1,0.2-2.4-0.5-3.3h4.2c0.3,0.2,0.4,0.6,0.5,0.9c0.2,0.3,0.2,0.7,0.3,1.1l0,12.2
			c0.2,0.7,0.4,1.5,1,2l-4.4,0c-1.5-1.4-1-3.7-1.1-6.1L150.2,39.7z"/>
		<path fill="#C3002F" d="M156.8,39.8c0.4-1.2,1.8-1.9,2.9-2.5c1.6-0.6,3.3-2,5-0.8c1.5,1,2.7,2,3.6,3.5c0.2,0.6,0.3,1.2,0.5,1.8
			c0,0.8,0.2,1.4,0.2,2.2c0.1,0.9,0.1,1.7,0,2.5c-0.1,1.5-0.7,2.8-1.9,3.8c-1.7,1.5-3.9,3.3-6.3,2.1c-2.1-1-4.6-2.9-4.4-5.6
			c-0.1-1.9-0.2-3.5,0.1-5.4C156.5,40.8,156.5,40.3,156.8,39.8 M161.1,48.4c0.2,0.8,0.6,1.7,1.5,1.8c0.5,0,0.9-0.4,1.2-0.8
			c1-1.9,0.8-4,0.8-6.1c-0.3-1.6,0.1-3.8-1.7-4.8c-0.6-0.2-1.1,0.2-1.5,0.6c-0.7,1-0.8,2.2-0.8,3.5
			C160.6,44.6,160.8,46.3,161.1,48.4"/>
		<path fill="#C3002F" d="M172,52.5c-1.3-0.7-1.5-2.7-1.5-7.5l0-7.4l-2.5,0l0.6-1.4h2v-3.5l4.7-1.7l0,5.1l2.2,0l-0.6,1.5l-1.6,0
			l0,12.8c0.1,1,0.4,1.6,0.9,2.1H172z"/>
		<path fill="#C3002F" d="M128.9,38.2c0-0.9-0.2-1.3-0.6-1.9l4.5,0c0.4,0.3,0.4,0.7,0.6,1.1l0.8-0.6c0.9-0.7,2.4-0.7,3.4-0.3
			c0.4,0.2,0.8,0.5,1.1,0.8l-1.9,3c-0.2-0.2-0.4-0.3-0.7-0.4c-0.9-0.4-1.9-0.2-2.5,0.3v8.6c0,1.5,0.2,2.9,1,3.6h-4.3
			c-0.9-0.7-1.2-1.7-1.2-2.8L128.9,38.2z"/>
		<path fill="#C3002F" d="M95,42.8l-1.6,3.3c-1.1,2-2.7,4.4-5.1,5c-0.9,0.3-1.7,0-2.6,0l-2.9,4.7c0.2,0.2,0.5,0.4,0.8,0.5
			c5.1,1.9,7.1-0.1,12.1-11.4l4.7,10.1h6.3l-3-6.8l1.7-3.5l4.6,10.1l6,0l-10.5-23.1l-4.8,2.4l3.8,8.6l-1.7,3.4l-7-15l-5.1,2.6
			L95,42.8z"/>
		<path fill="#C3002F" d="M114.3,46.8c0.1-1.7,1-3.2,2.6-4.1c1.5-1,3.3-1.3,4.9-2.2c0.3-0.2,0.6-0.5,0.6-0.9c0-0.4-0.2-0.8-0.6-1
			c-2.4-0.5-4.4,1-6.2,2.5c0.2-1.1,0.4-2.3,0.9-3.4c0.3-0.3,0.4-0.7,0.8-0.9c1.7-0.8,3.9-1.1,5.8-1c1.6,0.1,3,1.2,3.6,2.7
			c0.3,0.7,0.3,1.4,0.3,2.1l0,9.4c0,0.8,0.4,1.6,0.9,2.2h-4.5c-0.5-0.5-0.8-1.1-1-1.8c-1.3,1.1-3.9,2.7-5.4,1.7
			C115.5,51.6,114,49.1,114.3,46.8 M122.3,43.6c0-0.6-0.5-0.7-0.8-0.7c-1.1,0.2-2,1.1-2.5,2c-0.5,0.8-0.6,1.5-0.6,2.2
			c0,0.8-0.1,1.3,0.3,1.9c0.2,0.4,0.6,0.6,0.9,0.7c0.7,0.1,1.3-0.1,1.9-0.4c1.3-0.7,1-2.1,1.1-3.4L122.3,43.6z"/>
		<path fill="#C3002F" d="M188.5,52.2c-0.7,0-1.3-0.6-1.3-1.3c0-0.7,0.6-1.3,1.3-1.3c0.7,0,1.3,0.6,1.3,1.3
			C189.8,51.7,189.2,52.2,188.5,52.2 M188.5,52.5c0.9,0,1.6-0.7,1.6-1.6c0-0.9-0.7-1.6-1.6-1.6c-0.9,0-1.6,0.7-1.6,1.6
			C186.9,51.8,187.6,52.5,188.5,52.5 M188.4,51.1c0.1,0,0.2,0,0.3,0.1c0.1,0.1,0.1,0.2,0.1,0.4c0,0.1,0,0.2,0.1,0.3h0.4
			c-0.1-0.2-0.1-0.4-0.1-0.5c0-0.2-0.1-0.3-0.3-0.4v0c0.2,0,0.4-0.2,0.4-0.4c0-0.4-0.3-0.5-0.7-0.5h-0.6v1.8h0.3v-0.8H188.4z
			 M188.2,50.8v-0.5h0.3c0.2,0,0.3,0.1,0.3,0.2c0,0.1-0.1,0.3-0.3,0.3H188.2z"/>
	</g>
</g>
</svg>
