<?xml version="1.0" encoding="utf-8"?>
<!-- Generator: Adobe Illustrator 19.2.1, SVG Export Plug-In . SVG Version: 6.00 Build 0)  -->
<!DOCTYPE svg PUBLIC "-//W3C//DTD SVG 1.1//EN" "http://www.w3.org/Graphics/SVG/1.1/DTD/svg11.dtd">
<svg version="1.1" id="Layer_1" xmlns="http://www.w3.org/2000/svg" xmlns:xlink="http://www.w3.org/1999/xlink" x="0px" y="0px"
	 viewBox="0 0 246 88" style="enable-background:new 0 0 246 88;" xml:space="preserve">
<style type="text/css">
	.st0{fill:#FFFFFF;}
	.st1{fill:#041E41;}
	.st2{display:none;fill:none;}
	.st3{fill:#CF0A2C;}
</style>
<g>
	<path class="st0" d="M157.8,30.2h-5.4c-0.4,0-0.9-0.3-1.1-0.7h0c-0.4-0.8-1-1.9-1.1-2.1h-5.7c0,0.1-0.3,0.6-0.5,1.1
		c-0.4,1,1.3,1.7,1.3,1.7h-4.9c-0.8,0-1.5-0.7-1.3-1.4h0l4.8-10.2c0.5-1.1-1-2.5-1-2.5h5.7c0.6,0,1.4,0.5,1.6,1h0l5.1,10.7
		C155.9,29.1,157.8,30.2,157.8,30.2 M145.8,24.5h3.2c-0.2-0.4-1.3-3-1.6-3.7C147.1,21.4,146,24.1,145.8,24.5"/>
	<path class="st1" d="M149,24.5h-3.2c0.2-0.4,1.3-3,1.6-3.7C147.7,21.4,148.8,24.1,149,24.5"/>
	<path class="st0" d="M145.2,51.3c-1.4,0.6-2.7,1.4-3.8,2.4c-1.3,1.2-2.1,2.7-2.4,4.2c-1.8,0.3-3.6,0.1-5-0.7
		c-1-0.6-1.6-1.5-1.9-2.5c0-0.1-0.1-0.3-0.1-0.4c0-0.1,0-0.3,0-0.4c1.8-0.5,3.4-1.5,4.7-2.7c0.9-0.9,1.6-1.9,2.1-3
		c0.1-0.2,0.1-0.3,0.2-0.5c1.6-0.2,3.1,0.1,4.3,0.9C144.4,49.1,145.1,50.1,145.2,51.3"/>
	<path class="st0" d="M145.2,52.3c-0.1,1.2-0.8,2.3-1.8,3.3c-1,1-2.2,1.6-3.5,2c0.3-1.2,1.1-2.2,2.1-3.3
		C142.9,53.5,144,52.8,145.2,52.3"/>
	<path class="st0" d="M138,47.8c-0.4,0.9-1,1.8-1.8,2.6c-1.1,1.1-2.4,1.9-4,2.4c0.2-1,0.8-2,1.7-2.8c0.1-0.1,0.3-0.3,0.4-0.4
		C135.4,48.7,136.7,48.1,138,47.8"/>
	<path class="st0" d="M126.3,55c0.1-0.1,1-1.1,2.8-1.1c1.9,0,2.1,0.3,2.1,0.3v0c0,0.2,0,0.3,0.1,0.5c0.3,1.3,1.1,2.3,2.3,3.1
		c0,0,0,0,0.1,0c-1-0.3-2.6-0.8-3.8-0.7c-1.8,0.1-3.1,1.4-5.4,1.7c-2.3,0.3-2.9-1.4-3-1.5c0.1,0,1.5,0.5,2.3-0.2
		c1.1-0.9,0.3-2.2-1-2.1c-1.3,0.2-2.1,0.9-4.3,1.2c-2.2,0.3-3.8-0.9-3.8-0.9s1.3,0.1,1.7-0.4c0.4-0.6,0.2-1.3-0.5-1.5
		c-0.7-0.2-1.2,0.6-4.2,0.7c-2.8,0.2-4.4-1.8-4.5-2c0,0,0.9,0.7,2.7,0.4c1.9-0.2,2.9-1.5,4.5-1.9c1.6-0.4,2.6-0.1,3.8,0.7
		c0.9,0.6,2.8,0.3,2.8-1.2c0-1.3-2.1-0.9-2.1-0.9s1.2-1,3.1-1c1.3,0,2.4,0.5,3.6,1c1.1,0.5,2.8,0.4,3-0.7c0.1-1.1-1.6-1.1-1.6-1.1
		s1.8-0.9,2.8-1c1-0.1,2.6,0.1,3.7,0.6c0.6,0.3,1.7,0.3,2.4,0.3c-0.8,0.4-1.5,0.8-2.1,1.4c-0.1,0.1-0.2,0.2-0.3,0.2
		c-0.5,0.5-0.9,1-1.3,1.6c-0.6,0.3-2,0.8-3.4,1c-2,0.3-2.8-0.6-4.6-0.2c-1.8,0.4-2.5,1.1-2.5,1.1s2.9-0.5,3.9,0.3
		C126.6,54.1,126.3,54.9,126.3,55"/>
	<path class="st0" d="M122.2,21.5c5.1,0.2,6.8,0.9,6.8,4.4c0,3.6-2.7,4.3-7,4.3h-5.6c-0.8,0-1.4-0.6-1.4-1.4V25c0,0,1.4,2.1,2.8,2.1
		h4.3c0.5,0,2,0,2.3-0.1l0,0c0.4-0.2,0.6-0.6,0.6-1.2c0-0.3-0.3-0.7-0.5-0.8c-0.2-0.1-0.3-0.2-2.2-0.3l-1.8-0.1
		c-4.3-0.2-5.1-1.7-5.1-4.1c0-3.6,2.2-4.2,6.9-4.2h16.4c1.3,0,2.7-1.2,2.7-1.2v3c0,0.8-0.6,1.4-1.4,1.4h-3.5v8.3
		c0,1.3,2.4,2.6,2.4,2.6H133c-0.8,0-1.4-0.6-1.4-1.4v-9.5H122c-1.9,0-1.9,0-2.2,0.1c-0.3,0.1-0.6,0.4-0.6,0.9c0,0.9,0.1,1,2.8,1.1
		L122.2,21.5z"/>
	<path class="st0" d="M98.9,18.8c0-1.3-2.2-2.6-2.2-2.6h5.4c0.8,0,1.4,0.6,1.4,1.4v8.9c0,0.4,0,0.6,2.7,0.6c2.7,0,2.7-0.2,2.7-0.6
		v-7.7c0-1.3-2.2-2.6-2.2-2.6h5.4c0.8,0,1.4,0.6,1.4,1.4v8.6c0,3.5-3,4.2-7.4,4.2c-3.8,0-7.3-0.5-7.3-4.2V18.8z"/>
	<path class="st1" d="M139.2,28.8c-0.3,0.7,0.5,1.4,1.3,1.4h4.9c0,0-1.7-0.7-1.3-1.7c0.3-0.5,0.5-1,0.5-1.1h5.7
		c0.1,0.2,0.7,1.3,1.1,2.1h0c0.2,0.4,0.7,0.7,1.1,0.7h5.4c0,0-2-1.2-2.6-2.3l-5.1-10.7h0c-0.2-0.6-1-1-1.6-1H143c0,0,1.5,1.4,1,2.5
		L139.2,28.8L139.2,28.8z M98.9,18.8v7.4c0,3.7,3.5,4.2,7.3,4.2c4.4,0,7.4-0.7,7.4-4.2v-8.6c0-0.8-0.6-1.4-1.4-1.4h-5.4
		c0,0,2.2,1.3,2.2,2.6v7.7c0,0.4,0,0.6-2.7,0.6c-2.7,0-2.7-0.2-2.7-0.6v-8.9c0-0.8-0.6-1.4-1.4-1.4h-5.4
		C96.7,16.2,98.9,17.5,98.9,18.8 M129,25.9c0-3.5-1.7-4.2-6.8-4.4l-0.1,0c-2.7-0.1-2.8-0.2-2.8-1.1c0-0.6,0.3-0.8,0.6-0.9
		c0.3-0.1,0.3-0.1,2.2-0.1h9.6v9.5c0,0.8,0.6,1.4,1.4,1.4h5.7c0,0-2.4-1.3-2.4-2.6v-8.3h3.5c0.8,0,1.4-0.6,1.4-1.4v-3
		c0,0-1.4,1.2-2.7,1.2H122c-4.7,0-6.9,0.6-6.9,4.2c0,2.4,0.8,3.9,5.1,4.1l1.8,0.1c1.9,0.1,2,0.2,2.2,0.3c0.2,0.1,0.5,0.5,0.5,0.8
		c0,0.6-0.2,1-0.6,1.2l0,0c-0.2,0.1-1.8,0.1-2.3,0.1h-4.3c-1.4,0-2.8-2.1-2.8-2.1v3.9c0,0.8,0.6,1.4,1.4,1.4h5.6
		C126.3,30.2,129,29.5,129,25.9 M157.2,37.5H97.5c-2.7-8.1-4.8-17.7-5.3-28.5h70.1C161.9,19.8,160,29.3,157.2,37.5"/>
	<path class="st1" d="M89.2,9.2c0,0,0.8,10.6,1.7,15.5c1.1,6.4,2.8,12.4,5,18.1c3.1,8.1,7.4,15.7,12.5,22.3
		c5.3,6.7,10.5,11.2,14,13.8l-6-1c-2.1-1.5-6.4-4.5-13.6-13.6c-5.2-6.5-9.5-14.1-12.6-22.5c-3.7-9.9-5.6-19.8-6.3-30.6L89.2,9.2z"/>
	<rect x="81.4" y="5.9" class="st2" width="84" height="76.3"/>
	<path class="st3" d="M127.3,78.7c0,0-19.2-11.9-29-39h58C146.2,67.3,127.3,78.7,127.3,78.7 M145.2,52.3c-1.2,0.5-2.3,1.2-3.2,2.1
		c-1.1,1-1.8,2.1-2.1,3.3c1.3-0.4,2.5-1.1,3.5-2C144.5,54.6,145.1,53.4,145.2,52.3 M121.4,57.5c0,0.1,0.7,1.8,3,1.4
		c2.3-0.3,3.6-1.6,5.4-1.7c1.2-0.1,2.8,0.4,3.8,0.7c0,0,0,0-0.1,0c-1.2-0.8-2-1.8-2.3-3.1l0.9-0.2c0.2,1,0.9,1.9,1.9,2.5
		c1.4,0.9,3.2,1.1,5,0.7c0.3-1.5,1.1-2.9,2.4-4.2c1-1,2.3-1.8,3.8-2.4c-0.2-1.1-0.8-2.1-1.9-2.8c-1.2-0.7-2.7-1-4.3-0.9
		c-0.1,0.2-0.1,0.3-0.2,0.5l-0.8-0.3c-1.3,0.3-2.6,0.9-3.7,1.8l-0.8-0.5c0.6-0.6,1.4-1,2.1-1.4c-0.7,0-1.8,0-2.4-0.3
		c-1.1-0.5-2.7-0.7-3.7-0.6c-1,0.1-2.8,1-2.8,1s1.8,0,1.6,1.1c-0.1,1.1-1.8,1.1-3,0.7c-1.1-0.5-2.3-1-3.6-1c-1.9,0.1-3.1,1-3.1,1
		s2.2-0.4,2.1,0.9c0,1.4-1.9,1.7-2.8,1.2c-1.2-0.8-2.2-1.1-3.8-0.7c-1.6,0.4-2.6,1.6-4.5,1.9c-1.9,0.2-2.7-0.4-2.7-0.4
		c0.1,0.1,1.6,2.1,4.5,2c2.9-0.2,3.5-0.9,4.2-0.7c0.7,0.2,1,0.9,0.5,1.5c-0.4,0.6-1.7,0.5-1.7,0.5s1.6,1.3,3.8,0.9
		c2.2-0.3,3-1.1,4.3-1.2c1.3-0.1,2.1,1.1,1,2.1C122.9,58,121.5,57.5,121.4,57.5"/>
	<path class="st3" d="M136.8,51c-1.3,1.2-2.9,2.2-4.7,2.7c0,0.1,0,0.3,0,0.4c0,0.2,0,0.3,0.1,0.4l-0.8,0.2c0-0.2-0.1-0.3-0.1-0.5v0
		c0,0-0.2-0.3-2.1-0.3c-1.9,0-2.7,1-2.8,1.1c0-0.1,0.3-0.9-0.9-1.8c-1-0.8-3.9-0.3-3.9-0.3s0.7-0.7,2.5-1.1c1.8-0.4,2.6,0.5,4.6,0.2
		c1.4-0.2,2.8-0.7,3.4-1c0.3-0.6,0.7-1.1,1.3-1.6c0.1-0.1,0.2-0.2,0.3-0.2l0.8,0.5c-0.2,0.1-0.3,0.3-0.4,0.4
		c-0.9,0.9-1.5,1.8-1.7,2.8c1.6-0.5,2.9-1.3,4-2.4c0.8-0.8,1.4-1.7,1.8-2.6l0.8,0.3C138.4,49.1,137.7,50.2,136.8,51"/>
</g>
</svg>
