<?xml version="1.0" encoding="utf-8"?>
<!-- Generator: Adobe Illustrator 17.1.0, SVG Export Plug-In . SVG Version: 6.00 Build 0)  -->
<!DOCTYPE svg PUBLIC "-//W3C//DTD SVG 1.1//EN" "http://www.w3.org/Graphics/SVG/1.1/DTD/svg11.dtd">
<svg version="1.1" id="Layer_1" xmlns="http://www.w3.org/2000/svg" xmlns:xlink="http://www.w3.org/1999/xlink" x="0px" y="0px"
	 viewBox="0 0 246 88" enable-background="new 0 0 246 88" xml:space="preserve">
<g>
	<g>
		<path fill="#CF0A2C" d="M64.4,47c0,3.5-1.9,7.1-7.7,7.1c-4.8,0-7.5-2.7-7.5-7.5V45h3.4v1.1c0,3,0.8,5.2,4.2,5.2
			c3.2,0,4.1-1.8,4.1-4.7V27.6h3.4V47z"/>
		<path fill="#CF0A2C" d="M85.7,35.4c-0.7-3.7-3.7-5.5-7.3-5.5c-6.2,0-8.8,5.1-8.8,10.5c0,5.9,2.6,10.8,8.8,10.8
			c4.5,0,7.1-3.2,7.5-7.5h3.4c-0.7,6.5-4.7,10.4-11.2,10.4c-8.1,0-12-6-12-13.5c0-7.5,4.3-13.6,12.3-13.6c5.4,0,9.9,2.9,10.7,8.4
			H85.7z"/>
	</g>
	<g>
		<path fill="#CF0A2C" d="M90.8,27.6h11.4c5.2,0,7.9,2.9,7.9,7.7c0,4.8-2.8,7.7-7.9,7.7h-7.9v10.6h-3.4V27.6z M94.3,40h6.7
			c3.9,0,5.7-1.7,5.7-4.8c0-3.1-1.8-4.8-5.7-4.8h-6.7V40z"/>
		<path fill="#CF0A2C" d="M126.4,47.6c-0.8,4.1-3.8,6.4-8,6.4c-6,0-8.8-4.1-9-9.9c0-5.6,3.7-9.8,8.8-9.8c6.6,0,8.7,6.2,8.5,10.7h-14
			c-0.1,3.3,1.7,6.2,5.8,6.2c2.5,0,4.3-1.2,4.9-3.7H126.4z M123.4,42.3c-0.1-2.9-2.4-5.3-5.4-5.3c-3.2,0-5.2,2.4-5.4,5.3H123.4z"/>
	</g>
	<g>
		<path fill="#CF0A2C" d="M128.1,34.7h2.9v3h0.1c1.3-2.3,3.4-3.4,6.1-3.4c4.9,0,6.5,2.8,6.5,6.9v12.3h-3.1V40.8
			c0-2.3-1.5-3.8-3.8-3.8c-3.7,0-5.6,2.5-5.6,5.9v10.6h-3.1V34.7z"/>
		<path fill="#CF0A2C" d="M146,34.7h2.9v3h0.1c1.3-2.3,3.4-3.4,6.1-3.4c4.9,0,6.5,2.8,6.5,6.9v12.3h-3.1V40.8c0-2.3-1.5-3.8-3.8-3.8
			c-3.7,0-5.6,2.5-5.6,5.9v10.6H146V34.7z"/>
		<path fill="#CF0A2C" d="M180,47.6c-0.8,4.1-3.8,6.4-8,6.4c-6,0-8.8-4.1-9-9.9c0-5.6,3.7-9.8,8.8-9.8c6.6,0,8.7,6.2,8.5,10.7h-14
			c-0.1,3.3,1.7,6.2,5.8,6.2c2.5,0,4.3-1.2,4.9-3.7H180z M177,42.3c-0.1-2.9-2.4-5.3-5.4-5.3c-3.2,0-5.2,2.4-5.4,5.3H177z"/>
	</g>
	<g>
		<path fill="#CF0A2C" d="M188.6,56c-1.4,3.7-2.7,5-5.4,5c-0.7,0-1.4-0.1-2.1-0.3v-2.8c0.6,0.2,1.2,0.4,1.8,0.4c1.3,0,2-0.6,2.5-1.7
			l1.3-3.2l-7.4-18.6h3.5l5.5,15.3h0.1l5.3-15.3h3.3L188.6,56z"/>
	</g>
	<g>
		<path fill="#CF0A2C" d="M189.8,57.3c0.5,0,0.9,0.4,0.9,0.9c0,0.5-0.4,0.9-0.9,0.9c-0.5,0-0.9-0.4-0.9-0.9
			C188.8,57.7,189.3,57.3,189.8,57.3z M189.8,59c0.4,0,0.7-0.3,0.7-0.8c0-0.4-0.3-0.8-0.7-0.8c-0.4,0-0.8,0.3-0.8,0.8
			C189,58.7,189.3,59,189.8,59z M189.4,57.7h0.4c0.3,0,0.4,0.1,0.4,0.3c0,0.2-0.1,0.3-0.3,0.3l0.3,0.5H190l-0.3-0.5h-0.2v0.5h-0.2
			V57.7z M189.6,58.2h0.2c0.1,0,0.3,0,0.3-0.2c0-0.1-0.1-0.2-0.2-0.2h-0.2V58.2z"/>
	</g>
</g>
</svg>
