<?xml version="1.0" encoding="utf-8"?>
<!-- Generator: Adobe Illustrator 17.1.0, SVG Export Plug-In . SVG Version: 6.00 Build 0)  -->
<!DOCTYPE svg PUBLIC "-//W3C//DTD SVG 1.1//EN" "http://www.w3.org/Graphics/SVG/1.1/DTD/svg11.dtd">
<svg version="1.1" id="Layer_1" xmlns="http://www.w3.org/2000/svg" xmlns:xlink="http://www.w3.org/1999/xlink" x="0px" y="0px"
	 viewBox="0 0 246 88" enable-background="new 0 0 246 88" xml:space="preserve">
<g>
	<path fill-rule="evenodd" clip-rule="evenodd" fill="#595959" d="M123.3,48.7c0.7,0.2,1.4,0.2,2,0.2c1.6-0.1,2.8-0.8,3.6-2.3
		c0.6,1.2,1.6,1.9,2.9,2.2c1.4,0.3,3-0.2,3.4-1.1c-0.6-0.3-1.1-0.8-1.3-1.5c-0.1-0.5-0.2-1.1-0.2-1.6c0-4.8,0-9.6,0-14.3
		c0-1.4-0.7-2.4-1.9-2.8c-0.1,0-0.2-0.1-0.3-0.1c-0.3,0-0.5,0-0.8,0c0,0,0,0,0,0c-1.6,0.5-2.2,1.3-2.2,2.9c0,2.1,0,4.2,0,6.3
		c0,0.1,0,0.2,0,0.4c-0.3-0.3-0.6-0.6-0.8-0.9c-1.4-1.3-3-1.8-4.9-1.2c-1.4,0.4-2.3,1.5-2.8,2.7c-1.2,2.8-1.1,5.6,0.2,8.3
		C120.8,47.4,121.8,48.4,123.3,48.7z M124.4,39.8c0.1-0.3,0.3-0.7,0.5-1c0.6-0.8,1.7-0.8,2.4,0c0.5,0.6,0.7,1.4,0.8,2.2
		c0,0.3,0,0.6,0.1,0.8c0,0.8-0.1,1.6-0.4,2.3c-0.3,0.6-0.6,1.1-1.3,1.3c-0.7,0.2-1.3-0.1-1.8-0.7c-0.4-0.5-0.5-1.2-0.6-1.8
		C124,41.8,124,40.8,124.4,39.8z"/>
	<path fill-rule="evenodd" clip-rule="evenodd" fill="#595959" d="M155,45.8c0-0.4-0.1-0.8-0.1-1.2c0-4.8,0-9.7,0-14.5
		c0-1.1-0.5-1.9-1.5-2.5c-0.2-0.1-0.5-0.2-0.7-0.3c-0.3,0-0.6,0-0.8,0c-0.1,0-0.1,0.1-0.2,0.1c-1.2,0.3-2,1.3-2,2.5
		c0,4.9,0,9.9,0,14.8c0,2,1,3.4,2.8,4c1.3,0.4,2.5,0.3,3.6-0.7c0.1-0.1,0.2-0.2,0.3-0.3C155.6,47.3,155.1,46.7,155,45.8z"/>
	<path fill-rule="evenodd" clip-rule="evenodd" fill="#595959" d="M65.3,50.3c-1.3-0.1-2.3-0.8-2.9-1.9c-0.3-0.6-0.6-1.1-1-1.7
		c-0.8-1.1-1.9-1.9-3.3-2c-2-0.2-3.7,0.9-4.4,2.8c-0.1,0.4-0.2,0.8-0.3,1.1c0,0.3,0,0.7,0,1c0.1,0.2,0.1,0.4,0.2,0.7
		c0.6,1.8,1.8,2.9,3.5,3.5c2,0.7,4,0.5,6-0.2c2.2-0.8,3.7-2.3,5-4.1c0,0,0,0,0,0C67.2,50.2,66.3,50.4,65.3,50.3z"/>
	<path fill-rule="evenodd" clip-rule="evenodd" fill="#595959" d="M87.5,44.8c-0.8-1.9-1.2-3.9-1.4-6c-0.2-2-0.2-4,0.2-5.9
		c0.2-1.3,0.6-2.5,1.7-3.3c-0.1-0.1-0.1-0.2-0.2-0.2c-0.1-0.1-0.2-0.2-0.4-0.3c-1.5-0.8-3-0.9-4.5-0.2c-0.8,0.4-1.4,1.1-1.9,1.9
		c-1.3,1.8-2.7,3.7-4,5.5c-0.1,0.1-0.1,0.1-0.2,0.2c-0.1-0.1-0.1-0.2-0.2-0.3c-0.4-0.6-0.7-1.1-1.1-1.7c-0.9-1.4-1.9-2.9-2.9-4.3
		c-0.7-1-1.7-1.8-3-1.9c-1.1-0.1-2.1,0-3,0.7c-0.2,0.2-0.4,0.4-0.6,0.6c0.9,0.8,1.2,1.7,1.4,2.8c0.3,1.4,0.3,2.8,0.1,4.2
		c-0.2,2-0.6,4-1.5,5.9c-0.7,1.5-1.6,2.9-3.2,3.7c0.3,0.5,0.5,1,0.8,1.4c0.9,1.3,2.3,1.6,3.8,1c1.4-0.7,2.3-1.9,2.8-3.4
		c0.7-2.2,1.1-4.5,1.3-6.8c0-0.3,0.1-0.6,0.1-1c0,0,0,0,0.1,0c1.6,2.4,3.2,4.8,4.7,7.3c1.8-2.4,3.6-4.8,5.4-7.3
		C82,37.7,82,37.9,82,38c-0.1,1.7-0.1,3.5,0,5.2c0.1,1.9,0.4,3.7,1,5.5c0.5,1.5,1.3,2.9,2.5,4c2.6,2.3,7.1,2.2,9.1-1.7
		c0.1-0.1,0.1-0.2,0.2-0.4c-1.2-0.1-2.3-0.4-3.3-1C89.6,48.5,88.3,46.8,87.5,44.8z"/>
	<path fill-rule="evenodd" clip-rule="evenodd" fill="#595959" d="M105.8,48.4c0.8,0.6,1.8,0.7,2.7,0.2c0.9-0.4,1.3-1.2,1.3-2.2
		c0-2,0-4,0-5.9c0-0.8,0.3-1.5,0.9-2c0.6-0.6,1.6-0.4,1.9,0.4c0.1,0.2,0.1,0.5,0.1,0.7c0,1.9,0,3.8,0,5.6c0,1.1,0.4,2.1,1.3,2.8
		c0.9,0.7,2,0.9,3.1,0.8c0.8-0.1,1.5-0.5,2.1-1.2c-0.7-0.3-1.1-0.8-1.3-1.5c-0.1-0.5-0.2-1-0.2-1.5c0-1.7,0-3.4,0-5.1
		c0-1-0.1-1.9-0.4-2.8c-0.4-1.1-1.1-1.9-2.3-2c-0.6-0.1-1.2,0-1.8,0.1c-1.3,0.4-2.3,1.3-3.1,2.4c-0.1,0.1-0.1,0.2-0.2,0.3
		c-0.2-1.8-1.1-2.8-2.7-3.2c-1.4-0.4-2.7-0.2-3.8,1c1.1,0.6,1.5,1.6,1.5,2.8c0,2,0,4,0,6c0,0.8,0,1.6,0,2.4
		C104.9,47.4,105.2,48,105.8,48.4z"/>
	<path fill-rule="evenodd" clip-rule="evenodd" fill="#595959" d="M103.3,41.7c0-4.1-3.4-7.2-7.3-7.2c-3.8,0.1-7,3.3-7,7.2
		c0,4,3.2,7.2,7.2,7.2C100.1,48.9,103.3,45.7,103.3,41.7z M97.9,44.3c-0.1,0.3-0.3,0.7-0.5,1c-0.6,0.8-1.8,0.8-2.4,0
		c-0.5-0.6-0.7-1.3-0.8-2.1c-0.1-0.5-0.1-1-0.1-1.4c0-0.9,0.1-1.8,0.4-2.6c0.1-0.4,0.3-0.7,0.6-1c0.6-0.7,1.5-0.7,2.2,0
		c0.5,0.6,0.7,1.3,0.8,2C98.3,41.6,98.3,43,97.9,44.3z"/>
	<path fill-rule="evenodd" clip-rule="evenodd" fill="#595959" d="M181,48.8c1.4-0.6,2.2-2.3,1.9-3.8c-0.1-0.4-0.3-0.8-0.6-1.2
		c-0.9,0.7-1.9,1-3,1c-1.1,0-2.2,0-3.4,0c0,0-0.1,0-0.1,0c0,0,0-0.1,0-0.1c1.3-1.1,2.7-2.2,4-3.3c0.9-0.8,1.9-1.6,2.6-2.6
		c0.6-0.8,1-1.7,0.9-2.8c-0.1-0.8-0.3-1.4-0.9-2c-0.3,0.6-0.8,0.9-1.4,0.9c-0.2,0-0.4,0-0.6,0c-2.7,0-5.3,0-8,0c-0.2,0-0.4,0-0.6,0
		c-0.9,0.1-1.6,1-1.6,1.8c0,0.9,0.6,1.7,1.5,1.9c0.3,0.1,0.6,0.1,0.9,0.1c1.3,0,2.6,0,4,0c0.1,0,0.2,0,0.4,0
		c-0.2,0.1-0.3,0.2-0.4,0.2c-1.1,0.7-2.1,1.3-3.1,2c-1.9,1.3-3.2,3.2-3.8,5.5c-0.2,0.6-0.2,1.3-0.1,1.9c0.8-0.6,1.7-1,2.6-1.2
		c1.5-0.4,3-0.5,4.5,0.2c0.6,0.3,1.1,0.6,1.7,0.9C179.2,49,180.1,49.2,181,48.8z"/>
	<path fill-rule="evenodd" clip-rule="evenodd" fill="#595959" d="M146.5,45.2c-0.9,0.3-1.9,0.4-2.9,0.3c-0.9-0.1-1.7-0.3-2.4-1
		c-0.4-0.4-0.7-0.8-0.9-1.5c0.9,0,1.8,0,2.7,0c1,0,2-0.2,2.9-0.5c1.2-0.4,2.1-1.1,2.4-2.4c0.3-1.7-0.3-3.3-1.8-4.3
		c-1.1-0.8-2.4-1.1-3.7-1.2c-1.6-0.2-3.1,0.1-4.5,1c-1.9,1.3-2.9,3.2-3.1,5.4c-0.1,1.7,0.1,3.3,1.1,4.7c1.9,2.8,5.6,3.7,8.6,2.5
		c1.6-0.7,2.5-2,2.8-3.7C147.3,44.8,146.9,45,146.5,45.2z M140,41c0.1-1,0.3-2,1-2.8c0.4-0.5,0.9-0.8,1.6-0.6c0.5,0.2,0.9,0.7,1,1.2
		c0.1,0.8-0.4,1.6-1.1,2c-0.3,0.1-0.6,0.2-0.9,0.2c-0.4,0-0.9,0-1.3,0C140.1,41,140.1,41,140,41z"/>
	<path fill-rule="evenodd" clip-rule="evenodd" fill="#595959" d="M168.7,45.1c0-0.2,0.1-0.4,0.1-0.6c-0.5,0.4-1.1,0.7-1.6,0.8
		c-0.7,0.1-1.5,0.2-2.2,0.2c-0.6,0-1.2-0.1-1.7-0.4c-0.9-0.4-1.5-1-1.8-1.9c1.2-0.1,2.3-0.1,3.4-0.2c0.9-0.1,1.7-0.2,2.5-0.5
		c1-0.4,1.7-1,2-2c0.5-1.8-0.2-3.6-1.9-4.7c-1.1-0.7-2.3-1-3.5-1.1c-2.6-0.2-4.7,0.6-6.2,2.7c-1.1,1.6-1.5,3.4-1.3,5.3
		c0.1,1.6,0.7,3,1.8,4.1c1.9,1.8,4.1,2.5,6.6,1.9C166.8,48.3,168.1,47.1,168.7,45.1z M162.2,38c0.5-0.5,1.1-0.6,1.7-0.3
		c0.6,0.3,0.8,0.9,0.7,1.6c-0.2,0.9-0.8,1.6-1.7,1.7c-0.6,0.1-1.1,0-1.8,0C161.3,39.9,161.4,38.8,162.2,38z"/>
	<path fill-rule="evenodd" clip-rule="evenodd" fill="#595959" d="M192.3,47.4c-0.9-2.2-3.3-3.3-5.4-2.4c-1.2,0.4-2,1.3-2.6,2.4
		c-0.3,0.5-0.5,1-0.8,1.5c-0.3,0.5-0.7,0.9-1.3,1.2c-1.5,0.7-2.9,0.5-4.2-0.3c0.3,0.4,0.6,0.8,1,1.2c2.1,2.4,4.7,3.7,7.9,3.5
		c1.6-0.1,3.1-0.6,4.3-1.7C192.6,51.2,193,49.3,192.3,47.4z"/>
	<path fill-rule="evenodd" clip-rule="evenodd" fill="#595959" d="M159.3,32.9c1.3,0,2.5,0,3.8,0s2.5,0,3.8,0c0.9,0,1.7-0.7,1.7-1.7
		c0-0.9-0.8-1.7-1.7-1.7c-2.6,0-5.1,0-7.7,0c-0.9,0-1.7,0.8-1.7,1.7C157.6,32.1,158.3,32.9,159.3,32.9z"/>
	<path fill-rule="evenodd" clip-rule="evenodd" fill="#595959" d="M168.7,54c-0.5-0.1-1.1,0.3-1.3,0.8c0,0.1-0.1,0.2-0.1,0.3
		c-0.1-0.1-0.2-0.1-0.2-0.2c-1.1-1.3-2.9-1-3.6,0.6c-0.5,1.2-0.5,2.5,0.1,3.7c0.3,0.6,0.7,1.1,1.4,1.2c0.9,0.2,1.7,0.1,2.3-0.7
		c0,0.1,0.1,0.1,0.1,0.1c0.3,0.5,0.8,0.8,1.3,0.7c0.5-0.1,0.9-0.5,1-1.1c0-1.4,0-2.9,0-4.3C169.7,54.6,169.2,54.1,168.7,54z
		 M167,58.5c-0.1,0.3-0.4,0.5-0.7,0.5c-0.4,0-0.6-0.2-0.7-0.5c-0.3-0.7-0.3-1.5,0-2.2c0.1-0.3,0.4-0.5,0.7-0.5
		c0.3,0,0.6,0.2,0.7,0.5c0.1,0.4,0.2,0.7,0.3,1.1C167.2,57.8,167.1,58.2,167,58.5z"/>
	<path fill-rule="evenodd" clip-rule="evenodd" fill="#595959" d="M140,54c-0.5-0.1-1.1,0.2-1.3,0.7c-0.1,0.1-0.1,0.3-0.1,0.5
		c-0.1-0.1-0.1-0.2-0.2-0.2c-1.1-1.2-2.9-1-3.5,0.6c-0.5,1.2-0.5,2.4,0,3.6c0.7,1.7,2.9,1.8,3.8,0.7c0,0.1,0.1,0.1,0.1,0.1
		c0.3,0.5,0.8,0.8,1.3,0.6c0.6-0.2,0.9-0.6,0.9-1.2c0-0.5,0-1,0-1.6c0-0.9,0-1.7,0-2.6C140.9,54.6,140.5,54.2,140,54z M138.2,58.5
		c-0.1,0.3-0.4,0.5-0.7,0.5c-0.4,0-0.6-0.2-0.7-0.5c-0.1-0.3-0.2-0.7-0.3-1.1c0.1-0.4,0.1-0.7,0.3-1.1c0.1-0.3,0.3-0.5,0.7-0.5
		c0.3,0,0.6,0.2,0.7,0.5C138.5,57,138.5,57.8,138.2,58.5z"/>
	<path fill-rule="evenodd" clip-rule="evenodd" fill="#595959" d="M133.5,55.4c-0.2-0.6-0.6-0.8-1.2-0.8c-0.6,0-1.1,0.2-1.6,0.6
		c-0.2,0.2-0.3,0.4-0.6,0.6c0-0.2,0-0.3,0-0.5c0-0.6-0.5-1.1-1.2-1.1c-0.6,0-1.1,0.5-1.1,1.1c0,1.1,0,2.1,0,3.2c0,0.3,0,0.7,0,1
		c0,0.6,0.5,1.1,1.1,1.1c0.6,0,1.1-0.5,1.1-1.1c0-0.8,0-1.5,0-2.3c0-0.3,0.1-0.5,0.2-0.7c0.2-0.3,0.4-0.5,0.7-0.4
		c0.3,0.1,0.4,0.3,0.4,0.7c0,0.9,0,1.8,0,2.7c0,0.7,0.5,1.2,1.1,1.2c0.6,0,1.1-0.5,1.1-1.2c0-0.9,0-1.7,0-2.6
		C133.7,56.3,133.6,55.8,133.5,55.4z"/>
	<path fill-rule="evenodd" clip-rule="evenodd" fill="#595959" d="M110.7,55.5c-0.2-0.7-0.6-1-1.3-1c-0.6,0-1.1,0.2-1.5,0.6
		c-0.2,0.2-0.3,0.4-0.6,0.6c0-0.2,0-0.3,0-0.4c0-0.7-0.5-1.2-1.1-1.2c-0.6,0-1.1,0.5-1.1,1.2c0,1.4,0,2.7,0,4.1
		c0,0.7,0.5,1.2,1.1,1.2c0.6,0,1.1-0.5,1.1-1.2c0-0.8,0-1.5,0-2.3c0-0.3,0.2-0.6,0.4-0.9c0.1-0.1,0.4-0.2,0.5-0.2
		c0.2,0,0.3,0.2,0.4,0.4c0.1,0.1,0,0.2,0,0.4c0,0.9,0,1.7,0,2.6c0,0.7,0.5,1.2,1.1,1.2c0.6,0,1.1-0.5,1.1-1.2c0-0.9,0-1.8,0-2.6
		C110.8,56.4,110.8,55.9,110.7,55.5z"/>
	<path fill-rule="evenodd" clip-rule="evenodd" fill="#595959" d="M162.5,55.9c-0.2-1.1-1-1.6-2.1-1.2c-0.4,0.2-0.7,0.5-1,0.7
		c-0.1,0.1-0.2,0.2-0.3,0.3c0,0,0,0-0.1,0c0-0.1,0-0.3,0-0.4c0-0.6-0.5-1.1-1.1-1.1c-0.6,0-1.1,0.5-1.1,1.1c0,1.4,0,2.8,0,4.2
		c0,0.1,0,0.2,0,0.4c0.2,0.5,0.7,0.8,1.2,0.8c0.5-0.1,0.9-0.5,0.9-1.1c0-0.8,0-1.6,0-2.3c0-0.4,0.1-0.7,0.4-1
		c0.3-0.3,0.7-0.2,0.8,0.2c0,0.1,0.1,0.3,0.1,0.4c0,0.9,0,1.8,0,2.7c0,0.1,0,0.3,0.1,0.4c0.2,0.5,0.7,0.7,1.2,0.7
		c0.5-0.1,0.9-0.5,0.9-1.1c0-0.9,0-1.8,0-2.7C162.5,56.5,162.5,56.2,162.5,55.9z"/>
	<path fill-rule="evenodd" clip-rule="evenodd" fill="#595959" d="M152.9,54.2c-1.7,0-3.2,1.4-3.2,3.2c0,1.7,1.4,3.2,3.2,3.2
		c1.8,0,3.2-1.4,3.3-3.2C156.1,55.7,154.7,54.2,152.9,54.2z M153.6,58.7c-0.1,0.3-0.3,0.6-0.7,0.6c-0.4,0-0.6-0.3-0.7-0.6
		c-0.3-0.8-0.3-1.6,0-2.5c0-0.1,0.1-0.2,0.1-0.2c0.3-0.5,0.9-0.5,1.2,0c0.3,0.5,0.3,1,0.4,1.5C153.8,57.9,153.8,58.3,153.6,58.7z"/>
	<path fill-rule="evenodd" clip-rule="evenodd" fill="#595959" d="M121,54.9c-0.9-0.6-1.9-0.8-2.9-0.5c-1.6,0.4-2.5,2.2-2.1,3.9
		c0.4,1.9,2.5,2.9,4.3,2.1c0.7-0.3,1.1-0.9,1.2-1.7c-1.4,0.8-3,0.4-3.3-0.7c0.2,0,0.4,0,0.6,0c0.7-0.1,1.3-0.1,2-0.3
		c0.5-0.1,0.9-0.5,1-1C121.9,56,121.7,55.3,121,54.9z M119.7,56.3c-0.1,0.4-0.4,0.7-0.8,0.7c-0.2,0-0.5,0-0.8,0
		c0.1-0.5,0.1-0.9,0.4-1.3c0.2-0.3,0.5-0.3,0.8-0.2C119.6,55.7,119.7,56,119.7,56.3z"/>
	<path fill-rule="evenodd" clip-rule="evenodd" fill="#595959" d="M173,58.8c0-2.2,0-4.4,0-6.6c0-0.7-0.5-1.2-1.1-1.2
		c-0.6,0-1.1,0.5-1.1,1.1c0,2.2,0,4.5,0,6.7c0,0.9,0.5,1.6,1.4,1.8c0.6,0.1,1.1,0,1.5-0.5C173,59.8,173,59.3,173,58.8z"/>
	<path fill-rule="evenodd" clip-rule="evenodd" fill="#595959" d="M103.3,51.4c-0.7-0.5-1.7-0.5-2.2,0.1c0.5,0.3,0.6,0.8,0.6,1.3
		c0,2.2,0,4.4,0,6.6c0,0.7,0.5,1.2,1.1,1.2c0.6,0,1.2-0.5,1.2-1.2c0-2.2,0-4.4,0-6.5C103.9,52.3,103.8,51.8,103.3,51.4z"/>
	<path fill-rule="evenodd" clip-rule="evenodd" fill="#595959" d="M114.3,58.1c0-0.7,0-1.3,0-2c0-0.1,0-0.3,0-0.4c0.3,0,0.5,0,0.8,0
		c0.4,0,0.6-0.2,0.6-0.5c0-0.3-0.2-0.5-0.6-0.5c-0.3,0-0.5,0-0.8,0c0-0.3,0-0.5,0-0.7c0-0.6-0.5-1.1-1.2-1.1c-0.6,0-1.1,0.5-1.1,1.1
		c0,0.2,0,0.5,0,0.7c-0.6,0.1-0.7,0.2-0.7,0.5c0,0.4,0.1,0.4,0.7,0.5c0,0.1,0,0.2,0,0.3c0,0.9,0,1.7,0,2.6c0,0.6,0.2,1.2,0.7,1.6
		c1.1,0.9,2.4,0.6,2.9-0.6c-0.1,0-0.1,0-0.2,0C114.9,59.4,114.3,58.9,114.3,58.1z"/>
	<path fill-rule="evenodd" clip-rule="evenodd" fill="#595959" d="M144.5,58.1c0-0.7,0-1.4,0-2.1c0-0.1,0-0.2,0-0.3
		c0.3,0,0.6,0,0.9,0c0.3,0,0.5-0.2,0.5-0.5c0-0.3-0.2-0.5-0.5-0.5c-0.3,0-0.6,0-0.9,0c0-0.3,0-0.5,0-0.8c0-0.6-0.5-1.1-1.2-1.1
		c-0.6,0-1.1,0.5-1.1,1.2c0,0.2,0,0.5,0,0.7c-0.6,0.1-0.7,0.2-0.7,0.5c0,0.4,0.1,0.5,0.7,0.6c0,0.1,0,0.2,0,0.3c0,0.9,0,1.7,0,2.6
		c0,0.9,0.6,1.7,1.5,2c0.9,0.3,1.8-0.2,2.1-1.1c-0.1,0-0.1,0-0.2,0C145.1,59.3,144.5,59,144.5,58.1z"/>
	<path fill-rule="evenodd" clip-rule="evenodd" fill="#595959" d="M126.8,54.5c-0.5-0.2-1.1-0.1-1.5,0.3c-0.2,0.2-0.4,0.4-0.6,0.7
		c0-0.1,0-0.1,0-0.1c0.1-0.6-0.5-1.2-1.1-1.2c-0.5,0-1.1,0.5-1.1,1.2c0,1.4,0,2.7,0,4.1c0,0.2,0.1,0.4,0.2,0.6
		c0.2,0.4,0.8,0.6,1.2,0.5c0.5-0.1,0.8-0.6,0.8-1.1c0-0.8,0-1.7,0-2.5c0-0.3,0.1-0.6,0.3-0.9c0-0.1,0.2-0.2,0.3-0.1
		c0.1,0,0.2,0.2,0.2,0.2c0,0,0,0.1,0,0.2c0.1,0.6,0.5,0.8,1.1,0.6c0.5-0.1,0.8-0.6,0.9-1.2C127.5,55.3,127.2,54.7,126.8,54.5z"/>
	<path fill-rule="evenodd" clip-rule="evenodd" fill="#595959" d="M147.8,54.7c-0.6,0-1.1,0.5-1.1,1.1c0,0.6,0,1.2,0,1.8
		c0,0.6,0,1.3,0,1.9c0,0,0,0,0,0.1c0,0.6,0.5,1.1,1.1,1.1c0.6,0,1.1-0.4,1.1-1c0-1.3,0-2.6,0-3.9C149,55.1,148.4,54.7,147.8,54.7z"
		/>
	<path fill-rule="evenodd" clip-rule="evenodd" fill="#595959" d="M146.8,52.9c0,0.6,0.5,1.1,1.1,1.1c0.6,0,1.1-0.5,1.1-1.1
		c0-0.6-0.5-1.1-1.1-1.1C147.3,51.8,146.8,52.3,146.8,52.9z"/>
</g>
</svg>
