<?xml version="1.0" encoding="utf-8"?>
<!-- Generator: Adobe Illustrator 17.1.0, SVG Export Plug-In . SVG Version: 6.00 Build 0)  -->
<!DOCTYPE svg PUBLIC "-//W3C//DTD SVG 1.1//EN" "http://www.w3.org/Graphics/SVG/1.1/DTD/svg11.dtd">
<svg version="1.1" id="Layer_1" xmlns="http://www.w3.org/2000/svg" xmlns:xlink="http://www.w3.org/1999/xlink" x="0px" y="0px"
	 viewBox="0 0 246 88" enable-background="new 0 0 246 88" xml:space="preserve">
<g>
	<path fill="#595959" d="M186.5,37.7l0.6-1.5l-2.2,0l0-5.1l-4.7,1.7v3.5h-2l-0.6,1.4l2.5,0l0,7.4c0,4.8,0.2,6.8,1.5,7.5h4.2
		c-0.5-0.4-0.8-1-0.9-2.1l0-12.8L186.5,37.7z"/>
	<path fill="#595959" d="M60.5,47.2c1.5-0.3,3-1.5,3.4-3c0.8-1.5-0.3-2.9-0.8-4.2L60.6,35c-3.5,2.5-5.3,6.6-4.5,11.1
		C57.3,47.1,58.9,47.3,60.5,47.2z"/>
	<path fill="#595959" d="M58,50c2.5,4.4,10.5,6.2,11.3,3.5l-4.2-9.4C65,47.5,61.3,50.4,58,50z"/>
	<path fill="#595959" d="M63.5,33.7l9,19.5c0.4-0.2,1.1-0.5,1.3-1.3l-8.6-18.6C64.7,33.2,64.3,33.1,63.5,33.7z"/>
	<path fill="#595959" d="M69.1,33.3l7.3,15.9C80.1,43.6,77,34.6,69.1,33.3z"/>
	<path fill="#595959" d="M148.1,36.6c-1-0.5-2.5-0.4-3.4,0.3l-0.8,0.6c-0.2-0.3-0.2-0.8-0.6-1.1l-4.5,0c0.4,0.5,0.6,0.9,0.6,1.9
		l0,11.5c0.1,1,0.3,2.1,1.2,2.8h4.3c-0.8-0.7-1-2.1-1-3.6v-8.6c0.6-0.5,1.6-0.8,2.5-0.3c0.3,0.2,0.5,0.2,0.7,0.4l1.9-3
		C148.9,37,148.5,36.8,148.1,36.6z"/>
	<path fill="#595959" d="M154.7,38.3c-0.1-0.3-0.1-0.8-0.3-1.1c-0.1-0.3-0.2-0.7-0.5-0.9h-4.2c0.7,0.9,0.5,2.2,0.5,3.3l0,6.8
		c0.1,2.4-0.4,4.7,1.1,6.1l4.4,0c-0.5-0.6-0.8-1.3-1-2L154.7,38.3z"/>
	<path fill="#595959" d="M168.8,41.7c-0.2-0.6-0.3-1.2-0.5-1.8c-0.9-1.5-2.2-2.5-3.6-3.5c-1.7-1.2-3.5,0.3-5,0.8
		c-1,0.7-2.4,1.3-2.9,2.5c-0.3,0.5-0.2,1.1-0.3,1.6c-0.3,1.8-0.2,3.5-0.1,5.4c-0.2,2.7,2.3,4.6,4.4,5.6c2.4,1.2,4.5-0.6,6.3-2.1
		c1.2-1,1.8-2.3,1.9-3.8c0.1-0.9,0.1-1.7,0-2.5C169,43.1,168.8,42.5,168.8,41.7z M163.9,49.4c-0.3,0.4-0.7,0.8-1.2,0.8
		c-0.9-0.1-1.3-1-1.5-1.8c-0.3-2.1-0.5-3.8-0.3-5.9c0-1.3,0.1-2.5,0.8-3.5c0.4-0.4,0.8-0.8,1.5-0.6c1.7,1,1.3,3.2,1.7,4.8
		C164.7,45.4,164.8,47.5,163.9,49.4z"/>
	<path fill="#595959" d="M175.2,31l-4.7,1.7v3.5h-2l-0.6,1.4l2.5,0l0,7.4c0,4.8,0.2,6.8,1.5,7.5h4.2c-0.5-0.4-0.8-1-0.9-2.1l0-12.8
		l1.6,0l0.6-1.5l-2.2,0L175.2,31z"/>
	<path fill="#595959" d="M137.5,36.6c-1-0.5-2.5-0.4-3.4,0.3l-0.8,0.6c-0.2-0.3-0.2-0.8-0.6-1.1l-4.5,0c0.4,0.5,0.5,0.9,0.6,1.9
		l0,11.5c0.1,1,0.3,2.1,1.2,2.8h4.3c-0.8-0.7-1-2.1-1-3.6v-8.6c0.6-0.5,1.6-0.8,2.5-0.3c0.3,0.2,0.5,0.2,0.7,0.4l1.9-3
		C138.3,37,137.9,36.8,137.5,36.6z"/>
	<path fill="#595959" d="M100.7,34.1l3.8,8.6l-1.7,3.4l-7-15l-5.1,2.6l4.2,9.1l-1.6,3.3c-1.1,2-2.7,4.4-5.1,5c-0.9,0.3-1.7,0-2.6,0
		l-2.9,4.7c0.2,0.2,0.5,0.4,0.8,0.5c5.1,1.9,7.1-0.1,12.1-11.4l4.7,10.1h6.3l-3-6.8l1.7-3.5l4.6,10.1l6,0l-10.5-23.1L100.7,34.1z"/>
	<path fill="#595959" d="M127,40.9c-0.1-0.7,0-1.5-0.3-2.1c-0.5-1.4-2-2.6-3.6-2.7c-1.9-0.1-4.1,0.1-5.8,1c-0.3,0.2-0.5,0.6-0.8,0.9
		c-0.5,1-0.7,2.2-0.9,3.4c1.8-1.5,3.8-3,6.2-2.5c0.4,0.2,0.6,0.5,0.6,1c0,0.4-0.4,0.6-0.6,0.9c-1.6,0.8-3.4,1.2-4.9,2.2
		c-1.6,0.8-2.5,2.4-2.6,4.1c-0.4,2.3,1.1,4.7,2.7,5.5c1.6,1.1,4.2-0.6,5.4-1.7c0.2,0.8,0.4,1.4,1,1.8h4.5c-0.5-0.7-0.9-1.4-0.9-2.2
		L127,40.9z M121.4,49.2c-0.5,0.4-1.2,0.6-1.9,0.4c-0.4-0.1-0.7-0.3-0.9-0.7c-0.3-0.6-0.3-1.2-0.3-1.9c0-0.7,0.1-1.4,0.6-2.2
		c0.5-0.9,1.4-1.8,2.5-2c0.3,0,0.8,0.1,0.8,0.7l0.2,2.3C122.4,47.1,122.6,48.5,121.4,49.2z"/>
	<path fill="#595959" d="M188.8,51L188.8,51c0.2-0.1,0.4-0.2,0.4-0.4c0-0.4-0.3-0.5-0.7-0.5h-0.6v1.8h0.3v-0.8h0.2
		c0.1,0,0.2,0,0.3,0.1c0.1,0.1,0.1,0.2,0.1,0.4c0,0.1,0,0.2,0.1,0.3h0.4c-0.1-0.2-0.1-0.4-0.1-0.5C189.1,51.1,189,51,188.8,51z
		 M188.5,50.8h-0.3v-0.5h0.3c0.2,0,0.3,0.1,0.3,0.2C188.8,50.6,188.7,50.8,188.5,50.8z"/>
	<path fill="#595959" d="M188.5,49.4c-0.9,0-1.6,0.7-1.6,1.6c0,0.9,0.7,1.6,1.6,1.6c0.9,0,1.6-0.7,1.6-1.6
		C190.1,50.1,189.4,49.4,188.5,49.4z M188.5,52.2c-0.7,0-1.3-0.6-1.3-1.3c0-0.7,0.6-1.3,1.3-1.3c0.7,0,1.3,0.6,1.3,1.3
		C189.8,51.7,189.2,52.2,188.5,52.2z"/>
</g>
</svg>
