<?xml version="1.0" encoding="utf-8"?>
<!-- Generator: Adobe Illustrator 17.1.0, SVG Export Plug-In . SVG Version: 6.00 Build 0)  -->
<!DOCTYPE svg PUBLIC "-//W3C//DTD SVG 1.1//EN" "http://www.w3.org/Graphics/SVG/1.1/DTD/svg11.dtd">
<svg version="1.1" id="Layer_1" xmlns="http://www.w3.org/2000/svg" xmlns:xlink="http://www.w3.org/1999/xlink" x="0px" y="0px"
	 viewBox="0 0 246 88" enable-background="new 0 0 246 88" xml:space="preserve">
<g>
	<path fill-rule="evenodd" clip-rule="evenodd" fill="#C70C47" d="M39.8,23.7c0-4.3-3.3-3-3.3-4.1c0-0.4,0.2-0.5,0.5-0.5
		c1.3,0,2.5,0.2,3.8,0.2c2.7,0,5.5-0.2,9.1-0.2c7.4,0,14.7,5.6,14.7,13.4c0,9.5-4.5,16.2-16.1,16.2c-2.1,0-4.3-0.1-6.4-0.1
		c-0.4,0-4.4,0.1-4.7,0.1c-0.4,0-0.5-0.1-0.5-0.4c0-1,3,0,3-3.9V23.7L39.8,23.7z M43.1,42.7c0,0.7-0.1,2.7,0.2,3.1
		c1.4,1.3,4.5,1.9,6.4,1.9c6,0,11.6-3.2,11.6-12.9c0-9.2-6.2-14.6-14.1-14.6c-4.1,0-4.2,0.7-4.2,2.6V42.7L43.1,42.7z"/>
	<path fill-rule="evenodd" clip-rule="evenodd" fill="#C70C47" d="M86.9,38.9c-0.4-1.1-0.7-1.7-1.8-1.7h-9.2c-0.8,0-1.6,0-2,1
		L71.3,44c-0.1,0.2-0.4,0.8-0.4,1.4c0,2.9,3,1.7,3,2.7c0,0.7-0.6,0.6-1.1,0.6c-1.2,0-2.4-0.1-3.6-0.1c-1.1,0-2.3,0.1-3.3,0.1
		c-0.2,0-0.4-0.2-0.4-0.5c0-0.8,2-0.1,3.1-2.5l9.9-21.4c2.5-5.2,2.6-5.8,3.2-5.8c0.4,0,0.7,1.2,0.8,1.6l8.7,21.5
		c0.6,1.6,1.1,3.3,2,4.8c1.3,1.9,3.7,1,3.7,2c0,0.4-0.2,0.4-0.6,0.4c-1.7,0-3.5-0.1-5.1-0.1c-1.1,0-2.3,0.1-3.3,0.1
		c-0.2,0-1,0-1-0.4c0-1.1,2.5-0.6,2.5-2.3c0-0.8-0.8-2.7-1.3-3.9L86.9,38.9L86.9,38.9z M75.7,34.7c-0.4,0.5,0,0.7,0.5,0.7h8.2
		c1,0,1-0.4,0.7-0.8l-4.1-10.1c-0.2-0.5-0.5-0.5-0.7,0L75.7,34.7L75.7,34.7z"/>
	<path fill-rule="evenodd" clip-rule="evenodd" fill="#C70C47" d="M120.3,44.2c3,4.5,5,3.1,5,4.1c0,0.5-2.4,0.5-2.7,0.5
		c-3,0-4.7-2.1-6.2-4.5l-4.7-7.3c-1.6-2.3-0.8-2.1-5.6-2.1c-1.3,0-1.1,0.7-1.1,1.1v8.8c0,3.6,4.4,2.3,4.4,3.7c0,0.5-0.5,0.4-0.7,0.4
		c-0.5,0-1.4-0.1-4.9-0.1c-1.6,0-3.1,0.1-4.7,0.1c-0.4,0-0.5-0.2-0.5-0.5c0-1,3.1-0.5,3.1-3.6V23.5c0-4.1-3.7-2.4-3.7-3.7
		c0-0.4,0.4-0.6,0.8-0.6c0.8,0,0.6,0.2,2.7,0.2c2.4,0,4.8-0.2,6.9-0.2c0.7,0,9.9-0.8,9.9,7.3c0,3.2-2.3,6.1-5.2,7.2L120.3,44.2
		L120.3,44.2z M105,32.8c0,0.7,2.6,0.6,4.5,0.6c1.8,0,5.8-0.8,5.8-6c0-5.1-3.9-6.8-8-6.8c-1.4,0-2.4-0.1-2.4,1.6V32.8L105,32.8z"/>
	<path fill-rule="evenodd" clip-rule="evenodd" fill="#C70C47" d="M130.3,23.7c0-4.3-3.5-3-3.5-4.1c0-0.4,0.4-0.5,0.6-0.5
		c1.3,0,2.5,0.2,3.7,0.2c2.7,0,5.5-0.2,9.1-0.2c7.4,0,14.7,5.6,14.7,13.4c0,9.5-4.5,16.2-16.1,16.2c-2.1,0-4.3-0.1-6.4-0.1
		c-0.4,0-4.3,0.1-4.7,0.1c-0.4,0-0.4-0.1-0.4-0.4c0-1,3,0,3-3.9V23.7L130.3,23.7z M133.6,42.7c0,0.7-0.1,2.7,0.2,3.1
		c1.4,1.3,4.7,1.9,6.4,1.9c6,0,11.6-3.2,11.6-12.9c0-9.2-6.2-14.6-14.1-14.6c-3.9,0-4.2,0.7-4.2,2.6V42.7L133.6,42.7z"/>
	<path fill-rule="evenodd" clip-rule="evenodd" fill="#C70C47" d="M163.3,31.4c0,1.4-0.1,1.4,1.6,1.4h4.5c4.4,0,3.2-3.3,4.3-3.3
		c0.2,0,0.4,0.5,0.4,0.8c0,1.4,0,2.9,0,4.2c0,1.1,0,2.1,0,3.3c0,0.4-0.1,0.5-0.4,0.5c-1.3,0,0.1-3.6-3.5-3.6H164
		c-0.8,0-0.7,0.6-0.7,1.3v7.6c0,2.5-0.4,3.5,3.2,3.5c9.7,0,11-4.3,11.6-4.3c0.2,0,0.4,0.5,0.4,0.5c0,1.6-1.1,3-2.1,4.1
		c-1.3,1.6-2.3,1.4-4.1,1.4c-3.2,0-6.3-0.2-9.5-0.1c-1.7,0-3.3,0.1-5,0.1c-0.5,0-0.7-0.1-0.7-0.4c0.1-0.6,0.5-0.5,1.9-1.1
		c1.1-0.6,1.1-1.7,1.1-3.7v-19c0-1.9,0-3.9-2.1-4.3c-0.4-0.1-1.3-0.1-1.3-0.6c0-0.4,0.2-0.6,1.4-0.6c7.9,0,10.1,0.2,11.8,0.2
		c0.8,0,4.8-0.2,6-0.2c0.4,0,0.5,0.5,0.5,1c0,4.7-0.6,5-0.8,5c-1,0-0.4-2-1-3c-1.2-1.4-5.5-1.2-7.2-1.2c-4.1,0-3.9-0.1-3.9,2.6V31.4
		L163.3,31.4z"/>
	<path fill-rule="evenodd" clip-rule="evenodd" fill="#C70C47" d="M183.7,27.4c0-8.6-5-6.2-5-7.8c0-0.2,0.4-0.5,0.6-0.5
		c0.6,0,1.3,0.2,1.9,0.2c0.6,0,1.3-0.2,1.9-0.2c0.5,0,0.8,0.7,1.1,1l19.9,22.2c0.2,0.4,0.5,0.5,0.6,0.5c0,0,0.1-0.1,0.1-0.5V24.9
		c0-5.5-4.7-3.9-4.7-5.2c0-0.4,0.1-0.5,0.5-0.5c1.2,0,2.4,0.2,3.7,0.2c1.4,0,3.2-0.2,4.3-0.2c0.2,0,0.4,0.1,0.4,0.5
		c0,1.1-2.4,0.2-2.4,3.3v24.1c0,1.3-0.1,1.9-0.5,1.9c-0.2,0-0.6-0.2-1.6-1.2l-17.9-20.3c-0.1,0-0.6-0.7-1-0.7c-0.1,0-0.2,0.1-0.2,1
		v17.1c0,3.7,3.7,2.3,3.7,3.5c0,0.1-0.1,0.5-0.5,0.5c-1.1,0-2.1-0.1-4.2-0.1c-1.6,0-3.7,0.1-3.9,0.1c-0.6,0-0.6-0.2-0.6-0.5
		c0-1.4,3.7,0.4,3.7-5.5V27.4L183.7,27.4z"/>
	<path fill-rule="evenodd" clip-rule="evenodd" fill="#231F20" d="M39.7,55.2c0.8,0,2.3,0,3,0.1c1.6,0.2,2.4,1.1,2.4,2.6
		c0,1.6-1.2,2.6-2.7,2.9c-1.1,0.2-2.4,0.2-2.6,0.1V55.2L39.7,55.2z M37.8,68.8c0.4-0.1,0.6-0.1,1-0.1c0.2,0,0.6,0,1,0.1v-7h0.7
		l1.7,2l2.5,3.1c0.5,0.6,0.8,1.2,1.3,1.9c0.4-0.1,0.8-0.1,1.2-0.1c0.4,0,0.7,0,1.2,0.1l-0.4-0.6L46.8,67l-4.3-5.4
		c2.1-0.5,4.3-1.6,4.3-4.1c0-2-1.4-3.1-4.7-3.1h-4.4V68.8L37.8,68.8z"/>
	<path fill-rule="evenodd" clip-rule="evenodd" fill="#231F20" d="M55.8,60.7H59c0.6,0,1.2-0.1,1.9-0.1c-0.1,0.2-0.1,0.4-0.1,0.6
		c0,0.1,0,0.4,0.1,0.6c-0.7,0-1.3-0.1-1.9-0.1h-3.2v6.1c1.3,0,2.5-0.1,3.8-0.1c0.6,0,1.2-0.1,1.9-0.1c0,0.1-0.1,0.4-0.1,0.6
		c0,0.2,0.1,0.4,0.1,0.6h-7.6V54.5h7.5c-0.1,0.2-0.1,0.4-0.1,0.6c0,0.2,0,0.5,0.1,0.6c-0.7-0.1-1.3-0.1-1.9-0.1l-2.1-0.1h-1.6V60.7
		L55.8,60.7z"/>
	<path fill-rule="evenodd" clip-rule="evenodd" fill="#231F20" d="M67.5,66c0.8,1.3,1.8,2.1,3.3,2.1c1.8,0,3-1.3,3-3
		c0-3.9-6.6-2.1-6.6-6.9c0-2.6,2.1-3.9,4.7-3.9c1,0,2.1,0.2,3,1c-0.2,0.6-0.4,1.1-0.6,1.7H74c-0.4-1.1-1.3-1.8-2.5-1.8
		c-1.4,0-2.6,1-2.6,2.5c0,3.8,6.6,2.3,6.6,6.7c0,3-2.4,4.8-5.1,4.8c-1.1,0-2.7-0.5-3.5-1.2c0.2-0.6,0.4-1.3,0.4-1.9H67.5L67.5,66z"
		/>
	<path fill-rule="evenodd" clip-rule="evenodd" fill="#231F20" d="M86.7,68.8c-0.4,0-0.7-0.1-1-0.1c-0.4,0-0.6,0.1-1,0.1V55.5
		c-2,0-3.3,0.1-4.5,0.4c0-0.2,0.1-0.5,0.1-0.7c0-0.1-0.1-0.4-0.1-0.6H91c0,0.2,0,0.5,0,0.6c0,0.2,0,0.5,0,0.7
		c-1-0.2-2.5-0.4-4.3-0.4V68.8L86.7,68.8z"/>
	<path fill-rule="evenodd" clip-rule="evenodd" fill="#231F20" d="M103.7,62.3h-4.5l2.3-5.4L103.7,62.3L103.7,62.3z M102.2,54.3
		h-0.5l-6.6,14.6c0.2-0.1,0.5-0.1,0.7-0.1c0.2,0,0.5,0,0.8,0.1c0.6-2,1.3-3.8,2-5.7h5.4c0.7,1.9,1.6,3.9,2.1,5.7
		c0.4-0.1,0.7-0.1,1.1-0.1c0.4,0,0.7,0,1.1,0.1L102.2,54.3L102.2,54.3z"/>
	<path fill-rule="evenodd" clip-rule="evenodd" fill="#231F20" d="M116,62.5c0,3.7,1,5.6,4.5,5.6c3.3,0,4.5-2.4,4.5-5.8v-7.8
		c0.2,0,0.4,0.1,0.6,0.1c0.2,0,0.4-0.1,0.6-0.1v8.3c0,4.1-2.4,6.2-6.1,6.2c-2,0-3.5-0.5-4.5-1.4c-1.3-1.2-1.6-3.1-1.6-4.8v-8.3
		c0.4,0,0.6,0.1,1,0.1c0.2,0,0.6-0.1,1-0.1V62.5L116,62.5z"/>
	<path fill-rule="evenodd" clip-rule="evenodd" fill="#231F20" d="M135.6,55.2c0.8,0,2.3,0,3.1,0.1c1.6,0.2,2.3,1.1,2.3,2.6
		c0,1.6-1.2,2.6-2.7,2.9c-1,0.2-2.4,0.2-2.6,0.1V55.2L135.6,55.2z M133.7,68.8c0.4-0.1,0.7-0.1,1-0.1c0.4,0,0.6,0,1,0.1v-7h0.7
		l1.8,2l2.4,3.1c0.5,0.6,0.8,1.2,1.3,1.9c0.4-0.1,0.8-0.1,1.2-0.1s0.8,0,1.2,0.1l-0.4-0.6l-1-1.2l-4.3-5.4c2-0.5,4.2-1.6,4.2-4.1
		c0-2-1.3-3.1-4.5-3.1h-4.5V68.8L133.7,68.8z"/>
	<path fill-rule="evenodd" clip-rule="evenodd" fill="#231F20" d="M156.9,62.3h-4.7l2.3-5.4L156.9,62.3L156.9,62.3z M155.4,54.3
		h-0.5l-6.6,14.6c0.2-0.1,0.5-0.1,0.7-0.1c0.2,0,0.5,0,0.8,0.1c0.6-2,1.3-3.8,2-5.7h5.2c0.8,1.9,1.7,3.9,2.3,5.7
		c0.4-0.1,0.7-0.1,1.1-0.1s0.7,0,1.1,0.1L155.4,54.3L155.4,54.3z"/>
	<path fill-rule="evenodd" clip-rule="evenodd" fill="#231F20" d="M179.6,68.8H179c-0.2-0.4-0.7-0.8-1.1-1.3l-9.1-10h-0.2v11.3
		c-0.2-0.1-0.4-0.1-0.6-0.1c-0.2,0-0.4,0-0.6,0.1V54.5h0.8l9.9,10.7h0.2V54.5c0.2,0,0.4,0.1,0.6,0.1c0.2,0,0.4-0.1,0.6-0.1V68.8
		L179.6,68.8z"/>
	<path fill-rule="evenodd" clip-rule="evenodd" fill="#231F20" d="M191.9,68.8c-0.4,0-0.6-0.1-1-0.1c-0.2,0-0.6,0.1-1,0.1V55.5
		c-2,0-3.3,0.1-4.5,0.4c0-0.2,0.1-0.5,0.1-0.7c0-0.1-0.1-0.4-0.1-0.6h10.7c0,0.2,0,0.5,0,0.6c0,0.2,0,0.5,0,0.7
		c-1-0.2-2.5-0.4-4.3-0.4V68.8L191.9,68.8z"/>
	<path fill-rule="evenodd" clip-rule="evenodd" fill="#231F20" d="M201.7,66c0.7,1.3,1.7,2.1,3.3,2.1c1.7,0,2.9-1.3,2.9-3
		c0-3.9-6.6-2.1-6.6-6.9c0-2.6,2.1-3.9,4.7-3.9c1.1,0,2.3,0.2,3,1c-0.2,0.6-0.4,1.1-0.5,1.7h-0.2c-0.5-1.1-1.4-1.8-2.6-1.8
		c-1.4,0-2.6,1-2.6,2.5c0,3.8,6.6,2.3,6.6,6.7c0,3-2.3,4.8-5.1,4.8c-1.1,0-2.7-0.5-3.3-1.2c0.1-0.6,0.2-1.3,0.4-1.9H201.7L201.7,66z
		"/>
</g>
</svg>
