<?xml version="1.0" encoding="utf-8"?>
<!-- Generator: Adobe Illustrator 17.1.0, SVG Export Plug-In . SVG Version: 6.00 Build 0)  -->
<!DOCTYPE svg PUBLIC "-//W3C//DTD SVG 1.1//EN" "http://www.w3.org/Graphics/SVG/1.1/DTD/svg11.dtd">
<svg version="1.1" id="Layer_1" xmlns="http://www.w3.org/2000/svg" xmlns:xlink="http://www.w3.org/1999/xlink" x="0px" y="0px"
	 viewBox="0 0 246 88" enable-background="new 0 0 246 88" xml:space="preserve">
<g>
	<rect x="50.5" y="19" fill-rule="evenodd" clip-rule="evenodd" fill="#005630" width="145" height="50"/>
	<g>
		<defs>
			<rect id="SVGID_1_" x="53.7" y="21.7" width="138.9" height="44.5"/>
		</defs>
		<use xlink:href="#SVGID_1_"  overflow="visible" fill="#FFC20E"/>
		<clipPath id="SVGID_2_">
			<use xlink:href="#SVGID_1_"  overflow="visible"/>
		</clipPath>
		<g clip-path="url(#SVGID_2_)">
			<g>
				<g>
					<polygon fill-rule="evenodd" clip-rule="evenodd" fill="#00944D" points="47.6,3.3 47.6,69 82,69 					"/>
					<path fill="#00944D" d="M82.3,69.2h-35V3.3l0.4-0.1L82.3,69.2z M47.8,68.8h33.9L47.8,4.1V68.8z"/>
				</g>
				<g>
					<polygon fill-rule="evenodd" clip-rule="evenodd" fill="#005826" points="46.5,19.3 46.5,69 73.3,69 					"/>
					<path fill="#005826" d="M73.7,69.2H46.3V19.3l0.4-0.1L73.7,69.2z M46.7,68.8H73L46.7,20.1V68.8z"/>
				</g>
				
					<rect x="22.3" y="35" transform="matrix(0.4637 0.886 -0.886 0.4637 67.7507 -39.9826)" fill="#00944D" width="89.2" height="2"/>
				
					<rect x="22.7" y="30.7" transform="matrix(0.4638 0.886 -0.886 0.4638 64.1514 -42.6075)" fill="#00944D" width="89.2" height="2"/>
			</g>
			<rect x="47.6" y="-7.9" fill="none" width="40.8" height="76.8"/>
		</g>
		<g clip-path="url(#SVGID_2_)">
			<g>
				<g>
					<polygon fill-rule="evenodd" clip-rule="evenodd" fill="#00944D" points="199.1,3.3 199.1,69 164.7,69 					"/>
					<path fill="#00944D" d="M199.3,69.2h-35l0.2-0.3l34.4-65.7l0.4,0.1V69.2z M165,68.8h33.9V4.1L165,68.8z"/>
				</g>
				<g>
					<polygon fill-rule="evenodd" clip-rule="evenodd" fill="#005826" points="200.2,19.3 200.2,69 173.4,69 					"/>
					<path fill="#005826" d="M200.4,69.2H173l0.2-0.3L200,19.2l0.4,0.1V69.2z M173.7,68.8H200V20.1L173.7,68.8z"/>
				</g>
				
					<rect x="178.8" y="-8.6" transform="matrix(0.8861 0.4635 -0.4635 0.8861 37.1504 -79.2239)" fill="#00944D" width="2" height="89.2"/>
				
					<rect x="178.4" y="-12.9" transform="matrix(0.8861 0.4635 -0.4635 0.8861 35.1222 -79.5411)" fill="#00944D" width="2" height="89.2"/>
			</g>
			<rect x="158.3" y="-7.9" fill="none" width="40.8" height="76.8"/>
		</g>
	</g>
	<path fill-rule="evenodd" clip-rule="evenodd" fill="#FFC20E" d="M190.1,64.7c0.7,0,1.2-0.5,1.2-1.2c0-0.7-0.5-1.2-1.2-1.2
		c-0.7,0-1.2,0.5-1.2,1.2C189,64.2,189.5,64.7,190.1,64.7z M190.1,62.5c0.5,0,1,0.4,1,1c0,0.5-0.4,1-1,1c-0.5,0-1-0.4-1-1
		C189.2,63,189.6,62.5,190.1,62.5z M190.3,63.6c0.2,0,0.4-0.1,0.4-0.4c0-0.3-0.2-0.3-0.5-0.3h-0.6v1.3h0.2v-0.6h0.2l0.3,0.6h0.2
		L190.3,63.6z M190.2,63.1c0.2,0,0.3,0,0.3,0.2c0,0.2-0.2,0.1-0.4,0.1h-0.2v-0.3H190.2z"/>
	<g>
		
			<linearGradient id="SVGID_3_" gradientUnits="userSpaceOnUse" x1="310.1897" y1="410.6842" x2="310.1897" y2="391.8445" gradientTransform="matrix(1 0 0 1 -187.1663 -349.5127)">
			<stop  offset="0" style="stop-color:#F8DD31"/>
			<stop  offset="0.2414" style="stop-color:#F7D931"/>
			<stop  offset="0.4916" style="stop-color:#F6CC32"/>
			<stop  offset="0.7457" style="stop-color:#F3B833"/>
			<stop  offset="1" style="stop-color:#EF9B35"/>
		</linearGradient>
		<path fill="url(#SVGID_3_)" d="M167.6,34.5c-1.2-1.4-3.1-1.6-4.9-0.6c-9.5,5.5-24,8.7-39.6,8.7c-15.7,0-30.1-3.2-39.6-8.7
			c-1.8-1-3.8-0.8-4.9,0.6c-1,1.2-1.1,3-0.1,4.5c4.3,6.5,10.7,12,18.6,15.9c7.9,3.8,16.9,5.8,26,5.8c9.1,0,18.1-2,26-5.8
			c7.9-3.8,14.4-9.3,18.6-15.9c0.5-0.7,0.7-1.5,0.7-2.2C168.4,35.9,168.1,35.2,167.6,34.5z"/>
		<g>
			<g>
				
					<linearGradient id="SVGID_4_" gradientUnits="userSpaceOnUse" x1="205.5961" y1="-368.0606" x2="237.3202" y2="-397.5468" gradientTransform="matrix(0.9797 0 0 0.8132 -98.6205 369.0515)">
					<stop  offset="0.324" style="stop-color:#FFC20E"/>
					<stop  offset="0.6507" style="stop-color:#F0A721"/>
					<stop  offset="0.9775" style="stop-color:#DF8836"/>
				</linearGradient>
				<path fill="url(#SVGID_4_)" d="M93.1,62.1c11.9,3.6,23.2,4.5,33.4,2.9c6.9-1.1,13.5-3.7,20.2-7c-7.1,2.7-14.2,4.2-21.2,4.4
					c-10.4,0.4-21.3-2-32.5-7"/>
			</g>
			<g>
				
					<linearGradient id="SVGID_5_" gradientUnits="userSpaceOnUse" x1="8248.0762" y1="1219.6146" x2="8255.2998" y2="1219.6146" gradientTransform="matrix(-0.979 -0.204 -0.204 0.979 8494.4229 523.0376)">
					<stop  offset="0" style="stop-color:#EEA434"/>
					<stop  offset="0.2434" style="stop-color:#E59732"/>
					<stop  offset="0.6889" style="stop-color:#D98430"/>
					<stop  offset="1" style="stop-color:#D47D2F"/>
				</linearGradient>
				<path fill="url(#SVGID_5_)" d="M169.9,32.3c1.1,1.1,1,2.9,0.1,4.5c0.5-1.2,0.1-2.8-1.2-3.9c-1.4-1.2-3.5-1.4-4.9-0.7
					C166.1,30.9,168.6,30.9,169.9,32.3z"/>
			</g>
			<g>
				
					<linearGradient id="SVGID_6_" gradientUnits="userSpaceOnUse" x1="1013.0554" y1="-287.9895" x2="1020.2798" y2="-287.9895" gradientTransform="matrix(0.979 -0.204 0.204 0.979 -857.7466 523.0376)">
					<stop  offset="0" style="stop-color:#EEA434"/>
					<stop  offset="0.2434" style="stop-color:#E59732"/>
					<stop  offset="0.6889" style="stop-color:#D98430"/>
					<stop  offset="1" style="stop-color:#D47D2F"/>
				</linearGradient>
				<path fill="url(#SVGID_6_)" d="M76.1,32.3c-1.1,1.1-1,2.9-0.1,4.5c-0.5-1.2-0.1-2.8,1.2-3.9c1.4-1.2,3.5-1.4,4.9-0.7
					C80,30.9,77.4,30.9,76.1,32.3z"/>
			</g>
		</g>
		
			<linearGradient id="SVGID_7_" gradientUnits="userSpaceOnUse" x1="235.1601" y1="376.0079" x2="324.226" y2="376.0079" gradientTransform="matrix(1 0 0 1 -156.6711 -329.1733)">
			<stop  offset="0" style="stop-color:#E73530"/>
			<stop  offset="7.009319e-02" style="stop-color:#EB6432"/>
			<stop  offset="0.1461" style="stop-color:#EF9B35"/>
			<stop  offset="0.1637" style="stop-color:#F0A435"/>
			<stop  offset="0.2604" style="stop-color:#F7D237"/>
			<stop  offset="0.309" style="stop-color:#F9E437"/>
			<stop  offset="0.3473" style="stop-color:#C4D43D"/>
			<stop  offset="0.4113" style="stop-color:#71BC47"/>
			<stop  offset="0.4639" style="stop-color:#34AA4F"/>
			<stop  offset="0.5023" style="stop-color:#0E9F53"/>
			<stop  offset="0.5225" style="stop-color:#009B55"/>
			<stop  offset="0.6798" style="stop-color:#00A7D8"/>
			<stop  offset="0.7034" style="stop-color:#049FD3"/>
			<stop  offset="0.7407" style="stop-color:#0F88C4"/>
			<stop  offset="0.7871" style="stop-color:#2063AC"/>
			<stop  offset="0.8371" style="stop-color:#37338D"/>
			<stop  offset="0.9033" style="stop-color:#84268A"/>
			<stop  offset="0.9694" style="stop-color:#CC1B88"/>
			<stop  offset="1" style="stop-color:#E81687"/>
		</linearGradient>
		<path fill="url(#SVGID_7_)" d="M166.9,35.1c-1-1.2-2.6-1.1-3.9-0.4c-9.5,5.5-24,9.1-40,9.1h0c-16,0-30.5-3.6-40-9.1
			c-1.3-0.7-2.9-0.8-3.9,0.4c-0.8,1-0.8,2.4-0.1,3.5c8.9,12.7,25.6,21,44,21c18.3,0,35.1-8.3,44-21
			C167.7,37.5,167.8,36.1,166.9,35.1z"/>
		
			<linearGradient id="SVGID_8_" gradientUnits="userSpaceOnUse" x1="94.0991" y1="63.7176" x2="183.1014" y2="63.7176" gradientTransform="matrix(1 0 0 1 -15.6101 -24.1938)">
			<stop  offset="0" style="stop-color:#BD2B31"/>
			<stop  offset="0.1461" style="stop-color:#DD7932"/>
			<stop  offset="0.309" style="stop-color:#F1C32D"/>
			<stop  offset="0.3425" style="stop-color:#C4B733"/>
			<stop  offset="0.4083" style="stop-color:#71A23E"/>
			<stop  offset="0.4623" style="stop-color:#349246"/>
			<stop  offset="0.5018" style="stop-color:#0E884B"/>
			<stop  offset="0.5225" style="stop-color:#00844D"/>
			<stop  offset="0.6798" style="stop-color:#008FBD"/>
			<stop  offset="0.7084" style="stop-color:#0587B6"/>
			<stop  offset="0.7535" style="stop-color:#1370A5"/>
			<stop  offset="0.8094" style="stop-color:#294B88"/>
			<stop  offset="0.8371" style="stop-color:#363677"/>
			<stop  offset="0.8719" style="stop-color:#543576"/>
			<stop  offset="0.9593" style="stop-color:#9B3273"/>
			<stop  offset="1" style="stop-color:#B73172"/>
		</linearGradient>
		<path fill="url(#SVGID_8_)" d="M79.7,36.2c1-1.2,2.6-1.1,3.9-0.4c9.5,5.5,24,9.1,40,9.1h0c16,0,30.5-3.6,40-9.1
			c1.3-0.7,2.9-0.8,3.8,0.4c-0.1-0.4-0.3-0.8-0.6-1.1c-1-1.2-2.6-1.1-3.9-0.4c-9.5,5.5-24,9.1-40,9.1h0c-16,0-30.5-3.6-40-9.1
			c-1.3-0.7-2.9-0.8-3.9,0.4c-0.8,1-0.8,2.4-0.1,3.5c0,0.1,0.1,0.1,0.1,0.2C79,37.9,79.1,36.9,79.7,36.2z"/>
		<g>
			<path fill="#FFF100" d="M141.4,24.9c-1,0.4-1.5,1.3-1.4,2.3c0,0,0,0,0,0c0,0.3,0.1,0.6,0.1,1.7v0.2c-1.2-0.9-2.9-1.5-4.9-1.5h0
				c-1.6,0-3.1,0.4-4.3,1.2c-0.1,0.1-0.2,0.1-0.3,0.2c-0.3-0.4-0.9-0.9-1.9-1.1c0,0,0,0,0,0c-0.7-0.1-1.3-0.2-1.8-0.2
				c0,0-0.3,0-0.3,0c-0.9-0.1-1.8,0.3-2.2,1.1c-0.7-0.9-1.6-1.1-2.3-1.1c-1.1,0-2.6,0.4-3.4,0.7l0,0c0,0,0,0,0,0
				c-0.7-0.5-1.5-0.8-2.4-0.8c-0.4,0-0.9,0.1-1.3,0.2c-0.5-0.1-1-0.2-1.6-0.2c-1.6,0-3.2,0.5-4.4,1.3l-0.1-0.1
				c-0.7-0.7-1.8-1.2-2.9-1.2c-0.8,0-1.6,0.2-2.3,0.6c-0.6-0.4-1.3-0.6-2.1-0.6c-0.2,0-0.5,0-0.7,0.1c0-0.1,0-0.1,0-0.2
				c0,0,0-0.1,0-0.1c0,0-0.6-1.4-0.6-1.4l0,0c-1-1.1-3-1.7-5.3-1.7c-2.5,0-4.7,0.7-6.4,2.2c-1.9,1.6-2.9,3.9-2.9,6.5
				c0,5.1,3.7,8.5,9.3,8.5c0.8,0,2.8-0.1,4.1-1c0.4,0.3,0.9,0.4,1.4,0.4h0c1,0,1.8,0,2.8-0.1c1.6-0.2,2.6-1.3,2.6-2.8
				c0,0,0-2.4,0-3.2c0.1,0,0.1,0,0.2,0c0.1,3.6,2.8,6.2,6.6,6.2c0.7,0,1.4-0.2,2.2-0.4c0.6,0.3,1.3,0.4,2.1,0.4c0.3,0,0.5,0,0.8-0.1
				c0,0.1,0,0.3,0,0.4v0.1c0,0.5,0.2,1.1,0.6,1.5c0.7,0.8,2.2,1.7,3.8,1.7c2.8,0,5.4-4.2,6.2-5.5c0.2-0.5,0.5-0.9,0.8-1.5
				c1.2,2.1,3.6,3.4,6.5,3.4c1.8,0,3.4-0.5,4.7-1.4c0.1-0.1,0.3-0.2,0.4-0.3c0.4,1,1.3,1.7,2.5,1.7c0,0,2.4,0,3.2-0.2c0,0,0,0,0,0
				c0.7-0.1,1.3-0.6,1.6-1.1c1.1,0.9,2.6,1.4,4.3,1.4c0.7,0,1.4-0.2,2.2-0.4c0.6,0.3,1.3,0.4,2.1,0.4c2.2,0,3.9-1.9,4-3.6
				c0-0.1,0-0.1,0-0.2c0-0.9-0.4-1.6-1.1-2.1c0-0.9,0-2,0-2.5c0.3-0.5,0.5-1,0.5-1.6c0-0.5-0.1-1.1-0.4-1.6
				c-0.7-1.2-1.9-1.9-3.4-1.9c-0.4,0-0.9,0.1-1.3,0.2c-0.5-0.1-1-0.2-1.6-0.2c-1.8,0-3.6,0.6-4.9,1.7c0,0,0,0,0,0v-1.5
				c0-0.7,0-1.3-0.2-1.8c-0.4-1.1-1.4-1.7-2.6-1.7c-0.6,0-2.5,0.2-3.4,0.5L141.4,24.9z"/>
		</g>
		<g>
			
				<linearGradient id="SVGID_9_" gradientUnits="userSpaceOnUse" x1="-971.4124" y1="-807.6649" x2="-971.4124" y2="-793.3427" gradientTransform="matrix(0.7476 0 0 0.7232 829.4137 613.2734)">
				<stop  offset="0" style="stop-color:#006A40"/>
				<stop  offset="1" style="stop-color:#003D22"/>
			</linearGradient>
			<path fill="url(#SVGID_9_)" d="M107.5,30.1L107.5,30.1l-0.2-0.3c-0.3-0.3-1-0.7-1.7-0.7c-0.9,0-1.8,0.4-2.5,1.1
				c-0.5-0.9-1.4-1.1-1.9-1.1c-0.3,0-0.7,0.1-0.9,0.1c0,0,0,0,0,0c-1,0.3-1.4,1.2-1.4,1.6c0,0.1,0,0.1,0,0.2c0,0.5,0.2,0.8,0.5,0.9
				c0,0,0,0,0.1,0c0,0,0,3.1,0,3.1c0,1.1,0,2.3-0.1,3.4l0,0c0,0,0,0,0,0c0,0.2,0.1,0.3,0.2,0.5c0.1,0.1,0.3,0.2,0.5,0.2h0
				c0.9,0,1.7,0,2.6-0.1c0.8-0.1,1.2-0.5,1.2-1.2v-3.7c0-0.3,0-0.4,0.1-0.6c0.2-0.5,0.6-0.6,0.6-0.6c0.2,0,0.4,0,0.7,0.1
				c0.6,0.2,1.2,0,1.6-0.5c0.5-0.6,0.7-1.5,0.7-2.2C107.5,30.3,107.5,30.2,107.5,30.1z"/>
			
				<linearGradient id="SVGID_10_" gradientUnits="userSpaceOnUse" x1="-943.6544" y1="-807.6707" x2="-943.6544" y2="-793.3444" gradientTransform="matrix(0.7476 0 0 0.7232 829.4137 613.2734)">
				<stop  offset="0" style="stop-color:#006A40"/>
				<stop  offset="1" style="stop-color:#003D22"/>
			</linearGradient>
			<path fill="url(#SVGID_10_)" d="M119.2,40.7c-0.2,0.1-0.4,0.3-0.4,0.6v0.1c0,0.1,0.1,0.3,0.2,0.4c0.4,0.4,1.4,1.1,2.6,1.1
				c1.2,0,3.1-1.9,4.7-4.7c1.1-2.1,2.4-5,3-7.2c0.1-0.3,0.2-0.7-0.1-1.1c-0.2-0.3-0.5-0.5-1-0.6c0,0,0,0,0,0
				c-0.6-0.1-1.1-0.2-1.6-0.2c0,0-0.3,0-0.3,0c-0.3,0-0.7,0.2-0.7,0.5l0,0c-0.2,0.8-0.5,2.2-1,3.6c-0.5-1.1-1-2.4-1.3-3.2
				c-0.1-0.3-0.5-1-1.4-1h0c-0.7,0-2,0.3-2.8,0.6l0,0c-0.2,0.1-0.3,0.2-0.4,0.4l0,0.2l0.1,0.3l0,0c0.6,1,1.8,3.7,2.5,5.4l0.1,0.1
				c0,0,0.6,1.2,0.6,1.2c0,0,0.1,0.2,0.2,0.3C121.2,39,119.9,40.4,119.2,40.7L119.2,40.7z"/>
			
				<linearGradient id="SVGID_11_" gradientUnits="userSpaceOnUse" x1="-928.8287" y1="-807.6639" x2="-928.8287" y2="-793.3416" gradientTransform="matrix(0.7476 0 0 0.7232 829.4137 613.2734)">
				<stop  offset="0" style="stop-color:#006A40"/>
				<stop  offset="1" style="stop-color:#003D22"/>
			</linearGradient>
			<path fill="url(#SVGID_11_)" d="M135,29.1L135,29.1c-1.2,0-2.5,0.3-3.4,0.9c-1.5,1-2.4,2.5-2.4,4.3c0,3.5,2.9,5.1,5.7,5.1
				c1.5,0,2.7-0.4,3.7-1.1c1.3-1,2.1-2.4,2.1-4.2C140.8,31.7,139,29.1,135,29.1z M135.2,36.2c-1.2,0-1.6-1.1-1.6-2
				c0-0.7,0.2-1.8,1.3-1.8h0c1.1,0,1.5,1.1,1.5,1.9C136.5,36.2,135.5,36.2,135.2,36.2z"/>
			
				<linearGradient id="SVGID_12_" gradientUnits="userSpaceOnUse" x1="-917.0679" y1="-807.665" x2="-917.0679" y2="-793.3414" gradientTransform="matrix(0.7476 0 0 0.7232 829.4137 613.2734)">
				<stop  offset="0" style="stop-color:#006A40"/>
				<stop  offset="1" style="stop-color:#003D22"/>
			</linearGradient>
			<path fill="url(#SVGID_12_)" d="M146,35.9v-8.2c0-0.9,0-1.9-1.2-1.9c-0.6,0-2.3,0.2-2.8,0.4c0,0,0,0,0,0
				c-0.3,0.1-0.4,0.4-0.4,0.7l0,0c0,0.4,0.1,0.8,0.1,1.9v9.5c0,0.6,0.4,0.9,1,0.9c0.2,0,2.3-0.1,2.9-0.2l0,0
				c0.3-0.1,0.6-0.4,0.5-0.7l0,0C146.1,37.9,146,36.8,146,35.9z"/>
			
				<linearGradient id="SVGID_13_" gradientUnits="userSpaceOnUse" x1="-985.1547" y1="-807.6646" x2="-985.1547" y2="-793.3432" gradientTransform="matrix(0.7476 0 0 0.7232 829.4137 613.2734)">
				<stop  offset="0" style="stop-color:#006A40"/>
				<stop  offset="1" style="stop-color:#003D22"/>
			</linearGradient>
			<path fill="url(#SVGID_13_)" d="M98.3,36L98,35.9c0,0-0.4,0-0.4,0l-0.1,0c-0.3,0.1-1.2,0.4-2.5,0.4c-2.6,0-3.6-1.9-3.6-3.6
				c0-2.6,1.6-3.5,3-3.5c1.1,0,1.7,0.2,1.9,0.3c1,0.4,1.6,0,1.9-0.3c0.3-0.3,0.6-0.9,0.6-1.8l0-0.1L98.7,27l0,0
				c-0.6-0.6-2.1-1.2-4.1-1.2c-2.1,0-3.9,0.6-5.3,1.8c-1.5,1.3-2.3,3.2-2.3,5.3c0,4.2,2.9,6.9,7.6,6.9c1.3,0,2.5-0.3,3.2-0.7l0,0
				l0.1-0.1c0,0,0,0,0,0c0.5-0.5,0.7-1.1,0.9-2l0-0.1C98.8,36.4,98.6,36.1,98.3,36z"/>
			
				<linearGradient id="SVGID_14_" gradientUnits="userSpaceOnUse" x1="-958.2871" y1="-807.6667" x2="-958.2871" y2="-793.3439" gradientTransform="matrix(0.7476 0 0 0.7232 829.4137 613.2734)">
				<stop  offset="0" style="stop-color:#006A40"/>
				<stop  offset="1" style="stop-color:#003D22"/>
			</linearGradient>
			<path fill="url(#SVGID_14_)" d="M117.9,36.3c-0.2,0-0.3-0.1-0.3-0.1c0,0,0,0,0-0.2v-4c0,0,0,0,0.1-0.1c0,0,0.1-0.2,0.1-0.2
				c0,0,0,0,0,0c0.1-0.2,0.2-0.4,0.2-0.7c0-0.3-0.1-0.6-0.2-0.9c-0.2-0.3-0.7-1.1-2-1.1c-0.4,0-0.8,0.1-1.2,0.3
				c-0.5-0.2-1.1-0.3-1.7-0.3c-1.4,0-2.8,0.5-3.8,1.3c-1.3,1-1.9,2.5-1.9,4.2c0,2.9,2,4.8,4.9,4.8c0.8,0,1.5-0.2,2.3-0.7
				c0.4,0.4,1,0.7,1.9,0.7c1.3,0,2.3-1.2,2.3-2.1C118.7,36.7,118.3,36.4,117.9,36.3z M113,36.1c-0.7,0-1.5-0.6-1.5-1.9
				c0-1.4,0.8-2,1.6-2c0.1,0,0.2,0,0.3,0c0,0.6,0,3.3,0,3.7C113.3,36,113.1,36.1,113,36.1z"/>
			
				<linearGradient id="SVGID_15_" gradientUnits="userSpaceOnUse" x1="-951.3963" y1="-797.7863" x2="-951.3963" y2="-797.7863" gradientTransform="matrix(0.7476 0 0 0.7232 829.4137 613.2734)">
				<stop  offset="0" style="stop-color:#006A40"/>
				<stop  offset="1" style="stop-color:#003D22"/>
			</linearGradient>
			<polygon fill="url(#SVGID_15_)" points="118.1,36.3 118.1,36.3 118.2,36.3 			"/>
			
				<linearGradient id="SVGID_16_" gradientUnits="userSpaceOnUse" x1="-905.3777" y1="-807.6667" x2="-905.3777" y2="-793.3439" gradientTransform="matrix(0.7476 0 0 0.7232 829.4137 613.2734)">
				<stop  offset="0" style="stop-color:#006A40"/>
				<stop  offset="1" style="stop-color:#003D22"/>
			</linearGradient>
			<path fill="url(#SVGID_16_)" d="M157.5,36.3C157.5,36.3,157.5,36.3,157.5,36.3c-0.2,0-0.3-0.1-0.3-0.1c0,0,0,0,0-0.2v-4
				c0,0,0,0,0.1-0.1c0,0,0.1-0.2,0.1-0.2c0,0,0,0,0,0c0.1-0.2,0.2-0.4,0.2-0.7c0-0.3-0.1-0.6-0.2-0.9c-0.2-0.3-0.7-1.1-2-1.1
				c-0.4,0-0.8,0.1-1.2,0.3c-0.5-0.2-1.1-0.3-1.7-0.3c-1.4,0-2.8,0.5-3.8,1.3c-1.3,1-1.9,2.5-1.9,4.2c0,2.9,2,4.8,4.9,4.8
				c0.8,0,1.5-0.2,2.3-0.7c0.4,0.4,1,0.7,1.9,0.7c1.3,0,2.3-1.2,2.3-2.1C158.3,36.7,157.9,36.4,157.5,36.3z M152.6,36.1
				c-0.7,0-1.5-0.6-1.5-1.9c0-1.4,0.9-2,1.6-2c0.1,0,0.2,0,0.3,0c0,0.6,0,3.3,0,3.7C152.8,36,152.7,36.1,152.6,36.1z"/>
		</g>
		<g>
			
				<linearGradient id="SVGID_17_" gradientUnits="userSpaceOnUse" x1="-971.4127" y1="-807.5378" x2="-971.4127" y2="-792.1506" gradientTransform="matrix(0.7476 0 0 0.7232 829.4137 612.5498)">
				<stop  offset="0" style="stop-color:#009F52"/>
				<stop  offset="0.5" style="stop-color:#007847"/>
				<stop  offset="0.6381" style="stop-color:#007042"/>
				<stop  offset="0.8571" style="stop-color:#005933"/>
				<stop  offset="1" style="stop-color:#004627"/>
			</linearGradient>
			<path fill="url(#SVGID_17_)" d="M107,30.2c0,0,0-0.1-0.1-0.1l0,0c-0.2-0.2-0.8-0.5-1.4-0.5c-1.1,0-1.9,0.5-2.6,1.5
				c-0.3-1.2-1.1-1.5-1.8-1.5c-0.3,0-0.6,0.1-0.8,0.1c-1,0.3-1.1,1.2-1.1,1.2c0,0.4,0,0.6,0.2,0.7c0,0,0,0,0,0
				c0.2,0.1,0.3,0.2,0.3,0.4v3.1c0,1.1,0,2.3-0.1,3.4l0,0c0,0,0,0.1,0.1,0.1c0,0,0.1,0.1,0.1,0.1h0c0.9,0,1.7,0,2.5-0.1
				c0.6-0.1,0.7-0.3,0.7-0.7v-3.7c0-0.4,0-0.6,0.2-0.8c0.3-0.6,0.8-0.8,1.1-0.8c0.2,0,0.4,0,0.8,0.1c0.4,0.1,0.8,0,1.1-0.4
				C107,31.7,107.1,30.6,107,30.2z"/>
			
				<linearGradient id="SVGID_18_" gradientUnits="userSpaceOnUse" x1="-943.6556" y1="-807.5384" x2="-943.6556" y2="-792.153" gradientTransform="matrix(0.7476 0 0 0.7232 829.4137 612.5498)">
				<stop  offset="0" style="stop-color:#009F52"/>
				<stop  offset="0.5" style="stop-color:#007847"/>
				<stop  offset="0.6381" style="stop-color:#007042"/>
				<stop  offset="0.8571" style="stop-color:#005933"/>
				<stop  offset="1" style="stop-color:#004627"/>
			</linearGradient>
			<path fill="url(#SVGID_18_)" d="M128.1,29.8C128.1,29.8,128.1,29.8,128.1,29.8c-0.6-0.1-1.1-0.2-1.6-0.2c0,0-0.3,0-0.3,0
				c-0.1,0-0.2,0.1-0.2,0.1l0,0c-0.2,1.2-0.8,3.2-1.4,5c-0.5-1.4-1.3-3.3-1.8-4.4c-0.1-0.3-0.3-0.7-0.9-0.7h0
				c-0.6,0-1.8,0.3-2.6,0.6l0,0c-0.1,0-0.1,0.1-0.1,0.1c0,0,0,0,0,0.1c0,0,0,0.1,0,0.1l0,0c0.6,1,1.8,3.8,2.6,5.4l0.1,0.1
				c0,0,0.6,1.2,0.6,1.2c0.1,0.3,0.2,0.5,0.3,0.5c-0.8,1.4-2.3,2.9-3.1,3.3l0,0c-0.1,0-0.1,0.1-0.1,0.2v0.1c0,0,0,0.1,0.1,0.1
				c0.3,0.4,1.2,0.9,2.2,0.9c0.9,0,2.7-1.6,4.3-4.4c1.1-2,2.3-5,3-7.1c0.1-0.3,0.1-0.6,0-0.8C128.7,30,128.4,29.9,128.1,29.8z"/>
			
				<linearGradient id="SVGID_19_" gradientUnits="userSpaceOnUse" x1="-928.8292" y1="-807.5376" x2="-928.8292" y2="-792.1504" gradientTransform="matrix(0.7476 0 0 0.7232 829.4137 612.5498)">
				<stop  offset="0" style="stop-color:#009F52"/>
				<stop  offset="0.5" style="stop-color:#007847"/>
				<stop  offset="0.6381" style="stop-color:#007042"/>
				<stop  offset="0.8571" style="stop-color:#005933"/>
				<stop  offset="1" style="stop-color:#004627"/>
			</linearGradient>
			<path fill="url(#SVGID_19_)" d="M135,29.6L135,29.6c-1.2,0-2.3,0.3-3.1,0.8c-1.4,0.9-2.1,2.3-2.1,3.9c0,3.2,2.6,4.6,5.2,4.6
				c1.4,0,2.5-0.3,3.4-1c1.2-0.9,1.9-2.2,1.9-3.8C140.3,31.9,138.6,29.6,135,29.6z M135.2,36.6c-1.2,0-2-1-2-2.5
				c0-1.4,0.7-2.3,1.8-2.3h0c1.4,0,2,1.2,2,2.4C137,35.3,136.6,36.6,135.2,36.6z"/>
			
				<linearGradient id="SVGID_20_" gradientUnits="userSpaceOnUse" x1="-917.0671" y1="-807.539" x2="-917.0671" y2="-792.1521" gradientTransform="matrix(0.7476 0 0 0.7232 829.4137 612.5498)">
				<stop  offset="0" style="stop-color:#009F52"/>
				<stop  offset="0.5" style="stop-color:#007847"/>
				<stop  offset="0.6381" style="stop-color:#007042"/>
				<stop  offset="0.8571" style="stop-color:#005933"/>
				<stop  offset="1" style="stop-color:#004627"/>
			</linearGradient>
			<path fill="url(#SVGID_20_)" d="M145.5,35.9v-8.2c0-1,0-1.5-0.7-1.5c-0.6,0-2.2,0.2-2.7,0.4l0,0c-0.1,0-0.1,0.1-0.1,0.2l0,0
				c0,0.4,0.1,0.8,0.1,2v9.5c0,0.2,0.1,0.5,0.5,0.5c0.3,0,2.3-0.1,2.8-0.2l0,0c0.1,0,0.2-0.1,0.2-0.2l0,0
				C145.6,37.9,145.5,36.9,145.5,35.9z"/>
			
				<linearGradient id="SVGID_21_" gradientUnits="userSpaceOnUse" x1="-985.1542" y1="-807.5377" x2="-985.1542" y2="-792.1519" gradientTransform="matrix(0.7476 0 0 0.7232 829.4137 612.5498)">
				<stop  offset="0" style="stop-color:#009F52"/>
				<stop  offset="0.5" style="stop-color:#007847"/>
				<stop  offset="0.6381" style="stop-color:#007042"/>
				<stop  offset="0.8571" style="stop-color:#005933"/>
				<stop  offset="1" style="stop-color:#004627"/>
			</linearGradient>
			<path fill="url(#SVGID_21_)" d="M94.4,28.8c1.2,0,1.9,0.3,2.1,0.3c0.6,0.2,1.1,0.2,1.4-0.2c0.2-0.3,0.5-0.7,0.5-1.4l0-0.1
				c0,0,0-0.1-0.1-0.1l0,0c-0.5-0.5-1.9-1-3.7-1c-2,0-3.7,0.6-5,1.7c-1.4,1.2-2.2,3-2.2,5c0,4,2.7,6.4,7.1,6.4
				c1.2,0,2.3-0.2,2.9-0.6l0,0c0,0,0,0,0,0l0,0c0.4-0.5,0.6-1,0.7-1.8l0-0.1c0-0.1,0-0.2-0.1-0.2l-0.3-0.1c0,0-0.1,0-0.1,0l-0.1,0
				c-0.3,0.1-1.3,0.4-2.7,0.4c-2.8,0-4.1-2-4.1-4C90.9,30,92.7,28.8,94.4,28.8z"/>
			
				<linearGradient id="SVGID_22_" gradientUnits="userSpaceOnUse" x1="-958.2866" y1="-807.5377" x2="-958.2866" y2="-792.1511" gradientTransform="matrix(0.7476 0 0 0.7232 829.4137 612.5498)">
				<stop  offset="0" style="stop-color:#009F52"/>
				<stop  offset="0.5" style="stop-color:#007847"/>
				<stop  offset="0.6381" style="stop-color:#007042"/>
				<stop  offset="0.8571" style="stop-color:#005933"/>
				<stop  offset="1" style="stop-color:#004627"/>
			</linearGradient>
			<path fill="url(#SVGID_22_)" d="M117.9,36.8c-0.6-0.1-0.7-0.2-0.7-0.7v-4c0-0.2,0.1-0.3,0.2-0.4l0.1-0.2c0.2-0.3,0.2-0.7-0.1-1.1
				c-0.2-0.3-0.6-0.8-1.5-0.8c-0.4,0-0.8,0.1-1.1,0.3c-0.4-0.1-1-0.3-1.7-0.3c-1.3,0-2.6,0.4-3.5,1.2c-1.2,0.9-1.8,2.2-1.8,3.8
				c0,2.6,1.8,4.3,4.4,4.3c0.8,0,1.5-0.3,2.4-0.8c0.4,0.5,0.9,0.8,1.8,0.8c1.1,0,1.8-1.1,1.8-1.6C118.2,36.9,118,36.8,117.9,36.8z
				 M113,36.5c-1,0-2-0.7-2-2.4c0-1.6,1.1-2.5,2.1-2.5c0.3,0,0.6,0.1,0.8,0.1c0,0.2,0,4.2,0,4.3C113.7,36.4,113.3,36.5,113,36.5z"/>
			
				<linearGradient id="SVGID_23_" gradientUnits="userSpaceOnUse" x1="-905.3759" y1="-807.5377" x2="-905.3759" y2="-792.1511" gradientTransform="matrix(0.7476 0 0 0.7232 829.4137 612.5498)">
				<stop  offset="0" style="stop-color:#009F52"/>
				<stop  offset="0.5" style="stop-color:#007847"/>
				<stop  offset="0.6381" style="stop-color:#007042"/>
				<stop  offset="0.8571" style="stop-color:#005933"/>
				<stop  offset="1" style="stop-color:#004627"/>
			</linearGradient>
			<path fill="url(#SVGID_23_)" d="M157.4,36.8c-0.6-0.1-0.7-0.2-0.7-0.7v-4c0-0.2,0.1-0.3,0.2-0.4l0.1-0.2c0.2-0.3,0.2-0.7-0.1-1.1
				c-0.2-0.3-0.6-0.8-1.5-0.8c-0.4,0-0.8,0.1-1.1,0.3c-0.4-0.1-1-0.3-1.7-0.3c-1.3,0-2.6,0.4-3.5,1.2c-1.2,0.9-1.8,2.2-1.8,3.8
				c0,2.6,1.8,4.3,4.4,4.3c0.8,0,1.5-0.3,2.4-0.8c0.4,0.5,0.9,0.8,1.9,0.8c1.1,0,1.8-1.1,1.8-1.6C157.8,36.9,157.6,36.8,157.4,36.8z
				 M152.6,36.5c-1,0-2-0.7-2-2.4c0-1.6,1.1-2.5,2.1-2.5c0.3,0,0.6,0.1,0.8,0.1c0,0.2,0,4.2,0,4.3C153.2,36.4,152.8,36.5,152.6,36.5
				z"/>
		</g>
		<g>
			<g>
				
					<linearGradient id="SVGID_24_" gradientUnits="userSpaceOnUse" x1="-976.1694" y1="-803.6436" x2="-976.1694" y2="-803.6428" gradientTransform="matrix(0.7476 0 0 0.7232 829.4137 612.5498)">
					<stop  offset="5.618000e-03" style="stop-color:#A5C646"/>
					<stop  offset="0.3652" style="stop-color:#00A550"/>
					<stop  offset="1" style="stop-color:#009452"/>
				</linearGradient>
				<polygon fill="url(#SVGID_24_)" points="99.6,31.4 99.6,31.4 99.6,31.4 				"/>
				
					<linearGradient id="SVGID_25_" gradientUnits="userSpaceOnUse" x1="-976.1749" y1="-803.6483" x2="-976.1749" y2="-803.6436" gradientTransform="matrix(0.7476 0 0 0.7232 829.4137 612.5498)">
					<stop  offset="5.618000e-03" style="stop-color:#A5C646"/>
					<stop  offset="0.3652" style="stop-color:#00A550"/>
					<stop  offset="1" style="stop-color:#009452"/>
				</linearGradient>
				<path fill="url(#SVGID_25_)" d="M99.6,31.4C99.6,31.4,99.6,31.4,99.6,31.4C99.6,31.4,99.6,31.4,99.6,31.4z"/>
				
					<linearGradient id="SVGID_26_" gradientUnits="userSpaceOnUse" x1="-969.1041" y1="-808.1846" x2="-969.1041" y2="-793.126" gradientTransform="matrix(0.7476 0 0 0.7232 829.4137 612.5498)">
					<stop  offset="5.618000e-03" style="stop-color:#A5C646"/>
					<stop  offset="0.3652" style="stop-color:#00A550"/>
					<stop  offset="1" style="stop-color:#009452"/>
				</linearGradient>
				<path fill="url(#SVGID_26_)" d="M103.1,32l0.3-0.5c0.6-0.9,1.4-1.4,2.4-1.4c0.4,0,0.7,0.1,0.9,0.2c0,0,0-0.1,0-0.1
					c-0.2-0.2-0.6-0.4-1.2-0.4c-1,0-1.8,0.5-2.4,1.4l-0.2,0.3L103.1,32z"/>
				
					<linearGradient id="SVGID_27_" gradientUnits="userSpaceOnUse" x1="-975.3587" y1="-808.1844" x2="-975.3587" y2="-793.123" gradientTransform="matrix(0.7476 0 0 0.7232 829.4137 612.5498)">
					<stop  offset="5.618000e-03" style="stop-color:#A5C646"/>
					<stop  offset="0.3652" style="stop-color:#00A550"/>
					<stop  offset="1" style="stop-color:#009452"/>
				</linearGradient>
				<path fill="url(#SVGID_27_)" d="M100.1,38.5c0.1,0,0.2,0,0.3,0c0-1,0.1-2.1,0.1-3.2v-3.1c0-0.3-0.1-0.5-0.3-0.6
					c0,0.1,0.1,0.2,0.1,0.3v3.1C100.1,36.2,100.1,37.4,100.1,38.5z"/>
				
					<linearGradient id="SVGID_28_" gradientUnits="userSpaceOnUse" x1="-974.3455" y1="-808.1858" x2="-974.3455" y2="-793.1201" gradientTransform="matrix(0.7476 0 0 0.7232 829.4137 612.5498)">
					<stop  offset="5.618000e-03" style="stop-color:#A5C646"/>
					<stop  offset="0.3652" style="stop-color:#00A550"/>
					<stop  offset="1" style="stop-color:#009452"/>
				</linearGradient>
				<path fill="url(#SVGID_28_)" d="M99.9,31.2c0,0,0.1-0.8,0.9-1c0.2-0.1,0.5-0.1,0.8-0.1c0.4,0,0.7,0.1,0.9,0.3
					c-0.3-0.4-0.7-0.5-1.2-0.5c-0.3,0-0.5,0.1-0.8,0.1c-0.8,0.2-0.9,1-0.9,1c0,0.3,0,0.4,0,0.4c0.1,0,0.2,0.1,0.2,0.1
					C99.8,31.4,99.8,31.3,99.9,31.2z"/>
				
					<linearGradient id="SVGID_29_" gradientUnits="userSpaceOnUse" x1="-976.1661" y1="-803.6428" x2="-976.1661" y2="-803.642" gradientTransform="matrix(0.7476 0 0 0.7232 829.4137 612.5498)">
					<stop  offset="5.618000e-03" style="stop-color:#A5C646"/>
					<stop  offset="0.3652" style="stop-color:#00A550"/>
					<stop  offset="1" style="stop-color:#009452"/>
				</linearGradient>
				<polygon fill="url(#SVGID_29_)" points="99.6,31.4 99.6,31.4 99.6,31.4 				"/>
			</g>
			<g>
				
					<linearGradient id="SVGID_30_" gradientUnits="userSpaceOnUse" x1="-940.1024" y1="-808.1848" x2="-940.1024" y2="-793.126" gradientTransform="matrix(0.7476 0 0 0.7232 829.4137 612.5498)">
					<stop  offset="5.618000e-03" style="stop-color:#A5C646"/>
					<stop  offset="0.3652" style="stop-color:#00A550"/>
					<stop  offset="1" style="stop-color:#009452"/>
				</linearGradient>
				<path fill="url(#SVGID_30_)" d="M124.8,35.7L125,35c0.6-1.8,1.2-3.9,1.4-5c0.1,0,0.3,0,0.3,0c0.5,0,1,0.1,1.6,0.2
					c0.1,0,0.2,0.1,0.3,0.1c0,0,0-0.1,0-0.1c0-0.1-0.1-0.2-0.5-0.3c-0.6-0.1-1.1-0.2-1.6-0.2c0,0-0.2,0-0.3,0
					c-0.2,1.1-0.8,3.2-1.4,5l-0.2,0.4L124.8,35.7z"/>
				
					<linearGradient id="SVGID_31_" gradientUnits="userSpaceOnUse" x1="-947.3088" y1="-808.1859" x2="-947.3088" y2="-793.1232" gradientTransform="matrix(0.7476 0 0 0.7232 829.4137 612.5498)">
					<stop  offset="5.618000e-03" style="stop-color:#A5C646"/>
					<stop  offset="0.3652" style="stop-color:#00A550"/>
					<stop  offset="1" style="stop-color:#009452"/>
				</linearGradient>
				<path fill="url(#SVGID_31_)" d="M119.8,41.6c0.8-0.4,2.4-2,3.2-3.4l0.1-0.1l-0.1-0.1c0,0-0.3-0.5-0.3-0.5c0,0-0.6-1.3-0.6-1.2
					l-0.1-0.1c-0.7-1.6-2-4.4-2.6-5.4c0.7-0.3,1.9-0.5,2.5-0.5h0c0.1,0,0.2,0,0.3,0.1c-0.1-0.2-0.3-0.3-0.6-0.3h0
					c-0.6,0-1.8,0.3-2.5,0.5c0.6,1,1.8,3.8,2.6,5.4l0.1,0.1c0,0,0.6,1.2,0.6,1.2c0,0,0.3,0.5,0.3,0.5l0.1,0.1l-0.1,0.1
					c-0.8,1.4-2.4,3-3.2,3.4c0,0,0,0.1,0,0.1C119.6,41.5,119.7,41.6,119.8,41.6C119.8,41.6,119.8,41.6,119.8,41.6z"/>
			</g>
			<g>
				
					<linearGradient id="SVGID_32_" gradientUnits="userSpaceOnUse" x1="-928.0083" y1="-808.1827" x2="-928.0083" y2="-793.1252" gradientTransform="matrix(0.7476 0 0 0.7232 829.4137 612.5498)">
					<stop  offset="5.618000e-03" style="stop-color:#A5C646"/>
					<stop  offset="0.3652" style="stop-color:#00A550"/>
					<stop  offset="1" style="stop-color:#009452"/>
				</linearGradient>
				<path fill="url(#SVGID_32_)" d="M135.4,37.1c1.3,0,2-0.9,2-2.6c0-0.9-0.3-1.7-0.9-2.2c0.4,0.5,0.7,1.2,0.7,2
					c0,1.7-0.7,2.6-2,2.6c-0.5,0-1-0.2-1.4-0.5C134.2,36.9,134.8,37.1,135.4,37.1z"/>
				
					<linearGradient id="SVGID_33_" gradientUnits="userSpaceOnUse" x1="-929.5831" y1="-808.186" x2="-929.5831" y2="-793.1224" gradientTransform="matrix(0.7476 0 0 0.7232 829.4137 612.5498)">
					<stop  offset="5.618000e-03" style="stop-color:#A5C646"/>
					<stop  offset="0.3652" style="stop-color:#00A550"/>
					<stop  offset="1" style="stop-color:#009452"/>
				</linearGradient>
				<path fill="url(#SVGID_33_)" d="M130.3,34.5c0-1.5,0.7-2.8,2-3.7c0.8-0.5,1.9-0.8,3-0.8h0c1.6,0,2.8,0.5,3.6,1.2
					c-0.8-0.9-2.1-1.5-3.9-1.5h0c-1.1,0-2.2,0.3-3,0.8c-1.3,0.8-2,2.2-2,3.7c0,1.4,0.5,2.4,1.3,3.1
					C130.7,36.7,130.3,35.7,130.3,34.5z"/>
			</g>
			
				<linearGradient id="SVGID_34_" gradientUnits="userSpaceOnUse" x1="-917.1649" y1="-808.1862" x2="-917.1649" y2="-793.1233" gradientTransform="matrix(0.7476 0 0 0.7232 829.4137 612.5498)">
				<stop  offset="5.618000e-03" style="stop-color:#A5C646"/>
				<stop  offset="0.3652" style="stop-color:#00A550"/>
				<stop  offset="1" style="stop-color:#009452"/>
			</linearGradient>
			<path fill="url(#SVGID_34_)" d="M142.6,29.1c0-1.1,0-1.6-0.1-2c0.4-0.2,2-0.4,2.5-0.4c0,0,0.1,0,0.1,0c-0.1-0.2-0.2-0.3-0.4-0.3
				c-0.6,0-2.1,0.2-2.5,0.4c0,0.4,0.1,0.9,0.1,2v9.5c0,0.1,0,0.2,0.3,0.2V29.1z"/>
			<g>
				
					<linearGradient id="SVGID_35_" gradientUnits="userSpaceOnUse" x1="-982.299" y1="-808.1874" x2="-982.299" y2="-793.123" gradientTransform="matrix(0.7476 0 0 0.7232 829.4137 612.5498)">
					<stop  offset="5.618000e-03" style="stop-color:#A5C646"/>
					<stop  offset="0.3652" style="stop-color:#00A550"/>
					<stop  offset="1" style="stop-color:#009452"/>
				</linearGradient>
				<path fill="url(#SVGID_35_)" d="M98,36.7c-0.1,0-0.2-0.1-0.2-0.1c0,0,0,0,0,0C97.5,36.7,96.4,37,95,37c-1.3,0-2.2-0.4-2.9-1
					c0.7,0.8,1.8,1.3,3.2,1.3c1.4,0,2.4-0.3,2.7-0.4C98,36.8,98,36.8,98,36.7C98,36.8,98,36.7,98,36.7z"/>
				
					<linearGradient id="SVGID_36_" gradientUnits="userSpaceOnUse" x1="-985.1586" y1="-808.1853" x2="-985.1586" y2="-793.1235" gradientTransform="matrix(0.7476 0 0 0.7232 829.4137 612.5498)">
					<stop  offset="5.618000e-03" style="stop-color:#A5C646"/>
					<stop  offset="0.3652" style="stop-color:#00A550"/>
					<stop  offset="1" style="stop-color:#009452"/>
				</linearGradient>
				<path fill="url(#SVGID_36_)" d="M88,33.1c0-1.9,0.7-3.6,2.1-4.8c1.2-1.1,2.8-1.6,4.8-1.6c1.6,0,2.8,0.4,3.3,0.8c0,0,0,0,0,0
					c0,0,0,0,0,0c0,0,0,0,0,0c-0.4-0.4-1.6-1-3.5-1c-1.9,0-3.5,0.5-4.8,1.6c-1.4,1.2-2.1,2.8-2.1,4.8c0,1.9,0.7,3.4,1.8,4.5
					C88.5,36.3,88,34.9,88,33.1z"/>
			</g>
			<g>
				
					<linearGradient id="SVGID_37_" gradientUnits="userSpaceOnUse" x1="-952.1244" y1="-808.1505" x2="-952.1244" y2="-793.1312" gradientTransform="matrix(0.7476 0 0 0.7232 829.4137 612.5498)">
					<stop  offset="5.618000e-03" style="stop-color:#A5C646"/>
					<stop  offset="0.3652" style="stop-color:#00A550"/>
					<stop  offset="1" style="stop-color:#009452"/>
				</linearGradient>
				<path fill="url(#SVGID_37_)" d="M118,37.3C118,37.2,118,37.2,118,37.3c0-0.2-0.1-0.2-0.1-0.2c-0.2,0-0.4-0.1-0.6-0.2
					C117.4,37.1,117.6,37.2,118,37.3z"/>
				
					<linearGradient id="SVGID_38_" gradientUnits="userSpaceOnUse" x1="-958.8761" y1="-808.186" x2="-958.8761" y2="-793.1244" gradientTransform="matrix(0.7476 0 0 0.7232 829.4137 612.5498)">
					<stop  offset="5.618000e-03" style="stop-color:#A5C646"/>
					<stop  offset="0.3652" style="stop-color:#00A550"/>
					<stop  offset="1" style="stop-color:#009452"/>
				</linearGradient>
				<path fill="url(#SVGID_38_)" d="M108.3,34.8c0-1.5,0.6-2.7,1.7-3.6c0.9-0.7,2.1-1.1,3.3-1.1c0.6,0,1.1,0.1,1.7,0.3l0.1,0
					l0.1-0.1c0.3-0.2,0.6-0.3,0.9-0.3c0.4,0,0.7,0.1,0.9,0.3c-0.2-0.3-0.6-0.5-1.2-0.5c-0.4,0-0.7,0.1-0.9,0.3l-0.1,0.1l-0.1,0
					c-0.5-0.2-1.1-0.3-1.7-0.3c-1.2,0-2.5,0.4-3.3,1.1c-1.1,0.9-1.7,2.1-1.7,3.6c0,1.3,0.5,2.4,1.3,3.1
					C108.7,36.9,108.3,36,108.3,34.8z"/>
				
					<linearGradient id="SVGID_39_" gradientUnits="userSpaceOnUse" x1="-955.6681" y1="-808.1794" x2="-955.6681" y2="-793.1237" gradientTransform="matrix(0.7476 0 0 0.7232 829.4137 612.5498)">
					<stop  offset="5.618000e-03" style="stop-color:#A5C646"/>
					<stop  offset="0.3652" style="stop-color:#00A550"/>
					<stop  offset="1" style="stop-color:#009452"/>
				</linearGradient>
				<path fill="url(#SVGID_39_)" d="M115,38.1l-0.2-0.2l0,0C114.9,38.1,115,38.1,115,38.1C115.1,38.2,115,38.2,115,38.1z"/>
				
					<linearGradient id="SVGID_40_" gradientUnits="userSpaceOnUse" x1="-958.1725" y1="-808.1852" x2="-958.1725" y2="-793.123" gradientTransform="matrix(0.7476 0 0 0.7232 829.4137 612.5498)">
					<stop  offset="5.618000e-03" style="stop-color:#A5C646"/>
					<stop  offset="0.3652" style="stop-color:#00A550"/>
					<stop  offset="1" style="stop-color:#009452"/>
				</linearGradient>
				<path fill="url(#SVGID_40_)" d="M114.2,31.8v4.5l-0.1,0.1c-0.3,0.2-0.8,0.4-1.1,0.4c-0.5,0-1-0.2-1.3-0.5c0.4,0.5,1,0.7,1.6,0.7
					c0.3,0,0.8-0.2,1.1-0.4l0.1-0.1v-4.6L114.2,31.8C114.3,31.9,114.3,31.9,114.2,31.8z"/>
			</g>
			<g>
				
					<linearGradient id="SVGID_41_" gradientUnits="userSpaceOnUse" x1="-899.2143" y1="-808.1627" x2="-899.2143" y2="-793.129" gradientTransform="matrix(0.7476 0 0 0.7232 829.4137 612.5498)">
					<stop  offset="5.618000e-03" style="stop-color:#A5C646"/>
					<stop  offset="0.3652" style="stop-color:#00A550"/>
					<stop  offset="1" style="stop-color:#009452"/>
				</linearGradient>
				<path fill="url(#SVGID_41_)" d="M157.5,37.3C157.5,37.2,157.5,37.2,157.5,37.3c0-0.2,0-0.2-0.1-0.2c-0.2,0-0.4-0.1-0.6-0.2
					C156.9,37.1,157.2,37.2,157.5,37.3z"/>
				
					<linearGradient id="SVGID_42_" gradientUnits="userSpaceOnUse" x1="-905.9669" y1="-808.186" x2="-905.9669" y2="-793.1244" gradientTransform="matrix(0.7476 0 0 0.7232 829.4137 612.5498)">
					<stop  offset="5.618000e-03" style="stop-color:#A5C646"/>
					<stop  offset="0.3652" style="stop-color:#00A550"/>
					<stop  offset="1" style="stop-color:#009452"/>
				</linearGradient>
				<path fill="url(#SVGID_42_)" d="M147.9,34.8c0-1.5,0.6-2.7,1.7-3.6c0.9-0.7,2.1-1.1,3.3-1.1c0.6,0,1.1,0.1,1.7,0.3l0.1,0
					l0.1-0.1c0.3-0.2,0.6-0.3,0.9-0.3c0.4,0,0.7,0.1,0.9,0.3c-0.2-0.3-0.6-0.5-1.2-0.5c-0.4,0-0.7,0.1-0.9,0.3l-0.1,0.1l-0.1,0
					c-0.5-0.2-1.1-0.3-1.7-0.3c-1.2,0-2.5,0.4-3.3,1.1c-1.1,0.9-1.7,2.1-1.7,3.6c0,1.3,0.5,2.4,1.3,3.1
					C148.2,36.9,147.9,36,147.9,34.8z"/>
				
					<linearGradient id="SVGID_43_" gradientUnits="userSpaceOnUse" x1="-905.2631" y1="-808.1852" x2="-905.2631" y2="-793.123" gradientTransform="matrix(0.7476 0 0 0.7232 829.4137 612.5498)">
					<stop  offset="5.618000e-03" style="stop-color:#A5C646"/>
					<stop  offset="0.3652" style="stop-color:#00A550"/>
					<stop  offset="1" style="stop-color:#009452"/>
				</linearGradient>
				<path fill="url(#SVGID_43_)" d="M153.8,31.8v4.5l-0.1,0.1c-0.3,0.2-0.8,0.4-1.1,0.4c-0.5,0-1-0.2-1.3-0.5c0.4,0.5,1,0.7,1.6,0.7
					c0.3,0,0.8-0.2,1.1-0.4l0.1-0.1v-4.6L153.8,31.8C153.9,31.9,153.8,31.9,153.8,31.8z"/>
				
					<linearGradient id="SVGID_44_" gradientUnits="userSpaceOnUse" x1="-902.759" y1="-808.1683" x2="-902.759" y2="-793.1245" gradientTransform="matrix(0.7476 0 0 0.7232 829.4137 612.5498)">
					<stop  offset="5.618000e-03" style="stop-color:#A5C646"/>
					<stop  offset="0.3652" style="stop-color:#00A550"/>
					<stop  offset="1" style="stop-color:#009452"/>
				</linearGradient>
				<path fill="url(#SVGID_44_)" d="M154.6,38.1l-0.2-0.2l0,0C154.5,38.1,154.5,38.1,154.6,38.1C154.6,38.2,154.6,38.2,154.6,38.1z"
					/>
			</g>
		</g>
		<g>
			<path fill="#009148" d="M169.8,38.4v0.1h-0.3v0.9h-0.2v-0.9H169v-0.1H169.8z M170.8,39.4l0-0.6c0-0.1,0-0.2,0-0.3h0
				c0,0.1-0.1,0.2-0.1,0.3l-0.2,0.6h-0.1l-0.2-0.6c0-0.1-0.1-0.2-0.1-0.3h0c0,0.1,0,0.2,0,0.3l0,0.6h-0.1l0.1-1h0.2l0.2,0.6
				c0,0.1,0,0.2,0.1,0.3h0c0-0.1,0-0.2,0.1-0.3l0.2-0.6h0.2l0.1,1H170.8z"/>
		</g>
		<path fill-rule="evenodd" clip-rule="evenodd" fill="#009148" d="M161.7,29.4c0.6,0,1.1-0.4,1.1-0.9c0-0.5-0.5-0.9-1.1-0.9
			c-0.6,0-1.1,0.4-1.1,0.9C160.6,29,161.1,29.4,161.7,29.4z M160.8,28.5c0-0.4,0.4-0.8,0.9-0.8c0.5,0,0.9,0.3,0.9,0.8
			c0,0.5-0.4,0.8-0.9,0.8C161.2,29.2,160.8,28.9,160.8,28.5z M161.5,28.5h0.2L162,29h0.2l-0.3-0.5c0.2,0,0.3-0.1,0.3-0.3
			c0-0.2-0.1-0.3-0.4-0.3h-0.5V29h0.2V28.5z M161.5,28.4v-0.3h0.3c0.1,0,0.3,0,0.3,0.2c0,0.2-0.1,0.2-0.3,0.2H161.5z"/>
	</g>
</g>
</svg>
